;TYPE=PLATED
;Layer: PTH_Through
;EasyEDA Pro v2.2.20.11, 2024-05-07 19:23:26
;Gerber Generator version 0.3
M48
METRIC,LZ,000.00000
;Hole size 1 = 0.30500 METRIC
T01C0.30500
;Hole size 2 = 0.31000 METRIC
T02C0.31000
;Hole size 3 = 2.03200 METRIC
T03C2.03200
%
G05
G90
T01
X-17.399Y-8.001
X-16.764Y-8.001
X-16.129Y-8.001
X-15.494Y-8.001
X-14.859Y-8.001
X-14.224Y-8.001
X-13.589Y-8.001
X-13.6805Y-10.61055
X-17.4905Y-10.61055
X-16.8555Y-10.61055
X-16.2205Y-10.61055
X-15.5855Y-10.61055
X-14.9505Y-10.61055
X-14.3155Y-10.61055
X11.65574Y-7.8838
X7.84574Y-7.8838
X8.48074Y-7.8838
X9.11574Y-7.8838
X9.75074Y-7.8838
X10.38574Y-7.8838
X11.02074Y-7.8838
X11.61078Y-10.68575
X7.80078Y-10.68575
X8.43578Y-10.68575
X9.07078Y-10.68575
X9.70578Y-10.68575
X10.34078Y-10.68575
X10.97578Y-10.68575
X12.2597Y-10.68575
X12.8947Y-10.68575
X13.5297Y-10.68575
X12.29074Y-7.8838
X12.92574Y-7.8838
X13.56074Y-7.8838
X-16.86211Y-27.19575
X-16.22711Y-27.19575
X-15.59211Y-27.19575
X-14.95711Y-27.19575
X-14.94712Y-30.02942
X-15.58212Y-30.02942
X-16.21712Y-30.02942
X-16.85212Y-30.02942
X7.55834Y-27.16899
X8.19334Y-27.16899
X8.82834Y-27.16899
X10.09834Y-27.16899
X9.46334Y-27.16899
X10.73334Y-27.16899
X11.36834Y-27.16899
X12.00334Y-27.16899
X12.63834Y-27.16899
X13.27334Y-27.16899
X7.49668Y-29.94797
X8.13168Y-29.94797
X8.76668Y-29.94797
X10.03668Y-29.94797
X9.40168Y-29.94797
X10.67168Y-29.94797
X11.30668Y-29.94797
X11.94168Y-29.94797
X12.57668Y-29.94797
X13.21168Y-29.94797
T02
X-11.37445Y-7.07532
X7.50913Y-7.07532
X9.53971Y-7.07532
X8.86258Y-7.07532
X10.88852Y-7.07532
X8.18866Y-7.07532
X10.21363Y-7.07532
X11.56244Y-7.07532
X-10.70053Y-7.07532
X-5.30754Y-7.07532
X-9.35172Y-7.07532
X-2.60857Y-7.07532
X-10.02661Y-7.07532
X-3.95409Y-7.07532
X-7.32435Y-7.07532
X-1.93465Y-7.07532
X-8.6778Y-7.07532
X-4.63362Y-7.07532
X-6.65635Y-7.07532
X-1.25976Y-7.07532
X-7.99827Y-7.07532
X-3.28017Y-7.07532
X-5.98243Y-7.07532
X6.16032Y-7.07532
X5.4864Y-7.07532
X6.83521Y-7.07532
X-0.58584Y-7.07532
X4.13983Y-7.07532
X1.43757Y-7.07532
X0.76761Y-7.07532
X2.78638Y-7.07532
X0.09369Y-7.07532
X4.81375Y-7.07532
X2.11149Y-7.07532
X3.4603Y-7.07532
T03
X-18.79557Y-6.14314
X17.13746Y6.77388
X17.13824Y-6.02663
X-18.79478Y6.656
X-18.64951Y-25.3412
X-18.64804Y-12.54204
X17.2843Y-25.22469
X17.2842Y-12.65992
M30