G04 Layer: BottomLayer*
G04 EasyEDA Pro v2.2.20.11, 2024-05-07 19:23:25*
G04 Gerber Generator version 0.3*
G04 Scale: 100 percent, Rotated: No, Reflected: No*
G04 Dimensions in millimeters*
G04 Leading zeros omitted, absolute positions, 3 integers and 5 decimals*
%FSLAX35Y35*%
%MOMM*%
%ADD8191C,0.2032*%
%ADD10C,0.254*%
%ADD11C,1.2*%
%ADD12C,3.0*%
%ADD13C,2.032*%
%ADD14C,0.4594*%
%ADD15C,0.45*%
G75*


G04 Copper Start*
G36*
G01X1577929Y-4605699D02*
G01X-1775017Y-4602220D01*
G03X-1718348Y-4468622I-129145J133598D01*
G03X-1904162Y-4282808I-185814J0D01*
G03X-2089976Y-4468622I0J-185814D01*
G03X-2089946Y-4471964I185814J0D01*
G02X-2093499Y-4440589I160610J34079D01*
G01X-2093499Y-4440589D01*
G03X-2093397Y-4437885I-35712J2704D01*
G01X-2093397Y-4437885D01*
G01X-2093397Y-3349960D01*
G01X-2093397Y-3349960D01*
G01X-2093397Y-3201896D01*
G01X-2093397Y-3201896D01*
G03X-2093499Y-3199196I-35814J0D01*
G01X-2093499Y-3199196D01*
G02X-2087214Y-3156843I164163J-2718D01*
G03X-2089950Y-3188614I183078J-31771D01*
G03X-1904136Y-3374428I185814J0D01*
G03X-1718322Y-3188614I0J185814D01*
G03X-1795692Y-3037728I-185814J0D01*
G01X-1383328Y-3037728D01*
G01X-1386580Y-3040981D01*
G01X-1386580Y-3040981D01*
G03X-1409793Y-3097022I56041J-56041D01*
G01X-1409793Y-3097022D01*
G01X-1409793Y-3236722D01*
G01X-1409793Y-3236722D01*
G01X-1409793Y-3376422D01*
G01X-1409793Y-3376422D01*
G03X-1323179Y-3463036I86614J0D01*
G02X-1287634Y-3498581I0J-35545D01*
G01X-1287634Y-3498581D01*
G01X-1287634Y-3553114D01*
G01X-1287634Y-3553114D01*
G03X-1197534Y-3643214I90101J0D01*
G01X-1197534Y-3643214D01*
G01X-188307Y-3643214D01*
G01X-188307Y-3643214D01*
G03X-98207Y-3553114I0J90101D01*
G01X-98207Y-3553114D01*
G01X-98207Y-3498581D01*
G01X-98207Y-3498581D01*
G02X-62662Y-3463036I35545J0D01*
G03X23952Y-3376422I0J86614D01*
G01X23952Y-3376422D01*
G01X23952Y-3240309D01*
G03X24133Y-3236719I-35634J3590D01*
G03X23952Y-3233130I-35814J0D01*
G01X23952Y-3097022D01*
G01X23952Y-3097022D01*
G03X1239Y-3041485I-79254J0D01*
G01X1574435Y-3041485D01*
G03X1503286Y-3187700I114665J-146215D01*
G03X1689100Y-3373514I185814J0D01*
G03X1874914Y-3187700I0J185814D01*
G03X1833743Y-3071059I-185814J0D01*
G02X1903926Y-3205670I-94003J-134612D01*
G01X1903926Y-3205673D01*
G01X1903926Y-3379201D01*
G01X1903926Y-3379201D01*
G01X1903926Y-4279219D01*
G01X1903926Y-4279219D01*
G01X1903987Y-4281308D01*
G01X1903987Y-4439543D01*
G01X1903926Y-4441632D01*
G01X1903926Y-4441635D01*
G02X1828318Y-4579876I-164186J0D01*
G03X1874914Y-4456811I-139218J123065D01*
G03X1689100Y-4270997I-185814J0D01*
G03X1503286Y-4456811I0J-185814D01*
G03X1577929Y-4605699I185814J0D01*
G37*
G36*
G01X-2052815Y-681384D02*
G02X-2081698Y-588378I135303J93006D01*
G01X-2081698Y-588375D01*
G01X-2081759Y-586287D01*
G01X-2081759Y-461777D01*
G01X-2055801Y-461777D01*
G01X-2027066Y-490512D01*
G01X-2027066Y-490512D01*
G01X-2022159Y-495418D01*
G03X-2065289Y-614448I142684J-119030D01*
G03X-2052815Y-681384I185814J0D01*
G37*
G36*
G01X-2081698Y509870D02*
G01X-2081698Y647584D01*
G01X-2081698Y647587D01*
G02X-2043432Y752948I164186J-0D01*
G03X-2065264Y665559I163982J-87389D01*
G03X-2020570Y544679I185814J0D01*
G01X-2055379Y509870D01*
G01X-2081698Y509870D01*
G37*
G36*
G01X-2041937Y-2590594D02*
G02X-2066907Y-2506222I139193J87076D01*
G01X-2066907Y-2506222D01*
G03X-2066805Y-2503518I-35712J2704D01*
G01X-2066805Y-2503518D01*
G01X-2066805Y-1415593D01*
G01X-2066805Y-1415593D01*
G01X-2066805Y-1267529D01*
G01X-2066805Y-1267529D01*
G03X-2066907Y-1264828I-35814J0D01*
G01X-2066907Y-1264828D01*
G02X-2021218Y-1153877I164163J-2718D01*
G03X-2050659Y-1254247I156373J-100371D01*
G03X-1864845Y-1440061I185814J0D01*
G03X-1727349Y-1379234I0J185814D01*
G01X-1727349Y-2409296D01*
G03X-1864870Y-2348441I-137521J-124959D01*
G03X-2050684Y-2534255I0J-185814D01*
G03X-2041937Y-2590594I185814J0D01*
G37*
G36*
G01X-1203149Y-751869D02*
G01X-1755038Y-752442D01*
G03X-1693662Y-614448I-124437J137994D01*
G03X-1735501Y-496982I-185814J0D01*
G01X-1735462Y-495300D01*
G01X-1735462Y-495300D01*
G01X-1735462Y533400D01*
G01X-1735462Y533400D01*
G03X-1737587Y545553I-35814J0D01*
G01X-1737587Y545553D01*
G03X-1693636Y665559I-141863J120007D01*
G03X-1764965Y811915I-185814J0D01*
G01X1589546Y815515D01*
G03X1542155Y748546I124241J-138170D01*
G03X1516170Y759714I-25985J-24646D01*
G01X1516170Y759714D01*
G01X-1308100Y759714D01*
G01X-1308100Y759714D01*
G03X-1343914Y723900I0J-35814D01*
G01X-1343914Y723900D01*
G01X-1343914Y569214D01*
G01X-1562100Y569214D01*
G01X-1562100Y569214D01*
G03X-1597914Y533400I0J-35814D01*
G01X-1597914Y533400D01*
G01X-1597914Y-495300D01*
G01X-1597914Y-495300D01*
G03X-1562100Y-531114I35814J0D01*
G01X-1562100Y-531114D01*
G01X-1343914Y-531114D01*
G01X-1343914Y-653120D01*
G01X-1343914Y-653120D01*
G03X-1308100Y-688934I35814J0D01*
G01X-1308100Y-688934D01*
G01X-1233017Y-688934D01*
G03X-1203149Y-751869I95572J6802D01*
G37*
G36*
G01X1617238Y-2671345D02*
G01X-1735739Y-2667866D01*
G03X-1698019Y-2616032I-129131J133611D01*
G03X-1691535Y-2616624I6484J35222D01*
G01X-1691535Y-2616624D01*
G01X1132735Y-2616624D01*
G01X1132735Y-2616624D01*
G03X1168549Y-2580810I0J35814D01*
G01X1168549Y-2580810D01*
G01X1168549Y-1203790D01*
G01X1168549Y-1203790D01*
G03X1132735Y-1167976I-35814J0D01*
G01X1132735Y-1167976D01*
G01X-1691535Y-1167976D01*
G01X-1691535Y-1167976D01*
G03X-1699773Y-1168936I0J-35814D01*
G03X-1756405Y-1103357I-165072J-85311D01*
G01X1632299Y-1106995D01*
G03X1542578Y-1266033I96092J-159038D01*
G03X1728392Y-1451847I185814J0D01*
G03X1914206Y-1266033I0J185814D01*
G03X1864988Y-1140064I-185814J0D01*
G02X1930517Y-1271303I-98657J-131239D01*
G01X1930517Y-1271306D01*
G01X1930517Y-1444834D01*
G01X1930517Y-1444834D01*
G01X1930517Y-2344852D01*
G01X1930517Y-2344852D01*
G01X1930578Y-2346941D01*
G01X1930578Y-2505176D01*
G01X1930517Y-2507265D01*
G01X1930517Y-2507268D01*
G02X1888130Y-2617368I-164186J0D01*
G03X1914206Y-2522444I-159738J94924D01*
G03X1728392Y-2336630I-185814J0D01*
G03X1542578Y-2522444I0J-185814D01*
G03X1617238Y-2671345I185814J0D01*
G37*
G36*
G01X1882917Y493314D02*
G01X1837515Y538716D01*
G03X1899600Y677345I-123729J138629D01*
G03X1887398Y743571I-185814J0D01*
G02X1915727Y654061I-135834J-92228D01*
G01X1915727Y654061D01*
G03X1915625Y651361I35712J-2700D01*
G01X1915625Y651361D01*
G01X1915625Y503296D01*
G01X1915625Y503296D01*
G01X1915711Y500811D01*
G01X1915711Y493314D01*
G01X1882917Y493314D01*
G37*
G36*
G01X1915740Y-586072D02*
G02X1878328Y-688968I-164179J1446D01*
G03X1899600Y-602637I-164541J86330D01*
G03X1840907Y-467112I-185814J0D01*
G01X1882917Y-425102D01*
G01X1915711Y-425102D01*
G01X1915711Y-584626D01*
G01X1915711Y-584626D01*
G01X1915740Y-586072D01*
G01X1915740Y-586072D01*
G37*
G54D8191*
G01X1577929Y-4605699D02*
G01X-1775017Y-4602220D01*
G03X-1718348Y-4468622I-129145J133598D01*
G03X-1904162Y-4282808I-185814J0D01*
G03X-2089976Y-4468622I0J-185814D01*
G03X-2089946Y-4471964I185814J0D01*
G02X-2093499Y-4440589I160610J34079D01*
G01X-2093499Y-4440589D01*
G03X-2093397Y-4437885I-35712J2704D01*
G01X-2093397Y-4437885D01*
G01X-2093397Y-3349960D01*
G01X-2093397Y-3349960D01*
G01X-2093397Y-3201896D01*
G01X-2093397Y-3201896D01*
G03X-2093499Y-3199196I-35814J0D01*
G01X-2093499Y-3199196D01*
G02X-2087214Y-3156843I164163J-2718D01*
G03X-2089950Y-3188614I183078J-31771D01*
G03X-1904136Y-3374428I185814J0D01*
G03X-1718322Y-3188614I0J185814D01*
G03X-1795692Y-3037728I-185814J0D01*
G01X-1383328Y-3037728D01*
G01X-1386580Y-3040981D01*
G01X-1386580Y-3040981D01*
G03X-1409793Y-3097022I56041J-56041D01*
G01X-1409793Y-3097022D01*
G01X-1409793Y-3236722D01*
G01X-1409793Y-3236722D01*
G01X-1409793Y-3376422D01*
G01X-1409793Y-3376422D01*
G03X-1323179Y-3463036I86614J0D01*
G02X-1287634Y-3498581I0J-35545D01*
G01X-1287634Y-3498581D01*
G01X-1287634Y-3553114D01*
G01X-1287634Y-3553114D01*
G03X-1197534Y-3643214I90101J0D01*
G01X-1197534Y-3643214D01*
G01X-188307Y-3643214D01*
G01X-188307Y-3643214D01*
G03X-98207Y-3553114I0J90101D01*
G01X-98207Y-3553114D01*
G01X-98207Y-3498581D01*
G01X-98207Y-3498581D01*
G02X-62662Y-3463036I35545J0D01*
G03X23952Y-3376422I0J86614D01*
G01X23952Y-3376422D01*
G01X23952Y-3240309D01*
G03X24133Y-3236719I-35634J3590D01*
G03X23952Y-3233130I-35814J0D01*
G01X23952Y-3097022D01*
G01X23952Y-3097022D01*
G03X1239Y-3041485I-79254J0D01*
G01X1574435Y-3041485D01*
G03X1503286Y-3187700I114665J-146215D01*
G03X1689100Y-3373514I185814J0D01*
G03X1874914Y-3187700I0J185814D01*
G03X1833743Y-3071059I-185814J0D01*
G02X1903926Y-3205670I-94003J-134612D01*
G01X1903926Y-3205673D01*
G01X1903926Y-3379201D01*
G01X1903926Y-3379201D01*
G01X1903926Y-4279219D01*
G01X1903926Y-4279219D01*
G01X1903987Y-4281308D01*
G01X1903987Y-4439543D01*
G01X1903926Y-4441632D01*
G01X1903926Y-4441635D01*
G02X1828318Y-4579876I-164186J0D01*
G03X1874914Y-4456811I-139218J123065D01*
G03X1689100Y-4270997I-185814J0D01*
G03X1503286Y-4456811I0J-185814D01*
G03X1577929Y-4605699I185814J0D01*
G01X-2052815Y-681384D02*
G02X-2081698Y-588378I135303J93006D01*
G01X-2081698Y-588375D01*
G01X-2081759Y-586287D01*
G01X-2081759Y-461777D01*
G01X-2055801Y-461777D01*
G01X-2027066Y-490512D01*
G01X-2027066Y-490512D01*
G01X-2022159Y-495418D01*
G03X-2065289Y-614448I142684J-119030D01*
G03X-2052815Y-681384I185814J0D01*
G01X-2081698Y509870D02*
G01X-2081698Y647584D01*
G01X-2081698Y647587D01*
G02X-2043432Y752948I164186J-0D01*
G03X-2065264Y665559I163982J-87389D01*
G03X-2020570Y544679I185814J0D01*
G01X-2055379Y509870D01*
G01X-2081698Y509870D01*
G01X-2041937Y-2590594D02*
G02X-2066907Y-2506222I139193J87076D01*
G01X-2066907Y-2506222D01*
G03X-2066805Y-2503518I-35712J2704D01*
G01X-2066805Y-2503518D01*
G01X-2066805Y-1415593D01*
G01X-2066805Y-1415593D01*
G01X-2066805Y-1267529D01*
G01X-2066805Y-1267529D01*
G03X-2066907Y-1264828I-35814J0D01*
G01X-2066907Y-1264828D01*
G02X-2021218Y-1153877I164163J-2718D01*
G03X-2050659Y-1254247I156373J-100371D01*
G03X-1864845Y-1440061I185814J0D01*
G03X-1727349Y-1379234I0J185814D01*
G01X-1727349Y-2409296D01*
G03X-1864870Y-2348441I-137521J-124959D01*
G03X-2050684Y-2534255I0J-185814D01*
G03X-2041937Y-2590594I185814J0D01*
G01X-1203149Y-751869D02*
G01X-1755038Y-752442D01*
G03X-1693662Y-614448I-124437J137994D01*
G03X-1735501Y-496982I-185814J0D01*
G01X-1735462Y-495300D01*
G01X-1735462Y-495300D01*
G01X-1735462Y533400D01*
G01X-1735462Y533400D01*
G03X-1737587Y545553I-35814J0D01*
G01X-1737587Y545553D01*
G03X-1693636Y665559I-141863J120007D01*
G03X-1764965Y811915I-185814J0D01*
G01X1589546Y815515D01*
G03X1542155Y748546I124241J-138170D01*
G03X1516170Y759714I-25985J-24646D01*
G01X1516170Y759714D01*
G01X-1308100Y759714D01*
G01X-1308100Y759714D01*
G03X-1343914Y723900I0J-35814D01*
G01X-1343914Y723900D01*
G01X-1343914Y569214D01*
G01X-1562100Y569214D01*
G01X-1562100Y569214D01*
G03X-1597914Y533400I0J-35814D01*
G01X-1597914Y533400D01*
G01X-1597914Y-495300D01*
G01X-1597914Y-495300D01*
G03X-1562100Y-531114I35814J0D01*
G01X-1562100Y-531114D01*
G01X-1343914Y-531114D01*
G01X-1343914Y-653120D01*
G01X-1343914Y-653120D01*
G03X-1308100Y-688934I35814J0D01*
G01X-1308100Y-688934D01*
G01X-1233017Y-688934D01*
G03X-1203149Y-751869I95572J6802D01*
G01X1617238Y-2671345D02*
G01X-1735739Y-2667866D01*
G03X-1698019Y-2616032I-129131J133611D01*
G03X-1691535Y-2616624I6484J35222D01*
G01X-1691535Y-2616624D01*
G01X1132735Y-2616624D01*
G01X1132735Y-2616624D01*
G03X1168549Y-2580810I0J35814D01*
G01X1168549Y-2580810D01*
G01X1168549Y-1203790D01*
G01X1168549Y-1203790D01*
G03X1132735Y-1167976I-35814J0D01*
G01X1132735Y-1167976D01*
G01X-1691535Y-1167976D01*
G01X-1691535Y-1167976D01*
G03X-1699773Y-1168936I0J-35814D01*
G03X-1756405Y-1103357I-165072J-85311D01*
G01X1632299Y-1106995D01*
G03X1542578Y-1266033I96092J-159038D01*
G03X1728392Y-1451847I185814J0D01*
G03X1914206Y-1266033I0J185814D01*
G03X1864988Y-1140064I-185814J0D01*
G02X1930517Y-1271303I-98657J-131239D01*
G01X1930517Y-1271306D01*
G01X1930517Y-1444834D01*
G01X1930517Y-1444834D01*
G01X1930517Y-2344852D01*
G01X1930517Y-2344852D01*
G01X1930578Y-2346941D01*
G01X1930578Y-2505176D01*
G01X1930517Y-2507265D01*
G01X1930517Y-2507268D01*
G02X1888130Y-2617368I-164186J0D01*
G03X1914206Y-2522444I-159738J94924D01*
G03X1728392Y-2336630I-185814J0D01*
G03X1542578Y-2522444I0J-185814D01*
G03X1617238Y-2671345I185814J0D01*
G01X1882917Y493314D02*
G01X1837515Y538716D01*
G03X1899600Y677345I-123729J138629D01*
G03X1887398Y743571I-185814J0D01*
G02X1915727Y654061I-135834J-92228D01*
G01X1915727Y654061D01*
G03X1915625Y651361I35712J-2700D01*
G01X1915625Y651361D01*
G01X1915625Y503296D01*
G01X1915625Y503296D01*
G01X1915711Y500811D01*
G01X1915711Y493314D01*
G01X1882917Y493314D01*
G01X1915740Y-586072D02*
G02X1878328Y-688968I-164179J1446D01*
G03X1899600Y-602637I-164541J86330D01*
G03X1840907Y-467112I-185814J0D01*
G01X1882917Y-425102D01*
G01X1915711Y-425102D01*
G01X1915711Y-584626D01*
G01X1915711Y-584626D01*
G01X1915740Y-586072D01*
G01X1915740Y-586072D01*
G54D10*
G01X-1879476Y-614448D02*
G01X-2055383Y-614448D01*
G01X-1879476Y-614448D02*
G01X-1703568Y-614448D01*
G01X-1879450Y665559D02*
G01X-2055358Y665559D01*
G01X-1879450Y665559D02*
G01X-1703542Y665559D01*
G01X1713786Y-602637D02*
G01X1889694Y-602637D01*
G01X1713786Y677345D02*
G01X1889694Y677345D01*
G01X-1864870Y-2534255D02*
G01X-2040778Y-2534255D01*
G01X-1864870Y-2534255D02*
G01X-1864870Y-2358347D01*
G01X-1864845Y-1254247D02*
G01X-2040753Y-1254247D01*
G01X-1864845Y-1254247D02*
G01X-1864845Y-1430155D01*
G01X1728392Y-1266033D02*
G01X1904300Y-1266033D01*
G01X1728392Y-1266033D02*
G01X1552484Y-1266033D01*
G01X1728392Y-1266033D02*
G01X1728392Y-1441941D01*
G01X1728392Y-2522444D02*
G01X1904300Y-2522444D01*
G01X1728392Y-2522444D02*
G01X1552484Y-2522444D01*
G01X1728392Y-2522444D02*
G01X1728392Y-2346536D01*
G01X-1904136Y-3188614D02*
G01X-2080044Y-3188614D01*
G01X-1904136Y-3188614D02*
G01X-1728228Y-3188614D01*
G01X-1904136Y-3188614D02*
G01X-1904136Y-3364522D01*
G01X1689100Y-3187700D02*
G01X1865008Y-3187700D01*
G01X1689100Y-3187700D02*
G01X1513192Y-3187700D01*
G01X1689100Y-3187700D02*
G01X1689100Y-3363608D01*
G04 Copper End*

G04 PolygonModel Start*
G54D11*
G01X-1137445Y-682132D02*
G01X1165443Y-682132D01*

G04 Rect Start*
G36*
G01X752990Y-1130300D02*
G01X752990Y-707530D01*
G01X1397000Y-707530D01*
G01X1397000Y-1130300D01*
G01X752990Y-1130300D01*
G37*
G36*
G01X736600Y-3086100D02*
G01X736600Y-2628900D01*
G01X1346200Y-2628900D01*
G01X1346200Y-3086100D01*
G01X736600Y-3086100D01*
G37*
G04 Rect End*

G04 Pad Start*
G54D12*
G01X-1879476Y-614448D03*
G01X1713786Y677345D03*
G01X1713786Y-602637D03*
G01X-1879450Y665559D03*
G01X-1864870Y-2534255D03*
G54D13*
G01X-1864870Y-2534255D03*
G54D12*
G01X-1864845Y-1254247D03*
G54D13*
G01X-1864845Y-1254247D03*
G01X1728392Y-2522444D03*
G01X1728392Y-1266033D03*
G54D12*
G01X1728392Y-1266033D03*
G01X1728392Y-2522444D03*
G01X1689100Y-4456811D03*
G01X1689100Y-3187700D03*
G01X-1904162Y-4468622D03*
G01X-1904136Y-3188614D03*
G04 Pad End*

G04 Via Start*
G54D15*
G01X-1137445Y-707532D03*
G01X750913Y-707532D03*
G01X953971Y-707532D03*
G01X886258Y-707532D03*
G01X1088852Y-707532D03*
G01X818866Y-707532D03*
G01X1021363Y-707532D03*
G01X1156244Y-707532D03*
G01X-1070053Y-707532D03*
G01X-530754Y-707532D03*
G01X-935172Y-707532D03*
G01X-260857Y-707532D03*
G01X-1002661Y-707532D03*
G01X-395409Y-707532D03*
G01X-732435Y-707532D03*
G01X-193465Y-707532D03*
G01X-867780Y-707532D03*
G01X-463362Y-707532D03*
G01X-665635Y-707532D03*
G01X-125976Y-707532D03*
G01X-799827Y-707532D03*
G01X-328017Y-707532D03*
G01X-598243Y-707532D03*
G01X616032Y-707532D03*
G01X548640Y-707532D03*
G01X683521Y-707532D03*
G01X-58584Y-707532D03*
G01X413983Y-707532D03*
G01X143757Y-707532D03*
G01X76761Y-707532D03*
G01X278638Y-707532D03*
G01X9369Y-707532D03*
G01X481375Y-707532D03*
G01X211149Y-707532D03*
G01X346030Y-707532D03*
G01X-1739900Y-800100D03*
G01X-1676400Y-800100D03*
G01X-1612900Y-800100D03*
G01X-1549400Y-800100D03*
G01X-1485900Y-800100D03*
G01X-1422400Y-800100D03*
G01X-1358900Y-800100D03*
G01X-1368050Y-1061055D03*
G01X-1749050Y-1061055D03*
G01X-1685550Y-1061055D03*
G01X-1622050Y-1061055D03*
G01X-1558550Y-1061055D03*
G01X-1495050Y-1061055D03*
G01X-1431550Y-1061055D03*
G01X1165574Y-788380D03*
G01X784574Y-788380D03*
G01X848074Y-788380D03*
G01X911574Y-788380D03*
G01X975074Y-788380D03*
G01X1038574Y-788380D03*
G01X1102074Y-788380D03*
G01X1161078Y-1068575D03*
G01X780078Y-1068575D03*
G01X843578Y-1068575D03*
G01X907078Y-1068575D03*
G01X970578Y-1068575D03*
G01X1034078Y-1068575D03*
G01X1097578Y-1068575D03*
G01X1225970Y-1068575D03*
G01X1289470Y-1068575D03*
G01X1352970Y-1068575D03*
G01X1229074Y-788380D03*
G01X1292574Y-788380D03*
G01X1356074Y-788380D03*
G01X-1686211Y-2719575D03*
G01X-1622711Y-2719575D03*
G01X-1559211Y-2719575D03*
G01X-1495711Y-2719575D03*
G01X-1494712Y-3002942D03*
G01X-1558212Y-3002942D03*
G01X-1621712Y-3002942D03*
G01X-1685212Y-3002942D03*
G01X755834Y-2716899D03*
G01X819334Y-2716899D03*
G01X882834Y-2716899D03*
G01X1009834Y-2716899D03*
G01X946334Y-2716899D03*
G01X1073334Y-2716899D03*
G01X1136834Y-2716899D03*
G01X1200334Y-2716899D03*
G01X1263834Y-2716899D03*
G01X1327334Y-2716899D03*
G01X749668Y-2994797D03*
G01X813168Y-2994797D03*
G01X876668Y-2994797D03*
G01X1003668Y-2994797D03*
G01X940168Y-2994797D03*
G01X1067168Y-2994797D03*
G01X1130668Y-2994797D03*
G01X1194168Y-2994797D03*
G01X1257668Y-2994797D03*
G01X1321168Y-2994797D03*
G04 Via End*

M02*

