G04 Layer: BoardOutlineLayer*
G04 EasyEDA Pro v2.2.20.11, 2024-05-07 19:23:25*
G04 Gerber Generator version 0.3*
G04 Scale: 100 percent, Rotated: No, Reflected: No*
G04 Dimensions in millimeters*
G04 Leading zeros omitted, absolute positions, 3 integers and 5 decimals*
%FSLAX35Y35*%
%MOMM*%
%ADD10C,0.15001*%
G75*


G04 PolygonModel Start*
G54D10*
G01X-2117512Y-588375D02*
G03X-1917509Y-788377I200000J-3D01*
G01X-2099539Y-425963D02*
G01X-2117573Y-425963D01*
G01X-2117573Y-588266D01*
G01X-2099539Y-425963D02*
G01X-2040966Y-425963D01*
G01X-2001741Y-465187D01*
G01X-2099559Y474056D02*
G01X-2117512Y474056D01*
G01X-2001741Y-465187D02*
G01X-1971629Y-495300D01*
G01X-1981200Y533400D02*
G01X-1771276Y533400D01*
G01X-1771276Y-495300D01*
G01X-1971629Y-495300D01*
G01X1751559Y-784626D02*
G03X1951561Y-584624I3J200000D01*
G01X1951563Y651340D02*
G03X1751561Y851342I-200000J3D01*
G01X1868082Y-389288D02*
G01X1951525Y-389288D01*
G01X1868082Y457500D02*
G01X1951525Y457500D01*
G01X1951439Y651361D02*
G01X1951439Y503296D01*
G01X1951525Y-389288D02*
G01X1951525Y-584626D01*
G01X1951525Y503215D02*
G01X1951525Y457500D01*
G01X-1921634Y847560D02*
G01X1750842Y851502D01*
G01X-1292451Y533400D02*
G01X-1562100Y533400D01*
G01X-1562100Y-495300D01*
G01X-1292438Y-495300D01*
G01X-2117512Y647584D02*
G01X-2117512Y474056D01*
G01X-1917509Y847586D02*
G03X-2117512Y647584I-3J-200000D01*
G01X-2099559Y474056D02*
G01X-2040544Y474056D01*
G01X-1981200Y533400D01*
G01X-1902741Y-2703518D02*
G02X-2102744Y-2503516I-3J200000D01*
G01X-2102619Y-1415593D02*
G01X-2102619Y-2503518D01*
G01X-2102619Y-1267529D02*
G01X-2102619Y-1415593D01*
G01X-2102744Y-1267549D02*
G02X-1902741Y-1067547I200000J3D01*
G01X1766329Y-1071304D02*
G02X1966331Y-1271306I3J-200000D01*
G01X1966331Y-2507265D02*
G02X1766329Y-2707267I-200000J-3D01*
G01X1966331Y-1271306D02*
G01X1966331Y-1444834D01*
G01X1966331Y-1444834D02*
G01X1966331Y-2344852D01*
G01X1966392Y-2344852D02*
G01X1966392Y-2507156D01*
G01X1751561Y-784626D02*
G01X1422400Y-784626D01*
G01X1422400Y-1071304D01*
G01X1766329Y-1071304D01*
G01X1502560Y558153D02*
G01X1767430Y558153D01*
G01X1868082Y457500D01*
G01X1502560Y-467876D02*
G01X1789494Y-467876D01*
G01X1868082Y-389288D01*
G01X-1308100Y-653120D02*
G01X1516170Y-653120D01*
G01X1516170Y723900D02*
G01X-1308100Y723900D01*
G01X-1308100Y723900D02*
G01X-1308100Y533400D01*
G01X-1308100Y-653120D02*
G01X-1308100Y-495300D01*
G01X1516170Y723900D02*
G01X1516170Y558153D01*
G01X1516170Y-653120D02*
G01X1516170Y-467876D01*
G01X1939740Y-4441632D02*
G02X1739737Y-4641634I-200000J-3D01*
G01X1739737Y-3005671D02*
G02X1939740Y-3205673I3J-200000D01*
G01X1939740Y-3379201D02*
G01X1939740Y-4279219D01*
G01X1939740Y-3205673D02*
G01X1939740Y-3379201D01*
G01X1939801Y-4279219D02*
G01X1939801Y-4441523D01*
G01X-1197534Y-3607400D02*
G01X-188307Y-3607400D01*
G03X-134021Y-3553114I0J54287D01*
G01X-134021Y-3498581D01*
G01X1735839Y-4641677D02*
G01X-1933191Y-4637870D01*
G01X-1929333Y-4637885D02*
G02X-2129335Y-4437883I-3J200000D01*
G01X-2129211Y-3349960D02*
G01X-2129211Y-4437885D01*
G01X-1197534Y-3607400D02*
G02X-1251820Y-3553114I0J54287D01*
G01X-1251820Y-3498581D01*
G01X-1251820Y-3498581D02*
G03X-1323179Y-3427222I-71359J0D01*
G02X-1373979Y-3376422I0J50800D01*
G01X-1373979Y-3236722D01*
G01X-2129211Y-3201896D02*
G01X-2129211Y-3349960D01*
G01X-1373979Y-3097022D02*
G01X-1373979Y-3236722D01*
G01X-2129335Y-3201916D02*
G02X-1929333Y-3001914I200000J3D01*
G01X-1373979Y-3097022D02*
G02X-1361256Y-3066305I43440J0D01*
G01X-1299585Y-3004635D01*
G01X-134021Y-3498581D02*
G02X-62662Y-3427222I71359J0D01*
G03X-11862Y-3376422I0J50800D01*
G01X-11862Y-3236722D01*
G01X-11862Y-3097022D02*
G01X-11862Y-3236284D01*
G01X-11681Y-3236719D01*
G01X-11862Y-3097022D02*
G03X-24585Y-3066305I-43440J0D01*
G01X-86256Y-3004635D01*
G01X1766332Y-2707267D02*
G01X1371600Y-2707267D01*
G01X1371600Y-3005671D01*
G01X1739740Y-3005671D01*
G01X723900Y-788377D02*
G01X723900Y-1067547D01*
G01X711200Y-2703518D02*
G01X711200Y-3002942D01*
G01X-88676Y-3002942D01*
G01X-1306153Y-3001914D02*
G02X-1299585Y-3004635I0J-9288D01*
G01X-1932762Y-3000522D02*
G01X-1739900Y-3000522D01*
G01X-1739900Y-2703518D01*
G01X-1902741Y-2703518D01*
G01X711200Y-2703518D02*
G01X-1422400Y-2703518D01*
G01X-1422400Y-3004635D01*
G01X-1299585Y-3004635D01*
G01X-1917512Y-788377D02*
G01X-1803400Y-788377D01*
G01X-1803400Y-1067547D01*
G01X-1902744Y-1067547D01*
G01X723900Y-788377D02*
G01X-1295400Y-788377D01*
G01X-1295400Y-1071310D01*
G01X723900Y-1071310D01*

G04 Rect Start*
G01X-1691530Y-2580810D02*
G01X-1691530Y-1203790D01*
G01X1132740Y-1203790D01*
G01X1132740Y-2580810D01*
G01X-1691530Y-2580810D01*
G04 Rect End*

M02*

