G04 Layer: TopSilkscreenLayer*
G04 EasyEDA Pro v2.2.20.11, 2024-05-07 19:23:25*
G04 Gerber Generator version 0.3*
G04 Scale: 100 percent, Rotated: No, Reflected: No*
G04 Dimensions in millimeters*
G04 Leading zeros omitted, absolute positions, 3 integers and 5 decimals*
%FSLAX35Y35*%
%MOMM*%
%ADD10C,0.1*%
%ADD11C,0.15*%
G75*


G04 Text Start*
G54D10*
G01X-1710182Y-376682D02*
G01X-1650238Y-376682D01*
G01X-1639062Y-380238D01*
G01X-1635252Y-384048D01*
G01X-1631442Y-391668D01*
G01X-1631442Y-399034D01*
G01X-1635252Y-406654D01*
G01X-1639062Y-410464D01*
G01X-1650238Y-414020D01*
G01X-1657604Y-414020D01*
G01X-1710182Y-348742D02*
G01X-1631442Y-348742D01*
G01X-1631442Y-348742D02*
G01X-1631442Y-303784D01*
G01X-1691386Y-219456D02*
G01X-1699006Y-223266D01*
G01X-1706372Y-230886D01*
G01X-1710182Y-238252D01*
G01X-1710182Y-253238D01*
G01X-1706372Y-260858D01*
G01X-1699006Y-268224D01*
G01X-1691386Y-272034D01*
G01X-1680210Y-275844D01*
G01X-1661414Y-275844D01*
G01X-1650238Y-272034D01*
G01X-1642618Y-268224D01*
G01X-1635252Y-260858D01*
G01X-1631442Y-253238D01*
G01X-1631442Y-238252D01*
G01X-1635252Y-230886D01*
G01X-1642618Y-223266D01*
G01X-1650238Y-219456D01*
G01X-1710182Y-153924D02*
G01X-1650238Y-153924D01*
G01X-1639062Y-157734D01*
G01X-1635252Y-161544D01*
G01X-1631442Y-168910D01*
G01X-1631442Y-176530D01*
G01X-1635252Y-183896D01*
G01X-1639062Y-187706D01*
G01X-1650238Y-191516D01*
G01X-1657604Y-191516D01*
G01X-1710182Y-125984D02*
G01X-1631442Y-125984D01*
G01X-1631442Y-125984D02*
G01X-1631442Y-81026D01*
G01X-1691386Y3302D02*
G01X-1699006Y-508D01*
G01X-1706372Y-8128D01*
G01X-1710182Y-15494D01*
G01X-1710182Y-30480D01*
G01X-1706372Y-38100D01*
G01X-1699006Y-45466D01*
G01X-1691386Y-49276D01*
G01X-1680210Y-53086D01*
G01X-1661414Y-53086D01*
G01X-1650238Y-49276D01*
G01X-1642618Y-45466D01*
G01X-1635252Y-38100D01*
G01X-1631442Y-30480D01*
G01X-1631442Y-15494D01*
G01X-1635252Y-8128D01*
G01X-1642618Y-508D01*
G01X-1650238Y3302D01*
G01X-1710182Y68834D02*
G01X-1650238Y68834D01*
G01X-1639062Y65024D01*
G01X-1635252Y61214D01*
G01X-1631442Y53848D01*
G01X-1631442Y46228D01*
G01X-1635252Y38862D01*
G01X-1639062Y35052D01*
G01X-1650238Y31242D01*
G01X-1657604Y31242D01*
G01X-1710182Y96774D02*
G01X-1631442Y96774D01*
G01X-1631442Y96774D02*
G01X-1631442Y141732D01*
G01X-1691386Y226060D02*
G01X-1699006Y222250D01*
G01X-1706372Y214630D01*
G01X-1710182Y207264D01*
G01X-1710182Y192278D01*
G01X-1706372Y184658D01*
G01X-1699006Y177292D01*
G01X-1691386Y173482D01*
G01X-1680210Y169672D01*
G01X-1661414Y169672D01*
G01X-1650238Y173482D01*
G01X-1642618Y177292D01*
G01X-1635252Y184658D01*
G01X-1631442Y192278D01*
G01X-1631442Y207264D01*
G01X-1635252Y214630D01*
G01X-1642618Y222250D01*
G01X-1650238Y226060D01*
G01X-1710182Y291592D02*
G01X-1650238Y291592D01*
G01X-1639062Y287782D01*
G01X-1635252Y283972D01*
G01X-1631442Y276606D01*
G01X-1631442Y268986D01*
G01X-1635252Y261620D01*
G01X-1639062Y257810D01*
G01X-1650238Y254000D01*
G01X-1657604Y254000D01*
G01X-1710182Y319532D02*
G01X-1631442Y319532D01*
G01X-1631442Y319532D02*
G01X-1631442Y364490D01*
G01X-1691386Y448818D02*
G01X-1699006Y445008D01*
G01X-1706372Y437388D01*
G01X-1710182Y430022D01*
G01X-1710182Y415036D01*
G01X-1706372Y407416D01*
G01X-1699006Y400050D01*
G01X-1691386Y396240D01*
G01X-1680210Y392430D01*
G01X-1661414Y392430D01*
G01X-1650238Y396240D01*
G01X-1642618Y400050D01*
G01X-1635252Y407416D01*
G01X-1631442Y415036D01*
G01X-1631442Y430022D01*
G01X-1635252Y437388D01*
G01X-1642618Y445008D01*
G01X-1650238Y448818D01*
G36*
G01X-673129Y-2057371D02*
G01X-676564Y-2058093D01*
G01X-676564Y-2041467D01*
G01X-676383Y-2026639D01*
G01X-676210Y-2024041D01*
G01X-676095Y-2023432D01*
G01X-675987Y-2022184D01*
G01X-675640Y-1969424D01*
G01X-676077Y-1921699D01*
G01X-676347Y-1917245D01*
G01X-676452Y-1916576D01*
G01X-676564Y-1916314D01*
G01X-677026Y-1916228D01*
G01X-677487Y-1916430D01*
G01X-677949Y-1916921D01*
G01X-678411Y-1917700D01*
G01X-681182Y-1923473D01*
G01X-682106Y-1926013D01*
G01X-683260Y-1929116D01*
G01X-684761Y-1932363D01*
G01X-685916Y-1935249D01*
G01X-686954Y-1936995D01*
G01X-687878Y-1938727D01*
G01X-689494Y-1942407D01*
G01X-690649Y-1944384D01*
G01X-691573Y-1946116D01*
G01X-693189Y-1949796D01*
G01X-693651Y-1950662D01*
G01X-695036Y-1952914D01*
G01X-696884Y-1956377D01*
G01X-697807Y-1957878D01*
G01X-703349Y-1966768D01*
G01X-704763Y-1969424D01*
G01X-705608Y-1970809D01*
G01X-706582Y-1972194D01*
G01X-709411Y-1976178D01*
G01X-712528Y-1980219D01*
G01X-714894Y-1983480D01*
G01X-716518Y-1985378D01*
G01X-717615Y-1986821D01*
G01X-718943Y-1988885D01*
G01X-719311Y-1989311D01*
G01X-719693Y-1989635D01*
G01X-720090Y-1989859D01*
G01X-720501Y-1989982D01*
G01X-720927Y-1990003D01*
G01X-721367Y-1989924D01*
G01X-721822Y-1989744D01*
G01X-722240Y-1989491D01*
G01X-722572Y-1989195D01*
G01X-722818Y-1988856D01*
G01X-722976Y-1988474D01*
G01X-723049Y-1988048D01*
G01X-723034Y-1987579D01*
G01X-722933Y-1987067D01*
G01X-722746Y-1986511D01*
G01X-721822Y-1984433D01*
G01X-720667Y-1982456D01*
G01X-719744Y-1980724D01*
G01X-718127Y-1977044D01*
G01X-716973Y-1975066D01*
G01X-716049Y-1973335D01*
G01X-714433Y-1969654D01*
G01X-713278Y-1967677D01*
G01X-712354Y-1965946D01*
G01X-710738Y-1962266D01*
G01X-709584Y-1960281D01*
G01X-708660Y-1958376D01*
G01X-707967Y-1956493D01*
G01X-706813Y-1953390D01*
G01X-705196Y-1949796D01*
G01X-704273Y-1947256D01*
G01X-703118Y-1944154D01*
G01X-701502Y-1940560D01*
G01X-700578Y-1938020D01*
G01X-699424Y-1934917D01*
G01X-698298Y-1932478D01*
G01X-697605Y-1930631D01*
G01X-696768Y-1927860D01*
G01X-695527Y-1925060D01*
G01X-694834Y-1922982D01*
G01X-694315Y-1920702D01*
G01X-693817Y-1918970D01*
G01X-691804Y-1913544D01*
G01X-691342Y-1911927D01*
G01X-690620Y-1908694D01*
G01X-690122Y-1906963D01*
G01X-688109Y-1901536D01*
G01X-687878Y-1900815D01*
G01X-686954Y-1897409D01*
G01X-685800Y-1893339D01*
G01X-684761Y-1888028D01*
G01X-683953Y-1884911D01*
G01X-682365Y-1879571D01*
G01X-682134Y-1877955D01*
G01X-682048Y-1876136D01*
G01X-681874Y-1875213D01*
G01X-681586Y-1874289D01*
G01X-680965Y-1872896D01*
G01X-680619Y-1871915D01*
G01X-680201Y-1868083D01*
G01X-680027Y-1867016D01*
G01X-679739Y-1866005D01*
G01X-679118Y-1864576D01*
G01X-678772Y-1863537D01*
G01X-678541Y-1862383D01*
G01X-678411Y-1860434D01*
G01X-678411Y-1857664D01*
G01X-691804Y-1857664D01*
G01X-702541Y-1857894D01*
G01X-705918Y-1858183D01*
G01X-707109Y-1858371D01*
G01X-707967Y-1858587D01*
G01X-712124Y-1859973D01*
G01X-712787Y-1860117D01*
G01X-713394Y-1860088D01*
G01X-713942Y-1859886D01*
G01X-714433Y-1859511D01*
G01X-715472Y-1858587D01*
G01X-717406Y-1857173D01*
G01X-718560Y-1856018D01*
G01X-720090Y-1854084D01*
G01X-721360Y-1853046D01*
G01X-722284Y-1852122D01*
G01X-722284Y-1851198D01*
G01X-721706Y-1850957D01*
G01X-720442Y-1850773D01*
G01X-717548Y-1850567D01*
G01X-698731Y-1850274D01*
G01X-675640Y-1850274D01*
G01X-675640Y-1825336D01*
G01X-675756Y-1806286D01*
G01X-675994Y-1799727D01*
G01X-676102Y-1799013D01*
G01X-676210Y-1798551D01*
G01X-676433Y-1796090D01*
G01X-676564Y-1788853D01*
G01X-676333Y-1782272D01*
G01X-676044Y-1780627D01*
G01X-675640Y-1780078D01*
G01X-675121Y-1780136D01*
G01X-674486Y-1780309D01*
G01X-672869Y-1781002D01*
G01X-671137Y-1781926D01*
G01X-669276Y-1783080D01*
G01X-667544Y-1784004D01*
G01X-663864Y-1785620D01*
G01X-662998Y-1786082D01*
G01X-660862Y-1787352D01*
G01X-659123Y-1788059D01*
G01X-657976Y-1788622D01*
G01X-655291Y-1790440D01*
G01X-654281Y-1791046D01*
G01X-653213Y-1791595D01*
G01X-651106Y-1792576D01*
G01X-650471Y-1793124D01*
G01X-650182Y-1793731D01*
G01X-650240Y-1794394D01*
G01X-650529Y-1795058D01*
G01X-650933Y-1795664D01*
G01X-651452Y-1796213D01*
G01X-652087Y-1796704D01*
G01X-653906Y-1798089D01*
G01X-655436Y-1799474D01*
G01X-656748Y-1800433D01*
G01X-656992Y-1800882D01*
G01X-657176Y-1801572D01*
G01X-657494Y-1803816D01*
G01X-657766Y-1807613D01*
G01X-658091Y-1825798D01*
G01X-658091Y-1850274D01*
G01X-651164Y-1850274D01*
G01X-648075Y-1850217D01*
G01X-645737Y-1850044D01*
G01X-644150Y-1849755D01*
G01X-643638Y-1849567D01*
G01X-643313Y-1849351D01*
G01X-642274Y-1848427D01*
G01X-640340Y-1847013D01*
G01X-639185Y-1845858D01*
G01X-637656Y-1843924D01*
G01X-635722Y-1842395D01*
G01X-634567Y-1841240D01*
G01X-633586Y-1839941D01*
G01X-633037Y-1839422D01*
G01X-632431Y-1839018D01*
G01X-631767Y-1838729D01*
G01X-631103Y-1838614D01*
G01X-630497Y-1838729D01*
G01X-629949Y-1839076D01*
G01X-629458Y-1839653D01*
G01X-628419Y-1840923D01*
G01X-626485Y-1842452D01*
G01X-625331Y-1843607D01*
G01X-623801Y-1845541D01*
G01X-621867Y-1847071D01*
G01X-620712Y-1848225D01*
G01X-619731Y-1849524D01*
G01X-619183Y-1850044D01*
G01X-618577Y-1850448D01*
G01X-617249Y-1851025D01*
G01X-616643Y-1851429D01*
G01X-616094Y-1851949D01*
G01X-615604Y-1852584D01*
G01X-614564Y-1853854D01*
G01X-613294Y-1854893D01*
G01X-612371Y-1855816D01*
G01X-612371Y-1856740D01*
G01X-612939Y-1856982D01*
G01X-614180Y-1857165D01*
G01X-617018Y-1857371D01*
G01X-635462Y-1857664D01*
G01X-658091Y-1857664D01*
G01X-658091Y-1872904D01*
G01X-657860Y-1884564D01*
G01X-657571Y-1887711D01*
G01X-657384Y-1888613D01*
G01X-657167Y-1889067D01*
G01X-656915Y-1889305D01*
G01X-655472Y-1890402D01*
G01X-653934Y-1891376D01*
G01X-648739Y-1894609D01*
G01X-645276Y-1896456D01*
G01X-643774Y-1897380D01*
G01X-637886Y-1901074D01*
G01X-632691Y-1904769D01*
G01X-630872Y-1906154D01*
G01X-629343Y-1907540D01*
G01X-627409Y-1908954D01*
G01X-626254Y-1910109D01*
G01X-622819Y-1914900D01*
G01X-621896Y-1916517D01*
G01X-621030Y-1918739D01*
G01X-619908Y-1921245D01*
G01X-619590Y-1922529D01*
G01X-619356Y-1924541D01*
G01X-619298Y-1926474D01*
G01X-619356Y-1928408D01*
G01X-619529Y-1930054D01*
G01X-619659Y-1930768D01*
G01X-620005Y-1931980D01*
G01X-620655Y-1933431D01*
G01X-621347Y-1935509D01*
G01X-621867Y-1937731D01*
G01X-622184Y-1938713D01*
G01X-622560Y-1939579D01*
G01X-623801Y-1941714D01*
G01X-624378Y-1943100D01*
G01X-624696Y-1943735D01*
G01X-625186Y-1944254D01*
G01X-625850Y-1944659D01*
G01X-626687Y-1944947D01*
G01X-627135Y-1945027D01*
G01X-627553Y-1945034D01*
G01X-627943Y-1944969D01*
G01X-628304Y-1944832D01*
G01X-628636Y-1944622D01*
G01X-628939Y-1944341D01*
G01X-629213Y-1943987D01*
G01X-630382Y-1941830D01*
G01X-631529Y-1939968D01*
G01X-631933Y-1939160D01*
G01X-632431Y-1937731D01*
G01X-632979Y-1935480D01*
G01X-633384Y-1934326D01*
G01X-633903Y-1933171D01*
G01X-635202Y-1930862D01*
G01X-636090Y-1929130D01*
G01X-637338Y-1926244D01*
G01X-638182Y-1924512D01*
G01X-639156Y-1922780D01*
G01X-645160Y-1913197D01*
G01X-647209Y-1910311D01*
G01X-648097Y-1908926D01*
G01X-649345Y-1906674D01*
G01X-649894Y-1905924D01*
G01X-650500Y-1905289D01*
G01X-651503Y-1904524D01*
G01X-652138Y-1903946D01*
G01X-652715Y-1903254D01*
G01X-653235Y-1902446D01*
G01X-653992Y-1901161D01*
G01X-654627Y-1900497D01*
G01X-655378Y-1900007D01*
G01X-656244Y-1899689D01*
G01X-658091Y-1899227D01*
G01X-658091Y-1951413D01*
G01X-657873Y-1999157D01*
G01X-657685Y-2004612D01*
G01X-657629Y-2004984D01*
G01X-657573Y-2005236D01*
G01X-657416Y-2007153D01*
G01X-657167Y-2028074D01*
G01X-657254Y-2037628D01*
G01X-657708Y-2047088D01*
G01X-657947Y-2048943D01*
G01X-658228Y-2050148D01*
G01X-658553Y-2050704D01*
G01X-660054Y-2051627D01*
G01X-662738Y-2053013D01*
G01X-665942Y-2054398D01*
G01X-667609Y-2055091D01*
G01X-671051Y-2056678D01*
G01X-673129Y-2057371D01*
G37*
G36*
G01X-913072Y-2056419D02*
G01X-913938Y-2056707D01*
G01X-914804Y-2056852D01*
G01X-915554Y-2056823D01*
G01X-916189Y-2056621D01*
G01X-916709Y-2056246D01*
G01X-917084Y-2055755D01*
G01X-917286Y-2055206D01*
G01X-917315Y-2054600D01*
G01X-917171Y-2053936D01*
G01X-916882Y-2053272D01*
G01X-916478Y-2052666D01*
G01X-915959Y-2052118D01*
G01X-914660Y-2051137D01*
G01X-913505Y-2049982D01*
G01X-911976Y-2048048D01*
G01X-910042Y-2046518D01*
G01X-908887Y-2045364D01*
G01X-907357Y-2043430D01*
G01X-905423Y-2041900D01*
G01X-904269Y-2040746D01*
G01X-902739Y-2038812D01*
G01X-900805Y-2037282D01*
G01X-899651Y-2036127D01*
G01X-898698Y-2034800D01*
G01X-896851Y-2032664D01*
G01X-895466Y-2030846D01*
G01X-894080Y-2029027D01*
G01X-892694Y-2027497D01*
G01X-891309Y-2025563D01*
G01X-889686Y-2023665D01*
G01X-888589Y-2022223D01*
G01X-887614Y-2020686D01*
G01X-884382Y-2015490D01*
G01X-882967Y-2012834D01*
G01X-882123Y-2011449D01*
G01X-880485Y-2009111D01*
G01X-879879Y-2008101D01*
G01X-879331Y-2007033D01*
G01X-877916Y-2003829D01*
G01X-876560Y-2001491D01*
G01X-875867Y-1999875D01*
G01X-875030Y-1997133D01*
G01X-873789Y-1994333D01*
G01X-873096Y-1992255D01*
G01X-872577Y-1990032D01*
G01X-872259Y-1989051D01*
G01X-871884Y-1988185D01*
G01X-871047Y-1986713D01*
G01X-870758Y-1985934D01*
G01X-870585Y-1985097D01*
G01X-870513Y-1983733D01*
G01X-870397Y-1982751D01*
G01X-870008Y-1981171D01*
G01X-868976Y-1978184D01*
G01X-868629Y-1976798D01*
G01X-868218Y-1974504D01*
G01X-867987Y-1973003D01*
G01X-867526Y-1970694D01*
G01X-866948Y-1968384D01*
G01X-866804Y-1965758D01*
G01X-866573Y-1964142D01*
G01X-866315Y-1963234D01*
G01X-866089Y-1961926D01*
G01X-865974Y-1960425D01*
G01X-865909Y-1957416D01*
G01X-865794Y-1953606D01*
G01X-865649Y-1952307D01*
G01X-865391Y-1951227D01*
G01X-865166Y-1949919D01*
G01X-865050Y-1948418D01*
G01X-864986Y-1945409D01*
G01X-864870Y-1941599D01*
G01X-864726Y-1940300D01*
G01X-864520Y-1939394D01*
G01X-864431Y-1938374D01*
G01X-864062Y-1870133D01*
G01X-863701Y-1811792D01*
G01X-863355Y-1803306D01*
G01X-863250Y-1802511D01*
G01X-863138Y-1802246D01*
G01X-862590Y-1802332D01*
G01X-861868Y-1802592D01*
G01X-859906Y-1803631D01*
G01X-855287Y-1806402D01*
G01X-851232Y-1808927D01*
G01X-850424Y-1809274D01*
G01X-849500Y-1809505D01*
G01X-848461Y-1809620D01*
G01X-847328Y-1809620D01*
G01X-846231Y-1809505D01*
G01X-845192Y-1809274D01*
G01X-844211Y-1808927D01*
G01X-842818Y-1808307D01*
G01X-841894Y-1808018D01*
G01X-840971Y-1807845D01*
G01X-839152Y-1807758D01*
G01X-837536Y-1807527D01*
G01X-835198Y-1806864D01*
G01X-831042Y-1805940D01*
G01X-827809Y-1805016D01*
G01X-823653Y-1804093D01*
G01X-820420Y-1803169D01*
G01X-815917Y-1802130D01*
G01X-813262Y-1801322D01*
G01X-807720Y-1799474D01*
G01X-804617Y-1798320D01*
G01X-801254Y-1796819D01*
G01X-798455Y-1795953D01*
G01X-797444Y-1795549D01*
G01X-796377Y-1795029D01*
G01X-793173Y-1793240D01*
G01X-790892Y-1792287D01*
G01X-790286Y-1791970D01*
G01X-789738Y-1791595D01*
G01X-788995Y-1790931D01*
G01X-788360Y-1790469D01*
G01X-787082Y-1789776D01*
G01X-784947Y-1788824D01*
G01X-784052Y-1788276D01*
G01X-783330Y-1787669D01*
G01X-782291Y-1786428D01*
G01X-781743Y-1786082D01*
G01X-781137Y-1785966D01*
G01X-780473Y-1786082D01*
G01X-779087Y-1786659D01*
G01X-777702Y-1787467D01*
G01X-776432Y-1788506D01*
G01X-774902Y-1790440D01*
G01X-773747Y-1791595D01*
G01X-772420Y-1792605D01*
G01X-771814Y-1793240D01*
G01X-771265Y-1793991D01*
G01X-770284Y-1795722D01*
G01X-769736Y-1796473D01*
G01X-769129Y-1797108D01*
G01X-768466Y-1797627D01*
G01X-767196Y-1798666D01*
G01X-765666Y-1800600D01*
G01X-764511Y-1801755D01*
G01X-763241Y-1802736D01*
G01X-762808Y-1803284D01*
G01X-762548Y-1803891D01*
G01X-762462Y-1804554D01*
G01X-762543Y-1804802D01*
G01X-762904Y-1805094D01*
G01X-763193Y-1805224D01*
G01X-763986Y-1805452D01*
G01X-765718Y-1805711D01*
G01X-767657Y-1805853D01*
G01X-771698Y-1805940D01*
G01X-773892Y-1805954D01*
G01X-779087Y-1806171D01*
G01X-781396Y-1806459D01*
G01X-782204Y-1806647D01*
G01X-782782Y-1806864D01*
G01X-783734Y-1807268D01*
G01X-784744Y-1807556D01*
G01X-785812Y-1807729D01*
G01X-788093Y-1807816D01*
G01X-789824Y-1807968D01*
G01X-791556Y-1808249D01*
G01X-793634Y-1808711D01*
G01X-796059Y-1809375D01*
G01X-797704Y-1809570D01*
G01X-802640Y-1809750D01*
G01X-803679Y-1809894D01*
G01X-804487Y-1810096D01*
G01X-805988Y-1810443D01*
G01X-808615Y-1810587D01*
G01X-810231Y-1810818D01*
G01X-812800Y-1811482D01*
G01X-815571Y-1811944D01*
G01X-824865Y-1813098D01*
G01X-827636Y-1813560D01*
G01X-829281Y-1813993D01*
G01X-831359Y-1814224D01*
G01X-835314Y-1814368D01*
G01X-837738Y-1814714D01*
G01X-839816Y-1815176D01*
G01X-842183Y-1815840D01*
G01X-844031Y-1816071D01*
G01X-847436Y-1816100D01*
G01X-847436Y-1884449D01*
G01X-816033Y-1884449D01*
G01X-792249Y-1884103D01*
G01X-786072Y-1883670D01*
G01X-784413Y-1883388D01*
G01X-783706Y-1883064D01*
G01X-782666Y-1881794D01*
G01X-780732Y-1880264D01*
G01X-779578Y-1879109D01*
G01X-778048Y-1877176D01*
G01X-776114Y-1875646D01*
G01X-774960Y-1874491D01*
G01X-773978Y-1873192D01*
G01X-773430Y-1872673D01*
G01X-772824Y-1872269D01*
G01X-772160Y-1871980D01*
G01X-771496Y-1871864D01*
G01X-770890Y-1871980D01*
G01X-770342Y-1872326D01*
G01X-769360Y-1873567D01*
G01X-768206Y-1874722D01*
G01X-766272Y-1876252D01*
G01X-764742Y-1878186D01*
G01X-763587Y-1879340D01*
G01X-761654Y-1880870D01*
G01X-760124Y-1882804D01*
G01X-758969Y-1883958D01*
G01X-757036Y-1885488D01*
G01X-755506Y-1887422D01*
G01X-754351Y-1888577D01*
G01X-753052Y-1889558D01*
G01X-752533Y-1890106D01*
G01X-752129Y-1890712D01*
G01X-751840Y-1891376D01*
G01X-751899Y-1891624D01*
G01X-752434Y-1891916D01*
G01X-753031Y-1892077D01*
G01X-754835Y-1892347D01*
G01X-757757Y-1892567D01*
G01X-767542Y-1892762D01*
G01X-780242Y-1892877D01*
G01X-785221Y-1893115D01*
G01X-786014Y-1893224D01*
G01X-788324Y-1893686D01*
G01X-788324Y-1952336D01*
G01X-788143Y-2003281D01*
G01X-787918Y-2011976D01*
G01X-787862Y-2012373D01*
G01X-787705Y-2013071D01*
G01X-787488Y-2015539D01*
G01X-787284Y-2025419D01*
G01X-787140Y-2027064D01*
G01X-786938Y-2028074D01*
G01X-786781Y-2028740D01*
G01X-786565Y-2030948D01*
G01X-786476Y-2035002D01*
G01X-786491Y-2036329D01*
G01X-786606Y-2038639D01*
G01X-786837Y-2040486D01*
G01X-787184Y-2041871D01*
G01X-787400Y-2042391D01*
G01X-787652Y-2042838D01*
G01X-787948Y-2043257D01*
G01X-788670Y-2044007D01*
G01X-789565Y-2044642D01*
G01X-792711Y-2046086D01*
G01X-794327Y-2047009D01*
G01X-795828Y-2047817D01*
G01X-798426Y-2048654D01*
G01X-799176Y-2048972D01*
G01X-799811Y-2049347D01*
G01X-800851Y-2050184D01*
G01X-801486Y-2050473D01*
G01X-802236Y-2050646D01*
G01X-803102Y-2050704D01*
G01X-803939Y-2050617D01*
G01X-804603Y-2050357D01*
G01X-805093Y-2049924D01*
G01X-805411Y-2049318D01*
G01X-805613Y-2048568D01*
G01X-805844Y-2046721D01*
G01X-805844Y-2044527D01*
G01X-805613Y-2042679D01*
G01X-805382Y-2041833D01*
G01X-805303Y-2041424D01*
G01X-805112Y-2039127D01*
G01X-804949Y-2028998D01*
G01X-804769Y-2018535D01*
G01X-804596Y-2016572D01*
G01X-804480Y-2016042D01*
G01X-804389Y-2014989D01*
G01X-804026Y-1953722D01*
G01X-804026Y-1892762D01*
G01X-847436Y-1892762D01*
G01X-847436Y-1910311D01*
G01X-847617Y-1925933D01*
G01X-847790Y-1928647D01*
G01X-847898Y-1929246D01*
G01X-848006Y-1929685D01*
G01X-848244Y-1932132D01*
G01X-848476Y-1943908D01*
G01X-848620Y-1945727D01*
G01X-848822Y-1946794D01*
G01X-849168Y-1948296D01*
G01X-849312Y-1950922D01*
G01X-849543Y-1952538D01*
G01X-849854Y-1953621D01*
G01X-850092Y-1954876D01*
G01X-850236Y-1958051D01*
G01X-850467Y-1959899D01*
G01X-851131Y-1962612D01*
G01X-851824Y-1967432D01*
G01X-852286Y-1969972D01*
G01X-852978Y-1972541D01*
G01X-854017Y-1977852D01*
G01X-854826Y-1980969D01*
G01X-856673Y-1987434D01*
G01X-857134Y-1988936D01*
G01X-857596Y-1990206D01*
G01X-858058Y-1991244D01*
G01X-858751Y-1992421D01*
G01X-859674Y-1994326D01*
G01X-861291Y-1998634D01*
G01X-861753Y-1999586D01*
G01X-863138Y-2001866D01*
G01X-864552Y-2004522D01*
G01X-865397Y-2005907D01*
G01X-867035Y-2008216D01*
G01X-867922Y-2009602D01*
G01X-869171Y-2011911D01*
G01X-870015Y-2013296D01*
G01X-873298Y-2017914D01*
G01X-874684Y-2019733D01*
G01X-876069Y-2021263D01*
G01X-877454Y-2023197D01*
G01X-879071Y-2025087D01*
G01X-879764Y-2025996D01*
G01X-881178Y-2028479D01*
G01X-881726Y-2029229D01*
G01X-882332Y-2029864D01*
G01X-883660Y-2030874D01*
G01X-884815Y-2032029D01*
G01X-886344Y-2033963D01*
G01X-888278Y-2035492D01*
G01X-889433Y-2036647D01*
G01X-890176Y-2037664D01*
G01X-891194Y-2038812D01*
G01X-892088Y-2039649D01*
G01X-895234Y-2042276D01*
G01X-897544Y-2044440D01*
G01X-898929Y-2045595D01*
G01X-900286Y-2046547D01*
G01X-902422Y-2048394D01*
G01X-904240Y-2049780D01*
G01X-906058Y-2051166D01*
G01X-907040Y-2052060D01*
G01X-907588Y-2052436D01*
G01X-908194Y-2052753D01*
G01X-909522Y-2053301D01*
G01X-910128Y-2053706D01*
G01X-910677Y-2054225D01*
G01X-911687Y-2055495D01*
G01X-912322Y-2056014D01*
G01X-913072Y-2056419D01*
G37*
G36*
G01X252153Y-2055784D02*
G01X251489Y-2055928D01*
G01X250883Y-2055899D01*
G01X250334Y-2055697D01*
G01X249844Y-2055322D01*
G01X249411Y-2054831D01*
G01X249036Y-2054283D01*
G01X248718Y-2053677D01*
G01X248458Y-2053013D01*
G01X248343Y-2052349D01*
G01X248458Y-2051743D01*
G01X248804Y-2051194D01*
G01X249382Y-2050704D01*
G01X250652Y-2049664D01*
G01X252182Y-2047731D01*
G01X253336Y-2046576D01*
G01X255270Y-2045046D01*
G01X256800Y-2043112D01*
G01X257954Y-2041958D01*
G01X259888Y-2040428D01*
G01X261418Y-2038494D01*
G01X262573Y-2037340D01*
G01X263590Y-2036597D01*
G01X264737Y-2035579D01*
G01X265574Y-2034684D01*
G01X266469Y-2033616D01*
G01X273858Y-2024380D01*
G01X275987Y-2021494D01*
G01X278476Y-2017568D01*
G01X285115Y-2008245D01*
G01X286039Y-2006629D01*
G01X286457Y-2005546D01*
G01X287265Y-2003815D01*
G01X289149Y-2000546D01*
G01X291407Y-1996324D01*
G01X292562Y-1994463D01*
G01X293486Y-1992731D01*
G01X294178Y-1991129D01*
G01X299720Y-1977274D01*
G01X301106Y-1973580D01*
G01X301336Y-1972858D01*
G01X302260Y-1969452D01*
G01X303414Y-1965498D01*
G01X304338Y-1961342D01*
G01X305262Y-1958109D01*
G01X306186Y-1953953D01*
G01X306849Y-1951615D01*
G01X307080Y-1949998D01*
G01X307224Y-1946910D01*
G01X307571Y-1944024D01*
G01X307802Y-1942523D01*
G01X308264Y-1940214D01*
G01X308502Y-1939380D01*
G01X308593Y-1938315D01*
G01X308956Y-1876136D01*
G01X308810Y-1825659D01*
G01X308551Y-1813277D01*
G01X308494Y-1812867D01*
G01X308213Y-1811374D01*
G01X308098Y-1809873D01*
G01X308033Y-1806864D01*
G01X308148Y-1803054D01*
G01X308293Y-1801755D01*
G01X308494Y-1800860D01*
G01X308812Y-1800312D01*
G01X309303Y-1800052D01*
G01X309967Y-1800081D01*
G01X310804Y-1800398D01*
G01X311727Y-1800889D01*
G01X313113Y-1801733D01*
G01X315422Y-1803371D01*
G01X316807Y-1804259D01*
G01X319059Y-1805478D01*
G01X320444Y-1806402D01*
G01X321209Y-1807094D01*
G01X322118Y-1807787D01*
G01X323734Y-1808711D01*
G01X324687Y-1809086D01*
G01X325697Y-1809288D01*
G01X326765Y-1809317D01*
G01X333433Y-1808249D01*
G01X334934Y-1808018D01*
G01X337243Y-1807556D01*
G01X338830Y-1807123D01*
G01X340908Y-1806892D01*
G01X344156Y-1806734D01*
G01X345310Y-1806503D01*
G01X346349Y-1806156D01*
G01X347778Y-1805536D01*
G01X351552Y-1805002D01*
G01X352649Y-1804886D01*
G01X353688Y-1804656D01*
G01X354669Y-1804309D01*
G01X356091Y-1803689D01*
G01X359865Y-1803155D01*
G01X360961Y-1803039D01*
G01X362001Y-1802808D01*
G01X362982Y-1802462D01*
G01X364403Y-1801841D01*
G01X365414Y-1801553D01*
G01X366482Y-1801379D01*
G01X368704Y-1801264D01*
G01X369686Y-1801091D01*
G01X370551Y-1800802D01*
G01X372023Y-1799994D01*
G01X372803Y-1799706D01*
G01X373640Y-1799532D01*
G01X375458Y-1799417D01*
G01X376382Y-1799244D01*
G01X377306Y-1798955D01*
G01X378691Y-1798334D01*
G01X379614Y-1797988D01*
G01X380538Y-1797757D01*
G01X381462Y-1797642D01*
G01X382847Y-1797569D01*
G01X383771Y-1797396D01*
G01X384694Y-1797108D01*
G01X386571Y-1796271D01*
G01X388649Y-1795578D01*
G01X390929Y-1795058D01*
G01X392661Y-1794561D01*
G01X398087Y-1792547D01*
G01X402244Y-1791162D01*
G01X405346Y-1790007D01*
G01X408709Y-1788506D01*
G01X411422Y-1787669D01*
G01X412173Y-1787352D01*
G01X412808Y-1786977D01*
G01X413580Y-1786313D01*
G01X414215Y-1785851D01*
G01X415492Y-1785158D01*
G01X417714Y-1784206D01*
G01X419446Y-1783361D01*
G01X421178Y-1782387D01*
G01X423372Y-1781002D01*
G01X425796Y-1779306D01*
G01X426258Y-1779068D01*
G01X426720Y-1778902D01*
G01X427182Y-1778808D01*
G01X427644Y-1778787D01*
G01X428106Y-1778837D01*
G01X428567Y-1778960D01*
G01X429029Y-1779154D01*
G01X429866Y-1779645D01*
G01X430530Y-1780194D01*
G01X431021Y-1780800D01*
G01X431627Y-1782127D01*
G01X432031Y-1782734D01*
G01X432551Y-1783282D01*
G01X433532Y-1784025D01*
G01X434224Y-1784660D01*
G01X435264Y-1785937D01*
G01X436649Y-1788073D01*
G01X437342Y-1788968D01*
G01X438034Y-1789690D01*
G01X438727Y-1790238D01*
G01X439391Y-1790758D01*
G01X439997Y-1791393D01*
G01X440546Y-1792143D01*
G01X441527Y-1793875D01*
G01X442076Y-1794626D01*
G01X442682Y-1795261D01*
G01X443981Y-1796271D01*
G01X444500Y-1796819D01*
G01X444904Y-1797425D01*
G01X445193Y-1798089D01*
G01X445258Y-1798421D01*
G01X445222Y-1798724D01*
G01X445084Y-1798998D01*
G01X444846Y-1799244D01*
G01X444507Y-1799460D01*
G01X444067Y-1799648D01*
G01X443526Y-1799806D01*
G01X441585Y-1800167D01*
G01X439507Y-1800629D01*
G01X437919Y-1801062D01*
G01X436274Y-1801257D01*
G01X432493Y-1801351D01*
G01X430068Y-1801502D01*
G01X427644Y-1801784D01*
G01X426143Y-1802014D01*
G01X423834Y-1802476D01*
G01X422275Y-1802909D01*
G01X420428Y-1803140D01*
G01X416791Y-1803284D01*
G01X413789Y-1803631D01*
G01X412288Y-1803862D01*
G01X409979Y-1804324D01*
G01X408334Y-1804757D01*
G01X406537Y-1804951D01*
G01X400974Y-1805132D01*
G01X399848Y-1805276D01*
G01X399011Y-1805478D01*
G01X397279Y-1805940D01*
G01X394854Y-1806402D01*
G01X389774Y-1807326D01*
G01X384233Y-1808249D01*
G01X382732Y-1808480D01*
G01X380423Y-1808942D01*
G01X379247Y-1809281D01*
G01X377883Y-1809519D01*
G01X374159Y-1809663D01*
G01X372081Y-1809894D01*
G01X369339Y-1810558D01*
G01X366222Y-1811020D01*
G01X359294Y-1811944D01*
G01X357794Y-1812174D01*
G01X355484Y-1812636D01*
G01X353897Y-1813069D01*
G01X351819Y-1813300D01*
G01X347864Y-1813444D01*
G01X345440Y-1813791D01*
G01X343362Y-1814253D01*
G01X340908Y-1814917D01*
G01X339112Y-1815111D01*
G01X333548Y-1815292D01*
G01X332423Y-1815436D01*
G01X330864Y-1815840D01*
G01X329248Y-1816071D01*
G01X328296Y-1816106D01*
G01X328075Y-1816247D01*
G01X327821Y-1816686D01*
G01X327633Y-1817249D01*
G01X327339Y-1818685D01*
G01X327090Y-1820697D01*
G01X326787Y-1825017D01*
G01X326506Y-1840114D01*
G01X326570Y-1855073D01*
G01X326859Y-1865522D01*
G01X326967Y-1866438D01*
G01X327429Y-1868747D01*
G01X376844Y-1868747D01*
G01X417531Y-1868601D01*
G01X428095Y-1868341D01*
G01X428567Y-1868286D01*
G01X429722Y-1867997D01*
G01X430876Y-1867593D01*
G01X432031Y-1867073D01*
G01X433186Y-1866438D01*
G01X434253Y-1865746D01*
G01X435148Y-1865053D01*
G01X435870Y-1864360D01*
G01X436418Y-1863667D01*
G01X437457Y-1862397D01*
G01X439391Y-1860867D01*
G01X440546Y-1859713D01*
G01X442076Y-1857779D01*
G01X444009Y-1856249D01*
G01X445164Y-1855095D01*
G01X445900Y-1854128D01*
G01X446174Y-1853911D01*
G01X446477Y-1853781D01*
G01X446809Y-1853738D01*
G01X447170Y-1853781D01*
G01X447559Y-1853911D01*
G01X447978Y-1854128D01*
G01X449291Y-1855124D01*
G01X450677Y-1856509D01*
G01X451687Y-1857866D01*
G01X452842Y-1859020D01*
G01X454776Y-1860550D01*
G01X456305Y-1862484D01*
G01X457460Y-1863638D01*
G01X459394Y-1865168D01*
G01X460923Y-1867102D01*
G01X462078Y-1868257D01*
G01X463095Y-1869000D01*
G01X464243Y-1870017D01*
G01X465080Y-1870912D01*
G01X465974Y-1871980D01*
G01X466754Y-1873048D01*
G01X467244Y-1873943D01*
G01X467447Y-1874664D01*
G01X467360Y-1875213D01*
G01X466928Y-1875391D01*
G01X465819Y-1875550D01*
G01X462983Y-1875748D01*
G01X433647Y-1876136D01*
G01X400396Y-1876136D01*
G01X400396Y-1927860D01*
G01X402706Y-1928784D01*
G01X406400Y-1930169D01*
G01X408016Y-1930631D01*
G01X411220Y-1931352D01*
G01X413298Y-1932045D01*
G01X416214Y-1933286D01*
G01X419533Y-1934123D01*
G01X421611Y-1934816D01*
G01X424411Y-1936057D01*
G01X427153Y-1936894D01*
G01X428769Y-1937587D01*
G01X429852Y-1938244D01*
G01X430660Y-1938648D01*
G01X432089Y-1939146D01*
G01X434282Y-1939665D01*
G01X435264Y-1939983D01*
G01X436129Y-1940358D01*
G01X437241Y-1941022D01*
G01X438973Y-1941946D01*
G01X442241Y-1943331D01*
G01X444731Y-1944486D01*
G01X446463Y-1945409D01*
G01X447964Y-1946333D01*
G01X451427Y-1948699D01*
G01X452813Y-1950085D01*
G01X454776Y-1952567D01*
G01X456276Y-1954270D01*
G01X456738Y-1954992D01*
G01X457662Y-1956954D01*
G01X459047Y-1960649D01*
G01X459156Y-1961017D01*
G01X459394Y-1962381D01*
G01X459509Y-1964806D01*
G01X459394Y-1967692D01*
G01X459047Y-1970809D01*
G01X458788Y-1972368D01*
G01X458470Y-1973811D01*
G01X458095Y-1975139D01*
G01X457662Y-1976351D01*
G01X457142Y-1977361D01*
G01X456507Y-1978083D01*
G01X455757Y-1978516D01*
G01X454891Y-1978660D01*
G01X454025Y-1978573D01*
G01X453274Y-1978314D01*
G01X452639Y-1977881D01*
G01X451629Y-1976611D01*
G01X450475Y-1975456D01*
G01X449089Y-1974446D01*
G01X447899Y-1973450D01*
G01X445683Y-1971329D01*
G01X444067Y-1969943D01*
G01X442682Y-1968933D01*
G01X441527Y-1967778D01*
G01X440784Y-1966761D01*
G01X439766Y-1965614D01*
G01X438872Y-1964777D01*
G01X437804Y-1963882D01*
G01X434917Y-1961753D01*
G01X431223Y-1959379D01*
G01X430501Y-1958831D01*
G01X429707Y-1958109D01*
G01X428798Y-1957416D01*
G01X426258Y-1956002D01*
G01X424873Y-1955158D01*
G01X422564Y-1953520D01*
G01X421178Y-1952632D01*
G01X418061Y-1950951D01*
G01X415059Y-1949104D01*
G01X412375Y-1947689D01*
G01X409171Y-1945871D01*
G01X405476Y-1943562D01*
G01X404755Y-1943158D01*
G01X403976Y-1942869D01*
G01X403138Y-1942696D01*
G01X402244Y-1942638D01*
G01X401966Y-1942790D01*
G01X401811Y-1943028D01*
G01X401616Y-1943515D01*
G01X401393Y-1944398D01*
G01X401014Y-1947077D01*
G01X400701Y-1951430D01*
G01X400396Y-1967576D01*
G01X400512Y-1986626D01*
G01X400750Y-1993185D01*
G01X400858Y-1993900D01*
G01X400914Y-1994162D01*
G01X401060Y-1996007D01*
G01X401320Y-2019300D01*
G01X401060Y-2034194D01*
G01X400598Y-2040659D01*
G01X400281Y-2042853D01*
G01X399906Y-2044354D01*
G01X399473Y-2045162D01*
G01X399004Y-2045609D01*
G01X397510Y-2046778D01*
G01X396442Y-2047413D01*
G01X394162Y-2048423D01*
G01X392430Y-2049268D01*
G01X389544Y-2050906D01*
G01X387812Y-2051793D01*
G01X386080Y-2052551D01*
G01X385041Y-2052897D01*
G01X384233Y-2053013D01*
G01X383656Y-2052897D01*
G01X383309Y-2052551D01*
G01X383136Y-2052060D01*
G01X383078Y-2051512D01*
G01X383136Y-2050906D01*
G01X383309Y-2050242D01*
G01X383417Y-2049029D01*
G01X383771Y-1992053D01*
G01X383334Y-1940578D01*
G01X383064Y-1935783D01*
G01X382959Y-1935065D01*
G01X382847Y-1934787D01*
G01X381808Y-1934210D01*
G01X380538Y-1933402D01*
G01X379037Y-1932594D01*
G01X376353Y-1931728D01*
G01X375343Y-1931324D01*
G01X374275Y-1930804D01*
G01X371966Y-1929505D01*
G01X370724Y-1928899D01*
G01X369426Y-1928351D01*
G01X368069Y-1927860D01*
G01X364966Y-1926706D01*
G01X362441Y-1925551D01*
G01X360601Y-1924858D01*
G01X356141Y-1923473D01*
G01X354301Y-1922780D01*
G01X351328Y-1921510D01*
G01X349134Y-1920933D01*
G01X348153Y-1920615D01*
G01X347518Y-1920124D01*
G01X347229Y-1919461D01*
G01X347287Y-1918624D01*
G01X347547Y-1917816D01*
G01X347864Y-1917238D01*
G01X348240Y-1916892D01*
G01X348673Y-1916776D01*
G01X349625Y-1916841D01*
G01X352367Y-1917238D01*
G01X353666Y-1917469D01*
G01X355744Y-1917931D01*
G01X358256Y-1918624D01*
G01X363566Y-1919663D01*
G01X366684Y-1920471D01*
G01X368978Y-1921099D01*
G01X374304Y-1922318D01*
G01X377767Y-1923242D01*
G01X380538Y-1923704D01*
G01X383771Y-1924166D01*
G01X383771Y-1899689D01*
G01X383540Y-1881447D01*
G01X383251Y-1877002D01*
G01X383064Y-1875949D01*
G01X382847Y-1875674D01*
G01X382559Y-1875744D01*
G01X380913Y-1875877D01*
G01X357447Y-1876136D01*
G01X342077Y-1876071D01*
G01X330878Y-1875783D01*
G01X329738Y-1875674D01*
G01X326506Y-1875213D01*
G01X326506Y-1901536D01*
G01X326201Y-1929678D01*
G01X326044Y-1932016D01*
G01X325813Y-1933921D01*
G01X325351Y-1936692D01*
G01X324918Y-1938366D01*
G01X324723Y-1940012D01*
G01X324543Y-1944947D01*
G01X324398Y-1945986D01*
G01X324196Y-1946794D01*
G01X323734Y-1948526D01*
G01X323042Y-1952250D01*
G01X322580Y-1954328D01*
G01X321887Y-1956839D01*
G01X321194Y-1960562D01*
G01X320733Y-1962641D01*
G01X320271Y-1964142D01*
G01X319001Y-1968616D01*
G01X317962Y-1971394D01*
G01X316346Y-1975889D01*
G01X315191Y-1978992D01*
G01X314036Y-1981460D01*
G01X311727Y-1986742D01*
G01X310573Y-1988719D01*
G01X309649Y-1990451D01*
G01X308033Y-1994131D01*
G01X302491Y-2003136D01*
G01X297873Y-2010179D01*
G01X296458Y-2012777D01*
G01X295910Y-2013527D01*
G01X295304Y-2014162D01*
G01X294005Y-2015172D01*
G01X293486Y-2015721D01*
G01X293081Y-2016327D01*
G01X292504Y-2017655D01*
G01X292100Y-2018261D01*
G01X291581Y-2018809D01*
G01X290599Y-2019552D01*
G01X289906Y-2020187D01*
G01X288867Y-2021465D01*
G01X287482Y-2023601D01*
G01X286789Y-2024496D01*
G01X286096Y-2025217D01*
G01X284740Y-2026256D01*
G01X283585Y-2027411D01*
G01X282056Y-2029344D01*
G01X280122Y-2030874D01*
G01X278967Y-2032029D01*
G01X277437Y-2033963D01*
G01X275503Y-2035492D01*
G01X274349Y-2036647D01*
G01X272819Y-2038581D01*
G01X270885Y-2040111D01*
G01X269731Y-2041265D01*
G01X268749Y-2042564D01*
G01X268201Y-2043084D01*
G01X267595Y-2043488D01*
G01X266267Y-2044065D01*
G01X265661Y-2044469D01*
G01X265113Y-2044989D01*
G01X264622Y-2045624D01*
G01X264102Y-2046287D01*
G01X263467Y-2046894D01*
G01X262717Y-2047442D01*
G01X260985Y-2048423D01*
G01X260234Y-2048972D01*
G01X259599Y-2049578D01*
G01X258589Y-2050877D01*
G01X258041Y-2051396D01*
G01X257435Y-2051801D01*
G01X256107Y-2052378D01*
G01X255501Y-2052782D01*
G01X254953Y-2053301D01*
G01X253971Y-2054571D01*
G01X253423Y-2055091D01*
G01X252817Y-2055495D01*
G01X252153Y-2055784D01*
G37*
G36*
G01X-33453Y-2055863D02*
G01X-34059Y-2055870D01*
G01X-34607Y-2055805D01*
G01X-35098Y-2055668D01*
G01X-35531Y-2055459D01*
G01X-35906Y-2055177D01*
G01X-36224Y-2054824D01*
G01X-36484Y-2054398D01*
G01X-36801Y-2053503D01*
G01X-36830Y-2052666D01*
G01X-36570Y-2051887D01*
G01X-36022Y-2051166D01*
G01X-35242Y-2050502D01*
G01X-34290Y-2049896D01*
G01X-33164Y-2049347D01*
G01X-31180Y-2048626D01*
G01X-26786Y-2047009D01*
G01X-17549Y-2043314D01*
G01X-15882Y-2042622D01*
G01X-13393Y-2041467D01*
G01X-11661Y-2040544D01*
G01X-9799Y-2039389D01*
G01X-8067Y-2038466D01*
G01X-5311Y-2037282D01*
G01X-3579Y-2036438D01*
G01X-180Y-2034489D01*
G01X4041Y-2032231D01*
G01X5903Y-2031076D01*
G01X7634Y-2030153D01*
G01X10362Y-2028969D01*
G01X11430Y-2028421D01*
G01X12440Y-2027815D01*
G01X14843Y-2026112D01*
G01X17549Y-2024380D01*
G01X21244Y-2022071D01*
G01X24014Y-2020224D01*
G01X29903Y-2016529D01*
G01X35098Y-2012834D01*
G01X36917Y-2011449D01*
G01X38446Y-2010064D01*
G01X40380Y-2008678D01*
G01X42516Y-2006831D01*
G01X44334Y-2005446D01*
G01X46153Y-2004060D01*
G01X47683Y-2002674D01*
G01X49617Y-2001289D01*
G01X51515Y-1999666D01*
G01X52957Y-1998569D01*
G01X55036Y-1997234D01*
G01X55505Y-1996844D01*
G01X55902Y-1996426D01*
G01X56226Y-1995978D01*
G01X56479Y-1995502D01*
G01X56659Y-1994997D01*
G01X56767Y-1994463D01*
G01X56804Y-1993900D01*
G01X56717Y-1992774D01*
G01X56457Y-1991706D01*
G01X56024Y-1990696D01*
G01X54754Y-1988791D01*
G01X54148Y-1987781D01*
G01X53600Y-1986713D01*
G01X52618Y-1984433D01*
G01X51774Y-1982701D01*
G01X50800Y-1980969D01*
G01X48260Y-1976914D01*
G01X47336Y-1975182D01*
G01X45720Y-1971502D01*
G01X44566Y-1969525D01*
G01X43642Y-1967793D01*
G01X42256Y-1964524D01*
G01X40640Y-1961082D01*
G01X39254Y-1957878D01*
G01X38562Y-1956211D01*
G01X36946Y-1952769D01*
G01X35560Y-1949566D01*
G01X30018Y-1935711D01*
G01X28633Y-1932016D01*
G01X28171Y-1930400D01*
G01X27449Y-1927225D01*
G01X27132Y-1926244D01*
G01X26757Y-1925378D01*
G01X26100Y-1924252D01*
G01X25696Y-1923328D01*
G01X25198Y-1921510D01*
G01X24794Y-1919251D01*
G01X24592Y-1918595D01*
G01X24558Y-1918523D01*
G01X31252Y-1918523D01*
G01X31288Y-1918854D01*
G01X31367Y-1919215D01*
G01X31656Y-1920024D01*
G01X32674Y-1922318D01*
G01X33539Y-1925118D01*
G01X33944Y-1926128D01*
G01X34463Y-1927196D01*
G01X35733Y-1929447D01*
G01X36253Y-1930516D01*
G01X36657Y-1931526D01*
G01X37234Y-1933431D01*
G01X37638Y-1934441D01*
G01X38158Y-1935509D01*
G01X39947Y-1938713D01*
G01X40770Y-1940683D01*
G01X41333Y-1941830D01*
G01X43151Y-1944514D01*
G01X43757Y-1945524D01*
G01X44306Y-1946592D01*
G01X45720Y-1949796D01*
G01X48953Y-1955107D01*
G01X51724Y-1959726D01*
G01X53109Y-1961919D01*
G01X55534Y-1965332D01*
G01X58536Y-1970001D01*
G01X60008Y-1971762D01*
G01X60383Y-1972310D01*
G01X60700Y-1972916D01*
G01X61249Y-1974244D01*
G01X61653Y-1974850D01*
G01X62172Y-1975398D01*
G01X63442Y-1976380D01*
G01X63962Y-1976928D01*
G01X64366Y-1977534D01*
G01X64943Y-1978862D01*
G01X65347Y-1979468D01*
G01X65867Y-1980017D01*
G01X67656Y-1981316D01*
G01X67656Y-1981316D01*
G01X68349Y-1981893D01*
G01X68638Y-1982037D01*
G01X69042Y-1982008D01*
G01X69561Y-1981806D01*
G01X70543Y-1981178D01*
G01X71236Y-1980543D01*
G01X72274Y-1979266D01*
G01X72967Y-1978198D01*
G01X75738Y-1973580D01*
G01X77124Y-1971386D01*
G01X79173Y-1968500D01*
G01X80061Y-1967114D01*
G01X81309Y-1964777D01*
G01X83127Y-1961573D01*
G01X84101Y-1959906D01*
G01X86360Y-1955684D01*
G01X87514Y-1953823D01*
G01X88438Y-1952091D01*
G01X89824Y-1948822D01*
G01X91786Y-1944486D01*
G01X92652Y-1941686D01*
G01X93056Y-1940676D01*
G01X93576Y-1939607D01*
G01X94846Y-1937356D01*
G01X95366Y-1936288D01*
G01X95769Y-1935278D01*
G01X96636Y-1932478D01*
G01X97444Y-1930631D01*
G01X98252Y-1928668D01*
G01X99089Y-1925349D01*
G01X99782Y-1923271D01*
G01X100619Y-1921366D01*
G01X100907Y-1920356D01*
G01X101081Y-1919287D01*
G01X101138Y-1918162D01*
G01X100907Y-1916546D01*
G01X100214Y-1916314D01*
G01X98603Y-1916477D01*
G01X65578Y-1916776D01*
G01X50800Y-1916834D01*
G01X33713Y-1917296D01*
G01X32039Y-1917484D01*
G01X31404Y-1917700D01*
G01X31310Y-1917945D01*
G01X31259Y-1918219D01*
G01X31252Y-1918523D01*
G01X24558Y-1918523D01*
G01X24332Y-1918039D01*
G01X24014Y-1917584D01*
G01X23639Y-1917231D01*
G01X23206Y-1916978D01*
G01X22716Y-1916827D01*
G01X22167Y-1916776D01*
G01X21071Y-1916834D01*
G01X20089Y-1917007D01*
G01X19223Y-1917296D01*
G01X17809Y-1918075D01*
G01X17203Y-1918277D01*
G01X16654Y-1918306D01*
G01X16164Y-1918162D01*
G01X15124Y-1917584D01*
G01X13854Y-1916776D01*
G01X12584Y-1915737D01*
G01X11055Y-1913803D01*
G01X9900Y-1912649D01*
G01X8601Y-1911667D01*
G01X8082Y-1911119D01*
G01X7678Y-1910513D01*
G01X7389Y-1909849D01*
G01X7708Y-1909601D01*
G01X8081Y-1909505D01*
G01X9709Y-1909276D01*
G01X13803Y-1908991D01*
G01X52647Y-1908464D01*
G01X96289Y-1908204D01*
G01X99406Y-1908058D01*
G01X99753Y-1908002D01*
G01X100446Y-1907713D01*
G01X101138Y-1907309D01*
G01X101831Y-1906789D01*
G01X103188Y-1905462D01*
G01X104342Y-1904076D01*
G01X104833Y-1903384D01*
G01X105872Y-1902114D01*
G01X107806Y-1900584D01*
G01X108960Y-1899429D01*
G01X109942Y-1898217D01*
G01X110490Y-1897957D01*
G01X111096Y-1897986D01*
G01X111760Y-1898304D01*
G01X114531Y-1900151D01*
G01X115195Y-1900642D01*
G01X116349Y-1901796D01*
G01X117092Y-1902814D01*
G01X118110Y-1903961D01*
G01X119005Y-1904798D01*
G01X121169Y-1906559D01*
G01X123767Y-1908464D01*
G01X125037Y-1909503D01*
G01X126567Y-1911437D01*
G01X127722Y-1912591D01*
G01X129424Y-1913890D01*
G01X129771Y-1914467D01*
G01X129713Y-1914727D01*
G01X129540Y-1915044D01*
G01X128847Y-1915853D01*
G01X127808Y-1916776D01*
G01X125037Y-1918624D01*
G01X121689Y-1920471D01*
G01X120534Y-1921394D01*
G01X120304Y-1921647D01*
G01X119842Y-1922282D01*
G01X119149Y-1923559D01*
G01X117994Y-1926294D01*
G01X115916Y-1930862D01*
G01X114993Y-1933402D01*
G01X113838Y-1936505D01*
G01X112337Y-1939867D01*
G01X111471Y-1942667D01*
G01X111067Y-1943677D01*
G01X110548Y-1944745D01*
G01X108758Y-1947949D01*
G01X107806Y-1950229D01*
G01X107488Y-1950836D01*
G01X107113Y-1951384D01*
G01X106247Y-1952394D01*
G01X105872Y-1953029D01*
G01X105554Y-1953779D01*
G01X105006Y-1955598D01*
G01X104602Y-1956608D01*
G01X104082Y-1957676D01*
G01X102293Y-1960880D01*
G01X101470Y-1962850D01*
G01X100907Y-1963997D01*
G01X99089Y-1966653D01*
G01X98201Y-1968038D01*
G01X96520Y-1971156D01*
G01X94673Y-1974157D01*
G01X93258Y-1976813D01*
G01X92414Y-1978198D01*
G01X91440Y-1979584D01*
G01X88611Y-1983567D01*
G01X85523Y-1987608D01*
G01X84859Y-1988589D01*
G01X84368Y-1989455D01*
G01X83762Y-1990869D01*
G01X83358Y-1991476D01*
G01X82839Y-1992024D01*
G01X81598Y-1993034D01*
G01X81164Y-1993669D01*
G01X80905Y-1994419D01*
G01X80818Y-1995286D01*
G01X80905Y-1996151D01*
G01X81164Y-1996902D01*
G01X81598Y-1997537D01*
G01X82204Y-1998056D01*
G01X84022Y-1999442D01*
G01X85552Y-2000827D01*
G01X90978Y-2004724D01*
G01X92364Y-2005611D01*
G01X94615Y-2006860D01*
G01X95366Y-2007408D01*
G01X96001Y-2008014D01*
G01X96520Y-2008678D01*
G01X97068Y-2009342D01*
G01X97790Y-2009948D01*
G01X98685Y-2010497D01*
G01X100907Y-2011478D01*
G01X102639Y-2012322D01*
G01X104371Y-2013296D01*
G01X106564Y-2014682D01*
G01X109913Y-2016976D01*
G01X111298Y-2017626D01*
G01X113174Y-2018203D01*
G01X114184Y-2018607D01*
G01X115253Y-2019127D01*
G01X117533Y-2020426D01*
G01X119264Y-2021313D01*
G01X121581Y-2022302D01*
G01X126762Y-2024149D01*
G01X131156Y-2025766D01*
G01X134851Y-2027151D01*
G01X136467Y-2027613D01*
G01X140624Y-2028536D01*
G01X143972Y-2029460D01*
G01X147695Y-2030153D01*
G01X149773Y-2030614D01*
G01X152400Y-2031307D01*
G01X160713Y-2032693D01*
G01X161254Y-2032837D01*
G01X161723Y-2033039D01*
G01X162120Y-2033299D01*
G01X162444Y-2033616D01*
G01X162697Y-2033992D01*
G01X162878Y-2034424D01*
G01X162986Y-2034915D01*
G01X163022Y-2035464D01*
G01X162986Y-2036012D01*
G01X162878Y-2036503D01*
G01X162697Y-2036936D01*
G01X162444Y-2037311D01*
G01X162120Y-2037628D01*
G01X161723Y-2037888D01*
G01X161254Y-2038090D01*
G01X160713Y-2038234D01*
G01X156094Y-2039158D01*
G01X154969Y-2039418D01*
G01X152891Y-2040111D01*
G01X151014Y-2040977D01*
G01X149167Y-2041669D01*
G01X147378Y-2042218D01*
G01X146627Y-2042622D01*
G01X145992Y-2043141D01*
G01X144982Y-2044440D01*
G01X143828Y-2045595D01*
G01X142529Y-2046576D01*
G01X142009Y-2047124D01*
G01X141605Y-2047731D01*
G01X141316Y-2048394D01*
G01X140739Y-2049780D01*
G01X139931Y-2051166D01*
G01X139678Y-2051476D01*
G01X139383Y-2051714D01*
G01X139043Y-2051880D01*
G01X138661Y-2051974D01*
G01X138235Y-2051995D01*
G01X137766Y-2051945D01*
G01X137254Y-2051822D01*
G01X135031Y-2050934D01*
G01X132542Y-2049780D01*
G01X127895Y-2047471D01*
G01X122613Y-2045162D01*
G01X121747Y-2044700D01*
G01X119496Y-2043314D01*
G01X116811Y-2041900D01*
G01X113607Y-2040082D01*
G01X108412Y-2036849D01*
G01X105756Y-2035435D01*
G01X104371Y-2034591D01*
G01X99753Y-2031307D01*
G01X97934Y-2029922D01*
G01X96404Y-2028536D01*
G01X90978Y-2024640D01*
G01X89593Y-2023752D01*
G01X87341Y-2022504D01*
G01X86591Y-2021956D01*
G01X85956Y-2021349D01*
G01X84946Y-2020051D01*
G01X84397Y-2019531D01*
G01X83791Y-2019127D01*
G01X82463Y-2018549D01*
G01X81857Y-2018146D01*
G01X81309Y-2017626D01*
G01X80566Y-2016637D01*
G01X79548Y-2015490D01*
G01X78653Y-2014653D01*
G01X76489Y-2012892D01*
G01X73227Y-2010497D01*
G01X72073Y-2009342D01*
G01X71062Y-2008043D01*
G01X70427Y-2007524D01*
G01X69677Y-2007119D01*
G01X68811Y-2006831D01*
G01X67916Y-2006687D01*
G01X67079Y-2006716D01*
G01X66300Y-2006917D01*
G01X65578Y-2007293D01*
G01X62143Y-2009602D01*
G01X60246Y-2011225D01*
G01X58803Y-2012322D01*
G01X55072Y-2014682D01*
G01X52214Y-2016702D01*
G01X50598Y-2017626D01*
G01X49213Y-2018203D01*
G01X48606Y-2018607D01*
G01X48058Y-2019127D01*
G01X47567Y-2019762D01*
G01X47019Y-2020426D01*
G01X46297Y-2021032D01*
G01X45403Y-2021580D01*
G01X43209Y-2022562D01*
G01X42141Y-2023110D01*
G01X41131Y-2023716D01*
G01X39254Y-2025044D01*
G01X37869Y-2025931D01*
G01X34752Y-2027613D01*
G01X31866Y-2029344D01*
G01X29816Y-2030182D01*
G01X29210Y-2030499D01*
G01X28662Y-2030874D01*
G01X27918Y-2031538D01*
G01X27283Y-2032000D01*
G01X26006Y-2032693D01*
G01X22860Y-2034078D01*
G01X21244Y-2035002D01*
G01X19743Y-2035810D01*
G01X17058Y-2036676D01*
G01X16048Y-2037080D01*
G01X14980Y-2037599D01*
G01X12729Y-2038869D01*
G01X11661Y-2039389D01*
G01X10651Y-2039793D01*
G01X8746Y-2040371D01*
G01X7736Y-2040774D01*
G01X6668Y-2041294D01*
G01X4358Y-2042593D01*
G01X3117Y-2043199D01*
G01X1818Y-2043747D01*
G01X-224Y-2044469D01*
G01X-4618Y-2046086D01*
G01X-13854Y-2049780D01*
G01X-17549Y-2051166D01*
G01X-18271Y-2051396D01*
G01X-22744Y-2052666D01*
G01X-28633Y-2054860D01*
G01X-30364Y-2055322D01*
G01X-32789Y-2055784D01*
G01X-33453Y-2055863D01*
G37*
G36*
G01X-649778Y-2054860D02*
G01X-650702Y-2054860D01*
G01X-651135Y-2054571D01*
G01X-651510Y-2054167D01*
G01X-651827Y-2053648D01*
G01X-652087Y-2053013D01*
G01X-652261Y-2052320D01*
G01X-652318Y-2051627D01*
G01X-652261Y-2050934D01*
G01X-652087Y-2050242D01*
G01X-651799Y-2049578D01*
G01X-651394Y-2048972D01*
G01X-650875Y-2048423D01*
G01X-650240Y-2047933D01*
G01X-648970Y-2046894D01*
G01X-647440Y-2044960D01*
G01X-646286Y-2043805D01*
G01X-644958Y-2042795D01*
G01X-644352Y-2042160D01*
G01X-643803Y-2041409D01*
G01X-642822Y-2039678D01*
G01X-642274Y-2038927D01*
G01X-641667Y-2038292D01*
G01X-640369Y-2037282D01*
G01X-639849Y-2036734D01*
G01X-639445Y-2036127D01*
G01X-638868Y-2034800D01*
G01X-638464Y-2034194D01*
G01X-637944Y-2033645D01*
G01X-636963Y-2032902D01*
G01X-636270Y-2032267D01*
G01X-635231Y-2030990D01*
G01X-633153Y-2027728D01*
G01X-630728Y-2024315D01*
G01X-628996Y-2021609D01*
G01X-625879Y-2016529D01*
G01X-625172Y-2014790D01*
G01X-624609Y-2013643D01*
G01X-622791Y-2010958D01*
G01X-622184Y-2009948D01*
G01X-621636Y-2008880D01*
G01X-620453Y-2006088D01*
G01X-618490Y-2001751D01*
G01X-617653Y-1999009D01*
G01X-616960Y-1997392D01*
G01X-616304Y-1996310D01*
G01X-615899Y-1995502D01*
G01X-615402Y-1994073D01*
G01X-614882Y-1991851D01*
G01X-614189Y-1989772D01*
G01X-613352Y-1987896D01*
G01X-613064Y-1986973D01*
G01X-612891Y-1986049D01*
G01X-612818Y-1984664D01*
G01X-612703Y-1983740D01*
G01X-612472Y-1982816D01*
G01X-612126Y-1981893D01*
G01X-611505Y-1980449D01*
G01X-611216Y-1979353D01*
G01X-611043Y-1978141D01*
G01X-610856Y-1974864D01*
G01X-610625Y-1973710D01*
G01X-610278Y-1972671D01*
G01X-609658Y-1971271D01*
G01X-609369Y-1970347D01*
G01X-609196Y-1969424D01*
G01X-609109Y-1967605D01*
G01X-608878Y-1965989D01*
G01X-608214Y-1963420D01*
G01X-607753Y-1960649D01*
G01X-606598Y-1951355D01*
G01X-606136Y-1948584D01*
G01X-605797Y-1947350D01*
G01X-605559Y-1945986D01*
G01X-605415Y-1942263D01*
G01X-605184Y-1940185D01*
G01X-604982Y-1939406D01*
G01X-604825Y-1938756D01*
G01X-604608Y-1936678D01*
G01X-604513Y-1931728D01*
G01X-604404Y-1928784D01*
G01X-604166Y-1926879D01*
G01X-603856Y-1925666D01*
G01X-603661Y-1924021D01*
G01X-603481Y-1919086D01*
G01X-603337Y-1918046D01*
G01X-603134Y-1917238D01*
G01X-602984Y-1915622D01*
G01X-602673Y-1879831D01*
G01X-603026Y-1843311D01*
G01X-603134Y-1842424D01*
G01X-603243Y-1841919D01*
G01X-603434Y-1839621D01*
G01X-603596Y-1829493D01*
G01X-603777Y-1819030D01*
G01X-603950Y-1817067D01*
G01X-604159Y-1816194D01*
G01X-604275Y-1815328D01*
G01X-604231Y-1813704D01*
G01X-604058Y-1812406D01*
G01X-603741Y-1811222D01*
G01X-603250Y-1810443D01*
G01X-602586Y-1810067D01*
G01X-601749Y-1810096D01*
G01X-600797Y-1810385D01*
G01X-599786Y-1810789D01*
G01X-598718Y-1811309D01*
G01X-595926Y-1812918D01*
G01X-591704Y-1815176D01*
G01X-589843Y-1816324D01*
G01X-589035Y-1816728D01*
G01X-587606Y-1817226D01*
G01X-585939Y-1817579D01*
G01X-584842Y-1817637D01*
G01X-583803Y-1817522D01*
G01X-582822Y-1817233D01*
G01X-581429Y-1816619D01*
G01X-580506Y-1816331D01*
G01X-579582Y-1816158D01*
G01X-577763Y-1816042D01*
G01X-576926Y-1815869D01*
G01X-576147Y-1815581D01*
G01X-574704Y-1814772D01*
G01X-573924Y-1814484D01*
G01X-573087Y-1814311D01*
G01X-571269Y-1814195D01*
G01X-570346Y-1814022D01*
G01X-569422Y-1813733D01*
G01X-568036Y-1813113D01*
G01X-567113Y-1812766D01*
G01X-566189Y-1812535D01*
G01X-565266Y-1812420D01*
G01X-563880Y-1812348D01*
G01X-562956Y-1812174D01*
G01X-562033Y-1811886D01*
G01X-560128Y-1811049D01*
G01X-559031Y-1810674D01*
G01X-557819Y-1810356D01*
G01X-555106Y-1809837D01*
G01X-553027Y-1809339D01*
G01X-550949Y-1808711D01*
G01X-545176Y-1806864D01*
G01X-541944Y-1806142D01*
G01X-540212Y-1805644D01*
G01X-534786Y-1803631D01*
G01X-534064Y-1803400D01*
G01X-530571Y-1802447D01*
G01X-526249Y-1801091D01*
G01X-521854Y-1799474D01*
G01X-517236Y-1797627D01*
G01X-515158Y-1796704D01*
G01X-513542Y-1795780D01*
G01X-512041Y-1794972D01*
G01X-509357Y-1794106D01*
G01X-508346Y-1793702D01*
G01X-507278Y-1793182D01*
G01X-504074Y-1791393D01*
G01X-501794Y-1790440D01*
G01X-501188Y-1790123D01*
G01X-500640Y-1789747D01*
G01X-499897Y-1789084D01*
G01X-499262Y-1788622D01*
G01X-497984Y-1787929D01*
G01X-494838Y-1786544D01*
G01X-493972Y-1786082D01*
G01X-492500Y-1785216D01*
G01X-491721Y-1784927D01*
G01X-490884Y-1784754D01*
G01X-489989Y-1784696D01*
G01X-489152Y-1784783D01*
G01X-488488Y-1785043D01*
G01X-487997Y-1785476D01*
G01X-487391Y-1786746D01*
G01X-486987Y-1787352D01*
G01X-486468Y-1787900D01*
G01X-485198Y-1788882D01*
G01X-484678Y-1789430D01*
G01X-484274Y-1790036D01*
G01X-483697Y-1791364D01*
G01X-483293Y-1791970D01*
G01X-482773Y-1792518D01*
G01X-481792Y-1793262D01*
G01X-481099Y-1793897D01*
G01X-480060Y-1795174D01*
G01X-478097Y-1798204D01*
G01X-477549Y-1798926D01*
G01X-476596Y-1799965D01*
G01X-475211Y-1801784D01*
G01X-473826Y-1803602D01*
G01X-472988Y-1804554D01*
G01X-472786Y-1805016D01*
G01X-472757Y-1805478D01*
G01X-472902Y-1805940D01*
G01X-473191Y-1806373D01*
G01X-473594Y-1806748D01*
G01X-474114Y-1807066D01*
G01X-474749Y-1807326D01*
G01X-475415Y-1807482D01*
G01X-477623Y-1807699D01*
G01X-486179Y-1807903D01*
G01X-487651Y-1808047D01*
G01X-488604Y-1808249D01*
G01X-490104Y-1808596D01*
G01X-492731Y-1808740D01*
G01X-494347Y-1808971D01*
G01X-496916Y-1809634D01*
G01X-505229Y-1811020D01*
G01X-507307Y-1811482D01*
G01X-509703Y-1812146D01*
G01X-511781Y-1812377D01*
G01X-515028Y-1812535D01*
G01X-516183Y-1812766D01*
G01X-517222Y-1813113D01*
G01X-518651Y-1813733D01*
G01X-519661Y-1814022D01*
G01X-520729Y-1814195D01*
G01X-522951Y-1814282D01*
G01X-524799Y-1814512D01*
G01X-527396Y-1815176D01*
G01X-535709Y-1816562D01*
G01X-537787Y-1817024D01*
G01X-539764Y-1817594D01*
G01X-541020Y-1817832D01*
G01X-544195Y-1817976D01*
G01X-546042Y-1818207D01*
G01X-548640Y-1818871D01*
G01X-551411Y-1819333D01*
G01X-557876Y-1820256D01*
G01X-559377Y-1820487D01*
G01X-561686Y-1820949D01*
G01X-562679Y-1821238D01*
G01X-564573Y-1821642D01*
G01X-568036Y-1822104D01*
G01X-571731Y-1822566D01*
G01X-575772Y-1823258D01*
G01X-580967Y-1823951D01*
G01X-585124Y-1824413D01*
G01X-585124Y-1870594D01*
G01X-543098Y-1870594D01*
G01X-504522Y-1870158D01*
G01X-500669Y-1869887D01*
G01X-500019Y-1869783D01*
G01X-499687Y-1869671D01*
G01X-496916Y-1867824D01*
G01X-496252Y-1867333D01*
G01X-495098Y-1866178D01*
G01X-493568Y-1864244D01*
G01X-491634Y-1862715D01*
G01X-490480Y-1861560D01*
G01X-489498Y-1860319D01*
G01X-488950Y-1859973D01*
G01X-488344Y-1859857D01*
G01X-487680Y-1859973D01*
G01X-487016Y-1860261D01*
G01X-486410Y-1860666D01*
G01X-485862Y-1861185D01*
G01X-484880Y-1862484D01*
G01X-483726Y-1863638D01*
G01X-481792Y-1865168D01*
G01X-480262Y-1867102D01*
G01X-479107Y-1868257D01*
G01X-477174Y-1869786D01*
G01X-475644Y-1871720D01*
G01X-474489Y-1872875D01*
G01X-473191Y-1873856D01*
G01X-472671Y-1874404D01*
G01X-472267Y-1875011D01*
G01X-471978Y-1875674D01*
G01X-471747Y-1876829D01*
G01X-471978Y-1877522D01*
G01X-474287Y-1879369D01*
G01X-475673Y-1880278D01*
G01X-477058Y-1880928D01*
G01X-478444Y-1881361D01*
G01X-479367Y-1881822D01*
G01X-480291Y-1882515D01*
G01X-481214Y-1883439D01*
G01X-482513Y-1885142D01*
G01X-483177Y-1886296D01*
G01X-483668Y-1887451D01*
G01X-484245Y-1889731D01*
G01X-484938Y-1891809D01*
G01X-485804Y-1893743D01*
G01X-486179Y-1894840D01*
G01X-486497Y-1896052D01*
G01X-487016Y-1898708D01*
G01X-487334Y-1899920D01*
G01X-487709Y-1901017D01*
G01X-488604Y-1903008D01*
G01X-489296Y-1904848D01*
G01X-490682Y-1909308D01*
G01X-491374Y-1911148D01*
G01X-492269Y-1913082D01*
G01X-492962Y-1914929D01*
G01X-493799Y-1917700D01*
G01X-495416Y-1921279D01*
G01X-496224Y-1923502D01*
G01X-497176Y-1926907D01*
G01X-497869Y-1928524D01*
G01X-499110Y-1930746D01*
G01X-499947Y-1933373D01*
G01X-500640Y-1934989D01*
G01X-501304Y-1936072D01*
G01X-502227Y-1937804D01*
G01X-502920Y-1939406D01*
G01X-504767Y-1944024D01*
G01X-505691Y-1946102D01*
G01X-506846Y-1948079D01*
G01X-507769Y-1949811D01*
G01X-509386Y-1953491D01*
G01X-510540Y-1955468D01*
G01X-511464Y-1957200D01*
G01X-512618Y-1959870D01*
G01X-513542Y-1961486D01*
G01X-514234Y-1962287D01*
G01X-514696Y-1962922D01*
G01X-515389Y-1964199D01*
G01X-516342Y-1966422D01*
G01X-517186Y-1968154D01*
G01X-518160Y-1969886D01*
G01X-519661Y-1972194D01*
G01X-522230Y-1975629D01*
G01X-522894Y-1976697D01*
G01X-523384Y-1977707D01*
G01X-523702Y-1978660D01*
G01X-523846Y-1979555D01*
G01X-523817Y-1980392D01*
G01X-523615Y-1981171D01*
G01X-523240Y-1981893D01*
G01X-522721Y-1982643D01*
G01X-519603Y-1986684D01*
G01X-517207Y-1989946D01*
G01X-516053Y-1991100D01*
G01X-514119Y-1992630D01*
G01X-512589Y-1994564D01*
G01X-511435Y-1995718D01*
G01X-509501Y-1997248D01*
G01X-507971Y-1999182D01*
G01X-506817Y-2000337D01*
G01X-504883Y-2001866D01*
G01X-503353Y-2003800D01*
G01X-502198Y-2004955D01*
G01X-500784Y-2005965D01*
G01X-497840Y-2008216D01*
G01X-493222Y-2011911D01*
G01X-490336Y-2014040D01*
G01X-486410Y-2016529D01*
G01X-483552Y-2018549D01*
G01X-481936Y-2019473D01*
G01X-480551Y-2020022D01*
G01X-479944Y-2020339D01*
G01X-479396Y-2020714D01*
G01X-478653Y-2021378D01*
G01X-478018Y-2021840D01*
G01X-476741Y-2022533D01*
G01X-473594Y-2023918D01*
G01X-471610Y-2025073D01*
G01X-469705Y-2025996D01*
G01X-467822Y-2026689D01*
G01X-464719Y-2027844D01*
G01X-462280Y-2028969D01*
G01X-460433Y-2029662D01*
G01X-457546Y-2030499D01*
G01X-451658Y-2032693D01*
G01X-448426Y-2033616D01*
G01X-447617Y-2033934D01*
G01X-447040Y-2034424D01*
G01X-446694Y-2035088D01*
G01X-446578Y-2035926D01*
G01X-446665Y-2036791D01*
G01X-446924Y-2037542D01*
G01X-447357Y-2038177D01*
G01X-447964Y-2038696D01*
G01X-449349Y-2039504D01*
G01X-450734Y-2040082D01*
G01X-451485Y-2040284D01*
G01X-453332Y-2040515D01*
G01X-455584Y-2040601D01*
G01X-456738Y-2040774D01*
G01X-457893Y-2041063D01*
G01X-459047Y-2041467D01*
G01X-461126Y-2042391D01*
G01X-461991Y-2042853D01*
G01X-464243Y-2044238D01*
G01X-466841Y-2045652D01*
G01X-467591Y-2046201D01*
G01X-468226Y-2046807D01*
G01X-468746Y-2047471D01*
G01X-469669Y-2048972D01*
G01X-470593Y-2050704D01*
G01X-471112Y-2051454D01*
G01X-471747Y-2051858D01*
G01X-472498Y-2051916D01*
G01X-473364Y-2051627D01*
G01X-477058Y-2049780D01*
G01X-477982Y-2049289D01*
G01X-479367Y-2048445D01*
G01X-482203Y-2046432D01*
G01X-486872Y-2043430D01*
G01X-488632Y-2041958D01*
G01X-489181Y-2041583D01*
G01X-489787Y-2041265D01*
G01X-491115Y-2040717D01*
G01X-491721Y-2040313D01*
G01X-492269Y-2039793D01*
G01X-492760Y-2039158D01*
G01X-493279Y-2038494D01*
G01X-493914Y-2037888D01*
G01X-494665Y-2037340D01*
G01X-496397Y-2036358D01*
G01X-497147Y-2035810D01*
G01X-497782Y-2035204D01*
G01X-498792Y-2033905D01*
G01X-499341Y-2033386D01*
G01X-499947Y-2032981D01*
G01X-501275Y-2032404D01*
G01X-501881Y-2032000D01*
G01X-502429Y-2031481D01*
G01X-503411Y-2030182D01*
G01X-504565Y-2029027D01*
G01X-506499Y-2027497D01*
G01X-508029Y-2025563D01*
G01X-509183Y-2024409D01*
G01X-510511Y-2023399D01*
G01X-511117Y-2022764D01*
G01X-511666Y-2022013D01*
G01X-512647Y-2020281D01*
G01X-513196Y-2019531D01*
G01X-513802Y-2018896D01*
G01X-515101Y-2017886D01*
G01X-515620Y-2017337D01*
G01X-516024Y-2016731D01*
G01X-516601Y-2015403D01*
G01X-517006Y-2014797D01*
G01X-517525Y-2014249D01*
G01X-518514Y-2013505D01*
G01X-519661Y-2012488D01*
G01X-520498Y-2011593D01*
G01X-522259Y-2009429D01*
G01X-524626Y-2006167D01*
G01X-526249Y-2004269D01*
G01X-527346Y-2002826D01*
G01X-529590Y-1999326D01*
G01X-530138Y-1998605D01*
G01X-530860Y-1997811D01*
G01X-531553Y-1996902D01*
G01X-532476Y-1995286D01*
G01X-532996Y-1994506D01*
G01X-533631Y-1994016D01*
G01X-534381Y-1993813D01*
G01X-535247Y-1993900D01*
G01X-536113Y-1994189D01*
G01X-536864Y-1994593D01*
G01X-537499Y-1995112D01*
G01X-538018Y-1995747D01*
G01X-539057Y-1997017D01*
G01X-540991Y-1998547D01*
G01X-542146Y-1999702D01*
G01X-543676Y-2001636D01*
G01X-544946Y-2002674D01*
G01X-546764Y-2004060D01*
G01X-548294Y-2005446D01*
G01X-550227Y-2006860D01*
G01X-551382Y-2008014D01*
G01X-552125Y-2009024D01*
G01X-552760Y-2009717D01*
G01X-554037Y-2010756D01*
G01X-557068Y-2012719D01*
G01X-557790Y-2013267D01*
G01X-559377Y-2014682D01*
G01X-561311Y-2016067D01*
G01X-563447Y-2017914D01*
G01X-565266Y-2019300D01*
G01X-571154Y-2022994D01*
G01X-574567Y-2025419D01*
G01X-579466Y-2028536D01*
G01X-582382Y-2030586D01*
G01X-583392Y-2031192D01*
G01X-584460Y-2031740D01*
G01X-586653Y-2032693D01*
G01X-588270Y-2033616D01*
G01X-589071Y-2034309D01*
G01X-589706Y-2034771D01*
G01X-590983Y-2035464D01*
G01X-594129Y-2036849D01*
G01X-596106Y-2038004D01*
G01X-597838Y-2038927D01*
G01X-601107Y-2040313D01*
G01X-604549Y-2041929D01*
G01X-607753Y-2043314D01*
G01X-612371Y-2045162D01*
G01X-614038Y-2045854D01*
G01X-617451Y-2047442D01*
G01X-619298Y-2048135D01*
G01X-622184Y-2048972D01*
G01X-628073Y-2051166D01*
G01X-628426Y-2051259D01*
G01X-628794Y-2051310D01*
G01X-629177Y-2051317D01*
G01X-629574Y-2051281D01*
G01X-630411Y-2051079D01*
G01X-631306Y-2050704D01*
G01X-632056Y-2050213D01*
G01X-632460Y-2049664D01*
G01X-632518Y-2049058D01*
G01X-632229Y-2048394D01*
G01X-631738Y-2047759D01*
G01X-631190Y-2047240D01*
G01X-630584Y-2046836D01*
G01X-629559Y-2046417D01*
G01X-627827Y-2045609D01*
G01X-624559Y-2043726D01*
G01X-620337Y-2041467D01*
G01X-617336Y-2039620D01*
G01X-613872Y-2037773D01*
G01X-612010Y-2036618D01*
G01X-610278Y-2035694D01*
G01X-607551Y-2034511D01*
G01X-606483Y-2033963D01*
G01X-605472Y-2033357D01*
G01X-603070Y-2031654D01*
G01X-600364Y-2029922D01*
G01X-590781Y-2023918D01*
G01X-585586Y-2020224D01*
G01X-583767Y-2018838D01*
G01X-582786Y-2017943D01*
G01X-582237Y-2017568D01*
G01X-581631Y-2017251D01*
G01X-580303Y-2016702D01*
G01X-579697Y-2016298D01*
G01X-579149Y-2015779D01*
G01X-578658Y-2015144D01*
G01X-578139Y-2014480D01*
G01X-577504Y-2013874D01*
G01X-576753Y-2013325D01*
G01X-575021Y-2012344D01*
G01X-574271Y-2011796D01*
G01X-573636Y-2011189D01*
G01X-573116Y-2010526D01*
G01X-572597Y-2009862D01*
G01X-571962Y-2009256D01*
G01X-571211Y-2008707D01*
G01X-569479Y-2007726D01*
G01X-568729Y-2007177D01*
G01X-568094Y-2006571D01*
G01X-567084Y-2005243D01*
G01X-565929Y-2004089D01*
G01X-564226Y-2002841D01*
G01X-562494Y-2001289D01*
G01X-558338Y-1997017D01*
G01X-555567Y-1993669D01*
G01X-554182Y-1992514D01*
G01X-552912Y-1991476D01*
G01X-551382Y-1989542D01*
G01X-550227Y-1988387D01*
G01X-548900Y-1987377D01*
G01X-548294Y-1986742D01*
G01X-547745Y-1985991D01*
G01X-546764Y-1984259D01*
G01X-546216Y-1983509D01*
G01X-545609Y-1982874D01*
G01X-544628Y-1982102D01*
G01X-544368Y-1981806D01*
G01X-544166Y-1981467D01*
G01X-544022Y-1981084D01*
G01X-543935Y-1980659D01*
G01X-543906Y-1980190D01*
G01X-543935Y-1979678D01*
G01X-544282Y-1978025D01*
G01X-544599Y-1977044D01*
G01X-544974Y-1976178D01*
G01X-545638Y-1975066D01*
G01X-546562Y-1973335D01*
G01X-547947Y-1970066D01*
G01X-549564Y-1966624D01*
G01X-550949Y-1963420D01*
G01X-551642Y-1961753D01*
G01X-553604Y-1957532D01*
G01X-554413Y-1955309D01*
G01X-555683Y-1950836D01*
G01X-557876Y-1944947D01*
G01X-559262Y-1940329D01*
G01X-559954Y-1938099D01*
G01X-560647Y-1936259D01*
G01X-561542Y-1934268D01*
G01X-561917Y-1933171D01*
G01X-562235Y-1931959D01*
G01X-563072Y-1927744D01*
G01X-563880Y-1924627D01*
G01X-565266Y-1920009D01*
G01X-565612Y-1918508D01*
G01X-565742Y-1916314D01*
G01X-565857Y-1915391D01*
G01X-566088Y-1914467D01*
G01X-566434Y-1913544D01*
G01X-567055Y-1912158D01*
G01X-567344Y-1911234D01*
G01X-567517Y-1910311D01*
G01X-567589Y-1908926D01*
G01X-567704Y-1908002D01*
G01X-567935Y-1907078D01*
G01X-568282Y-1906154D01*
G01X-568902Y-1904769D01*
G01X-569191Y-1903846D01*
G01X-569364Y-1902922D01*
G01X-569422Y-1901998D01*
G01X-569602Y-1899509D01*
G01X-569884Y-1897842D01*
G01X-570346Y-1895764D01*
G01X-571009Y-1893310D01*
G01X-571204Y-1891513D01*
G01X-571327Y-1887336D01*
G01X-571630Y-1885171D01*
G01X-571976Y-1884016D01*
G01X-572409Y-1883064D01*
G01X-572756Y-1882140D01*
G01X-572986Y-1881216D01*
G01X-573102Y-1880293D01*
G01X-573128Y-1879795D01*
G01X-565482Y-1879795D01*
G01X-565482Y-1880603D01*
G01X-565266Y-1882140D01*
G01X-564804Y-1884218D01*
G01X-563880Y-1887566D01*
G01X-563187Y-1891290D01*
G01X-562726Y-1893368D01*
G01X-562033Y-1895879D01*
G01X-561311Y-1899660D01*
G01X-560994Y-1900959D01*
G01X-560618Y-1902200D01*
G01X-558800Y-1907078D01*
G01X-558338Y-1908694D01*
G01X-557617Y-1911869D01*
G01X-557299Y-1912851D01*
G01X-556924Y-1913717D01*
G01X-556267Y-1914835D01*
G01X-555863Y-1915701D01*
G01X-555365Y-1917325D01*
G01X-554846Y-1919951D01*
G01X-554528Y-1921164D01*
G01X-554153Y-1922261D01*
G01X-552912Y-1925089D01*
G01X-552075Y-1927831D01*
G01X-551382Y-1929447D01*
G01X-550718Y-1930537D01*
G01X-549794Y-1932442D01*
G01X-549102Y-1934326D01*
G01X-547947Y-1937428D01*
G01X-546446Y-1940791D01*
G01X-545609Y-1943533D01*
G01X-544917Y-1945149D01*
G01X-544253Y-1946232D01*
G01X-543329Y-1947964D01*
G01X-542146Y-1950720D01*
G01X-541301Y-1952452D01*
G01X-540327Y-1954184D01*
G01X-537787Y-1958239D01*
G01X-536864Y-1959971D01*
G01X-535680Y-1962612D01*
G01X-535132Y-1963420D01*
G01X-534526Y-1963997D01*
G01X-534526Y-1963997D01*
G01X-533862Y-1964344D01*
G01X-533198Y-1964459D01*
G01X-532592Y-1964344D01*
G01X-532043Y-1963997D01*
G01X-531553Y-1963420D01*
G01X-529474Y-1960288D01*
G01X-528551Y-1958556D01*
G01X-526934Y-1954876D01*
G01X-525578Y-1952567D01*
G01X-524885Y-1951182D01*
G01X-524048Y-1949104D01*
G01X-523009Y-1947350D01*
G01X-522086Y-1945445D01*
G01X-520469Y-1941137D01*
G01X-520007Y-1940185D01*
G01X-519314Y-1939038D01*
G01X-518391Y-1937133D01*
G01X-517698Y-1935249D01*
G01X-516544Y-1932146D01*
G01X-515418Y-1929707D01*
G01X-514725Y-1927860D01*
G01X-513888Y-1924974D01*
G01X-511694Y-1919086D01*
G01X-506614Y-1903614D01*
G01X-505691Y-1899458D01*
G01X-504767Y-1896226D01*
G01X-503844Y-1892069D01*
G01X-502920Y-1888836D01*
G01X-501996Y-1884680D01*
G01X-501332Y-1882342D01*
G01X-501102Y-1880726D01*
G01X-501075Y-1879802D01*
G01X-501230Y-1879580D01*
G01X-501570Y-1879398D01*
G01X-502102Y-1879227D01*
G01X-503455Y-1878959D01*
G01X-505369Y-1878723D01*
G01X-510332Y-1878376D01*
G01X-532938Y-1877984D01*
G01X-546908Y-1878041D01*
G01X-563072Y-1878503D01*
G01X-564659Y-1878691D01*
G01X-565266Y-1878907D01*
G01X-565366Y-1879160D01*
G01X-565439Y-1879456D01*
G01X-565482Y-1879795D01*
G01X-573128Y-1879795D01*
G01X-573138Y-1879607D01*
G01X-573311Y-1879203D01*
G01X-573657Y-1878857D01*
G01X-573896Y-1878705D01*
G01X-574502Y-1878446D01*
G01X-575281Y-1878243D01*
G01X-577359Y-1878012D01*
G01X-579971Y-1878005D01*
G01X-582165Y-1878178D01*
G01X-583781Y-1878525D01*
G01X-584373Y-1878763D01*
G01X-584821Y-1879044D01*
G01X-585124Y-1879369D01*
G01X-585340Y-1879838D01*
G01X-585528Y-1880552D01*
G01X-585786Y-1882393D01*
G01X-585938Y-1884568D01*
G01X-586047Y-1889991D01*
G01X-586054Y-1892177D01*
G01X-586228Y-1898470D01*
G01X-586401Y-1900144D01*
G01X-586538Y-1900706D01*
G01X-586642Y-1901203D01*
G01X-586856Y-1903614D01*
G01X-587086Y-1916084D01*
G01X-587324Y-1918638D01*
G01X-587541Y-1919453D01*
G01X-587779Y-1920817D01*
G01X-587923Y-1924541D01*
G01X-588154Y-1926619D01*
G01X-588558Y-1928264D01*
G01X-588753Y-1930212D01*
G01X-588825Y-1933965D01*
G01X-588999Y-1937775D01*
G01X-589280Y-1940329D01*
G01X-590204Y-1945871D01*
G01X-590434Y-1947141D01*
G01X-591127Y-1952336D01*
G01X-591358Y-1954241D01*
G01X-591820Y-1957012D01*
G01X-592513Y-1959726D01*
G01X-593206Y-1963997D01*
G01X-593667Y-1966306D01*
G01X-594360Y-1968731D01*
G01X-595284Y-1972887D01*
G01X-595976Y-1975225D01*
G01X-596900Y-1978631D01*
G01X-597824Y-1981691D01*
G01X-599094Y-1986164D01*
G01X-599902Y-1988358D01*
G01X-601749Y-1992976D01*
G01X-603134Y-1996671D01*
G01X-604058Y-1999442D01*
G01X-604636Y-2000827D01*
G01X-605674Y-2002574D01*
G01X-606598Y-2004305D01*
G01X-608214Y-2007986D01*
G01X-608676Y-2008851D01*
G01X-610062Y-2011103D01*
G01X-611447Y-2013701D01*
G01X-612371Y-2015086D01*
G01X-613071Y-2015858D01*
G01X-614168Y-2017301D01*
G01X-616412Y-2020801D01*
G01X-616960Y-2021522D01*
G01X-617689Y-2022323D01*
G01X-618786Y-2023767D01*
G01X-621030Y-2027266D01*
G01X-621578Y-2027988D01*
G01X-622993Y-2029576D01*
G01X-624407Y-2031509D01*
G01X-625562Y-2032664D01*
G01X-627496Y-2034194D01*
G01X-629025Y-2036127D01*
G01X-630180Y-2037282D01*
G01X-632114Y-2038812D01*
G01X-633643Y-2040746D01*
G01X-634798Y-2041900D01*
G01X-636732Y-2043430D01*
G01X-638262Y-2045364D01*
G01X-639416Y-2046518D01*
G01X-640831Y-2047529D01*
G01X-644842Y-2050617D01*
G01X-646459Y-2051772D01*
G01X-647469Y-2052378D01*
G01X-647931Y-2052782D01*
G01X-648854Y-2053936D01*
G01X-649778Y-2054860D01*
G37*
G36*
G01X-287713Y-2052089D02*
G01X-290484Y-2052551D01*
G01X-290484Y-2039158D01*
G01X-290303Y-2027108D01*
G01X-290130Y-2024914D01*
G01X-290018Y-2024368D01*
G01X-289936Y-2023418D01*
G01X-289560Y-1949104D01*
G01X-289567Y-1931764D01*
G01X-289966Y-1874284D01*
G01X-290022Y-1873827D01*
G01X-290159Y-1873531D01*
G01X-290339Y-1873337D01*
G01X-290830Y-1873250D01*
G01X-291140Y-1873358D01*
G01X-291494Y-1873567D01*
G01X-291891Y-1873878D01*
G01X-293226Y-1875242D01*
G01X-294063Y-1876252D01*
G01X-294842Y-1877320D01*
G01X-296834Y-1880408D01*
G01X-297382Y-1881130D01*
G01X-298111Y-1881931D01*
G01X-299208Y-1883374D01*
G01X-301452Y-1886874D01*
G01X-302000Y-1887595D01*
G01X-302953Y-1888634D01*
G01X-304338Y-1890453D01*
G01X-305724Y-1892271D01*
G01X-306618Y-1893252D01*
G01X-306994Y-1893801D01*
G01X-307311Y-1894407D01*
G01X-307859Y-1895735D01*
G01X-308264Y-1896341D01*
G01X-308783Y-1896889D01*
G01X-309418Y-1897380D01*
G01X-310082Y-1897899D01*
G01X-310688Y-1898534D01*
G01X-311237Y-1899285D01*
G01X-312218Y-1901017D01*
G01X-312766Y-1901767D01*
G01X-313372Y-1902402D01*
G01X-314671Y-1903412D01*
G01X-315191Y-1903961D01*
G01X-315595Y-1904567D01*
G01X-316172Y-1905895D01*
G01X-316576Y-1906501D01*
G01X-317096Y-1907049D01*
G01X-318084Y-1907792D01*
G01X-319232Y-1908810D01*
G01X-320069Y-1909705D01*
G01X-321829Y-1911869D01*
G01X-323734Y-1914467D01*
G01X-324774Y-1915737D01*
G01X-326707Y-1917267D01*
G01X-327862Y-1918422D01*
G01X-329392Y-1920356D01*
G01X-331326Y-1921885D01*
G01X-332480Y-1923040D01*
G01X-334010Y-1924974D01*
G01X-335944Y-1926503D01*
G01X-337098Y-1927658D01*
G01X-338628Y-1929592D01*
G01X-340562Y-1931122D01*
G01X-341717Y-1932276D01*
G01X-343246Y-1934210D01*
G01X-345180Y-1935740D01*
G01X-346335Y-1936894D01*
G01X-347864Y-1938828D01*
G01X-349134Y-1939867D01*
G01X-350953Y-1941253D01*
G01X-352483Y-1942638D01*
G01X-354417Y-1944052D01*
G01X-355571Y-1945207D01*
G01X-356552Y-1946506D01*
G01X-357101Y-1947026D01*
G01X-357707Y-1947429D01*
G01X-359035Y-1948007D01*
G01X-359641Y-1948411D01*
G01X-360189Y-1948931D01*
G01X-360680Y-1949566D01*
G01X-361719Y-1950836D01*
G01X-362989Y-1951874D01*
G01X-364807Y-1953260D01*
G01X-366337Y-1954646D01*
G01X-368358Y-1956089D01*
G01X-371302Y-1958340D01*
G01X-375920Y-1962034D01*
G01X-378806Y-1964163D01*
G01X-382501Y-1966537D01*
G01X-383222Y-1967086D01*
G01X-384023Y-1967814D01*
G01X-385467Y-1968911D01*
G01X-389197Y-1971271D01*
G01X-392610Y-1973696D01*
G01X-395316Y-1975427D01*
G01X-399934Y-1978198D01*
G01X-401897Y-1979468D01*
G01X-402619Y-1980017D01*
G01X-403716Y-1980969D01*
G01X-404437Y-1981431D01*
G01X-407526Y-1982845D01*
G01X-408594Y-1983394D01*
G01X-409604Y-1984000D01*
G01X-410556Y-1984664D01*
G01X-411451Y-1985183D01*
G01X-412288Y-1985356D01*
G01X-413067Y-1985183D01*
G01X-413789Y-1984664D01*
G01X-414366Y-1983971D01*
G01X-414713Y-1983278D01*
G01X-414828Y-1982586D01*
G01X-414713Y-1981893D01*
G01X-414453Y-1981229D01*
G01X-414136Y-1980623D01*
G01X-413760Y-1980074D01*
G01X-412837Y-1979122D01*
G01X-411018Y-1977736D01*
G01X-409200Y-1976351D01*
G01X-407670Y-1974966D01*
G01X-405649Y-1973522D01*
G01X-402706Y-1971271D01*
G01X-396991Y-1966711D01*
G01X-393729Y-1964315D01*
G01X-392574Y-1963160D01*
G01X-391831Y-1962150D01*
G01X-391196Y-1961457D01*
G01X-389919Y-1960418D01*
G01X-387783Y-1959033D01*
G01X-386888Y-1958340D01*
G01X-386167Y-1957647D01*
G01X-385365Y-1956601D01*
G01X-384348Y-1955454D01*
G01X-383453Y-1954617D01*
G01X-381289Y-1952856D01*
G01X-378691Y-1950951D01*
G01X-377421Y-1949912D01*
G01X-375891Y-1947978D01*
G01X-374737Y-1946823D01*
G01X-372803Y-1945294D01*
G01X-371273Y-1943360D01*
G01X-370118Y-1942205D01*
G01X-368184Y-1940676D01*
G01X-366655Y-1938742D01*
G01X-365500Y-1937587D01*
G01X-364483Y-1936844D01*
G01X-363336Y-1935826D01*
G01X-362498Y-1934932D01*
G01X-359872Y-1931786D01*
G01X-358371Y-1930169D01*
G01X-356062Y-1927860D01*
G01X-355138Y-1926821D01*
G01X-353724Y-1924887D01*
G01X-352569Y-1923732D01*
G01X-351559Y-1922989D01*
G01X-350866Y-1922354D01*
G01X-349827Y-1921077D01*
G01X-348442Y-1918941D01*
G01X-347749Y-1918046D01*
G01X-347056Y-1917325D01*
G01X-346364Y-1916776D01*
G01X-345094Y-1915737D01*
G01X-344054Y-1914467D01*
G01X-342669Y-1912649D01*
G01X-341385Y-1911270D01*
G01X-339436Y-1908926D01*
G01X-338571Y-1907829D01*
G01X-336146Y-1904481D01*
G01X-333029Y-1900439D01*
G01X-331124Y-1897842D01*
G01X-329738Y-1896023D01*
G01X-328353Y-1894494D01*
G01X-326967Y-1892560D01*
G01X-325344Y-1890662D01*
G01X-324247Y-1889219D01*
G01X-321887Y-1885488D01*
G01X-319463Y-1882075D01*
G01X-317731Y-1879369D01*
G01X-314960Y-1874751D01*
G01X-313574Y-1872557D01*
G01X-311150Y-1869144D01*
G01X-309418Y-1866438D01*
G01X-306878Y-1862383D01*
G01X-305954Y-1860651D01*
G01X-304338Y-1856971D01*
G01X-303876Y-1856105D01*
G01X-302606Y-1853969D01*
G01X-301899Y-1852230D01*
G01X-301336Y-1851083D01*
G01X-299518Y-1848398D01*
G01X-298912Y-1847388D01*
G01X-298363Y-1846320D01*
G01X-297382Y-1844040D01*
G01X-296538Y-1842308D01*
G01X-294589Y-1838909D01*
G01X-293254Y-1836420D01*
G01X-292446Y-1834573D01*
G01X-291581Y-1831773D01*
G01X-291176Y-1830763D01*
G01X-290657Y-1829695D01*
G01X-289387Y-1827443D01*
G01X-288867Y-1826376D01*
G01X-288463Y-1825365D01*
G01X-287915Y-1823518D01*
G01X-287222Y-1821902D01*
G01X-286558Y-1820812D01*
G01X-285634Y-1818907D01*
G01X-284942Y-1817024D01*
G01X-283787Y-1813921D01*
G01X-282719Y-1811511D01*
G01X-282517Y-1810674D01*
G01X-282488Y-1809894D01*
G01X-282633Y-1809173D01*
G01X-282990Y-1808965D01*
G01X-283381Y-1808867D01*
G01X-285067Y-1808633D01*
G01X-289261Y-1808342D01*
G01X-330200Y-1807787D01*
G01X-375141Y-1808047D01*
G01X-378339Y-1808193D01*
G01X-378691Y-1808249D01*
G01X-379340Y-1808406D01*
G01X-381419Y-1808622D01*
G01X-387552Y-1808769D01*
G01X-389659Y-1808942D01*
G01X-391477Y-1809231D01*
G01X-394422Y-1810067D01*
G01X-396651Y-1810609D01*
G01X-399011Y-1811020D01*
G01X-400483Y-1811164D01*
G01X-401666Y-1811136D01*
G01X-402561Y-1810933D01*
G01X-403167Y-1810558D01*
G01X-403658Y-1810096D01*
G01X-405476Y-1808711D01*
G01X-406746Y-1807672D01*
G01X-408276Y-1805738D01*
G01X-409431Y-1804583D01*
G01X-410701Y-1803602D01*
G01X-411134Y-1803054D01*
G01X-411393Y-1802447D01*
G01X-411480Y-1801784D01*
G01X-411149Y-1801636D01*
G01X-410154Y-1801497D01*
G01X-407081Y-1801287D01*
G01X-300644Y-1800398D01*
G01X-189771Y-1800045D01*
G01X-187498Y-1799936D01*
G01X-186430Y-1799648D01*
G01X-185536Y-1799244D01*
G01X-184814Y-1798724D01*
G01X-184266Y-1798089D01*
G01X-183226Y-1796819D01*
G01X-181292Y-1795289D01*
G01X-180138Y-1794135D01*
G01X-178608Y-1792201D01*
G01X-176674Y-1790671D01*
G01X-175520Y-1789517D01*
G01X-173990Y-1787583D01*
G01X-172056Y-1786053D01*
G01X-170902Y-1784898D01*
G01X-169949Y-1783686D01*
G01X-169487Y-1783426D01*
G01X-169026Y-1783455D01*
G01X-168564Y-1783773D01*
G01X-168073Y-1784234D01*
G01X-166254Y-1785620D01*
G01X-164984Y-1786659D01*
G01X-163455Y-1788593D01*
G01X-162300Y-1789747D01*
G01X-160366Y-1791277D01*
G01X-158837Y-1793211D01*
G01X-157682Y-1794366D01*
G01X-155748Y-1795896D01*
G01X-154218Y-1797829D01*
G01X-153064Y-1798984D01*
G01X-151130Y-1800514D01*
G01X-149600Y-1802447D01*
G01X-148446Y-1803602D01*
G01X-147147Y-1804583D01*
G01X-146627Y-1805132D01*
G01X-146223Y-1805738D01*
G01X-145934Y-1806402D01*
G01X-146203Y-1806610D01*
G01X-146594Y-1806708D01*
G01X-148053Y-1806907D01*
G01X-151931Y-1807176D01*
G01X-200891Y-1807787D01*
G01X-251334Y-1808224D01*
G01X-256150Y-1808494D01*
G01X-256904Y-1808599D01*
G01X-257233Y-1808711D01*
G01X-257471Y-1808963D01*
G01X-258568Y-1810407D01*
G01X-259542Y-1811944D01*
G01X-260696Y-1814022D01*
G01X-261649Y-1816302D01*
G01X-261966Y-1816908D01*
G01X-262342Y-1817457D01*
G01X-263006Y-1818200D01*
G01X-263467Y-1818835D01*
G01X-264160Y-1820112D01*
G01X-265314Y-1822847D01*
G01X-267277Y-1827068D01*
G01X-267984Y-1828923D01*
G01X-268547Y-1830070D01*
G01X-270366Y-1832754D01*
G01X-270972Y-1833764D01*
G01X-271520Y-1834832D01*
G01X-272704Y-1837625D01*
G01X-273858Y-1840114D01*
G01X-276167Y-1844762D01*
G01X-278476Y-1850044D01*
G01X-278938Y-1850909D01*
G01X-279775Y-1852382D01*
G01X-279977Y-1853161D01*
G01X-280006Y-1853998D01*
G01X-279862Y-1854893D01*
G01X-279725Y-1855340D01*
G01X-279544Y-1855759D01*
G01X-279321Y-1856148D01*
G01X-279054Y-1856509D01*
G01X-278743Y-1856841D01*
G01X-278390Y-1857144D01*
G01X-277993Y-1857418D01*
G01X-276600Y-1858154D01*
G01X-273396Y-1859973D01*
G01X-268316Y-1863090D01*
G01X-266577Y-1863797D01*
G01X-265430Y-1864360D01*
G01X-263698Y-1865514D01*
G01X-262948Y-1866207D01*
G01X-262544Y-1866900D01*
G01X-262486Y-1867593D01*
G01X-262774Y-1868286D01*
G01X-263027Y-1868639D01*
G01X-264044Y-1869786D01*
G01X-264939Y-1870623D01*
G01X-267104Y-1872384D01*
G01X-269713Y-1874297D01*
G01X-269880Y-1874764D01*
G01X-270055Y-1876035D01*
G01X-270308Y-1879744D01*
G01X-271087Y-1956031D01*
G01X-270681Y-2037751D01*
G01X-270626Y-2038234D01*
G01X-270517Y-2038595D01*
G01X-270279Y-2039851D01*
G01X-270164Y-2041929D01*
G01X-270250Y-2042997D01*
G01X-270510Y-2043892D01*
G01X-270943Y-2044613D01*
G01X-271549Y-2045162D01*
G01X-273050Y-2046086D01*
G01X-276860Y-2047933D01*
G01X-279400Y-2048856D01*
G01X-281824Y-2049780D01*
G01X-283924Y-2050927D01*
G01X-284790Y-2051331D01*
G01X-286414Y-2051829D01*
G01X-287713Y-2052089D01*
G37*
G36*
G01X-66011Y-2051801D02*
G01X-66964Y-2052089D01*
G01X-67411Y-2052161D01*
G01X-67829Y-2052147D01*
G01X-68219Y-2052046D01*
G01X-68580Y-2051858D01*
G01X-68912Y-2051584D01*
G01X-69215Y-2051223D01*
G01X-69489Y-2050776D01*
G01X-69734Y-2050242D01*
G01X-70225Y-2049087D01*
G01X-71069Y-2047356D01*
G01X-72044Y-2045624D01*
G01X-72736Y-2044527D01*
G01X-74122Y-2042679D01*
G01X-75507Y-2041265D01*
G01X-76893Y-2040111D01*
G01X-81771Y-2036647D01*
G01X-82781Y-2036041D01*
G01X-83849Y-2035492D01*
G01X-87053Y-2034078D01*
G01X-89391Y-2032722D01*
G01X-91007Y-2032029D01*
G01X-93749Y-2031192D01*
G01X-96549Y-2029951D01*
G01X-98627Y-2029258D01*
G01X-100294Y-2028854D01*
G01X-100763Y-2028652D01*
G01X-101160Y-2028392D01*
G01X-101484Y-2028074D01*
G01X-101737Y-2027699D01*
G01X-101917Y-2027266D01*
G01X-102026Y-2026776D01*
G01X-102062Y-2026227D01*
G01X-102026Y-2025686D01*
G01X-101917Y-2025217D01*
G01X-101737Y-2024820D01*
G01X-101484Y-2024496D01*
G01X-101160Y-2024243D01*
G01X-100763Y-2024062D01*
G01X-100294Y-2023954D01*
G01X-98656Y-2023947D01*
G01X-96809Y-2024178D01*
G01X-95279Y-2024582D01*
G01X-93201Y-2024813D01*
G01X-89246Y-2024957D01*
G01X-86822Y-2025304D01*
G01X-84744Y-2025766D01*
G01X-82673Y-2026336D01*
G01X-80306Y-2026559D01*
G01X-73429Y-2026689D01*
G01X-69706Y-2026602D01*
G01X-66848Y-2026343D01*
G01X-65744Y-2026148D01*
G01X-64857Y-2025910D01*
G01X-64186Y-2025628D01*
G01X-63731Y-2025304D01*
G01X-63096Y-2024524D01*
G01X-62576Y-2023572D01*
G01X-62172Y-2022446D01*
G01X-61653Y-2019848D01*
G01X-61191Y-2017770D01*
G01X-60960Y-2016991D01*
G01X-60821Y-2015517D01*
G01X-60498Y-1976351D01*
G01X-60852Y-1935235D01*
G01X-60960Y-1933864D01*
G01X-61220Y-1932421D01*
G01X-61537Y-1931324D01*
G01X-61912Y-1930573D01*
G01X-62346Y-1930169D01*
G01X-62598Y-1930082D01*
G01X-62894Y-1930054D01*
G01X-63233Y-1930082D01*
G01X-63616Y-1930169D01*
G01X-64041Y-1930313D01*
G01X-65578Y-1931093D01*
G01X-70774Y-1934326D01*
G01X-73458Y-1935740D01*
G01X-76662Y-1937558D01*
G01X-78856Y-1938944D01*
G01X-82269Y-1941368D01*
G01X-84974Y-1943100D01*
G01X-89593Y-1945871D01*
G01X-90632Y-1946535D01*
G01X-91440Y-1947141D01*
G01X-92017Y-1947689D01*
G01X-92652Y-1948642D01*
G01X-93056Y-1949104D01*
G01X-93576Y-1949566D01*
G01X-94875Y-1950518D01*
G01X-96029Y-1951672D01*
G01X-97011Y-1952942D01*
G01X-97559Y-1953376D01*
G01X-98165Y-1953635D01*
G01X-98829Y-1953722D01*
G01X-99168Y-1953693D01*
G01X-99493Y-1953606D01*
G01X-99803Y-1953462D01*
G01X-100099Y-1953260D01*
G01X-100381Y-1953000D01*
G01X-100647Y-1952683D01*
G01X-100900Y-1952307D01*
G01X-101629Y-1950922D01*
G01X-103447Y-1947718D01*
G01X-104833Y-1945524D01*
G01X-106882Y-1942638D01*
G01X-107770Y-1941253D01*
G01X-108989Y-1939001D01*
G01X-109913Y-1937616D01*
G01X-110750Y-1936606D01*
G01X-110952Y-1936057D01*
G01X-110981Y-1935451D01*
G01X-110836Y-1934787D01*
G01X-110692Y-1934455D01*
G01X-110490Y-1934152D01*
G01X-110230Y-1933878D01*
G01X-109913Y-1933633D01*
G01X-109537Y-1933416D01*
G01X-109104Y-1933229D01*
G01X-105987Y-1932478D01*
G01X-104371Y-1932016D01*
G01X-99753Y-1930631D01*
G01X-97523Y-1929938D01*
G01X-95683Y-1929246D01*
G01X-93720Y-1928351D01*
G01X-91642Y-1927658D01*
G01X-89419Y-1927138D01*
G01X-88438Y-1926821D01*
G01X-87572Y-1926446D01*
G01X-86454Y-1925782D01*
G01X-84549Y-1924858D01*
G01X-80241Y-1923242D01*
G01X-79288Y-1922780D01*
G01X-78141Y-1922087D01*
G01X-76236Y-1921164D01*
G01X-74353Y-1920471D01*
G01X-71250Y-1919316D01*
G01X-68782Y-1918162D01*
G01X-64481Y-1916286D01*
G01X-63500Y-1915737D01*
G01X-62634Y-1915131D01*
G01X-61884Y-1914467D01*
G01X-61676Y-1914093D01*
G01X-61485Y-1913403D01*
G01X-61153Y-1911076D01*
G01X-60867Y-1907057D01*
G01X-60498Y-1885834D01*
G01X-60628Y-1868906D01*
G01X-61018Y-1858991D01*
G01X-61310Y-1856664D01*
G01X-61422Y-1856278D01*
G01X-61884Y-1855297D01*
G01X-62346Y-1854662D01*
G01X-62807Y-1854373D01*
G01X-63269Y-1854431D01*
G01X-63709Y-1854539D01*
G01X-65845Y-1854712D01*
G01X-91353Y-1855073D01*
G01X-93662Y-1855246D01*
G01X-94211Y-1855354D01*
G01X-95943Y-1855816D01*
G01X-98367Y-1856278D01*
G01X-99053Y-1856365D01*
G01X-100381Y-1856365D01*
G01X-101651Y-1856134D01*
G01X-102863Y-1855672D01*
G01X-104515Y-1854662D01*
G01X-105410Y-1853969D01*
G01X-106132Y-1853276D01*
G01X-107171Y-1851920D01*
G01X-108325Y-1850765D01*
G01X-109595Y-1849784D01*
G01X-110028Y-1849236D01*
G01X-110288Y-1848629D01*
G01X-110374Y-1847966D01*
G01X-110225Y-1847758D01*
G01X-109891Y-1847603D01*
G01X-109365Y-1847460D01*
G01X-107213Y-1847149D01*
G01X-103467Y-1846885D01*
G01X-70918Y-1846320D01*
G01X-64683Y-1845858D01*
G01X-62692Y-1845541D01*
G01X-61451Y-1845166D01*
G01X-60960Y-1844733D01*
G01X-60787Y-1843838D01*
G01X-60729Y-1843001D01*
G01X-60787Y-1842222D01*
G01X-60960Y-1841500D01*
G01X-61029Y-1841191D01*
G01X-61204Y-1839146D01*
G01X-61422Y-1823489D01*
G01X-61602Y-1808660D01*
G01X-61775Y-1806063D01*
G01X-61884Y-1805478D01*
G01X-61992Y-1804987D01*
G01X-62183Y-1802828D01*
G01X-62346Y-1793471D01*
G01X-62165Y-1783441D01*
G01X-61992Y-1781247D01*
G01X-61884Y-1780540D01*
G01X-61566Y-1779587D01*
G01X-61076Y-1779039D01*
G01X-60412Y-1778895D01*
G01X-59574Y-1779154D01*
G01X-58622Y-1779616D01*
G01X-55418Y-1781002D01*
G01X-53751Y-1781694D01*
G01X-49530Y-1783657D01*
G01X-47668Y-1784364D01*
G01X-45936Y-1785173D01*
G01X-43180Y-1786746D01*
G01X-41448Y-1787633D01*
G01X-37638Y-1789314D01*
G01X-36022Y-1790238D01*
G01X-35473Y-1790729D01*
G01X-35214Y-1791277D01*
G01X-35242Y-1791883D01*
G01X-35560Y-1792547D01*
G01X-36051Y-1793182D01*
G01X-36599Y-1793702D01*
G01X-37205Y-1794106D01*
G01X-38533Y-1794683D01*
G01X-39139Y-1795087D01*
G01X-39687Y-1795607D01*
G01X-40669Y-1796906D01*
G01X-41823Y-1798060D01*
G01X-42530Y-1798585D01*
G01X-42774Y-1799024D01*
G01X-42958Y-1799693D01*
G01X-43276Y-1801860D01*
G01X-43568Y-1805919D01*
G01X-43873Y-1823027D01*
G01X-43873Y-1846580D01*
G01X-38793Y-1846580D01*
G01X-35372Y-1846515D01*
G01X-32731Y-1846320D01*
G01X-31404Y-1846118D01*
G01X-30336Y-1845829D01*
G01X-29441Y-1845426D01*
G01X-28719Y-1844906D01*
G01X-28171Y-1844271D01*
G01X-27132Y-1843001D01*
G01X-25198Y-1841471D01*
G01X-24043Y-1840317D01*
G01X-22514Y-1838383D01*
G01X-20580Y-1836853D01*
G01X-19425Y-1835698D01*
G01X-18473Y-1834428D01*
G01X-18011Y-1833996D01*
G01X-17549Y-1833736D01*
G01X-17087Y-1833649D01*
G01X-16568Y-1833736D01*
G01X-15933Y-1833996D01*
G01X-15182Y-1834428D01*
G01X-13451Y-1835727D01*
G01X-12065Y-1837113D01*
G01X-11055Y-1838469D01*
G01X-9900Y-1839624D01*
G01X-7966Y-1841154D01*
G01X-6437Y-1843087D01*
G01X-5282Y-1844242D01*
G01X-3348Y-1845772D01*
G01X-1818Y-1847706D01*
G01X-664Y-1848860D01*
G01X1270Y-1850390D01*
G01X2309Y-1851660D01*
G01X2684Y-1852324D01*
G01X2886Y-1852930D01*
G01X2915Y-1853478D01*
G01X2771Y-1853969D01*
G01X2510Y-1854134D01*
G01X2142Y-1854235D01*
G01X747Y-1854436D01*
G01X-2025Y-1854632D01*
G01X-18011Y-1854893D01*
G01X-33597Y-1854777D01*
G01X-39074Y-1854539D01*
G01X-40409Y-1854258D01*
G01X-41102Y-1854200D01*
G01X-41794Y-1854258D01*
G01X-42487Y-1854431D01*
G01X-42695Y-1854661D01*
G01X-42958Y-1855513D01*
G01X-43247Y-1857519D01*
G01X-43526Y-1861358D01*
G01X-43873Y-1881216D01*
G01X-43873Y-1907540D01*
G01X-41102Y-1907078D01*
G01X-39745Y-1906789D01*
G01X-38446Y-1906386D01*
G01X-37205Y-1905866D01*
G01X-34867Y-1904567D01*
G01X-33136Y-1903679D01*
G01X-29326Y-1901998D01*
G01X-26987Y-1900642D01*
G01X-25371Y-1899949D01*
G01X-22629Y-1899112D01*
G01X-19050Y-1897496D01*
G01X-17188Y-1896788D01*
G01X-15456Y-1895980D01*
G01X-11776Y-1893916D01*
G01X-9467Y-1892964D01*
G01X-8082Y-1892271D01*
G01X-6696Y-1891492D01*
G01X-6004Y-1891376D01*
G01X-5311Y-1891492D01*
G01X-4618Y-1891838D01*
G01X-4301Y-1892091D01*
G01X-4041Y-1892387D01*
G01X-3839Y-1892726D01*
G01X-3694Y-1893108D01*
G01X-3608Y-1893534D01*
G01X-3579Y-1894003D01*
G01X-3608Y-1894515D01*
G01X-3839Y-1895627D01*
G01X-4041Y-1896139D01*
G01X-4301Y-1896608D01*
G01X-4618Y-1897034D01*
G01X-4993Y-1897416D01*
G01X-5426Y-1897755D01*
G01X-5917Y-1898051D01*
G01X-7533Y-1898766D01*
G01X-9150Y-1899689D01*
G01X-9698Y-1900151D01*
G01X-10247Y-1900613D01*
G01X-10968Y-1901074D01*
G01X-13999Y-1902460D01*
G01X-15615Y-1903384D01*
G01X-16416Y-1904076D01*
G01X-17051Y-1904538D01*
G01X-18328Y-1905231D01*
G01X-20551Y-1906183D01*
G01X-22283Y-1907028D01*
G01X-24014Y-1908002D01*
G01X-25977Y-1909272D01*
G01X-26699Y-1909820D01*
G01X-27796Y-1910773D01*
G01X-28517Y-1911234D01*
G01X-31548Y-1912620D01*
G01X-33164Y-1913544D01*
G01X-33965Y-1914236D01*
G01X-34600Y-1914698D01*
G01X-35877Y-1915391D01*
G01X-38100Y-1916372D01*
G01X-39254Y-1917007D01*
G01X-40409Y-1917758D01*
G01X-41564Y-1918624D01*
G01X-43873Y-1920471D01*
G01X-43873Y-1970347D01*
G01X-44178Y-2021214D01*
G01X-44334Y-2024380D01*
G01X-44566Y-2026285D01*
G01X-45027Y-2029056D01*
G01X-45489Y-2030643D01*
G01X-46312Y-2033616D01*
G01X-46658Y-2034540D01*
G01X-47394Y-2035926D01*
G01X-50338Y-2040082D01*
G01X-51377Y-2041352D01*
G01X-53311Y-2042882D01*
G01X-54466Y-2044036D01*
G01X-55209Y-2045046D01*
G01X-55844Y-2045739D01*
G01X-57121Y-2046778D01*
G01X-58189Y-2047471D01*
G01X-62807Y-2050242D01*
G01X-63933Y-2050877D01*
G01X-65001Y-2051396D01*
G01X-66011Y-2051801D01*
G37*
G36*
G01X-1001222Y-2029806D02*
G01X-1001684Y-2029922D01*
G01X-1002146Y-2029806D01*
G01X-1002607Y-2029460D01*
G01X-1003531Y-2028421D01*
G01X-1004945Y-2026516D01*
G01X-1005494Y-2025996D01*
G01X-1006100Y-2025592D01*
G01X-1007427Y-2025015D01*
G01X-1008034Y-2024611D01*
G01X-1008582Y-2024091D01*
G01X-1009563Y-2022792D01*
G01X-1010718Y-2021638D01*
G01X-1012652Y-2020108D01*
G01X-1014182Y-2018174D01*
G01X-1015336Y-2017020D01*
G01X-1016577Y-2016038D01*
G01X-1016924Y-2015490D01*
G01X-1017039Y-2014884D01*
G01X-1016924Y-2014220D01*
G01X-1016635Y-2013556D01*
G01X-1016231Y-2012950D01*
G01X-1015711Y-2012402D01*
G01X-1015076Y-2011911D01*
G01X-1013258Y-2010526D01*
G01X-1011728Y-2009140D01*
G01X-1010447Y-2008208D01*
G01X-1010311Y-2007818D01*
G01X-1010162Y-2006733D01*
G01X-1009935Y-2003409D01*
G01X-1009073Y-1907078D01*
G01X-1009479Y-1806038D01*
G01X-1009534Y-1805478D01*
G01X-1009643Y-1805038D01*
G01X-1009881Y-1802592D01*
G01X-1009996Y-1796704D01*
G01X-1009996Y-1789314D01*
G01X-1007254Y-1790036D01*
G01X-1005638Y-1790729D01*
G01X-1004556Y-1791393D01*
G01X-1002824Y-1792316D01*
G01X-999144Y-1793933D01*
G01X-997166Y-1795087D01*
G01X-995435Y-1796011D01*
G01X-991754Y-1797627D01*
G01X-989777Y-1798782D01*
G01X-988046Y-1799706D01*
G01X-985491Y-1800860D01*
G01X-984943Y-1801322D01*
G01X-984798Y-1801784D01*
G01X-985058Y-1802246D01*
G01X-985520Y-1802736D01*
G01X-987158Y-1804901D01*
G01X-987793Y-1805594D01*
G01X-989070Y-1806633D01*
G01X-990138Y-1807326D01*
G01X-992447Y-1808711D01*
G01X-992447Y-1908464D01*
G01X-992094Y-2008425D01*
G01X-991986Y-2010526D01*
G01X-991524Y-2012834D01*
G01X-959196Y-2012834D01*
G01X-927591Y-2012575D01*
G01X-924966Y-2012429D01*
G01X-924560Y-2012373D01*
G01X-923492Y-2012113D01*
G01X-922597Y-2011796D01*
G01X-921876Y-2011420D01*
G01X-921327Y-2010987D01*
G01X-920288Y-2010064D01*
G01X-918354Y-2008649D01*
G01X-917200Y-2007495D01*
G01X-915670Y-2005561D01*
G01X-913736Y-2004031D01*
G01X-912582Y-2002877D01*
G01X-911600Y-2001578D01*
G01X-911052Y-2001058D01*
G01X-910446Y-2000654D01*
G01X-909782Y-2000366D01*
G01X-909118Y-2000250D01*
G01X-908512Y-2000366D01*
G01X-907963Y-2000712D01*
G01X-906982Y-2001953D01*
G01X-905827Y-2003107D01*
G01X-903894Y-2004637D01*
G01X-902854Y-2005907D01*
G01X-901931Y-2007062D01*
G01X-901469Y-2007466D01*
G01X-900762Y-2007899D01*
G01X-900488Y-2008101D01*
G01X-899492Y-2009053D01*
G01X-897313Y-2011622D01*
G01X-896389Y-2012604D01*
G01X-895466Y-2013469D01*
G01X-894542Y-2014220D01*
G01X-892926Y-2015606D01*
G01X-891771Y-2016991D01*
G01X-891396Y-2017655D01*
G01X-891194Y-2018261D01*
G01X-891165Y-2018809D01*
G01X-891309Y-2019300D01*
G01X-891913Y-2019478D01*
G01X-895041Y-2019725D01*
G01X-941647Y-2020224D01*
G01X-987308Y-2020660D01*
G01X-991805Y-2020931D01*
G01X-992546Y-2021035D01*
G01X-992909Y-2021147D01*
G01X-994727Y-2022533D01*
G01X-996041Y-2023882D01*
G01X-999606Y-2028190D01*
G01X-1000760Y-2029460D01*
G01X-1001222Y-2029806D01*
G37*
G36*
G01X245673Y-2021465D02*
G01X245226Y-2021609D01*
G01X244388Y-2021724D01*
G01X243724Y-2021609D01*
G01X243234Y-2021263D01*
G01X242916Y-2020686D01*
G01X242628Y-2020022D01*
G01X242224Y-2019416D01*
G01X241704Y-2018867D01*
G01X240434Y-2017886D01*
G01X239914Y-2017337D01*
G01X239511Y-2016731D01*
G01X238933Y-2015403D01*
G01X238529Y-2014797D01*
G01X238009Y-2014249D01*
G01X237021Y-2013505D01*
G01X235874Y-2012488D01*
G01X235037Y-2011593D01*
G01X234142Y-2010526D01*
G01X233305Y-2009429D01*
G01X232641Y-2008447D01*
G01X232150Y-2007581D01*
G01X231833Y-2006831D01*
G01X231739Y-2006477D01*
G01X231688Y-2006109D01*
G01X231681Y-2005727D01*
G01X231717Y-2005330D01*
G01X231919Y-2004493D01*
G01X233103Y-2001866D01*
G01X233680Y-2000366D01*
G01X234142Y-1998518D01*
G01X234834Y-1994246D01*
G01X235296Y-1991937D01*
G01X235534Y-1991104D01*
G01X235648Y-1989790D01*
G01X235989Y-1940329D01*
G01X235636Y-1889212D01*
G01X235527Y-1887682D01*
G01X235066Y-1884449D01*
G01X226291Y-1884449D01*
G01X222250Y-1884478D01*
G01X216246Y-1884709D01*
G01X214284Y-1884911D01*
G01X212783Y-1885142D01*
G01X210474Y-1885604D01*
G01X208164Y-1886181D01*
G01X205956Y-1886311D01*
G01X204354Y-1886527D01*
G01X203142Y-1886816D01*
G01X201814Y-1887220D01*
G01X200544Y-1887537D01*
G01X199506Y-1887566D01*
G01X198697Y-1887307D01*
G01X198120Y-1886758D01*
G01X197629Y-1886094D01*
G01X196475Y-1884940D01*
G01X194541Y-1883410D01*
G01X193011Y-1881476D01*
G01X191857Y-1880322D01*
G01X190587Y-1879340D01*
G01X190154Y-1878792D01*
G01X189894Y-1878186D01*
G01X189807Y-1877522D01*
G01X190073Y-1877235D01*
G01X190868Y-1876982D01*
G01X192924Y-1876677D01*
G01X196437Y-1876421D01*
G01X211974Y-1876136D01*
G01X234142Y-1876136D01*
G01X235527Y-1873827D01*
G01X236797Y-1871864D01*
G01X238269Y-1870104D01*
G01X238644Y-1869556D01*
G01X238962Y-1868949D01*
G01X239511Y-1867651D01*
G01X239914Y-1867131D01*
G01X240434Y-1866727D01*
G01X241069Y-1866438D01*
G01X241733Y-1866265D01*
G01X242339Y-1866207D01*
G01X242888Y-1866265D01*
G01X243378Y-1866438D01*
G01X244302Y-1867016D01*
G01X245478Y-1868062D01*
G01X246921Y-1869159D01*
G01X250421Y-1871403D01*
G01X251143Y-1871951D01*
G01X251943Y-1872680D01*
G01X253387Y-1873777D01*
G01X257117Y-1876136D01*
G01X259080Y-1877522D01*
G01X259831Y-1878214D01*
G01X260234Y-1878907D01*
G01X260292Y-1879600D01*
G01X260004Y-1880293D01*
G01X258964Y-1881563D01*
G01X257694Y-1882602D01*
G01X255876Y-1883987D01*
G01X254346Y-1885373D01*
G01X253055Y-1886314D01*
G01X252909Y-1886605D01*
G01X252809Y-1886994D01*
G01X252571Y-1888710D01*
G01X252288Y-1892770D01*
G01X251691Y-1937558D01*
G01X251909Y-1983635D01*
G01X252097Y-1988918D01*
G01X252153Y-1989282D01*
G01X252290Y-1989585D01*
G01X252470Y-1989801D01*
G01X252694Y-1989931D01*
G01X252961Y-1989974D01*
G01X253271Y-1989931D01*
G01X253625Y-1989801D01*
G01X254022Y-1989585D01*
G01X254462Y-1989282D01*
G01X259715Y-1985183D01*
G01X262977Y-1982816D01*
G01X265113Y-1980969D01*
G01X266931Y-1979584D01*
G01X268749Y-1978198D01*
G01X270279Y-1976813D01*
G01X274782Y-1973580D01*
G01X280035Y-1969481D01*
G01X282633Y-1967576D01*
G01X284451Y-1966191D01*
G01X285981Y-1964806D01*
G01X287915Y-1963420D01*
G01X290051Y-1961573D01*
G01X291869Y-1960187D01*
G01X292223Y-1959985D01*
G01X292591Y-1959841D01*
G01X292973Y-1959754D01*
G01X293370Y-1959726D01*
G01X293781Y-1959754D01*
G01X294207Y-1959841D01*
G01X294647Y-1959985D01*
G01X295102Y-1960187D01*
G01X295881Y-1960678D01*
G01X296372Y-1961226D01*
G01X296574Y-1961832D01*
G01X296487Y-1962496D01*
G01X296228Y-1963189D01*
G01X295535Y-1964574D01*
G01X294611Y-1965931D01*
G01X293457Y-1967086D01*
G01X291523Y-1968616D01*
G01X289993Y-1970549D01*
G01X288838Y-1971704D01*
G01X286904Y-1973234D01*
G01X285375Y-1975167D01*
G01X284220Y-1976322D01*
G01X282286Y-1977852D01*
G01X280757Y-1979786D01*
G01X279602Y-1980940D01*
G01X278585Y-1981683D01*
G01X277437Y-1982701D01*
G01X276600Y-1983596D01*
G01X273974Y-1986742D01*
G01X272473Y-1988358D01*
G01X270164Y-1990667D01*
G01X269240Y-1991706D01*
G01X267826Y-1993640D01*
G01X266671Y-1994795D01*
G01X265343Y-1995805D01*
G01X264737Y-1996440D01*
G01X264189Y-1997191D01*
G01X263208Y-1998922D01*
G01X262659Y-1999673D01*
G01X262053Y-2000308D01*
G01X261389Y-2000827D01*
G01X260725Y-2001347D01*
G01X260119Y-2001982D01*
G01X259571Y-2002732D01*
G01X258589Y-2004464D01*
G01X258041Y-2005214D01*
G01X257435Y-2005849D01*
G01X256771Y-2006369D01*
G01X255501Y-2007408D01*
G01X254462Y-2008678D01*
G01X252153Y-2012373D01*
G01X250883Y-2014336D01*
G01X250334Y-2015057D01*
G01X249382Y-2016154D01*
G01X248920Y-2016876D01*
G01X247996Y-2018838D01*
G01X247477Y-2019877D01*
G01X247174Y-2020310D01*
G01X246842Y-2020686D01*
G01X246481Y-2021003D01*
G01X246091Y-2021263D01*
G01X245673Y-2021465D01*
G37*
G36*
G01X-939800Y-2005907D02*
G01X-940637Y-2006023D01*
G01X-941301Y-2005907D01*
G01X-941792Y-2005561D01*
G01X-942109Y-2004984D01*
G01X-942282Y-2004291D01*
G01X-942340Y-2003598D01*
G01X-942282Y-2002906D01*
G01X-942081Y-2002116D01*
G01X-942001Y-2001708D01*
G01X-941810Y-1999410D01*
G01X-941647Y-1989282D01*
G01X-941467Y-1978819D01*
G01X-941294Y-1976856D01*
G01X-941171Y-1976302D01*
G01X-940994Y-1974382D01*
G01X-940724Y-1949566D01*
G01X-940839Y-1930169D01*
G01X-941077Y-1923502D01*
G01X-941186Y-1922780D01*
G01X-941445Y-1922261D01*
G01X-941763Y-1922087D01*
G01X-942138Y-1922261D01*
G01X-942571Y-1922780D01*
G01X-942802Y-1923141D01*
G01X-943726Y-1924873D01*
G01X-945342Y-1928553D01*
G01X-946496Y-1930530D01*
G01X-947420Y-1932262D01*
G01X-948603Y-1935018D01*
G01X-949448Y-1936750D01*
G01X-950422Y-1938482D01*
G01X-953193Y-1943100D01*
G01X-954463Y-1945063D01*
G01X-955733Y-1946585D01*
G01X-956194Y-1947220D01*
G01X-956887Y-1948497D01*
G01X-957869Y-1950720D01*
G01X-958504Y-1951874D01*
G01X-959254Y-1953029D01*
G01X-960986Y-1955281D01*
G01X-963411Y-1958629D01*
G01X-966499Y-1962669D01*
G01X-967163Y-1963651D01*
G01X-967653Y-1964517D01*
G01X-968259Y-1965931D01*
G01X-968664Y-1966537D01*
G01X-969183Y-1967086D01*
G01X-969818Y-1967576D01*
G01X-970482Y-1968096D01*
G01X-971088Y-1968731D01*
G01X-971637Y-1969481D01*
G01X-972618Y-1971213D01*
G01X-973166Y-1971964D01*
G01X-973772Y-1972599D01*
G01X-974790Y-1973371D01*
G01X-975937Y-1974388D01*
G01X-976774Y-1975283D01*
G01X-978535Y-1977448D01*
G01X-980440Y-1980046D01*
G01X-981479Y-1981316D01*
G01X-983413Y-1982845D01*
G01X-984567Y-1984000D01*
G01X-985549Y-1985212D01*
G01X-986097Y-1985472D01*
G01X-986703Y-1985443D01*
G01X-987367Y-1985126D01*
G01X-987677Y-1984873D01*
G01X-987916Y-1984577D01*
G01X-988082Y-1984238D01*
G01X-988176Y-1983856D01*
G01X-988197Y-1983430D01*
G01X-988147Y-1982961D01*
G01X-988024Y-1982448D01*
G01X-987338Y-1980767D01*
G01X-986790Y-1979699D01*
G01X-986184Y-1978689D01*
G01X-984481Y-1976286D01*
G01X-982749Y-1973580D01*
G01X-978131Y-1966191D01*
G01X-975360Y-1961573D01*
G01X-974206Y-1959494D01*
G01X-973253Y-1957214D01*
G01X-972936Y-1956608D01*
G01X-972560Y-1956060D01*
G01X-971896Y-1955317D01*
G01X-971434Y-1954682D01*
G01X-970742Y-1953404D01*
G01X-969587Y-1950669D01*
G01X-967624Y-1946448D01*
G01X-966917Y-1944586D01*
G01X-966109Y-1942855D01*
G01X-964536Y-1940069D01*
G01X-963930Y-1938828D01*
G01X-963382Y-1937529D01*
G01X-962891Y-1936173D01*
G01X-961736Y-1933070D01*
G01X-960236Y-1929707D01*
G01X-959398Y-1926965D01*
G01X-958706Y-1925349D01*
G01X-958049Y-1924266D01*
G01X-957645Y-1923458D01*
G01X-957147Y-1922029D01*
G01X-956627Y-1919836D01*
G01X-956310Y-1918854D01*
G01X-955935Y-1917989D01*
G01X-955098Y-1916517D01*
G01X-954809Y-1915737D01*
G01X-954636Y-1914900D01*
G01X-954521Y-1913111D01*
G01X-954347Y-1912274D01*
G01X-954059Y-1911494D01*
G01X-953251Y-1910051D01*
G01X-952962Y-1909272D01*
G01X-952789Y-1908435D01*
G01X-952673Y-1906645D01*
G01X-952500Y-1905808D01*
G01X-952211Y-1905029D01*
G01X-951403Y-1903586D01*
G01X-951114Y-1902806D01*
G01X-950941Y-1901969D01*
G01X-950826Y-1900151D01*
G01X-950653Y-1899227D01*
G01X-950364Y-1898304D01*
G01X-949527Y-1896399D01*
G01X-949152Y-1895302D01*
G01X-948834Y-1894089D01*
G01X-948574Y-1892762D01*
G01X-948113Y-1889991D01*
G01X-960120Y-1889991D01*
G01X-969587Y-1890222D01*
G01X-972416Y-1890511D01*
G01X-973354Y-1890698D01*
G01X-974458Y-1891131D01*
G01X-975555Y-1891477D01*
G01X-977525Y-1891781D01*
G01X-979054Y-1891838D01*
G01X-980527Y-1891752D01*
G01X-981710Y-1891492D01*
G01X-982605Y-1891059D01*
G01X-983211Y-1890453D01*
G01X-983702Y-1889789D01*
G01X-984856Y-1888634D01*
G01X-985866Y-1887891D01*
G01X-986559Y-1887256D01*
G01X-987598Y-1885979D01*
G01X-988291Y-1884911D01*
G01X-989676Y-1882602D01*
G01X-967509Y-1882602D01*
G01X-953676Y-1882537D01*
G01X-943920Y-1882248D01*
G01X-943033Y-1882140D01*
G01X-940724Y-1881678D01*
G01X-940724Y-1851660D01*
G01X-940752Y-1838441D01*
G01X-941077Y-1821050D01*
G01X-941186Y-1820256D01*
G01X-941268Y-1819883D01*
G01X-941448Y-1817776D01*
G01X-941647Y-1804554D01*
G01X-941828Y-1791710D01*
G01X-942001Y-1789401D01*
G01X-942217Y-1788492D01*
G01X-942456Y-1787236D01*
G01X-942571Y-1785158D01*
G01X-942513Y-1784090D01*
G01X-942340Y-1783196D01*
G01X-942051Y-1782474D01*
G01X-941647Y-1781926D01*
G01X-941402Y-1781723D01*
G01X-941128Y-1781579D01*
G01X-940825Y-1781492D01*
G01X-940493Y-1781464D01*
G01X-940132Y-1781492D01*
G01X-939742Y-1781579D01*
G01X-939324Y-1781723D01*
G01X-937144Y-1782734D01*
G01X-935283Y-1783441D01*
G01X-933551Y-1784249D01*
G01X-930282Y-1786132D01*
G01X-926061Y-1788391D01*
G01X-924199Y-1789546D01*
G01X-922467Y-1790469D01*
G01X-919797Y-1791624D01*
G01X-918181Y-1792547D01*
G01X-917633Y-1793009D01*
G01X-917445Y-1793247D01*
G01X-917344Y-1793500D01*
G01X-917330Y-1793767D01*
G01X-917402Y-1794048D01*
G01X-917561Y-1794344D01*
G01X-917806Y-1794654D01*
G01X-919422Y-1796011D01*
G01X-920808Y-1797396D01*
G01X-921818Y-1798753D01*
G01X-922972Y-1799907D01*
G01X-923658Y-1800415D01*
G01X-923824Y-1800713D01*
G01X-923961Y-1801214D01*
G01X-924242Y-1803198D01*
G01X-924546Y-1807577D01*
G01X-925022Y-1839653D01*
G01X-924804Y-1875332D01*
G01X-924616Y-1879863D01*
G01X-924098Y-1882602D01*
G01X-914862Y-1882602D01*
G01X-906022Y-1882421D01*
G01X-904002Y-1882248D01*
G01X-902248Y-1881880D01*
G01X-901354Y-1881563D01*
G01X-900632Y-1881187D01*
G01X-900084Y-1880754D01*
G01X-899044Y-1879831D01*
G01X-897111Y-1878417D01*
G01X-895956Y-1877262D01*
G01X-894426Y-1875328D01*
G01X-893156Y-1874289D01*
G01X-892002Y-1873366D01*
G01X-891598Y-1872904D01*
G01X-891309Y-1872442D01*
G01X-890732Y-1871864D01*
G01X-889924Y-1871980D01*
G01X-887153Y-1873366D01*
G01X-886287Y-1873856D01*
G01X-885536Y-1874404D01*
G01X-884901Y-1875011D01*
G01X-884382Y-1875674D01*
G01X-883343Y-1876944D01*
G01X-881409Y-1878474D01*
G01X-880254Y-1879629D01*
G01X-878724Y-1881563D01*
G01X-876791Y-1883092D01*
G01X-875636Y-1884247D01*
G01X-874106Y-1886181D01*
G01X-872836Y-1887220D01*
G01X-871913Y-1888144D01*
G01X-871913Y-1889067D01*
G01X-872143Y-1889206D01*
G01X-872432Y-1889284D01*
G01X-873760Y-1889471D01*
G01X-876556Y-1889665D01*
G01X-898698Y-1889991D01*
G01X-925022Y-1889991D01*
G01X-925007Y-1896861D01*
G01X-924892Y-1899169D01*
G01X-924661Y-1901017D01*
G01X-924315Y-1902402D01*
G01X-924098Y-1902922D01*
G01X-923579Y-1903788D01*
G01X-922944Y-1904538D01*
G01X-922193Y-1905173D01*
G01X-920404Y-1906183D01*
G01X-919018Y-1907028D01*
G01X-916182Y-1909041D01*
G01X-913476Y-1910773D01*
G01X-903894Y-1916776D01*
G01X-901931Y-1918162D01*
G01X-895581Y-1923011D01*
G01X-894571Y-1923646D01*
G01X-892752Y-1924656D01*
G01X-892002Y-1925204D01*
G01X-891367Y-1925811D01*
G01X-890847Y-1926474D01*
G01X-889808Y-1927744D01*
G01X-887874Y-1929274D01*
G01X-886720Y-1930429D01*
G01X-885190Y-1932363D01*
G01X-883920Y-1933402D01*
G01X-883256Y-1933950D01*
G01X-882650Y-1934672D01*
G01X-882102Y-1935567D01*
G01X-880687Y-1938713D01*
G01X-879547Y-1940712D01*
G01X-879201Y-1941693D01*
G01X-878970Y-1942963D01*
G01X-878840Y-1945409D01*
G01X-878898Y-1947199D01*
G01X-879071Y-1948873D01*
G01X-879359Y-1950431D01*
G01X-879994Y-1952560D01*
G01X-881611Y-1956954D01*
G01X-882073Y-1958022D01*
G01X-882996Y-1959639D01*
G01X-883920Y-1960678D01*
G01X-885306Y-1962496D01*
G01X-885825Y-1963045D01*
G01X-886460Y-1963304D01*
G01X-887211Y-1963276D01*
G01X-888076Y-1962958D01*
G01X-888942Y-1962439D01*
G01X-889693Y-1961804D01*
G01X-890328Y-1961053D01*
G01X-891771Y-1958456D01*
G01X-893127Y-1956233D01*
G01X-893820Y-1954617D01*
G01X-894657Y-1951759D01*
G01X-895466Y-1949566D01*
G01X-896389Y-1947487D01*
G01X-896851Y-1946621D01*
G01X-898236Y-1944370D01*
G01X-900084Y-1940906D01*
G01X-901007Y-1939406D01*
G01X-904702Y-1933517D01*
G01X-906087Y-1931554D01*
G01X-909320Y-1927398D01*
G01X-913881Y-1921683D01*
G01X-915786Y-1919086D01*
G01X-916824Y-1917816D01*
G01X-918758Y-1916286D01*
G01X-919913Y-1915131D01*
G01X-920923Y-1913832D01*
G01X-921558Y-1913313D01*
G01X-922309Y-1912909D01*
G01X-923174Y-1912620D01*
G01X-925022Y-1912158D01*
G01X-925022Y-1943100D01*
G01X-924993Y-1956724D01*
G01X-924668Y-1974619D01*
G01X-924560Y-1975427D01*
G01X-924452Y-1975925D01*
G01X-924261Y-1978154D01*
G01X-924098Y-1987896D01*
G01X-924098Y-1998980D01*
G01X-926407Y-2000366D01*
G01X-927591Y-2001029D01*
G01X-928832Y-2001636D01*
G01X-930131Y-2002184D01*
G01X-931487Y-2002674D01*
G01X-934590Y-2003829D01*
G01X-937953Y-2005330D01*
G01X-939800Y-2005907D01*
G37*
G36*
G01X-159587Y-1973876D02*
G01X-159904Y-1974071D01*
G01X-160280Y-1974164D01*
G01X-160713Y-1974157D01*
G01X-161203Y-1974049D01*
G01X-161752Y-1973840D01*
G01X-163022Y-1973118D01*
G01X-163693Y-1972649D01*
G01X-164905Y-1971668D01*
G01X-165446Y-1971156D01*
G01X-166399Y-1970087D01*
G01X-168448Y-1966999D01*
G01X-169718Y-1965477D01*
G01X-170180Y-1964842D01*
G01X-170873Y-1963564D01*
G01X-171825Y-1961342D01*
G01X-172669Y-1959610D01*
G01X-173644Y-1957878D01*
G01X-177916Y-1950951D01*
G01X-180484Y-1947545D01*
G01X-181148Y-1946564D01*
G01X-181639Y-1945698D01*
G01X-182245Y-1944283D01*
G01X-182649Y-1943677D01*
G01X-183169Y-1943129D01*
G01X-184150Y-1942385D01*
G01X-184843Y-1941750D01*
G01X-185882Y-1940473D01*
G01X-187267Y-1938337D01*
G01X-187960Y-1937443D01*
G01X-188653Y-1936721D01*
G01X-189346Y-1936173D01*
G01X-190009Y-1935653D01*
G01X-190616Y-1935018D01*
G01X-191164Y-1934268D01*
G01X-192145Y-1932536D01*
G01X-192694Y-1931786D01*
G01X-193300Y-1931151D01*
G01X-194317Y-1930378D01*
G01X-195464Y-1929361D01*
G01X-196302Y-1928466D01*
G01X-198813Y-1925436D01*
G01X-200429Y-1923675D01*
G01X-201814Y-1921856D01*
G01X-202854Y-1920586D01*
G01X-204787Y-1919057D01*
G01X-205942Y-1917902D01*
G01X-207472Y-1915968D01*
G01X-209406Y-1914438D01*
G01X-210560Y-1913284D01*
G01X-212090Y-1911350D01*
G01X-214024Y-1909820D01*
G01X-215178Y-1908666D01*
G01X-216708Y-1906732D01*
G01X-218642Y-1905202D01*
G01X-219797Y-1904047D01*
G01X-220540Y-1903030D01*
G01X-221557Y-1901883D01*
G01X-222452Y-1901046D01*
G01X-224588Y-1899314D01*
G01X-226204Y-1898159D01*
G01X-227214Y-1897553D01*
G01X-227676Y-1897149D01*
G01X-228138Y-1896629D01*
G01X-229091Y-1895331D01*
G01X-230245Y-1894176D01*
G01X-232179Y-1892646D01*
G01X-233709Y-1890712D01*
G01X-234863Y-1889558D01*
G01X-236191Y-1888606D01*
G01X-238327Y-1886758D01*
G01X-240146Y-1885373D01*
G01X-241416Y-1884334D01*
G01X-242945Y-1882400D01*
G01X-244100Y-1881245D01*
G01X-245312Y-1880264D01*
G01X-245572Y-1879716D01*
G01X-245543Y-1879109D01*
G01X-245226Y-1878446D01*
G01X-244302Y-1877291D01*
G01X-243840Y-1876887D01*
G01X-243378Y-1876598D01*
G01X-242887Y-1876454D01*
G01X-242339Y-1876483D01*
G01X-241733Y-1876685D01*
G01X-241069Y-1877060D01*
G01X-235181Y-1880754D01*
G01X-231768Y-1883179D01*
G01X-226868Y-1886296D01*
G01X-223455Y-1888721D01*
G01X-218556Y-1891838D01*
G01X-213360Y-1895533D01*
G01X-207356Y-1899343D01*
G01X-203951Y-1901912D01*
G01X-202969Y-1902576D01*
G01X-202103Y-1903066D01*
G01X-200689Y-1903672D01*
G01X-200083Y-1904076D01*
G01X-199534Y-1904596D01*
G01X-198524Y-1905866D01*
G01X-197889Y-1906386D01*
G01X-197139Y-1906789D01*
G01X-195407Y-1907367D01*
G01X-194656Y-1907771D01*
G01X-194021Y-1908291D01*
G01X-193249Y-1909272D01*
G01X-192614Y-1909964D01*
G01X-191337Y-1911004D01*
G01X-188076Y-1913082D01*
G01X-186113Y-1914467D01*
G01X-182216Y-1917238D01*
G01X-180080Y-1919086D01*
G01X-178262Y-1920471D01*
G01X-176443Y-1921856D01*
G01X-174914Y-1923242D01*
G01X-172893Y-1924685D01*
G01X-168881Y-1927773D01*
G01X-167265Y-1928928D01*
G01X-166254Y-1929534D01*
G01X-165793Y-1929938D01*
G01X-164869Y-1931093D01*
G01X-163830Y-1932363D01*
G01X-161896Y-1933892D01*
G01X-160742Y-1935047D01*
G01X-159789Y-1936375D01*
G01X-158173Y-1938272D01*
G01X-157711Y-1938907D01*
G01X-157018Y-1940185D01*
G01X-155633Y-1943331D01*
G01X-154709Y-1944947D01*
G01X-153901Y-1946448D01*
G01X-153064Y-1949075D01*
G01X-152371Y-1950691D01*
G01X-151534Y-1952134D01*
G01X-151246Y-1952914D01*
G01X-151072Y-1953751D01*
G01X-151043Y-1955540D01*
G01X-151274Y-1957157D01*
G01X-151938Y-1959494D01*
G01X-152660Y-1962669D01*
G01X-152977Y-1963651D01*
G01X-153352Y-1964517D01*
G01X-154218Y-1965989D01*
G01X-154911Y-1967605D01*
G01X-155459Y-1969366D01*
G01X-155864Y-1970116D01*
G01X-156383Y-1970751D01*
G01X-157682Y-1971762D01*
G01X-158837Y-1972916D01*
G01X-159587Y-1973876D01*
G37*
G36*
G01X-14374Y-1919721D02*
G01X-15240Y-1920009D01*
G01X-16106Y-1920153D01*
G01X-16856Y-1920124D01*
G01X-17491Y-1919922D01*
G01X-18011Y-1919547D01*
G01X-18213Y-1919302D01*
G01X-18357Y-1919028D01*
G01X-18444Y-1918725D01*
G01X-18473Y-1918393D01*
G01X-18444Y-1918032D01*
G01X-18357Y-1917642D01*
G01X-18213Y-1917224D01*
G01X-17520Y-1915911D01*
G01X-16972Y-1915160D01*
G01X-16366Y-1914525D01*
G01X-15702Y-1914006D01*
G01X-14432Y-1912966D01*
G01X-12902Y-1911032D01*
G01X-11747Y-1909878D01*
G01X-10362Y-1908868D01*
G01X-9171Y-1907872D01*
G01X-7851Y-1906616D01*
G01X-6350Y-1905000D01*
G01X-5859Y-1904365D01*
G01X-5253Y-1903384D01*
G01X-4849Y-1902922D01*
G01X-3694Y-1901998D01*
G01X-2424Y-1900959D01*
G01X-1386Y-1899689D01*
G01X0Y-1897871D01*
G01X1386Y-1896341D01*
G01X5657Y-1890388D01*
G01X8659Y-1885719D01*
G01X9929Y-1884189D01*
G01X10391Y-1883497D01*
G01X11084Y-1882024D01*
G01X12469Y-1878330D01*
G01X13826Y-1875877D01*
G01X14518Y-1874260D01*
G01X15356Y-1871403D01*
G01X17549Y-1865514D01*
G01X18011Y-1863783D01*
G01X18733Y-1859973D01*
G01X19230Y-1857894D01*
G01X20291Y-1854402D01*
G01X20832Y-1852172D01*
G01X21474Y-1848312D01*
G01X21936Y-1846003D01*
G01X22276Y-1844827D01*
G01X22514Y-1843463D01*
G01X22658Y-1839739D01*
G01X22889Y-1837661D01*
G01X23105Y-1836833D01*
G01X23293Y-1834832D01*
G01X23553Y-1812406D01*
G01X23747Y-1798399D01*
G01X24094Y-1792742D01*
G01X24332Y-1791017D01*
G01X24613Y-1790029D01*
G01X24938Y-1789776D01*
G01X25299Y-1789906D01*
G01X27031Y-1790714D01*
G01X28633Y-1791624D01*
G01X33828Y-1794856D01*
G01X36513Y-1796271D01*
G01X39794Y-1798132D01*
G01X40207Y-1798297D01*
G01X40956Y-1798488D01*
G01X43519Y-1798849D01*
G01X47746Y-1799150D01*
G01X65578Y-1799474D01*
G01X82121Y-1799298D01*
G01X88958Y-1798955D01*
G01X91068Y-1798663D01*
G01X91440Y-1798551D01*
G01X92566Y-1798002D01*
G01X93634Y-1797281D01*
G01X94644Y-1796386D01*
G01X96462Y-1794221D01*
G01X98367Y-1791624D01*
G01X98887Y-1790989D01*
G01X99522Y-1790469D01*
G01X100272Y-1790065D01*
G01X101138Y-1789776D01*
G01X102004Y-1789661D01*
G01X102754Y-1789776D01*
G01X103389Y-1790123D01*
G01X104400Y-1791335D01*
G01X104948Y-1791854D01*
G01X105554Y-1792259D01*
G01X106882Y-1792836D01*
G01X107488Y-1793240D01*
G01X108037Y-1793759D01*
G01X109018Y-1795029D01*
G01X109566Y-1795549D01*
G01X110173Y-1795953D01*
G01X111500Y-1796531D01*
G01X112106Y-1796934D01*
G01X112655Y-1797454D01*
G01X113398Y-1798436D01*
G01X114033Y-1799128D01*
G01X115310Y-1800167D01*
G01X116378Y-1800860D01*
G01X118687Y-1802246D01*
G01X115945Y-1804959D01*
G01X114329Y-1806344D01*
G01X112568Y-1807621D01*
G01X110836Y-1809173D01*
G01X110628Y-1809541D01*
G01X110437Y-1810215D01*
G01X110106Y-1812474D01*
G01X109797Y-1816793D01*
G01X109451Y-1836882D01*
G01X109756Y-1865024D01*
G01X109913Y-1867362D01*
G01X110324Y-1870089D01*
G01X110670Y-1871475D01*
G01X111074Y-1872514D01*
G01X111298Y-1872904D01*
G01X113215Y-1875760D01*
G01X113428Y-1875922D01*
G01X113738Y-1876074D01*
G01X114651Y-1876344D01*
G01X116751Y-1876669D01*
G01X119728Y-1876896D01*
G01X127462Y-1877060D01*
G01X139512Y-1876880D01*
G01X141706Y-1876706D01*
G01X142240Y-1876598D01*
G01X145934Y-1875213D01*
G01X148013Y-1874289D01*
G01X148879Y-1873827D01*
G01X150351Y-1872961D01*
G01X151130Y-1872673D01*
G01X151967Y-1872499D01*
G01X152862Y-1872442D01*
G01X153786Y-1872499D01*
G01X154709Y-1872673D01*
G01X155633Y-1872961D01*
G01X156556Y-1873366D01*
G01X157451Y-1873914D01*
G01X158288Y-1874636D01*
G01X159068Y-1875530D01*
G01X160763Y-1878265D01*
G01X162098Y-1880754D01*
G01X162560Y-1881707D01*
G01X163946Y-1884911D01*
G01X164126Y-1885481D01*
G01X164205Y-1886037D01*
G01X164184Y-1886578D01*
G01X164061Y-1887104D01*
G01X163837Y-1887617D01*
G01X163513Y-1888115D01*
G01X163087Y-1888598D01*
G01X162560Y-1889067D01*
G01X162050Y-1889345D01*
G01X161427Y-1889550D01*
G01X159606Y-1889918D01*
G01X157386Y-1890193D01*
G01X152218Y-1890561D01*
G01X133466Y-1890914D01*
G01X116818Y-1890785D01*
G01X107055Y-1890395D01*
G01X104755Y-1890103D01*
G01X104371Y-1889991D01*
G01X103216Y-1889471D01*
G01X102062Y-1888836D01*
G01X100907Y-1888086D01*
G01X99753Y-1887220D01*
G01X98656Y-1886296D01*
G01X97674Y-1885373D01*
G01X96809Y-1884449D01*
G01X95394Y-1882602D01*
G01X94507Y-1881216D01*
G01X93749Y-1879831D01*
G01X93637Y-1879468D01*
G01X93459Y-1878200D01*
G01X93252Y-1875189D01*
G01X92826Y-1842424D01*
G01X92826Y-1806864D01*
G01X42026Y-1806864D01*
G01X42026Y-1814253D01*
G01X41910Y-1820141D01*
G01X41766Y-1821959D01*
G01X41564Y-1823027D01*
G01X41362Y-1823864D01*
G01X41167Y-1825661D01*
G01X41073Y-1829926D01*
G01X40921Y-1832545D01*
G01X40640Y-1835034D01*
G01X40409Y-1836536D01*
G01X39947Y-1838844D01*
G01X39370Y-1841154D01*
G01X39226Y-1843780D01*
G01X38995Y-1845397D01*
G01X38331Y-1847734D01*
G01X37407Y-1851891D01*
G01X36946Y-1853507D01*
G01X35560Y-1858126D01*
G01X34867Y-1860355D01*
G01X34174Y-1862195D01*
G01X32789Y-1865284D01*
G01X31634Y-1868509D01*
G01X30018Y-1872904D01*
G01X29528Y-1874029D01*
G01X28979Y-1875097D01*
G01X28373Y-1876107D01*
G01X27074Y-1877955D01*
G01X26151Y-1879571D01*
G01X25732Y-1880646D01*
G01X25169Y-1881794D01*
G01X22976Y-1884976D01*
G01X19974Y-1889644D01*
G01X18112Y-1891802D01*
G01X16164Y-1894147D01*
G01X15298Y-1895244D01*
G01X13393Y-1897842D01*
G01X12354Y-1899112D01*
G01X10420Y-1900642D01*
G01X9265Y-1901796D01*
G01X8284Y-1903095D01*
G01X7736Y-1903614D01*
G01X7129Y-1904019D01*
G01X5802Y-1904596D01*
G01X5196Y-1905000D01*
G01X4647Y-1905519D01*
G01X3666Y-1906818D01*
G01X2511Y-1907973D01*
G01X1183Y-1908926D01*
G01X-952Y-1910773D01*
G01X-2771Y-1912158D01*
G01X-7389Y-1915376D01*
G01X-8313Y-1915838D01*
G01X-9236Y-1916185D01*
G01X-10564Y-1916603D01*
G01X-11314Y-1917007D01*
G01X-11949Y-1917527D01*
G01X-12989Y-1918797D01*
G01X-13624Y-1919316D01*
G01X-14374Y-1919721D01*
G37*
G36*
G01X-914862Y-1871980D02*
G01X-916363Y-1872211D01*
G01X-917171Y-1871980D01*
G01X-917344Y-1871662D01*
G01X-917402Y-1871172D01*
G01X-917344Y-1870508D01*
G01X-916594Y-1867708D01*
G01X-915786Y-1865514D01*
G01X-915093Y-1863848D01*
G01X-913476Y-1860406D01*
G01X-911860Y-1856617D01*
G01X-910244Y-1852122D01*
G01X-909089Y-1849019D01*
G01X-907963Y-1846580D01*
G01X-907271Y-1844733D01*
G01X-906434Y-1841846D01*
G01X-904240Y-1835958D01*
G01X-902854Y-1831340D01*
G01X-901007Y-1824874D01*
G01X-899622Y-1820256D01*
G01X-899160Y-1818409D01*
G01X-898698Y-1815638D01*
G01X-898409Y-1814253D01*
G01X-898006Y-1813329D01*
G01X-897486Y-1812867D01*
G01X-896851Y-1812867D01*
G01X-896158Y-1813127D01*
G01X-894773Y-1813820D01*
G01X-893329Y-1814772D01*
G01X-890386Y-1817024D01*
G01X-887499Y-1819152D01*
G01X-883804Y-1821526D01*
G01X-882044Y-1822998D01*
G01X-881496Y-1823374D01*
G01X-880889Y-1823691D01*
G01X-879562Y-1824239D01*
G01X-878956Y-1824644D01*
G01X-878407Y-1825163D01*
G01X-877916Y-1825798D01*
G01X-877736Y-1826144D01*
G01X-877657Y-1826491D01*
G01X-877678Y-1826837D01*
G01X-877801Y-1827184D01*
G01X-878025Y-1827530D01*
G01X-878349Y-1827876D01*
G01X-878775Y-1828223D01*
G01X-882996Y-1830878D01*
G01X-886114Y-1832978D01*
G01X-886806Y-1833613D01*
G01X-887846Y-1834890D01*
G01X-890039Y-1838267D01*
G01X-891771Y-1840576D01*
G01X-893900Y-1843463D01*
G01X-896504Y-1847504D01*
G01X-898236Y-1849813D01*
G01X-900365Y-1852699D01*
G01X-902970Y-1856740D01*
G01X-904702Y-1859049D01*
G01X-905568Y-1860146D01*
G01X-907473Y-1862744D01*
G01X-910446Y-1866900D01*
G01X-911333Y-1868286D01*
G01X-912091Y-1869671D01*
G01X-912611Y-1870508D01*
G01X-913246Y-1871172D01*
G01X-913996Y-1871662D01*
G01X-914862Y-1871980D01*
G37*
G36*
G01X-959651Y-1867448D02*
G01X-960091Y-1867477D01*
G01X-960517Y-1867448D01*
G01X-960928Y-1867362D01*
G01X-961325Y-1867217D01*
G01X-961707Y-1867016D01*
G01X-962076Y-1866756D01*
G01X-962429Y-1866438D01*
G01X-963064Y-1865688D01*
G01X-963584Y-1864822D01*
G01X-963988Y-1863841D01*
G01X-964536Y-1861618D01*
G01X-965229Y-1859540D01*
G01X-966095Y-1857606D01*
G01X-966470Y-1856509D01*
G01X-966787Y-1855297D01*
G01X-967307Y-1852641D01*
G01X-967624Y-1851429D01*
G01X-968000Y-1850332D01*
G01X-969356Y-1847273D01*
G01X-970280Y-1844733D01*
G01X-971434Y-1841630D01*
G01X-972589Y-1839162D01*
G01X-974898Y-1833880D01*
G01X-976053Y-1831903D01*
G01X-976976Y-1830171D01*
G01X-978160Y-1827443D01*
G01X-978708Y-1826376D01*
G01X-979314Y-1825365D01*
G01X-980584Y-1823460D01*
G01X-981017Y-1822450D01*
G01X-981277Y-1821382D01*
G01X-981364Y-1820256D01*
G01X-981277Y-1819275D01*
G01X-981017Y-1818640D01*
G01X-980584Y-1818351D01*
G01X-979978Y-1818409D01*
G01X-977207Y-1819333D01*
G01X-976543Y-1819621D01*
G01X-975937Y-1820026D01*
G01X-975389Y-1820545D01*
G01X-974407Y-1821815D01*
G01X-973859Y-1822334D01*
G01X-973253Y-1822739D01*
G01X-971925Y-1823316D01*
G01X-971319Y-1823720D01*
G01X-970771Y-1824239D01*
G01X-969789Y-1825538D01*
G01X-968635Y-1826693D01*
G01X-967307Y-1827646D01*
G01X-965171Y-1829493D01*
G01X-963353Y-1830878D01*
G01X-962083Y-1831917D01*
G01X-960553Y-1833851D01*
G01X-959398Y-1835006D01*
G01X-958381Y-1835749D01*
G01X-957234Y-1836766D01*
G01X-956397Y-1837661D01*
G01X-955502Y-1838729D01*
G01X-953886Y-1840923D01*
G01X-952731Y-1842886D01*
G01X-950884Y-1846580D01*
G01X-950674Y-1847049D01*
G01X-950386Y-1848030D01*
G01X-950270Y-1849069D01*
G01X-950328Y-1850166D01*
G01X-950884Y-1852814D01*
G01X-951576Y-1855152D01*
G01X-952399Y-1858126D01*
G01X-952745Y-1859049D01*
G01X-953481Y-1860434D01*
G01X-954780Y-1862282D01*
G01X-955668Y-1863667D01*
G01X-956426Y-1865053D01*
G01X-956945Y-1865890D01*
G01X-957580Y-1866554D01*
G01X-958331Y-1867044D01*
G01X-959196Y-1867362D01*
G01X-959651Y-1867448D01*
G37*
G36*
G01X246120Y-1837286D02*
G01X245226Y-1837344D01*
G01X244771Y-1837315D01*
G01X244331Y-1837228D01*
G01X243905Y-1837084D01*
G01X243494Y-1836882D01*
G01X243097Y-1836622D01*
G01X242714Y-1836304D01*
G01X241993Y-1835496D01*
G01X241329Y-1834573D01*
G01X240441Y-1833187D01*
G01X239684Y-1831802D01*
G01X239251Y-1830849D01*
G01X238558Y-1828771D01*
G01X237721Y-1825452D01*
G01X236480Y-1822537D01*
G01X235787Y-1820458D01*
G01X235268Y-1818236D01*
G01X234950Y-1817254D01*
G01X234575Y-1816389D01*
G01X233911Y-1815277D01*
G01X232987Y-1813546D01*
G01X231804Y-1810789D01*
G01X230960Y-1809057D01*
G01X229986Y-1807326D01*
G01X226753Y-1802130D01*
G01X225367Y-1799532D01*
G01X224444Y-1798147D01*
G01X223744Y-1797375D01*
G01X222647Y-1795932D01*
G01X220403Y-1792432D01*
G01X219854Y-1791710D01*
G01X219162Y-1790916D01*
G01X219017Y-1790642D01*
G01X218931Y-1790339D01*
G01X218902Y-1790007D01*
G01X218931Y-1789646D01*
G01X219017Y-1789257D01*
G01X219162Y-1788838D01*
G01X219826Y-1787583D01*
G01X220287Y-1787006D01*
G01X220749Y-1786659D01*
G01X221211Y-1786544D01*
G01X221702Y-1786601D01*
G01X222250Y-1786774D01*
G01X222856Y-1787063D01*
G01X225021Y-1788391D01*
G01X227705Y-1789805D01*
G01X230909Y-1791624D01*
G01X240492Y-1797627D01*
G01X243378Y-1799677D01*
G01X244764Y-1800564D01*
G01X247015Y-1801812D01*
G01X247766Y-1802361D01*
G01X248401Y-1802967D01*
G01X249411Y-1804295D01*
G01X250565Y-1805449D01*
G01X251583Y-1806192D01*
G01X252730Y-1807210D01*
G01X253567Y-1808105D01*
G01X254462Y-1809173D01*
G01X255299Y-1810298D01*
G01X256230Y-1811879D01*
G01X256634Y-1812860D01*
G01X257348Y-1815176D01*
G01X258366Y-1817493D01*
G01X258654Y-1818474D01*
G01X258770Y-1819513D01*
G01X258712Y-1820610D01*
G01X258041Y-1823604D01*
G01X257233Y-1826260D01*
G01X256771Y-1827530D01*
G01X256309Y-1828569D01*
G01X255847Y-1829377D01*
G01X254924Y-1830445D01*
G01X253538Y-1832264D01*
G01X252499Y-1833534D01*
G01X251229Y-1834573D01*
G01X248458Y-1836420D01*
G01X247737Y-1836824D01*
G01X246957Y-1837113D01*
G01X246120Y-1837286D01*
G37*
G04 Text End*

G04 PolygonModel Start*
G54D11*
G01X-1771276Y533400D02*
G01X-1562100Y533400D01*
G01X-1771276Y-495300D02*
G01X-1562100Y-495300D01*

M02*

