G04 Layer: TopLayer*
G04 EasyEDA Pro v2.2.20.11, 2024-05-07 19:23:25*
G04 Gerber Generator version 0.3*
G04 Scale: 100 percent, Rotated: No, Reflected: No*
G04 Dimensions in millimeters*
G04 Leading zeros omitted, absolute positions, 3 integers and 5 decimals*
%FSLAX35Y35*%
%MOMM*%
%ADD8191C,0.2032*%
%ADD10C,0.254*%
%ADD11C,1.2*%
%ADD12C,0.15*%
%ADD13C,3.0*%
%ADD14C,2.032*%
%ADD15C,0.4586*%
%ADD16C,0.45*%
G75*


G04 Copper Start*
G36*
G01X-2052815Y-681384D02*
G02X-2081698Y-588378I135303J93006D01*
G01X-2081698Y-588375D01*
G01X-2081759Y-586287D01*
G01X-2081759Y-461777D01*
G01X-2055801Y-461777D01*
G01X-2027066Y-490512D01*
G01X-2027066Y-490512D01*
G01X-2022159Y-495418D01*
G03X-2065289Y-614448I142684J-119030D01*
G03X-2052815Y-681384I185814J0D01*
G37*
G36*
G01X-2081698Y509870D02*
G01X-2081698Y647584D01*
G01X-2081698Y647587D01*
G02X-2043432Y752948I164186J-0D01*
G03X-2065264Y665559I163982J-87389D01*
G03X-2020570Y544679I185814J0D01*
G01X-2055379Y509870D01*
G01X-2081698Y509870D01*
G37*
G36*
G01X1166114Y-2709415D02*
G01X1166114Y-2703518D01*
G01X1166114Y-2703518D01*
G03X1130300Y-2667704I-35814J0D01*
G01X1130300Y-2667704D01*
G01X-1832099Y-2667704D01*
G03X-1727456Y-2534255I-32771J133449D01*
G03X-1747276Y-2463163I-137414J0D01*
G01X-1747276Y-2463163D01*
G03X-1864951Y-2396706I-117676J-70958D01*
G03X-2002365Y-2534120I0J-137414D01*
G03X-1982546Y-2605213I137414J0D01*
G03X-1897641Y-2667704I117676J70958D01*
G01X-1902740Y-2667704D01*
G01X-1902744Y-2667704D01*
G02X-2066907Y-2506222I0J164186D01*
G01X-2066907Y-2506222D01*
G03X-2066805Y-2503518I-35712J2704D01*
G01X-2066805Y-2503518D01*
G01X-2066805Y-1415593D01*
G01X-2066805Y-1415593D01*
G01X-2066805Y-1267529D01*
G01X-2066805Y-1267529D01*
G03X-2066907Y-1264828I-35814J0D01*
G01X-2066907Y-1264828D01*
G02X-1902744Y-1103361I164163J-2718D01*
G01X-1902742Y-1103361D01*
G01X1219200Y-1103361D01*
G01X1219200Y-1103361D01*
G03X1253222Y-1078735I0J35814D01*
G01X1387366Y-1078735D01*
G03X1422400Y-1107118I35034J7432D01*
G01X1422400Y-1107118D01*
G01X1766329Y-1107118D01*
G01X1766332Y-1107118D01*
G02X1930517Y-1271303I-0J-164186D01*
G01X1930517Y-1271306D01*
G01X1930517Y-1444834D01*
G01X1930517Y-1444834D01*
G01X1930517Y-2344852D01*
G01X1930517Y-2344852D01*
G01X1930578Y-2346941D01*
G01X1930578Y-2505176D01*
G01X1930517Y-2507265D01*
G01X1930517Y-2507268D01*
G02X1766332Y-2671453I-164186J0D01*
G01X1766329Y-2671453D01*
G01X1371600Y-2671453D01*
G01X1371600Y-2671453D01*
G03X1335786Y-2707267I0J-35814D01*
G01X1335786Y-2707267D01*
G01X1335786Y-2709415D01*
G01X1166114Y-2709415D01*
G37*
%LPC*%
G36*
G01X1132740Y-2616624D02*
G03X1168554Y-2580811I0J35814D01*
G01X1168554Y-2580810D01*
G01X1168554Y-1203790D01*
G01X1168554Y-1203789D01*
G03X1132740Y-1167976I-35814J-1D01*
G01X1132740Y-1167976D01*
G01X-1691530Y-1167976D01*
G01X-1691530Y-1167976D01*
G03X-1727344Y-1203790I0J-35814D01*
G01X-1727344Y-1203790D01*
G01X-1727344Y-2580810D01*
G01X-1727344Y-2580810D01*
G03X-1691530Y-2616624I35814J0D01*
G01X-1691530Y-2616624D01*
G01X1132740Y-2616624D01*
G01X1132740Y-2616624D01*
G37*
G36*
G01X1618493Y-2090483D02*
G03X1689307Y-2161297I70814J0D01*
G03X1739380Y-2140556I0J70814D01*
G01X1739380Y-2140556D01*
G01X1859588Y-2020348D01*
G01X1859588Y-2020348D01*
G03X1880329Y-1970275I-50073J50073D01*
G03X1858840Y-1919465I-70814J0D01*
G03X1864299Y-1898414I-37855J21050D01*
G03X1860202Y-1880027I-43314J0D01*
G03X1880329Y-1830575I-50687J49451D01*
G03X1809515Y-1759761I-70814J0D01*
G01X1809515Y-1759761D01*
G01X1480466Y-1759761D01*
G03X1500537Y-1710367I-50743J49394D01*
G03X1429723Y-1639553I-70814J0D01*
G03X1379650Y-1660294I0J-70814D01*
G01X1379650Y-1660294D01*
G01X1259442Y-1780502D01*
G01X1259442Y-1780502D01*
G03X1238701Y-1830575I50073J-50073D01*
G03X1260733Y-1881907I70814J0D01*
G03X1257464Y-1898414I40045J-16507D01*
G03X1262020Y-1917751I43314J0D01*
G03X1238701Y-1970275I47495J-52525D01*
G03X1309515Y-2041089I70814J0D01*
G01X1309515Y-2041089D01*
G01X1638564Y-2041089D01*
G03X1618493Y-2090483I50743J-49394D01*
G37*
G36*
G01X-2002259Y-1254247D02*
G03X-1864845Y-1391661I137414J0D01*
G03X-1764760Y-1348404I0J137414D01*
G03X-1727390Y-1254204I-100045J94200D01*
G03X-1864804Y-1116790I-137414J0D01*
G03X-1964889Y-1160047I0J-137414D01*
G03X-2002259Y-1254247I100045J-94200D01*
G37*
G36*
G01X1590978Y-1266033D02*
G03X1728392Y-1403447I137414J0D01*
G03X1841641Y-1343862I0J137414D01*
G01X1841641Y-1343862D01*
G03X1865834Y-1265992I-113221J77869D01*
G03X1728420Y-1128578I-137414J0D01*
G03X1615171Y-1188164I0J-137414D01*
G03X1590978Y-1266033I113221J-77869D01*
G37*
G36*
G01X1652187Y-2636792D02*
G03X1728430Y-2659883I76243J114323D01*
G03X1865844Y-2522469I0J137414D01*
G03X1804634Y-2408121I-137414J0D01*
G03X1728392Y-2385030I-76243J-114323D01*
G03X1590978Y-2522444I0J-137414D01*
G03X1652187Y-2636792I137414J0D01*
G01X1652187Y-2636792D01*
G37*
%LPD*%
G36*
G01X-1222373Y-751889D02*
G01X-1755038Y-752442D01*
G03X-1693662Y-614448I-124437J137994D01*
G03X-1735501Y-496982I-185814J0D01*
G01X-1735462Y-495300D01*
G01X-1735462Y-495300D01*
G01X-1735462Y533400D01*
G01X-1735462Y533400D01*
G03X-1737587Y545553I-35814J0D01*
G01X-1737587Y545553D01*
G03X-1693636Y665559I-141863J120007D01*
G03X-1764965Y811915I-185814J0D01*
G01X1589546Y815515D01*
G03X1542155Y748546I124241J-138170D01*
G03X1516170Y759714I-25985J-24646D01*
G01X1516170Y759714D01*
G01X-1308100Y759714D01*
G01X-1308100Y759714D01*
G03X-1343914Y723900I0J-35814D01*
G01X-1343914Y723900D01*
G01X-1343914Y569214D01*
G01X-1562100Y569214D01*
G01X-1562100Y569214D01*
G03X-1597914Y533400I0J-35814D01*
G01X-1597914Y533400D01*
G01X-1597914Y-495300D01*
G01X-1597914Y-495300D01*
G03X-1562100Y-531114I35814J0D01*
G01X-1562100Y-531114D01*
G01X-1343914Y-531114D01*
G01X-1343914Y-653120D01*
G01X-1343914Y-653120D01*
G03X-1308100Y-688934I35814J0D01*
G01X-1308100Y-688934D01*
G01X-1231437Y-688934D01*
G03X-1233259Y-707532I93992J-18598D01*
G03X-1222373Y-751889I95814J0D01*
G37*
G36*
G01X1882917Y493314D02*
G01X1837515Y538716D01*
G03X1899600Y677345I-123729J138629D01*
G03X1887398Y743571I-185814J0D01*
G02X1915727Y654061I-135834J-92228D01*
G01X1915727Y654061D01*
G03X1915625Y651361I35712J-2700D01*
G01X1915625Y651361D01*
G01X1915625Y503296D01*
G01X1915625Y503296D01*
G01X1915711Y500811D01*
G01X1915711Y493314D01*
G01X1882917Y493314D01*
G37*
G36*
G01X1915740Y-586072D02*
G02X1878328Y-688968I-164179J1446D01*
G03X1899600Y-602637I-164541J86330D01*
G03X1840907Y-467112I-185814J0D01*
G01X1882917Y-425102D01*
G01X1915711Y-425102D01*
G01X1915711Y-584626D01*
G01X1915711Y-584626D01*
G01X1915740Y-586072D01*
G01X1915740Y-586072D01*
G37*
G54D8191*
G01X-2052815Y-681384D02*
G02X-2081698Y-588378I135303J93006D01*
G01X-2081698Y-588375D01*
G01X-2081759Y-586287D01*
G01X-2081759Y-461777D01*
G01X-2055801Y-461777D01*
G01X-2027066Y-490512D01*
G01X-2027066Y-490512D01*
G01X-2022159Y-495418D01*
G03X-2065289Y-614448I142684J-119030D01*
G03X-2052815Y-681384I185814J0D01*
G01X-2081698Y509870D02*
G01X-2081698Y647584D01*
G01X-2081698Y647587D01*
G02X-2043432Y752948I164186J-0D01*
G03X-2065264Y665559I163982J-87389D01*
G03X-2020570Y544679I185814J0D01*
G01X-2055379Y509870D01*
G01X-2081698Y509870D01*
G01X1166114Y-2709415D02*
G01X1166114Y-2703518D01*
G01X1166114Y-2703518D01*
G03X1130300Y-2667704I-35814J0D01*
G01X1130300Y-2667704D01*
G01X-1832099Y-2667704D01*
G03X-1727456Y-2534255I-32771J133449D01*
G03X-1747276Y-2463163I-137414J0D01*
G01X-1747276Y-2463163D01*
G03X-1864951Y-2396706I-117676J-70958D01*
G03X-2002365Y-2534120I0J-137414D01*
G03X-1982546Y-2605213I137414J0D01*
G03X-1897641Y-2667704I117676J70958D01*
G01X-1902740Y-2667704D01*
G01X-1902744Y-2667704D01*
G02X-2066907Y-2506222I0J164186D01*
G01X-2066907Y-2506222D01*
G03X-2066805Y-2503518I-35712J2704D01*
G01X-2066805Y-2503518D01*
G01X-2066805Y-1415593D01*
G01X-2066805Y-1415593D01*
G01X-2066805Y-1267529D01*
G01X-2066805Y-1267529D01*
G03X-2066907Y-1264828I-35814J0D01*
G01X-2066907Y-1264828D01*
G02X-1902744Y-1103361I164163J-2718D01*
G01X-1902742Y-1103361D01*
G01X1219200Y-1103361D01*
G01X1219200Y-1103361D01*
G03X1253222Y-1078735I0J35814D01*
G01X1387366Y-1078735D01*
G03X1422400Y-1107118I35034J7432D01*
G01X1422400Y-1107118D01*
G01X1766329Y-1107118D01*
G01X1766332Y-1107118D01*
G02X1930517Y-1271303I-0J-164186D01*
G01X1930517Y-1271306D01*
G01X1930517Y-1444834D01*
G01X1930517Y-1444834D01*
G01X1930517Y-2344852D01*
G01X1930517Y-2344852D01*
G01X1930578Y-2346941D01*
G01X1930578Y-2505176D01*
G01X1930517Y-2507265D01*
G01X1930517Y-2507268D01*
G02X1766332Y-2671453I-164186J0D01*
G01X1766329Y-2671453D01*
G01X1371600Y-2671453D01*
G01X1371600Y-2671453D01*
G03X1335786Y-2707267I0J-35814D01*
G01X1335786Y-2707267D01*
G01X1335786Y-2709415D01*
G01X1166114Y-2709415D01*
G01X1132740Y-2616624D02*
G03X1168554Y-2580811I0J35814D01*
G01X1168554Y-2580810D01*
G01X1168554Y-1203790D01*
G01X1168554Y-1203789D01*
G03X1132740Y-1167976I-35814J-1D01*
G01X1132740Y-1167976D01*
G01X-1691530Y-1167976D01*
G01X-1691530Y-1167976D01*
G03X-1727344Y-1203790I0J-35814D01*
G01X-1727344Y-1203790D01*
G01X-1727344Y-2580810D01*
G01X-1727344Y-2580810D01*
G03X-1691530Y-2616624I35814J0D01*
G01X-1691530Y-2616624D01*
G01X1132740Y-2616624D01*
G01X1132740Y-2616624D01*
G01X1618493Y-2090483D02*
G03X1689307Y-2161297I70814J0D01*
G03X1739380Y-2140556I0J70814D01*
G01X1739380Y-2140556D01*
G01X1859588Y-2020348D01*
G01X1859588Y-2020348D01*
G03X1880329Y-1970275I-50073J50073D01*
G03X1858840Y-1919465I-70814J0D01*
G03X1864299Y-1898414I-37855J21050D01*
G03X1860202Y-1880027I-43314J0D01*
G03X1880329Y-1830575I-50687J49451D01*
G03X1809515Y-1759761I-70814J0D01*
G01X1809515Y-1759761D01*
G01X1480466Y-1759761D01*
G03X1500537Y-1710367I-50743J49394D01*
G03X1429723Y-1639553I-70814J0D01*
G03X1379650Y-1660294I0J-70814D01*
G01X1379650Y-1660294D01*
G01X1259442Y-1780502D01*
G01X1259442Y-1780502D01*
G03X1238701Y-1830575I50073J-50073D01*
G03X1260733Y-1881907I70814J0D01*
G03X1257464Y-1898414I40045J-16507D01*
G03X1262020Y-1917751I43314J0D01*
G03X1238701Y-1970275I47495J-52525D01*
G03X1309515Y-2041089I70814J0D01*
G01X1309515Y-2041089D01*
G01X1638564Y-2041089D01*
G03X1618493Y-2090483I50743J-49394D01*
G01X-2002259Y-1254247D02*
G03X-1864845Y-1391661I137414J0D01*
G03X-1764760Y-1348404I0J137414D01*
G03X-1727390Y-1254204I-100045J94200D01*
G03X-1864804Y-1116790I-137414J0D01*
G03X-1964889Y-1160047I0J-137414D01*
G03X-2002259Y-1254247I100045J-94200D01*
G01X1590978Y-1266033D02*
G03X1728392Y-1403447I137414J0D01*
G03X1841641Y-1343862I0J137414D01*
G01X1841641Y-1343862D01*
G03X1865834Y-1265992I-113221J77869D01*
G03X1728420Y-1128578I-137414J0D01*
G03X1615171Y-1188164I0J-137414D01*
G03X1590978Y-1266033I113221J-77869D01*
G01X1652187Y-2636792D02*
G03X1728430Y-2659883I76243J114323D01*
G03X1865844Y-2522469I0J137414D01*
G03X1804634Y-2408121I-137414J0D01*
G03X1728392Y-2385030I-76243J-114323D01*
G03X1590978Y-2522444I0J-137414D01*
G03X1652187Y-2636792I137414J0D01*
G01X1652187Y-2636792D01*
G01X-1222373Y-751889D02*
G01X-1755038Y-752442D01*
G03X-1693662Y-614448I-124437J137994D01*
G03X-1735501Y-496982I-185814J0D01*
G01X-1735462Y-495300D01*
G01X-1735462Y-495300D01*
G01X-1735462Y533400D01*
G01X-1735462Y533400D01*
G03X-1737587Y545553I-35814J0D01*
G01X-1737587Y545553D01*
G03X-1693636Y665559I-141863J120007D01*
G03X-1764965Y811915I-185814J0D01*
G01X1589546Y815515D01*
G03X1542155Y748546I124241J-138170D01*
G03X1516170Y759714I-25985J-24646D01*
G01X1516170Y759714D01*
G01X-1308100Y759714D01*
G01X-1308100Y759714D01*
G03X-1343914Y723900I0J-35814D01*
G01X-1343914Y723900D01*
G01X-1343914Y569214D01*
G01X-1562100Y569214D01*
G01X-1562100Y569214D01*
G03X-1597914Y533400I0J-35814D01*
G01X-1597914Y533400D01*
G01X-1597914Y-495300D01*
G01X-1597914Y-495300D01*
G03X-1562100Y-531114I35814J0D01*
G01X-1562100Y-531114D01*
G01X-1343914Y-531114D01*
G01X-1343914Y-653120D01*
G01X-1343914Y-653120D01*
G03X-1308100Y-688934I35814J0D01*
G01X-1308100Y-688934D01*
G01X-1231437Y-688934D01*
G03X-1233259Y-707532I93992J-18598D01*
G03X-1222373Y-751889I95814J0D01*
G01X1882917Y493314D02*
G01X1837515Y538716D01*
G03X1899600Y677345I-123729J138629D01*
G03X1887398Y743571I-185814J0D01*
G02X1915727Y654061I-135834J-92228D01*
G01X1915727Y654061D01*
G03X1915625Y651361I35712J-2700D01*
G01X1915625Y651361D01*
G01X1915625Y503296D01*
G01X1915625Y503296D01*
G01X1915711Y500811D01*
G01X1915711Y493314D01*
G01X1882917Y493314D01*
G01X1915740Y-586072D02*
G02X1878328Y-688968I-164179J1446D01*
G03X1899600Y-602637I-164541J86330D01*
G03X1840907Y-467112I-185814J0D01*
G01X1882917Y-425102D01*
G01X1915711Y-425102D01*
G01X1915711Y-584626D01*
G01X1915711Y-584626D01*
G01X1915740Y-586072D01*
G01X1915740Y-586072D01*
G54D10*
G01X-1879476Y-614448D02*
G01X-2055383Y-614448D01*
G01X-1879476Y-614448D02*
G01X-1703568Y-614448D01*
G01X-1879450Y665559D02*
G01X-2055358Y665559D01*
G01X-1879450Y665559D02*
G01X-1703542Y665559D01*
G01X1713786Y-602637D02*
G01X1889694Y-602637D01*
G01X1713786Y677345D02*
G01X1889694Y677345D01*
G01X1728392Y-1266033D02*
G01X1728392Y-1138525D01*
G01X1728392Y-1266033D02*
G01X1728392Y-1393541D01*
G01X1728392Y-1266033D02*
G01X1600884Y-1266033D01*
G01X1728392Y-1266033D02*
G01X1855900Y-1266033D01*
G01X1728392Y-2522444D02*
G01X1728392Y-2394936D01*
G01X1728392Y-2522444D02*
G01X1728392Y-2649952D01*
G01X1728392Y-2522444D02*
G01X1600884Y-2522444D01*
G01X1728392Y-2522444D02*
G01X1855900Y-2522444D01*
G01X-1864845Y-1254247D02*
G01X-1864845Y-1381755D01*
G01X-1864845Y-1254247D02*
G01X-1864845Y-1126739D01*
G01X-1864845Y-1254247D02*
G01X-1737337Y-1254247D01*
G01X-1864845Y-1254247D02*
G01X-1992353Y-1254247D01*
G01X-1864870Y-2534255D02*
G01X-1864870Y-2406747D01*
G01X-1864870Y-2534255D02*
G01X-1737362Y-2534255D01*
G01X-1864870Y-2534255D02*
G01X-1992378Y-2534255D01*
G04 Copper End*

G04 PolygonModel Start*
G54D11*
G01X-1137445Y-707532D02*
G01X1165443Y-707532D01*
G54D12*
G01X1300778Y-1898414D02*
G01X1820985Y-1898414D01*

G04 Pad Start*
G54D13*
G01X-1879476Y-614448D03*
G01X1713786Y677345D03*
G01X1713786Y-602637D03*
G01X-1879450Y665559D03*
G54D14*
G01X-1864870Y-2534255D03*
G01X-1864845Y-1254247D03*
G01X1728392Y-2522444D03*
G01X1728392Y-1266033D03*
G04 Pad End*

G04 Via Start*
G54D16*
G01X-1137445Y-707532D03*
G01X750913Y-707532D03*
G01X953971Y-707532D03*
G01X886258Y-707532D03*
G01X1088852Y-707532D03*
G01X818866Y-707532D03*
G01X1021363Y-707532D03*
G01X1156244Y-707532D03*
G01X-1070053Y-707532D03*
G01X-530754Y-707532D03*
G01X-935172Y-707532D03*
G01X-260857Y-707532D03*
G01X-1002661Y-707532D03*
G01X-395409Y-707532D03*
G01X-732435Y-707532D03*
G01X-193465Y-707532D03*
G01X-867780Y-707532D03*
G01X-463362Y-707532D03*
G01X-665635Y-707532D03*
G01X-125976Y-707532D03*
G01X-799827Y-707532D03*
G01X-328017Y-707532D03*
G01X-598243Y-707532D03*
G01X616032Y-707532D03*
G01X548640Y-707532D03*
G01X683521Y-707532D03*
G01X-58584Y-707532D03*
G01X413983Y-707532D03*
G01X143757Y-707532D03*
G01X76761Y-707532D03*
G01X278638Y-707532D03*
G01X9369Y-707532D03*
G01X481375Y-707532D03*
G01X211149Y-707532D03*
G01X346030Y-707532D03*
G01X-1739900Y-800100D03*
G01X-1676400Y-800100D03*
G01X-1612900Y-800100D03*
G01X-1549400Y-800100D03*
G01X-1485900Y-800100D03*
G01X-1422400Y-800100D03*
G01X-1358900Y-800100D03*
G01X-1368050Y-1061055D03*
G01X-1749050Y-1061055D03*
G01X-1685550Y-1061055D03*
G01X-1622050Y-1061055D03*
G01X-1558550Y-1061055D03*
G01X-1495050Y-1061055D03*
G01X-1431550Y-1061055D03*
G01X1165574Y-788380D03*
G01X784574Y-788380D03*
G01X848074Y-788380D03*
G01X911574Y-788380D03*
G01X975074Y-788380D03*
G01X1038574Y-788380D03*
G01X1102074Y-788380D03*
G01X1161078Y-1068575D03*
G01X780078Y-1068575D03*
G01X843578Y-1068575D03*
G01X907078Y-1068575D03*
G01X970578Y-1068575D03*
G01X1034078Y-1068575D03*
G01X1097578Y-1068575D03*
G01X1225970Y-1068575D03*
G01X1289470Y-1068575D03*
G01X1352970Y-1068575D03*
G01X1229074Y-788380D03*
G01X1292574Y-788380D03*
G01X1356074Y-788380D03*
G01X-1686211Y-2719575D03*
G01X-1622711Y-2719575D03*
G01X-1559211Y-2719575D03*
G01X-1495711Y-2719575D03*
G01X-1494712Y-3002942D03*
G01X-1558212Y-3002942D03*
G01X-1621712Y-3002942D03*
G01X-1685212Y-3002942D03*
G01X755834Y-2716899D03*
G01X819334Y-2716899D03*
G01X882834Y-2716899D03*
G01X1009834Y-2716899D03*
G01X946334Y-2716899D03*
G01X1073334Y-2716899D03*
G01X1136834Y-2716899D03*
G01X1200334Y-2716899D03*
G01X1263834Y-2716899D03*
G01X1327334Y-2716899D03*
G01X749668Y-2994797D03*
G01X813168Y-2994797D03*
G01X876668Y-2994797D03*
G01X1003668Y-2994797D03*
G01X940168Y-2994797D03*
G01X1067168Y-2994797D03*
G01X1130668Y-2994797D03*
G01X1194168Y-2994797D03*
G01X1257668Y-2994797D03*
G01X1321168Y-2994797D03*
G04 Via End*

G04 Track Start*
G54D12*
G01X-1137445Y-711016D02*
G01X-1137445Y-707532D01*
G01X-1145185Y-718757D02*
G03X-1137445Y-711016I-0J7740D01*
G04 Track End*

M02*

