G04 Layer: DrillDrawingLayer*
G04 EasyEDA Pro v2.2.20.11, 2024-05-07 19:23:25*
G04 Gerber Generator version 0.3*
G04 Scale: 100 percent, Rotated: No, Reflected: No*
G04 Dimensions in millimeters*
G04 Leading zeros omitted, absolute positions, 3 integers and 5 decimals*
%FSLAX35Y35*%
%MOMM*%
%AMIconRect*4,1,4,0.2,-0.2,-0.2,-0.2,-0.2,0.2,0.2,0.2,0.2,-0.2,0*4,0,4,0.166667,-0.166667,0.166667,0.166667,-0.166667,0.166667,-0.166667,-0.166667,0.166667,-0.166667,0*%
%AMIconTriangle*4,1,3,-0.242567,0.171767,0.242567,0.171767,0,-0.2706,-0.242567,0.171767,0*4,0,3,-0.189767,0.1386,0,-0.1953,0.190167,0.1386,-0.189767,0.1386,0*%
%ADD10IconRect*%
%ADD11C,0.44X0.373333*%
%ADD12IconTriangle*%
G75*


G04 Drill Drawing Start*
G54D10*
G01X-1879557Y-614314D03*
G01X-1879478Y665600D03*
G01X-1864951Y-2534120D03*
G01X-1864804Y-1254204D03*
G01X1713746Y677388D03*
G01X1713824Y-602663D03*
G01X1728420Y-1265992D03*
G01X1728430Y-2522469D03*
G54D11*
G01X-1137445Y-707532D03*
G01X-1070053Y-707532D03*
G01X-1002661Y-707532D03*
G01X-935172Y-707532D03*
G01X-867780Y-707532D03*
G01X-799827Y-707532D03*
G01X-732435Y-707532D03*
G01X-665635Y-707532D03*
G01X-598243Y-707532D03*
G01X-530754Y-707532D03*
G01X-463362Y-707532D03*
G01X-395409Y-707532D03*
G01X-328017Y-707532D03*
G01X-260857Y-707532D03*
G01X-193465Y-707532D03*
G01X-125976Y-707532D03*
G01X-58584Y-707532D03*
G01X9369Y-707532D03*
G01X76761Y-707532D03*
G01X143757Y-707532D03*
G01X211149Y-707532D03*
G01X278638Y-707532D03*
G01X346030Y-707532D03*
G01X413983Y-707532D03*
G01X481375Y-707532D03*
G01X548640Y-707532D03*
G01X616032Y-707532D03*
G01X683521Y-707532D03*
G01X750913Y-707532D03*
G01X818866Y-707532D03*
G01X886258Y-707532D03*
G01X953971Y-707532D03*
G01X1021363Y-707532D03*
G01X1088852Y-707532D03*
G01X1156244Y-707532D03*
G54D12*
G01X-1749050Y-1061055D03*
G01X-1739900Y-800100D03*
G01X-1686211Y-2719575D03*
G01X-1685550Y-1061055D03*
G01X-1685212Y-3002942D03*
G01X-1676400Y-800100D03*
G01X-1622711Y-2719575D03*
G01X-1622050Y-1061055D03*
G01X-1621712Y-3002942D03*
G01X-1612900Y-800100D03*
G01X-1559211Y-2719575D03*
G01X-1558550Y-1061055D03*
G01X-1558212Y-3002942D03*
G01X-1549400Y-800100D03*
G01X-1495711Y-2719575D03*
G01X-1495050Y-1061055D03*
G01X-1494712Y-3002942D03*
G01X-1485900Y-800100D03*
G01X-1431550Y-1061055D03*
G01X-1422400Y-800100D03*
G01X-1368050Y-1061055D03*
G01X-1358900Y-800100D03*
G01X749668Y-2994797D03*
G01X755834Y-2716899D03*
G01X780078Y-1068575D03*
G01X784574Y-788380D03*
G01X813168Y-2994797D03*
G01X819334Y-2716899D03*
G01X843578Y-1068575D03*
G01X848074Y-788380D03*
G01X876668Y-2994797D03*
G01X882834Y-2716899D03*
G01X907078Y-1068575D03*
G01X911574Y-788380D03*
G01X940168Y-2994797D03*
G01X946334Y-2716899D03*
G01X970578Y-1068575D03*
G01X975074Y-788380D03*
G01X1003668Y-2994797D03*
G01X1009834Y-2716899D03*
G01X1034078Y-1068575D03*
G01X1038574Y-788380D03*
G01X1067168Y-2994797D03*
G01X1073334Y-2716899D03*
G01X1097578Y-1068575D03*
G01X1102074Y-788380D03*
G01X1130668Y-2994797D03*
G01X1136834Y-2716899D03*
G01X1161078Y-1068575D03*
G01X1165574Y-788380D03*
G01X1194168Y-2994797D03*
G01X1200334Y-2716899D03*
G01X1225970Y-1068575D03*
G01X1229074Y-788380D03*
G01X1257668Y-2994797D03*
G01X1263834Y-2716899D03*
G01X1289470Y-1068575D03*
G01X1292574Y-788380D03*
G01X1321168Y-2994797D03*
G01X1327334Y-2716899D03*
G01X1352970Y-1068575D03*
G01X1356074Y-788380D03*
G04 Drill Drawing End*

M02*

