G04 Layer: TopSolderMaskLayer*
G04 EasyEDA Pro v2.2.20.11, 2024-05-07 19:23:25*
G04 Gerber Generator version 0.3*
G04 Scale: 100 percent, Rotated: No, Reflected: No*
G04 Dimensions in millimeters*
G04 Leading zeros omitted, absolute positions, 3 integers and 5 decimals*
%FSLAX35Y35*%
%MOMM*%
%ADD10C,1.2*%
%ADD11C,0.7*%
%ADD12C,1.0*%
%ADD13C,3.1016*%
%ADD14C,2.1336*%
G75*


G04 Text Start*
G36*
G01X-193733Y-3704244D02*
G01X-154940Y-3704244D01*
G01X-154940Y-3922222D01*
G01X-182649Y-3922222D01*
G01X-182649Y-3834014D01*
G01X-183055Y-3744934D01*
G01X-183111Y-3744422D01*
G01X-183371Y-3743902D01*
G01X-183688Y-3743729D01*
G01X-184063Y-3743902D01*
G01X-184496Y-3744422D01*
G01X-184720Y-3744783D01*
G01X-185124Y-3745591D01*
G01X-185622Y-3747019D01*
G01X-186142Y-3749242D01*
G01X-186834Y-3751320D01*
G01X-187700Y-3753196D01*
G01X-188393Y-3755044D01*
G01X-189230Y-3757814D01*
G01X-190038Y-3759662D01*
G01X-190846Y-3761624D01*
G01X-191683Y-3764944D01*
G01X-192376Y-3767022D01*
G01X-193617Y-3769937D01*
G01X-194454Y-3773257D01*
G01X-195147Y-3775335D01*
G01X-196504Y-3778366D01*
G01X-197427Y-3780906D01*
G01X-202969Y-3797531D01*
G01X-204124Y-3800634D01*
G01X-205624Y-3804112D01*
G01X-206462Y-3807431D01*
G01X-207154Y-3809509D01*
G01X-208396Y-3812424D01*
G01X-209232Y-3815744D01*
G01X-209925Y-3817822D01*
G01X-210791Y-3819698D01*
G01X-211484Y-3821546D01*
G01X-212321Y-3824316D01*
G01X-213129Y-3826164D01*
G01X-213937Y-3828126D01*
G01X-214774Y-3831446D01*
G01X-215467Y-3833524D01*
G01X-216708Y-3836439D01*
G01X-217545Y-3839758D01*
G01X-218238Y-3841837D01*
G01X-219594Y-3844867D01*
G01X-220518Y-3847407D01*
G01X-226060Y-3864033D01*
G01X-227214Y-3867136D01*
G01X-228716Y-3870614D01*
G01X-229552Y-3873933D01*
G01X-230245Y-3876011D01*
G01X-231486Y-3878926D01*
G01X-232323Y-3882246D01*
G01X-233016Y-3884324D01*
G01X-233882Y-3886200D01*
G01X-234575Y-3888047D01*
G01X-235412Y-3890818D01*
G01X-236220Y-3892666D01*
G01X-237028Y-3894628D01*
G01X-237865Y-3897947D01*
G01X-238558Y-3900026D01*
G01X-239799Y-3902941D01*
G01X-240636Y-3906260D01*
G01X-241329Y-3908338D01*
G01X-242686Y-3911369D01*
G01X-243609Y-3913909D01*
G01X-246380Y-3922222D01*
G01X-258849Y-3922222D01*
G01X-266577Y-3922027D01*
G01X-269926Y-3921680D01*
G01X-271058Y-3921442D01*
G01X-271831Y-3921161D01*
G01X-272242Y-3920836D01*
G01X-272473Y-3920468D01*
G01X-273396Y-3918563D01*
G01X-274089Y-3916680D01*
G01X-275244Y-3913577D01*
G01X-276744Y-3910099D01*
G01X-277582Y-3906780D01*
G01X-278274Y-3904702D01*
G01X-279516Y-3901786D01*
G01X-280352Y-3898467D01*
G01X-281045Y-3896389D01*
G01X-282286Y-3893474D01*
G01X-283123Y-3890154D01*
G01X-283816Y-3888076D01*
G01X-285057Y-3885161D01*
G01X-285894Y-3881842D01*
G01X-286587Y-3879763D01*
G01X-287828Y-3876848D01*
G01X-288665Y-3873529D01*
G01X-289358Y-3871451D01*
G01X-290224Y-3869574D01*
G01X-290917Y-3867727D01*
G01X-291754Y-3864956D01*
G01X-292562Y-3863109D01*
G01X-293370Y-3861146D01*
G01X-294207Y-3857827D01*
G01X-294900Y-3855749D01*
G01X-296141Y-3852834D01*
G01X-296978Y-3849514D01*
G01X-297671Y-3847436D01*
G01X-298912Y-3844521D01*
G01X-299749Y-3841202D01*
G01X-300442Y-3839123D01*
G01X-301683Y-3836208D01*
G01X-302520Y-3832889D01*
G01X-303212Y-3830811D01*
G01X-304454Y-3827896D01*
G01X-305291Y-3824576D01*
G01X-305983Y-3822498D01*
G01X-306849Y-3820622D01*
G01X-307542Y-3818774D01*
G01X-308379Y-3816004D01*
G01X-309187Y-3814156D01*
G01X-309996Y-3812194D01*
G01X-310832Y-3808874D01*
G01X-311525Y-3806796D01*
G01X-312766Y-3803881D01*
G01X-313603Y-3800562D01*
G01X-314296Y-3798483D01*
G01X-315537Y-3795568D01*
G01X-316374Y-3792249D01*
G01X-317067Y-3790171D01*
G01X-318308Y-3787256D01*
G01X-319145Y-3783936D01*
G01X-319838Y-3781858D01*
G01X-321079Y-3778943D01*
G01X-321916Y-3775623D01*
G01X-322609Y-3773545D01*
G01X-323475Y-3771669D01*
G01X-324167Y-3769822D01*
G01X-325004Y-3767051D01*
G01X-326246Y-3764251D01*
G01X-326938Y-3762173D01*
G01X-327776Y-3758854D01*
G01X-329017Y-3755938D01*
G01X-329709Y-3753860D01*
G01X-330546Y-3750541D01*
G01X-331787Y-3747626D01*
G01X-332480Y-3745547D01*
G01X-333000Y-3743383D01*
G01X-333317Y-3742574D01*
G01X-333692Y-3741997D01*
G01X-334126Y-3741651D01*
G01X-334244Y-3741991D01*
G01X-334416Y-3744180D01*
G01X-335049Y-3831706D01*
G01X-335049Y-3922222D01*
G01X-362758Y-3922222D01*
G01X-362758Y-3813233D01*
G01X-362758Y-3704244D01*
G01X-341514Y-3704244D01*
G01X-325466Y-3704474D01*
G01X-321339Y-3704763D01*
G01X-320249Y-3704951D01*
G01X-319809Y-3705167D01*
G01X-318424Y-3707938D01*
G01X-317616Y-3709901D01*
G01X-316778Y-3713220D01*
G01X-316086Y-3715298D01*
G01X-314844Y-3718214D01*
G01X-314007Y-3721533D01*
G01X-313315Y-3723611D01*
G01X-312074Y-3726526D01*
G01X-311237Y-3729846D01*
G01X-310544Y-3731924D01*
G01X-309303Y-3734839D01*
G01X-308466Y-3738158D01*
G01X-307773Y-3740237D01*
G01X-306532Y-3743152D01*
G01X-305695Y-3746471D01*
G01X-305002Y-3748549D01*
G01X-303761Y-3751464D01*
G01X-302924Y-3754784D01*
G01X-302231Y-3756862D01*
G01X-300990Y-3759777D01*
G01X-300153Y-3763097D01*
G01X-299460Y-3765175D01*
G01X-298219Y-3768090D01*
G01X-297382Y-3771409D01*
G01X-296689Y-3773487D01*
G01X-295448Y-3776403D01*
G01X-294611Y-3779722D01*
G01X-293918Y-3781800D01*
G01X-292677Y-3784716D01*
G01X-291840Y-3788035D01*
G01X-291147Y-3790113D01*
G01X-289906Y-3793028D01*
G01X-289069Y-3796347D01*
G01X-288377Y-3798426D01*
G01X-287136Y-3801341D01*
G01X-286298Y-3804660D01*
G01X-285606Y-3806738D01*
G01X-284364Y-3809654D01*
G01X-283527Y-3812973D01*
G01X-282835Y-3815051D01*
G01X-281594Y-3817966D01*
G01X-280757Y-3821286D01*
G01X-280064Y-3823364D01*
G01X-278823Y-3826279D01*
G01X-277986Y-3829598D01*
G01X-277293Y-3831677D01*
G01X-276052Y-3834592D01*
G01X-275215Y-3837911D01*
G01X-274522Y-3839989D01*
G01X-273281Y-3842904D01*
G01X-272444Y-3846224D01*
G01X-271751Y-3848302D01*
G01X-270510Y-3851217D01*
G01X-269673Y-3854537D01*
G01X-268980Y-3856615D01*
G01X-267739Y-3859530D01*
G01X-266902Y-3862849D01*
G01X-266209Y-3864927D01*
G01X-264968Y-3867843D01*
G01X-264131Y-3871162D01*
G01X-263438Y-3873240D01*
G01X-262197Y-3876156D01*
G01X-261360Y-3879475D01*
G01X-260667Y-3881553D01*
G01X-259802Y-3883487D01*
G01X-259426Y-3884584D01*
G01X-259109Y-3885796D01*
G01X-258849Y-3887124D01*
G01X-258272Y-3889086D01*
G01X-257464Y-3889433D01*
G01X-257233Y-3889281D01*
G01X-257002Y-3889057D01*
G01X-256771Y-3888762D01*
G01X-256309Y-3887953D01*
G01X-255616Y-3886200D01*
G01X-244533Y-3852949D01*
G01X-243378Y-3849846D01*
G01X-241877Y-3846368D01*
G01X-241040Y-3843049D01*
G01X-240347Y-3840971D01*
G01X-239106Y-3838056D01*
G01X-238269Y-3834736D01*
G01X-237577Y-3832658D01*
G01X-236336Y-3829743D01*
G01X-235498Y-3826423D01*
G01X-234806Y-3824345D01*
G01X-233940Y-3822469D01*
G01X-233247Y-3820622D01*
G01X-232410Y-3817851D01*
G01X-231169Y-3815051D01*
G01X-230476Y-3812973D01*
G01X-229639Y-3809654D01*
G01X-228398Y-3806738D01*
G01X-227705Y-3804660D01*
G01X-226868Y-3801341D01*
G01X-225627Y-3798426D01*
G01X-224934Y-3796347D01*
G01X-224415Y-3794125D01*
G01X-224097Y-3793144D01*
G01X-223722Y-3792278D01*
G01X-223065Y-3791166D01*
G01X-222661Y-3790358D01*
G01X-222163Y-3788929D01*
G01X-221644Y-3786707D01*
G01X-220951Y-3784629D01*
G01X-219710Y-3781714D01*
G01X-218873Y-3778394D01*
G01X-218180Y-3776316D01*
G01X-216939Y-3773401D01*
G01X-216102Y-3770082D01*
G01X-215409Y-3768003D01*
G01X-214543Y-3766127D01*
G01X-213851Y-3764280D01*
G01X-213014Y-3761509D01*
G01X-211772Y-3758709D01*
G01X-211080Y-3756631D01*
G01X-210243Y-3753312D01*
G01X-209002Y-3750397D01*
G01X-208309Y-3748318D01*
G01X-207472Y-3744999D01*
G01X-206231Y-3742084D01*
G01X-205538Y-3740006D01*
G01X-205018Y-3737783D01*
G01X-204701Y-3736802D01*
G01X-204326Y-3735936D01*
G01X-203669Y-3734825D01*
G01X-203265Y-3734016D01*
G01X-202767Y-3732588D01*
G01X-202507Y-3731491D01*
G01X-201930Y-3729297D01*
G01X-200689Y-3726382D01*
G01X-199996Y-3724304D01*
G01X-199159Y-3720984D01*
G01X-197918Y-3718069D01*
G01X-197225Y-3715991D01*
G01X-196388Y-3712672D01*
G01X-195147Y-3709757D01*
G01X-194454Y-3707678D01*
G01X-193733Y-3704244D01*
G37*
G36*
G01X-840740Y-3922222D02*
G01X-887384Y-3922222D01*
G01X-887384Y-3815542D01*
G01X-887101Y-3730106D01*
G01X-858751Y-3730106D01*
G01X-858751Y-3812771D01*
G01X-858735Y-3840881D01*
G01X-858345Y-3895519D01*
G01X-858289Y-3895898D01*
G01X-858034Y-3895968D01*
G01X-858034Y-3895968D01*
G01X-856539Y-3896084D01*
G01X-827347Y-3896360D01*
G01X-797473Y-3896100D01*
G01X-794957Y-3895954D01*
G01X-793288Y-3895667D01*
G01X-786072Y-3894715D01*
G01X-783258Y-3894217D01*
G01X-780704Y-3893589D01*
G01X-777702Y-3892666D01*
G01X-775162Y-3891742D01*
G01X-770544Y-3889894D01*
G01X-768466Y-3888971D01*
G01X-766156Y-3887614D01*
G01X-764771Y-3886922D01*
G01X-763414Y-3886373D01*
G01X-762808Y-3885969D01*
G01X-762260Y-3885449D01*
G01X-761278Y-3884151D01*
G01X-760124Y-3882996D01*
G01X-758190Y-3881466D01*
G01X-756660Y-3879532D01*
G01X-755506Y-3878378D01*
G01X-754496Y-3877635D01*
G01X-753803Y-3877000D01*
G01X-752764Y-3875722D01*
G01X-750801Y-3872692D01*
G01X-749531Y-3871169D01*
G01X-749069Y-3870534D01*
G01X-748376Y-3869257D01*
G01X-746991Y-3866111D01*
G01X-745634Y-3863773D01*
G01X-744942Y-3862157D01*
G01X-744104Y-3859414D01*
G01X-742834Y-3856557D01*
G01X-742142Y-3854717D01*
G01X-741449Y-3852487D01*
G01X-740064Y-3847869D01*
G01X-739602Y-3846022D01*
G01X-738909Y-3841750D01*
G01X-738447Y-3839441D01*
G01X-738108Y-3838272D01*
G01X-737870Y-3837016D01*
G01X-737726Y-3833841D01*
G01X-737495Y-3831994D01*
G01X-737223Y-3830937D01*
G01X-737039Y-3828743D01*
G01X-736831Y-3813694D01*
G01X-737011Y-3799263D01*
G01X-737184Y-3796723D01*
G01X-737293Y-3796146D01*
G01X-737639Y-3794644D01*
G01X-737754Y-3792913D01*
G01X-737935Y-3790423D01*
G01X-739400Y-3781598D01*
G01X-739898Y-3779174D01*
G01X-740526Y-3776749D01*
G01X-742373Y-3770746D01*
G01X-743296Y-3768321D01*
G01X-743758Y-3767368D01*
G01X-744451Y-3766228D01*
G01X-745374Y-3764496D01*
G01X-746991Y-3760816D01*
G01X-747914Y-3759200D01*
G01X-749762Y-3756429D01*
G01X-754380Y-3749964D01*
G01X-755419Y-3748694D01*
G01X-757353Y-3747164D01*
G01X-758507Y-3746009D01*
G01X-759251Y-3744992D01*
G01X-760268Y-3743844D01*
G01X-761163Y-3743007D01*
G01X-763328Y-3741247D01*
G01X-765926Y-3739342D01*
G01X-769057Y-3737264D01*
G01X-770789Y-3736340D01*
G01X-774058Y-3734954D01*
G01X-777031Y-3733576D01*
G01X-778741Y-3732992D01*
G01X-780097Y-3732674D01*
G01X-783128Y-3732184D01*
G01X-785437Y-3731722D01*
G01X-786613Y-3731383D01*
G01X-787977Y-3731144D01*
G01X-791701Y-3731000D01*
G01X-793779Y-3730769D01*
G01X-794582Y-3730560D01*
G01X-796360Y-3730399D01*
G01X-827347Y-3730106D01*
G01X-858751Y-3730106D01*
G01X-887101Y-3730106D01*
G01X-887030Y-3708761D01*
G01X-886922Y-3706553D01*
G01X-886460Y-3704244D01*
G01X-843973Y-3704244D01*
G01X-803362Y-3704503D01*
G01X-800434Y-3704649D01*
G01X-800100Y-3704706D01*
G01X-799451Y-3704862D01*
G01X-797372Y-3705079D01*
G01X-792422Y-3705174D01*
G01X-789478Y-3705283D01*
G01X-788093Y-3705427D01*
G01X-787169Y-3705629D01*
G01X-785668Y-3705976D01*
G01X-783042Y-3706120D01*
G01X-781425Y-3706351D01*
G01X-779953Y-3706755D01*
G01X-778106Y-3706986D01*
G01X-775883Y-3707072D01*
G01X-774816Y-3707246D01*
G01X-773805Y-3707534D01*
G01X-771871Y-3708371D01*
G01X-770774Y-3708746D01*
G01X-769562Y-3709064D01*
G01X-766907Y-3709583D01*
G01X-765694Y-3709901D01*
G01X-764598Y-3710276D01*
G01X-761538Y-3711633D01*
G01X-757642Y-3713047D01*
G01X-756343Y-3713596D01*
G01X-755102Y-3714202D01*
G01X-753918Y-3714866D01*
G01X-749300Y-3717636D01*
G01X-747337Y-3718906D01*
G01X-745577Y-3720378D01*
G01X-745028Y-3720754D01*
G01X-744422Y-3721071D01*
G01X-743094Y-3721619D01*
G01X-742488Y-3722024D01*
G01X-741940Y-3722543D01*
G01X-740958Y-3723842D01*
G01X-739804Y-3724997D01*
G01X-737870Y-3726526D01*
G01X-736340Y-3728460D01*
G01X-735186Y-3729615D01*
G01X-734168Y-3730358D01*
G01X-733021Y-3731376D01*
G01X-732184Y-3732270D01*
G01X-731289Y-3733338D01*
G01X-727594Y-3737956D01*
G01X-725978Y-3740150D01*
G01X-725343Y-3741160D01*
G01X-724362Y-3742979D01*
G01X-723438Y-3744364D01*
G01X-722746Y-3745136D01*
G01X-722284Y-3745771D01*
G01X-721591Y-3747048D01*
G01X-720206Y-3750194D01*
G01X-719051Y-3752172D01*
G01X-718127Y-3753904D01*
G01X-717434Y-3755506D01*
G01X-715356Y-3760708D01*
G01X-713740Y-3765204D01*
G01X-711893Y-3770976D01*
G01X-710969Y-3775133D01*
G01X-710046Y-3778596D01*
G01X-709353Y-3782868D01*
G01X-708891Y-3785177D01*
G01X-708552Y-3786353D01*
G01X-708314Y-3787717D01*
G01X-708169Y-3791441D01*
G01X-707938Y-3793519D01*
G01X-707722Y-3794345D01*
G01X-707654Y-3794684D01*
G01X-707483Y-3796749D01*
G01X-707274Y-3811386D01*
G01X-707455Y-3825420D01*
G01X-707628Y-3827903D01*
G01X-707736Y-3828473D01*
G01X-708083Y-3829974D01*
G01X-708198Y-3831706D01*
G01X-708379Y-3834195D01*
G01X-709584Y-3841404D01*
G01X-709814Y-3842904D01*
G01X-710276Y-3845214D01*
G01X-710969Y-3847869D01*
G01X-711842Y-3852870D01*
G01X-712189Y-3854140D01*
G01X-712593Y-3855237D01*
G01X-713624Y-3857683D01*
G01X-714462Y-3861002D01*
G01X-715154Y-3863080D01*
G01X-716511Y-3866111D01*
G01X-717434Y-3868651D01*
G01X-718358Y-3871076D01*
G01X-718820Y-3872028D01*
G01X-719513Y-3873168D01*
G01X-720436Y-3874900D01*
G01X-722053Y-3878580D01*
G01X-722514Y-3879446D01*
G01X-726671Y-3886084D01*
G01X-728056Y-3888047D01*
G01X-732155Y-3893301D01*
G01X-734551Y-3896562D01*
G01X-735705Y-3897717D01*
G01X-737639Y-3899246D01*
G01X-739169Y-3901180D01*
G01X-740323Y-3902335D01*
G01X-741651Y-3903287D01*
G01X-743549Y-3904911D01*
G01X-744992Y-3906008D01*
G01X-748723Y-3908367D01*
G01X-751638Y-3910417D01*
G01X-752648Y-3911023D01*
G01X-753716Y-3911571D01*
G01X-756509Y-3912754D01*
G01X-761076Y-3914833D01*
G01X-763616Y-3915756D01*
G01X-769620Y-3917604D01*
G01X-774238Y-3918989D01*
G01X-776201Y-3919451D01*
G01X-781021Y-3920144D01*
G01X-783561Y-3920606D01*
G01X-784766Y-3920945D01*
G01X-786130Y-3921183D01*
G01X-789853Y-3921327D01*
G01X-791932Y-3921558D01*
G01X-792735Y-3921767D01*
G01X-793996Y-3921881D01*
G01X-840740Y-3922222D01*
G37*
G36*
G01X179416Y-3922222D02*
G01X150784Y-3922222D01*
G01X150784Y-3826164D01*
G01X150784Y-3730106D01*
G01X78740Y-3730106D01*
G01X78740Y-3704244D01*
G01X251460Y-3704244D01*
G01X251460Y-3730106D01*
G01X179416Y-3730106D01*
G01X179416Y-3922222D01*
G37*
G36*
G01X-492201Y-3921783D02*
G01X-495373Y-3922010D01*
G01X-506846Y-3922222D01*
G01X-518362Y-3921962D01*
G01X-523442Y-3921500D01*
G01X-525203Y-3921183D01*
G01X-526444Y-3920807D01*
G01X-527166Y-3920374D01*
G01X-528060Y-3919422D01*
G01X-528897Y-3918412D01*
G01X-529677Y-3917344D01*
G01X-531899Y-3913909D01*
G01X-533631Y-3911600D01*
G01X-535760Y-3908714D01*
G01X-538134Y-3905019D01*
G01X-538682Y-3904297D01*
G01X-539411Y-3903497D01*
G01X-540508Y-3902053D01*
G01X-542983Y-3898207D01*
G01X-544714Y-3895898D01*
G01X-546843Y-3893012D01*
G01X-549448Y-3888971D01*
G01X-551180Y-3886662D01*
G01X-553309Y-3883776D01*
G01X-555683Y-3880081D01*
G01X-556231Y-3879359D01*
G01X-556960Y-3878558D01*
G01X-558057Y-3877115D01*
G01X-560532Y-3873269D01*
G01X-562264Y-3870960D01*
G01X-564392Y-3868074D01*
G01X-566997Y-3864033D01*
G01X-568729Y-3861724D01*
G01X-570858Y-3858837D01*
G01X-573232Y-3855143D01*
G01X-573780Y-3854421D01*
G01X-574509Y-3853620D01*
G01X-575606Y-3852177D01*
G01X-578081Y-3848331D01*
G01X-579813Y-3846022D01*
G01X-581941Y-3843136D01*
G01X-584316Y-3839441D01*
G01X-584864Y-3838719D01*
G01X-585593Y-3837918D01*
G01X-586689Y-3836475D01*
G01X-589049Y-3832744D01*
G01X-600335Y-3816927D01*
G01X-601222Y-3815542D01*
G01X-602442Y-3813377D01*
G01X-602904Y-3812886D01*
G01X-603366Y-3812684D01*
G01X-603827Y-3812771D01*
G01X-604866Y-3813348D01*
G01X-606136Y-3814156D01*
G01X-607406Y-3815196D01*
G01X-608936Y-3817129D01*
G01X-610091Y-3818284D01*
G01X-612024Y-3819814D01*
G01X-613554Y-3821747D01*
G01X-614709Y-3822902D01*
G01X-616643Y-3824432D01*
G01X-618172Y-3826366D01*
G01X-619327Y-3827520D01*
G01X-620655Y-3828473D01*
G01X-622791Y-3830320D01*
G01X-624609Y-3831706D01*
G01X-625879Y-3832744D01*
G01X-627409Y-3834678D01*
G01X-628563Y-3835833D01*
G01X-630497Y-3837363D01*
G01X-632027Y-3839297D01*
G01X-633182Y-3840451D01*
G01X-635116Y-3841981D01*
G01X-636645Y-3843915D01*
G01X-637800Y-3845069D01*
G01X-638485Y-3845577D01*
G01X-638652Y-3845872D01*
G01X-638788Y-3846368D01*
G01X-639070Y-3848331D01*
G01X-639373Y-3852659D01*
G01X-639849Y-3884353D01*
G01X-639849Y-3922222D01*
G01X-668482Y-3922222D01*
G01X-668482Y-3815542D01*
G01X-668128Y-3708761D01*
G01X-668020Y-3706553D01*
G01X-667558Y-3704244D01*
G01X-639849Y-3704244D01*
G01X-639849Y-3756891D01*
G01X-639631Y-3805052D01*
G01X-639443Y-3810550D01*
G01X-639387Y-3810924D01*
G01X-638810Y-3811732D01*
G01X-638002Y-3811386D01*
G01X-636963Y-3810462D01*
G01X-635029Y-3809047D01*
G01X-633874Y-3807893D01*
G01X-632344Y-3805959D01*
G01X-630411Y-3804429D01*
G01X-629256Y-3803275D01*
G01X-627726Y-3801341D01*
G01X-625792Y-3799811D01*
G01X-624638Y-3798657D01*
G01X-623108Y-3796723D01*
G01X-621174Y-3795193D01*
G01X-620020Y-3794038D01*
G01X-618490Y-3792104D01*
G01X-616556Y-3790575D01*
G01X-615402Y-3789420D01*
G01X-613872Y-3787486D01*
G01X-611938Y-3785957D01*
G01X-610783Y-3784802D01*
G01X-609254Y-3782868D01*
G01X-607320Y-3781338D01*
G01X-606165Y-3780184D01*
G01X-604636Y-3778250D01*
G01X-602702Y-3776720D01*
G01X-601547Y-3775566D01*
G01X-600017Y-3773632D01*
G01X-598083Y-3772102D01*
G01X-596929Y-3770947D01*
G01X-595399Y-3769014D01*
G01X-593465Y-3767484D01*
G01X-592311Y-3766329D01*
G01X-590781Y-3764396D01*
G01X-588847Y-3762866D01*
G01X-587692Y-3761711D01*
G01X-586163Y-3759777D01*
G01X-584229Y-3758247D01*
G01X-583074Y-3757093D01*
G01X-581544Y-3755159D01*
G01X-579611Y-3753629D01*
G01X-578456Y-3752475D01*
G01X-576926Y-3750541D01*
G01X-574992Y-3749011D01*
G01X-573838Y-3747857D01*
G01X-572308Y-3745923D01*
G01X-570374Y-3744393D01*
G01X-569220Y-3743238D01*
G01X-567690Y-3741304D01*
G01X-565756Y-3739775D01*
G01X-564602Y-3738620D01*
G01X-563072Y-3736686D01*
G01X-561138Y-3735157D01*
G01X-559983Y-3734002D01*
G01X-558454Y-3732068D01*
G01X-556520Y-3730538D01*
G01X-555365Y-3729384D01*
G01X-553836Y-3727450D01*
G01X-551902Y-3725920D01*
G01X-550747Y-3724766D01*
G01X-549217Y-3722832D01*
G01X-547283Y-3721302D01*
G01X-546129Y-3720147D01*
G01X-544599Y-3718214D01*
G01X-542665Y-3716684D01*
G01X-541511Y-3715529D01*
G01X-539981Y-3713596D01*
G01X-538047Y-3712066D01*
G01X-536892Y-3710911D01*
G01X-535363Y-3708977D01*
G01X-533429Y-3707447D01*
G01X-532274Y-3706293D01*
G01X-531750Y-3705586D01*
G01X-531452Y-3705381D01*
G01X-531055Y-3705230D01*
G01X-530361Y-3705056D01*
G01X-528314Y-3704758D01*
G01X-524696Y-3704490D01*
G01X-511926Y-3704244D01*
G01X-507488Y-3704251D01*
G01X-494174Y-3704503D01*
G01X-493287Y-3704597D01*
G01X-492991Y-3704706D01*
G01X-493077Y-3704965D01*
G01X-493337Y-3705283D01*
G01X-493770Y-3705658D01*
G01X-495040Y-3706582D01*
G01X-496195Y-3707736D01*
G01X-497724Y-3709670D01*
G01X-499658Y-3711200D01*
G01X-500813Y-3712354D01*
G01X-502343Y-3714288D01*
G01X-504277Y-3715818D01*
G01X-505431Y-3716972D01*
G01X-506961Y-3718906D01*
G01X-508895Y-3720436D01*
G01X-510049Y-3721591D01*
G01X-510792Y-3722608D01*
G01X-511810Y-3723756D01*
G01X-512705Y-3724592D01*
G01X-514869Y-3726353D01*
G01X-518131Y-3728749D01*
G01X-519286Y-3729903D01*
G01X-520816Y-3731837D01*
G01X-522749Y-3733367D01*
G01X-523904Y-3734522D01*
G01X-525434Y-3736456D01*
G01X-527367Y-3737985D01*
G01X-528522Y-3739140D01*
G01X-530052Y-3741074D01*
G01X-531986Y-3742603D01*
G01X-533140Y-3743758D01*
G01X-534670Y-3745692D01*
G01X-536604Y-3747222D01*
G01X-537758Y-3748376D01*
G01X-539288Y-3750310D01*
G01X-540558Y-3751349D01*
G01X-542377Y-3752734D01*
G01X-543906Y-3754120D01*
G01X-545840Y-3755534D01*
G01X-546995Y-3756689D01*
G01X-548524Y-3758623D01*
G01X-550458Y-3760152D01*
G01X-551613Y-3761307D01*
G01X-553143Y-3763241D01*
G01X-555077Y-3764771D01*
G01X-556231Y-3765925D01*
G01X-557761Y-3767859D01*
G01X-559695Y-3769389D01*
G01X-560849Y-3770543D01*
G01X-562379Y-3772477D01*
G01X-564313Y-3774007D01*
G01X-565467Y-3775162D01*
G01X-566449Y-3776461D01*
G01X-566997Y-3776980D01*
G01X-567603Y-3777384D01*
G01X-568931Y-3777961D01*
G01X-569537Y-3778366D01*
G01X-570086Y-3778885D01*
G01X-570576Y-3779520D01*
G01X-571616Y-3780790D01*
G01X-573549Y-3782320D01*
G01X-574704Y-3783474D01*
G01X-576234Y-3785408D01*
G01X-578167Y-3786938D01*
G01X-579322Y-3788092D01*
G01X-580852Y-3790026D01*
G01X-582122Y-3791066D01*
G01X-583046Y-3791989D01*
G01X-583046Y-3792913D01*
G01X-582468Y-3793952D01*
G01X-581660Y-3795222D01*
G01X-576522Y-3802438D01*
G01X-573405Y-3806479D01*
G01X-571038Y-3809740D01*
G01X-569415Y-3811638D01*
G01X-568318Y-3813081D01*
G01X-565843Y-3816927D01*
G01X-564111Y-3819236D01*
G01X-563245Y-3820333D01*
G01X-560821Y-3823681D01*
G01X-557703Y-3827722D01*
G01X-555798Y-3830320D01*
G01X-550661Y-3837536D01*
G01X-547543Y-3841577D01*
G01X-545176Y-3844838D01*
G01X-543553Y-3846736D01*
G01X-542456Y-3848179D01*
G01X-539981Y-3852026D01*
G01X-538249Y-3854334D01*
G01X-537383Y-3855431D01*
G01X-535016Y-3858693D01*
G01X-533393Y-3860591D01*
G01X-532296Y-3862034D01*
G01X-529821Y-3865880D01*
G01X-528089Y-3868189D01*
G01X-527223Y-3869286D01*
G01X-524799Y-3872634D01*
G01X-521681Y-3876675D01*
G01X-519776Y-3879273D01*
G01X-514639Y-3886489D01*
G01X-511521Y-3890529D01*
G01X-509154Y-3893791D01*
G01X-507531Y-3895689D01*
G01X-506434Y-3897132D01*
G01X-503959Y-3900978D01*
G01X-502227Y-3903287D01*
G01X-501361Y-3904384D01*
G01X-498937Y-3907732D01*
G01X-495819Y-3911773D01*
G01X-493914Y-3914371D01*
G01X-489296Y-3920836D01*
G01X-489326Y-3921123D01*
G01X-489721Y-3921342D01*
G01X-490311Y-3921506D01*
G01X-492201Y-3921783D01*
G37*
G36*
G01X674254Y-3917567D02*
G01X674947Y-3918845D01*
G01X676333Y-3922222D01*
G01X658784Y-3922222D01*
G01X647895Y-3921962D01*
G01X643161Y-3921500D01*
G01X641552Y-3921183D01*
G01X640448Y-3920807D01*
G01X639849Y-3920374D01*
G01X637078Y-3916680D01*
G01X636414Y-3915756D01*
G01X635527Y-3914371D01*
G01X634278Y-3912062D01*
G01X633434Y-3910676D01*
G01X631421Y-3907841D01*
G01X629689Y-3905134D01*
G01X626918Y-3900516D01*
G01X625533Y-3898323D01*
G01X623483Y-3895436D01*
G01X622596Y-3894051D01*
G01X621348Y-3891742D01*
G01X620503Y-3890356D01*
G01X618490Y-3887521D01*
G01X616758Y-3884814D01*
G01X610754Y-3875232D01*
G01X608330Y-3871819D01*
G01X605213Y-3866919D01*
G01X602788Y-3863506D01*
G01X599671Y-3858606D01*
G01X595976Y-3853411D01*
G01X594591Y-3851592D01*
G01X593696Y-3850611D01*
G01X593321Y-3850063D01*
G01X593003Y-3849457D01*
G01X592455Y-3848129D01*
G01X592051Y-3847523D01*
G01X591531Y-3846974D01*
G01X590550Y-3846231D01*
G01X589857Y-3845596D01*
G01X588818Y-3844319D01*
G01X587433Y-3842183D01*
G01X586740Y-3841288D01*
G01X586047Y-3840567D01*
G01X585354Y-3840018D01*
G01X584084Y-3838979D01*
G01X582555Y-3837045D01*
G01X581400Y-3835891D01*
G01X580073Y-3834938D01*
G01X578182Y-3833322D01*
G01X577273Y-3832629D01*
G01X573924Y-3830782D01*
G01X571702Y-3829425D01*
G01X570086Y-3828732D01*
G01X567344Y-3827896D01*
G01X565013Y-3826871D01*
G01X563916Y-3826524D01*
G01X561946Y-3826221D01*
G01X557646Y-3826048D01*
G01X556606Y-3825904D01*
G01X555798Y-3825702D01*
G01X555466Y-3825632D01*
G01X553521Y-3825479D01*
G01X534093Y-3825240D01*
G01X513773Y-3825240D01*
G01X513773Y-3922222D01*
G01X485140Y-3922222D01*
G01X485140Y-3813233D01*
G01X485140Y-3728258D01*
G01X513773Y-3728258D01*
G01X513773Y-3763818D01*
G01X513802Y-3779404D01*
G01X514126Y-3799176D01*
G01X514234Y-3799840D01*
G01X515789Y-3800003D01*
G01X551180Y-3800302D01*
G01X551180Y-3800302D01*
G01X585192Y-3800084D01*
G01X589551Y-3799896D01*
G01X591243Y-3799609D01*
G01X597455Y-3798794D01*
G01X600248Y-3798339D01*
G01X601893Y-3797964D01*
G01X604051Y-3797300D01*
G01X608446Y-3795684D01*
G01X610112Y-3794991D01*
G01X612602Y-3793836D01*
G01X613468Y-3793374D01*
G01X614853Y-3792451D01*
G01X615863Y-3791556D01*
G01X616412Y-3791181D01*
G01X617018Y-3790863D01*
G01X618035Y-3790459D01*
G01X618403Y-3790257D01*
G01X619183Y-3789680D01*
G01X620020Y-3788872D01*
G01X621781Y-3786736D01*
G01X623686Y-3784138D01*
G01X625533Y-3781367D01*
G01X626341Y-3779866D01*
G01X627178Y-3777211D01*
G01X627871Y-3775364D01*
G01X628520Y-3773913D01*
G01X628866Y-3772470D01*
G01X629137Y-3769936D01*
G01X629227Y-3766589D01*
G01X629220Y-3765131D01*
G01X629047Y-3760167D01*
G01X628766Y-3757353D01*
G01X628354Y-3755123D01*
G01X628008Y-3753853D01*
G01X626918Y-3751320D01*
G01X625071Y-3747048D01*
G01X624147Y-3745432D01*
G01X623454Y-3744638D01*
G01X622762Y-3743729D01*
G01X621586Y-3741651D01*
G01X620951Y-3740727D01*
G01X619673Y-3739342D01*
G01X618606Y-3738418D01*
G01X615719Y-3736289D01*
G01X613987Y-3735186D01*
G01X612320Y-3734211D01*
G01X609831Y-3732876D01*
G01X608821Y-3732414D01*
G01X606980Y-3731722D01*
G01X604751Y-3731029D01*
G01X599772Y-3729535D01*
G01X598516Y-3729297D01*
G01X595341Y-3729153D01*
G01X593494Y-3728922D01*
G01X592578Y-3728685D01*
G01X591162Y-3728575D01*
G01X552566Y-3728258D01*
G01X513773Y-3728258D01*
G01X485140Y-3728258D01*
G01X485140Y-3704244D01*
G01X537787Y-3704244D01*
G01X585948Y-3704462D01*
G01X591447Y-3704649D01*
G01X591820Y-3704706D01*
G01X592686Y-3704907D01*
G01X594634Y-3705102D01*
G01X597362Y-3705167D01*
G01X600826Y-3705283D01*
G01X602038Y-3705427D01*
G01X603625Y-3705831D01*
G01X605242Y-3706062D01*
G01X607868Y-3706206D01*
G01X610091Y-3706755D01*
G01X611707Y-3706986D01*
G01X614182Y-3707144D01*
G01X615452Y-3707375D01*
G01X617682Y-3707938D01*
G01X623686Y-3709786D01*
G01X626110Y-3710709D01*
G01X627063Y-3711171D01*
G01X628203Y-3711864D01*
G01X629934Y-3712787D01*
G01X632691Y-3713999D01*
G01X633846Y-3714634D01*
G01X635000Y-3715385D01*
G01X637251Y-3717117D01*
G01X639849Y-3719022D01*
G01X641119Y-3720061D01*
G01X642649Y-3721995D01*
G01X643803Y-3723149D01*
G01X644814Y-3723892D01*
G01X645506Y-3724527D01*
G01X646546Y-3725805D01*
G01X648508Y-3728836D01*
G01X649778Y-3730358D01*
G01X650240Y-3730993D01*
G01X650933Y-3732270D01*
G01X652318Y-3735416D01*
G01X653473Y-3737401D01*
G01X654396Y-3739306D01*
G01X655089Y-3741189D01*
G01X656936Y-3747193D01*
G01X658430Y-3752280D01*
G01X658653Y-3754835D01*
G01X658784Y-3762433D01*
G01X658776Y-3764619D01*
G01X658603Y-3770911D01*
G01X658430Y-3772586D01*
G01X658322Y-3773054D01*
G01X657860Y-3774902D01*
G01X656987Y-3779903D01*
G01X656641Y-3781173D01*
G01X656236Y-3782269D01*
G01X655204Y-3784600D01*
G01X654368Y-3787342D01*
G01X653675Y-3788958D01*
G01X652318Y-3791181D01*
G01X650933Y-3793779D01*
G01X650009Y-3795164D01*
G01X649316Y-3795929D01*
G01X648624Y-3796838D01*
G01X647209Y-3799321D01*
G01X646661Y-3800071D01*
G01X646055Y-3800706D01*
G01X644727Y-3801716D01*
G01X643573Y-3802871D01*
G01X642829Y-3803888D01*
G01X641812Y-3805036D01*
G01X640917Y-3805872D01*
G01X638752Y-3807633D01*
G01X636154Y-3809538D01*
G01X631969Y-3812511D01*
G01X630959Y-3813117D01*
G01X629891Y-3813666D01*
G01X626687Y-3815080D01*
G01X624710Y-3816227D01*
G01X623902Y-3816631D01*
G01X622473Y-3817129D01*
G01X621376Y-3817389D01*
G01X619183Y-3817966D01*
G01X616268Y-3819207D01*
G01X614189Y-3819900D01*
G01X610986Y-3820622D01*
G01X607522Y-3821546D01*
G01X603250Y-3822238D01*
G01X600941Y-3822700D01*
G01X600133Y-3822931D01*
G01X599613Y-3823191D01*
G01X599440Y-3823508D01*
G01X599613Y-3823883D01*
G01X600133Y-3824316D01*
G01X608214Y-3829367D01*
G01X609600Y-3830060D01*
G01X610957Y-3830609D01*
G01X611563Y-3831013D01*
G01X612111Y-3831532D01*
G01X612602Y-3832167D01*
G01X613641Y-3833437D01*
G01X615575Y-3834967D01*
G01X616729Y-3836122D01*
G01X617711Y-3837421D01*
G01X618259Y-3837940D01*
G01X618865Y-3838344D01*
G01X619868Y-3838770D01*
G01X620193Y-3838950D01*
G01X620503Y-3839174D01*
G01X620799Y-3839441D01*
G01X621348Y-3840105D01*
G01X622329Y-3841808D01*
G01X622877Y-3842558D01*
G01X623483Y-3843193D01*
G01X624501Y-3843965D01*
G01X625648Y-3844983D01*
G01X626485Y-3845877D01*
G01X628246Y-3848042D01*
G01X630613Y-3851304D01*
G01X632236Y-3853202D01*
G01X633333Y-3854645D01*
G01X635693Y-3858376D01*
G01X638117Y-3861789D01*
G01X641234Y-3866688D01*
G01X643659Y-3870101D01*
G01X645391Y-3872807D01*
G01X648162Y-3877426D01*
G01X649547Y-3879619D01*
G01X651597Y-3882506D01*
G01X652484Y-3883891D01*
G01X653733Y-3886200D01*
G01X654577Y-3887586D01*
G01X656590Y-3890421D01*
G01X658322Y-3893127D01*
G01X661093Y-3897746D01*
G01X662478Y-3899939D01*
G01X664903Y-3903352D01*
G01X666634Y-3906058D01*
G01X671253Y-3913447D01*
G01X672523Y-3915410D01*
G01X673793Y-3916932D01*
G01X674254Y-3917567D01*
G37*
G36*
G01X442191Y-3896822D02*
G01X444500Y-3897284D01*
G01X444500Y-3922222D01*
G01X281940Y-3922222D01*
G01X281940Y-3813233D01*
G01X281940Y-3704244D01*
G01X358602Y-3704244D01*
G01X436994Y-3704649D01*
G01X437573Y-3704706D01*
G01X439882Y-3705167D01*
G01X439882Y-3730106D01*
G01X310573Y-3730106D01*
G01X310573Y-3796607D01*
G01X368762Y-3796607D01*
G01X408981Y-3796696D01*
G01X428753Y-3797013D01*
G01X429260Y-3797069D01*
G01X431569Y-3797531D01*
G01X431569Y-3822469D01*
G01X310573Y-3822469D01*
G01X310573Y-3896360D01*
G01X375227Y-3896360D01*
G01X390417Y-3896367D01*
G01X441659Y-3896766D01*
G01X442191Y-3896822D01*
G37*
G36*
G01X-79202Y-3896360D02*
G01X54726Y-3896360D01*
G01X54726Y-3922222D01*
G01X-107834Y-3922222D01*
G01X-107834Y-3813233D01*
G01X-107834Y-3704244D01*
G01X50107Y-3704244D01*
G01X50107Y-3730106D01*
G01X-79202Y-3730106D01*
G01X-79202Y-3796607D01*
G01X-21013Y-3796607D01*
G01X19207Y-3796696D01*
G01X38979Y-3797013D01*
G01X39486Y-3797069D01*
G01X41794Y-3797531D01*
G01X41794Y-3822469D01*
G01X-79202Y-3822469D01*
G01X-79202Y-3896360D01*
G37*
G36*
G01X-931718Y-3922222D02*
G01X-958504Y-3922222D01*
G01X-958504Y-3843251D01*
G01X-958504Y-3764280D01*
G01X-931718Y-3764280D01*
G01X-931718Y-3922222D01*
G37*
G36*
G01X-395086Y-3856644D02*
G01X-477289Y-3856644D01*
G01X-477289Y-3843251D01*
G01X-477289Y-3829858D01*
G01X-395086Y-3829858D01*
G01X-395086Y-3856644D01*
G37*
G36*
G01X-931718Y-3734724D02*
G01X-958504Y-3734724D01*
G01X-958504Y-3719484D01*
G01X-958504Y-3704244D01*
G01X-931718Y-3704244D01*
G01X-931718Y-3734724D01*
G37*
G36*
G01X-142321Y-4068945D02*
G01X-143117Y-4069032D01*
G01X-147321Y-4069097D01*
G01X-151345Y-4069038D01*
G01X-152027Y-4068981D01*
G01X-152387Y-4068870D01*
G01X-152846Y-4068775D01*
G01X-154461Y-4068567D01*
G01X-155370Y-4068415D01*
G01X-156260Y-4068188D01*
G01X-157699Y-4067951D01*
G01X-158495Y-4067788D01*
G01X-159291Y-4067582D01*
G01X-160275Y-4067279D01*
G01X-161300Y-4066900D01*
G01X-162775Y-4066370D01*
G01X-163571Y-4066067D01*
G01X-163883Y-4065915D01*
G01X-164631Y-4065460D01*
G01X-165512Y-4064997D01*
G01X-166563Y-4064400D01*
G01X-167207Y-4063983D01*
G01X-167444Y-4063803D01*
G01X-167707Y-4063564D01*
G01X-168180Y-4063204D01*
G01X-169035Y-4062658D01*
G01X-169328Y-4062430D01*
G01X-169565Y-4062203D01*
G01X-169906Y-4061758D01*
G01X-170285Y-4061379D01*
G01X-170619Y-4061135D01*
G01X-170995Y-4060801D01*
G01X-171270Y-4060508D01*
G01X-171847Y-4059798D01*
G01X-172624Y-4058728D01*
G01X-173154Y-4058107D01*
G01X-173381Y-4057809D01*
G01X-173987Y-4056711D01*
G01X-174366Y-4056100D01*
G01X-174669Y-4055532D01*
G01X-175124Y-4054459D01*
G01X-175645Y-4053339D01*
G01X-175872Y-4052733D01*
G01X-176412Y-4050764D01*
G01X-176866Y-4049248D01*
G01X-176980Y-4048756D01*
G01X-177033Y-4047735D01*
G01X-177169Y-4046218D01*
G01X-177321Y-4044854D01*
G01X-175957Y-4044854D01*
G01X-174821Y-4044817D01*
G01X-174423Y-4044769D01*
G01X-174139Y-4044703D01*
G01X-173864Y-4044637D01*
G01X-173275Y-4044573D01*
G01X-171449Y-4044514D01*
G01X-171080Y-4044466D01*
G01X-170806Y-4044400D01*
G01X-170313Y-4044286D01*
G01X-169745Y-4044248D01*
G01X-169177Y-4044286D01*
G01X-168684Y-4044400D01*
G01X-168386Y-4044641D01*
G01X-168173Y-4045139D01*
G01X-168003Y-4046104D01*
G01X-167851Y-4046862D01*
G01X-167624Y-4047658D01*
G01X-167387Y-4048709D01*
G01X-167160Y-4049390D01*
G01X-166866Y-4050016D01*
G01X-166109Y-4051749D01*
G01X-165957Y-4052033D01*
G01X-165503Y-4052771D01*
G01X-165039Y-4053624D01*
G01X-164859Y-4053870D01*
G01X-164660Y-4054078D01*
G01X-164224Y-4054409D01*
G01X-163845Y-4054788D01*
G01X-163602Y-4055122D01*
G01X-163268Y-4055498D01*
G01X-162974Y-4055773D01*
G01X-162624Y-4056067D01*
G01X-161677Y-4056765D01*
G01X-161109Y-4057127D01*
G01X-159778Y-4057961D01*
G01X-159210Y-4058264D01*
G01X-158684Y-4058491D01*
G01X-157169Y-4059097D01*
G01X-156558Y-4059324D01*
G01X-155351Y-4059703D01*
G01X-153836Y-4060157D01*
G01X-153344Y-4060271D01*
G01X-152482Y-4060319D01*
G01X-151951Y-4060394D01*
G01X-151683Y-4060470D01*
G01X-150845Y-4060559D01*
G01X-147775Y-4060612D01*
G01X-144485Y-4060553D01*
G01X-143765Y-4060496D01*
G01X-141715Y-4060157D01*
G01X-141222Y-4060082D01*
G01X-140465Y-4059930D01*
G01X-139669Y-4059703D01*
G01X-138618Y-4059466D01*
G01X-137936Y-4059239D01*
G01X-137311Y-4058945D01*
G01X-135910Y-4058339D01*
G01X-135379Y-4058036D01*
G01X-135117Y-4057809D01*
G01X-134908Y-4057658D01*
G01X-134489Y-4057430D01*
G01X-133789Y-4057118D01*
G01X-133495Y-4056938D01*
G01X-133258Y-4056739D01*
G01X-133078Y-4056521D01*
G01X-132737Y-4056104D01*
G01X-132103Y-4055603D01*
G01X-131724Y-4055224D01*
G01X-130806Y-4053945D01*
G01X-130588Y-4053624D01*
G01X-130389Y-4053264D01*
G01X-130209Y-4052866D01*
G01X-130048Y-4052430D01*
G01X-129594Y-4051067D01*
G01X-129527Y-4050792D01*
G01X-129463Y-4050202D01*
G01X-129442Y-4049400D01*
G01X-129451Y-4048803D01*
G01X-129501Y-4047944D01*
G01X-129594Y-4047127D01*
G01X-129679Y-4046606D01*
G01X-129842Y-4045861D01*
G01X-130048Y-4045158D01*
G01X-130351Y-4044362D01*
G01X-130503Y-4044050D01*
G01X-130957Y-4043302D01*
G01X-131343Y-4042582D01*
G01X-131551Y-4042279D01*
G01X-131970Y-4041824D01*
G01X-132321Y-4041521D01*
G01X-132681Y-4041237D01*
G01X-133533Y-4040612D01*
G01X-134745Y-4039855D01*
G01X-135292Y-4039535D01*
G01X-136109Y-4039097D01*
G01X-136421Y-4038945D01*
G01X-137664Y-4038415D01*
G01X-139139Y-4037885D01*
G01X-141033Y-4037279D01*
G01X-142112Y-4037042D01*
G01X-143533Y-4036673D01*
G01X-145654Y-4036067D01*
G01X-147737Y-4035461D01*
G01X-148959Y-4035233D01*
G01X-149641Y-4035082D01*
G01X-150503Y-4034855D01*
G01X-152143Y-4034568D01*
G01X-152560Y-4034454D01*
G01X-153400Y-4034106D01*
G01X-153760Y-4033983D01*
G01X-154158Y-4033879D01*
G01X-155048Y-4033709D01*
G01X-155730Y-4033545D01*
G01X-156412Y-4033339D01*
G01X-158305Y-4032733D01*
G01X-159357Y-4032497D01*
G01X-160039Y-4032269D01*
G01X-161033Y-4031824D01*
G01X-161866Y-4031521D01*
G01X-162662Y-4031218D01*
G01X-162974Y-4031067D01*
G01X-163348Y-4030839D01*
G01X-163916Y-4030536D01*
G01X-164792Y-4030158D01*
G01X-165323Y-4029855D01*
G01X-165673Y-4029561D01*
G01X-166128Y-4029334D01*
G01X-166696Y-4029154D01*
G01X-166942Y-4029021D01*
G01X-167150Y-4028851D01*
G01X-167482Y-4028434D01*
G01X-167860Y-4028131D01*
G01X-168296Y-4027942D01*
G01X-168675Y-4027639D01*
G01X-168997Y-4027212D01*
G01X-169376Y-4026834D01*
G01X-169710Y-4026590D01*
G01X-170086Y-4026256D01*
G01X-170361Y-4025962D01*
G01X-170938Y-4025252D01*
G01X-171563Y-4024400D01*
G01X-172539Y-4023027D01*
G01X-172738Y-4022696D01*
G01X-172917Y-4022345D01*
G01X-173154Y-4021784D01*
G01X-173684Y-4020309D01*
G01X-174004Y-4019232D01*
G01X-174139Y-4018642D01*
G01X-174215Y-4018226D01*
G01X-174442Y-4016521D01*
G01X-174499Y-4015896D01*
G01X-174518Y-4015385D01*
G01X-174499Y-4014987D01*
G01X-174407Y-4014585D01*
G01X-174328Y-4014173D01*
G01X-174281Y-4013131D01*
G01X-174205Y-4012525D01*
G01X-173987Y-4011673D01*
G01X-173701Y-4010032D01*
G01X-173587Y-4009615D01*
G01X-173455Y-4009256D01*
G01X-173116Y-4008491D01*
G01X-172832Y-4007572D01*
G01X-172700Y-4007241D01*
G01X-172529Y-4006890D01*
G01X-172321Y-4006521D01*
G01X-171421Y-4005082D01*
G01X-171194Y-4004627D01*
G01X-171014Y-4004182D01*
G01X-170711Y-4003803D01*
G01X-170503Y-4003642D01*
G01X-170285Y-4003472D01*
G01X-170086Y-4003264D01*
G01X-169906Y-4003017D01*
G01X-169584Y-4002459D01*
G01X-169404Y-4002241D01*
G01X-169205Y-4002080D01*
G01X-168770Y-4001881D01*
G01X-168391Y-4001578D01*
G01X-168069Y-4001152D01*
G01X-167690Y-4000773D01*
G01X-167226Y-4000442D01*
G01X-165881Y-3999419D01*
G01X-165503Y-3999173D01*
G01X-165124Y-3998964D01*
G01X-164063Y-3998491D01*
G01X-163414Y-3998112D01*
G01X-162846Y-3997809D01*
G01X-162129Y-3997506D01*
G01X-160654Y-3996976D01*
G01X-158684Y-3996370D01*
G01X-157169Y-3995915D01*
G01X-156677Y-3995802D01*
G01X-155815Y-3995754D01*
G01X-155285Y-3995678D01*
G01X-154927Y-3995576D01*
G01X-154480Y-3995498D01*
G01X-153258Y-3995451D01*
G01X-152577Y-3995375D01*
G01X-152321Y-3995309D01*
G01X-151282Y-3995187D01*
G01X-149745Y-3995158D01*
G01X-148040Y-3995195D01*
G01X-147309Y-3995273D01*
G01X-146914Y-3995375D01*
G01X-146232Y-3995451D01*
G01X-144934Y-3995498D01*
G01X-144527Y-3995546D01*
G01X-142321Y-3995915D01*
G01X-141828Y-3995991D01*
G01X-141071Y-3996142D01*
G01X-140237Y-3996370D01*
G01X-139006Y-3996606D01*
G01X-138609Y-3996711D01*
G01X-138249Y-3996834D01*
G01X-137614Y-3997118D01*
G01X-136932Y-3997345D01*
G01X-136203Y-3997515D01*
G01X-135881Y-3997620D01*
G01X-135597Y-3997743D01*
G01X-135233Y-3997961D01*
G01X-134664Y-3998264D01*
G01X-133760Y-3998652D01*
G01X-133192Y-3998929D01*
G01X-132624Y-3999249D01*
G01X-131904Y-3999703D01*
G01X-130957Y-4000375D01*
G01X-130503Y-4000667D01*
G01X-129764Y-4001076D01*
G01X-129518Y-4001256D01*
G01X-129309Y-4001455D01*
G01X-129139Y-4001673D01*
G01X-128798Y-4002089D01*
G01X-128164Y-4002591D01*
G01X-127785Y-4002970D01*
G01X-127472Y-4003406D01*
G01X-126940Y-4004028D01*
G01X-126580Y-4004502D01*
G01X-125806Y-4005726D01*
G01X-125133Y-4006682D01*
G01X-124934Y-4007014D01*
G01X-124754Y-4007364D01*
G01X-124594Y-4007733D01*
G01X-123987Y-4009249D01*
G01X-123760Y-4009859D01*
G01X-123381Y-4011067D01*
G01X-122861Y-4012818D01*
G01X-122785Y-4013349D01*
G01X-122737Y-4014211D01*
G01X-122591Y-4014821D01*
G01X-122553Y-4015086D01*
G01X-122553Y-4015389D01*
G01X-122624Y-4015915D01*
G01X-122775Y-4016673D01*
G01X-124139Y-4016673D01*
G01X-125275Y-4016711D01*
G01X-125673Y-4016758D01*
G01X-125957Y-4016824D01*
G01X-126241Y-4016890D01*
G01X-126880Y-4016954D01*
G01X-128713Y-4016997D01*
G01X-129480Y-4017061D01*
G01X-130256Y-4017184D01*
G01X-130578Y-4017203D01*
G01X-130862Y-4017184D01*
G01X-131317Y-4017033D01*
G01X-131620Y-4016730D01*
G01X-131828Y-4016029D01*
G01X-131871Y-4015304D01*
G01X-131942Y-4014779D01*
G01X-132037Y-4014381D01*
G01X-132245Y-4013720D01*
G01X-132775Y-4012279D01*
G01X-133003Y-4011732D01*
G01X-133381Y-4010915D01*
G01X-133542Y-4010612D01*
G01X-133819Y-4010158D01*
G01X-134897Y-4008642D01*
G01X-135237Y-4008226D01*
G01X-135872Y-4007724D01*
G01X-136251Y-4007345D01*
G01X-136495Y-4007014D01*
G01X-136703Y-4006786D01*
G01X-137122Y-4006445D01*
G01X-137472Y-4006218D01*
G01X-138921Y-4005319D01*
G01X-139451Y-4005091D01*
G01X-140351Y-4004817D01*
G01X-141116Y-4004478D01*
G01X-141677Y-4004286D01*
G01X-142122Y-4004182D01*
G01X-143116Y-4004021D01*
G01X-143874Y-4003870D01*
G01X-144256Y-4003767D01*
G01X-144991Y-4003702D01*
G01X-148684Y-4003642D01*
G01X-152496Y-4003702D01*
G01X-153292Y-4003758D01*
G01X-155872Y-4004182D01*
G01X-156618Y-4004346D01*
G01X-157546Y-4004627D01*
G01X-158987Y-4005158D01*
G01X-159669Y-4005461D01*
G01X-160427Y-4005906D01*
G01X-160881Y-4006133D01*
G01X-161327Y-4006313D01*
G01X-161705Y-4006616D01*
G01X-162027Y-4007042D01*
G01X-162406Y-4007421D01*
G01X-162738Y-4007665D01*
G01X-162965Y-4007873D01*
G01X-163306Y-4008292D01*
G01X-163533Y-4008642D01*
G01X-164442Y-4010158D01*
G01X-164650Y-4010536D01*
G01X-164821Y-4010915D01*
G01X-164953Y-4011294D01*
G01X-165048Y-4011673D01*
G01X-165351Y-4013188D01*
G01X-165408Y-4013567D01*
G01X-165427Y-4013945D01*
G01X-165408Y-4014324D01*
G01X-165351Y-4014703D01*
G01X-164963Y-4017014D01*
G01X-164859Y-4017430D01*
G01X-164736Y-4017771D01*
G01X-164452Y-4018263D01*
G01X-164224Y-4018718D01*
G01X-164044Y-4019163D01*
G01X-163741Y-4019542D01*
G01X-163315Y-4019864D01*
G01X-162936Y-4020243D01*
G01X-162435Y-4020877D01*
G01X-162018Y-4021218D01*
G01X-160990Y-4021900D01*
G01X-160422Y-4022203D01*
G01X-159705Y-4022506D01*
G01X-158230Y-4023036D01*
G01X-152662Y-4024855D01*
G01X-150919Y-4025195D01*
G01X-149897Y-4025461D01*
G01X-148381Y-4025915D01*
G01X-147775Y-4026067D01*
G01X-146336Y-4026303D01*
G01X-145540Y-4026467D01*
G01X-144745Y-4026673D01*
G01X-143230Y-4027127D01*
G01X-142624Y-4027279D01*
G01X-140983Y-4027565D01*
G01X-140566Y-4027679D01*
G01X-139726Y-4028027D01*
G01X-139366Y-4028150D01*
G01X-138968Y-4028254D01*
G01X-138097Y-4028425D01*
G01X-137699Y-4028529D01*
G01X-137340Y-4028652D01*
G01X-137018Y-4028794D01*
G01X-136374Y-4029059D01*
G01X-135285Y-4029334D01*
G01X-134603Y-4029561D01*
G01X-133685Y-4029968D01*
G01X-132927Y-4030200D01*
G01X-132624Y-4030314D01*
G01X-132169Y-4030555D01*
G01X-131554Y-4030982D01*
G01X-131222Y-4031180D01*
G01X-130872Y-4031360D01*
G01X-130133Y-4031682D01*
G01X-129783Y-4031862D01*
G01X-129451Y-4032061D01*
G01X-128845Y-4032487D01*
G01X-128315Y-4032790D01*
G01X-127861Y-4032979D01*
G01X-127482Y-4033283D01*
G01X-127238Y-4033605D01*
G01X-127029Y-4033832D01*
G01X-126611Y-4034173D01*
G01X-125891Y-4034646D01*
G01X-125541Y-4034930D01*
G01X-125209Y-4035252D01*
G01X-124897Y-4035612D01*
G01X-123684Y-4037127D01*
G01X-123154Y-4037847D01*
G01X-122946Y-4038178D01*
G01X-122472Y-4039059D01*
G01X-122027Y-4039788D01*
G01X-121800Y-4040319D01*
G01X-121525Y-4041218D01*
G01X-121118Y-4042146D01*
G01X-120995Y-4042506D01*
G01X-120891Y-4042904D01*
G01X-120730Y-4043766D01*
G01X-120578Y-4044447D01*
G01X-120451Y-4044916D01*
G01X-120380Y-4045598D01*
G01X-120351Y-4046824D01*
G01X-120399Y-4048603D01*
G01X-120503Y-4049854D01*
G01X-120588Y-4050517D01*
G01X-120751Y-4051441D01*
G01X-120957Y-4052279D01*
G01X-121563Y-4054248D01*
G01X-121866Y-4055044D01*
G01X-122018Y-4055356D01*
G01X-122245Y-4055731D01*
G01X-122548Y-4056299D01*
G01X-122936Y-4057194D01*
G01X-123116Y-4057544D01*
G01X-123315Y-4057875D01*
G01X-123533Y-4058188D01*
G01X-124442Y-4059466D01*
G01X-125048Y-4060167D01*
G01X-125503Y-4060764D01*
G01X-125844Y-4061180D01*
G01X-126478Y-4061682D01*
G01X-126857Y-4062061D01*
G01X-127101Y-4062395D01*
G01X-127434Y-4062771D01*
G01X-127728Y-4063046D01*
G01X-128078Y-4063339D01*
G01X-129025Y-4064038D01*
G01X-129594Y-4064400D01*
G01X-131109Y-4065309D01*
G01X-132441Y-4066142D01*
G01X-133067Y-4066446D01*
G01X-133909Y-4066749D01*
G01X-135962Y-4067506D01*
G01X-137169Y-4067885D01*
G01X-138745Y-4068358D01*
G01X-139366Y-4068491D01*
G01X-141127Y-4068718D01*
G01X-142037Y-4068870D01*
G01X-142321Y-4068945D01*
G37*
G36*
G01X377640Y-4069049D02*
G01X374801Y-4069097D01*
G01X371699Y-4069038D01*
G01X371055Y-4068981D01*
G01X369195Y-4068491D01*
G01X367679Y-4068036D01*
G01X366316Y-4067582D01*
G01X365520Y-4067279D01*
G01X365208Y-4067127D01*
G01X364834Y-4066900D01*
G01X364266Y-4066597D01*
G01X363371Y-4066209D01*
G01X363020Y-4066029D01*
G01X362689Y-4065830D01*
G01X362083Y-4065404D01*
G01X361552Y-4065101D01*
G01X361098Y-4064911D01*
G01X360719Y-4064608D01*
G01X360558Y-4064400D01*
G01X360388Y-4064182D01*
G01X360180Y-4063983D01*
G01X359933Y-4063803D01*
G01X359365Y-4063481D01*
G01X359119Y-4063301D01*
G01X358911Y-4063103D01*
G01X358740Y-4062885D01*
G01X358399Y-4062468D01*
G01X357765Y-4061966D01*
G01X357386Y-4061588D01*
G01X357073Y-4061152D01*
G01X356541Y-4060529D01*
G01X356181Y-4060056D01*
G01X355861Y-4059551D01*
G01X354952Y-4058036D01*
G01X354195Y-4056824D01*
G01X353929Y-4056332D01*
G01X353655Y-4055470D01*
G01X353428Y-4054940D01*
G01X353212Y-4054585D01*
G01X353080Y-4054320D01*
G01X352916Y-4053851D01*
G01X352831Y-4053491D01*
G01X352642Y-4052771D01*
G01X352235Y-4051815D01*
G01X352007Y-4051133D01*
G01X351770Y-4050082D01*
G01X351467Y-4048945D01*
G01X351240Y-4047544D01*
G01X351089Y-4046786D01*
G01X350899Y-4046029D01*
G01X350852Y-4045167D01*
G01X350776Y-4044637D01*
G01X350643Y-4044135D01*
G01X350621Y-4043945D01*
G01X360255Y-4043945D01*
G01X360265Y-4044940D01*
G01X360340Y-4046531D01*
G01X360407Y-4047127D01*
G01X360710Y-4048945D01*
G01X360861Y-4049627D01*
G01X361164Y-4050688D01*
G01X361401Y-4051730D01*
G01X361505Y-4052052D01*
G01X361628Y-4052336D01*
G01X361846Y-4052700D01*
G01X362149Y-4053268D01*
G01X362679Y-4054476D01*
G01X362831Y-4054760D01*
G01X363286Y-4055498D01*
G01X363750Y-4056351D01*
G01X363929Y-4056597D01*
G01X364128Y-4056805D01*
G01X364462Y-4057059D01*
G01X364838Y-4057392D01*
G01X365113Y-4057686D01*
G01X365710Y-4058396D01*
G01X366013Y-4058718D01*
G01X366316Y-4059002D01*
G01X366922Y-4059466D01*
G01X367376Y-4059757D01*
G01X368361Y-4060309D01*
G01X368823Y-4060686D01*
G01X369296Y-4060932D01*
G01X369801Y-4061067D01*
G01X370520Y-4061256D01*
G01X371247Y-4061558D01*
G01X371581Y-4061654D01*
G01X372225Y-4061749D01*
G01X372857Y-4061795D01*
G01X374195Y-4061824D01*
G01X374195Y-4061824D01*
G01X375779Y-4061803D01*
G01X376894Y-4061739D01*
G01X377376Y-4061673D01*
G01X378172Y-4061483D01*
G01X379043Y-4061218D01*
G01X379839Y-4060915D01*
G01X380151Y-4060764D01*
G01X380899Y-4060309D01*
G01X381752Y-4059854D01*
G01X382206Y-4059551D01*
G01X382537Y-4059248D01*
G01X383134Y-4058794D01*
G01X383551Y-4058453D01*
G01X384053Y-4057819D01*
G01X384431Y-4057440D01*
G01X384763Y-4057196D01*
G01X384990Y-4056988D01*
G01X385331Y-4056568D01*
G01X385558Y-4056218D01*
G01X386392Y-4054888D01*
G01X386695Y-4054320D01*
G01X386998Y-4053602D01*
G01X387528Y-4052127D01*
G01X387982Y-4050764D01*
G01X388096Y-4050271D01*
G01X388143Y-4049409D01*
G01X388219Y-4048879D01*
G01X388337Y-4048419D01*
G01X388408Y-4047652D01*
G01X388437Y-4046218D01*
G01X388435Y-4045740D01*
G01X388378Y-4044111D01*
G01X388285Y-4043188D01*
G01X387982Y-4041067D01*
G01X387897Y-4040546D01*
G01X387734Y-4039800D01*
G01X387452Y-4038872D01*
G01X386922Y-4037430D01*
G01X386761Y-4037051D01*
G01X386484Y-4036483D01*
G01X386164Y-4035915D01*
G01X385748Y-4035271D01*
G01X385568Y-4035034D01*
G01X385255Y-4034684D01*
G01X384952Y-4034229D01*
G01X384640Y-4033671D01*
G01X384460Y-4033453D01*
G01X384261Y-4033292D01*
G01X383825Y-4033093D01*
G01X383447Y-4032790D01*
G01X383285Y-4032582D01*
G01X382945Y-4032165D01*
G01X382528Y-4031824D01*
G01X381126Y-4030915D01*
G01X379877Y-4030309D01*
G01X379043Y-4030006D01*
G01X377679Y-4029552D01*
G01X376733Y-4029438D01*
G01X374801Y-4029400D01*
G01X372869Y-4029438D01*
G01X372272Y-4029485D01*
G01X371922Y-4029552D01*
G01X371392Y-4029703D01*
G01X370331Y-4029940D01*
G01X369763Y-4030103D01*
G01X369195Y-4030309D01*
G01X368513Y-4030612D01*
G01X367746Y-4031057D01*
G01X367215Y-4031285D01*
G01X366638Y-4031464D01*
G01X366392Y-4031597D01*
G01X366183Y-4031767D01*
G01X365930Y-4032092D01*
G01X365596Y-4032468D01*
G01X365303Y-4032743D01*
G01X364308Y-4033567D01*
G01X363892Y-4033945D01*
G01X363286Y-4034703D01*
G01X362310Y-4036076D01*
G01X362111Y-4036407D01*
G01X361931Y-4036758D01*
G01X361543Y-4037674D01*
G01X361022Y-4038813D01*
G01X360899Y-4039173D01*
G01X360795Y-4039571D01*
G01X360634Y-4040432D01*
G01X360483Y-4041114D01*
G01X360355Y-4041599D01*
G01X360284Y-4042408D01*
G01X360255Y-4043945D01*
G01X350621Y-4043945D01*
G01X350580Y-4043595D01*
G01X350521Y-4041976D01*
G01X350473Y-4041635D01*
G01X350407Y-4041370D01*
G01X350330Y-4040606D01*
G01X350255Y-4034855D01*
G01X350315Y-4029469D01*
G01X350371Y-4028541D01*
G01X350473Y-4028074D01*
G01X350537Y-4027534D01*
G01X350558Y-4026824D01*
G01X350596Y-4025839D01*
G01X350643Y-4025404D01*
G01X350786Y-4024589D01*
G01X351013Y-4022885D01*
G01X351164Y-4021673D01*
G01X351316Y-4020764D01*
G01X351619Y-4019249D01*
G01X351770Y-4018567D01*
G01X352073Y-4017468D01*
G01X352310Y-4016218D01*
G01X352474Y-4015536D01*
G01X352680Y-4014855D01*
G01X353286Y-4013036D01*
G01X353664Y-4012018D01*
G01X354157Y-4010915D01*
G01X354431Y-4010025D01*
G01X354535Y-4009779D01*
G01X354876Y-4009317D01*
G01X355028Y-4009109D01*
G01X355255Y-4008690D01*
G01X355568Y-4007960D01*
G01X355845Y-4007392D01*
G01X356164Y-4006824D01*
G01X356581Y-4006180D01*
G01X356761Y-4005943D01*
G01X356998Y-4005683D01*
G01X357225Y-4005385D01*
G01X357689Y-4004570D01*
G01X357869Y-4004324D01*
G01X358068Y-4004116D01*
G01X358286Y-4003946D01*
G01X358702Y-4003604D01*
G01X359043Y-4003188D01*
G01X359498Y-4002591D01*
G01X360255Y-4001824D01*
G01X360546Y-4001554D01*
G01X361316Y-4000915D01*
G01X361676Y-4000631D01*
G01X362528Y-4000006D01*
G01X363901Y-3999031D01*
G01X364232Y-3998832D01*
G01X364583Y-3998652D01*
G01X365499Y-3998264D01*
G01X366619Y-3997743D01*
G01X367225Y-3997515D01*
G01X369195Y-3996976D01*
G01X370831Y-3996486D01*
G01X371278Y-3996408D01*
G01X372500Y-3996360D01*
G01X373181Y-3996284D01*
G01X373498Y-3996200D01*
G01X373927Y-3996126D01*
G01X374420Y-3996088D01*
G01X375407Y-3996067D01*
G01X376657Y-3996105D01*
G01X377083Y-3996152D01*
G01X377495Y-3996254D01*
G01X377907Y-3996332D01*
G01X378948Y-3996379D01*
G01X379554Y-3996455D01*
G01X380038Y-3996587D01*
G01X380568Y-3996663D01*
G01X381164Y-3996692D01*
G01X381467Y-3996748D01*
G01X381770Y-3996843D01*
G01X382386Y-3997118D01*
G01X383068Y-3997345D01*
G01X383797Y-3997515D01*
G01X384119Y-3997620D01*
G01X384403Y-3997743D01*
G01X384768Y-3997961D01*
G01X385336Y-3998264D01*
G01X386231Y-3998652D01*
G01X386581Y-3998832D01*
G01X386912Y-3999031D01*
G01X387528Y-3999466D01*
G01X387982Y-3999758D01*
G01X388721Y-4000167D01*
G01X388967Y-4000347D01*
G01X389176Y-4000546D01*
G01X389346Y-4000764D01*
G01X389687Y-4001180D01*
G01X390104Y-4001521D01*
G01X390483Y-4001824D01*
G01X390804Y-4002279D01*
G01X391316Y-4002733D01*
G01X391733Y-4003074D01*
G01X392073Y-4003491D01*
G01X393049Y-4004864D01*
G01X393248Y-4005195D01*
G01X393428Y-4005546D01*
G01X393892Y-4006597D01*
G01X394337Y-4007364D01*
G01X394564Y-4007894D01*
G01X394839Y-4008794D01*
G01X395246Y-4009722D01*
G01X395369Y-4010082D01*
G01X395473Y-4010479D01*
G01X395634Y-4011341D01*
G01X395786Y-4012023D01*
G01X395861Y-4012279D01*
G01X395975Y-4012771D01*
G01X396013Y-4013339D01*
G01X395956Y-4013605D01*
G01X395786Y-4013794D01*
G01X395501Y-4013908D01*
G01X394678Y-4013955D01*
G01X393996Y-4014031D01*
G01X393456Y-4014163D01*
G01X392817Y-4014227D01*
G01X391922Y-4014249D01*
G01X390786Y-4014286D01*
G01X390388Y-4014334D01*
G01X390104Y-4014400D01*
G01X389839Y-4014466D01*
G01X389299Y-4014530D01*
G01X388589Y-4014552D01*
G01X388115Y-4014532D01*
G01X387755Y-4014476D01*
G01X387509Y-4014381D01*
G01X387242Y-4013915D01*
G01X386695Y-4012153D01*
G01X386467Y-4011550D01*
G01X386164Y-4010906D01*
G01X385407Y-4009173D01*
G01X385255Y-4008889D01*
G01X384109Y-4007080D01*
G01X383854Y-4006786D01*
G01X383579Y-4006550D01*
G01X383002Y-4006209D01*
G01X382755Y-4006029D01*
G01X382547Y-4005830D01*
G01X382376Y-4005612D01*
G01X382197Y-4005394D01*
G01X381960Y-4005195D01*
G01X381666Y-4005015D01*
G01X380634Y-4004552D01*
G01X379985Y-4004175D01*
G01X379720Y-4004043D01*
G01X379251Y-4003879D01*
G01X378210Y-4003642D01*
G01X377466Y-4003439D01*
G01X376785Y-4003368D01*
G01X375558Y-4003339D01*
G01X375161Y-4003342D01*
G01X374195Y-4003377D01*
G01X373740Y-4003425D01*
G01X373200Y-4003557D01*
G01X372670Y-4003633D01*
G01X372073Y-4003661D01*
G01X371770Y-4003718D01*
G01X371467Y-4003813D01*
G01X370852Y-4004097D01*
G01X369431Y-4004712D01*
G01X369081Y-4004892D01*
G01X368750Y-4005091D01*
G01X367376Y-4006067D01*
G01X366780Y-4006521D01*
G01X366278Y-4006976D01*
G01X365653Y-4007440D01*
G01X365350Y-4007819D01*
G01X365161Y-4008254D01*
G01X364858Y-4008633D01*
G01X364535Y-4008877D01*
G01X364308Y-4009085D01*
G01X363967Y-4009504D01*
G01X363323Y-4010498D01*
G01X362907Y-4010998D01*
G01X362755Y-4011206D01*
G01X362528Y-4011625D01*
G01X362149Y-4012523D01*
G01X361619Y-4013652D01*
G01X361164Y-4014703D01*
G01X360937Y-4015314D01*
G01X360558Y-4016521D01*
G01X360104Y-4018036D01*
G01X359952Y-4018642D01*
G01X359725Y-4020044D01*
G01X359573Y-4020801D01*
G01X359462Y-4021187D01*
G01X359384Y-4021635D01*
G01X359337Y-4022856D01*
G01X359261Y-4023538D01*
G01X359195Y-4023794D01*
G01X359072Y-4024785D01*
G01X359005Y-4027809D01*
G01X358927Y-4028505D01*
G01X358856Y-4028763D01*
G01X358778Y-4029211D01*
G01X358740Y-4030006D01*
G01X358768Y-4030385D01*
G01X358996Y-4030688D01*
G01X359403Y-4030451D01*
G01X359706Y-4030072D01*
G01X359895Y-4029637D01*
G01X360198Y-4029258D01*
G01X360407Y-4029097D01*
G01X360824Y-4028756D01*
G01X361325Y-4028121D01*
G01X361704Y-4027743D01*
G01X362339Y-4027241D01*
G01X362841Y-4026606D01*
G01X363219Y-4026228D01*
G01X363655Y-4025915D01*
G01X364275Y-4025385D01*
G01X364574Y-4025158D01*
G01X365407Y-4024693D01*
G01X365861Y-4024417D01*
G01X366638Y-4023879D01*
G01X366998Y-4023680D01*
G01X367396Y-4023500D01*
G01X367831Y-4023339D01*
G01X368849Y-4022960D01*
G01X369659Y-4022591D01*
G01X370340Y-4022364D01*
G01X371392Y-4022127D01*
G01X372414Y-4021862D01*
G01X373276Y-4021815D01*
G01X373806Y-4021739D01*
G01X374308Y-4021606D01*
G01X374848Y-4021542D01*
G01X375558Y-4021521D01*
G01X376089Y-4021531D01*
G01X376884Y-4021580D01*
G01X377679Y-4021673D01*
G01X379801Y-4021976D01*
G01X380331Y-4022061D01*
G01X381126Y-4022224D01*
G01X381922Y-4022430D01*
G01X382654Y-4022657D01*
G01X383257Y-4022885D01*
G01X383901Y-4023188D01*
G01X385634Y-4023945D01*
G01X385918Y-4024097D01*
G01X386657Y-4024552D01*
G01X387509Y-4025006D01*
G01X387964Y-4025309D01*
G01X388295Y-4025612D01*
G01X388892Y-4026067D01*
G01X389488Y-4026521D01*
G01X389990Y-4026976D01*
G01X390523Y-4027362D01*
G01X390899Y-4027696D01*
G01X391174Y-4027989D01*
G01X391467Y-4028339D01*
G01X392964Y-4030214D01*
G01X393588Y-4031067D01*
G01X394270Y-4032094D01*
G01X394574Y-4032662D01*
G01X395104Y-4033870D01*
G01X395480Y-4034518D01*
G01X395613Y-4034783D01*
G01X395776Y-4035252D01*
G01X395861Y-4035612D01*
G01X396051Y-4036332D01*
G01X396389Y-4037134D01*
G01X396581Y-4037696D01*
G01X396685Y-4038141D01*
G01X396846Y-4039135D01*
G01X396998Y-4039892D01*
G01X397083Y-4040189D01*
G01X397172Y-4041027D01*
G01X397225Y-4044097D01*
G01X397166Y-4047269D01*
G01X397109Y-4047875D01*
G01X396922Y-4048718D01*
G01X396730Y-4050188D01*
G01X396581Y-4051104D01*
G01X396458Y-4051644D01*
G01X396316Y-4052127D01*
G01X395710Y-4053945D01*
G01X395331Y-4054963D01*
G01X394952Y-4055773D01*
G01X394195Y-4057506D01*
G01X394043Y-4057790D01*
G01X393588Y-4058529D01*
G01X393134Y-4059381D01*
G01X392831Y-4059836D01*
G01X392604Y-4060087D01*
G01X392376Y-4060385D01*
G01X391913Y-4061199D01*
G01X391733Y-4061446D01*
G01X391534Y-4061654D01*
G01X391098Y-4061985D01*
G01X390719Y-4062364D01*
G01X390217Y-4062998D01*
G01X389583Y-4063500D01*
G01X389204Y-4063879D01*
G01X388960Y-4064211D01*
G01X388752Y-4064438D01*
G01X388333Y-4064779D01*
G01X387263Y-4065460D01*
G01X386306Y-4066133D01*
G01X385975Y-4066332D01*
G01X385625Y-4066512D01*
G01X384574Y-4066976D01*
G01X383806Y-4067421D01*
G01X383276Y-4067648D01*
G01X382376Y-4067923D01*
G01X381612Y-4068261D01*
G01X381051Y-4068453D01*
G01X380606Y-4068557D01*
G01X379611Y-4068718D01*
G01X378854Y-4068870D01*
G01X378430Y-4068981D01*
G01X377640Y-4069049D01*
G37*
G36*
G01X172672Y-4068981D02*
G01X171882Y-4069049D01*
G01X169043Y-4069097D01*
G01X165942Y-4069038D01*
G01X165298Y-4068981D01*
G01X163437Y-4068491D01*
G01X161685Y-4067961D01*
G01X160568Y-4067648D01*
G01X160037Y-4067421D01*
G01X159682Y-4067203D01*
G01X159114Y-4066900D01*
G01X157907Y-4066370D01*
G01X156164Y-4065309D01*
G01X155520Y-4064892D01*
G01X154812Y-4064282D01*
G01X154043Y-4063642D01*
G01X153683Y-4063358D01*
G01X152831Y-4062733D01*
G01X152414Y-4062392D01*
G01X152073Y-4061976D01*
G01X151619Y-4061379D01*
G01X151164Y-4060877D01*
G01X150710Y-4060243D01*
G01X150179Y-4059623D01*
G01X149952Y-4059324D01*
G01X149488Y-4058481D01*
G01X148891Y-4057430D01*
G01X148572Y-4056883D01*
G01X148134Y-4056067D01*
G01X147982Y-4055754D01*
G01X147452Y-4054511D01*
G01X146922Y-4053036D01*
G01X146316Y-4051067D01*
G01X145861Y-4049551D01*
G01X145710Y-4048908D01*
G01X145482Y-4047326D01*
G01X145331Y-4046493D01*
G01X145141Y-4045726D01*
G01X145094Y-4044864D01*
G01X145028Y-4044400D01*
G01X154498Y-4044400D01*
G01X154535Y-4045991D01*
G01X154614Y-4046687D01*
G01X154715Y-4047061D01*
G01X154791Y-4047591D01*
G01X154843Y-4048403D01*
G01X154919Y-4048820D01*
G01X155104Y-4049551D01*
G01X155634Y-4051303D01*
G01X155946Y-4052421D01*
G01X156174Y-4052951D01*
G01X156392Y-4053306D01*
G01X156695Y-4053874D01*
G01X157073Y-4054750D01*
G01X157376Y-4055281D01*
G01X157604Y-4055541D01*
G01X157831Y-4055839D01*
G01X158295Y-4056654D01*
G01X158475Y-4056900D01*
G01X158674Y-4057108D01*
G01X159109Y-4057440D01*
G01X159488Y-4057819D01*
G01X159732Y-4058152D01*
G01X160066Y-4058529D01*
G01X160359Y-4058803D01*
G01X160710Y-4059097D01*
G01X161429Y-4059627D01*
G01X161761Y-4059836D01*
G01X162642Y-4060309D01*
G01X163255Y-4060688D01*
G01X163880Y-4060991D01*
G01X164498Y-4061218D01*
G01X165861Y-4061673D01*
G01X166770Y-4061786D01*
G01X168588Y-4061824D01*
G01X168588Y-4061824D01*
G01X170080Y-4061803D01*
G01X171145Y-4061739D01*
G01X171619Y-4061673D01*
G01X172414Y-4061483D01*
G01X173285Y-4061218D01*
G01X173731Y-4061057D01*
G01X174157Y-4060877D01*
G01X174564Y-4060678D01*
G01X174952Y-4060461D01*
G01X176467Y-4059551D01*
G01X176818Y-4059324D01*
G01X177111Y-4059097D01*
G01X177348Y-4058870D01*
G01X177689Y-4058425D01*
G01X178068Y-4058046D01*
G01X178401Y-4057802D01*
G01X178778Y-4057468D01*
G01X179052Y-4057175D01*
G01X179346Y-4056824D01*
G01X180044Y-4055877D01*
G01X180407Y-4055309D01*
G01X180726Y-4054762D01*
G01X181164Y-4053945D01*
G01X181467Y-4053264D01*
G01X181770Y-4052430D01*
G01X182225Y-4051067D01*
G01X182338Y-4050574D01*
G01X182386Y-4049712D01*
G01X182462Y-4049182D01*
G01X182579Y-4048711D01*
G01X182641Y-4048036D01*
G01X182679Y-4046218D01*
G01X182670Y-4045158D01*
G01X182594Y-4043491D01*
G01X182528Y-4042885D01*
G01X182225Y-4041067D01*
G01X182073Y-4040385D01*
G01X181770Y-4039324D01*
G01X181534Y-4038282D01*
G01X181429Y-4037961D01*
G01X181306Y-4037676D01*
G01X181089Y-4037312D01*
G01X180786Y-4036744D01*
G01X180388Y-4035839D01*
G01X180179Y-4035461D01*
G01X179933Y-4035082D01*
G01X179365Y-4034343D01*
G01X178579Y-4033283D01*
G01X178200Y-4032979D01*
G01X177765Y-4032790D01*
G01X177386Y-4032487D01*
G01X177225Y-4032279D01*
G01X177055Y-4032061D01*
G01X176846Y-4031862D01*
G01X176600Y-4031682D01*
G01X176013Y-4031360D01*
G01X175558Y-4031083D01*
G01X174791Y-4030555D01*
G01X174460Y-4030385D01*
G01X174109Y-4030252D01*
G01X173371Y-4030072D01*
G01X172689Y-4029845D01*
G01X172244Y-4029649D01*
G01X171440Y-4029496D01*
G01X170667Y-4029436D01*
G01X169043Y-4029400D01*
G01X168390Y-4029405D01*
G01X166770Y-4029476D01*
G01X165975Y-4029570D01*
G01X165407Y-4029703D01*
G01X162831Y-4030612D01*
G01X162452Y-4030773D01*
G01X161884Y-4031050D01*
G01X161316Y-4031370D01*
G01X160672Y-4031786D01*
G01X160435Y-4031966D01*
G01X160094Y-4032279D01*
G01X159498Y-4032733D01*
G01X159081Y-4033074D01*
G01X158579Y-4033709D01*
G01X158200Y-4034087D01*
G01X157869Y-4034331D01*
G01X157642Y-4034540D01*
G01X157301Y-4034959D01*
G01X157073Y-4035309D01*
G01X156174Y-4036758D01*
G01X155946Y-4037288D01*
G01X155672Y-4038188D01*
G01X155333Y-4038953D01*
G01X155141Y-4039514D01*
G01X155037Y-4039959D01*
G01X154876Y-4040953D01*
G01X154725Y-4041710D01*
G01X154598Y-4042199D01*
G01X154526Y-4042967D01*
G01X154498Y-4044400D01*
G01X145028Y-4044400D01*
G01X145019Y-4044334D01*
G01X144886Y-4043822D01*
G01X144822Y-4043233D01*
G01X144763Y-4041407D01*
G01X144715Y-4041038D01*
G01X144649Y-4040764D01*
G01X144569Y-4039991D01*
G01X144498Y-4034855D01*
G01X144557Y-4029989D01*
G01X144614Y-4029137D01*
G01X144715Y-4028680D01*
G01X144779Y-4028141D01*
G01X144810Y-4026900D01*
G01X144860Y-4026104D01*
G01X144952Y-4025309D01*
G01X145558Y-4021067D01*
G01X145634Y-4020574D01*
G01X145785Y-4019817D01*
G01X146013Y-4018908D01*
G01X146249Y-4017317D01*
G01X146354Y-4016824D01*
G01X146477Y-4016408D01*
G01X146761Y-4015754D01*
G01X146988Y-4015072D01*
G01X147263Y-4013908D01*
G01X147528Y-4013036D01*
G01X147907Y-4012018D01*
G01X148285Y-4011209D01*
G01X149043Y-4009476D01*
G01X149422Y-4008827D01*
G01X149725Y-4008259D01*
G01X150123Y-4007354D01*
G01X150331Y-4006976D01*
G01X150577Y-4006597D01*
G01X150861Y-4006218D01*
G01X151560Y-4005271D01*
G01X152149Y-4004353D01*
G01X152376Y-4004059D01*
G01X152604Y-4003822D01*
G01X153049Y-4003481D01*
G01X153427Y-4003102D01*
G01X153929Y-4002468D01*
G01X154564Y-4001966D01*
G01X154943Y-4001587D01*
G01X155186Y-4001256D01*
G01X155395Y-4001029D01*
G01X155814Y-4000688D01*
G01X156884Y-4000006D01*
G01X157831Y-3999334D01*
G01X158285Y-3999043D01*
G01X159308Y-3998491D01*
G01X159919Y-3998114D01*
G01X160184Y-3997982D01*
G01X160653Y-3997819D01*
G01X161382Y-3997648D01*
G01X162064Y-3997421D01*
G01X162698Y-3997137D01*
G01X163058Y-3997014D01*
G01X163456Y-3996909D01*
G01X164318Y-3996748D01*
G01X164999Y-3996597D01*
G01X165374Y-3996486D01*
G01X165786Y-3996408D01*
G01X166827Y-3996360D01*
G01X167433Y-3996284D01*
G01X167740Y-3996200D01*
G01X168169Y-3996126D01*
G01X168662Y-3996088D01*
G01X169649Y-3996067D01*
G01X170899Y-3996105D01*
G01X171325Y-3996152D01*
G01X171737Y-3996254D01*
G01X172149Y-3996332D01*
G01X173191Y-3996379D01*
G01X173797Y-3996455D01*
G01X174280Y-3996587D01*
G01X174810Y-3996663D01*
G01X175407Y-3996692D01*
G01X175710Y-3996748D01*
G01X176013Y-3996843D01*
G01X176628Y-3997118D01*
G01X177310Y-3997345D01*
G01X178039Y-3997515D01*
G01X178361Y-3997620D01*
G01X178645Y-3997743D01*
G01X179010Y-3997961D01*
G01X179578Y-3998264D01*
G01X180786Y-3998794D01*
G01X181543Y-3999239D01*
G01X181998Y-3999466D01*
G01X182443Y-3999646D01*
G01X182822Y-3999949D01*
G01X183065Y-4000271D01*
G01X183274Y-4000498D01*
G01X183693Y-4000839D01*
G01X184393Y-4001294D01*
G01X184687Y-4001521D01*
G01X184924Y-4001748D01*
G01X185104Y-4001976D01*
G01X185558Y-4002572D01*
G01X186013Y-4003074D01*
G01X187291Y-4004855D01*
G01X187582Y-4005309D01*
G01X188134Y-4006332D01*
G01X188510Y-4006942D01*
G01X188643Y-4007208D01*
G01X188806Y-4007677D01*
G01X188891Y-4008036D01*
G01X189081Y-4008756D01*
G01X189488Y-4009713D01*
G01X189715Y-4010394D01*
G01X189952Y-4011445D01*
G01X190170Y-4012222D01*
G01X190246Y-4012828D01*
G01X190243Y-4013365D01*
G01X190149Y-4013650D01*
G01X189959Y-4013839D01*
G01X189675Y-4013934D01*
G01X189138Y-4013955D01*
G01X188532Y-4014031D01*
G01X188224Y-4014115D01*
G01X187795Y-4014189D01*
G01X187303Y-4014227D01*
G01X186316Y-4014249D01*
G01X185066Y-4014286D01*
G01X184640Y-4014334D01*
G01X184225Y-4014435D01*
G01X183778Y-4014514D01*
G01X182982Y-4014552D01*
G01X182566Y-4014532D01*
G01X182225Y-4014476D01*
G01X181960Y-4014381D01*
G01X181695Y-4014161D01*
G01X181543Y-4013915D01*
G01X181316Y-4013368D01*
G01X180861Y-4011900D01*
G01X180558Y-4011067D01*
G01X179952Y-4009552D01*
G01X179801Y-4009201D01*
G01X179497Y-4008671D01*
G01X179268Y-4008408D01*
G01X178908Y-4007935D01*
G01X178361Y-4007080D01*
G01X178134Y-4006786D01*
G01X177907Y-4006550D01*
G01X177462Y-4006218D01*
G01X176841Y-4005688D01*
G01X176543Y-4005461D01*
G01X175700Y-4004997D01*
G01X174270Y-4004192D01*
G01X173891Y-4004021D01*
G01X173513Y-4003889D01*
G01X172452Y-4003642D01*
G01X171861Y-4003473D01*
G01X171432Y-4003399D01*
G01X170939Y-4003361D01*
G01X169952Y-4003339D01*
G01X168922Y-4003361D01*
G01X168106Y-4003425D01*
G01X167679Y-4003491D01*
G01X166164Y-4003794D01*
G01X165786Y-4003879D01*
G01X165217Y-4004043D01*
G01X164649Y-4004249D01*
G01X163967Y-4004552D01*
G01X163210Y-4004997D01*
G01X162755Y-4005224D01*
G01X162310Y-4005404D01*
G01X161931Y-4005707D01*
G01X161688Y-4006029D01*
G01X161479Y-4006256D01*
G01X161060Y-4006597D01*
G01X160359Y-4007061D01*
G01X160066Y-4007317D01*
G01X159829Y-4007591D01*
G01X159488Y-4008169D01*
G01X159308Y-4008415D01*
G01X159109Y-4008623D01*
G01X158891Y-4008794D01*
G01X158674Y-4008964D01*
G01X158475Y-4009173D01*
G01X158295Y-4009419D01*
G01X157973Y-4010006D01*
G01X157696Y-4010461D01*
G01X157158Y-4011228D01*
G01X156960Y-4011559D01*
G01X156780Y-4011909D01*
G01X156316Y-4012960D01*
G01X155937Y-4013611D01*
G01X155634Y-4014237D01*
G01X155407Y-4014855D01*
G01X154346Y-4018036D01*
G01X154195Y-4018680D01*
G01X153967Y-4020262D01*
G01X153816Y-4021095D01*
G01X153705Y-4021490D01*
G01X153626Y-4021938D01*
G01X153579Y-4023159D01*
G01X153503Y-4023841D01*
G01X153402Y-4024241D01*
G01X153323Y-4025044D01*
G01X153285Y-4026976D01*
G01X153323Y-4028908D01*
G01X153371Y-4029504D01*
G01X153437Y-4029855D01*
G01X153615Y-4030046D01*
G01X153920Y-4029940D01*
G01X154479Y-4029410D01*
G01X154933Y-4028879D01*
G01X155104Y-4028642D01*
G01X155444Y-4028226D01*
G01X156079Y-4027724D01*
G01X156458Y-4027345D01*
G01X156702Y-4027011D01*
G01X157036Y-4026635D01*
G01X157329Y-4026360D01*
G01X158039Y-4025783D01*
G01X158891Y-4025158D01*
G01X160104Y-4024400D01*
G01X160650Y-4024080D01*
G01X161467Y-4023642D01*
G01X161780Y-4023491D01*
G01X162831Y-4023036D01*
G01X163442Y-4022809D01*
G01X164649Y-4022430D01*
G01X166164Y-4021976D01*
G01X166657Y-4021862D01*
G01X167518Y-4021815D01*
G01X168049Y-4021739D01*
G01X168551Y-4021606D01*
G01X169090Y-4021542D01*
G01X169801Y-4021521D01*
G01X170787Y-4021550D01*
G01X172225Y-4021673D01*
G01X172850Y-4021748D01*
G01X173759Y-4021900D01*
G01X174611Y-4022127D01*
G01X175861Y-4022364D01*
G01X176543Y-4022527D01*
G01X177225Y-4022733D01*
G01X178020Y-4023036D01*
G01X178333Y-4023188D01*
G01X178707Y-4023415D01*
G01X179275Y-4023718D01*
G01X180482Y-4024248D01*
G01X181240Y-4024693D01*
G01X181695Y-4024921D01*
G01X182140Y-4025101D01*
G01X182518Y-4025404D01*
G01X182840Y-4025820D01*
G01X183219Y-4026124D01*
G01X183655Y-4026313D01*
G01X184034Y-4026616D01*
G01X184355Y-4027042D01*
G01X184734Y-4027421D01*
G01X185068Y-4027665D01*
G01X185445Y-4027999D01*
G01X185719Y-4028292D01*
G01X186013Y-4028642D01*
G01X187225Y-4030158D01*
G01X187755Y-4030877D01*
G01X187964Y-4031209D01*
G01X188285Y-4031805D01*
G01X188588Y-4032260D01*
G01X188882Y-4032601D01*
G01X189109Y-4033055D01*
G01X189280Y-4033633D01*
G01X189507Y-4034163D01*
G01X189723Y-4034518D01*
G01X189855Y-4034783D01*
G01X190018Y-4035252D01*
G01X190189Y-4035982D01*
G01X190416Y-4036663D01*
G01X190700Y-4037298D01*
G01X190823Y-4037658D01*
G01X190927Y-4038055D01*
G01X191089Y-4038917D01*
G01X191240Y-4039599D01*
G01X191382Y-4040120D01*
G01X191446Y-4040659D01*
G01X191477Y-4041900D01*
G01X191526Y-4042695D01*
G01X191676Y-4043983D01*
G01X191695Y-4044400D01*
G01X191676Y-4044741D01*
G01X191583Y-4045124D01*
G01X191505Y-4045536D01*
G01X191446Y-4046872D01*
G01X191316Y-4048339D01*
G01X191240Y-4048964D01*
G01X191089Y-4049874D01*
G01X190861Y-4050764D01*
G01X190575Y-4052404D01*
G01X190461Y-4052821D01*
G01X190329Y-4053181D01*
G01X189952Y-4054021D01*
G01X189649Y-4054854D01*
G01X189346Y-4055650D01*
G01X189194Y-4055962D01*
G01X188967Y-4056337D01*
G01X188664Y-4056905D01*
G01X188276Y-4057809D01*
G01X187999Y-4058377D01*
G01X187679Y-4058945D01*
G01X187187Y-4059703D01*
G01X186619Y-4060461D01*
G01X186335Y-4060820D01*
G01X185629Y-4061786D01*
G01X185331Y-4062127D01*
G01X184517Y-4062809D01*
G01X184062Y-4063264D01*
G01X183809Y-4063607D01*
G01X183475Y-4063983D01*
G01X183181Y-4064258D01*
G01X182471Y-4064836D01*
G01X181619Y-4065460D01*
G01X180217Y-4066370D01*
G01X179081Y-4066976D01*
G01X178470Y-4067352D01*
G01X178205Y-4067485D01*
G01X177736Y-4067648D01*
G01X177376Y-4067733D01*
G01X176657Y-4067923D01*
G01X175854Y-4068261D01*
G01X175293Y-4068453D01*
G01X174848Y-4068557D01*
G01X173854Y-4068718D01*
G01X173096Y-4068870D01*
G01X172672Y-4068981D01*
G37*
G36*
G01X116133Y-4068955D02*
G01X115245Y-4069043D01*
G01X111922Y-4069097D01*
G01X109043Y-4069059D01*
G01X108286Y-4069012D01*
G01X107983Y-4068945D01*
G01X107379Y-4068756D01*
G01X106051Y-4068557D01*
G01X105558Y-4068453D01*
G01X105142Y-4068330D01*
G01X104488Y-4068046D01*
G01X103806Y-4067819D01*
G01X103077Y-4067648D01*
G01X102755Y-4067544D01*
G01X102471Y-4067421D01*
G01X102106Y-4067203D01*
G01X101538Y-4066900D01*
G01X100634Y-4066512D01*
G01X100066Y-4066235D01*
G01X99498Y-4065915D01*
G01X98853Y-4065498D01*
G01X98276Y-4065015D01*
G01X97897Y-4064788D01*
G01X97462Y-4064608D01*
G01X97083Y-4064305D01*
G01X96922Y-4064097D01*
G01X96581Y-4063680D01*
G01X95946Y-4063178D01*
G01X95568Y-4062800D01*
G01X95066Y-4062165D01*
G01X94431Y-4061663D01*
G01X94052Y-4061284D01*
G01X92916Y-4059703D01*
G01X92625Y-4059248D01*
G01X92215Y-4058481D01*
G01X91401Y-4057052D01*
G01X91110Y-4056483D01*
G01X90785Y-4055723D01*
G01X90255Y-4054248D01*
G01X89801Y-4052885D01*
G01X89649Y-4052241D01*
G01X89498Y-4051218D01*
G01X89441Y-4050659D01*
G01X89422Y-4050195D01*
G01X89441Y-4049826D01*
G01X89498Y-4049551D01*
G01X89725Y-4049173D01*
G01X90104Y-4048945D01*
G01X90596Y-4048832D01*
G01X91458Y-4048784D01*
G01X91988Y-4048709D01*
G01X92717Y-4048529D01*
G01X93285Y-4048491D01*
G01X94102Y-4048432D01*
G01X95066Y-4048264D01*
G01X96770Y-4048036D01*
G01X98134Y-4047885D01*
G01X98285Y-4048794D01*
G01X98475Y-4049741D01*
G01X98740Y-4050764D01*
G01X99043Y-4051749D01*
G01X99346Y-4052582D01*
G01X99952Y-4054097D01*
G01X100104Y-4054447D01*
G01X100407Y-4054978D01*
G01X100700Y-4055328D01*
G01X100927Y-4055783D01*
G01X101107Y-4056351D01*
G01X101240Y-4056597D01*
G01X101411Y-4056805D01*
G01X101619Y-4056976D01*
G01X101836Y-4057146D01*
G01X102035Y-4057355D01*
G01X102215Y-4057601D01*
G01X102537Y-4058169D01*
G01X102717Y-4058415D01*
G01X102916Y-4058624D01*
G01X103352Y-4058945D01*
G01X103972Y-4059476D01*
G01X104270Y-4059703D01*
G01X105369Y-4060309D01*
G01X105982Y-4060688D01*
G01X106607Y-4060991D01*
G01X107225Y-4061218D01*
G01X108709Y-4061708D01*
G01X109157Y-4061786D01*
G01X110378Y-4061834D01*
G01X111060Y-4061910D01*
G01X111533Y-4062033D01*
G01X111912Y-4062033D01*
G01X112159Y-4061940D01*
G01X112869Y-4061834D01*
G01X114157Y-4061786D01*
G01X114564Y-4061739D01*
G01X115748Y-4061483D01*
G01X116844Y-4061142D01*
G01X118286Y-4060612D01*
G01X118664Y-4060451D01*
G01X119232Y-4060174D01*
G01X119801Y-4059854D01*
G01X120445Y-4059438D01*
G01X121152Y-4058827D01*
G01X122566Y-4057658D01*
G01X122982Y-4057279D01*
G01X123252Y-4056988D01*
G01X123892Y-4056218D01*
G01X124422Y-4055498D01*
G01X124630Y-4055167D01*
G01X125104Y-4054286D01*
G01X125480Y-4053676D01*
G01X125613Y-4053410D01*
G01X125776Y-4052942D01*
G01X125946Y-4052212D01*
G01X126174Y-4051531D01*
G01X126448Y-4050906D01*
G01X126543Y-4050574D01*
G01X126600Y-4050224D01*
G01X126628Y-4049476D01*
G01X126678Y-4048908D01*
G01X126827Y-4047979D01*
G01X126846Y-4047658D01*
G01X126827Y-4047373D01*
G01X126704Y-4046862D01*
G01X126640Y-4046322D01*
G01X126581Y-4044703D01*
G01X126534Y-4044362D01*
G01X126467Y-4044097D01*
G01X126316Y-4043567D01*
G01X126079Y-4042506D01*
G01X125916Y-4041938D01*
G01X125710Y-4041370D01*
G01X125407Y-4040688D01*
G01X124962Y-4039930D01*
G01X124734Y-4039476D01*
G01X124554Y-4039031D01*
G01X124251Y-4038652D01*
G01X123929Y-4038408D01*
G01X123702Y-4038200D01*
G01X123361Y-4037781D01*
G01X122907Y-4037089D01*
G01X122679Y-4036824D01*
G01X122452Y-4036635D01*
G01X122007Y-4036427D01*
G01X121628Y-4036123D01*
G01X121467Y-4035915D01*
G01X121297Y-4035697D01*
G01X121088Y-4035498D01*
G01X120842Y-4035319D01*
G01X119990Y-4034855D01*
G01X119379Y-4034478D01*
G01X119114Y-4034345D01*
G01X118645Y-4034182D01*
G01X117916Y-4034012D01*
G01X117234Y-4033784D01*
G01X116609Y-4033510D01*
G01X116278Y-4033415D01*
G01X115927Y-4033358D01*
G01X115198Y-4033330D01*
G01X114592Y-4033254D01*
G01X114109Y-4033121D01*
G01X113579Y-4033046D01*
G01X112833Y-4033051D01*
G01X111316Y-4033188D01*
G01X110691Y-4033264D01*
G01X109782Y-4033415D01*
G01X108854Y-4033642D01*
G01X107831Y-4033794D01*
G01X107310Y-4033832D01*
G01X106960Y-4033794D01*
G01X106770Y-4033491D01*
G01X106884Y-4032961D01*
G01X106931Y-4031919D01*
G01X107007Y-4031313D01*
G01X107109Y-4030948D01*
G01X107187Y-4030536D01*
G01X107234Y-4029495D01*
G01X107310Y-4028889D01*
G01X107443Y-4028387D01*
G01X107518Y-4027705D01*
G01X107528Y-4026370D01*
G01X109498Y-4026370D01*
G01X111088Y-4026332D01*
G01X111600Y-4026285D01*
G01X111922Y-4026218D01*
G01X112490Y-4026067D01*
G01X113740Y-4025830D01*
G01X114422Y-4025667D01*
G01X115104Y-4025461D01*
G01X116122Y-4025082D01*
G01X116619Y-4024855D01*
G01X117831Y-4024248D01*
G01X118399Y-4023945D01*
G01X118892Y-4023642D01*
G01X119801Y-4023036D01*
G01X120037Y-4022866D01*
G01X120428Y-4022539D01*
G01X120861Y-4022127D01*
G01X121145Y-4021834D01*
G01X121600Y-4021303D01*
G01X121770Y-4021067D01*
G01X122528Y-4019855D01*
G01X122736Y-4019476D01*
G01X122907Y-4019097D01*
G01X123039Y-4018718D01*
G01X123286Y-4017657D01*
G01X123455Y-4017066D01*
G01X123529Y-4016637D01*
G01X123567Y-4016145D01*
G01X123589Y-4015158D01*
G01X123551Y-4013908D01*
G01X123503Y-4013481D01*
G01X123371Y-4012951D01*
G01X123295Y-4012421D01*
G01X123266Y-4011824D01*
G01X123210Y-4011521D01*
G01X123115Y-4011218D01*
G01X122831Y-4010603D01*
G01X122215Y-4009173D01*
G01X121938Y-4008604D01*
G01X121619Y-4008036D01*
G01X121391Y-4007686D01*
G01X121164Y-4007392D01*
G01X120937Y-4007156D01*
G01X120492Y-4006815D01*
G01X120113Y-4006436D01*
G01X119869Y-4006105D01*
G01X119661Y-4005877D01*
G01X119242Y-4005536D01*
G01X118892Y-4005309D01*
G01X117414Y-4004400D01*
G01X116875Y-4004173D01*
G01X116164Y-4003946D01*
G01X114425Y-4003439D01*
G01X113658Y-4003368D01*
G01X112225Y-4003339D01*
G01X110634Y-4003377D01*
G01X110122Y-4003425D01*
G01X109801Y-4003491D01*
G01X109232Y-4003642D01*
G01X107992Y-4003879D01*
G01X107566Y-4003983D01*
G01X107159Y-4004106D01*
G01X106770Y-4004249D01*
G01X106088Y-4004552D01*
G01X104346Y-4005612D01*
G01X103996Y-4005839D01*
G01X103702Y-4006067D01*
G01X103465Y-4006294D01*
G01X103125Y-4006739D01*
G01X102746Y-4007118D01*
G01X102310Y-4007449D01*
G01X102111Y-4007657D01*
G01X101931Y-4007904D01*
G01X101609Y-4008491D01*
G01X101332Y-4008945D01*
G01X100795Y-4009722D01*
G01X100596Y-4010082D01*
G01X100416Y-4010479D01*
G01X100255Y-4010915D01*
G01X99195Y-4014097D01*
G01X99052Y-4014864D01*
G01X99024Y-4015432D01*
G01X98873Y-4015811D01*
G01X98657Y-4015948D01*
G01X98184Y-4015986D01*
G01X97679Y-4015915D01*
G01X96164Y-4015612D01*
G01X92528Y-4015006D01*
G01X91013Y-4014703D01*
G01X90691Y-4014589D01*
G01X90482Y-4014400D01*
G01X90388Y-4014135D01*
G01X90407Y-4013794D01*
G01X90596Y-4012998D01*
G01X90861Y-4012127D01*
G01X91770Y-4009400D01*
G01X92073Y-4008604D01*
G01X92225Y-4008292D01*
G01X92452Y-4007918D01*
G01X92755Y-4007350D01*
G01X93143Y-4006455D01*
G01X93323Y-4006105D01*
G01X93522Y-4005773D01*
G01X93948Y-4005167D01*
G01X94251Y-4004637D01*
G01X94441Y-4004182D01*
G01X94744Y-4003803D01*
G01X94952Y-4003642D01*
G01X95369Y-4003301D01*
G01X95871Y-4002667D01*
G01X96249Y-4002288D01*
G01X96884Y-4001786D01*
G01X97386Y-4001152D01*
G01X97765Y-4000773D01*
G01X98200Y-4000461D01*
G01X98820Y-3999930D01*
G01X99119Y-3999703D01*
G01X99933Y-3999249D01*
G01X100388Y-3998946D01*
G01X100738Y-3998642D01*
G01X100975Y-3998491D01*
G01X101619Y-3998188D01*
G01X103134Y-3997582D01*
G01X104346Y-3997127D01*
G01X104876Y-3996976D01*
G01X106240Y-3996673D01*
G01X106889Y-3996486D01*
G01X107301Y-3996408D01*
G01X108342Y-3996360D01*
G01X108948Y-3996284D01*
G01X109479Y-3996152D01*
G01X110118Y-3996088D01*
G01X111013Y-3996067D01*
G01X112149Y-3996105D01*
G01X112547Y-3996152D01*
G01X112831Y-3996218D01*
G01X113323Y-3996332D01*
G01X113892Y-3996370D01*
G01X114708Y-3996429D01*
G01X115255Y-3996521D01*
G01X116770Y-3996824D01*
G01X117452Y-3996976D01*
G01X118513Y-3997279D01*
G01X119554Y-3997515D01*
G01X119876Y-3997620D01*
G01X120161Y-3997743D01*
G01X120407Y-3997885D01*
G01X120899Y-3998150D01*
G01X121761Y-3998425D01*
G01X122291Y-3998652D01*
G01X123020Y-3999097D01*
G01X123742Y-3999480D01*
G01X124405Y-3999897D01*
G01X125312Y-4000593D01*
G01X126164Y-4001218D01*
G01X126581Y-4001559D01*
G01X127083Y-4002193D01*
G01X127462Y-4002572D01*
G01X127795Y-4002816D01*
G01X128172Y-4003150D01*
G01X128447Y-4003444D01*
G01X128740Y-4003794D01*
G01X129438Y-4004741D01*
G01X130558Y-4006521D01*
G01X130823Y-4007014D01*
G01X131098Y-4007885D01*
G01X131325Y-4008491D01*
G01X131733Y-4009400D01*
G01X131922Y-4010006D01*
G01X132260Y-4011187D01*
G01X132339Y-4011635D01*
G01X132386Y-4012856D01*
G01X132462Y-4013538D01*
G01X132561Y-4013917D01*
G01X132599Y-4014220D01*
G01X132585Y-4014817D01*
G01X132528Y-4015309D01*
G01X132225Y-4017430D01*
G01X132140Y-4017951D01*
G01X131976Y-4018697D01*
G01X131770Y-4019400D01*
G01X131467Y-4020195D01*
G01X131316Y-4020508D01*
G01X131088Y-4020882D01*
G01X130785Y-4021450D01*
G01X130407Y-4022326D01*
G01X130104Y-4022856D01*
G01X129874Y-4023119D01*
G01X129514Y-4023593D01*
G01X128967Y-4024447D01*
G01X128740Y-4024741D01*
G01X128513Y-4024978D01*
G01X128285Y-4025158D01*
G01X127869Y-4025498D01*
G01X127367Y-4026133D01*
G01X126988Y-4026512D01*
G01X125407Y-4027648D01*
G01X124952Y-4027939D01*
G01X123929Y-4028491D01*
G01X123437Y-4028794D01*
G01X123210Y-4029097D01*
G01X123437Y-4029400D01*
G01X124183Y-4029779D01*
G01X125025Y-4030082D01*
G01X126467Y-4030612D01*
G01X126846Y-4030773D01*
G01X127414Y-4031050D01*
G01X127982Y-4031370D01*
G01X128626Y-4031786D01*
G01X129204Y-4032269D01*
G01X129583Y-4032497D01*
G01X130018Y-4032676D01*
G01X130397Y-4032979D01*
G01X130558Y-4033188D01*
G01X130899Y-4033605D01*
G01X131534Y-4034106D01*
G01X131912Y-4034485D01*
G01X133049Y-4036067D01*
G01X133340Y-4036521D01*
G01X133892Y-4037544D01*
G01X134337Y-4038273D01*
G01X134564Y-4038803D01*
G01X134838Y-4039703D01*
G01X135246Y-4040631D01*
G01X135369Y-4040991D01*
G01X135473Y-4041389D01*
G01X135634Y-4042250D01*
G01X135785Y-4042932D01*
G01X135913Y-4043422D01*
G01X135975Y-4044097D01*
G01X136013Y-4045915D01*
G01X135954Y-4048401D01*
G01X135861Y-4049551D01*
G01X135776Y-4050214D01*
G01X135613Y-4051138D01*
G01X135407Y-4051976D01*
G01X134876Y-4053728D01*
G01X134564Y-4054845D01*
G01X134337Y-4055375D01*
G01X134119Y-4055731D01*
G01X133816Y-4056299D01*
G01X133427Y-4057194D01*
G01X133248Y-4057544D01*
G01X133049Y-4057875D01*
G01X132623Y-4058481D01*
G01X132320Y-4059012D01*
G01X132130Y-4059466D01*
G01X131827Y-4059845D01*
G01X131410Y-4060167D01*
G01X131107Y-4060546D01*
G01X130918Y-4060981D01*
G01X130615Y-4061360D01*
G01X130189Y-4061682D01*
G01X129810Y-4062061D01*
G01X129308Y-4062695D01*
G01X128892Y-4063036D01*
G01X128295Y-4063491D01*
G01X127793Y-4063945D01*
G01X126013Y-4065224D01*
G01X125558Y-4065515D01*
G01X124819Y-4065915D01*
G01X124365Y-4066218D01*
G01X124024Y-4066512D01*
G01X123569Y-4066739D01*
G01X122992Y-4066910D01*
G01X122462Y-4067137D01*
G01X122106Y-4067352D01*
G01X121841Y-4067485D01*
G01X121373Y-4067648D01*
G01X121013Y-4067733D01*
G01X120293Y-4067923D01*
G01X119488Y-4068261D01*
G01X118892Y-4068453D01*
G01X118399Y-4068557D01*
G01X117272Y-4068718D01*
G01X116439Y-4068870D01*
G01X116133Y-4068955D01*
G37*
G36*
G01X27344Y-4068955D02*
G01X26432Y-4069043D01*
G01X22982Y-4069097D01*
G01X20539Y-4069076D01*
G01X19119Y-4069012D01*
G01X18740Y-4068945D01*
G01X18399Y-4068794D01*
G01X17982Y-4068642D01*
G01X17376Y-4068491D01*
G01X15736Y-4068204D01*
G01X15319Y-4068091D01*
G01X14959Y-4067958D01*
G01X14119Y-4067582D01*
G01X12840Y-4067118D01*
G01X12414Y-4066938D01*
G01X12007Y-4066739D01*
G01X11619Y-4066521D01*
G01X10179Y-4065622D01*
G01X9725Y-4065394D01*
G01X9280Y-4065214D01*
G01X8901Y-4064911D01*
G01X8579Y-4064495D01*
G01X8200Y-4064192D01*
G01X7765Y-4064002D01*
G01X7386Y-4063699D01*
G01X7064Y-4063273D01*
G01X6685Y-4062894D01*
G01X6259Y-4062572D01*
G01X5956Y-4062194D01*
G01X5766Y-4061758D01*
G01X5463Y-4061379D01*
G01X5141Y-4061135D01*
G01X4914Y-4060927D01*
G01X4573Y-4060508D01*
G01X3929Y-4059514D01*
G01X3513Y-4059014D01*
G01X3361Y-4058806D01*
G01X3134Y-4058387D01*
G01X2679Y-4057355D01*
G01X2300Y-4056704D01*
G01X1997Y-4056079D01*
G01X1770Y-4055461D01*
G01X1164Y-4053491D01*
G01X643Y-4051701D01*
G01X579Y-4051112D01*
G01X558Y-4050309D01*
G01X586Y-4049769D01*
G01X672Y-4049362D01*
G01X814Y-4049087D01*
G01X1131Y-4048910D01*
G01X1543Y-4048832D01*
G01X2585Y-4048784D01*
G01X3191Y-4048709D01*
G01X3929Y-4048529D01*
G01X4791Y-4048481D01*
G01X5321Y-4048406D01*
G01X6051Y-4048226D01*
G01X6619Y-4048188D01*
G01X7435Y-4048129D01*
G01X7982Y-4048036D01*
G01X8333Y-4047999D01*
G01X8626Y-4048036D01*
G01X8863Y-4048150D01*
G01X9043Y-4048339D01*
G01X9308Y-4048794D01*
G01X9498Y-4049248D01*
G01X9649Y-4049817D01*
G01X9886Y-4051048D01*
G01X9990Y-4051446D01*
G01X10113Y-4051805D01*
G01X10558Y-4052809D01*
G01X11022Y-4054078D01*
G01X11202Y-4054476D01*
G01X11401Y-4054836D01*
G01X11917Y-4055612D01*
G01X12069Y-4055915D01*
G01X12182Y-4056218D01*
G01X12320Y-4056654D01*
G01X12452Y-4056900D01*
G01X12623Y-4057108D01*
G01X13049Y-4057440D01*
G01X13427Y-4057819D01*
G01X13671Y-4058152D01*
G01X14005Y-4058529D01*
G01X14299Y-4058803D01*
G01X15009Y-4059381D01*
G01X15861Y-4060006D01*
G01X16891Y-4060688D01*
G01X17516Y-4060991D01*
G01X18134Y-4061218D01*
G01X19618Y-4061708D01*
G01X20066Y-4061786D01*
G01X21287Y-4061834D01*
G01X21969Y-4061910D01*
G01X22443Y-4062033D01*
G01X22821Y-4062033D01*
G01X23068Y-4061940D01*
G01X23778Y-4061834D01*
G01X25066Y-4061786D01*
G01X25861Y-4061673D01*
G01X26543Y-4061521D01*
G01X27603Y-4061218D01*
G01X28636Y-4060981D01*
G01X28929Y-4060877D01*
G01X29166Y-4060754D01*
G01X29526Y-4060461D01*
G01X29763Y-4060309D01*
G01X30757Y-4059854D01*
G01X31287Y-4059551D01*
G01X31628Y-4059258D01*
G01X32007Y-4059031D01*
G01X32443Y-4058851D01*
G01X32821Y-4058548D01*
G01X32982Y-4058339D01*
G01X33323Y-4057923D01*
G01X33958Y-4057421D01*
G01X34336Y-4057042D01*
G01X34668Y-4056578D01*
G01X35691Y-4055233D01*
G01X35937Y-4054854D01*
G01X36145Y-4054476D01*
G01X36543Y-4053550D01*
G01X37064Y-4052421D01*
G01X37291Y-4051739D01*
G01X37528Y-4050688D01*
G01X37731Y-4049944D01*
G01X37802Y-4049263D01*
G01X37831Y-4048036D01*
G01X37783Y-4046257D01*
G01X37679Y-4045006D01*
G01X37639Y-4044672D01*
G01X37490Y-4043756D01*
G01X37367Y-4043216D01*
G01X37149Y-4042508D01*
G01X36619Y-4041067D01*
G01X36316Y-4040385D01*
G01X35255Y-4038642D01*
G01X35028Y-4038292D01*
G01X34801Y-4037999D01*
G01X34573Y-4037762D01*
G01X34128Y-4037421D01*
G01X33749Y-4037042D01*
G01X33248Y-4036407D01*
G01X32831Y-4036067D01*
G01X31458Y-4035091D01*
G01X31126Y-4034892D01*
G01X30776Y-4034713D01*
G01X29860Y-4034324D01*
G01X28721Y-4033803D01*
G01X28361Y-4033680D01*
G01X27963Y-4033576D01*
G01X27528Y-4033491D01*
G01X25255Y-4033188D01*
G01X24573Y-4033131D01*
G01X23891Y-4033112D01*
G01X23210Y-4033131D01*
G01X22528Y-4033188D01*
G01X21316Y-4033339D01*
G01X20407Y-4033491D01*
G01X18892Y-4033794D01*
G01X18551Y-4033841D01*
G01X18285Y-4033832D01*
G01X17982Y-4033642D01*
G01X17911Y-4033309D01*
G01X17926Y-4032762D01*
G01X17982Y-4032279D01*
G01X18285Y-4030158D01*
G01X18588Y-4027733D01*
G01X18740Y-4026370D01*
G01X20104Y-4026370D01*
G01X21467Y-4026332D01*
G01X22831Y-4026218D01*
G01X23494Y-4026133D01*
G01X24417Y-4025970D01*
G01X25255Y-4025764D01*
G01X25987Y-4025536D01*
G01X26590Y-4025309D01*
G01X27234Y-4025006D01*
G01X28967Y-4024248D01*
G01X29725Y-4023803D01*
G01X30179Y-4023576D01*
G01X30625Y-4023396D01*
G01X31003Y-4023093D01*
G01X31325Y-4022667D01*
G01X31704Y-4022288D01*
G01X32339Y-4021786D01*
G01X32679Y-4021370D01*
G01X33427Y-4020233D01*
G01X33655Y-4019779D01*
G01X33929Y-4019059D01*
G01X34327Y-4018169D01*
G01X34422Y-4017809D01*
G01X34478Y-4017411D01*
G01X34507Y-4016549D01*
G01X34583Y-4015868D01*
G01X34682Y-4015494D01*
G01X34720Y-4015228D01*
G01X34720Y-4014925D01*
G01X34573Y-4013983D01*
G01X34346Y-4012279D01*
G01X34211Y-4011384D01*
G01X34097Y-4010929D01*
G01X33965Y-4010588D01*
G01X33816Y-4010342D01*
G01X33513Y-4009774D01*
G01X33134Y-4008898D01*
G01X32831Y-4008368D01*
G01X32601Y-4008105D01*
G01X32241Y-4007632D01*
G01X31694Y-4006786D01*
G01X31467Y-4006521D01*
G01X31240Y-4006332D01*
G01X30795Y-4006124D01*
G01X30416Y-4005820D01*
G01X30255Y-4005612D01*
G01X30075Y-4005394D01*
G01X29838Y-4005195D01*
G01X29545Y-4005015D01*
G01X28513Y-4004552D01*
G01X27864Y-4004175D01*
G01X27599Y-4004043D01*
G01X27130Y-4003879D01*
G01X26088Y-4003642D01*
G01X25340Y-4003439D01*
G01X24615Y-4003368D01*
G01X23285Y-4003339D01*
G01X21808Y-4003377D01*
G01X21148Y-4003455D01*
G01X20407Y-4003642D01*
G01X19005Y-4003879D01*
G01X18588Y-4003983D01*
G01X18248Y-4004106D01*
G01X17864Y-4004324D01*
G01X17296Y-4004627D01*
G01X16420Y-4005006D01*
G01X15889Y-4005309D01*
G01X15369Y-4005764D01*
G01X14734Y-4006218D01*
G01X14195Y-4006673D01*
G01X13437Y-4007440D01*
G01X12982Y-4008036D01*
G01X12225Y-4009249D01*
G01X11905Y-4009795D01*
G01X11467Y-4010612D01*
G01X11164Y-4011294D01*
G01X10861Y-4012127D01*
G01X10407Y-4013491D01*
G01X10255Y-4014097D01*
G01X10104Y-4015006D01*
G01X9952Y-4016067D01*
G01X8181Y-4015839D01*
G01X7348Y-4015688D01*
G01X6429Y-4015461D01*
G01X4848Y-4015233D01*
G01X4014Y-4015082D01*
G01X3484Y-4014940D01*
G01X2802Y-4014864D01*
G01X1979Y-4014826D01*
G01X1694Y-4014741D01*
G01X1467Y-4014400D01*
G01X1552Y-4013718D01*
G01X1770Y-4012960D01*
G01X2111Y-4011483D01*
G01X2376Y-4010612D01*
G01X2755Y-4009594D01*
G01X3134Y-4008784D01*
G01X3892Y-4007051D01*
G01X4952Y-4005309D01*
G01X5369Y-4004665D01*
G01X5852Y-4004087D01*
G01X6079Y-4003709D01*
G01X6259Y-4003273D01*
G01X6562Y-4002894D01*
G01X6770Y-4002733D01*
G01X7187Y-4002392D01*
G01X7689Y-4001758D01*
G01X8068Y-4001379D01*
G01X8503Y-4001067D01*
G01X9204Y-4000461D01*
G01X9801Y-4000006D01*
G01X11202Y-3999097D01*
G01X12338Y-3998491D01*
G01X12951Y-3998112D01*
G01X13577Y-3997809D01*
G01X14195Y-3997582D01*
G01X16164Y-3996976D01*
G01X17798Y-3996486D01*
G01X18210Y-3996408D01*
G01X19251Y-3996360D01*
G01X19857Y-3996284D01*
G01X20388Y-3996152D01*
G01X21027Y-3996088D01*
G01X21922Y-3996067D01*
G01X23058Y-3996105D01*
G01X23456Y-3996152D01*
G01X23858Y-3996254D01*
G01X24270Y-3996332D01*
G01X25331Y-3996379D01*
G01X25899Y-3996429D01*
G01X26467Y-3996521D01*
G01X28380Y-3996909D01*
G01X29801Y-3997279D01*
G01X30532Y-3997506D01*
G01X31136Y-3997733D01*
G01X31780Y-3998036D01*
G01X33513Y-3998794D01*
G01X33797Y-3998946D01*
G01X34535Y-3999400D01*
G01X35388Y-3999855D01*
G01X35842Y-4000158D01*
G01X36093Y-4000385D01*
G01X36391Y-4000612D01*
G01X37206Y-4001076D01*
G01X37452Y-4001256D01*
G01X37660Y-4001455D01*
G01X37831Y-4001673D01*
G01X38172Y-4002089D01*
G01X38806Y-4002591D01*
G01X39185Y-4002970D01*
G01X39517Y-4003434D01*
G01X40255Y-4004400D01*
G01X40785Y-4005120D01*
G01X40994Y-4005451D01*
G01X41467Y-4006332D01*
G01X41912Y-4007061D01*
G01X42140Y-4007591D01*
G01X42414Y-4008491D01*
G01X42821Y-4009409D01*
G01X43049Y-4010091D01*
G01X43285Y-4011142D01*
G01X43488Y-4011907D01*
G01X43551Y-4012582D01*
G01X43588Y-4014400D01*
G01X43546Y-4015934D01*
G01X43470Y-4016767D01*
G01X43357Y-4017449D01*
G01X43285Y-4017733D01*
G01X42755Y-4019485D01*
G01X42433Y-4020622D01*
G01X42301Y-4020953D01*
G01X42130Y-4021303D01*
G01X41922Y-4021673D01*
G01X41164Y-4022885D01*
G01X40558Y-4023794D01*
G01X40104Y-4024390D01*
G01X39649Y-4024892D01*
G01X39263Y-4025425D01*
G01X38929Y-4025801D01*
G01X38636Y-4026076D01*
G01X38285Y-4026370D01*
G01X37339Y-4027068D01*
G01X36770Y-4027430D01*
G01X35104Y-4028453D01*
G01X34649Y-4028642D01*
G01X34384Y-4028870D01*
G01X34498Y-4029248D01*
G01X34677Y-4029457D01*
G01X34914Y-4029627D01*
G01X35208Y-4029760D01*
G01X35918Y-4029940D01*
G01X36240Y-4030044D01*
G01X36524Y-4030167D01*
G01X36889Y-4030385D01*
G01X37457Y-4030688D01*
G01X38361Y-4031076D01*
G01X38929Y-4031353D01*
G01X39498Y-4031673D01*
G01X40141Y-4032089D01*
G01X40719Y-4032572D01*
G01X41098Y-4032800D01*
G01X41429Y-4032932D01*
G01X41770Y-4033188D01*
G01X41998Y-4033453D01*
G01X42452Y-4034144D01*
G01X42679Y-4034438D01*
G01X42907Y-4034675D01*
G01X43248Y-4034937D01*
G01X43475Y-4035146D01*
G01X43816Y-4035565D01*
G01X44043Y-4035915D01*
G01X44952Y-4037430D01*
G01X45170Y-4037809D01*
G01X45461Y-4038377D01*
G01X45710Y-4038945D01*
G01X45937Y-4039556D01*
G01X46316Y-4040764D01*
G01X46806Y-4042400D01*
G01X46884Y-4042847D01*
G01X46931Y-4044069D01*
G01X47007Y-4044750D01*
G01X47140Y-4045281D01*
G01X47203Y-4045870D01*
G01X47225Y-4046673D01*
G01X47203Y-4047518D01*
G01X47140Y-4048235D01*
G01X46998Y-4049059D01*
G01X46685Y-4051398D01*
G01X46581Y-4051938D01*
G01X46458Y-4052383D01*
G01X46174Y-4053046D01*
G01X45946Y-4053728D01*
G01X45776Y-4054457D01*
G01X45672Y-4054779D01*
G01X45549Y-4055063D01*
G01X45331Y-4055427D01*
G01X45028Y-4055996D01*
G01X44639Y-4056900D01*
G01X44363Y-4057468D01*
G01X44043Y-4058036D01*
G01X43626Y-4058680D01*
G01X43143Y-4059258D01*
G01X42916Y-4059637D01*
G01X42736Y-4060072D01*
G01X42433Y-4060451D01*
G01X42007Y-4060773D01*
G01X41628Y-4061152D01*
G01X41126Y-4061786D01*
G01X40492Y-4062288D01*
G01X40113Y-4062667D01*
G01X39869Y-4063001D01*
G01X39535Y-4063377D01*
G01X39242Y-4063652D01*
G01X38891Y-4063945D01*
G01X38532Y-4064220D01*
G01X38210Y-4064438D01*
G01X37926Y-4064599D01*
G01X37461Y-4064798D01*
G01X37083Y-4065101D01*
G01X36922Y-4065309D01*
G01X36742Y-4065527D01*
G01X36505Y-4065726D01*
G01X36212Y-4065906D01*
G01X35179Y-4066370D01*
G01X34531Y-4066749D01*
G01X33963Y-4067052D01*
G01X33245Y-4067355D01*
G01X31770Y-4067885D01*
G01X30407Y-4068339D01*
G01X29801Y-4068491D01*
G01X28399Y-4068718D01*
G01X27642Y-4068870D01*
G01X27344Y-4068955D01*
G37*
G36*
G01X-795383Y-4068955D02*
G01X-796271Y-4069043D01*
G01X-799594Y-4069097D01*
G01X-802473Y-4069059D01*
G01X-803230Y-4069012D01*
G01X-803533Y-4068945D01*
G01X-804137Y-4068756D01*
G01X-805465Y-4068557D01*
G01X-805957Y-4068453D01*
G01X-806374Y-4068330D01*
G01X-807028Y-4068046D01*
G01X-807709Y-4067819D01*
G01X-808439Y-4067648D01*
G01X-808761Y-4067544D01*
G01X-809045Y-4067421D01*
G01X-809409Y-4067203D01*
G01X-809977Y-4066900D01*
G01X-810882Y-4066512D01*
G01X-811450Y-4066235D01*
G01X-812018Y-4065915D01*
G01X-812776Y-4065423D01*
G01X-813533Y-4064854D01*
G01X-813893Y-4064570D01*
G01X-814745Y-4063945D01*
G01X-815162Y-4063605D01*
G01X-815664Y-4062970D01*
G01X-816043Y-4062591D01*
G01X-816377Y-4062347D01*
G01X-816753Y-4062014D01*
G01X-817028Y-4061720D01*
G01X-817605Y-4061010D01*
G01X-818382Y-4059940D01*
G01X-818912Y-4059317D01*
G01X-819064Y-4059109D01*
G01X-819291Y-4058690D01*
G01X-819745Y-4057658D01*
G01X-820124Y-4057007D01*
G01X-820427Y-4056382D01*
G01X-820654Y-4055764D01*
G01X-821715Y-4052582D01*
G01X-821867Y-4051976D01*
G01X-822018Y-4051067D01*
G01X-822075Y-4050574D01*
G01X-822094Y-4050158D01*
G01X-822075Y-4049817D01*
G01X-822018Y-4049551D01*
G01X-821791Y-4049173D01*
G01X-821412Y-4048945D01*
G01X-820920Y-4048832D01*
G01X-820058Y-4048784D01*
G01X-819528Y-4048709D01*
G01X-818798Y-4048529D01*
G01X-818230Y-4048491D01*
G01X-817413Y-4048432D01*
G01X-816450Y-4048264D01*
G01X-814745Y-4048036D01*
G01X-813382Y-4047885D01*
G01X-813230Y-4048794D01*
G01X-813041Y-4049741D01*
G01X-812776Y-4050764D01*
G01X-812548Y-4051495D01*
G01X-812321Y-4052099D01*
G01X-811904Y-4053036D01*
G01X-811672Y-4053794D01*
G01X-811559Y-4054097D01*
G01X-811317Y-4054551D01*
G01X-810811Y-4055309D01*
G01X-810659Y-4055612D01*
G01X-810545Y-4055915D01*
G01X-810408Y-4056351D01*
G01X-810276Y-4056597D01*
G01X-810105Y-4056805D01*
G01X-809897Y-4056976D01*
G01X-809480Y-4057317D01*
G01X-809139Y-4057733D01*
G01X-808685Y-4058330D01*
G01X-807844Y-4059175D01*
G01X-807371Y-4059535D01*
G01X-805534Y-4060688D01*
G01X-804909Y-4060991D01*
G01X-804291Y-4061218D01*
G01X-802806Y-4061708D01*
G01X-802359Y-4061786D01*
G01X-801137Y-4061834D01*
G01X-800456Y-4061910D01*
G01X-799982Y-4062033D01*
G01X-799603Y-4062033D01*
G01X-799355Y-4061940D01*
G01X-798768Y-4061846D01*
G01X-797170Y-4061786D01*
G01X-796829Y-4061739D01*
G01X-796564Y-4061673D01*
G01X-796033Y-4061521D01*
G01X-794973Y-4061284D01*
G01X-794405Y-4061121D01*
G01X-793836Y-4060915D01*
G01X-793154Y-4060612D01*
G01X-792506Y-4060233D01*
G01X-791938Y-4059930D01*
G01X-791062Y-4059542D01*
G01X-790768Y-4059362D01*
G01X-790531Y-4059163D01*
G01X-790351Y-4058945D01*
G01X-790181Y-4058728D01*
G01X-789973Y-4058529D01*
G01X-789726Y-4058349D01*
G01X-789168Y-4058027D01*
G01X-788950Y-4057847D01*
G01X-788789Y-4057648D01*
G01X-788590Y-4057212D01*
G01X-788287Y-4056834D01*
G01X-788079Y-4056673D01*
G01X-787662Y-4056332D01*
G01X-787321Y-4055915D01*
G01X-786639Y-4054888D01*
G01X-786336Y-4054320D01*
G01X-785882Y-4053247D01*
G01X-785429Y-4052272D01*
G01X-785238Y-4051710D01*
G01X-785134Y-4051265D01*
G01X-785048Y-4050764D01*
G01X-784745Y-4048642D01*
G01X-784689Y-4048112D01*
G01X-784669Y-4047582D01*
G01X-784689Y-4047052D01*
G01X-784745Y-4046521D01*
G01X-785048Y-4044097D01*
G01X-785134Y-4043463D01*
G01X-785238Y-4042923D01*
G01X-785361Y-4042478D01*
G01X-785655Y-4041815D01*
G01X-786412Y-4040082D01*
G01X-786564Y-4039798D01*
G01X-786885Y-4039305D01*
G01X-787908Y-4037979D01*
G01X-788694Y-4036919D01*
G01X-789073Y-4036616D01*
G01X-789509Y-4036427D01*
G01X-789887Y-4036123D01*
G01X-790048Y-4035915D01*
G01X-790219Y-4035697D01*
G01X-790427Y-4035498D01*
G01X-790673Y-4035319D01*
G01X-791526Y-4034855D01*
G01X-792136Y-4034478D01*
G01X-792402Y-4034345D01*
G01X-792870Y-4034182D01*
G01X-793600Y-4034012D01*
G01X-794281Y-4033784D01*
G01X-794906Y-4033510D01*
G01X-795238Y-4033415D01*
G01X-795588Y-4033358D01*
G01X-796317Y-4033330D01*
G01X-796923Y-4033254D01*
G01X-797406Y-4033121D01*
G01X-797937Y-4033046D01*
G01X-798683Y-4033051D01*
G01X-800200Y-4033188D01*
G01X-800825Y-4033264D01*
G01X-801734Y-4033415D01*
G01X-802662Y-4033642D01*
G01X-803685Y-4033794D01*
G01X-804556Y-4033832D01*
G01X-804745Y-4033642D01*
G01X-804632Y-4033226D01*
G01X-804584Y-4032222D01*
G01X-804509Y-4031616D01*
G01X-804407Y-4031251D01*
G01X-804329Y-4030839D01*
G01X-804281Y-4029798D01*
G01X-804206Y-4029192D01*
G01X-804073Y-4028680D01*
G01X-804009Y-4028141D01*
G01X-803988Y-4027430D01*
G01X-803988Y-4026370D01*
G01X-802018Y-4026370D01*
G01X-800427Y-4026332D01*
G01X-799731Y-4026254D01*
G01X-798988Y-4026067D01*
G01X-797347Y-4025780D01*
G01X-796931Y-4025667D01*
G01X-796571Y-4025534D01*
G01X-795806Y-4025195D01*
G01X-794906Y-4024921D01*
G01X-794376Y-4024693D01*
G01X-793647Y-4024248D01*
G01X-792776Y-4023784D01*
G01X-792321Y-4023507D01*
G01X-790692Y-4022347D01*
G01X-790465Y-4022139D01*
G01X-790124Y-4021720D01*
G01X-789897Y-4021370D01*
G01X-788988Y-4019855D01*
G01X-788779Y-4019485D01*
G01X-788609Y-4019135D01*
G01X-788476Y-4018803D01*
G01X-788306Y-4018197D01*
G01X-788027Y-4017207D01*
G01X-787956Y-4016440D01*
G01X-787927Y-4015006D01*
G01X-787970Y-4013657D01*
G01X-788046Y-4012899D01*
G01X-788159Y-4012255D01*
G01X-788230Y-4011976D01*
G01X-788685Y-4010461D01*
G01X-788874Y-4009968D01*
G01X-789300Y-4009087D01*
G01X-789897Y-4008036D01*
G01X-790124Y-4007686D01*
G01X-790351Y-4007392D01*
G01X-790579Y-4007156D01*
G01X-791024Y-4006815D01*
G01X-791403Y-4006436D01*
G01X-791646Y-4006105D01*
G01X-791855Y-4005877D01*
G01X-792274Y-4005536D01*
G01X-792624Y-4005309D01*
G01X-794102Y-4004400D01*
G01X-794641Y-4004173D01*
G01X-795351Y-4003946D01*
G01X-797096Y-4003439D01*
G01X-797905Y-4003368D01*
G01X-799442Y-4003339D01*
G01X-800884Y-4003382D01*
G01X-801680Y-4003458D01*
G01X-802342Y-4003571D01*
G01X-802624Y-4003642D01*
G01X-804139Y-4004097D01*
G01X-805351Y-4004552D01*
G01X-805730Y-4004722D01*
G01X-806109Y-4004930D01*
G01X-806488Y-4005176D01*
G01X-807226Y-4005745D01*
G01X-808195Y-4006452D01*
G01X-808571Y-4006786D01*
G01X-808846Y-4007080D01*
G01X-809139Y-4007430D01*
G01X-809670Y-4008150D01*
G01X-809878Y-4008481D01*
G01X-810209Y-4009097D01*
G01X-810486Y-4009552D01*
G01X-810915Y-4010160D01*
G01X-811104Y-4010482D01*
G01X-811256Y-4010823D01*
G01X-811369Y-4011183D01*
G01X-811601Y-4012089D01*
G01X-811940Y-4012894D01*
G01X-812132Y-4013491D01*
G01X-812236Y-4013983D01*
G01X-812416Y-4015091D01*
G01X-812548Y-4015498D01*
G01X-812719Y-4015773D01*
G01X-813155Y-4015972D01*
G01X-813609Y-4015972D01*
G01X-814480Y-4015764D01*
G01X-816062Y-4015536D01*
G01X-816895Y-4015385D01*
G01X-817776Y-4015158D01*
G01X-820503Y-4014703D01*
G01X-821033Y-4014514D01*
G01X-821109Y-4014249D01*
G01X-820920Y-4013574D01*
G01X-820671Y-4012153D01*
G01X-820557Y-4011737D01*
G01X-820209Y-4010906D01*
G01X-819982Y-4010224D01*
G01X-819812Y-4009495D01*
G01X-819708Y-4009173D01*
G01X-819584Y-4008889D01*
G01X-819367Y-4008524D01*
G01X-819064Y-4007956D01*
G01X-818675Y-4007051D01*
G01X-818398Y-4006483D01*
G01X-818079Y-4005915D01*
G01X-817662Y-4005271D01*
G01X-817179Y-4004694D01*
G01X-816952Y-4004315D01*
G01X-816772Y-4003879D01*
G01X-816469Y-4003500D01*
G01X-816043Y-4003178D01*
G01X-815664Y-4002799D01*
G01X-815162Y-4002165D01*
G01X-814527Y-4001663D01*
G01X-814149Y-4001284D01*
G01X-813905Y-4000953D01*
G01X-813697Y-4000726D01*
G01X-813278Y-4000385D01*
G01X-812283Y-3999741D01*
G01X-812046Y-3999561D01*
G01X-811687Y-3999249D01*
G01X-811450Y-3999097D01*
G01X-810456Y-3998642D01*
G01X-809925Y-3998339D01*
G01X-809663Y-3998114D01*
G01X-809189Y-3997868D01*
G01X-808685Y-3997733D01*
G01X-807965Y-3997544D01*
G01X-807009Y-3997137D01*
G01X-806327Y-3996909D01*
G01X-805276Y-3996673D01*
G01X-804627Y-3996486D01*
G01X-804215Y-3996408D01*
G01X-803173Y-3996360D01*
G01X-802567Y-3996284D01*
G01X-802056Y-3996152D01*
G01X-801516Y-3996088D01*
G01X-800806Y-3996067D01*
G01X-800276Y-3996076D01*
G01X-799480Y-3996126D01*
G01X-798685Y-3996218D01*
G01X-795635Y-3996597D01*
G01X-794726Y-3996748D01*
G01X-793912Y-3996976D01*
G01X-792861Y-3997212D01*
G01X-792179Y-3997440D01*
G01X-791185Y-3997885D01*
G01X-789906Y-3998349D01*
G01X-789480Y-3998529D01*
G01X-789073Y-3998728D01*
G01X-788685Y-3998946D01*
G01X-787245Y-3999845D01*
G01X-786791Y-4000072D01*
G01X-786346Y-4000252D01*
G01X-785967Y-4000555D01*
G01X-785806Y-4000764D01*
G01X-785635Y-4000981D01*
G01X-785427Y-4001180D01*
G01X-785181Y-4001360D01*
G01X-784622Y-4001682D01*
G01X-784404Y-4001862D01*
G01X-784244Y-4002061D01*
G01X-784045Y-4002496D01*
G01X-783742Y-4002875D01*
G01X-783315Y-4003197D01*
G01X-782937Y-4003576D01*
G01X-782624Y-4004012D01*
G01X-782094Y-4004632D01*
G01X-781867Y-4004930D01*
G01X-781261Y-4006029D01*
G01X-780882Y-4006639D01*
G01X-780579Y-4007208D01*
G01X-780276Y-4007925D01*
G01X-779745Y-4009400D01*
G01X-779255Y-4010882D01*
G01X-779177Y-4011294D01*
G01X-779130Y-4012336D01*
G01X-779054Y-4012942D01*
G01X-778921Y-4013434D01*
G01X-778846Y-4014040D01*
G01X-778846Y-4014760D01*
G01X-778921Y-4015366D01*
G01X-779054Y-4015849D01*
G01X-779130Y-4016379D01*
G01X-779182Y-4017191D01*
G01X-779258Y-4017608D01*
G01X-779442Y-4018339D01*
G01X-780048Y-4020309D01*
G01X-780351Y-4021104D01*
G01X-780655Y-4021673D01*
G01X-781412Y-4022885D01*
G01X-781829Y-4023529D01*
G01X-782009Y-4023765D01*
G01X-782321Y-4024107D01*
G01X-782776Y-4024703D01*
G01X-783117Y-4025120D01*
G01X-783751Y-4025622D01*
G01X-784130Y-4026000D01*
G01X-784374Y-4026332D01*
G01X-784582Y-4026559D01*
G01X-785001Y-4026900D01*
G01X-785995Y-4027544D01*
G01X-786495Y-4027960D01*
G01X-786703Y-4028112D01*
G01X-787122Y-4028339D01*
G01X-787814Y-4028642D01*
G01X-788079Y-4028794D01*
G01X-788382Y-4029097D01*
G01X-788268Y-4029400D01*
G01X-788012Y-4029552D01*
G01X-787624Y-4029703D01*
G01X-785048Y-4030612D01*
G01X-784669Y-4030773D01*
G01X-784101Y-4031050D01*
G01X-783533Y-4031370D01*
G01X-782889Y-4031786D01*
G01X-782652Y-4031966D01*
G01X-782392Y-4032203D01*
G01X-782094Y-4032430D01*
G01X-781279Y-4032894D01*
G01X-781033Y-4033074D01*
G01X-780825Y-4033273D01*
G01X-780493Y-4033709D01*
G01X-780115Y-4034087D01*
G01X-779480Y-4034589D01*
G01X-779139Y-4035006D01*
G01X-778533Y-4035915D01*
G01X-777776Y-4037127D01*
G01X-777558Y-4037506D01*
G01X-777267Y-4038074D01*
G01X-777018Y-4038642D01*
G01X-776412Y-4040158D01*
G01X-776270Y-4040536D01*
G01X-776092Y-4041104D01*
G01X-775806Y-4042355D01*
G01X-775619Y-4043036D01*
G01X-775546Y-4043844D01*
G01X-775503Y-4046218D01*
G01X-775562Y-4048988D01*
G01X-775619Y-4049632D01*
G01X-775958Y-4051370D01*
G01X-776109Y-4052052D01*
G01X-776412Y-4053112D01*
G01X-776649Y-4054154D01*
G01X-776753Y-4054476D01*
G01X-776876Y-4054760D01*
G01X-777094Y-4055124D01*
G01X-777397Y-4055693D01*
G01X-777927Y-4056900D01*
G01X-778988Y-4058642D01*
G01X-779404Y-4059286D01*
G01X-779584Y-4059523D01*
G01X-779821Y-4059784D01*
G01X-780048Y-4060082D01*
G01X-780512Y-4060896D01*
G01X-780692Y-4061142D01*
G01X-780891Y-4061351D01*
G01X-781327Y-4061682D01*
G01X-781706Y-4062061D01*
G01X-782207Y-4062695D01*
G01X-782624Y-4063036D01*
G01X-783221Y-4063491D01*
G01X-783723Y-4063945D01*
G01X-784357Y-4064400D01*
G01X-784977Y-4064930D01*
G01X-785276Y-4065157D01*
G01X-786109Y-4065622D01*
G01X-786564Y-4065899D01*
G01X-787473Y-4066516D01*
G01X-787927Y-4066729D01*
G01X-788524Y-4066910D01*
G01X-789054Y-4067137D01*
G01X-789409Y-4067352D01*
G01X-789674Y-4067485D01*
G01X-790143Y-4067648D01*
G01X-790503Y-4067733D01*
G01X-791223Y-4067923D01*
G01X-792028Y-4068261D01*
G01X-792624Y-4068453D01*
G01X-793117Y-4068557D01*
G01X-794244Y-4068718D01*
G01X-795077Y-4068870D01*
G01X-795383Y-4068955D01*
G37*
G36*
G01X-56292Y-4068955D02*
G01X-57179Y-4069043D01*
G01X-60503Y-4069097D01*
G01X-63381Y-4069059D01*
G01X-64139Y-4069012D01*
G01X-64442Y-4068945D01*
G01X-64986Y-4068756D01*
G01X-66175Y-4068557D01*
G01X-66921Y-4068394D01*
G01X-67849Y-4068112D01*
G01X-69290Y-4067582D01*
G01X-70806Y-4066976D01*
G01X-71487Y-4066673D01*
G01X-73230Y-4065612D01*
G01X-73874Y-4065195D01*
G01X-74111Y-4065015D01*
G01X-74373Y-4064776D01*
G01X-74847Y-4064417D01*
G01X-75701Y-4063870D01*
G01X-75995Y-4063642D01*
G01X-76232Y-4063415D01*
G01X-76412Y-4063188D01*
G01X-76752Y-4062771D01*
G01X-77387Y-4062269D01*
G01X-77766Y-4061891D01*
G01X-78078Y-4061455D01*
G01X-78611Y-4060832D01*
G01X-78971Y-4060359D01*
G01X-79290Y-4059854D01*
G01X-80351Y-4058150D01*
G01X-80654Y-4057582D01*
G01X-81563Y-4055688D01*
G01X-81866Y-4054854D01*
G01X-82321Y-4053491D01*
G01X-82472Y-4052885D01*
G01X-82700Y-4051483D01*
G01X-82851Y-4050726D01*
G01X-82984Y-4050233D01*
G01X-82984Y-4049779D01*
G01X-82832Y-4049343D01*
G01X-82529Y-4049040D01*
G01X-81828Y-4048832D01*
G01X-81260Y-4048794D01*
G01X-80443Y-4048735D01*
G01X-79480Y-4048567D01*
G01X-77775Y-4048339D01*
G01X-75351Y-4048036D01*
G01X-74290Y-4047885D01*
G01X-74054Y-4049040D01*
G01X-73684Y-4050461D01*
G01X-73381Y-4051446D01*
G01X-73078Y-4052279D01*
G01X-72472Y-4053794D01*
G01X-72311Y-4054173D01*
G01X-72034Y-4054741D01*
G01X-71715Y-4055309D01*
G01X-70957Y-4056521D01*
G01X-70351Y-4057430D01*
G01X-70010Y-4057847D01*
G01X-69376Y-4058349D01*
G01X-68997Y-4058728D01*
G01X-68753Y-4059059D01*
G01X-68545Y-4059286D01*
G01X-68126Y-4059627D01*
G01X-67775Y-4059854D01*
G01X-66442Y-4060688D01*
G01X-65817Y-4060991D01*
G01X-65200Y-4061218D01*
G01X-63715Y-4061708D01*
G01X-63268Y-4061786D01*
G01X-62046Y-4061834D01*
G01X-61364Y-4061910D01*
G01X-60891Y-4062033D01*
G01X-60512Y-4062033D01*
G01X-60264Y-4061940D01*
G01X-59676Y-4061846D01*
G01X-58078Y-4061786D01*
G01X-57738Y-4061739D01*
G01X-57472Y-4061673D01*
G01X-56942Y-4061521D01*
G01X-55881Y-4061284D01*
G01X-55313Y-4061121D01*
G01X-54745Y-4060915D01*
G01X-54063Y-4060612D01*
G01X-53296Y-4060167D01*
G01X-52766Y-4059940D01*
G01X-52188Y-4059760D01*
G01X-51942Y-4059627D01*
G01X-51734Y-4059457D01*
G01X-51480Y-4059135D01*
G01X-51272Y-4058908D01*
G01X-50853Y-4058567D01*
G01X-50152Y-4058112D01*
G01X-49859Y-4057885D01*
G01X-49622Y-4057658D01*
G01X-49442Y-4057430D01*
G01X-48987Y-4056834D01*
G01X-48533Y-4056332D01*
G01X-48078Y-4055697D01*
G01X-47548Y-4055075D01*
G01X-47396Y-4054866D01*
G01X-47169Y-4054447D01*
G01X-46790Y-4053550D01*
G01X-46338Y-4052575D01*
G01X-46146Y-4052014D01*
G01X-46042Y-4051568D01*
G01X-45881Y-4050574D01*
G01X-45730Y-4049817D01*
G01X-45636Y-4049491D01*
G01X-45562Y-4049061D01*
G01X-45524Y-4048569D01*
G01X-45503Y-4047582D01*
G01X-45540Y-4046332D01*
G01X-45588Y-4045906D01*
G01X-45654Y-4045612D01*
G01X-45768Y-4045120D01*
G01X-45810Y-4044395D01*
G01X-45881Y-4043870D01*
G01X-45976Y-4043472D01*
G01X-46109Y-4043036D01*
G01X-46753Y-4041180D01*
G01X-47018Y-4040612D01*
G01X-47321Y-4040044D01*
G01X-47624Y-4039551D01*
G01X-48230Y-4038642D01*
G01X-48684Y-4038046D01*
G01X-49139Y-4037544D01*
G01X-49603Y-4036909D01*
G01X-49982Y-4036531D01*
G01X-50417Y-4036218D01*
G01X-51037Y-4035688D01*
G01X-51336Y-4035461D01*
G01X-52434Y-4034855D01*
G01X-53047Y-4034476D01*
G01X-53672Y-4034173D01*
G01X-54290Y-4033945D01*
G01X-55772Y-4033455D01*
G01X-56184Y-4033377D01*
G01X-57226Y-4033330D01*
G01X-57832Y-4033254D01*
G01X-58334Y-4033121D01*
G01X-59016Y-4033046D01*
G01X-59868Y-4033046D01*
G01X-60550Y-4033121D01*
G01X-60806Y-4033188D01*
G01X-61298Y-4033302D01*
G01X-62160Y-4033349D01*
G01X-62690Y-4033424D01*
G01X-63533Y-4033642D01*
G01X-64442Y-4033794D01*
G01X-65503Y-4033945D01*
G01X-65493Y-4032828D01*
G01X-65417Y-4032222D01*
G01X-65316Y-4031857D01*
G01X-65237Y-4031445D01*
G01X-65190Y-4030404D01*
G01X-65114Y-4029798D01*
G01X-64934Y-4029059D01*
G01X-64896Y-4028491D01*
G01X-64837Y-4027674D01*
G01X-64745Y-4027127D01*
G01X-64593Y-4026370D01*
G01X-62927Y-4026370D01*
G01X-61805Y-4026348D01*
G01X-60938Y-4026285D01*
G01X-60503Y-4026218D01*
G01X-58192Y-4025726D01*
G01X-57096Y-4025385D01*
G01X-55654Y-4024855D01*
G01X-55275Y-4024693D01*
G01X-54707Y-4024417D01*
G01X-54139Y-4024097D01*
G01X-53419Y-4023642D01*
G01X-51715Y-4022430D01*
G01X-51298Y-4022089D01*
G01X-50957Y-4021673D01*
G01X-49982Y-4020300D01*
G01X-49783Y-4019968D01*
G01X-49603Y-4019618D01*
G01X-49442Y-4019249D01*
G01X-48987Y-4018036D01*
G01X-48874Y-4017127D01*
G01X-48836Y-4015309D01*
G01X-48874Y-4013491D01*
G01X-48921Y-4012923D01*
G01X-48987Y-4012582D01*
G01X-49139Y-4012014D01*
G01X-49376Y-4010792D01*
G01X-49480Y-4010423D01*
G01X-49603Y-4010110D01*
G01X-49887Y-4009618D01*
G01X-50114Y-4009087D01*
G01X-50294Y-4008510D01*
G01X-50427Y-4008264D01*
G01X-50597Y-4008055D01*
G01X-50806Y-4007885D01*
G01X-51222Y-4007544D01*
G01X-51563Y-4007127D01*
G01X-51866Y-4006748D01*
G01X-52321Y-4006427D01*
G01X-52624Y-4006124D01*
G01X-52946Y-4005697D01*
G01X-53154Y-4005498D01*
G01X-53400Y-4005319D01*
G01X-54253Y-4004855D01*
G01X-55010Y-4004400D01*
G01X-55550Y-4004173D01*
G01X-56260Y-4003946D01*
G01X-57999Y-4003439D01*
G01X-58766Y-4003368D01*
G01X-60200Y-4003339D01*
G01X-61790Y-4003377D01*
G01X-62302Y-4003425D01*
G01X-62624Y-4003491D01*
G01X-63192Y-4003642D01*
G01X-64414Y-4003879D01*
G01X-64783Y-4003983D01*
G01X-65095Y-4004106D01*
G01X-65470Y-4004324D01*
G01X-66037Y-4004627D01*
G01X-66942Y-4005025D01*
G01X-67321Y-4005233D01*
G01X-67700Y-4005479D01*
G01X-68438Y-4006048D01*
G01X-69499Y-4006834D01*
G01X-69802Y-4007212D01*
G01X-69991Y-4007648D01*
G01X-70294Y-4008027D01*
G01X-70503Y-4008188D01*
G01X-70720Y-4008368D01*
G01X-70919Y-4008604D01*
G01X-71099Y-4008898D01*
G01X-71563Y-4009930D01*
G01X-71940Y-4010579D01*
G01X-72072Y-4010844D01*
G01X-72236Y-4011313D01*
G01X-72321Y-4011673D01*
G01X-72510Y-4012392D01*
G01X-72849Y-4013197D01*
G01X-73040Y-4013794D01*
G01X-73145Y-4014286D01*
G01X-73230Y-4014855D01*
G01X-73381Y-4016067D01*
G01X-74442Y-4015915D01*
G01X-78078Y-4015309D01*
G01X-78571Y-4015233D01*
G01X-79328Y-4015082D01*
G01X-79849Y-4014940D01*
G01X-80531Y-4014864D01*
G01X-81355Y-4014826D01*
G01X-81639Y-4014741D01*
G01X-81866Y-4014400D01*
G01X-81807Y-4013713D01*
G01X-81630Y-4012790D01*
G01X-81260Y-4011370D01*
G01X-81033Y-4010638D01*
G01X-80806Y-4010034D01*
G01X-80389Y-4009097D01*
G01X-80114Y-4008197D01*
G01X-79887Y-4007667D01*
G01X-79442Y-4006938D01*
G01X-78978Y-4006067D01*
G01X-78701Y-4005612D01*
G01X-78040Y-4004682D01*
G01X-77245Y-4003444D01*
G01X-77018Y-4003150D01*
G01X-76791Y-4002913D01*
G01X-76345Y-4002572D01*
G01X-75967Y-4002193D01*
G01X-75723Y-4001860D01*
G01X-75389Y-4001483D01*
G01X-75095Y-4001209D01*
G01X-74385Y-4000631D01*
G01X-73315Y-3999855D01*
G01X-72693Y-3999324D01*
G01X-72484Y-3999173D01*
G01X-72065Y-3998946D01*
G01X-71033Y-3998491D01*
G01X-70266Y-3998046D01*
G01X-69735Y-3997819D01*
G01X-68836Y-3997544D01*
G01X-67917Y-3997137D01*
G01X-67236Y-3996909D01*
G01X-66184Y-3996673D01*
G01X-65536Y-3996486D01*
G01X-65124Y-3996408D01*
G01X-64082Y-3996360D01*
G01X-63476Y-3996284D01*
G01X-62946Y-3996152D01*
G01X-62306Y-3996088D01*
G01X-61412Y-3996067D01*
G01X-60275Y-3996105D01*
G01X-59877Y-3996152D01*
G01X-59593Y-3996218D01*
G01X-59101Y-3996332D01*
G01X-58533Y-3996370D01*
G01X-57716Y-3996429D01*
G01X-55351Y-3996824D01*
G01X-54619Y-3996959D01*
G01X-54203Y-3997073D01*
G01X-53372Y-3997421D01*
G01X-52690Y-3997648D01*
G01X-51961Y-3997819D01*
G01X-51639Y-3997923D01*
G01X-51355Y-3998046D01*
G01X-50990Y-3998264D01*
G01X-50422Y-3998567D01*
G01X-49546Y-3998946D01*
G01X-49016Y-3999249D01*
G01X-48665Y-3999542D01*
G01X-48211Y-3999769D01*
G01X-47643Y-3999949D01*
G01X-47396Y-4000082D01*
G01X-47188Y-4000252D01*
G01X-47018Y-4000461D01*
G01X-46847Y-4000678D01*
G01X-46639Y-4000877D01*
G01X-46393Y-4001057D01*
G01X-45824Y-4001379D01*
G01X-45578Y-4001559D01*
G01X-45370Y-4001758D01*
G01X-45039Y-4002193D01*
G01X-44660Y-4002572D01*
G01X-44328Y-4002816D01*
G01X-44101Y-4003025D01*
G01X-43760Y-4003444D01*
G01X-43116Y-4004438D01*
G01X-42936Y-4004674D01*
G01X-42624Y-4005034D01*
G01X-42472Y-4005271D01*
G01X-42018Y-4006266D01*
G01X-41715Y-4006796D01*
G01X-41490Y-4007059D01*
G01X-41244Y-4007532D01*
G01X-41023Y-4008396D01*
G01X-40919Y-4008718D01*
G01X-40796Y-4009002D01*
G01X-40581Y-4009369D01*
G01X-40448Y-4009653D01*
G01X-40285Y-4010186D01*
G01X-40124Y-4011038D01*
G01X-39972Y-4011720D01*
G01X-39845Y-4012194D01*
G01X-39774Y-4012919D01*
G01X-39745Y-4014249D01*
G01X-39783Y-4015726D01*
G01X-39861Y-4016386D01*
G01X-40048Y-4017127D01*
G01X-40334Y-4018768D01*
G01X-40448Y-4019184D01*
G01X-40806Y-4020016D01*
G01X-41421Y-4021445D01*
G01X-41698Y-4022014D01*
G01X-42018Y-4022582D01*
G01X-42434Y-4023226D01*
G01X-42614Y-4023462D01*
G01X-42853Y-4023725D01*
G01X-43213Y-4024199D01*
G01X-43760Y-4025044D01*
G01X-43987Y-4025309D01*
G01X-44215Y-4025498D01*
G01X-44660Y-4025707D01*
G01X-45039Y-4026010D01*
G01X-45200Y-4026218D01*
G01X-45540Y-4026635D01*
G01X-45957Y-4026976D01*
G01X-47472Y-4028032D01*
G01X-47775Y-4028183D01*
G01X-48078Y-4028297D01*
G01X-48504Y-4028434D01*
G01X-48722Y-4028567D01*
G01X-48987Y-4028945D01*
G01X-48987Y-4029324D01*
G01X-48684Y-4029552D01*
G01X-47321Y-4030006D01*
G01X-46525Y-4030309D01*
G01X-46213Y-4030461D01*
G01X-45839Y-4030688D01*
G01X-45270Y-4030991D01*
G01X-44366Y-4031389D01*
G01X-43987Y-4031597D01*
G01X-43608Y-4031843D01*
G01X-42870Y-4032411D01*
G01X-42018Y-4033036D01*
G01X-41601Y-4033377D01*
G01X-41099Y-4034012D01*
G01X-40720Y-4034390D01*
G01X-40389Y-4034634D01*
G01X-40162Y-4034843D01*
G01X-39821Y-4035262D01*
G01X-39139Y-4036332D01*
G01X-38467Y-4037288D01*
G01X-38268Y-4037620D01*
G01X-38088Y-4037970D01*
G01X-37927Y-4038339D01*
G01X-37321Y-4039855D01*
G01X-37179Y-4040233D01*
G01X-37001Y-4040801D01*
G01X-36715Y-4042052D01*
G01X-36497Y-4042847D01*
G01X-36433Y-4043387D01*
G01X-36412Y-4044097D01*
G01X-36374Y-4045082D01*
G01X-36326Y-4045517D01*
G01X-36203Y-4046275D01*
G01X-36184Y-4046597D01*
G01X-36203Y-4046881D01*
G01X-36374Y-4047620D01*
G01X-36426Y-4048641D01*
G01X-36563Y-4050158D01*
G01X-36648Y-4050820D01*
G01X-36812Y-4051744D01*
G01X-37018Y-4052582D01*
G01X-37321Y-4053567D01*
G01X-37624Y-4054400D01*
G01X-38230Y-4055915D01*
G01X-38391Y-4056294D01*
G01X-38668Y-4056862D01*
G01X-38987Y-4057430D01*
G01X-39442Y-4058150D01*
G01X-40654Y-4059854D01*
G01X-41109Y-4060451D01*
G01X-41563Y-4060953D01*
G01X-42027Y-4061588D01*
G01X-42406Y-4061966D01*
G01X-43040Y-4062468D01*
G01X-43542Y-4063103D01*
G01X-43921Y-4063481D01*
G01X-44357Y-4063794D01*
G01X-44979Y-4064327D01*
G01X-45453Y-4064687D01*
G01X-46677Y-4065460D01*
G01X-47633Y-4066133D01*
G01X-47965Y-4066332D01*
G01X-48315Y-4066512D01*
G01X-49231Y-4066900D01*
G01X-50361Y-4067421D01*
G01X-51042Y-4067648D01*
G01X-52131Y-4067923D01*
G01X-52936Y-4068261D01*
G01X-53533Y-4068453D01*
G01X-54025Y-4068557D01*
G01X-55152Y-4068718D01*
G01X-55985Y-4068870D01*
G01X-56292Y-4068955D01*
G37*
G36*
G01X704408Y-4067821D02*
G01X701013Y-4067885D01*
G01X697533Y-4067821D01*
G01X696018Y-4067707D01*
G01X695502Y-4067629D01*
G01X695146Y-4067537D01*
G01X694839Y-4067312D01*
G01X694384Y-4066744D01*
G01X693627Y-4065574D01*
G01X693447Y-4065338D01*
G01X693208Y-4065075D01*
G01X692848Y-4064601D01*
G01X692036Y-4063339D01*
G01X691468Y-4062582D01*
G01X690769Y-4061635D01*
G01X689990Y-4060423D01*
G01X689810Y-4060186D01*
G01X689571Y-4059923D01*
G01X689211Y-4059450D01*
G01X688399Y-4058188D01*
G01X687831Y-4057430D01*
G01X687133Y-4056483D01*
G01X686354Y-4055271D01*
G01X686174Y-4055035D01*
G01X685935Y-4054772D01*
G01X685575Y-4054298D01*
G01X684763Y-4053036D01*
G01X684195Y-4052279D01*
G01X683496Y-4051332D01*
G01X682717Y-4050120D01*
G01X682538Y-4049883D01*
G01X682299Y-4049620D01*
G01X681939Y-4049147D01*
G01X681127Y-4047885D01*
G01X680558Y-4047127D01*
G01X679860Y-4046180D01*
G01X679006Y-4044854D01*
G01X678437Y-4044097D01*
G01X677739Y-4043150D01*
G01X676922Y-4041862D01*
G01X676127Y-4040742D01*
G01X675104Y-4039135D01*
G01X674649Y-4038491D01*
G01X674422Y-4038254D01*
G01X673968Y-4038178D01*
G01X673740Y-4038339D01*
G01X673172Y-4039026D01*
G01X672831Y-4039551D01*
G01X671922Y-4041067D01*
G01X671468Y-4041786D01*
G01X671013Y-4042430D01*
G01X670104Y-4043709D01*
G01X669571Y-4044331D01*
G01X669212Y-4044805D01*
G01X668475Y-4045953D01*
G01X668295Y-4046190D01*
G01X668056Y-4046452D01*
G01X667696Y-4046926D01*
G01X666960Y-4048074D01*
G01X666780Y-4048311D01*
G01X666541Y-4048574D01*
G01X666181Y-4049047D01*
G01X665369Y-4050309D01*
G01X664801Y-4051067D01*
G01X664517Y-4051426D01*
G01X663892Y-4052279D01*
G01X659195Y-4058860D01*
G01X658662Y-4059483D01*
G01X658302Y-4059956D01*
G01X657566Y-4061105D01*
G01X657386Y-4061341D01*
G01X657147Y-4061604D01*
G01X656787Y-4062077D01*
G01X656051Y-4063226D01*
G01X655871Y-4063463D01*
G01X655632Y-4063725D01*
G01X655272Y-4064199D01*
G01X654460Y-4065460D01*
G01X653892Y-4066218D01*
G01X653608Y-4066578D01*
G01X652977Y-4067437D01*
G01X652656Y-4067555D01*
G01X652013Y-4067645D01*
G01X650580Y-4067745D01*
G01X641619Y-4067885D01*
G01X633248Y-4067771D01*
G01X631079Y-4067629D01*
G01X630499Y-4067537D01*
G01X630256Y-4067430D01*
G01X629952Y-4066938D01*
G01X629346Y-4065688D01*
G01X628968Y-4064630D01*
G01X628437Y-4063188D01*
G01X627755Y-4061481D01*
G01X627225Y-4060006D01*
G01X626846Y-4058988D01*
G01X626316Y-4057809D01*
G01X625937Y-4056751D01*
G01X625407Y-4055309D01*
G01X624725Y-4053602D01*
G01X624195Y-4052127D01*
G01X623816Y-4051109D01*
G01X623447Y-4050309D01*
G01X623219Y-4049703D01*
G01X622945Y-4048794D01*
G01X622537Y-4047885D01*
G01X622310Y-4047279D01*
G01X622222Y-4046966D01*
G01X621850Y-4046809D01*
G01X621021Y-4046690D01*
G01X619222Y-4046561D01*
G01X606922Y-4046370D01*
G01X591770Y-4046370D01*
G01X591619Y-4047127D01*
G01X591534Y-4047487D01*
G01X591430Y-4047809D01*
G01X591306Y-4048093D01*
G01X591091Y-4048458D01*
G01X590958Y-4048723D01*
G01X590795Y-4049192D01*
G01X590625Y-4049921D01*
G01X590397Y-4050603D01*
G01X589952Y-4051597D01*
G01X589649Y-4052430D01*
G01X589043Y-4054248D01*
G01X588665Y-4055266D01*
G01X588295Y-4056076D01*
G01X588068Y-4056758D01*
G01X587897Y-4057487D01*
G01X587793Y-4057809D01*
G01X587670Y-4058093D01*
G01X587455Y-4058458D01*
G01X587322Y-4058723D01*
G01X587159Y-4059192D01*
G01X586988Y-4059921D01*
G01X586761Y-4060603D01*
G01X586477Y-4061218D01*
G01X586250Y-4061824D01*
G01X585975Y-4062733D01*
G01X585568Y-4063652D01*
G01X585341Y-4064334D01*
G01X585170Y-4065063D01*
G01X585066Y-4065385D01*
G01X584943Y-4065669D01*
G01X584728Y-4066034D01*
G01X584595Y-4066299D01*
G01X584431Y-4066767D01*
G01X584346Y-4067127D01*
G01X584195Y-4067885D01*
G01X579195Y-4067885D01*
G01X575483Y-4067809D01*
G01X574592Y-4067714D01*
G01X574346Y-4067582D01*
G01X574801Y-4066521D01*
G01X575483Y-4064814D01*
G01X576013Y-4063339D01*
G01X576392Y-4062321D01*
G01X576922Y-4061142D01*
G01X577301Y-4060084D01*
G01X577831Y-4058642D01*
G01X578513Y-4056935D01*
G01X579043Y-4055461D01*
G01X579422Y-4054442D01*
G01X579952Y-4053264D01*
G01X580331Y-4052205D01*
G01X580861Y-4050764D01*
G01X581543Y-4049057D01*
G01X582074Y-4047582D01*
G01X582452Y-4046564D01*
G01X582983Y-4045385D01*
G01X583362Y-4044327D01*
G01X583892Y-4042885D01*
G01X584574Y-4041178D01*
G01X585104Y-4039703D01*
G01X585483Y-4038685D01*
G01X585792Y-4037999D01*
G01X594914Y-4037999D01*
G01X594952Y-4038339D01*
G01X595477Y-4038395D01*
G01X606467Y-4038491D01*
G01X606467Y-4038491D01*
G01X618002Y-4038375D01*
G01X618286Y-4038339D01*
G01X618589Y-4038112D01*
G01X618589Y-4037733D01*
G01X618200Y-4036370D01*
G01X617973Y-4035764D01*
G01X617566Y-4034855D01*
G01X617291Y-4033945D01*
G01X617064Y-4033339D01*
G01X616657Y-4032430D01*
G01X616382Y-4031521D01*
G01X616155Y-4030915D01*
G01X615710Y-4029930D01*
G01X615331Y-4028872D01*
G01X614725Y-4027239D01*
G01X614195Y-4025764D01*
G01X613816Y-4024746D01*
G01X613324Y-4023642D01*
G01X613049Y-4022733D01*
G01X612822Y-4022127D01*
G01X612415Y-4021218D01*
G01X612140Y-4020309D01*
G01X611913Y-4019703D01*
G01X611467Y-4018718D01*
G01X611164Y-4017885D01*
G01X610558Y-4016067D01*
G01X610180Y-4015049D01*
G01X609687Y-4013908D01*
G01X609413Y-4012818D01*
G01X609185Y-4012137D01*
G01X608740Y-4011142D01*
G01X608437Y-4010309D01*
G01X607225Y-4006597D01*
G01X606988Y-4005574D01*
G01X606884Y-4005309D01*
G01X606619Y-4005006D01*
G01X606354Y-4004968D01*
G01X606164Y-4005158D01*
G01X606013Y-4005498D01*
G01X605861Y-4005915D01*
G01X605710Y-4006483D01*
G01X605369Y-4008226D01*
G01X605104Y-4009249D01*
G01X604498Y-4011294D01*
G01X604261Y-4012345D01*
G01X604034Y-4013027D01*
G01X603627Y-4013983D01*
G01X603352Y-4015072D01*
G01X603125Y-4015754D01*
G01X602718Y-4016711D01*
G01X602443Y-4017800D01*
G01X602216Y-4018481D01*
G01X601808Y-4019400D01*
G01X601534Y-4020309D01*
G01X601307Y-4020915D01*
G01X600899Y-4021824D01*
G01X600625Y-4022733D01*
G01X600397Y-4023339D01*
G01X599990Y-4024248D01*
G01X599716Y-4025158D01*
G01X599488Y-4025764D01*
G01X599081Y-4026673D01*
G01X598807Y-4027582D01*
G01X598579Y-4028188D01*
G01X598172Y-4029097D01*
G01X597897Y-4030006D01*
G01X597670Y-4030612D01*
G01X597263Y-4031521D01*
G01X596988Y-4032430D01*
G01X596761Y-4033036D01*
G01X596354Y-4033945D01*
G01X596079Y-4034855D01*
G01X595852Y-4035461D01*
G01X595407Y-4036445D01*
G01X595104Y-4037279D01*
G01X594981Y-4037686D01*
G01X594914Y-4037999D01*
G01X585792Y-4037999D01*
G01X586013Y-4037506D01*
G01X586392Y-4036448D01*
G01X586922Y-4035006D01*
G01X587604Y-4033299D01*
G01X588134Y-4031824D01*
G01X588513Y-4030806D01*
G01X589043Y-4029627D01*
G01X589422Y-4028569D01*
G01X590028Y-4026936D01*
G01X590558Y-4025461D01*
G01X590937Y-4024443D01*
G01X591467Y-4023263D01*
G01X591846Y-4022205D01*
G01X592377Y-4020764D01*
G01X593059Y-4019057D01*
G01X593589Y-4017582D01*
G01X593968Y-4016564D01*
G01X594498Y-4015385D01*
G01X594877Y-4014326D01*
G01X595407Y-4012885D01*
G01X596089Y-4011178D01*
G01X596619Y-4009703D01*
G01X596998Y-4008685D01*
G01X597528Y-4007506D01*
G01X597907Y-4006448D01*
G01X598437Y-4005006D01*
G01X599119Y-4003299D01*
G01X599649Y-4001824D01*
G01X600028Y-4000806D01*
G01X600558Y-3999627D01*
G01X600937Y-3998569D01*
G01X601467Y-3997127D01*
G01X601770Y-3996370D01*
G01X606467Y-3996370D01*
G01X610104Y-3996445D01*
G01X611127Y-3996540D01*
G01X611439Y-3996602D01*
G01X611730Y-3996758D01*
G01X611939Y-3996985D01*
G01X612128Y-3997288D01*
G01X612298Y-3997667D01*
G01X612755Y-3998903D01*
G01X613134Y-3999712D01*
G01X613589Y-4000764D01*
G01X616013Y-4006824D01*
G01X616240Y-4007371D01*
G01X616922Y-4008870D01*
G01X617225Y-4009703D01*
G01X617604Y-4010721D01*
G01X617983Y-4011531D01*
G01X618437Y-4012582D01*
G01X620861Y-4018642D01*
G01X621089Y-4019189D01*
G01X621771Y-4020688D01*
G01X622074Y-4021521D01*
G01X622452Y-4022539D01*
G01X622945Y-4023642D01*
G01X623219Y-4024542D01*
G01X623447Y-4025072D01*
G01X623664Y-4025430D01*
G01X623968Y-4026055D01*
G01X624195Y-4026673D01*
G01X624574Y-4027691D01*
G01X625104Y-4028870D01*
G01X625407Y-4029703D01*
G01X625786Y-4030721D01*
G01X626165Y-4031531D01*
G01X626619Y-4032582D01*
G01X629043Y-4038642D01*
G01X629271Y-4039189D01*
G01X629952Y-4040688D01*
G01X630256Y-4041521D01*
G01X630634Y-4042539D01*
G01X631127Y-4043642D01*
G01X631401Y-4044542D01*
G01X631628Y-4045072D01*
G01X631846Y-4045430D01*
G01X632149Y-4046055D01*
G01X632377Y-4046673D01*
G01X632755Y-4047691D01*
G01X633286Y-4048870D01*
G01X633589Y-4049703D01*
G01X633967Y-4050721D01*
G01X634346Y-4051531D01*
G01X634801Y-4052582D01*
G01X637225Y-4058642D01*
G01X637452Y-4059189D01*
G01X638134Y-4060688D01*
G01X638437Y-4061521D01*
G01X638816Y-4062539D01*
G01X639346Y-4063718D01*
G01X639649Y-4064551D01*
G01X639952Y-4065347D01*
G01X640104Y-4065659D01*
G01X640329Y-4066034D01*
G01X640461Y-4066299D01*
G01X640625Y-4066767D01*
G01X640805Y-4067449D01*
G01X641108Y-4067752D01*
G01X641432Y-4067686D01*
G01X641808Y-4067430D01*
G01X642083Y-4067165D01*
G01X642661Y-4066464D01*
G01X643456Y-4065366D01*
G01X644479Y-4064040D01*
G01X645274Y-4062942D01*
G01X646297Y-4061616D01*
G01X646922Y-4060764D01*
G01X648608Y-4058396D01*
G01X649630Y-4057070D01*
G01X650426Y-4055972D01*
G01X651449Y-4054646D01*
G01X652244Y-4053548D01*
G01X653267Y-4052222D01*
G01X653892Y-4051370D01*
G01X655577Y-4049002D01*
G01X656600Y-4047676D01*
G01X657396Y-4046578D01*
G01X658418Y-4045252D01*
G01X659214Y-4044154D01*
G01X660236Y-4042828D01*
G01X660862Y-4041976D01*
G01X662547Y-4039608D01*
G01X663570Y-4038282D01*
G01X664365Y-4037184D01*
G01X665388Y-4035858D01*
G01X666184Y-4034760D01*
G01X667206Y-4033434D01*
G01X667831Y-4032582D01*
G01X668691Y-4031370D01*
G01X668823Y-4031067D01*
G01X668861Y-4030764D01*
G01X668804Y-4030461D01*
G01X668589Y-4030025D01*
G01X668286Y-4029570D01*
G01X668056Y-4029317D01*
G01X667696Y-4028844D01*
G01X666960Y-4027696D01*
G01X666780Y-4027459D01*
G01X666541Y-4027196D01*
G01X666181Y-4026722D01*
G01X665445Y-4025574D01*
G01X665265Y-4025337D01*
G01X665026Y-4025075D01*
G01X664666Y-4024601D01*
G01X663930Y-4023453D01*
G01X663750Y-4023216D01*
G01X663511Y-4022953D01*
G01X663151Y-4022480D01*
G01X662414Y-4021332D01*
G01X662235Y-4021095D01*
G01X661995Y-4020832D01*
G01X661636Y-4020359D01*
G01X660824Y-4019097D01*
G01X660255Y-4018339D01*
G01X659557Y-4017392D01*
G01X658778Y-4016180D01*
G01X658598Y-4015943D01*
G01X658359Y-4015681D01*
G01X657999Y-4015207D01*
G01X657263Y-4014059D01*
G01X657083Y-4013822D01*
G01X656844Y-4013559D01*
G01X656484Y-4013086D01*
G01X655748Y-4011938D01*
G01X655568Y-4011701D01*
G01X655329Y-4011438D01*
G01X654969Y-4010965D01*
G01X654233Y-4009817D01*
G01X654053Y-4009580D01*
G01X653814Y-4009317D01*
G01X653454Y-4008844D01*
G01X652718Y-4007695D01*
G01X652538Y-4007459D01*
G01X652298Y-4007196D01*
G01X651939Y-4006722D01*
G01X651202Y-4005574D01*
G01X651023Y-4005337D01*
G01X650783Y-4005075D01*
G01X650423Y-4004601D01*
G01X649687Y-4003453D01*
G01X649507Y-4003216D01*
G01X649268Y-4002953D01*
G01X648908Y-4002480D01*
G01X648172Y-4001332D01*
G01X647992Y-4001095D01*
G01X647753Y-4000832D01*
G01X647393Y-4000359D01*
G01X646581Y-3999097D01*
G01X646013Y-3998339D01*
G01X645483Y-3997620D01*
G01X645274Y-3997288D01*
G01X644801Y-3996370D01*
G01X649952Y-3996370D01*
G01X654557Y-3996429D01*
G01X655371Y-3996486D01*
G01X655776Y-3996606D01*
G01X656155Y-3996834D01*
G01X656394Y-3997059D01*
G01X656754Y-3997532D01*
G01X657566Y-3998794D01*
G01X658134Y-3999552D01*
G01X658833Y-4000498D01*
G01X659612Y-4001711D01*
G01X659791Y-4001947D01*
G01X660030Y-4002210D01*
G01X660390Y-4002684D01*
G01X661202Y-4003946D01*
G01X661771Y-4004703D01*
G01X662469Y-4005650D01*
G01X663248Y-4006862D01*
G01X663428Y-4007099D01*
G01X663667Y-4007362D01*
G01X664027Y-4007835D01*
G01X664763Y-4008983D01*
G01X664943Y-4009220D01*
G01X665182Y-4009483D01*
G01X665542Y-4009956D01*
G01X666354Y-4011218D01*
G01X666922Y-4011976D01*
G01X667620Y-4012923D01*
G01X668399Y-4014135D01*
G01X668579Y-4014371D01*
G01X668818Y-4014634D01*
G01X669178Y-4015108D01*
G01X669952Y-4016332D01*
G01X670748Y-4017451D01*
G01X671771Y-4019059D01*
G01X672566Y-4020179D01*
G01X673134Y-4021067D01*
G01X674043Y-4022582D01*
G01X674261Y-4022904D01*
G01X674460Y-4023112D01*
G01X674801Y-4023188D01*
G01X675142Y-4022923D01*
G01X675558Y-4022430D01*
G01X675899Y-4021954D01*
G01X676922Y-4020347D01*
G01X677377Y-4019703D01*
G01X679820Y-4016275D01*
G01X680843Y-4014949D01*
G01X681638Y-4013851D01*
G01X682377Y-4012885D01*
G01X683873Y-4011010D01*
G01X684668Y-4009911D01*
G01X685691Y-4008586D01*
G01X686487Y-4007487D01*
G01X687509Y-4006161D01*
G01X688305Y-4005063D01*
G01X689327Y-4003737D01*
G01X689952Y-4002885D01*
G01X690407Y-4002288D01*
G01X690861Y-4001786D01*
G01X691335Y-4001123D01*
G01X692358Y-3999798D01*
G01X693134Y-3998728D01*
G01X693667Y-3998105D01*
G01X694027Y-3997632D01*
G01X694346Y-3997127D01*
G01X694801Y-3996370D01*
G01X699801Y-3996370D01*
G01X703513Y-3996445D01*
G01X704403Y-3996540D01*
G01X704649Y-3996673D01*
G01X704384Y-3997089D01*
G01X703608Y-3998093D01*
G01X702812Y-3999192D01*
G01X701790Y-4000517D01*
G01X701164Y-4001370D01*
G01X699479Y-4003737D01*
G01X698456Y-4005063D01*
G01X697661Y-4006161D01*
G01X696638Y-4007487D01*
G01X695843Y-4008586D01*
G01X694820Y-4009911D01*
G01X694024Y-4011010D01*
G01X693002Y-4012336D01*
G01X692206Y-4013434D01*
G01X691184Y-4014760D01*
G01X690388Y-4015858D01*
G01X689365Y-4017184D01*
G01X688740Y-4018036D01*
G01X687055Y-4020404D01*
G01X686032Y-4021730D01*
G01X685236Y-4022828D01*
G01X684214Y-4024154D01*
G01X683418Y-4025252D01*
G01X682396Y-4026578D01*
G01X681619Y-4027648D01*
G01X681087Y-4028271D01*
G01X680727Y-4028744D01*
G01X680407Y-4029248D01*
G01X680227Y-4029618D01*
G01X680142Y-4029968D01*
G01X680151Y-4030300D01*
G01X680407Y-4030896D01*
G01X680710Y-4031351D01*
G01X680940Y-4031604D01*
G01X681299Y-4032078D01*
G01X682036Y-4033226D01*
G01X682216Y-4033463D01*
G01X682455Y-4033725D01*
G01X682815Y-4034199D01*
G01X683551Y-4035347D01*
G01X683731Y-4035584D01*
G01X683970Y-4035846D01*
G01X684330Y-4036320D01*
G01X685142Y-4037582D01*
G01X685710Y-4038339D01*
G01X685994Y-4038699D01*
G01X686619Y-4039551D01*
G01X701922Y-4060981D01*
G01X702455Y-4061604D01*
G01X702815Y-4062077D01*
G01X703551Y-4063226D01*
G01X703731Y-4063463D01*
G01X703970Y-4063725D01*
G01X704330Y-4064199D01*
G01X705142Y-4065460D01*
G01X705985Y-4066578D01*
G01X706202Y-4066900D01*
G01X706363Y-4067184D01*
G01X706467Y-4067430D01*
G01X706258Y-4067607D01*
G01X705423Y-4067749D01*
G01X704408Y-4067821D01*
G37*
G36*
G01X-456054Y-4066824D02*
G01X-455806Y-4067279D01*
G01X-455503Y-4067885D01*
G01X-461260Y-4067885D01*
G01X-464833Y-4067821D01*
G01X-466386Y-4067707D01*
G01X-466914Y-4067629D01*
G01X-467276Y-4067537D01*
G01X-467690Y-4067194D01*
G01X-468069Y-4066663D01*
G01X-468391Y-4066067D01*
G01X-468668Y-4065612D01*
G01X-469328Y-4064682D01*
G01X-469897Y-4063794D01*
G01X-470806Y-4062279D01*
G01X-471260Y-4061559D01*
G01X-471933Y-4060612D01*
G01X-472224Y-4060157D01*
G01X-472634Y-4059400D01*
G01X-472910Y-4058945D01*
G01X-473571Y-4058015D01*
G01X-474139Y-4057127D01*
G01X-476109Y-4053983D01*
G01X-476781Y-4053036D01*
G01X-477072Y-4052582D01*
G01X-477482Y-4051824D01*
G01X-477759Y-4051370D01*
G01X-478419Y-4050439D01*
G01X-479404Y-4048908D01*
G01X-479584Y-4048671D01*
G01X-479823Y-4048408D01*
G01X-480183Y-4047934D01*
G01X-480957Y-4046710D01*
G01X-482169Y-4045006D01*
G01X-482624Y-4044409D01*
G01X-482917Y-4044087D01*
G01X-483145Y-4043709D01*
G01X-483325Y-4043273D01*
G01X-483628Y-4042894D01*
G01X-483836Y-4042733D01*
G01X-484253Y-4042392D01*
G01X-484594Y-4041976D01*
G01X-485048Y-4041379D01*
G01X-485503Y-4040877D01*
G01X-485967Y-4040243D01*
G01X-486345Y-4039864D01*
G01X-486781Y-4039551D01*
G01X-487401Y-4039021D01*
G01X-487700Y-4038794D01*
G01X-488533Y-4038330D01*
G01X-488988Y-4038053D01*
G01X-489755Y-4037525D01*
G01X-490086Y-4037355D01*
G01X-490436Y-4037222D01*
G01X-491166Y-4037042D01*
G01X-491488Y-4036938D01*
G01X-491772Y-4036815D01*
G01X-492143Y-4036602D01*
G01X-492662Y-4036445D01*
G01X-493126Y-4036389D01*
G01X-494707Y-4036332D01*
G01X-495077Y-4036285D01*
G01X-495351Y-4036218D01*
G01X-496086Y-4036145D01*
G01X-502321Y-4036067D01*
G01X-508836Y-4036067D01*
G01X-508836Y-4067885D01*
G01X-518230Y-4067885D01*
G01X-518230Y-4032127D01*
G01X-518230Y-4004249D01*
G01X-508836Y-4004249D01*
G01X-508836Y-4015915D01*
G01X-508827Y-4021029D01*
G01X-508720Y-4027515D01*
G01X-508620Y-4027752D01*
G01X-508174Y-4027787D01*
G01X-508174Y-4027787D01*
G01X-496563Y-4027885D01*
G01X-485404Y-4027813D01*
G01X-483975Y-4027752D01*
G01X-483419Y-4027657D01*
G01X-481381Y-4027390D01*
G01X-480465Y-4027241D01*
G01X-479925Y-4027118D01*
G01X-479217Y-4026900D01*
G01X-477776Y-4026370D01*
G01X-477094Y-4026067D01*
G01X-475351Y-4025006D01*
G01X-475001Y-4024779D01*
G01X-474707Y-4024552D01*
G01X-474470Y-4024324D01*
G01X-474130Y-4023879D01*
G01X-473751Y-4023500D01*
G01X-473315Y-4023169D01*
G01X-473116Y-4022960D01*
G01X-472937Y-4022714D01*
G01X-472614Y-4022118D01*
G01X-471810Y-4020697D01*
G01X-471639Y-4020347D01*
G01X-471507Y-4020016D01*
G01X-471336Y-4019410D01*
G01X-471057Y-4018429D01*
G01X-470986Y-4017748D01*
G01X-470957Y-4016521D01*
G01X-470979Y-4015399D01*
G01X-471042Y-4014532D01*
G01X-471109Y-4014097D01*
G01X-471194Y-4013699D01*
G01X-471563Y-4012279D01*
G01X-471724Y-4011767D01*
G01X-471904Y-4011294D01*
G01X-472103Y-4010858D01*
G01X-472321Y-4010461D01*
G01X-472738Y-4009817D01*
G01X-473348Y-4009109D01*
G01X-474300Y-4007970D01*
G01X-474632Y-4007620D01*
G01X-474982Y-4007288D01*
G01X-475351Y-4006976D01*
G01X-475730Y-4006692D01*
G01X-476109Y-4006445D01*
G01X-476487Y-4006237D01*
G01X-477413Y-4005839D01*
G01X-478543Y-4005319D01*
G01X-479224Y-4005091D01*
G01X-480275Y-4004855D01*
G01X-480924Y-4004667D01*
G01X-481336Y-4004589D01*
G01X-482378Y-4004542D01*
G01X-482984Y-4004466D01*
G01X-483284Y-4004388D01*
G01X-483744Y-4004352D01*
G01X-496260Y-4004249D01*
G01X-508836Y-4004249D01*
G01X-518230Y-4004249D01*
G01X-518230Y-3996370D01*
G01X-500957Y-3996370D01*
G01X-485157Y-3996441D01*
G01X-483353Y-3996503D01*
G01X-482974Y-3996587D01*
G01X-482293Y-3996663D01*
G01X-480984Y-3996702D01*
G01X-479594Y-3996824D01*
G01X-478382Y-3996976D01*
G01X-477473Y-3997127D01*
G01X-475957Y-3997430D01*
G01X-475275Y-3997582D01*
G01X-474177Y-3997885D01*
G01X-472955Y-3998122D01*
G01X-472586Y-3998226D01*
G01X-472274Y-3998349D01*
G01X-471899Y-3998567D01*
G01X-471331Y-3998870D01*
G01X-470436Y-3999258D01*
G01X-470086Y-3999438D01*
G01X-469755Y-3999637D01*
G01X-469149Y-4000063D01*
G01X-468618Y-4000366D01*
G01X-468164Y-4000555D01*
G01X-467785Y-4000858D01*
G01X-467463Y-4001284D01*
G01X-467084Y-4001663D01*
G01X-466750Y-4001907D01*
G01X-466374Y-4002241D01*
G01X-466099Y-4002535D01*
G01X-465806Y-4002885D01*
G01X-465531Y-4003245D01*
G01X-465313Y-4003567D01*
G01X-465152Y-4003851D01*
G01X-464954Y-4004315D01*
G01X-464651Y-4004694D01*
G01X-464442Y-4004855D01*
G01X-464224Y-4005034D01*
G01X-464025Y-4005271D01*
G01X-463846Y-4005565D01*
G01X-463382Y-4006597D01*
G01X-463005Y-4007245D01*
G01X-462873Y-4007511D01*
G01X-462709Y-4007980D01*
G01X-462539Y-4008699D01*
G01X-462435Y-4009021D01*
G01X-462311Y-4009305D01*
G01X-462096Y-4009674D01*
G01X-461964Y-4009978D01*
G01X-461800Y-4010574D01*
G01X-461639Y-4011559D01*
G01X-461488Y-4012317D01*
G01X-461360Y-4012806D01*
G01X-461289Y-4013573D01*
G01X-461260Y-4015006D01*
G01X-461308Y-4017030D01*
G01X-461412Y-4018339D01*
G01X-461488Y-4018964D01*
G01X-461639Y-4019873D01*
G01X-461866Y-4020688D01*
G01X-462103Y-4021739D01*
G01X-462330Y-4022421D01*
G01X-462624Y-4023046D01*
G01X-463240Y-4024476D01*
G01X-463516Y-4025044D01*
G01X-463836Y-4025612D01*
G01X-464253Y-4026256D01*
G01X-464736Y-4026834D01*
G01X-464963Y-4027212D01*
G01X-465143Y-4027648D01*
G01X-465446Y-4028027D01*
G01X-465872Y-4028349D01*
G01X-466251Y-4028728D01*
G01X-466495Y-4029062D01*
G01X-466829Y-4029438D01*
G01X-467122Y-4029713D01*
G01X-467832Y-4030290D01*
G01X-468685Y-4030915D01*
G01X-471229Y-4032506D01*
G01X-471855Y-4032809D01*
G01X-472473Y-4033036D01*
G01X-473491Y-4033415D01*
G01X-474300Y-4033784D01*
G01X-474982Y-4034012D01*
G01X-475749Y-4034182D01*
G01X-477169Y-4034551D01*
G01X-478805Y-4035041D01*
G01X-479253Y-4035120D01*
G01X-480048Y-4035158D01*
G01X-480692Y-4035233D01*
G01X-480806Y-4035461D01*
G01X-480617Y-4035764D01*
G01X-480351Y-4036067D01*
G01X-479935Y-4036370D01*
G01X-478921Y-4036834D01*
G01X-478571Y-4037014D01*
G01X-478240Y-4037212D01*
G01X-477451Y-4037771D01*
G01X-476213Y-4038567D01*
G01X-475920Y-4038794D01*
G01X-475683Y-4039021D01*
G01X-475342Y-4039466D01*
G01X-474963Y-4039845D01*
G01X-474328Y-4040347D01*
G01X-473827Y-4040982D01*
G01X-473448Y-4041360D01*
G01X-473114Y-4041604D01*
G01X-472738Y-4041938D01*
G01X-472463Y-4042231D01*
G01X-472169Y-4042582D01*
G01X-470673Y-4044457D01*
G01X-470048Y-4045309D01*
G01X-467558Y-4048794D01*
G01X-467267Y-4049248D01*
G01X-466857Y-4050006D01*
G01X-466580Y-4050461D01*
G01X-465919Y-4051391D01*
G01X-465351Y-4052279D01*
G01X-464442Y-4053794D01*
G01X-463988Y-4054514D01*
G01X-463192Y-4055633D01*
G01X-462624Y-4056521D01*
G01X-461715Y-4058036D01*
G01X-461260Y-4058756D01*
G01X-460588Y-4059703D01*
G01X-460297Y-4060157D01*
G01X-459887Y-4060915D01*
G01X-459610Y-4061370D01*
G01X-458950Y-4062300D01*
G01X-458382Y-4063188D01*
G01X-457473Y-4064703D01*
G01X-457018Y-4065423D01*
G01X-456346Y-4066370D01*
G01X-456054Y-4066824D01*
G37*
G36*
G01X553892Y-3996370D02*
G01X566619Y-3996370D01*
G01X566619Y-4067885D01*
G01X557528Y-4067885D01*
G01X557528Y-4038794D01*
G01X557328Y-4010626D01*
G01X557262Y-4009683D01*
G01X556998Y-4009587D01*
G01X556771Y-4009921D01*
G01X556619Y-4010309D01*
G01X554801Y-4015764D01*
G01X554422Y-4016782D01*
G01X553930Y-4017923D01*
G01X553655Y-4019012D01*
G01X553428Y-4019694D01*
G01X553020Y-4020650D01*
G01X552746Y-4021739D01*
G01X552519Y-4022421D01*
G01X552235Y-4023036D01*
G01X552007Y-4023642D01*
G01X551733Y-4024552D01*
G01X551468Y-4025158D01*
G01X551202Y-4025801D01*
G01X550928Y-4026891D01*
G01X550700Y-4027572D01*
G01X550293Y-4028529D01*
G01X550019Y-4029618D01*
G01X549791Y-4030300D01*
G01X549346Y-4031294D01*
G01X549043Y-4032127D01*
G01X547225Y-4037582D01*
G01X546846Y-4038600D01*
G01X546354Y-4039741D01*
G01X546079Y-4040830D01*
G01X545852Y-4041512D01*
G01X545445Y-4042468D01*
G01X545170Y-4043557D01*
G01X544943Y-4044239D01*
G01X544498Y-4045233D01*
G01X544195Y-4046067D01*
G01X542301Y-4051746D01*
G01X541695Y-4053379D01*
G01X541165Y-4054854D01*
G01X539876Y-4058716D01*
G01X539270Y-4060349D01*
G01X538740Y-4061824D01*
G01X537452Y-4065686D01*
G01X536922Y-4067127D01*
G01X536619Y-4067885D01*
G01X532831Y-4067885D01*
G01X529398Y-4067826D01*
G01X528754Y-4067769D01*
G01X528477Y-4067688D01*
G01X528172Y-4067468D01*
G01X527992Y-4067250D01*
G01X527831Y-4066976D01*
G01X527566Y-4066332D01*
G01X527291Y-4065243D01*
G01X527064Y-4064561D01*
G01X526657Y-4063605D01*
G01X526382Y-4062516D01*
G01X526155Y-4061834D01*
G01X525748Y-4060877D01*
G01X525473Y-4059788D01*
G01X525246Y-4059106D01*
G01X524962Y-4058491D01*
G01X524735Y-4057885D01*
G01X524460Y-4056976D01*
G01X524053Y-4056057D01*
G01X523825Y-4055375D01*
G01X523551Y-4054286D01*
G01X523143Y-4053330D01*
G01X522916Y-4052648D01*
G01X522642Y-4051559D01*
G01X522234Y-4050603D01*
G01X522007Y-4049921D01*
G01X521733Y-4048832D01*
G01X521325Y-4047875D01*
G01X521098Y-4047194D01*
G01X520823Y-4046104D01*
G01X520416Y-4045148D01*
G01X520189Y-4044466D01*
G01X520019Y-4043737D01*
G01X519914Y-4043415D01*
G01X519791Y-4043131D01*
G01X519576Y-4042766D01*
G01X519443Y-4042501D01*
G01X519280Y-4042033D01*
G01X519195Y-4041673D01*
G01X519005Y-4040953D01*
G01X518598Y-4039996D01*
G01X518371Y-4039315D01*
G01X518096Y-4038226D01*
G01X517689Y-4037269D01*
G01X517462Y-4036588D01*
G01X517187Y-4035498D01*
G01X516780Y-4034542D01*
G01X516553Y-4033860D01*
G01X516278Y-4032771D01*
G01X515871Y-4031815D01*
G01X515644Y-4031133D01*
G01X515369Y-4030044D01*
G01X514962Y-4029087D01*
G01X514735Y-4028406D01*
G01X514564Y-4027676D01*
G01X514460Y-4027354D01*
G01X514337Y-4027070D01*
G01X514121Y-4026706D01*
G01X513989Y-4026441D01*
G01X513825Y-4025972D01*
G01X513740Y-4025612D01*
G01X513551Y-4024892D01*
G01X513144Y-4023936D01*
G01X512916Y-4023254D01*
G01X512642Y-4022165D01*
G01X512234Y-4021209D01*
G01X512007Y-4020527D01*
G01X511733Y-4019438D01*
G01X511325Y-4018481D01*
G01X511098Y-4017800D01*
G01X510823Y-4016711D01*
G01X510416Y-4015754D01*
G01X510189Y-4015072D01*
G01X509914Y-4013983D01*
G01X509507Y-4013027D01*
G01X509280Y-4012345D01*
G01X509109Y-4011616D01*
G01X509005Y-4011294D01*
G01X508882Y-4011010D01*
G01X508667Y-4010645D01*
G01X508534Y-4010380D01*
G01X508371Y-4009911D01*
G01X508200Y-4009211D01*
G01X508096Y-4008945D01*
G01X507831Y-4008642D01*
G01X507736Y-4009472D01*
G01X507528Y-4038188D01*
G01X507528Y-4067885D01*
G01X498437Y-4067885D01*
G01X498437Y-4032127D01*
G01X498437Y-3996370D01*
G01X505407Y-3996370D01*
G01X510672Y-3996445D01*
G01X512026Y-3996540D01*
G01X512384Y-3996602D01*
G01X512983Y-3997582D01*
G01X513248Y-3998226D01*
G01X513522Y-3999315D01*
G01X513750Y-3999997D01*
G01X514157Y-4000953D01*
G01X514432Y-4002042D01*
G01X514659Y-4002724D01*
G01X515066Y-4003680D01*
G01X515341Y-4004769D01*
G01X515568Y-4005451D01*
G01X515975Y-4006408D01*
G01X516250Y-4007496D01*
G01X516477Y-4008178D01*
G01X516884Y-4009135D01*
G01X517159Y-4010224D01*
G01X517386Y-4010906D01*
G01X517793Y-4011862D01*
G01X518068Y-4012951D01*
G01X518295Y-4013633D01*
G01X518702Y-4014589D01*
G01X518977Y-4015678D01*
G01X519204Y-4016360D01*
G01X519611Y-4017317D01*
G01X519886Y-4018406D01*
G01X520113Y-4019087D01*
G01X520520Y-4020044D01*
G01X520795Y-4021133D01*
G01X521022Y-4021815D01*
G01X521429Y-4022771D01*
G01X521704Y-4023860D01*
G01X521931Y-4024542D01*
G01X522339Y-4025498D01*
G01X522613Y-4026588D01*
G01X522840Y-4027269D01*
G01X523248Y-4028226D01*
G01X523522Y-4029315D01*
G01X523750Y-4029997D01*
G01X524157Y-4030953D01*
G01X524432Y-4032042D01*
G01X524659Y-4032724D01*
G01X524943Y-4033339D01*
G01X525170Y-4033945D01*
G01X525445Y-4034855D01*
G01X525710Y-4035461D01*
G01X525975Y-4036104D01*
G01X526250Y-4037194D01*
G01X526477Y-4037875D01*
G01X526884Y-4038832D01*
G01X527159Y-4039921D01*
G01X527386Y-4040603D01*
G01X527793Y-4041559D01*
G01X528068Y-4042648D01*
G01X528295Y-4043330D01*
G01X528702Y-4044286D01*
G01X528977Y-4045375D01*
G01X529204Y-4046057D01*
G01X529611Y-4047013D01*
G01X529886Y-4048103D01*
G01X530113Y-4048784D01*
G01X530397Y-4049419D01*
G01X530520Y-4049779D01*
G01X530625Y-4050177D01*
G01X530795Y-4051048D01*
G01X530899Y-4051446D01*
G01X531022Y-4051805D01*
G01X531165Y-4052127D01*
G01X531430Y-4052771D01*
G01X531704Y-4053860D01*
G01X531931Y-4054542D01*
G01X532216Y-4055177D01*
G01X532339Y-4055536D01*
G01X532443Y-4055934D01*
G01X532528Y-4056370D01*
G01X532718Y-4057014D01*
G01X532983Y-4057127D01*
G01X533210Y-4056950D01*
G01X533589Y-4056370D01*
G01X533731Y-4056048D01*
G01X533854Y-4055688D01*
G01X533958Y-4055290D01*
G01X534128Y-4054419D01*
G01X534233Y-4054021D01*
G01X534356Y-4053661D01*
G01X534498Y-4053339D01*
G01X534763Y-4052695D01*
G01X535038Y-4051606D01*
G01X535265Y-4050925D01*
G01X535710Y-4049930D01*
G01X536013Y-4049097D01*
G01X539043Y-4040006D01*
G01X539422Y-4038988D01*
G01X539914Y-4037847D01*
G01X540189Y-4036758D01*
G01X540416Y-4036076D01*
G01X540824Y-4035120D01*
G01X541098Y-4034031D01*
G01X541325Y-4033349D01*
G01X541733Y-4032392D01*
G01X542007Y-4031303D01*
G01X542235Y-4030622D01*
G01X542680Y-4029627D01*
G01X542983Y-4028794D01*
G01X545407Y-4021521D01*
G01X545786Y-4020503D01*
G01X546278Y-4019362D01*
G01X546553Y-4018273D01*
G01X546780Y-4017591D01*
G01X547187Y-4016635D01*
G01X547462Y-4015546D01*
G01X547689Y-4014864D01*
G01X548096Y-4013908D01*
G01X548371Y-4012818D01*
G01X548598Y-4012137D01*
G01X548882Y-4011521D01*
G01X549110Y-4010915D01*
G01X549384Y-4010006D01*
G01X549791Y-4009087D01*
G01X550019Y-4008406D01*
G01X550293Y-4007317D01*
G01X550700Y-4006360D01*
G01X550928Y-4005678D01*
G01X551202Y-4004589D01*
G01X551610Y-4003633D01*
G01X551837Y-4002951D01*
G01X552007Y-4002222D01*
G01X552111Y-4001900D01*
G01X552235Y-4001616D01*
G01X552450Y-4001251D01*
G01X552583Y-4000986D01*
G01X552746Y-4000517D01*
G01X552916Y-3999788D01*
G01X553144Y-3999106D01*
G01X553428Y-3998472D01*
G01X553551Y-3998112D01*
G01X553655Y-3997714D01*
G01X553740Y-3997279D01*
G01X553892Y-3996370D01*
G37*
G36*
G01X-12472Y-4067885D02*
G01X-22472Y-4067885D01*
G01X-22472Y-4062885D01*
G01X-22472Y-4057885D01*
G01X-12472Y-4057885D01*
G01X-12472Y-4067885D01*
G37*
G36*
G01X327831Y-4067885D02*
G01X319346Y-4067885D01*
G01X319346Y-4040158D01*
G01X319346Y-4012430D01*
G01X318740Y-4012733D01*
G01X318172Y-4012998D01*
G01X317462Y-4013283D01*
G01X317083Y-4013586D01*
G01X316839Y-4013908D01*
G01X316631Y-4014135D01*
G01X316212Y-4014476D01*
G01X315217Y-4015120D01*
G01X314981Y-4015300D01*
G01X314718Y-4015539D01*
G01X314244Y-4015898D01*
G01X313740Y-4016218D01*
G01X312225Y-4017127D01*
G01X311505Y-4017582D01*
G01X310549Y-4018254D01*
G01X310217Y-4018453D01*
G01X309867Y-4018633D01*
G01X309147Y-4018945D01*
G01X308617Y-4019249D01*
G01X308354Y-4019476D01*
G01X308146Y-4019627D01*
G01X307727Y-4019855D01*
G01X306695Y-4020309D01*
G01X306164Y-4020612D01*
G01X305672Y-4020877D01*
G01X304810Y-4021152D01*
G01X304280Y-4021379D01*
G01X303922Y-4021597D01*
G01X303297Y-4021900D01*
G01X302679Y-4022127D01*
G01X301770Y-4022430D01*
G01X301770Y-4018642D01*
G01X301829Y-4015210D01*
G01X301886Y-4014566D01*
G01X302017Y-4014182D01*
G01X302320Y-4013803D01*
G01X302646Y-4013567D01*
G01X303215Y-4013263D01*
G01X304119Y-4012875D01*
G01X304687Y-4012598D01*
G01X305255Y-4012279D01*
G01X308286Y-4010461D01*
G01X309005Y-4010006D01*
G01X309649Y-4009552D01*
G01X310927Y-4008642D01*
G01X311548Y-4008112D01*
G01X311846Y-4007885D01*
G01X312661Y-4007421D01*
G01X312907Y-4007241D01*
G01X313115Y-4007042D01*
G01X313368Y-4006711D01*
G01X313577Y-4006483D01*
G01X313996Y-4006142D01*
G01X314697Y-4005688D01*
G01X314990Y-4005461D01*
G01X315227Y-4005233D01*
G01X315568Y-4004788D01*
G01X315947Y-4004409D01*
G01X316581Y-4003907D01*
G01X317083Y-4003273D01*
G01X317462Y-4002894D01*
G01X317888Y-4002572D01*
G01X318191Y-4002193D01*
G01X318380Y-4001758D01*
G01X318683Y-4001379D01*
G01X319109Y-4001057D01*
G01X319488Y-4000678D01*
G01X319801Y-4000243D01*
G01X320331Y-3999622D01*
G01X320558Y-3999324D01*
G01X321013Y-3998510D01*
G01X321316Y-3998055D01*
G01X321543Y-3997802D01*
G01X321695Y-3997594D01*
G01X321922Y-3997175D01*
G01X322377Y-3996067D01*
G01X328134Y-3996067D01*
G01X328134Y-4031218D01*
G01X328018Y-4066401D01*
G01X327983Y-4067127D01*
G01X327831Y-4067885D01*
G37*
G36*
G01X465558Y-4060016D02*
G01X466013Y-4061067D01*
G01X468740Y-4067885D01*
G01X463437Y-4067885D01*
G01X461098Y-4067847D01*
G01X459384Y-4067733D01*
G01X458762Y-4067648D01*
G01X458295Y-4067544D01*
G01X457985Y-4067421D01*
G01X457680Y-4066966D01*
G01X457225Y-4065915D01*
G01X456543Y-4064208D01*
G01X456013Y-4062733D01*
G01X455634Y-4061715D01*
G01X455104Y-4060536D01*
G01X454725Y-4059478D01*
G01X454195Y-4058036D01*
G01X453513Y-4056329D01*
G01X452983Y-4054854D01*
G01X452604Y-4053836D01*
G01X452074Y-4052658D01*
G01X451695Y-4051599D01*
G01X451164Y-4050158D01*
G01X449649Y-4046370D01*
G01X419649Y-4046370D01*
G01X419270Y-4047319D01*
G01X418664Y-4049019D01*
G01X418058Y-4050652D01*
G01X417452Y-4052352D01*
G01X416846Y-4053986D01*
G01X416240Y-4055686D01*
G01X415634Y-4057319D01*
G01X415028Y-4059019D01*
G01X414422Y-4060652D01*
G01X413816Y-4062352D01*
G01X413210Y-4063986D01*
G01X412604Y-4065686D01*
G01X412073Y-4067127D01*
G01X411770Y-4067885D01*
G01X406922Y-4067885D01*
G01X404810Y-4067856D01*
G01X403324Y-4067771D01*
G01X402815Y-4067707D01*
G01X402462Y-4067629D01*
G01X402225Y-4067430D01*
G01X402755Y-4066026D01*
G01X403286Y-4064551D01*
G01X403664Y-4063533D01*
G01X404195Y-4062355D01*
G01X404573Y-4061296D01*
G01X405104Y-4059854D01*
G01X405786Y-4058148D01*
G01X406316Y-4056673D01*
G01X406695Y-4055655D01*
G01X407225Y-4054476D01*
G01X407604Y-4053418D01*
G01X408134Y-4051976D01*
G01X408816Y-4050269D01*
G01X409346Y-4048794D01*
G01X409725Y-4047776D01*
G01X410255Y-4046597D01*
G01X410634Y-4045539D01*
G01X411164Y-4044097D01*
G01X411846Y-4042390D01*
G01X412377Y-4040915D01*
G01X412755Y-4039897D01*
G01X413248Y-4038794D01*
G01X413477Y-4038036D01*
G01X422755Y-4038036D01*
G01X422831Y-4038339D01*
G01X423335Y-4038393D01*
G01X434801Y-4038491D01*
G01X434801Y-4038491D01*
G01X446619Y-4038491D01*
G01X446382Y-4037582D01*
G01X446155Y-4036976D01*
G01X445748Y-4036067D01*
G01X445473Y-4035158D01*
G01X445246Y-4034551D01*
G01X444839Y-4033642D01*
G01X444564Y-4032733D01*
G01X444337Y-4032127D01*
G01X443930Y-4031218D01*
G01X443655Y-4030309D01*
G01X443428Y-4029703D01*
G01X443020Y-4028794D01*
G01X442746Y-4027885D01*
G01X442519Y-4027279D01*
G01X442111Y-4026370D01*
G01X441837Y-4025461D01*
G01X441609Y-4024855D01*
G01X441202Y-4023945D01*
G01X440928Y-4023036D01*
G01X440700Y-4022430D01*
G01X440293Y-4021521D01*
G01X440019Y-4020612D01*
G01X439791Y-4020006D01*
G01X439346Y-4019021D01*
G01X438967Y-4017963D01*
G01X438361Y-4016330D01*
G01X437755Y-4014630D01*
G01X437149Y-4012996D01*
G01X436619Y-4011521D01*
G01X435407Y-4007885D01*
G01X434801Y-4005915D01*
G01X434649Y-4005442D01*
G01X434498Y-4005082D01*
G01X434346Y-4004836D01*
G01X434121Y-4004682D01*
G01X433875Y-4004928D01*
G01X433551Y-4006408D01*
G01X433286Y-4007430D01*
G01X432680Y-4009514D01*
G01X432443Y-4010745D01*
G01X432339Y-4011142D01*
G01X432216Y-4011502D01*
G01X431931Y-4012146D01*
G01X431808Y-4012506D01*
G01X431704Y-4012904D01*
G01X431534Y-4013775D01*
G01X431430Y-4014173D01*
G01X431306Y-4014532D01*
G01X431164Y-4014855D01*
G01X430899Y-4015498D01*
G01X430625Y-4016587D01*
G01X430397Y-4017269D01*
G01X429990Y-4018188D01*
G01X429715Y-4019097D01*
G01X429488Y-4019703D01*
G01X429081Y-4020612D01*
G01X428806Y-4021521D01*
G01X428579Y-4022127D01*
G01X428172Y-4023036D01*
G01X427897Y-4023945D01*
G01X427670Y-4024552D01*
G01X427263Y-4025461D01*
G01X426988Y-4026370D01*
G01X426761Y-4026976D01*
G01X426354Y-4027885D01*
G01X426079Y-4028794D01*
G01X425852Y-4029400D01*
G01X425407Y-4030385D01*
G01X425028Y-4031443D01*
G01X424422Y-4033077D01*
G01X423892Y-4034551D01*
G01X423513Y-4035570D01*
G01X423020Y-4036710D01*
G01X422831Y-4037430D01*
G01X422755Y-4038036D01*
G01X413477Y-4038036D01*
G01X413522Y-4037885D01*
G01X413749Y-4037279D01*
G01X414195Y-4036294D01*
G01X414573Y-4035236D01*
G01X415104Y-4033794D01*
G01X415786Y-4032087D01*
G01X416316Y-4030612D01*
G01X416695Y-4029594D01*
G01X417225Y-4028415D01*
G01X417604Y-4027357D01*
G01X418134Y-4025915D01*
G01X418816Y-4024208D01*
G01X419346Y-4022733D01*
G01X419725Y-4021715D01*
G01X420255Y-4020536D01*
G01X420634Y-4019478D01*
G01X421165Y-4018036D01*
G01X421846Y-4016330D01*
G01X422377Y-4014855D01*
G01X422755Y-4013837D01*
G01X423286Y-4012657D01*
G01X423664Y-4011599D01*
G01X424195Y-4010158D01*
G01X424876Y-4008451D01*
G01X425407Y-4006976D01*
G01X425786Y-4005958D01*
G01X426278Y-4004855D01*
G01X426553Y-4003946D01*
G01X426780Y-4003339D01*
G01X427187Y-4002430D01*
G01X427462Y-4001531D01*
G01X427689Y-4001000D01*
G01X427904Y-4000645D01*
G01X428037Y-4000380D01*
G01X428200Y-3999911D01*
G01X428371Y-3999192D01*
G01X428475Y-3998870D01*
G01X428598Y-3998586D01*
G01X428813Y-3998221D01*
G01X428946Y-3997956D01*
G01X429109Y-3997487D01*
G01X429195Y-3997127D01*
G01X429346Y-3996370D01*
G01X434346Y-3996370D01*
G01X436553Y-3996408D01*
G01X438172Y-3996521D01*
G01X438761Y-3996606D01*
G01X439204Y-3996711D01*
G01X439500Y-3996834D01*
G01X440558Y-3998870D01*
G01X440861Y-3999703D01*
G01X441240Y-4000721D01*
G01X441619Y-4001531D01*
G01X442074Y-4002582D01*
G01X444498Y-4008642D01*
G01X444725Y-4009189D01*
G01X445407Y-4010688D01*
G01X445710Y-4011521D01*
G01X446089Y-4012539D01*
G01X446581Y-4013642D01*
G01X446856Y-4014542D01*
G01X447083Y-4015072D01*
G01X447301Y-4015430D01*
G01X447604Y-4016055D01*
G01X447831Y-4016673D01*
G01X448210Y-4017691D01*
G01X448740Y-4018870D01*
G01X449043Y-4019703D01*
G01X449422Y-4020721D01*
G01X449801Y-4021531D01*
G01X450255Y-4022582D01*
G01X452680Y-4028642D01*
G01X452907Y-4029189D01*
G01X453589Y-4030688D01*
G01X453892Y-4031521D01*
G01X454270Y-4032539D01*
G01X454763Y-4033642D01*
G01X455037Y-4034542D01*
G01X455265Y-4035072D01*
G01X455483Y-4035430D01*
G01X455786Y-4036055D01*
G01X456013Y-4036673D01*
G01X456392Y-4037691D01*
G01X456922Y-4038870D01*
G01X457225Y-4039703D01*
G01X457604Y-4040721D01*
G01X457983Y-4041531D01*
G01X458437Y-4042582D01*
G01X460255Y-4047127D01*
G01X460483Y-4047674D01*
G01X461164Y-4049173D01*
G01X461467Y-4050006D01*
G01X461846Y-4051024D01*
G01X462339Y-4052127D01*
G01X462613Y-4053027D01*
G01X462841Y-4053557D01*
G01X463058Y-4053915D01*
G01X463361Y-4054540D01*
G01X463589Y-4055157D01*
G01X463967Y-4056176D01*
G01X464498Y-4057355D01*
G01X464801Y-4058188D01*
G01X465180Y-4059206D01*
G01X465558Y-4060016D01*
G37*
G36*
G01X-948230Y-4067885D02*
G01X-957624Y-4067885D01*
G01X-957624Y-4032127D01*
G01X-957624Y-4004855D01*
G01X-948230Y-4004855D01*
G01X-948230Y-4017430D01*
G01X-948114Y-4029926D01*
G01X-948003Y-4030178D01*
G01X-947567Y-4030213D01*
G01X-947567Y-4030213D01*
G01X-936867Y-4030309D01*
G01X-925631Y-4030193D01*
G01X-925351Y-4030158D01*
G01X-925105Y-4030091D01*
G01X-924499Y-4030016D01*
G01X-923742Y-4029987D01*
G01X-923306Y-4029930D01*
G01X-922833Y-4029835D01*
G01X-922321Y-4029703D01*
G01X-920351Y-4029097D01*
G01X-919556Y-4028794D01*
G01X-918751Y-4028349D01*
G01X-918221Y-4028121D01*
G01X-917643Y-4027942D01*
G01X-917397Y-4027809D01*
G01X-917189Y-4027639D01*
G01X-916857Y-4027212D01*
G01X-916478Y-4026834D01*
G01X-916144Y-4026590D01*
G01X-915768Y-4026256D01*
G01X-915493Y-4025962D01*
G01X-915200Y-4025612D01*
G01X-914670Y-4024892D01*
G01X-914291Y-4024248D01*
G01X-913685Y-4023036D01*
G01X-913543Y-4022724D01*
G01X-913315Y-4022042D01*
G01X-913079Y-4020991D01*
G01X-912876Y-4020237D01*
G01X-912805Y-4019470D01*
G01X-912776Y-4018036D01*
G01X-912814Y-4016445D01*
G01X-912892Y-4015749D01*
G01X-913079Y-4015006D01*
G01X-913365Y-4013365D01*
G01X-913479Y-4012949D01*
G01X-913836Y-4012118D01*
G01X-914442Y-4010716D01*
G01X-914745Y-4010186D01*
G01X-914973Y-4009925D01*
G01X-915200Y-4009627D01*
G01X-915586Y-4008945D01*
G01X-915794Y-4008642D01*
G01X-916213Y-4008188D01*
G01X-916564Y-4007885D01*
G01X-916923Y-4007601D01*
G01X-917776Y-4006976D01*
G01X-918806Y-4006294D01*
G01X-919430Y-4005991D01*
G01X-920048Y-4005764D01*
G01X-921531Y-4005273D01*
G01X-921942Y-4005195D01*
G01X-922984Y-4005148D01*
G01X-923590Y-4005072D01*
G01X-923889Y-4004995D01*
G01X-924372Y-4004956D01*
G01X-936261Y-4004855D01*
G01X-948230Y-4004855D01*
G01X-957624Y-4004855D01*
G01X-957624Y-3996370D01*
G01X-942321Y-3996370D01*
G01X-927719Y-3996455D01*
G01X-926678Y-3996503D01*
G01X-926350Y-3996573D01*
G01X-925669Y-3996644D01*
G01X-924045Y-3996675D01*
G01X-923079Y-3996711D01*
G01X-922624Y-3996758D01*
G01X-922321Y-3996824D01*
G01X-921829Y-3996938D01*
G01X-920967Y-3996985D01*
G01X-920437Y-3997061D01*
G01X-919594Y-3997279D01*
G01X-918164Y-3997515D01*
G01X-917418Y-3997679D01*
G01X-916490Y-3997961D01*
G01X-915048Y-3998491D01*
G01X-913533Y-3999097D01*
G01X-913155Y-3999258D01*
G01X-912586Y-3999535D01*
G01X-912018Y-3999855D01*
G01X-911374Y-4000271D01*
G01X-910797Y-4000754D01*
G01X-910418Y-4000981D01*
G01X-909982Y-4001161D01*
G01X-909603Y-4001464D01*
G01X-909442Y-4001673D01*
G01X-909102Y-4002089D01*
G01X-908467Y-4002591D01*
G01X-908088Y-4002970D01*
G01X-907757Y-4003434D01*
G01X-907018Y-4004400D01*
G01X-906488Y-4005120D01*
G01X-906280Y-4005451D01*
G01X-905806Y-4006332D01*
G01X-905427Y-4006942D01*
G01X-905124Y-4007511D01*
G01X-904897Y-4008036D01*
G01X-904291Y-4009552D01*
G01X-903836Y-4010764D01*
G01X-903685Y-4011370D01*
G01X-903457Y-4012771D01*
G01X-903306Y-4013529D01*
G01X-903221Y-4013824D01*
G01X-903117Y-4014779D01*
G01X-903079Y-4016824D01*
G01X-903117Y-4018870D01*
G01X-903195Y-4019708D01*
G01X-903297Y-4020091D01*
G01X-903372Y-4020622D01*
G01X-903424Y-4021434D01*
G01X-903500Y-4021850D01*
G01X-903685Y-4022582D01*
G01X-904291Y-4024703D01*
G01X-904442Y-4025195D01*
G01X-904594Y-4025612D01*
G01X-904745Y-4025953D01*
G01X-904973Y-4026337D01*
G01X-905276Y-4026905D01*
G01X-905664Y-4027809D01*
G01X-905941Y-4028377D01*
G01X-906261Y-4028945D01*
G01X-906715Y-4029665D01*
G01X-907927Y-4031370D01*
G01X-908268Y-4031786D01*
G01X-908903Y-4032288D01*
G01X-909281Y-4032667D01*
G01X-909525Y-4033001D01*
G01X-909859Y-4033377D01*
G01X-910153Y-4033652D01*
G01X-910863Y-4034229D01*
G01X-911715Y-4034855D01*
G01X-912743Y-4035536D01*
G01X-913311Y-4035839D01*
G01X-913836Y-4036067D01*
G01X-915351Y-4036673D01*
G01X-915962Y-4036900D01*
G01X-917170Y-4037279D01*
G01X-918685Y-4037733D01*
G01X-919291Y-4037885D01*
G01X-920692Y-4038112D01*
G01X-921450Y-4038264D01*
G01X-921980Y-4038406D01*
G01X-922520Y-4038470D01*
G01X-924139Y-4038529D01*
G01X-924480Y-4038576D01*
G01X-924745Y-4038642D01*
G01X-925266Y-4038692D01*
G01X-936715Y-4038794D01*
G01X-948230Y-4038794D01*
G01X-948230Y-4067885D01*
G37*
G36*
G01X-708685Y-3996067D02*
G01X-705806Y-3996067D01*
G01X-705806Y-4067885D01*
G01X-714594Y-4067885D01*
G01X-714594Y-4040158D01*
G01X-714594Y-4012430D01*
G01X-715354Y-4012814D01*
G01X-716017Y-4013230D01*
G01X-716923Y-4013926D01*
G01X-718022Y-4014722D01*
G01X-718988Y-4015461D01*
G01X-719707Y-4015991D01*
G01X-720039Y-4016199D01*
G01X-720654Y-4016531D01*
G01X-721109Y-4016808D01*
G01X-721866Y-4017345D01*
G01X-722321Y-4017636D01*
G01X-723088Y-4018046D01*
G01X-724139Y-4018642D01*
G01X-725470Y-4019476D01*
G01X-726038Y-4019779D01*
G01X-727245Y-4020309D01*
G01X-727894Y-4020688D01*
G01X-728462Y-4020991D01*
G01X-729535Y-4021445D01*
G01X-730654Y-4021966D01*
G01X-731260Y-4022194D01*
G01X-732169Y-4022430D01*
G01X-732169Y-4018339D01*
G01X-732132Y-4016531D01*
G01X-732018Y-4015195D01*
G01X-731933Y-4014705D01*
G01X-731829Y-4014334D01*
G01X-731706Y-4014080D01*
G01X-731260Y-4013784D01*
G01X-730806Y-4013507D01*
G01X-730039Y-4012970D01*
G01X-729707Y-4012771D01*
G01X-729357Y-4012591D01*
G01X-728609Y-4012269D01*
G01X-728041Y-4011992D01*
G01X-727473Y-4011673D01*
G01X-724291Y-4009665D01*
G01X-723533Y-4009097D01*
G01X-722813Y-4008567D01*
G01X-722482Y-4008358D01*
G01X-721886Y-4008027D01*
G01X-721639Y-4007847D01*
G01X-721431Y-4007648D01*
G01X-721260Y-4007430D01*
G01X-721090Y-4007212D01*
G01X-720882Y-4007014D01*
G01X-720636Y-4006834D01*
G01X-720067Y-4006512D01*
G01X-719821Y-4006332D01*
G01X-719613Y-4006133D01*
G01X-719442Y-4005915D01*
G01X-719101Y-4005498D01*
G01X-718467Y-4004997D01*
G01X-718088Y-4004618D01*
G01X-717766Y-4004192D01*
G01X-717387Y-4003889D01*
G01X-717056Y-4003747D01*
G01X-716715Y-4003491D01*
G01X-716488Y-4003226D01*
G01X-716033Y-4002535D01*
G01X-715806Y-4002241D01*
G01X-715579Y-4002004D01*
G01X-715134Y-4001663D01*
G01X-714755Y-4001284D01*
G01X-714442Y-4000849D01*
G01X-713910Y-4000226D01*
G01X-713550Y-3999753D01*
G01X-712776Y-3998529D01*
G01X-712023Y-3997430D01*
G01X-711810Y-3996976D01*
G01X-711703Y-3996635D01*
G01X-711518Y-3996437D01*
G01X-711142Y-3996280D01*
G01X-710682Y-3996183D01*
G01X-709814Y-3996096D01*
G01X-708685Y-3996067D01*
G37*
G36*
G01X-875655Y-4067885D02*
G01X-890958Y-4067885D01*
G01X-890958Y-4032127D01*
G01X-890958Y-4004855D01*
G01X-881564Y-4004855D01*
G01X-881564Y-4031976D01*
G01X-881558Y-4041198D01*
G01X-881431Y-4059124D01*
G01X-880838Y-4059309D01*
G01X-871261Y-4059400D01*
G01X-871261Y-4059400D01*
G01X-861459Y-4059315D01*
G01X-860634Y-4059267D01*
G01X-860086Y-4059173D01*
G01X-858048Y-4058905D01*
G01X-857132Y-4058756D01*
G01X-856592Y-4058633D01*
G01X-856109Y-4058491D01*
G01X-854066Y-4057809D01*
G01X-852624Y-4057279D01*
G01X-852255Y-4057118D01*
G01X-851905Y-4056938D01*
G01X-851573Y-4056739D01*
G01X-850785Y-4056180D01*
G01X-849546Y-4055385D01*
G01X-849253Y-4055157D01*
G01X-849016Y-4054930D01*
G01X-848836Y-4054703D01*
G01X-848495Y-4054286D01*
G01X-847861Y-4053784D01*
G01X-847482Y-4053406D01*
G01X-846223Y-4051651D01*
G01X-845654Y-4050764D01*
G01X-844821Y-4049431D01*
G01X-844518Y-4048806D01*
G01X-844291Y-4048188D01*
G01X-843912Y-4047170D01*
G01X-843543Y-4046351D01*
G01X-843420Y-4045991D01*
G01X-843316Y-4045593D01*
G01X-843145Y-4044722D01*
G01X-843041Y-4044324D01*
G01X-842918Y-4043964D01*
G01X-842702Y-4043481D01*
G01X-842511Y-4042885D01*
G01X-842406Y-4042392D01*
G01X-842245Y-4041265D01*
G01X-842094Y-4040432D01*
G01X-841952Y-4039892D01*
G01X-841888Y-4039353D01*
G01X-841829Y-4037733D01*
G01X-841781Y-4037392D01*
G01X-841715Y-4037127D01*
G01X-841629Y-4036331D01*
G01X-841563Y-4032127D01*
G01X-841623Y-4028044D01*
G01X-841680Y-4027305D01*
G01X-841751Y-4027009D01*
G01X-841829Y-4026597D01*
G01X-841876Y-4025536D01*
G01X-841926Y-4024968D01*
G01X-842018Y-4024400D01*
G01X-842624Y-4021370D01*
G01X-842776Y-4020688D01*
G01X-843079Y-4019627D01*
G01X-843316Y-4018576D01*
G01X-843543Y-4017894D01*
G01X-843836Y-4017269D01*
G01X-844594Y-4015536D01*
G01X-845654Y-4013794D01*
G01X-846071Y-4013150D01*
G01X-846251Y-4012913D01*
G01X-846490Y-4012650D01*
G01X-846850Y-4012177D01*
G01X-847397Y-4011322D01*
G01X-847624Y-4011029D01*
G01X-847851Y-4010792D01*
G01X-848296Y-4010451D01*
G01X-848675Y-4010072D01*
G01X-848919Y-4009738D01*
G01X-849253Y-4009362D01*
G01X-849546Y-4009087D01*
G01X-850257Y-4008510D01*
G01X-851109Y-4007885D01*
G01X-852136Y-4007203D01*
G01X-852705Y-4006900D01*
G01X-853777Y-4006445D01*
G01X-854752Y-4005993D01*
G01X-855314Y-4005801D01*
G01X-855759Y-4005697D01*
G01X-856753Y-4005536D01*
G01X-857511Y-4005385D01*
G01X-858041Y-4005243D01*
G01X-858581Y-4005179D01*
G01X-860200Y-4005120D01*
G01X-860541Y-4005072D01*
G01X-860814Y-4005004D01*
G01X-861391Y-4004951D01*
G01X-871412Y-4004855D01*
G01X-881564Y-4004855D01*
G01X-890958Y-4004855D01*
G01X-890958Y-3996370D01*
G01X-876867Y-3996370D01*
G01X-863401Y-3996455D01*
G01X-862431Y-3996503D01*
G01X-862108Y-3996573D01*
G01X-861426Y-3996644D01*
G01X-859802Y-3996675D01*
G01X-858836Y-3996711D01*
G01X-858382Y-3996758D01*
G01X-858079Y-3996824D01*
G01X-857586Y-3996938D01*
G01X-856724Y-3996985D01*
G01X-856194Y-3997061D01*
G01X-855465Y-3997241D01*
G01X-854741Y-3997284D01*
G01X-854215Y-3997354D01*
G01X-853817Y-3997449D01*
G01X-853382Y-3997582D01*
G01X-851488Y-3998188D01*
G01X-850446Y-3998425D01*
G01X-850124Y-3998529D01*
G01X-849840Y-3998652D01*
G01X-849594Y-3998794D01*
G01X-849101Y-3999059D01*
G01X-848249Y-3999334D01*
G01X-848003Y-3999438D01*
G01X-847624Y-3999703D01*
G01X-847208Y-4000006D01*
G01X-846213Y-4000461D01*
G01X-845683Y-4000764D01*
G01X-845420Y-4000993D01*
G01X-844946Y-4001353D01*
G01X-843798Y-4002089D01*
G01X-843562Y-4002269D01*
G01X-843221Y-4002582D01*
G01X-842624Y-4003036D01*
G01X-842208Y-4003377D01*
G01X-841706Y-4004012D01*
G01X-841327Y-4004391D01*
G01X-840993Y-4004634D01*
G01X-840617Y-4004968D01*
G01X-840342Y-4005262D01*
G01X-840048Y-4005612D01*
G01X-838836Y-4007127D01*
G01X-838138Y-4008074D01*
G01X-837776Y-4008642D01*
G01X-836866Y-4010158D01*
G01X-836109Y-4011370D01*
G01X-835844Y-4011862D01*
G01X-835569Y-4012724D01*
G01X-835342Y-4013254D01*
G01X-835124Y-4013611D01*
G01X-834821Y-4014237D01*
G01X-834594Y-4014855D01*
G01X-833988Y-4016673D01*
G01X-833382Y-4018642D01*
G01X-833176Y-4019395D01*
G01X-832776Y-4021142D01*
G01X-832511Y-4022165D01*
G01X-832463Y-4023027D01*
G01X-832387Y-4023557D01*
G01X-832286Y-4023912D01*
G01X-832207Y-4024324D01*
G01X-832160Y-4025366D01*
G01X-832084Y-4025972D01*
G01X-831991Y-4026341D01*
G01X-831932Y-4027032D01*
G01X-831867Y-4031370D01*
G01X-831926Y-4035584D01*
G01X-831983Y-4036341D01*
G01X-832054Y-4036642D01*
G01X-832132Y-4037089D01*
G01X-832179Y-4038311D01*
G01X-832255Y-4038993D01*
G01X-832340Y-4039309D01*
G01X-832473Y-4039930D01*
G01X-832709Y-4041730D01*
G01X-832873Y-4042653D01*
G01X-833079Y-4043491D01*
G01X-833685Y-4045574D01*
G01X-833922Y-4046805D01*
G01X-834026Y-4047203D01*
G01X-834149Y-4047563D01*
G01X-834594Y-4048567D01*
G01X-834897Y-4049400D01*
G01X-835276Y-4050418D01*
G01X-835654Y-4051228D01*
G01X-836270Y-4052658D01*
G01X-836547Y-4053226D01*
G01X-836866Y-4053794D01*
G01X-837776Y-4055309D01*
G01X-838192Y-4055953D01*
G01X-838675Y-4056531D01*
G01X-838903Y-4056909D01*
G01X-839082Y-4057345D01*
G01X-839385Y-4057724D01*
G01X-839802Y-4058046D01*
G01X-840105Y-4058425D01*
G01X-840295Y-4058860D01*
G01X-840598Y-4059239D01*
G01X-841024Y-4059561D01*
G01X-841403Y-4059940D01*
G01X-841905Y-4060574D01*
G01X-842321Y-4060915D01*
G01X-842918Y-4061370D01*
G01X-843420Y-4061824D01*
G01X-844054Y-4062279D01*
G01X-844674Y-4062809D01*
G01X-844973Y-4063036D01*
G01X-845787Y-4063491D01*
G01X-846242Y-4063794D01*
G01X-846495Y-4064021D01*
G01X-846703Y-4064173D01*
G01X-847122Y-4064400D01*
G01X-848020Y-4064779D01*
G01X-849518Y-4065460D01*
G01X-850351Y-4065764D01*
G01X-852321Y-4066370D01*
G01X-853836Y-4066824D01*
G01X-854480Y-4066976D01*
G01X-856062Y-4067203D01*
G01X-856895Y-4067355D01*
G01X-857290Y-4067466D01*
G01X-857738Y-4067544D01*
G01X-858959Y-4067591D01*
G01X-859641Y-4067667D01*
G01X-859905Y-4067736D01*
G01X-860318Y-4067773D01*
G01X-875655Y-4067885D01*
G37*
G36*
G01X-751867Y-4067885D02*
G01X-761867Y-4067885D01*
G01X-761867Y-4062885D01*
G01X-761867Y-4057885D01*
G01X-751867Y-4057885D01*
G01X-751867Y-4067885D01*
G37*
G36*
G01X-575806Y-4067885D02*
G01X-585200Y-4067885D01*
G01X-585200Y-4032127D01*
G01X-585200Y-4004855D01*
G01X-575806Y-4004855D01*
G01X-575806Y-4017430D01*
G01X-575690Y-4029926D01*
G01X-575579Y-4030178D01*
G01X-575143Y-4030213D01*
G01X-575143Y-4030213D01*
G01X-564442Y-4030309D01*
G01X-553206Y-4030193D01*
G01X-552927Y-4030158D01*
G01X-552681Y-4030091D01*
G01X-552075Y-4030016D01*
G01X-551317Y-4029987D01*
G01X-550882Y-4029930D01*
G01X-550408Y-4029835D01*
G01X-549897Y-4029703D01*
G01X-547927Y-4029097D01*
G01X-547131Y-4028794D01*
G01X-546819Y-4028642D01*
G01X-546445Y-4028415D01*
G01X-545877Y-4028112D01*
G01X-545001Y-4027724D01*
G01X-544707Y-4027544D01*
G01X-544471Y-4027345D01*
G01X-544130Y-4026909D01*
G01X-543751Y-4026531D01*
G01X-543117Y-4026029D01*
G01X-542776Y-4025612D01*
G01X-542018Y-4024400D01*
G01X-541698Y-4023853D01*
G01X-541260Y-4023036D01*
G01X-541118Y-4022714D01*
G01X-540995Y-4022354D01*
G01X-540891Y-4021957D01*
G01X-540730Y-4021095D01*
G01X-540579Y-4020413D01*
G01X-540437Y-4019873D01*
G01X-540373Y-4019234D01*
G01X-540351Y-4018339D01*
G01X-540389Y-4016976D01*
G01X-540503Y-4015612D01*
G01X-540543Y-4015278D01*
G01X-540692Y-4014362D01*
G01X-540815Y-4013822D01*
G01X-541033Y-4013114D01*
G01X-541563Y-4011673D01*
G01X-541724Y-4011303D01*
G01X-541904Y-4010953D01*
G01X-542103Y-4010622D01*
G01X-542539Y-4010006D01*
G01X-542830Y-4009552D01*
G01X-543161Y-4008945D01*
G01X-543370Y-4008642D01*
G01X-543789Y-4008188D01*
G01X-544139Y-4007885D01*
G01X-544499Y-4007601D01*
G01X-545351Y-4006976D01*
G01X-546381Y-4006294D01*
G01X-547006Y-4005991D01*
G01X-547624Y-4005764D01*
G01X-549106Y-4005273D01*
G01X-549518Y-4005195D01*
G01X-550560Y-4005148D01*
G01X-551166Y-4005072D01*
G01X-551465Y-4004995D01*
G01X-551947Y-4004956D01*
G01X-563836Y-4004855D01*
G01X-575806Y-4004855D01*
G01X-585200Y-4004855D01*
G01X-585200Y-3996370D01*
G01X-569897Y-3996370D01*
G01X-555295Y-3996455D01*
G01X-554254Y-3996503D01*
G01X-553865Y-3996587D01*
G01X-553275Y-3996651D01*
G01X-551222Y-3996711D01*
G01X-549897Y-3996824D01*
G01X-548685Y-3996976D01*
G01X-547776Y-3997127D01*
G01X-547094Y-3997279D01*
G01X-545957Y-3997582D01*
G01X-544317Y-3997868D01*
G01X-543900Y-3997982D01*
G01X-543540Y-3998114D01*
G01X-542700Y-3998491D01*
G01X-541421Y-3998955D01*
G01X-540995Y-3999135D01*
G01X-540588Y-3999334D01*
G01X-540200Y-3999552D01*
G01X-538988Y-4000309D01*
G01X-538079Y-4000915D01*
G01X-537482Y-4001370D01*
G01X-536980Y-4001824D01*
G01X-536447Y-4002210D01*
G01X-536071Y-4002544D01*
G01X-535796Y-4002838D01*
G01X-535219Y-4003548D01*
G01X-534594Y-4004400D01*
G01X-533618Y-4005773D01*
G01X-533420Y-4006105D01*
G01X-533239Y-4006455D01*
G01X-532775Y-4007506D01*
G01X-532399Y-4008155D01*
G01X-532267Y-4008420D01*
G01X-532103Y-4008889D01*
G01X-532018Y-4009249D01*
G01X-531829Y-4009968D01*
G01X-531490Y-4010771D01*
G01X-531298Y-4011332D01*
G01X-531194Y-4011777D01*
G01X-531033Y-4012771D01*
G01X-530882Y-4013529D01*
G01X-530754Y-4014028D01*
G01X-530692Y-4014703D01*
G01X-530654Y-4016521D01*
G01X-530676Y-4018013D01*
G01X-530740Y-4019078D01*
G01X-530882Y-4019968D01*
G01X-531194Y-4022307D01*
G01X-531298Y-4022847D01*
G01X-531421Y-4023292D01*
G01X-531706Y-4023955D01*
G01X-531933Y-4024637D01*
G01X-532103Y-4025366D01*
G01X-532207Y-4025688D01*
G01X-532330Y-4025972D01*
G01X-532548Y-4026337D01*
G01X-532851Y-4026905D01*
G01X-533239Y-4027809D01*
G01X-533517Y-4028377D01*
G01X-533836Y-4028945D01*
G01X-534291Y-4029665D01*
G01X-535503Y-4031370D01*
G01X-535844Y-4031786D01*
G01X-536478Y-4032288D01*
G01X-536857Y-4032667D01*
G01X-537101Y-4033001D01*
G01X-537435Y-4033377D01*
G01X-537728Y-4033652D01*
G01X-538079Y-4033945D01*
G01X-539026Y-4034644D01*
G01X-540806Y-4035764D01*
G01X-541298Y-4036029D01*
G01X-542160Y-4036303D01*
G01X-542690Y-4036531D01*
G01X-543045Y-4036746D01*
G01X-543311Y-4036879D01*
G01X-543779Y-4037042D01*
G01X-544537Y-4037212D01*
G01X-545957Y-4037582D01*
G01X-547473Y-4038036D01*
G01X-547965Y-4038150D01*
G01X-548827Y-4038197D01*
G01X-549357Y-4038273D01*
G01X-549714Y-4038375D01*
G01X-550162Y-4038453D01*
G01X-551383Y-4038500D01*
G01X-552065Y-4038576D01*
G01X-552373Y-4038654D01*
G01X-552841Y-4038692D01*
G01X-564291Y-4038794D01*
G01X-575806Y-4038794D01*
G01X-575806Y-4067885D01*
G37*
G36*
G01X-363079Y-3996370D02*
G01X-350654Y-3996370D01*
G01X-350654Y-4067885D01*
G01X-359745Y-4067885D01*
G01X-359745Y-4038794D01*
G01X-359945Y-4010626D01*
G01X-360011Y-4009683D01*
G01X-360254Y-4009566D01*
G01X-360417Y-4009836D01*
G01X-360588Y-4010527D01*
G01X-360815Y-4011209D01*
G01X-361222Y-4012165D01*
G01X-361497Y-4013254D01*
G01X-361724Y-4013936D01*
G01X-362008Y-4014552D01*
G01X-362236Y-4015158D01*
G01X-362510Y-4016067D01*
G01X-362775Y-4016673D01*
G01X-363041Y-4017317D01*
G01X-363315Y-4018406D01*
G01X-363543Y-4019087D01*
G01X-363950Y-4020044D01*
G01X-364224Y-4021133D01*
G01X-364452Y-4021815D01*
G01X-364897Y-4022809D01*
G01X-365200Y-4023642D01*
G01X-367018Y-4029097D01*
G01X-367397Y-4030115D01*
G01X-367889Y-4031256D01*
G01X-368164Y-4032345D01*
G01X-368391Y-4033027D01*
G01X-368798Y-4033983D01*
G01X-369073Y-4035072D01*
G01X-369300Y-4035754D01*
G01X-369584Y-4036370D01*
G01X-369811Y-4036976D01*
G01X-370086Y-4037885D01*
G01X-370351Y-4038491D01*
G01X-370616Y-4039135D01*
G01X-370891Y-4040224D01*
G01X-371118Y-4040906D01*
G01X-371526Y-4041862D01*
G01X-371800Y-4042951D01*
G01X-372027Y-4043633D01*
G01X-372472Y-4044627D01*
G01X-372775Y-4045461D01*
G01X-374594Y-4050915D01*
G01X-374972Y-4051933D01*
G01X-375465Y-4053074D01*
G01X-375739Y-4054163D01*
G01X-375967Y-4054845D01*
G01X-376374Y-4055801D01*
G01X-376648Y-4056891D01*
G01X-376876Y-4057572D01*
G01X-377160Y-4058188D01*
G01X-377387Y-4058794D01*
G01X-377662Y-4059703D01*
G01X-378069Y-4060622D01*
G01X-378296Y-4061303D01*
G01X-378571Y-4062392D01*
G01X-378978Y-4063349D01*
G01X-379205Y-4064031D01*
G01X-379480Y-4065120D01*
G01X-379887Y-4066076D01*
G01X-380115Y-4066758D01*
G01X-380351Y-4067885D01*
G01X-384594Y-4067885D01*
G01X-387200Y-4067842D01*
G01X-388299Y-4067767D01*
G01X-388656Y-4067714D01*
G01X-388988Y-4067582D01*
G01X-389442Y-4066673D01*
G01X-389707Y-4066029D01*
G01X-389982Y-4064940D01*
G01X-390209Y-4064258D01*
G01X-390616Y-4063301D01*
G01X-390891Y-4062213D01*
G01X-391118Y-4061531D01*
G01X-391402Y-4060915D01*
G01X-391630Y-4060309D01*
G01X-391904Y-4059400D01*
G01X-392311Y-4058481D01*
G01X-392539Y-4057800D01*
G01X-392813Y-4056711D01*
G01X-393220Y-4055754D01*
G01X-393448Y-4055072D01*
G01X-393722Y-4053983D01*
G01X-394130Y-4053027D01*
G01X-394357Y-4052345D01*
G01X-394631Y-4051256D01*
G01X-395039Y-4050299D01*
G01X-395266Y-4049618D01*
G01X-395540Y-4048529D01*
G01X-395948Y-4047572D01*
G01X-396175Y-4046891D01*
G01X-396345Y-4046161D01*
G01X-396450Y-4045839D01*
G01X-396573Y-4045555D01*
G01X-396788Y-4045191D01*
G01X-396921Y-4044926D01*
G01X-397084Y-4044457D01*
G01X-397169Y-4044097D01*
G01X-397359Y-4043377D01*
G01X-397766Y-4042421D01*
G01X-397993Y-4041739D01*
G01X-398268Y-4040650D01*
G01X-398675Y-4039693D01*
G01X-398902Y-4039012D01*
G01X-399177Y-4037923D01*
G01X-399584Y-4036966D01*
G01X-399811Y-4036285D01*
G01X-400086Y-4035195D01*
G01X-400493Y-4034239D01*
G01X-400721Y-4033557D01*
G01X-400995Y-4032468D01*
G01X-401402Y-4031512D01*
G01X-401630Y-4030830D01*
G01X-401800Y-4030101D01*
G01X-401904Y-4029779D01*
G01X-402027Y-4029495D01*
G01X-402243Y-4029130D01*
G01X-402375Y-4028865D01*
G01X-402539Y-4028396D01*
G01X-402624Y-4028036D01*
G01X-402813Y-4027317D01*
G01X-403220Y-4026360D01*
G01X-403448Y-4025678D01*
G01X-403722Y-4024589D01*
G01X-404130Y-4023633D01*
G01X-404357Y-4022951D01*
G01X-404631Y-4021862D01*
G01X-405039Y-4020906D01*
G01X-405266Y-4020224D01*
G01X-405541Y-4019135D01*
G01X-405948Y-4018178D01*
G01X-406175Y-4017497D01*
G01X-406450Y-4016408D01*
G01X-406857Y-4015451D01*
G01X-407084Y-4014769D01*
G01X-407255Y-4014040D01*
G01X-407359Y-4013718D01*
G01X-407482Y-4013434D01*
G01X-407697Y-4013069D01*
G01X-407830Y-4012804D01*
G01X-407993Y-4012336D01*
G01X-408078Y-4011976D01*
G01X-408268Y-4011256D01*
G01X-408675Y-4010300D01*
G01X-408902Y-4009618D01*
G01X-409073Y-4008908D01*
G01X-409177Y-4008642D01*
G01X-409442Y-4008339D01*
G01X-409537Y-4009174D01*
G01X-409745Y-4038036D01*
G01X-409745Y-4067885D01*
G01X-418836Y-4067885D01*
G01X-418836Y-4032127D01*
G01X-418836Y-3996370D01*
G01X-412169Y-3996370D01*
G01X-407056Y-3996408D01*
G01X-405259Y-3996486D01*
G01X-404937Y-3996566D01*
G01X-404539Y-3996888D01*
G01X-404369Y-3997134D01*
G01X-404149Y-3997591D01*
G01X-403921Y-3998273D01*
G01X-403647Y-3999362D01*
G01X-403239Y-4000318D01*
G01X-403012Y-4001000D01*
G01X-402738Y-4002089D01*
G01X-402330Y-4003046D01*
G01X-402103Y-4003728D01*
G01X-401829Y-4004817D01*
G01X-401421Y-4005773D01*
G01X-401194Y-4006455D01*
G01X-400919Y-4007544D01*
G01X-400512Y-4008500D01*
G01X-400285Y-4009182D01*
G01X-400010Y-4010271D01*
G01X-399603Y-4011228D01*
G01X-399376Y-4011909D01*
G01X-399101Y-4012998D01*
G01X-398694Y-4013955D01*
G01X-398467Y-4014637D01*
G01X-398192Y-4015726D01*
G01X-397785Y-4016682D01*
G01X-397558Y-4017364D01*
G01X-397283Y-4018453D01*
G01X-396876Y-4019410D01*
G01X-396648Y-4020091D01*
G01X-396374Y-4021180D01*
G01X-395967Y-4022137D01*
G01X-395739Y-4022818D01*
G01X-395465Y-4023908D01*
G01X-395058Y-4024864D01*
G01X-394830Y-4025546D01*
G01X-394556Y-4026635D01*
G01X-394149Y-4027591D01*
G01X-393921Y-4028273D01*
G01X-393647Y-4029362D01*
G01X-393239Y-4030319D01*
G01X-393012Y-4031000D01*
G01X-392738Y-4032089D01*
G01X-392330Y-4033046D01*
G01X-392103Y-4033728D01*
G01X-391829Y-4034817D01*
G01X-391421Y-4035773D01*
G01X-391194Y-4036455D01*
G01X-390919Y-4037544D01*
G01X-390512Y-4038500D01*
G01X-390285Y-4039182D01*
G01X-390010Y-4040271D01*
G01X-389603Y-4041228D01*
G01X-389376Y-4041909D01*
G01X-389101Y-4042999D01*
G01X-388694Y-4043955D01*
G01X-388467Y-4044637D01*
G01X-388192Y-4045726D01*
G01X-387785Y-4046682D01*
G01X-387558Y-4047364D01*
G01X-387283Y-4048453D01*
G01X-386876Y-4049409D01*
G01X-386648Y-4050091D01*
G01X-386374Y-4051180D01*
G01X-385967Y-4052137D01*
G01X-385739Y-4052819D01*
G01X-385465Y-4053908D01*
G01X-385058Y-4054864D01*
G01X-384830Y-4055546D01*
G01X-384660Y-4056256D01*
G01X-384556Y-4056521D01*
G01X-384291Y-4056824D01*
G01X-384025Y-4056862D01*
G01X-383836Y-4056673D01*
G01X-383701Y-4056360D01*
G01X-383382Y-4055461D01*
G01X-380957Y-4048188D01*
G01X-380578Y-4047170D01*
G01X-380086Y-4046029D01*
G01X-379812Y-4044940D01*
G01X-379584Y-4044258D01*
G01X-379177Y-4043302D01*
G01X-378902Y-4042212D01*
G01X-378675Y-4041531D01*
G01X-378268Y-4040574D01*
G01X-377993Y-4039485D01*
G01X-377766Y-4038803D01*
G01X-377321Y-4037809D01*
G01X-377018Y-4036976D01*
G01X-374518Y-4029478D01*
G01X-373912Y-4027845D01*
G01X-373382Y-4026370D01*
G01X-371487Y-4020690D01*
G01X-370881Y-4019057D01*
G01X-370351Y-4017582D01*
G01X-367927Y-4010309D01*
G01X-367548Y-4009291D01*
G01X-367056Y-4008150D01*
G01X-366781Y-4007061D01*
G01X-366554Y-4006379D01*
G01X-366147Y-4005423D01*
G01X-365872Y-4004334D01*
G01X-365645Y-4003652D01*
G01X-365238Y-4002695D01*
G01X-364963Y-4001606D01*
G01X-364736Y-4000925D01*
G01X-364291Y-3999930D01*
G01X-363988Y-3999097D01*
G01X-363079Y-3996370D01*
G37*
G36*
G01X-333685Y-3996370D02*
G01X-324291Y-3996370D01*
G01X-324291Y-4067885D01*
G01X-333685Y-4067885D01*
G01X-333685Y-4032127D01*
G01X-333685Y-3996370D01*
G37*
G36*
G01X232860Y-4067752D02*
G01X231702Y-4067837D01*
G01X229346Y-4067885D01*
G01X227206Y-4067847D01*
G01X225634Y-4067733D01*
G01X225061Y-4067648D01*
G01X224630Y-4067544D01*
G01X224341Y-4067421D01*
G01X224043Y-4066966D01*
G01X223513Y-4065723D01*
G01X222983Y-4064248D01*
G01X222604Y-4063230D01*
G01X222073Y-4062052D01*
G01X221695Y-4060993D01*
G01X221164Y-4059551D01*
G01X219876Y-4056329D01*
G01X219346Y-4054854D01*
G01X218967Y-4053836D01*
G01X218437Y-4052658D01*
G01X218058Y-4051599D01*
G01X217528Y-4050158D01*
G01X216240Y-4046936D01*
G01X215710Y-4045461D01*
G01X215331Y-4044443D01*
G01X214839Y-4043339D01*
G01X214564Y-4042430D01*
G01X214337Y-4041824D01*
G01X213892Y-4040839D01*
G01X213589Y-4040006D01*
G01X213210Y-4038988D01*
G01X212680Y-4037809D01*
G01X212301Y-4036751D01*
G01X211770Y-4035309D01*
G01X210482Y-4032087D01*
G01X209952Y-4030612D01*
G01X209573Y-4029594D01*
G01X209043Y-4028415D01*
G01X208664Y-4027357D01*
G01X208134Y-4025915D01*
G01X206846Y-4022693D01*
G01X206316Y-4021218D01*
G01X205937Y-4020200D01*
G01X205445Y-4019097D01*
G01X205170Y-4018188D01*
G01X204943Y-4017582D01*
G01X204498Y-4016597D01*
G01X204195Y-4015764D01*
G01X203816Y-4014746D01*
G01X203323Y-4013642D01*
G01X203049Y-4012733D01*
G01X202822Y-4012127D01*
G01X202376Y-4011142D01*
G01X202073Y-4010309D01*
G01X201695Y-4009291D01*
G01X201164Y-4008112D01*
G01X200785Y-4007054D01*
G01X200255Y-4005612D01*
G01X199573Y-4003905D01*
G01X199043Y-4002430D01*
G01X198664Y-4001412D01*
G01X198295Y-4000612D01*
G01X198068Y-4000006D01*
G01X197793Y-3999135D01*
G01X197455Y-3998522D01*
G01X197322Y-3998238D01*
G01X197159Y-3997705D01*
G01X197073Y-3997279D01*
G01X196922Y-3996370D01*
G01X201467Y-3996370D01*
G01X205551Y-3996429D01*
G01X206290Y-3996486D01*
G01X206578Y-3996566D01*
G01X206976Y-3996888D01*
G01X207147Y-3997134D01*
G01X207528Y-3997961D01*
G01X207831Y-3998794D01*
G01X208513Y-4000837D01*
G01X209119Y-4002471D01*
G01X209649Y-4003946D01*
G01X210255Y-4005764D01*
G01X210634Y-4006782D01*
G01X211126Y-4007923D01*
G01X211401Y-4009012D01*
G01X211628Y-4009694D01*
G01X212073Y-4010688D01*
G01X212377Y-4011521D01*
G01X213058Y-4013564D01*
G01X213664Y-4015198D01*
G01X214270Y-4016897D01*
G01X214876Y-4018531D01*
G01X215407Y-4020006D01*
G01X216013Y-4021824D01*
G01X216391Y-4022842D01*
G01X216884Y-4023983D01*
G01X217159Y-4025072D01*
G01X217386Y-4025754D01*
G01X217831Y-4026748D01*
G01X218134Y-4027582D01*
G01X218816Y-4029625D01*
G01X219422Y-4031258D01*
G01X219952Y-4032733D01*
G01X220558Y-4034551D01*
G01X220937Y-4035570D01*
G01X221429Y-4036710D01*
G01X221704Y-4037800D01*
G01X221931Y-4038481D01*
G01X222376Y-4039476D01*
G01X222680Y-4040309D01*
G01X223361Y-4042352D01*
G01X223967Y-4043986D01*
G01X224498Y-4045461D01*
G01X225104Y-4047279D01*
G01X225482Y-4048297D01*
G01X225975Y-4049438D01*
G01X226249Y-4050527D01*
G01X226477Y-4051209D01*
G01X226884Y-4052165D01*
G01X227159Y-4053254D01*
G01X227386Y-4053936D01*
G01X227670Y-4054571D01*
G01X227793Y-4054930D01*
G01X227897Y-4055328D01*
G01X228068Y-4056199D01*
G01X228172Y-4056597D01*
G01X228295Y-4056957D01*
G01X228579Y-4057601D01*
G01X228702Y-4057961D01*
G01X228806Y-4058358D01*
G01X228977Y-4059201D01*
G01X229081Y-4059514D01*
G01X229346Y-4059854D01*
G01X229611Y-4059741D01*
G01X229715Y-4059485D01*
G01X229886Y-4058661D01*
G01X229990Y-4058264D01*
G01X230113Y-4057904D01*
G01X230397Y-4057269D01*
G01X230625Y-4056588D01*
G01X230899Y-4055423D01*
G01X231164Y-4054551D01*
G01X231770Y-4052733D01*
G01X232149Y-4051715D01*
G01X232642Y-4050574D01*
G01X232916Y-4049485D01*
G01X233144Y-4048803D01*
G01X233589Y-4047809D01*
G01X233967Y-4046751D01*
G01X234573Y-4045117D01*
G01X235104Y-4043642D01*
G01X235482Y-4042624D01*
G01X235852Y-4041815D01*
G01X236079Y-4041133D01*
G01X236249Y-4040404D01*
G01X236354Y-4040082D01*
G01X236477Y-4039798D01*
G01X236692Y-4039433D01*
G01X236825Y-4039168D01*
G01X236988Y-4038699D01*
G01X237159Y-4037979D01*
G01X237263Y-4037658D01*
G01X237386Y-4037373D01*
G01X237601Y-4037009D01*
G01X237734Y-4036744D01*
G01X237897Y-4036275D01*
G01X238068Y-4035555D01*
G01X238172Y-4035233D01*
G01X238295Y-4034949D01*
G01X238510Y-4034585D01*
G01X238643Y-4034320D01*
G01X238806Y-4033851D01*
G01X238977Y-4033131D01*
G01X239081Y-4032809D01*
G01X239204Y-4032525D01*
G01X239419Y-4032160D01*
G01X239552Y-4031895D01*
G01X239716Y-4031427D01*
G01X239886Y-4030707D01*
G01X239990Y-4030385D01*
G01X240113Y-4030101D01*
G01X240329Y-4029736D01*
G01X240461Y-4029471D01*
G01X240625Y-4029002D01*
G01X240795Y-4028273D01*
G01X241022Y-4027591D01*
G01X241430Y-4026673D01*
G01X241704Y-4025764D01*
G01X241931Y-4025158D01*
G01X242376Y-4024173D01*
G01X242755Y-4023114D01*
G01X243361Y-4021481D01*
G01X243892Y-4020006D01*
G01X244270Y-4018988D01*
G01X244640Y-4018178D01*
G01X244867Y-4017497D01*
G01X245037Y-4016767D01*
G01X245141Y-4016445D01*
G01X245265Y-4016161D01*
G01X245480Y-4015797D01*
G01X245613Y-4015531D01*
G01X245776Y-4015063D01*
G01X245946Y-4014343D01*
G01X246051Y-4014021D01*
G01X246174Y-4013737D01*
G01X246389Y-4013372D01*
G01X246522Y-4013107D01*
G01X246685Y-4012639D01*
G01X246855Y-4011919D01*
G01X246960Y-4011597D01*
G01X247083Y-4011313D01*
G01X247298Y-4010948D01*
G01X247431Y-4010683D01*
G01X247594Y-4010214D01*
G01X247765Y-4009495D01*
G01X247869Y-4009173D01*
G01X247992Y-4008889D01*
G01X248207Y-4008524D01*
G01X248340Y-4008259D01*
G01X248503Y-4007790D01*
G01X248674Y-4007070D01*
G01X248778Y-4006748D01*
G01X248901Y-4006464D01*
G01X249117Y-4006100D01*
G01X249249Y-4005835D01*
G01X249413Y-4005366D01*
G01X249583Y-4004637D01*
G01X249810Y-4003955D01*
G01X250217Y-4003036D01*
G01X250492Y-4002127D01*
G01X250719Y-4001521D01*
G01X251126Y-4000612D01*
G01X251401Y-3999703D01*
G01X251628Y-3999097D01*
G01X252073Y-3998112D01*
G01X252376Y-3997279D01*
G01X252679Y-3996370D01*
G01X257376Y-3996370D01*
G01X260861Y-3996483D01*
G01X261695Y-3996625D01*
G01X261922Y-3996824D01*
G01X261733Y-3997317D01*
G01X261164Y-3998567D01*
G01X260786Y-3999625D01*
G01X260255Y-4001067D01*
G01X257755Y-4007319D01*
G01X257225Y-4008794D01*
G01X256846Y-4009812D01*
G01X256316Y-4010991D01*
G01X256013Y-4011824D01*
G01X255634Y-4012842D01*
G01X255104Y-4014021D01*
G01X254725Y-4015079D01*
G01X254195Y-4016521D01*
G01X252301Y-4021258D01*
G01X251770Y-4022733D01*
G01X251392Y-4023751D01*
G01X250861Y-4024930D01*
G01X250558Y-4025764D01*
G01X250179Y-4026782D01*
G01X249649Y-4027960D01*
G01X249270Y-4029019D01*
G01X248740Y-4030461D01*
G01X246846Y-4035198D01*
G01X246316Y-4036673D01*
G01X245937Y-4037691D01*
G01X245407Y-4038870D01*
G01X245104Y-4039703D01*
G01X244725Y-4040721D01*
G01X244195Y-4041900D01*
G01X243816Y-4042958D01*
G01X243286Y-4044400D01*
G01X241391Y-4049137D01*
G01X240861Y-4050612D01*
G01X240482Y-4051630D01*
G01X239952Y-4052809D01*
G01X239649Y-4053642D01*
G01X239270Y-4054660D01*
G01X238778Y-4055764D01*
G01X238503Y-4056673D01*
G01X238276Y-4057279D01*
G01X237831Y-4058264D01*
G01X237528Y-4059097D01*
G01X237149Y-4060115D01*
G01X236619Y-4061294D01*
G01X236316Y-4062127D01*
G01X235937Y-4063145D01*
G01X235568Y-4063945D01*
G01X235340Y-4064551D01*
G01X235066Y-4065460D01*
G01X234659Y-4066370D01*
G01X234431Y-4066976D01*
G01X234332Y-4067316D01*
G01X234055Y-4067515D01*
G01X233687Y-4067624D01*
G01X232860Y-4067752D01*
G37*
G36*
G01X-219745Y-4038794D02*
G01X-231260Y-4038794D01*
G01X-231260Y-4067885D01*
G01X-240654Y-4067885D01*
G01X-240654Y-4032127D01*
G01X-240654Y-4004855D01*
G01X-231260Y-4004855D01*
G01X-231260Y-4017430D01*
G01X-231144Y-4029926D01*
G01X-231034Y-4030178D01*
G01X-230597Y-4030213D01*
G01X-230597Y-4030213D01*
G01X-219897Y-4030309D01*
G01X-208661Y-4030193D01*
G01X-208381Y-4030158D01*
G01X-207700Y-4030006D01*
G01X-206229Y-4029814D01*
G01X-205313Y-4029665D01*
G01X-204774Y-4029542D01*
G01X-204066Y-4029324D01*
G01X-202624Y-4028794D01*
G01X-201942Y-4028491D01*
G01X-201185Y-4028046D01*
G01X-200730Y-4027818D01*
G01X-200285Y-4027639D01*
G01X-199906Y-4027336D01*
G01X-199584Y-4026909D01*
G01X-199205Y-4026531D01*
G01X-198874Y-4026287D01*
G01X-198647Y-4026079D01*
G01X-198306Y-4025659D01*
G01X-198078Y-4025309D01*
G01X-197321Y-4024097D01*
G01X-197056Y-4023605D01*
G01X-196781Y-4022733D01*
G01X-196554Y-4022127D01*
G01X-196279Y-4021521D01*
G01X-196185Y-4021218D01*
G01X-196128Y-4020915D01*
G01X-196099Y-4020319D01*
G01X-196023Y-4019788D01*
G01X-195891Y-4019277D01*
G01X-195827Y-4018687D01*
G01X-195806Y-4017885D01*
G01X-195843Y-4016862D01*
G01X-195891Y-4016493D01*
G01X-196023Y-4015981D01*
G01X-196099Y-4015451D01*
G01X-196151Y-4014639D01*
G01X-196227Y-4014222D01*
G01X-196412Y-4013491D01*
G01X-196639Y-4012759D01*
G01X-196866Y-4012156D01*
G01X-197018Y-4011824D01*
G01X-197624Y-4010612D01*
G01X-197775Y-4010328D01*
G01X-198078Y-4009873D01*
G01X-198533Y-4009362D01*
G01X-198987Y-4008728D01*
G01X-199442Y-4008188D01*
G01X-200209Y-4007430D01*
G01X-200806Y-4006976D01*
G01X-201836Y-4006294D01*
G01X-202460Y-4005991D01*
G01X-203078Y-4005764D01*
G01X-204560Y-4005273D01*
G01X-204972Y-4005195D01*
G01X-206014Y-4005148D01*
G01X-206620Y-4005072D01*
G01X-206919Y-4004995D01*
G01X-207401Y-4004956D01*
G01X-219290Y-4004855D01*
G01X-231260Y-4004855D01*
G01X-240654Y-4004855D01*
G01X-240654Y-3996370D01*
G01X-225351Y-3996370D01*
G01X-210749Y-3996455D01*
G01X-209708Y-3996503D01*
G01X-209309Y-3996587D01*
G01X-208670Y-3996651D01*
G01X-207439Y-3996675D01*
G01X-206189Y-3996732D01*
G01X-205351Y-3996824D01*
G01X-203533Y-3997127D01*
G01X-202018Y-3997430D01*
G01X-201336Y-3997582D01*
G01X-200237Y-3997885D01*
G01X-199016Y-3998122D01*
G01X-198647Y-3998226D01*
G01X-198334Y-3998349D01*
G01X-198078Y-3998491D01*
G01X-197586Y-3998756D01*
G01X-196705Y-3999040D01*
G01X-196374Y-3999173D01*
G01X-196023Y-3999343D01*
G01X-195654Y-3999552D01*
G01X-194442Y-4000309D01*
G01X-194196Y-4000479D01*
G01X-192870Y-4001502D01*
G01X-191800Y-4002288D01*
G01X-191421Y-4002667D01*
G01X-191109Y-4003102D01*
G01X-190576Y-4003725D01*
G01X-190216Y-4004199D01*
G01X-189896Y-4004703D01*
G01X-188836Y-4006408D01*
G01X-188533Y-4006976D01*
G01X-187624Y-4008870D01*
G01X-187321Y-4009703D01*
G01X-186866Y-4011067D01*
G01X-186715Y-4011673D01*
G01X-186488Y-4013074D01*
G01X-186336Y-4013832D01*
G01X-186209Y-4014315D01*
G01X-186138Y-4015040D01*
G01X-186109Y-4016370D01*
G01X-186111Y-4016812D01*
G01X-186168Y-4018347D01*
G01X-186260Y-4019249D01*
G01X-186563Y-4021370D01*
G01X-186648Y-4021900D01*
G01X-186812Y-4022696D01*
G01X-187018Y-4023491D01*
G01X-187321Y-4024476D01*
G01X-187624Y-4025309D01*
G01X-188230Y-4026824D01*
G01X-188391Y-4027203D01*
G01X-188668Y-4027771D01*
G01X-188987Y-4028339D01*
G01X-189442Y-4029059D01*
G01X-190237Y-4030179D01*
G01X-191033Y-4031417D01*
G01X-191260Y-4031711D01*
G01X-191488Y-4031947D01*
G01X-191933Y-4032288D01*
G01X-192311Y-4032667D01*
G01X-192555Y-4033001D01*
G01X-192889Y-4033377D01*
G01X-193182Y-4033652D01*
G01X-193533Y-4033945D01*
G01X-194480Y-4034644D01*
G01X-195048Y-4035006D01*
G01X-196497Y-4035906D01*
G01X-197027Y-4036133D01*
G01X-197927Y-4036407D01*
G01X-198864Y-4036824D01*
G01X-199468Y-4037051D01*
G01X-200199Y-4037279D01*
G01X-201715Y-4037733D01*
G01X-202359Y-4037885D01*
G01X-203940Y-4038112D01*
G01X-204774Y-4038264D01*
G01X-205169Y-4038375D01*
G01X-205616Y-4038453D01*
G01X-206838Y-4038500D01*
G01X-207520Y-4038576D01*
G01X-207828Y-4038654D01*
G01X-208296Y-4038692D01*
G01X-219745Y-4038794D01*
G37*
G36*
G01X-297927Y-4067885D02*
G01X-307321Y-4067885D01*
G01X-307321Y-4032127D01*
G01X-307321Y-4004855D01*
G01X-297927Y-4004855D01*
G01X-297927Y-4017430D01*
G01X-297811Y-4029926D01*
G01X-297700Y-4030178D01*
G01X-297700Y-4030178D01*
G01X-297264Y-4030213D01*
G01X-286563Y-4030309D01*
G01X-275327Y-4030193D01*
G01X-275048Y-4030158D01*
G01X-274366Y-4030006D01*
G01X-272896Y-4029814D01*
G01X-271980Y-4029665D01*
G01X-271440Y-4029542D01*
G01X-270732Y-4029324D01*
G01X-269291Y-4028794D01*
G01X-268609Y-4028491D01*
G01X-266866Y-4027430D01*
G01X-266497Y-4027184D01*
G01X-266147Y-4026900D01*
G01X-265815Y-4026578D01*
G01X-265503Y-4026218D01*
G01X-265219Y-4025858D01*
G01X-264594Y-4025006D01*
G01X-263988Y-4024097D01*
G01X-263846Y-4023860D01*
G01X-263618Y-4023330D01*
G01X-263344Y-4022430D01*
G01X-263007Y-4021673D01*
G01X-262894Y-4021370D01*
G01X-262818Y-4021067D01*
G01X-262780Y-4020764D01*
G01X-262738Y-4019892D01*
G01X-262567Y-4018415D01*
G01X-262548Y-4017885D01*
G01X-262567Y-4017354D01*
G01X-262624Y-4016824D01*
G01X-262927Y-4014703D01*
G01X-263012Y-4014182D01*
G01X-263175Y-4013436D01*
G01X-263381Y-4012733D01*
G01X-263760Y-4011715D01*
G01X-263988Y-4011218D01*
G01X-264291Y-4010650D01*
G01X-264594Y-4010158D01*
G01X-264764Y-4009911D01*
G01X-265503Y-4008945D01*
G01X-266033Y-4008301D01*
G01X-266412Y-4007885D01*
G01X-266753Y-4007582D01*
G01X-268230Y-4006521D01*
G01X-268552Y-4006303D01*
G01X-268912Y-4006105D01*
G01X-269310Y-4005925D01*
G01X-269745Y-4005764D01*
G01X-271227Y-4005273D01*
G01X-271639Y-4005195D01*
G01X-272681Y-4005148D01*
G01X-273287Y-4005072D01*
G01X-273586Y-4004995D01*
G01X-274068Y-4004956D01*
G01X-285957Y-4004855D01*
G01X-297927Y-4004855D01*
G01X-307321Y-4004855D01*
G01X-307321Y-3996370D01*
G01X-292018Y-3996370D01*
G01X-277415Y-3996455D01*
G01X-276375Y-3996503D01*
G01X-275770Y-3996614D01*
G01X-275278Y-3996651D01*
G01X-273261Y-3996694D01*
G01X-272444Y-3996758D01*
G01X-270200Y-3997127D01*
G01X-269707Y-3997203D01*
G01X-268950Y-3997354D01*
G01X-268078Y-3997582D01*
G01X-266438Y-3997868D01*
G01X-266021Y-3997982D01*
G01X-265190Y-3998339D01*
G01X-264139Y-3998794D01*
G01X-263592Y-3999021D01*
G01X-262775Y-3999400D01*
G01X-262463Y-3999561D01*
G01X-261412Y-4000158D01*
G01X-260768Y-4000574D01*
G01X-260531Y-4000754D01*
G01X-260268Y-4000993D01*
G01X-259795Y-4001353D01*
G01X-258940Y-4001909D01*
G01X-258647Y-4002165D01*
G01X-258410Y-4002440D01*
G01X-258069Y-4003017D01*
G01X-257889Y-4003264D01*
G01X-257690Y-4003472D01*
G01X-257359Y-4003725D01*
G01X-257131Y-4003934D01*
G01X-256790Y-4004353D01*
G01X-256563Y-4004703D01*
G01X-255654Y-4006218D01*
G01X-255335Y-4006765D01*
G01X-254897Y-4007582D01*
G01X-254745Y-4007894D01*
G01X-254291Y-4008945D01*
G01X-253836Y-4010158D01*
G01X-253685Y-4010688D01*
G01X-253382Y-4012051D01*
G01X-253116Y-4013074D01*
G01X-253069Y-4013936D01*
G01X-252993Y-4014466D01*
G01X-252861Y-4014987D01*
G01X-252797Y-4015626D01*
G01X-252775Y-4016521D01*
G01X-252778Y-4016857D01*
G01X-252835Y-4018107D01*
G01X-252927Y-4018945D01*
G01X-253230Y-4021067D01*
G01X-253306Y-4021559D01*
G01X-253457Y-4022317D01*
G01X-253685Y-4023112D01*
G01X-253921Y-4024163D01*
G01X-254149Y-4024845D01*
G01X-254556Y-4025764D01*
G01X-254840Y-4026682D01*
G01X-254972Y-4027014D01*
G01X-255143Y-4027364D01*
G01X-255351Y-4027733D01*
G01X-256260Y-4029248D01*
G01X-256677Y-4029892D01*
G01X-256857Y-4030129D01*
G01X-257093Y-4030389D01*
G01X-257321Y-4030688D01*
G01X-257785Y-4031502D01*
G01X-257965Y-4031748D01*
G01X-258164Y-4031957D01*
G01X-258599Y-4032288D01*
G01X-258978Y-4032667D01*
G01X-259222Y-4033001D01*
G01X-259556Y-4033377D01*
G01X-259849Y-4033652D01*
G01X-260200Y-4033945D01*
G01X-261147Y-4034644D01*
G01X-261715Y-4035006D01*
G01X-263164Y-4035906D01*
G01X-263694Y-4036133D01*
G01X-264594Y-4036407D01*
G01X-265531Y-4036824D01*
G01X-266135Y-4037051D01*
G01X-266866Y-4037279D01*
G01X-268381Y-4037733D01*
G01X-269025Y-4037885D01*
G01X-270607Y-4038112D01*
G01X-271440Y-4038264D01*
G01X-271836Y-4038375D01*
G01X-272283Y-4038453D01*
G01X-273505Y-4038500D01*
G01X-274186Y-4038576D01*
G01X-274494Y-4038654D01*
G01X-274963Y-4038692D01*
G01X-286412Y-4038794D01*
G01X-297927Y-4038794D01*
G01X-297927Y-4067885D01*
G37*
G36*
G01X-599162Y-4059533D02*
G01X-598230Y-4059703D01*
G01X-598230Y-4067885D01*
G01X-651563Y-4067885D01*
G01X-651563Y-4032127D01*
G01X-651563Y-3996370D01*
G01X-600048Y-3996370D01*
G01X-600048Y-4004855D01*
G01X-642169Y-4004855D01*
G01X-642169Y-4026673D01*
G01X-602776Y-4026673D01*
G01X-602776Y-4035158D01*
G01X-642169Y-4035158D01*
G01X-642169Y-4059400D01*
G01X-620957Y-4059400D01*
G01X-615974Y-4059402D01*
G01X-599162Y-4059533D01*
G37*
G36*
G01X81770Y-4046370D02*
G01X54801Y-4046370D01*
G01X54801Y-4041976D01*
G01X54801Y-4037582D01*
G01X81770Y-4037582D01*
G01X81770Y-4046370D01*
G37*
G04 Text End*

G04 PolygonModel Start*
G54D10*
G01X-1137445Y-682132D02*
G01X1165443Y-682132D01*
G54D11*
G01X1309515Y-1830575D02*
G01X1429723Y-1710367D01*
G01X1309515Y-1970275D02*
G01X1809515Y-1970275D01*
G01X1309515Y-1830575D02*
G01X1809515Y-1830575D01*
G01X1809515Y-1970275D02*
G01X1689307Y-2090483D01*

G04 Rect Start*
G54D12*
G01X-2120776Y-579548D02*
G01X-2120776Y646052D01*
G02X-1920775Y846052I200000J0D01*
G01X1730524Y846052D01*
G02X1930524Y646052I0J-200000D01*
G01X1930524Y-579548D01*
G02X1730524Y-779548I-200000J0D01*
G01X-1920775Y-779548D01*
G02X-2120776Y-579548I0J200000D01*
G01X-2132762Y-4426122D02*
G01X-2132762Y-3200522D01*
G02X-1932762Y-3000522I200000J0D01*
G01X1718538Y-3000522D01*
G02X1918538Y-3200522I0J-200000D01*
G01X1918538Y-4426122D01*
G02X1718538Y-4626122I-200000J0D01*
G01X-1932762Y-4626122D01*
G02X-2132762Y-4426122I0J200000D01*
G36*
G01X711200Y-3005670D02*
G01X711200Y-2703520D01*
G01X1371600Y-2703520D01*
G01X1371600Y-3005670D01*
G01X711200Y-3005670D01*
G37*
G36*
G01X723900Y-1071310D02*
G01X723900Y-788380D01*
G01X1422400Y-788380D01*
G01X1422400Y-1071310D01*
G01X723900Y-1071310D01*
G37*
G04 Rect End*

G04 Pad Start*
G54D13*
G01X-1879476Y-614448D03*
G01X1713786Y677345D03*
G01X1713786Y-602637D03*
G01X-1879450Y665559D03*
G54D14*
G01X-1864870Y-2534255D03*
G01X-1864845Y-1254247D03*
G01X1728392Y-2522444D03*
G01X1728392Y-1266033D03*
G04 Pad End*

M02*

