;TYPE=PLATED
;Layer: PTH_Through
;EasyEDA Pro v2.2.20.11, 2024-05-07 19:26:09
;Gerber Generator version 0.3
M48
METRIC,LZ,000.00000
;Hole size 1 = 0.30002 METRIC
T01C0.30002
;Hole size 2 = 0.40000 METRIC
T02C0.40000
;Hole size 3 = 2.03200 METRIC
T03C2.03200
%
G05
G90
T01
X37.01517Y93.16314
X54.66512Y98.28809
X34.66516Y91.48826
X29.36519Y96.48825
X29.06522Y94.78823
X28.1653Y94.78823
X25.56535Y97.48825
X25.66518Y98.48825
X35.56533Y98.28809
X34.06521Y100.18827
X32.94532Y100.01834
X25.58542Y100.01809
X28.56535Y100.08819
X30.26537Y100.08819
X31.36519Y100.08819
X35.10051Y96.5233
X34.66516Y94.78823
X34.06521Y94.38818
X43.86529Y97.38817
X39.66515Y98.28809
X34.76523Y92.48826
X32.56534Y97.38843
X32.56534Y97.83851
X32.11525Y97.83851
X32.11525Y97.38843
X32.9151Y94.93834
X32.9151Y94.48851
X36.76523Y98.18853
X36.76523Y98.63836
X36.31514Y98.63836
X36.31514Y98.18853
X35.71519Y99.83851
X35.71519Y100.28834
X35.26511Y100.28834
X35.26511Y99.83851
X23.31517Y99.53854
X23.31517Y99.98837
X22.86533Y99.98837
X22.86533Y99.53854
X29.06522Y97.4885
X29.06522Y97.93834
X28.61513Y97.93834
X28.61513Y97.4885
X23.08962Y91.23832
X23.08962Y90.73845
X23.01443Y88.18829
X23.01469Y90.31326
X23.01469Y89.88882
X23.01469Y89.46337
X23.01469Y89.03843
X23.01469Y88.61323
X24.79015Y98.41306
X24.79015Y97.96323
X24.79015Y97.51314
X24.79015Y97.06305
X24.79015Y96.61322
X24.79015Y96.16313
X24.3652Y98.41306
X24.3652Y97.96323
X24.3652Y97.51314
X24.3652Y97.06305
X24.3652Y96.61322
X24.3652Y96.16313
X23.94026Y98.41306
X23.94026Y97.96323
X23.94026Y97.51314
X23.94026Y97.06305
X23.94026Y96.61322
X23.94026Y96.16313
X23.56536Y95.93809
X23.56536Y96.38817
X23.56536Y96.83826
X23.56536Y97.2881
X23.56536Y97.73818
X23.56536Y98.18802
X23.16531Y97.93808
X23.16531Y97.48825
X23.16531Y97.03816
X23.16531Y96.58807
X23.16531Y96.13824
X23.16531Y95.68815
X54.76519Y88.48852
X49.24146Y89.82685
X49.69154Y89.82685
X50.14138Y89.82685
X50.59147Y89.82685
X51.0413Y89.82685
X51.06518Y90.31351
X50.61509Y90.31351
X50.16525Y90.31351
X49.71517Y90.31351
X49.26533Y90.31351
X51.3903Y90.61374
X51.3903Y91.06332
X51.41519Y96.01327
X50.99025Y96.01327
X50.5653Y96.01327
X49.66513Y96.01327
X49.14011Y96.03842
X49.5902Y96.5134
X50.09007Y96.23831
X50.54016Y96.4631
X50.9651Y96.4631
X51.3903Y96.4631
X51.3903Y96.91319
X50.9651Y96.91319
X50.5653Y97.0882
X50.9651Y97.38817
X50.5653Y97.58807
X51.06518Y97.88804
X51.46523Y97.48825
X49.06518Y96.78822
X43.09034Y92.66326
X50.56505Y92.08973
X50.56505Y91.66454
X50.56505Y91.23959
X50.11522Y92.08973
X50.11496Y91.66454
X50.11522Y91.23959
X49.66513Y92.08973
X49.66513Y91.66454
X49.66513Y91.23959
X47.46523Y91.26398
X47.89018Y91.26398
X48.31512Y91.26398
X48.76521Y91.26474
X49.21529Y91.26449
X47.46523Y91.68892
X47.89018Y91.68892
X48.31512Y91.68892
X48.76521Y91.68943
X49.21504Y91.68943
X47.46523Y92.11412
X47.89018Y92.11412
X48.31512Y92.11412
X48.76521Y92.11462
X49.21529Y92.11437
X47.46523Y92.5642
X47.89018Y92.5642
X48.31512Y92.5642
X48.76521Y92.56471
X49.21529Y92.56446
X49.21529Y92.9894
X47.46523Y92.98889
X47.89018Y92.98889
X48.31512Y92.98889
X48.76521Y92.9894
X47.46523Y93.41383
X47.89018Y93.41383
X48.31512Y93.41383
X48.76521Y93.4146
X47.46523Y93.83852
X47.89018Y93.83852
X48.31512Y93.83852
X48.76521Y93.83903
X47.46523Y94.26321
X47.89018Y94.26321
X48.31512Y94.26321
X48.74006Y94.26372
X49.16526Y94.26321
X49.16526Y94.68815
X48.31512Y94.68815
X48.74031Y94.68815
X47.89018Y94.68815
X47.46523Y94.68815
X49.64024Y94.86316
X50.26533Y94.98813
X50.69027Y94.98813
X47.51527Y95.13824
X47.94021Y95.13824
X48.36516Y95.13824
X48.7901Y95.16313
X49.19015Y95.33865
X49.61534Y95.33865
X50.04029Y95.33865
X50.46523Y95.33865
X50.89017Y95.33865
X43.61536Y93.51315
X31.26537Y94.2881
X36.96487Y93.88856
X34.56534Y90.08821
X36.91534Y89.71305
X19.86534Y85.88807
X43.94987Y92.10548
X38.46525Y89.88806
X40.96512Y95.88805
X42.66514Y88.88832
X36.66515Y94.98813
X36.56533Y95.61322
X36.46449Y96.18726
X44.46524Y95.38818
X44.14012Y94.48825
X43.16527Y92.08821
X43.66514Y86.38819
X43.16527Y86.06307
X39.76522Y100.98811
X41.96512Y91.3892
X46.46447Y97.13722
X41.76522Y94.38818
X40.96512Y88.68816
X50.94021Y100.88804
X50.0159Y97.78822
X46.36516Y89.68816
X45.66514Y90.38819
X39.81526Y94.06306
X39.8653Y93.38818
X38.91534Y94.06331
X38.94023Y93.36329
X38.16528Y93.36329
X38.14013Y94.06306
X38.0652Y98.98812
X50.01514Y100.88804
X49.01514Y100.88804
X49.51527Y101.13823
X41.99026Y93.18828
X41.96512Y93.76308
X41.8653Y95.0882
X41.8653Y95.66326
X50.62753Y93.67596
X50.06797Y93.69603
X50.62753Y93.11615
X51.1876Y93.11615
X51.1876Y93.67596
X50.06797Y93.09608
X41.36517Y99.23805
X46.99025Y99.23805
X45.31512Y97.43821
X50.5653Y98.38817
X48.58766Y98.86569
X47.51527Y97.93808
X24.84577Y93.62948
X24.84577Y92.92946
X23.29586Y93.27947
X23.83587Y93.27947
X24.2758Y92.93936
X24.2758Y93.59951
X48.66472Y87.24628
X49.66472Y87.42909
X34.036Y90.678
X32.385Y90.17
X45.974Y99.06
T02
X26.76525Y91.48826
X26.1653Y90.88806
X26.1653Y92.08821
X26.1653Y91.48826
X25.56535Y90.88806
X25.56535Y92.08821
X25.56535Y91.48826
X24.96515Y90.88806
X24.96515Y91.48826
X24.46528Y89.98814
X24.46528Y90.58808
X24.46528Y91.18829
X24.46528Y91.78823
X23.86533Y89.98814
X23.86533Y90.58808
X23.86533Y91.18829
X23.86533Y91.78823
X26.46528Y92.58808
X25.86533Y92.58808
X25.86507Y93.3389
X26.46528Y93.18828
X26.26538Y93.78823
X25.86533Y94.2881
X25.06523Y95.18828
X24.46528Y95.18828
X23.86533Y95.18828
X25.3652Y94.68815
X24.76525Y94.68815
X24.16531Y94.68815
X23.56536Y94.68815
X47.5902Y99.82733
X31.11525Y91.68028
X30.06522Y91.58808
X28.56535Y91.38818
X29.1653Y91.38818
X28.56535Y91.98813
X29.1653Y91.98813
X28.56535Y92.58808
X29.1653Y92.58808
X29.1653Y93.18828
X28.56535Y93.18828
T03
X53.07721Y99.78636
X53.078Y86.98586
X17.14497Y99.66848
X17.14419Y86.86935
M30