G04 Layer: BoardOutlineLayer*
G04 EasyEDA Pro v2.2.20.11, 2024-05-07 19:26:09*
G04 Gerber Generator version 0.3*
G04 Scale: 100 percent, Rotated: No, Reflected: No*
G04 Dimensions in millimeters*
G04 Leading zeros omitted, absolute positions, 3 integers and 5 decimals*
%FSLAX35Y35*%
%MOMM*%
%ADD10C,0.15001*%
%ADD11C,0.154*%
%ADD12C,0.15494*%
G75*


G04 PolygonModel Start*
G54D10*
G01X1680489Y8512810D02*
G01X5349519Y8516617D01*
G01X1672466Y10148791D02*
G01X5344942Y10152733D01*
G01X5545661Y8716604D02*
G01X5545661Y8918613D01*
G01X5378740Y8918613D01*
G01X5545625Y9804446D02*
G01X5545625Y9758731D01*
G01X5378740Y9758731D01*
G01X5378740Y8918496D01*
G01X5545539Y9952591D02*
G01X5545539Y9804527D01*
G01X1494561Y8875268D02*
G01X1476527Y8875268D01*
G01X1476527Y8712965D01*
G01X1494541Y8875293D02*
G01X1478580Y8875293D01*
G01X1476588Y9948814D02*
G01X1476588Y9775287D01*
G01X1494541Y9775287D02*
G01X1478587Y9775287D01*
G01X1494541Y9775287D02*
G01X1986232Y9775287D01*
G01X1494541Y8875293D02*
G01X1986232Y8875293D01*
G01X5345661Y8516602D02*
G03X5545663Y8716604I3J200000D01*
G01X5545663Y9952571D02*
G03X5345661Y10152573I-200000J3D01*
G01X1676591Y10148816D02*
G03X1476588Y9948814I-3J-200000D01*
G01X1476588Y8712855D02*
G03X1676591Y8512853I200000J-3D01*
G54D11*
G01X2087954Y9166367D02*
G01X2087954Y8875029D01*
G01X2087700Y9480311D02*
G01X2087700Y9775205D01*
G01X1985965Y8875088D02*
G01X2087819Y8875088D01*
G01X2087819Y9775307D02*
G01X1986219Y9775307D01*
G54D12*
G01X2087700Y9480311D02*
G01X2087700Y9166367D01*

M02*

