G04 Layer: TopSilkscreenLayer*
G04 EasyEDA Pro v2.2.20.11, 2024-05-07 19:26:09*
G04 Gerber Generator version 0.3*
G04 Scale: 100 percent, Rotated: No, Reflected: No*
G04 Dimensions in millimeters*
G04 Leading zeros omitted, absolute positions, 3 integers and 5 decimals*
%FSLAX35Y35*%
%MOMM*%
%ADD10C,0.1*%
%ADD11C,0.1016*%
%ADD12C,0.127*%
%ADD13C,0.254*%
%ADD14C,0.1524*%
%ADD15C,0.15001*%
%ADD16C,0.24892*%
%ADD17C,1.0*%
%ADD18C,0.3*%
G75*


G04 Text Start*
G54D10*
G01X1883918Y6646418D02*
G01X1943862Y6646418D01*
G01X1955038Y6642862D01*
G01X1958848Y6639052D01*
G01X1962658Y6631432D01*
G01X1962658Y6624066D01*
G01X1958848Y6616446D01*
G01X1955038Y6612636D01*
G01X1943862Y6609080D01*
G01X1936496Y6609080D01*
G01X1883918Y6674358D02*
G01X1962658Y6674358D01*
G01X1962658Y6674358D02*
G01X1962658Y6719316D01*
G01X1902714Y6803644D02*
G01X1895094Y6799834D01*
G01X1887728Y6792214D01*
G01X1883918Y6784848D01*
G01X1883918Y6769862D01*
G01X1887728Y6762242D01*
G01X1895094Y6754876D01*
G01X1902714Y6751066D01*
G01X1913890Y6747256D01*
G01X1932686Y6747256D01*
G01X1943862Y6751066D01*
G01X1951482Y6754876D01*
G01X1958848Y6762242D01*
G01X1962658Y6769862D01*
G01X1962658Y6784848D01*
G01X1958848Y6792214D01*
G01X1951482Y6799834D01*
G01X1943862Y6803644D01*
G01X1883918Y6869176D02*
G01X1943862Y6869176D01*
G01X1955038Y6865366D01*
G01X1958848Y6861556D01*
G01X1962658Y6854190D01*
G01X1962658Y6846570D01*
G01X1958848Y6839204D01*
G01X1955038Y6835394D01*
G01X1943862Y6831584D01*
G01X1936496Y6831584D01*
G01X1883918Y6897116D02*
G01X1962658Y6897116D01*
G01X1962658Y6897116D02*
G01X1962658Y6942074D01*
G01X1902714Y7026402D02*
G01X1895094Y7022592D01*
G01X1887728Y7014972D01*
G01X1883918Y7007606D01*
G01X1883918Y6992620D01*
G01X1887728Y6985000D01*
G01X1895094Y6977634D01*
G01X1902714Y6973824D01*
G01X1913890Y6970014D01*
G01X1932686Y6970014D01*
G01X1943862Y6973824D01*
G01X1951482Y6977634D01*
G01X1958848Y6985000D01*
G01X1962658Y6992620D01*
G01X1962658Y7007606D01*
G01X1958848Y7014972D01*
G01X1951482Y7022592D01*
G01X1943862Y7026402D01*
G01X1883918Y7091934D02*
G01X1943862Y7091934D01*
G01X1955038Y7088124D01*
G01X1958848Y7084314D01*
G01X1962658Y7076948D01*
G01X1962658Y7069328D01*
G01X1958848Y7061962D01*
G01X1955038Y7058152D01*
G01X1943862Y7054342D01*
G01X1936496Y7054342D01*
G01X1883918Y7119874D02*
G01X1962658Y7119874D01*
G01X1962658Y7119874D02*
G01X1962658Y7164832D01*
G01X1902714Y7249160D02*
G01X1895094Y7245350D01*
G01X1887728Y7237730D01*
G01X1883918Y7230364D01*
G01X1883918Y7215378D01*
G01X1887728Y7207758D01*
G01X1895094Y7200392D01*
G01X1902714Y7196582D01*
G01X1913890Y7192772D01*
G01X1932686Y7192772D01*
G01X1943862Y7196582D01*
G01X1951482Y7200392D01*
G01X1958848Y7207758D01*
G01X1962658Y7215378D01*
G01X1962658Y7230364D01*
G01X1958848Y7237730D01*
G01X1951482Y7245350D01*
G01X1943862Y7249160D01*
G01X1883918Y7314692D02*
G01X1943862Y7314692D01*
G01X1955038Y7310882D01*
G01X1958848Y7307072D01*
G01X1962658Y7299706D01*
G01X1962658Y7292086D01*
G01X1958848Y7284720D01*
G01X1955038Y7280910D01*
G01X1943862Y7277100D01*
G01X1936496Y7277100D01*
G01X1883918Y7342632D02*
G01X1962658Y7342632D01*
G01X1962658Y7342632D02*
G01X1962658Y7387590D01*
G01X1902714Y7471918D02*
G01X1895094Y7468108D01*
G01X1887728Y7460488D01*
G01X1883918Y7453122D01*
G01X1883918Y7438136D01*
G01X1887728Y7430516D01*
G01X1895094Y7423150D01*
G01X1902714Y7419340D01*
G01X1913890Y7415530D01*
G01X1932686Y7415530D01*
G01X1943862Y7419340D01*
G01X1951482Y7423150D01*
G01X1958848Y7430516D01*
G01X1962658Y7438136D01*
G01X1962658Y7453122D01*
G01X1958848Y7460488D01*
G01X1951482Y7468108D01*
G01X1943862Y7471918D01*
G04 Text End*

G04 PolygonModel Start*
G54D11*
G01X4656526Y9063817D02*
G01X4516526Y9063817D01*
G01X4656526Y9063817D02*
G01X4656526Y9233819D01*
G01X4516526Y9233819D02*
G01X4656526Y9233819D01*
G01X4516526Y9212631D02*
G01X4516526Y9212834D01*
G01X4516526Y9212834D02*
G01X4537512Y9233819D01*
G01X4516526Y9211869D02*
G01X4516526Y9218422D01*
G01X4516526Y9218422D02*
G01X4531924Y9233819D01*
G01X4516526Y9063817D02*
G01X4516526Y9233819D01*
G54D12*
G01X4762500Y9735947D02*
G01X4864100Y9735947D01*
G01X4864100Y9735947D02*
G01X4864100Y9634347D01*
G01X4864100Y9634347D02*
G01X4711700Y9634347D01*
G01X4711700Y9634347D02*
G01X4711700Y9735947D01*
G01X4711700Y9735947D02*
G01X4762500Y9735947D01*
G01X4569828Y9664700D02*
G01X4569828Y9563100D01*
G01X4569828Y9563100D02*
G01X4468228Y9563100D01*
G01X4468228Y9563100D02*
G01X4468228Y9715500D01*
G01X4468228Y9715500D02*
G01X4569828Y9715500D01*
G01X4569828Y9715500D02*
G01X4569828Y9664700D01*
G54D13*
G01X2041276Y8667869D02*
G01X2053976Y8667869D01*
G01X2053976Y8667869D02*
G01X2053976Y8629769D01*
G01X2053976Y8629769D02*
G01X2041276Y8629769D01*
G01X2041276Y8629769D02*
G01X2041276Y8667869D01*
G54D14*
G01X4274144Y9080762D02*
G01X4274144Y9031194D01*
G01X4274144Y9031194D02*
G01X4224576Y9031194D01*
G01X3558906Y9080762D02*
G01X3558906Y9031194D01*
G01X3558906Y9031194D02*
G01X3608474Y9031194D01*
G01X4274144Y9696864D02*
G01X4274144Y9746432D01*
G01X4274144Y9746432D02*
G01X4224576Y9746432D01*
G01X3558906Y9696864D02*
G01X3558906Y9746432D01*
G01X3558906Y9746432D02*
G01X3608474Y9746432D01*
G01X4868471Y9846196D02*
G01X4843899Y9846196D01*
G01X4843899Y9846196D02*
G01X4843899Y9895766D01*
G01X4868471Y10111438D02*
G01X4843899Y10111438D01*
G01X4843899Y10111438D02*
G01X4843899Y10061867D01*
G01X5084569Y9846196D02*
G01X5109141Y9846196D01*
G01X5109141Y9846196D02*
G01X5109141Y9895766D01*
G01X5084569Y10111438D02*
G01X5109141Y10111438D01*
G01X5109141Y10111438D02*
G01X5109141Y10061867D01*
G54D15*
G01X4864621Y9143919D02*
G01X4788421Y9143919D01*
G01X4826521Y9220119D02*
G01X4826521Y9067719D01*
G01X4864621Y9182019D02*
G01X4826521Y9143919D01*
G01X4826521Y9143919D02*
G01X4788421Y9182019D01*
G01X4788421Y9182019D02*
G01X4864621Y9182019D01*
G01X4788421Y9105819D02*
G01X4826521Y9143919D01*
G01X4826521Y9143919D02*
G01X4864621Y9105819D01*
G01X4864621Y9105819D02*
G01X4788421Y9105819D01*
G54D16*
G01X4300322Y8812619D02*
G03X4325213Y8812746I12446J127D01*
G03X4300322Y8812873I-12446J0D01*
G36*
G01X3123024Y8905319D02*
G01X3123024Y8947569D01*
G01X3092544Y8947569D01*
G01X3092544Y8905319D01*
G01X3123024Y8905319D01*
G37*
G36*
G01X3123024Y9032319D02*
G01X3123024Y8990068D01*
G01X3092544Y8990068D01*
G01X3092544Y9032319D01*
G01X3123024Y9032319D01*
G37*
G36*
G01X2620025Y8752319D02*
G01X2620025Y8710069D01*
G01X2650505Y8710069D01*
G01X2650505Y8752319D01*
G01X2620025Y8752319D01*
G37*
G36*
G01X2620025Y8625319D02*
G01X2620025Y8667570D01*
G01X2650505Y8667570D01*
G01X2650505Y8625319D01*
G01X2620025Y8625319D01*
G37*

G04 Rect Start*
G54D17*
G01X1473200Y8721700D02*
G01X1473200Y9947300D01*
G02X1673200Y10147300I200000J0D01*
G01X5324500Y10147300D01*
G02X5524500Y9947300I0J-200000D01*
G01X5524500Y8721700D01*
G02X5324500Y8521700I-200000J0D01*
G01X1673200Y8521700D01*
G02X1473200Y8721700I0J200000D01*
G04 Rect End*

G04 Circle Start*
G54D11*
G01X4494124Y9209811D02*
G03X4504893Y9209811I5385J0D01*
G03X4494124Y9209811I-5385J0D01*
G54D18*
G01X2898648Y9068156D02*
G03X2928671Y9068156I15011J0D01*
G03X2898648Y9068156I-15011J0D01*
G54D15*
G01X3656571Y9137193D02*
G03X3677222Y9137193I10325J0D01*
G03X3656571Y9137193I-10325J0D01*
G01X5087417Y9860255D02*
G03X5102403Y9860255I7493J0D01*
G03X5087417Y9860255I-7493J0D01*
G54D18*
G01X4663521Y9232824D02*
G03X4677176Y9232824I6828J0D01*
G03X4663521Y9232824I-6828J0D01*
G04 Circle End*

M02*

