G04 Layer: TopLayer*
G04 EasyEDA Pro v2.2.20.11, 2024-05-07 19:26:09*
G04 Gerber Generator version 0.3*
G04 Scale: 100 percent, Rotated: No, Reflected: No*
G04 Dimensions in millimeters*
G04 Leading zeros omitted, absolute positions, 3 integers and 5 decimals*
%FSLAX35Y35*%
%MOMM*%
%AMRect*21,1,$1,$2,0,0,$3*%
%ADD8191C,0.2032*%
%ADD10C,2.99999*%
%ADD11C,0.2*%
%ADD12R,0.45001X0.25001*%
%ADD13R,0.45001X0.7*%
%ADD14R,0.25001X0.45001*%
%ADD15R,0.7078X0.45001*%
%ADD16R,0.7X0.45001*%
%ADD17R,0.9X2.99999*%
%ADD18R,1.0X1.3*%
%ADD19Rect,1.2X0.8X45.0*%
%ADD20Rect,1.2X0.8X-45.0*%
%ADD21R,0.6X1.2*%
%ADD22R,1.2X1.3*%
%ADD23R,0.324X0.30312*%
%ADD24R,0.30312X0.324*%
%ADD25R,0.56566X0.54*%
%ADD26R,0.54X0.56566*%
%ADD27R,0.8X0.532*%
%ADD28R,1.35001X1.41*%
%ADD29R,0.98374X1.72799*%
%ADD30R,0.54X0.79009*%
%ADD31R,0.79009X0.54*%
%ADD32R,0.9X0.8*%
%ADD33R,0.7X1.25001*%
%ADD34R,0.36843X0.324*%
%ADD35R,0.36843X0.324*%
%ADD36R,0.28001X0.7*%
%ADD37R,0.7X0.28001*%
%ADD38R,3.302X3.302*%
%ADD39R,0.505X0.28001*%
%ADD40R,0.28001X0.505*%
%ADD41R,1.375X1.375*%
%ADD42R,1.05999X0.93*%
%ADD43O,0.28001X1.62001*%
%ADD44R,0.8X0.9*%
%ADD45R,0.5X1.0*%
%ADD46O,1.0X0.8*%
%ADD47R,2.0X0.6*%
%ADD48R,1.8X0.3*%
%ADD49R,0.9X0.7*%
%ADD50R,0.9X0.7*%
%ADD51R,1.0X1.87*%
%ADD52R,2.0X0.4*%
%ADD53R,1.7X0.25001*%
%ADD54R,1.7X0.25001*%
%ADD55R,2.0X0.4*%
%ADD56R,1.7X1.3*%
%ADD57R,1.7X0.6*%
%ADD58C,0.4*%
%ADD59C,0.55001*%
%ADD60C,0.37998*%
%ADD61C,0.18001*%
%ADD62C,0.15001*%
%ADD63C,0.254*%
%ADD64C,0.5*%
%ADD65C,0.18999*%
%ADD66C,0.172*%
%ADD67C,0.3*%
G75*


G04 Copper Start*
G36*
G01X1840713Y8548790D02*
G01X1680669Y8548624D01*
G01X1676987Y8548665D01*
G01X1676987Y8548665D01*
G01X1676766Y8548667D01*
G01X1676749Y8548667D01*
G01X1676588Y8548667D01*
G02X1512402Y8712852I0J164186D01*
G01X1512402Y8712855D01*
G01X1512341Y8714944D01*
G01X1512341Y8839479D01*
G01X1982132Y8839479D01*
G03X1985965Y8839274I3833J35608D01*
G01X1985965Y8839274D01*
G01X2085909Y8839274D01*
G01X2087954Y8839215D01*
G03X2123768Y8875029I0J35814D01*
G01X2123768Y8875029D01*
G01X2123768Y9051820D01*
G01X2274226Y9051820D01*
G01X2274226Y9051820D01*
G03X2310040Y9087634I0J35814D01*
G01X2310040Y9087634D01*
G01X2310040Y9112635D01*
G01X2310040Y9112635D01*
G03X2307790Y9125128I-35814J0D01*
G03X2310040Y9137621I-33564J12493D01*
G01X2310040Y9137621D01*
G01X2310040Y9138003D01*
G01X2320712Y9138003D01*
G01X2320712Y8978819D01*
G01X2320712Y8978819D01*
G03X2331201Y8953494I35814J0D01*
G01X2331201Y8953494D01*
G01X2341201Y8943494D01*
G01X2341201Y8943494D01*
G03X2366526Y8933005I25324J25324D01*
G01X2366526Y8933005D01*
G01X2506525Y8933005D01*
G01X2506525Y8933005D01*
G03X2531850Y8943494I0J35814D01*
G01X2531850Y8943494D01*
G01X2541850Y8953494D01*
G01X2541850Y8953494D01*
G03X2552339Y8978819I-25324J25324D01*
G01X2552339Y8978819D01*
G01X2552339Y9013005D01*
G01X2676525Y9013005D01*
G01X2676525Y9013005D01*
G03X2685712Y9014203I0J35814D01*
G01X2685712Y8877965D01*
G03X2670711Y8848819I20813J-29146D01*
G01X2670711Y8848819D01*
G01X2670711Y8759636D01*
G01X2641515Y8759636D01*
G01X2641515Y8759636D01*
G03X2605701Y8723822I0J-35814D01*
G01X2605701Y8723822D01*
G01X2605701Y8653822D01*
G01X2605701Y8653822D01*
G03X2641515Y8618008I35814J0D01*
G01X2641515Y8618008D01*
G01X2670711Y8618008D01*
G01X2670711Y8549652D01*
G01X2407341Y8549378D01*
G01X2407341Y8796320D01*
G01X2407341Y8796320D01*
G03X2371527Y8832134I-35814J0D01*
G01X2371527Y8832134D01*
G01X1876527Y8832134D01*
G01X1876527Y8832134D01*
G03X1840713Y8796320I0J-35814D01*
G01X1840713Y8796320D01*
G01X1840713Y8548790D01*
G37*
G36*
G01X2311201Y9534142D02*
G01X2309627Y9532568D01*
G03X2309989Y9537645I-35452J5077D01*
G01X2309989Y9537645D01*
G01X2309989Y9562647D01*
G01X2309989Y9562647D01*
G03X2274175Y9598461I-35814J0D01*
G01X2274175Y9598461D01*
G01X2123514Y9598461D01*
G01X2123514Y9772385D01*
G03X2123633Y9775307I-35695J2922D01*
G03X2087819Y9811121I-35814J0D01*
G01X2087819Y9811121D01*
G01X1986219Y9811121D01*
G01X1986219Y9811121D01*
G01X1985013Y9811101D01*
G01X1512402Y9811101D01*
G01X1512402Y9948814D01*
G01X1512402Y9948817D01*
G02X1673780Y10112978I164186J-0D01*
G01X3197691Y10114614D01*
G01X3164220Y10081143D01*
G01X3164220Y10081143D01*
G03X3152821Y10062199I32395J-32395D01*
G03X3136519Y10064633I-16302J-53380D01*
G03X3081528Y10018368I0J-55814D01*
G03X3026537Y10064633I-54991J-9549D01*
G03X2970723Y10008819I0J-55814D01*
G03X3026537Y9953005I55814J0D01*
G03X3081528Y9999270I0J55814D01*
G03X3136519Y9953005I54991J9549D01*
G03X3150801Y9954864I0J55814D01*
G01X3150801Y9945294D01*
G01X3140047Y9934539D01*
G01X2696489Y9934539D01*
G01X2696489Y9934539D01*
G03X2664094Y9921121I0J-45814D01*
G01X2664094Y9921121D01*
G01X2594244Y9851271D01*
G01X2594244Y9851271D01*
G03X2580825Y9818875I32395J-32395D01*
G01X2580825Y9818875D01*
G01X2580825Y9699255D01*
G01X2579500Y9696604D01*
G01X2576513Y9696604D01*
G01X2576513Y9696604D01*
G03X2540699Y9660790I0J-35814D01*
G01X2540699Y9660790D01*
G01X2540699Y9594632D01*
G01X2526525Y9594632D01*
G01X2526525Y9594632D01*
G01X2386526Y9594632D01*
G01X2386526Y9594632D01*
G03X2361201Y9584142I0J-35814D01*
G01X2361201Y9584142D01*
G01X2331201Y9554142D01*
G01X2331201Y9554142D01*
G01X2311201Y9534142D01*
G01X2311201Y9534142D01*
G37*
%LPC*%
G36*
G01X2800721Y10008819D02*
G03X2856535Y9953005I55814J0D01*
G03X2912349Y10008819I0J55814D01*
G03X2856535Y10064633I-55814J0D01*
G03X2800721Y10008819I0J-55814D01*
G37*
%LPD*%
G36*
G01X2370734Y8978979D02*
G01X2366686Y8983027D01*
G01X2366686Y9158818D01*
G01X2366686Y9158818D01*
G03X2363710Y9166003I-10160J0D01*
G01X2363710Y9166003D01*
G01X2348711Y9181001D01*
G01X2348711Y9181001D01*
G03X2341527Y9183977I-7184J-7184D01*
G01X2341527Y9183977D01*
G01X2302977Y9183977D01*
G03X2274226Y9198436I-28751J-21355D01*
G01X2274226Y9198436D01*
G01X2109186Y9198436D01*
G01X2109186Y9201832D01*
G01X2273535Y9201832D01*
G01X2274209Y9201826D01*
G03X2278856Y9202128I0J35814D01*
G01X2278856Y9202128D01*
G01X2303533Y9205358D01*
G01X2401593Y9205358D01*
G01X2401593Y9205358D01*
G03X2433125Y9218328I0J44814D01*
G01X2433125Y9218328D01*
G01X2454298Y9239293D01*
G01X2454631Y9239623D01*
G01X2458595Y9243548D01*
G03X2484577Y9237132I25982J49398D01*
G03X2540391Y9292946I0J55814D01*
G03X2528053Y9327947I-55814J0D01*
G03X2540391Y9362948I-43475J35001D01*
G03X2484577Y9418762I-55814J0D01*
G03X2458529Y9412311I0J-55814D01*
G01X2438666Y9431921D01*
G01X2438666Y9431921D01*
G03X2407181Y9444844I-31485J-31891D01*
G01X2407181Y9444844D01*
G01X2303586Y9444844D01*
G01X2278940Y9448141D01*
G01X2278940Y9448141D01*
G03X2274192Y9448457I-4749J-35498D01*
G01X2273394Y9448448D01*
G01X2116686Y9448448D01*
G01X2116686Y9451844D01*
G01X2274175Y9451844D01*
G01X2274175Y9451844D01*
G03X2304533Y9468658I0J35814D01*
G01X2306526Y9468658D01*
G01X2306526Y9468658D01*
G03X2313710Y9471634I0J10160D01*
G01X2313710Y9471634D01*
G01X2333710Y9491633D01*
G01X2333710Y9491633D01*
G01X2360734Y9518658D01*
G01X2542816Y9518658D01*
G03X2576513Y9494976I33696J12132D01*
G01X2576513Y9494976D01*
G01X2579510Y9494976D01*
G01X2580825Y9492345D01*
G01X2580825Y9488929D01*
G01X2580825Y9488929D01*
G03X2594179Y9456599I45814J0D01*
G01X2594179Y9456599D01*
G01X2657425Y9393099D01*
G01X2657425Y9393099D01*
G03X2667771Y9385306I32460J32330D01*
G03X2665702Y9373311I33745J-11995D01*
G01X2665702Y9373311D01*
G01X2665702Y9319311D01*
G01X2665702Y9319311D01*
G03X2676365Y9293814I35814J0D01*
G01X2676365Y9218818D01*
G01X2676365Y9218818D01*
G03X2679341Y9211634I10160J0D01*
G01X2679341Y9211634D01*
G01X2699341Y9191634D01*
G01X2699341Y9191634D01*
G03X2706525Y9188658I7184J7184D01*
G01X2706525Y9188658D01*
G01X2794040Y9188658D01*
G03X2800777Y9168816I62495J10155D01*
G03X2793220Y9138818I55757J-29997D01*
G03X2793359Y9134632I63315J0D01*
G01X2726527Y9134632D01*
G01X2726527Y9134632D01*
G03X2707214Y9128978I0J-35814D01*
G01X2706525Y9128978D01*
G01X2706525Y9128978D01*
G03X2699341Y9126003I0J-10160D01*
G01X2699341Y9126003D01*
G01X2679341Y9106003D01*
G01X2679341Y9106003D01*
G03X2676365Y9098818I7184J-7184D01*
G01X2676365Y9098818D01*
G01X2676365Y9065046D01*
G01X2674023Y9065123D01*
G01X2674023Y9065123D01*
G01X2539022Y9065123D01*
G01X2539022Y9065123D01*
G03X2503208Y9029309I0J-35814D01*
G01X2503208Y9029309D01*
G01X2503208Y8979870D01*
G01X2502317Y8978979D01*
G01X2370734Y8978979D01*
G37*
G36*
G01X2361054Y9518978D02*
G01X2390734Y9548658D01*
G01X2526525Y9548658D01*
G01X2526525Y9548658D01*
G01X2540699Y9548658D01*
G01X2540699Y9530790D01*
G01X2540699Y9530790D01*
G03X2542703Y9518978I35814J0D01*
G01X2361054Y9518978D01*
G37*
G36*
G01X3177799Y9460077D02*
G03X3161845Y9473542I-30073J-19449D01*
G01X3161845Y9473542D01*
G01X3156804Y9475705D01*
G03X3140862Y9482755I-30267J-46894D01*
G01X3137028Y9484782D01*
G01X3108013Y9513799D01*
G03X3112300Y9530790I-31527J16991D01*
G01X3112300Y9530790D01*
G01X3112300Y9660790D01*
G01X3112300Y9660790D01*
G03X3076486Y9696604I-35814J0D01*
G01X3076486Y9696604D01*
G01X2976486Y9696604D01*
G01X2976486Y9696604D01*
G03X2940672Y9660790I0J-35814D01*
G01X2940672Y9660790D01*
G01X2940672Y9530790D01*
G01X2940672Y9530790D01*
G03X2976486Y9494976I35814J0D01*
G01X2976486Y9494976D01*
G01X2997257Y9494976D01*
G01X3016036Y9476196D01*
G03X3013353Y9475769I4283J-35557D01*
G01X2987241Y9471243D01*
G01X2722339Y9471243D01*
G01X2722339Y9478818D01*
G01X2722339Y9478818D01*
G03X2711849Y9504142I-35814J0D01*
G01X2711849Y9504142D01*
G01X2705806Y9510186D01*
G03X2712326Y9530790I-29293J20604D01*
G01X2712326Y9530790D01*
G01X2712326Y9660790D01*
G01X2712326Y9660790D01*
G03X2676512Y9696604I-35814J0D01*
G01X2676512Y9696604D01*
G01X2673780Y9696604D01*
G01X2672453Y9699256D01*
G01X2672453Y9726420D01*
G03X2736520Y9699970I64066J64365D01*
G03X2827335Y9790786I0J90815D01*
G03X2810886Y9842911I-90815J0D01*
G01X3042138Y9842911D01*
G03X3025689Y9790786I74366J-52126D01*
G03X3116504Y9699970I90815J0D01*
G03X3207319Y9790786I0J90815D01*
G03X3184686Y9850774I-90815J0D01*
G03X3191419Y9856330I-25663J37952D01*
G01X3191419Y9856330D01*
G01X3229011Y9893922D01*
G01X3229011Y9893922D01*
G03X3242429Y9926317I-32395J32395D01*
G01X3242429Y9926317D01*
G01X3242429Y10029771D01*
G01X3275539Y10062881D01*
G01X3420806Y10062881D01*
G01X3420806Y9974674D01*
G01X3346478Y9974674D01*
G01X3346478Y9974674D01*
G03X3314085Y9961258I0J-45814D01*
G01X3314085Y9961258D01*
G01X3284108Y9931286D01*
G01X3284108Y9931286D01*
G03X3270687Y9898888I32393J-32398D01*
G01X3270687Y9898888D01*
G01X3270687Y9705060D01*
G01X3261981Y9696604D01*
G01X3176511Y9696604D01*
G01X3176511Y9696604D01*
G03X3140697Y9660790I0J-35814D01*
G01X3140697Y9660790D01*
G01X3140697Y9530790D01*
G01X3140697Y9530790D01*
G03X3176511Y9494976I35814J0D01*
G01X3176511Y9494976D01*
G01X3179456Y9494976D01*
G01X3180771Y9492345D01*
G01X3180771Y9474325D01*
G01X3177799Y9460077D01*
G37*
G36*
G01X2731686Y8568980D02*
G01X2731686Y9088658D01*
G01X2817899Y9088658D01*
G03X2831366Y9080721I38636J50160D01*
G01X2831366Y8983817D01*
G01X2831366Y8983817D01*
G03X2834342Y8976633I10160J0D01*
G01X2834342Y8976633D01*
G01X2844342Y8966633D01*
G01X2844342Y8966633D01*
G03X2851526Y8963657I7184J7184D01*
G01X2851526Y8963657D01*
G01X2861366Y8963657D01*
G01X2861366Y8913978D01*
G01X2851526Y8913978D01*
G01X2851526Y8913978D01*
G03X2844342Y8911002I0J-10160D01*
G01X2844342Y8911002D01*
G01X2834342Y8901002D01*
G01X2834342Y8901002D01*
G03X2831366Y8893818I7184J-7184D01*
G01X2831366Y8893818D01*
G01X2831366Y8568980D01*
G01X2731686Y8568980D01*
G37*
G36*
G01X3217551Y8854638D02*
G01X3190183Y8861054D01*
G03X3156524Y8884633I-33659J-12235D01*
G01X3156524Y8884633D01*
G01X3004105Y8884633D01*
G03X3019216Y8895583I-27708J54135D01*
G01X3019216Y8895583D01*
G01X3021656Y8898002D01*
G01X3101534Y8898002D01*
G01X3101534Y8898002D01*
G03X3137348Y8933816I0J35814D01*
G01X3137348Y8933816D01*
G01X3137348Y9003816D01*
G01X3137348Y9003816D01*
G03X3101534Y9039630I-35814J0D01*
G01X3101534Y9039630D01*
G01X3082336Y9039630D01*
G01X3082336Y9090412D01*
G01X3082336Y9090412D01*
G03X3046522Y9126226I-35814J0D01*
G01X3046522Y9126226D01*
G01X2966522Y9126226D01*
G01X2966522Y9126226D01*
G03X2930708Y9090412I0J-35814D01*
G01X2930708Y9090412D01*
G01X2930708Y9037212D01*
G01X2930708Y9037212D01*
G03X2931712Y9028793I35814J0D01*
G01X2937698Y9001633D01*
G01X2901516Y9001633D01*
G01X2901516Y9001633D01*
G03X2890927Y9000032I0J-35814D01*
G03X2877340Y9007959I-24402J-26214D01*
G01X2877340Y9093817D01*
G01X2877340Y9093817D01*
G03X2866850Y9119142I-35814J0D01*
G01X2866850Y9119142D01*
G01X2861849Y9124143D01*
G01X2861849Y9124143D01*
G03X2852339Y9130952I-25324J-25324D01*
G01X2852339Y9188818D01*
G01X2852339Y9188818D01*
G03X2841849Y9214143I-35814J0D01*
G01X2841849Y9214143D01*
G01X2840397Y9215594D01*
G03X2842331Y9227204I-33880J11610D01*
G01X2842331Y9227204D01*
G01X2842331Y9280404D01*
G01X2842331Y9280404D01*
G03X2809419Y9316101I-35814J0D01*
G01X2809419Y9316101D01*
G03X2797221Y9340239I-42826J-6490D01*
G01X2797221Y9340239D01*
G01X2797183Y9340277D01*
G01X2793896Y9349131D01*
G01X2793896Y9373311D01*
G01X2793896Y9373311D01*
G03X2793337Y9379615I-35814J0D01*
G01X2984505Y9379615D01*
G01X2984505Y9362016D01*
G01X2984505Y9362016D01*
G03X3020319Y9326202I35814J0D01*
G01X3020319Y9326202D01*
G01X3023494Y9326202D01*
G03X3049801Y9317896I26307J37508D01*
G01X3049801Y9317896D01*
G01X3069099Y9317896D01*
G01X3038837Y9316218D01*
G01X2966522Y9316218D01*
G01X2966522Y9316218D01*
G03X2930708Y9280404I0J-35814D01*
G01X2930708Y9280404D01*
G01X2930708Y9227204D01*
G01X2930708Y9227204D01*
G03X2966522Y9191390I35814J0D01*
G01X2966522Y9191390D01*
G01X3046522Y9191390D01*
G01X3046522Y9191390D01*
G01X3048146Y9191427D01*
G01X3052451Y9191514D01*
G01X3082662Y9190544D01*
G01X3084533Y9190495D01*
G01X3084533Y9190495D01*
G01X3138533Y9190495D01*
G01X3138533Y9190495D01*
G01X3140428Y9190545D01*
G01X3170374Y9191506D01*
G01X3178725Y9148388D01*
G01X3178725Y9147556D01*
G01X3178725Y9147556D01*
G03X3186638Y9117558I60814J0D01*
G01X3186638Y9109311D01*
G01X3186638Y9109311D01*
G03X3222452Y9073497I35814J0D01*
G01X3222452Y9073497D01*
G01X3274404Y9073497D01*
G01X3274885Y9059324D01*
G03X3238500Y9072814I-36385J-42324D01*
G03X3182686Y9017000I0J-55814D01*
G03X3235715Y8961256I55814J0D01*
G01X3235715Y8933816D01*
G01X3235715Y8933816D01*
G03X3271529Y8898002I35814J0D01*
G01X3271529Y8898002D01*
G01X3276517Y8898002D01*
G01X3276517Y8854638D01*
G01X3217551Y8854638D01*
G37*
G36*
G01X3533358Y8904490D02*
G01X3524016Y8854548D01*
G01X3398145Y8854548D01*
G01X3398145Y9012253D01*
G03X3403600Y9011986I5455J55547D01*
G03X3459414Y9067800I0J55814D01*
G03X3403600Y9123614I-55814J0D01*
G01X3401395Y9123570D01*
G01X3401395Y9155333D01*
G01X3421913Y9215210D01*
G01X3421913Y9215210D01*
G03X3423846Y9226819I-33880J11609D01*
G01X3423839Y9227558D01*
G01X3423839Y9280817D01*
G01X3423839Y9280817D01*
G03X3388025Y9316631I-35814J0D01*
G01X3388025Y9316631D01*
G01X3309015Y9316631D01*
G01X3309015Y9316631D01*
G03X3294024Y9313343I0J-35814D01*
G03X3279033Y9316631I-14991J-32526D01*
G01X3279033Y9316631D01*
G01X3200024Y9316631D01*
G01X3200014Y9316631D01*
G01X3199015Y9316617D01*
G01X3199015Y9316617D01*
G01X3184384Y9316209D01*
G01X3153952Y9317896D01*
G01X3502966Y9317896D01*
G01X3502966Y9299799D01*
G01X3502966Y9299799D01*
G03X3504695Y9288805I35814J0D01*
G03X3502966Y9277812I34085J-10993D01*
G01X3502966Y9277812D01*
G01X3502966Y9249811D01*
G01X3502966Y9249811D01*
G03X3504699Y9238806I35814J0D01*
G03X3502966Y9227800I34081J-11006D01*
G01X3502966Y9227800D01*
G01X3502966Y9199799D01*
G01X3502966Y9199799D01*
G03X3504695Y9188806I35814J0D01*
G03X3502966Y9177812I34085J-10993D01*
G01X3502966Y9177812D01*
G01X3502966Y9149812D01*
G01X3502966Y9149812D01*
G03X3504699Y9138806I35814J0D01*
G03X3502966Y9127800I34081J-11006D01*
G01X3502966Y9127800D01*
G01X3502966Y9099799D01*
G01X3502966Y9099799D01*
G03X3538780Y9063985I35814J0D01*
G01X3538780Y9063985D01*
G01X3590815Y9063985D01*
G01X3590815Y9045956D01*
G01X3590815Y9045956D01*
G03X3591707Y9036472I50814J0D01*
G01X3591707Y9011083D01*
G01X3591707Y9011083D01*
G03X3627521Y8975269I35814J0D01*
G01X3627521Y8975269D01*
G01X3635861Y8975269D01*
G03X3635720Y8971305I55673J-3964D01*
G03X3648398Y8935887I55814J0D01*
G03X3639031Y8937134I-9367J-34567D01*
G01X3639031Y8937134D01*
G01X3569031Y8937134D01*
G01X3569031Y8937134D01*
G03X3533358Y8904490I0J-35814D01*
G37*
G36*
G01X3639046Y8550656D02*
G01X3192338Y8550193D01*
G01X3192338Y8703010D01*
G01X3280789Y8703010D01*
G01X3281528Y8703003D01*
G03X3294798Y8705552I0J35814D01*
G01X3294798Y8705552D01*
G01X3327170Y8718466D01*
G03X3359531Y8697994I32361J15342D01*
G01X3359531Y8697994D01*
G01X3413531Y8697994D01*
G01X3413531Y8697994D01*
G03X3449334Y8732920I0J35814D01*
G01X3558819Y8732920D01*
G01X3558819Y8732920D01*
G03X3588230Y8740504I0J60814D01*
G01X3639031Y8740504D01*
G01X3639031Y8740504D01*
G03X3674845Y8776318I0J35814D01*
G01X3674845Y8776318D01*
G01X3674845Y8901320D01*
G01X3674845Y8901320D01*
G03X3669598Y8919983I-35814J0D01*
G03X3691534Y8915491I21936J51322D01*
G03X3697818Y8915846I0J55814D01*
G01X3694893Y8878688D01*
G03X3694703Y8875009I35625J-3679D01*
G01X3694703Y8875009D01*
G01X3694703Y8842609D01*
G01X3694703Y8842609D01*
G03X3730517Y8806795I35814J0D01*
G01X3730517Y8806795D01*
G01X3767360Y8806795D01*
G01X3767360Y8806795D01*
G01X3769117Y8806838D01*
G01X3812769Y8807947D01*
G01X3891520Y8807947D01*
G01X3905772Y8807947D01*
G01X3905772Y8797539D01*
G01X3900737Y8778758D01*
G01X3899022Y8778427D01*
G01X3875290Y8782997D01*
G01X3875290Y8782997D01*
G03X3868519Y8783643I-6771J-35168D01*
G01X3867666Y8783632D01*
G01X3815372Y8783632D01*
G01X3814519Y8783643D01*
G03X3803769Y8781991I0J-35814D01*
G01X3803769Y8781991D01*
G01X3761956Y8768834D01*
G03X3727713Y8753379I6673J-60447D01*
G01X3706481Y8737134D01*
G01X3664027Y8737134D01*
G01X3664027Y8737134D01*
G03X3628213Y8701320I0J-35814D01*
G01X3628213Y8701320D01*
G01X3628213Y8576319D01*
G01X3628213Y8576319D01*
G03X3639046Y8550656I35814J0D01*
G37*
G36*
G01X3278524Y9409524D02*
G01X3278533Y9410327D01*
G01X3278533Y9410327D01*
G01X3278533Y9439890D01*
G01X3278541Y9440629D01*
G03X3277813Y9447812I-35814J0D01*
G01X3277813Y9447812D01*
G01X3272399Y9474257D01*
G01X3272399Y9492345D01*
G01X3273714Y9494976D01*
G01X3276511Y9494976D01*
G01X3276511Y9494976D01*
G03X3312325Y9530790I0J35814D01*
G01X3312325Y9530790D01*
G01X3312325Y9609050D01*
G01X3333781Y9638270D01*
G01X3348895Y9653383D01*
G01X3348895Y9653383D01*
G03X3362315Y9685779I-32394J32396D01*
G01X3362315Y9685779D01*
G01X3362315Y9879909D01*
G01X3365452Y9883046D01*
G01X3427578Y9883046D01*
G01X3430715Y9879910D01*
G01X3430715Y9788906D01*
G01X3430715Y9788906D01*
G03X3444061Y9756583I45814J0D01*
G01X3444061Y9756583D01*
G01X3494489Y9705931D01*
G03X3455537Y9664304I15562J-53600D01*
G01X3454016Y9661095D01*
G03X3440712Y9628815I32510J-32280D01*
G01X3440712Y9628815D01*
G01X3440712Y9594629D01*
G01X3426524Y9594629D01*
G01X3426524Y9594629D01*
G03X3394128Y9581210I0J-45814D01*
G01X3394128Y9581210D01*
G01X3324128Y9511211D01*
G01X3324128Y9511211D01*
G03X3310710Y9478815I32395J-32395D01*
G01X3310710Y9478815D01*
G01X3310710Y9433710D01*
G01X3310710Y9433710D01*
G02X3305979Y9409524I-64186J0D01*
G01X3278524Y9409524D01*
G37*
G36*
G01X3741199Y9938779D02*
G01X3728880Y9951098D01*
G01X3728880Y9951098D01*
G03X3696485Y9964517I-32395J-32395D01*
G01X3696485Y9964517D01*
G01X3535628Y9964517D01*
G01X3512434Y9987713D01*
G01X3512434Y10088880D01*
G01X3512434Y10088880D01*
G03X3504298Y10114943I-45814J0D01*
G01X3923228Y10115393D01*
G03X3920708Y10098811I53294J-16582D01*
G03X3922987Y10083027I55814J0D01*
G03X3892027Y10089637I-30960J-69204D01*
G03X3816213Y10013823I0J-75814D01*
G03X3824357Y9979640I75814J0D01*
G01X3777013Y9979640D01*
G01X3777013Y9979640D01*
G03X3741199Y9943826I0J-35814D01*
G01X3741199Y9943826D01*
G01X3741199Y9938779D01*
G37*
G36*
G01X3594302Y9779935D02*
G01X3589062Y9777316D01*
G01X3552715Y9777316D01*
G01X3522342Y9807823D01*
G01X3522342Y9872889D01*
G01X3677508Y9872889D01*
G01X3695629Y9854768D01*
G01X3695629Y9802367D01*
G01X3677534Y9802367D01*
G01X3677534Y9802367D01*
G03X3666528Y9800634I0J-35814D01*
G03X3655522Y9802367I-11006J-34081D01*
G01X3655522Y9802367D01*
G01X3627521Y9802367D01*
G01X3627521Y9802367D01*
G03X3594302Y9779935I0J-35814D01*
G37*
G36*
G01X4077533Y9116897D02*
G03X4066527Y9115164I0J-35814D01*
G03X4055521Y9116897I-11006J-34081D01*
G01X4055521Y9116897D01*
G01X4027521Y9116897D01*
G01X4027521Y9116897D01*
G03X4016527Y9115168I0J-35814D01*
G03X4005534Y9116897I-10993J-34085D01*
G01X4005534Y9116897D01*
G01X3977533Y9116897D01*
G01X3977533Y9116897D01*
G03X3966528Y9115164I0J-35814D01*
G03X3955522Y9116897I-11006J-34081D01*
G01X3955522Y9116897D01*
G01X3927521Y9116897D01*
G01X3927521Y9116897D01*
G03X3916528Y9115168I0J-35814D01*
G03X3905534Y9116897I-10993J-34085D01*
G01X3905534Y9116897D01*
G01X3877534Y9116897D01*
G01X3877534Y9116897D01*
G03X3866528Y9115164I0J-35814D01*
G03X3855522Y9116897I-11006J-34081D01*
G01X3855522Y9116897D01*
G01X3840601Y9116897D01*
G03X3827410Y9139806I-49115J-13029D01*
G01X3827410Y9139806D01*
G01X3814958Y9152252D01*
G01X3814958Y9152252D01*
G03X3779035Y9167128I-35924J-35938D01*
G01X3779035Y9167128D01*
G01X3741443Y9167128D01*
G01X3741443Y9167128D01*
G01X3718585Y9167128D01*
G01X3718585Y9167128D01*
G01X3692442Y9167128D01*
G01X3692442Y9176515D01*
G01X3692442Y9208767D01*
G01X3692442Y9208767D01*
G01X3692442Y9333189D01*
G03X3696487Y9333042I4045J55667D01*
G03X3751006Y9376903I0J55814D01*
G01X3753068Y9381256D01*
G03X3762365Y9408922I-36517J27666D01*
G01X3762365Y9408922D01*
G01X3762365Y9592981D01*
G01X4040854Y9592981D01*
G03X4040698Y9588805I55658J-4176D01*
G03X4096512Y9532991I55814J0D01*
G03X4134002Y9547456I0J55814D01*
G03X4138692Y9537573I52528J18869D01*
G03X4130716Y9508820I47838J-28753D01*
G03X4138774Y9479931I55814J0D01*
G03X4120708Y9438818I37748J-41113D01*
G03X4143513Y9393811I55814J0D01*
G03X4140698Y9376308I52999J-17503D01*
G03X4149986Y9345478I55814J0D01*
G03X4143212Y9318828I49041J-26650D01*
G03X4188461Y9264023I55814J0D01*
G01X4188461Y9259563D01*
G03X4159142Y9246250I3075J-45711D01*
G01X4159142Y9246250D01*
G01X4109099Y9196212D01*
G01X4109099Y9196212D01*
G03X4095679Y9163815I32394J-32397D01*
G01X4095679Y9163815D01*
G01X4095679Y9116897D01*
G01X4077533Y9116897D01*
G01X4077533Y9116897D01*
G37*
G36*
G01X4306789Y8551349D02*
G01X3759136Y8550781D01*
G03X3768918Y8568240I-25109J25538D01*
G01X3795592Y8637253D01*
G01X3802925Y8634925D01*
G03X3814521Y8632995I11596J33885D01*
G01X3814521Y8632995D01*
G01X3868522Y8632995D01*
G01X3868522Y8632995D01*
G03X3876199Y8633828I0J35814D01*
G01X3899022Y8638261D01*
G01X3921812Y8633834D01*
G03X3929530Y8632993I7718J34972D01*
G01X3929530Y8632993D01*
G01X3983530Y8632993D01*
G01X3983530Y8632993D01*
G03X4019344Y8668807I0J35814D01*
G01X4019344Y8668807D01*
G01X4019344Y8747816D01*
G01X4019344Y8747816D01*
G03X4018057Y8757332I-35814J0D01*
G01X4007400Y8797502D01*
G01X4007400Y8812947D01*
G01X4016527Y8812947D01*
G01X4016527Y8812947D01*
G03X4048923Y8826365I0J45814D01*
G01X4048923Y8826365D01*
G01X4050721Y8828163D01*
G01X4050721Y8798814D01*
G01X4050721Y8798814D01*
G03X4064141Y8766417I45814J0D01*
G01X4064141Y8766417D01*
G01X4112448Y8718116D01*
G01X4112448Y8694277D01*
G01X4106935Y8683251D01*
G03X4094137Y8655812I23016J-27439D01*
G01X4094137Y8655812D01*
G01X4094137Y8601812D01*
G01X4094137Y8601812D01*
G03X4129951Y8565998I35814J0D01*
G01X4129951Y8565998D01*
G01X4186517Y8565998D01*
G01X4186517Y8565998D01*
G03X4201516Y8569290I0J35814D01*
G03X4216514Y8565998I14999J32522D01*
G01X4216514Y8565998D01*
G01X4273080Y8565998D01*
G01X4273080Y8565998D01*
G03X4277622Y8566287I0J35814D01*
G03X4306789Y8551349I38904J40021D01*
G37*
G36*
G01X4077533Y9802367D02*
G03X4066527Y9800634I0J-35814D01*
G03X4055521Y9802367I-11006J-34081D01*
G01X4055521Y9802367D01*
G01X4027521Y9802367D01*
G01X4027521Y9802367D01*
G03X4016527Y9800638I0J-35814D01*
G03X4005534Y9802367I-10993J-34085D01*
G01X4005534Y9802367D01*
G01X3977533Y9802367D01*
G01X3977533Y9802367D01*
G03X3966528Y9800634I0J-35814D01*
G03X3955522Y9802367I-11006J-34081D01*
G01X3955522Y9802367D01*
G01X3927521Y9802367D01*
G01X3927521Y9802367D01*
G03X3916528Y9800638I0J-35814D01*
G03X3905534Y9802367I-10993J-34085D01*
G01X3905534Y9802367D01*
G01X3877534Y9802367D01*
G01X3877534Y9802367D01*
G03X3866528Y9800634I0J-35814D01*
G01X3864742Y9801160D01*
G03X3872827Y9823826I-27729J22666D01*
G01X3872827Y9823826D01*
G01X3872827Y9940481D01*
G03X3892027Y9938009I19200J73342D01*
G03X3938158Y9953659I0J75814D01*
G03X3943997Y9946503I38235J25239D01*
G01X3943997Y9946503D01*
G01X3999112Y9891385D01*
G01X3999112Y9891385D01*
G03X4031508Y9877966I32396J32395D01*
G01X4031508Y9877966D01*
G01X4078569Y9877966D01*
G01X4081203Y9876649D01*
G01X4081203Y9823826D01*
G01X4081203Y9823826D01*
G03X4088344Y9802367I35814J0D01*
G01X4077533Y9802367D01*
G01X4077533Y9802367D01*
G37*
G36*
G01X4283199Y9943826D02*
G01X4283199Y9843229D01*
G01X4212831Y9843229D01*
G01X4212831Y9943826D01*
G01X4212831Y9943826D01*
G03X4177017Y9979640I-35814J0D01*
G01X4177017Y9979640D01*
G01X4129699Y9979640D01*
G03X4137843Y10013823I-67670J34183D01*
G03X4062029Y10089637I-75814J0D01*
G03X4029897Y10082491I0J-75814D01*
G01X4029897Y10082491D01*
G03X4032336Y10098811I-53375J16320D01*
G03X4029781Y10115507I-55814J0D01*
G01X4851700Y10116390D01*
G01X4851700Y10113978D01*
G03X4845700Y10088804I49814J-25174D01*
G03X4853336Y10060625I55814J0D01*
G03X4884531Y10035636I34178J10701D01*
G03X4901514Y10032990I16983J53167D01*
G03X4918498Y10035636I0J55814D01*
G03X4926521Y10037245I-2983J35690D01*
G03X4937526Y10035512I11006J34081D01*
G01X4937526Y10035512D01*
G01X4965527Y10035512D01*
G01X4965527Y10035512D01*
G03X4976520Y10037241I0J35814D01*
G03X4984531Y10035636I10993J34085D01*
G03X5001514Y10032990I16983J53167D01*
G03X5018497Y10035636I0J55814D01*
G03X5026520Y10037245I-2983J35690D01*
G03X5033211Y10035773I11006J34081D01*
G01X5033211Y10014809D01*
G01X5033211Y10014809D01*
G03X5034940Y10003815I35814J0D01*
G03X5033211Y9992822I34085J-10993D01*
G01X5033211Y9992822D01*
G01X5033211Y9964821D01*
G01X5033211Y9964821D01*
G03X5034944Y9953816I35814J0D01*
G03X5033211Y9942810I34081J-11006D01*
G01X5033211Y9942810D01*
G01X5033211Y9921871D01*
G03X5026520Y9920399I4315J-35553D01*
G03X5015514Y9922132I-11006J-34081D01*
G01X5015514Y9922132D01*
G01X4987514Y9922132D01*
G01X4987514Y9922132D01*
G03X4976520Y9920403I0J-35814D01*
G03X4965527Y9922132I-10993J-34085D01*
G01X4965527Y9922132D01*
G01X4937526Y9922132D01*
G01X4937526Y9922132D01*
G03X4926521Y9920399I0J-35814D01*
G03X4919830Y9921871I-11006J-34081D01*
G01X4919830Y9942810D01*
G01X4919830Y9942810D01*
G03X4884016Y9978624I-35814J0D01*
G01X4884016Y9978624D01*
G01X4833516Y9978624D01*
G01X4833516Y9978624D01*
G03X4797702Y9942810I0J-35814D01*
G01X4797702Y9942810D01*
G01X4797702Y9940489D01*
G01X4783007Y9955185D01*
G01X4783007Y9955185D01*
G03X4757383Y9967816I-31406J-31405D01*
G01X4732172Y9977137D01*
G03X4719018Y9979640I-13154J-33311D01*
G01X4719018Y9979640D01*
G01X4671700Y9979640D01*
G03X4679843Y10013823I-67670J34183D01*
G03X4604029Y10089637I-75814J0D01*
G03X4528215Y10013823I0J-75814D01*
G03X4604029Y9938009I75814J0D01*
G03X4623204Y9940474I0J75814D01*
G01X4623204Y9856246D01*
G01X4563722Y9915898D01*
G01X4563721Y9915898D01*
G03X4531634Y9929216I-32087J-31996D01*
G01X4531634Y9929216D01*
G01X4415977Y9929216D01*
G01X4414827Y9929790D01*
G01X4414827Y9940481D01*
G03X4434027Y9938009I19200J73342D01*
G03X4509841Y10013823I0J75814D01*
G03X4434027Y10089637I-75814J0D01*
G03X4358213Y10013823I0J-75814D01*
G03X4366357Y9979640I75814J0D01*
G01X4319013Y9979640D01*
G01X4319013Y9979640D01*
G03X4283199Y9943826I0J-35814D01*
G01X4283199Y9943826D01*
G37*
G36*
G01X4173196Y8786949D02*
G01X4142349Y8817792D01*
G01X4142349Y8835411D01*
G01X4143542Y8838760D01*
G03X4152326Y8868816I-47030J30057D01*
G03X4145532Y8895504I-55814J0D01*
G01X4211101Y8895504D01*
G03X4210700Y8888832I55414J-6673D01*
G03X4235735Y8842272I55814J0D01*
G03X4260824Y8809636I35781J1545D01*
G01X4206517Y8809636D01*
G01X4206517Y8809636D01*
G03X4173196Y8786949I0J-35814D01*
G37*
G36*
G01X4448214Y9696802D02*
G01X4448214Y9691095D01*
G01X4444093Y9695216D01*
G01X4444093Y9695216D01*
G03X4412687Y9708225I-31405J-31405D01*
G01X4412687Y9708225D01*
G01X4334612Y9708225D01*
G03X4328858Y9709456I-10346J-34287D01*
G01X4328858Y9709456D01*
G01X4298858Y9713335D01*
G01X4298858Y9713335D01*
G03X4294266Y9713631I-4592J-35518D01*
G01X4293663Y9713625D01*
G01X4241348Y9713625D01*
G01X4241348Y9754400D01*
G01X4476710Y9754400D01*
G03X4475698Y9743821I54802J-10579D01*
G03X4476983Y9731916I55814J0D01*
G03X4448214Y9696802I7045J-35114D01*
G01X4448214Y9696802D01*
G37*
G36*
G01X5347764Y8552430D02*
G01X4326378Y8551370D01*
G03X4367246Y8583010I-9851J54938D01*
G03X4422328Y8638819I-732J55809D01*
G03X4366514Y8694633I-55814J0D01*
G03X4315795Y8662117I0J-55814D01*
G01X4314992Y8662100D01*
G03X4322331Y8683822I-28475J21722D01*
G01X4322331Y8683822D01*
G01X4322331Y8773822D01*
G01X4322331Y8773822D01*
G03X4297209Y8808002I-35814J0D01*
G01X4351515Y8808002D01*
G01X4351515Y8808002D01*
G03X4377498Y8819168I0J35814D01*
G03X4410686Y8796815I33188J13461D01*
G01X4410686Y8796815D01*
G01X4447529Y8796815D01*
G01X4447529Y8796815D01*
G03X4483343Y8832629I0J35814D01*
G01X4483343Y8832629D01*
G01X4483343Y8853834D01*
G03X4486331Y8870828I-46826J16994D01*
G01X4486331Y8870828D01*
G01X4486331Y8895504D01*
G01X4486702Y8895504D01*
G01X4486702Y8870828D01*
G01X4486702Y8870828D01*
G03X4526456Y8822040I49814J0D01*
G01X4526456Y8822040D01*
G03X4560675Y8796795I34219J10569D01*
G01X4560675Y8796795D01*
G01X4597518Y8796795D01*
G01X4597518Y8796795D01*
G03X4606516Y8797943I0J35814D01*
G03X4615514Y8796795I8998J34665D01*
G01X4615514Y8796795D01*
G01X4652357Y8796795D01*
G01X4652357Y8796795D01*
G03X4688171Y8832609I0J35814D01*
G01X4688171Y8832609D01*
G01X4688171Y8864016D01*
G01X4688185Y8865017D01*
G03X4687528Y8871842I-35814J0D01*
G01X4687528Y8871842D01*
G01X4686330Y8878012D01*
G01X4686330Y8943642D01*
G03X4692330Y8968816I-49814J25174D01*
G03X4686330Y8993990I-55814J0D01*
G01X4686330Y9004215D01*
G01X4686336Y9004818D01*
G01X4686318Y9005930D01*
G03X4685333Y9014747I-49802J-1102D01*
G01X4682360Y9037183D01*
G01X4682360Y9078722D01*
G01X4682360Y9078722D01*
G03X4669337Y9110717I-45814J0D01*
G01X4669337Y9110717D01*
G01X4659426Y9120875D01*
G01X4659426Y9120875D01*
G03X4632003Y9134378I-32791J-31995D01*
G03X4627746Y9148813I-45474J-5567D01*
G03X4632014Y9163339I-41217J20003D01*
G03X4672322Y9208821I-5506J45482D01*
G03X4626508Y9254635I-45814J0D01*
G01X4624392Y9254586D01*
G03X4618898Y9261227I-37891J-25752D01*
G01X4618898Y9261227D01*
G01X4598832Y9281295D01*
G01X4598832Y9281295D01*
G03X4586262Y9290204I-32397J-32393D01*
G03X4586331Y9292824I-49746J2620D01*
G01X4586331Y9292824D01*
G01X4586331Y9426824D01*
G01X4586331Y9426824D01*
G03X4536516Y9476638I-49814J0D01*
G03X4523986Y9475037I0J-49814D01*
G03X4518819Y9481202I-37559J-26234D01*
G01X4518819Y9481202D01*
G01X4502264Y9497752D01*
G01X4502264Y9507918D01*
G03X4515222Y9505986I12958J42482D01*
G01X4515222Y9505986D01*
G01X4597400Y9505986D01*
G01X4597400Y9505986D01*
G03X4628805Y9518995I0J44414D01*
G01X4628805Y9518995D01*
G01X4677853Y9568042D01*
G01X4677853Y9568042D01*
G03X4690861Y9599447I-31405J31405D01*
G01X4690861Y9599447D01*
G01X4690861Y9679920D01*
G03X4694584Y9685472I-44414J33802D01*
G01X4694584Y9650147D01*
G01X4694584Y9650147D01*
G03X4730398Y9614333I35814J0D01*
G01X4730398Y9614333D01*
G01X4775399Y9614333D01*
G01X4775399Y9614333D01*
G03X4787893Y9616583I0J35814D01*
G03X4800401Y9614328I12507J33559D01*
G01X4800401Y9614328D01*
G01X4845402Y9614328D01*
G01X4845402Y9614328D01*
G03X4860938Y9617873I0J35814D01*
G02X4871202Y9618228I10264J-148206D01*
G01X4871202Y9618228D01*
G01X4871297Y9618229D01*
G01X4890338Y9618229D01*
G01X4890338Y9618229D01*
G03X4910687Y9623164I0J44414D01*
G03X4956925Y9654857I-4169J55658D01*
G01X4957083Y9654475D01*
G03X4959609Y9649394I33232J13352D01*
G03X4990323Y9632000I30714J18420D01*
G01X4991276Y9632013D01*
G01X5022715Y9632013D01*
G01X5022715Y9632013D01*
G03X5058529Y9667827I0J35814D01*
G01X5058529Y9667827D01*
G01X5058529Y9697700D01*
G01X5058532Y9698126D01*
G03X5057835Y9705156I-35814J0D01*
G03X5036887Y9731030I-35120J-7017D01*
G03X5055841Y9762627I-16860J31597D01*
G01X5055841Y9762627D01*
G01X5055841Y9765705D01*
G03X5057404Y9778822I-54251J13118D01*
G03X5057247Y9783008I-55814J0D01*
G03X5112198Y9834773I-717J55809D01*
G01X5126648Y9849221D01*
G01X5126648Y9849221D01*
G03X5139665Y9875553I-32393J32397D01*
G01X5149468Y9895160D01*
G03X5155339Y9914809I-29943J19649D01*
G01X5155339Y9914809D01*
G01X5155339Y9942810D01*
G01X5155339Y9942810D01*
G03X5153606Y9953816I-35814J0D01*
G03X5155339Y9964821I-34081J11006D01*
G01X5155339Y9964821D01*
G01X5155339Y9992822D01*
G01X5155339Y9992822D01*
G03X5153610Y10003815I-35814J0D01*
G03X5155339Y10014809I-34085J10993D01*
G01X5155339Y10014809D01*
G01X5155339Y10042809D01*
G01X5155339Y10042809D01*
G03X5148546Y10063796I-35814J0D01*
G01X5146091Y10068706D01*
G03X5149835Y10088804I-52070J20098D01*
G03X5142362Y10116702I-55814J0D01*
G01X5342310Y10116916D01*
G03X5345661Y10116759I3352J35657D01*
G01X5345664Y10116759D01*
G02X5509827Y9955292I-0J-164186D01*
G01X5509827Y9955292D01*
G03X5509725Y9952591I35712J-2700D01*
G01X5509725Y9952591D01*
G01X5509725Y9804527D01*
G01X5509725Y9804527D01*
G01X5509811Y9802041D01*
G01X5509811Y9794545D01*
G01X5378740Y9794545D01*
G01X5378740Y9794545D01*
G03X5342926Y9758731I0J-35814D01*
G01X5342926Y9758731D01*
G01X5342926Y9614397D01*
G01X5182786Y9614397D01*
G01X5182786Y9614397D01*
G03X5146972Y9578583I0J-35814D01*
G01X5146972Y9578583D01*
G01X5146972Y9559014D01*
G01X5126846Y9579141D01*
G01X5126846Y9579141D01*
G03X5101521Y9589630I-25324J-25324D01*
G01X5101521Y9589630D01*
G01X5091338Y9589630D01*
G01X5089017Y9589679D01*
G01X5086696Y9589630D01*
G01X5048843Y9589630D01*
G01X5046523Y9589679D01*
G01X5044202Y9589630D01*
G01X5006349Y9589630D01*
G01X5004029Y9589679D01*
G01X5001708Y9589630D01*
G01X4963855Y9589630D01*
G01X4961534Y9589679D01*
G01X4959214Y9589630D01*
G01X4921335Y9589630D01*
G01X4919015Y9589679D01*
G01X4916694Y9589630D01*
G01X4764019Y9589630D01*
G01X4764019Y9589630D01*
G03X4738695Y9579141I0J-35814D01*
G01X4738695Y9579141D01*
G01X4718000Y9558446D01*
G03X4706905Y9547351I33527J-44622D01*
G01X4701197Y9541643D01*
G01X4701197Y9541643D01*
G03X4690707Y9516318I25324J-25324D01*
G01X4690707Y9516318D01*
G01X4690707Y9488818D01*
G01X4690707Y9488818D01*
G01X4690707Y9478818D01*
G01X4690707Y9478818D01*
G01X4690707Y9086319D01*
G01X4690707Y9086319D01*
G03X4701197Y9060995I35814J0D01*
G01X4701197Y9060995D01*
G01X4708697Y9053494D01*
G01X4708697Y9053494D01*
G03X4734022Y9043005I25324J25324D01*
G01X4734022Y9043005D01*
G01X5074021Y9043005D01*
G01X5074021Y9043005D01*
G03X5099345Y9053494I0J35814D01*
G01X5099345Y9053494D01*
G01X5106846Y9060995D01*
G01X5106846Y9060995D01*
G03X5117335Y9086319I-25324J25324D01*
G01X5117335Y9086319D01*
G01X5117335Y9146483D01*
G01X5126356Y9155504D01*
G01X5146972Y9155504D01*
G01X5146972Y9148736D01*
G01X5146972Y9148736D01*
G03X5148402Y9138717I35814J0D01*
G03X5146972Y9128698I34384J-10019D01*
G01X5146972Y9128698D01*
G01X5146972Y9098698D01*
G01X5146972Y9098698D01*
G03X5182786Y9062884I35814J0D01*
G01X5182786Y9062884D01*
G01X5342926Y9062884D01*
G01X5342926Y8918613D01*
G01X5342926Y8918613D01*
G01X5342926Y8918496D01*
G01X5342926Y8918496D01*
G03X5378740Y8882682I35814J0D01*
G03X5381630Y8882799I0J35814D01*
G01X5509847Y8882799D01*
G01X5509847Y8716604D01*
G01X5509847Y8716604D01*
G01X5509849Y8716217D01*
G01X5509849Y8716217D01*
G02X5347764Y8552430I-164185J384D01*
G37*
%LPC*%
G36*
G01X4810658Y8724628D02*
G03X4866472Y8668814I55814J0D01*
G03X4920619Y8711086I0J55814D01*
G03X4966472Y8687095I45854J31822D01*
G03X5022286Y8742909I0J55814D01*
G03X5015104Y8770298I-55814J0D01*
G01X5015104Y8770298D01*
G03X5027286Y8797209I-23632J26911D01*
G01X5027286Y8797209D01*
G01X5027286Y8897209D01*
G01X5027286Y8897209D01*
G03X4991472Y8933023I-35814J0D01*
G01X4991472Y8933023D01*
G01X4941472Y8933023D01*
G01X4941472Y8933023D01*
G03X4916472Y8922853I0J-35814D01*
G03X4891472Y8933023I-25000J-25645D01*
G01X4891472Y8933023D01*
G01X4841472Y8933023D01*
G01X4841472Y8933023D01*
G03X4816472Y8922853I0J-35814D01*
G03X4791473Y8933023I-25000J-25645D01*
G01X4791473Y8933023D01*
G01X4741473Y8933023D01*
G01X4741473Y8933023D01*
G03X4705659Y8897209I0J-35814D01*
G01X4705659Y8897209D01*
G01X4705659Y8797209D01*
G01X4705659Y8797209D01*
G03X4741473Y8761395I35814J0D01*
G01X4741473Y8761395D01*
G01X4791473Y8761395D01*
G01X4791473Y8761395D01*
G03X4816472Y8771564I0J35814D01*
G03X4822058Y8767113I25000J25645D01*
G01X4822058Y8758430D01*
G03X4810658Y8724628I44414J-33802D01*
G37*
%LPD*%
G36*
G01X4738230Y9088979D02*
G01X4736681Y9090528D01*
G01X4736681Y9484609D01*
G01X4760729Y9508658D01*
G01X5102312Y9508658D01*
G01X5134337Y9476632D01*
G01X5134337Y9476632D01*
G03X5141521Y9473656I7184J7184D01*
G01X5141521Y9473656D01*
G01X5157082Y9473656D01*
G03X5174929Y9463654I25704J24939D01*
G01X5149715Y9459305D01*
G01X5077734Y9459305D01*
G01X5077734Y9459305D01*
G03X5048758Y9448978I0J-45814D01*
G01X5016520Y9448978D01*
G01X5016520Y9448978D01*
G03X5009336Y9446002I0J-10160D01*
G01X5009336Y9446002D01*
G01X4983787Y9420453D01*
G03X4950983Y9369603I23010J-50850D01*
G03X4959730Y9339605I55814J0D01*
G03X4950983Y9309608I47068J-29997D01*
G03X4969340Y9268229I55814J0D01*
G01X4969340Y9268229D01*
G03X4971836Y9264133I9679J3088D01*
G01X4971836Y9264133D01*
G01X5009336Y9226633D01*
G01X5009336Y9226633D01*
G03X5016520Y9223657I7184J7184D01*
G01X5016520Y9223657D01*
G01X5060442Y9223657D01*
G03X5082819Y9217820I22378J39977D01*
G01X5082819Y9217820D01*
G01X5149791Y9217820D01*
G01X5174717Y9213629D01*
G03X5155119Y9201478I8070J-34893D01*
G01X5111521Y9201478D01*
G01X5111521Y9201478D01*
G03X5104337Y9198502I0J-10160D01*
G01X5104337Y9198502D01*
G01X5074337Y9168502D01*
G01X5074337Y9168502D01*
G03X5071361Y9161318I7184J-7184D01*
G01X5071361Y9161318D01*
G01X5071361Y9090528D01*
G01X5069812Y9088979D01*
G01X4738230Y9088979D01*
G37*
G36*
G01X4736681Y9489084D02*
G01X4736681Y9512110D01*
G01X4767457Y9542886D01*
G03X4796516Y9528006I29059J20934D01*
G01X4796516Y9528006D01*
G01X4876516Y9528006D01*
G01X4876516Y9528006D01*
G03X4906114Y9543656I0J35814D01*
G01X5097313Y9543656D01*
G01X5147315Y9493655D01*
G01X5147360Y9493338D01*
G01X4736681Y9489084D01*
G37*
G54D8191*
G01X1840713Y8548790D02*
G01X1680669Y8548624D01*
G01X1676987Y8548665D01*
G01X1676987Y8548665D01*
G01X1676766Y8548667D01*
G01X1676749Y8548667D01*
G01X1676588Y8548667D01*
G02X1512402Y8712852I0J164186D01*
G01X1512402Y8712855D01*
G01X1512341Y8714944D01*
G01X1512341Y8839479D01*
G01X1982132Y8839479D01*
G03X1985965Y8839274I3833J35608D01*
G01X1985965Y8839274D01*
G01X2085909Y8839274D01*
G01X2087954Y8839215D01*
G03X2123768Y8875029I0J35814D01*
G01X2123768Y8875029D01*
G01X2123768Y9051820D01*
G01X2274226Y9051820D01*
G01X2274226Y9051820D01*
G03X2310040Y9087634I0J35814D01*
G01X2310040Y9087634D01*
G01X2310040Y9112635D01*
G01X2310040Y9112635D01*
G03X2307790Y9125128I-35814J0D01*
G03X2310040Y9137621I-33564J12493D01*
G01X2310040Y9137621D01*
G01X2310040Y9138003D01*
G01X2320712Y9138003D01*
G01X2320712Y8978819D01*
G01X2320712Y8978819D01*
G03X2331201Y8953494I35814J0D01*
G01X2331201Y8953494D01*
G01X2341201Y8943494D01*
G01X2341201Y8943494D01*
G03X2366526Y8933005I25324J25324D01*
G01X2366526Y8933005D01*
G01X2506525Y8933005D01*
G01X2506525Y8933005D01*
G03X2531850Y8943494I0J35814D01*
G01X2531850Y8943494D01*
G01X2541850Y8953494D01*
G01X2541850Y8953494D01*
G03X2552339Y8978819I-25324J25324D01*
G01X2552339Y8978819D01*
G01X2552339Y9013005D01*
G01X2676525Y9013005D01*
G01X2676525Y9013005D01*
G03X2685712Y9014203I0J35814D01*
G01X2685712Y8877965D01*
G03X2670711Y8848819I20813J-29146D01*
G01X2670711Y8848819D01*
G01X2670711Y8759636D01*
G01X2641515Y8759636D01*
G01X2641515Y8759636D01*
G03X2605701Y8723822I0J-35814D01*
G01X2605701Y8723822D01*
G01X2605701Y8653822D01*
G01X2605701Y8653822D01*
G03X2641515Y8618008I35814J0D01*
G01X2641515Y8618008D01*
G01X2670711Y8618008D01*
G01X2670711Y8549652D01*
G01X2407341Y8549378D01*
G01X2407341Y8796320D01*
G01X2407341Y8796320D01*
G03X2371527Y8832134I-35814J0D01*
G01X2371527Y8832134D01*
G01X1876527Y8832134D01*
G01X1876527Y8832134D01*
G03X1840713Y8796320I0J-35814D01*
G01X1840713Y8796320D01*
G01X1840713Y8548790D01*
G01X2311201Y9534142D02*
G01X2309627Y9532568D01*
G03X2309989Y9537645I-35452J5077D01*
G01X2309989Y9537645D01*
G01X2309989Y9562647D01*
G01X2309989Y9562647D01*
G03X2274175Y9598461I-35814J0D01*
G01X2274175Y9598461D01*
G01X2123514Y9598461D01*
G01X2123514Y9772385D01*
G03X2123633Y9775307I-35695J2922D01*
G03X2087819Y9811121I-35814J0D01*
G01X2087819Y9811121D01*
G01X1986219Y9811121D01*
G01X1986219Y9811121D01*
G01X1985013Y9811101D01*
G01X1512402Y9811101D01*
G01X1512402Y9948814D01*
G01X1512402Y9948817D01*
G02X1673780Y10112978I164186J-0D01*
G01X3197691Y10114614D01*
G01X3164220Y10081143D01*
G01X3164220Y10081143D01*
G03X3152821Y10062199I32395J-32395D01*
G03X3136519Y10064633I-16302J-53380D01*
G03X3081528Y10018368I0J-55814D01*
G03X3026537Y10064633I-54991J-9549D01*
G03X2970723Y10008819I0J-55814D01*
G03X3026537Y9953005I55814J0D01*
G03X3081528Y9999270I0J55814D01*
G03X3136519Y9953005I54991J9549D01*
G03X3150801Y9954864I0J55814D01*
G01X3150801Y9945294D01*
G01X3140047Y9934539D01*
G01X2696489Y9934539D01*
G01X2696489Y9934539D01*
G03X2664094Y9921121I0J-45814D01*
G01X2664094Y9921121D01*
G01X2594244Y9851271D01*
G01X2594244Y9851271D01*
G03X2580825Y9818875I32395J-32395D01*
G01X2580825Y9818875D01*
G01X2580825Y9699255D01*
G01X2579500Y9696604D01*
G01X2576513Y9696604D01*
G01X2576513Y9696604D01*
G03X2540699Y9660790I0J-35814D01*
G01X2540699Y9660790D01*
G01X2540699Y9594632D01*
G01X2526525Y9594632D01*
G01X2526525Y9594632D01*
G01X2386526Y9594632D01*
G01X2386526Y9594632D01*
G03X2361201Y9584142I0J-35814D01*
G01X2361201Y9584142D01*
G01X2331201Y9554142D01*
G01X2331201Y9554142D01*
G01X2311201Y9534142D01*
G01X2311201Y9534142D01*
G01X2800721Y10008819D02*
G03X2856535Y9953005I55814J0D01*
G03X2912349Y10008819I0J55814D01*
G03X2856535Y10064633I-55814J0D01*
G03X2800721Y10008819I0J-55814D01*
G01X2370734Y8978979D02*
G01X2366686Y8983027D01*
G01X2366686Y9158818D01*
G01X2366686Y9158818D01*
G03X2363710Y9166003I-10160J0D01*
G01X2363710Y9166003D01*
G01X2348711Y9181001D01*
G01X2348711Y9181001D01*
G03X2341527Y9183977I-7184J-7184D01*
G01X2341527Y9183977D01*
G01X2302977Y9183977D01*
G03X2274226Y9198436I-28751J-21355D01*
G01X2274226Y9198436D01*
G01X2109186Y9198436D01*
G01X2109186Y9201832D01*
G01X2273535Y9201832D01*
G01X2274209Y9201826D01*
G03X2278856Y9202128I0J35814D01*
G01X2278856Y9202128D01*
G01X2303533Y9205358D01*
G01X2401593Y9205358D01*
G01X2401593Y9205358D01*
G03X2433125Y9218328I0J44814D01*
G01X2433125Y9218328D01*
G01X2454298Y9239293D01*
G01X2454631Y9239623D01*
G01X2458595Y9243548D01*
G03X2484577Y9237132I25982J49398D01*
G03X2540391Y9292946I0J55814D01*
G03X2528053Y9327947I-55814J0D01*
G03X2540391Y9362948I-43475J35001D01*
G03X2484577Y9418762I-55814J0D01*
G03X2458529Y9412311I0J-55814D01*
G01X2438666Y9431921D01*
G01X2438666Y9431921D01*
G03X2407181Y9444844I-31485J-31891D01*
G01X2407181Y9444844D01*
G01X2303586Y9444844D01*
G01X2278940Y9448141D01*
G01X2278940Y9448141D01*
G03X2274192Y9448457I-4749J-35498D01*
G01X2273394Y9448448D01*
G01X2116686Y9448448D01*
G01X2116686Y9451844D01*
G01X2274175Y9451844D01*
G01X2274175Y9451844D01*
G03X2304533Y9468658I0J35814D01*
G01X2306526Y9468658D01*
G01X2306526Y9468658D01*
G03X2313710Y9471634I0J10160D01*
G01X2313710Y9471634D01*
G01X2333710Y9491633D01*
G01X2333710Y9491633D01*
G01X2360734Y9518658D01*
G01X2542816Y9518658D01*
G03X2576513Y9494976I33696J12132D01*
G01X2576513Y9494976D01*
G01X2579510Y9494976D01*
G01X2580825Y9492345D01*
G01X2580825Y9488929D01*
G01X2580825Y9488929D01*
G03X2594179Y9456599I45814J0D01*
G01X2594179Y9456599D01*
G01X2657425Y9393099D01*
G01X2657425Y9393099D01*
G03X2667771Y9385306I32460J32330D01*
G03X2665702Y9373311I33745J-11995D01*
G01X2665702Y9373311D01*
G01X2665702Y9319311D01*
G01X2665702Y9319311D01*
G03X2676365Y9293814I35814J0D01*
G01X2676365Y9218818D01*
G01X2676365Y9218818D01*
G03X2679341Y9211634I10160J0D01*
G01X2679341Y9211634D01*
G01X2699341Y9191634D01*
G01X2699341Y9191634D01*
G03X2706525Y9188658I7184J7184D01*
G01X2706525Y9188658D01*
G01X2794040Y9188658D01*
G03X2800777Y9168816I62495J10155D01*
G03X2793220Y9138818I55757J-29997D01*
G03X2793359Y9134632I63315J0D01*
G01X2726527Y9134632D01*
G01X2726527Y9134632D01*
G03X2707214Y9128978I0J-35814D01*
G01X2706525Y9128978D01*
G01X2706525Y9128978D01*
G03X2699341Y9126003I0J-10160D01*
G01X2699341Y9126003D01*
G01X2679341Y9106003D01*
G01X2679341Y9106003D01*
G03X2676365Y9098818I7184J-7184D01*
G01X2676365Y9098818D01*
G01X2676365Y9065046D01*
G01X2674023Y9065123D01*
G01X2674023Y9065123D01*
G01X2539022Y9065123D01*
G01X2539022Y9065123D01*
G03X2503208Y9029309I0J-35814D01*
G01X2503208Y9029309D01*
G01X2503208Y8979870D01*
G01X2502317Y8978979D01*
G01X2370734Y8978979D01*
G01X2361054Y9518978D02*
G01X2390734Y9548658D01*
G01X2526525Y9548658D01*
G01X2526525Y9548658D01*
G01X2540699Y9548658D01*
G01X2540699Y9530790D01*
G01X2540699Y9530790D01*
G03X2542703Y9518978I35814J0D01*
G01X2361054Y9518978D01*
G01X3177799Y9460077D02*
G03X3161845Y9473542I-30073J-19449D01*
G01X3161845Y9473542D01*
G01X3156804Y9475705D01*
G03X3140862Y9482755I-30267J-46894D01*
G01X3137028Y9484782D01*
G01X3108013Y9513799D01*
G03X3112300Y9530790I-31527J16991D01*
G01X3112300Y9530790D01*
G01X3112300Y9660790D01*
G01X3112300Y9660790D01*
G03X3076486Y9696604I-35814J0D01*
G01X3076486Y9696604D01*
G01X2976486Y9696604D01*
G01X2976486Y9696604D01*
G03X2940672Y9660790I0J-35814D01*
G01X2940672Y9660790D01*
G01X2940672Y9530790D01*
G01X2940672Y9530790D01*
G03X2976486Y9494976I35814J0D01*
G01X2976486Y9494976D01*
G01X2997257Y9494976D01*
G01X3016036Y9476196D01*
G03X3013353Y9475769I4283J-35557D01*
G01X2987241Y9471243D01*
G01X2722339Y9471243D01*
G01X2722339Y9478818D01*
G01X2722339Y9478818D01*
G03X2711849Y9504142I-35814J0D01*
G01X2711849Y9504142D01*
G01X2705806Y9510186D01*
G03X2712326Y9530790I-29293J20604D01*
G01X2712326Y9530790D01*
G01X2712326Y9660790D01*
G01X2712326Y9660790D01*
G03X2676512Y9696604I-35814J0D01*
G01X2676512Y9696604D01*
G01X2673780Y9696604D01*
G01X2672453Y9699256D01*
G01X2672453Y9726420D01*
G03X2736520Y9699970I64066J64365D01*
G03X2827335Y9790786I0J90815D01*
G03X2810886Y9842911I-90815J0D01*
G01X3042138Y9842911D01*
G03X3025689Y9790786I74366J-52126D01*
G03X3116504Y9699970I90815J0D01*
G03X3207319Y9790786I0J90815D01*
G03X3184686Y9850774I-90815J0D01*
G03X3191419Y9856330I-25663J37952D01*
G01X3191419Y9856330D01*
G01X3229011Y9893922D01*
G01X3229011Y9893922D01*
G03X3242429Y9926317I-32395J32395D01*
G01X3242429Y9926317D01*
G01X3242429Y10029771D01*
G01X3275539Y10062881D01*
G01X3420806Y10062881D01*
G01X3420806Y9974674D01*
G01X3346478Y9974674D01*
G01X3346478Y9974674D01*
G03X3314085Y9961258I0J-45814D01*
G01X3314085Y9961258D01*
G01X3284108Y9931286D01*
G01X3284108Y9931286D01*
G03X3270687Y9898888I32393J-32398D01*
G01X3270687Y9898888D01*
G01X3270687Y9705060D01*
G01X3261981Y9696604D01*
G01X3176511Y9696604D01*
G01X3176511Y9696604D01*
G03X3140697Y9660790I0J-35814D01*
G01X3140697Y9660790D01*
G01X3140697Y9530790D01*
G01X3140697Y9530790D01*
G03X3176511Y9494976I35814J0D01*
G01X3176511Y9494976D01*
G01X3179456Y9494976D01*
G01X3180771Y9492345D01*
G01X3180771Y9474325D01*
G01X3177799Y9460077D01*
G01X2731686Y8568980D02*
G01X2731686Y9088658D01*
G01X2817899Y9088658D01*
G03X2831366Y9080721I38636J50160D01*
G01X2831366Y8983817D01*
G01X2831366Y8983817D01*
G03X2834342Y8976633I10160J0D01*
G01X2834342Y8976633D01*
G01X2844342Y8966633D01*
G01X2844342Y8966633D01*
G03X2851526Y8963657I7184J7184D01*
G01X2851526Y8963657D01*
G01X2861366Y8963657D01*
G01X2861366Y8913978D01*
G01X2851526Y8913978D01*
G01X2851526Y8913978D01*
G03X2844342Y8911002I0J-10160D01*
G01X2844342Y8911002D01*
G01X2834342Y8901002D01*
G01X2834342Y8901002D01*
G03X2831366Y8893818I7184J-7184D01*
G01X2831366Y8893818D01*
G01X2831366Y8568980D01*
G01X2731686Y8568980D01*
G01X3217551Y8854638D02*
G01X3190183Y8861054D01*
G03X3156524Y8884633I-33659J-12235D01*
G01X3156524Y8884633D01*
G01X3004105Y8884633D01*
G03X3019216Y8895583I-27708J54135D01*
G01X3019216Y8895583D01*
G01X3021656Y8898002D01*
G01X3101534Y8898002D01*
G01X3101534Y8898002D01*
G03X3137348Y8933816I0J35814D01*
G01X3137348Y8933816D01*
G01X3137348Y9003816D01*
G01X3137348Y9003816D01*
G03X3101534Y9039630I-35814J0D01*
G01X3101534Y9039630D01*
G01X3082336Y9039630D01*
G01X3082336Y9090412D01*
G01X3082336Y9090412D01*
G03X3046522Y9126226I-35814J0D01*
G01X3046522Y9126226D01*
G01X2966522Y9126226D01*
G01X2966522Y9126226D01*
G03X2930708Y9090412I0J-35814D01*
G01X2930708Y9090412D01*
G01X2930708Y9037212D01*
G01X2930708Y9037212D01*
G03X2931712Y9028793I35814J0D01*
G01X2937698Y9001633D01*
G01X2901516Y9001633D01*
G01X2901516Y9001633D01*
G03X2890927Y9000032I0J-35814D01*
G03X2877340Y9007959I-24402J-26214D01*
G01X2877340Y9093817D01*
G01X2877340Y9093817D01*
G03X2866850Y9119142I-35814J0D01*
G01X2866850Y9119142D01*
G01X2861849Y9124143D01*
G01X2861849Y9124143D01*
G03X2852339Y9130952I-25324J-25324D01*
G01X2852339Y9188818D01*
G01X2852339Y9188818D01*
G03X2841849Y9214143I-35814J0D01*
G01X2841849Y9214143D01*
G01X2840397Y9215594D01*
G03X2842331Y9227204I-33880J11610D01*
G01X2842331Y9227204D01*
G01X2842331Y9280404D01*
G01X2842331Y9280404D01*
G03X2809419Y9316101I-35814J0D01*
G01X2809419Y9316101D01*
G03X2797221Y9340239I-42826J-6490D01*
G01X2797221Y9340239D01*
G01X2797183Y9340277D01*
G01X2793896Y9349131D01*
G01X2793896Y9373311D01*
G01X2793896Y9373311D01*
G03X2793337Y9379615I-35814J0D01*
G01X2984505Y9379615D01*
G01X2984505Y9362016D01*
G01X2984505Y9362016D01*
G03X3020319Y9326202I35814J0D01*
G01X3020319Y9326202D01*
G01X3023494Y9326202D01*
G03X3049801Y9317896I26307J37508D01*
G01X3049801Y9317896D01*
G01X3069099Y9317896D01*
G01X3038837Y9316218D01*
G01X2966522Y9316218D01*
G01X2966522Y9316218D01*
G03X2930708Y9280404I0J-35814D01*
G01X2930708Y9280404D01*
G01X2930708Y9227204D01*
G01X2930708Y9227204D01*
G03X2966522Y9191390I35814J0D01*
G01X2966522Y9191390D01*
G01X3046522Y9191390D01*
G01X3046522Y9191390D01*
G01X3048146Y9191427D01*
G01X3052451Y9191514D01*
G01X3082662Y9190544D01*
G01X3084533Y9190495D01*
G01X3084533Y9190495D01*
G01X3138533Y9190495D01*
G01X3138533Y9190495D01*
G01X3140428Y9190545D01*
G01X3170374Y9191506D01*
G01X3178725Y9148388D01*
G01X3178725Y9147556D01*
G01X3178725Y9147556D01*
G03X3186638Y9117558I60814J0D01*
G01X3186638Y9109311D01*
G01X3186638Y9109311D01*
G03X3222452Y9073497I35814J0D01*
G01X3222452Y9073497D01*
G01X3274404Y9073497D01*
G01X3274885Y9059324D01*
G03X3238500Y9072814I-36385J-42324D01*
G03X3182686Y9017000I0J-55814D01*
G03X3235715Y8961256I55814J0D01*
G01X3235715Y8933816D01*
G01X3235715Y8933816D01*
G03X3271529Y8898002I35814J0D01*
G01X3271529Y8898002D01*
G01X3276517Y8898002D01*
G01X3276517Y8854638D01*
G01X3217551Y8854638D01*
G01X3533358Y8904490D02*
G01X3524016Y8854548D01*
G01X3398145Y8854548D01*
G01X3398145Y9012253D01*
G03X3403600Y9011986I5455J55547D01*
G03X3459414Y9067800I0J55814D01*
G03X3403600Y9123614I-55814J0D01*
G01X3401395Y9123570D01*
G01X3401395Y9155333D01*
G01X3421913Y9215210D01*
G01X3421913Y9215210D01*
G03X3423846Y9226819I-33880J11609D01*
G01X3423839Y9227558D01*
G01X3423839Y9280817D01*
G01X3423839Y9280817D01*
G03X3388025Y9316631I-35814J0D01*
G01X3388025Y9316631D01*
G01X3309015Y9316631D01*
G01X3309015Y9316631D01*
G03X3294024Y9313343I0J-35814D01*
G03X3279033Y9316631I-14991J-32526D01*
G01X3279033Y9316631D01*
G01X3200024Y9316631D01*
G01X3200014Y9316631D01*
G01X3199015Y9316617D01*
G01X3199015Y9316617D01*
G01X3184384Y9316209D01*
G01X3153952Y9317896D01*
G01X3502966Y9317896D01*
G01X3502966Y9299799D01*
G01X3502966Y9299799D01*
G03X3504695Y9288805I35814J0D01*
G03X3502966Y9277812I34085J-10993D01*
G01X3502966Y9277812D01*
G01X3502966Y9249811D01*
G01X3502966Y9249811D01*
G03X3504699Y9238806I35814J0D01*
G03X3502966Y9227800I34081J-11006D01*
G01X3502966Y9227800D01*
G01X3502966Y9199799D01*
G01X3502966Y9199799D01*
G03X3504695Y9188806I35814J0D01*
G03X3502966Y9177812I34085J-10993D01*
G01X3502966Y9177812D01*
G01X3502966Y9149812D01*
G01X3502966Y9149812D01*
G03X3504699Y9138806I35814J0D01*
G03X3502966Y9127800I34081J-11006D01*
G01X3502966Y9127800D01*
G01X3502966Y9099799D01*
G01X3502966Y9099799D01*
G03X3538780Y9063985I35814J0D01*
G01X3538780Y9063985D01*
G01X3590815Y9063985D01*
G01X3590815Y9045956D01*
G01X3590815Y9045956D01*
G03X3591707Y9036472I50814J0D01*
G01X3591707Y9011083D01*
G01X3591707Y9011083D01*
G03X3627521Y8975269I35814J0D01*
G01X3627521Y8975269D01*
G01X3635861Y8975269D01*
G03X3635720Y8971305I55673J-3964D01*
G03X3648398Y8935887I55814J0D01*
G03X3639031Y8937134I-9367J-34567D01*
G01X3639031Y8937134D01*
G01X3569031Y8937134D01*
G01X3569031Y8937134D01*
G03X3533358Y8904490I0J-35814D01*
G01X3639046Y8550656D02*
G01X3192338Y8550193D01*
G01X3192338Y8703010D01*
G01X3280789Y8703010D01*
G01X3281528Y8703003D01*
G03X3294798Y8705552I0J35814D01*
G01X3294798Y8705552D01*
G01X3327170Y8718466D01*
G03X3359531Y8697994I32361J15342D01*
G01X3359531Y8697994D01*
G01X3413531Y8697994D01*
G01X3413531Y8697994D01*
G03X3449334Y8732920I0J35814D01*
G01X3558819Y8732920D01*
G01X3558819Y8732920D01*
G03X3588230Y8740504I0J60814D01*
G01X3639031Y8740504D01*
G01X3639031Y8740504D01*
G03X3674845Y8776318I0J35814D01*
G01X3674845Y8776318D01*
G01X3674845Y8901320D01*
G01X3674845Y8901320D01*
G03X3669598Y8919983I-35814J0D01*
G03X3691534Y8915491I21936J51322D01*
G03X3697818Y8915846I0J55814D01*
G01X3694893Y8878688D01*
G03X3694703Y8875009I35625J-3679D01*
G01X3694703Y8875009D01*
G01X3694703Y8842609D01*
G01X3694703Y8842609D01*
G03X3730517Y8806795I35814J0D01*
G01X3730517Y8806795D01*
G01X3767360Y8806795D01*
G01X3767360Y8806795D01*
G01X3769117Y8806838D01*
G01X3812769Y8807947D01*
G01X3891520Y8807947D01*
G01X3905772Y8807947D01*
G01X3905772Y8797539D01*
G01X3900737Y8778758D01*
G01X3899022Y8778427D01*
G01X3875290Y8782997D01*
G01X3875290Y8782997D01*
G03X3868519Y8783643I-6771J-35168D01*
G01X3867666Y8783632D01*
G01X3815372Y8783632D01*
G01X3814519Y8783643D01*
G03X3803769Y8781991I0J-35814D01*
G01X3803769Y8781991D01*
G01X3761956Y8768834D01*
G03X3727713Y8753379I6673J-60447D01*
G01X3706481Y8737134D01*
G01X3664027Y8737134D01*
G01X3664027Y8737134D01*
G03X3628213Y8701320I0J-35814D01*
G01X3628213Y8701320D01*
G01X3628213Y8576319D01*
G01X3628213Y8576319D01*
G03X3639046Y8550656I35814J0D01*
G01X3278524Y9409524D02*
G01X3278533Y9410327D01*
G01X3278533Y9410327D01*
G01X3278533Y9439890D01*
G01X3278541Y9440629D01*
G03X3277813Y9447812I-35814J0D01*
G01X3277813Y9447812D01*
G01X3272399Y9474257D01*
G01X3272399Y9492345D01*
G01X3273714Y9494976D01*
G01X3276511Y9494976D01*
G01X3276511Y9494976D01*
G03X3312325Y9530790I0J35814D01*
G01X3312325Y9530790D01*
G01X3312325Y9609050D01*
G01X3333781Y9638270D01*
G01X3348895Y9653383D01*
G01X3348895Y9653383D01*
G03X3362315Y9685779I-32394J32396D01*
G01X3362315Y9685779D01*
G01X3362315Y9879909D01*
G01X3365452Y9883046D01*
G01X3427578Y9883046D01*
G01X3430715Y9879910D01*
G01X3430715Y9788906D01*
G01X3430715Y9788906D01*
G03X3444061Y9756583I45814J0D01*
G01X3444061Y9756583D01*
G01X3494489Y9705931D01*
G03X3455537Y9664304I15562J-53600D01*
G01X3454016Y9661095D01*
G03X3440712Y9628815I32510J-32280D01*
G01X3440712Y9628815D01*
G01X3440712Y9594629D01*
G01X3426524Y9594629D01*
G01X3426524Y9594629D01*
G03X3394128Y9581210I0J-45814D01*
G01X3394128Y9581210D01*
G01X3324128Y9511211D01*
G01X3324128Y9511211D01*
G03X3310710Y9478815I32395J-32395D01*
G01X3310710Y9478815D01*
G01X3310710Y9433710D01*
G01X3310710Y9433710D01*
G02X3305979Y9409524I-64186J0D01*
G01X3278524Y9409524D01*
G01X3741199Y9938779D02*
G01X3728880Y9951098D01*
G01X3728880Y9951098D01*
G03X3696485Y9964517I-32395J-32395D01*
G01X3696485Y9964517D01*
G01X3535628Y9964517D01*
G01X3512434Y9987713D01*
G01X3512434Y10088880D01*
G01X3512434Y10088880D01*
G03X3504298Y10114943I-45814J0D01*
G01X3923228Y10115393D01*
G03X3920708Y10098811I53294J-16582D01*
G03X3922987Y10083027I55814J0D01*
G03X3892027Y10089637I-30960J-69204D01*
G03X3816213Y10013823I0J-75814D01*
G03X3824357Y9979640I75814J0D01*
G01X3777013Y9979640D01*
G01X3777013Y9979640D01*
G03X3741199Y9943826I0J-35814D01*
G01X3741199Y9943826D01*
G01X3741199Y9938779D01*
G01X3594302Y9779935D02*
G01X3589062Y9777316D01*
G01X3552715Y9777316D01*
G01X3522342Y9807823D01*
G01X3522342Y9872889D01*
G01X3677508Y9872889D01*
G01X3695629Y9854768D01*
G01X3695629Y9802367D01*
G01X3677534Y9802367D01*
G01X3677534Y9802367D01*
G03X3666528Y9800634I0J-35814D01*
G03X3655522Y9802367I-11006J-34081D01*
G01X3655522Y9802367D01*
G01X3627521Y9802367D01*
G01X3627521Y9802367D01*
G03X3594302Y9779935I0J-35814D01*
G01X4077533Y9116897D02*
G03X4066527Y9115164I0J-35814D01*
G03X4055521Y9116897I-11006J-34081D01*
G01X4055521Y9116897D01*
G01X4027521Y9116897D01*
G01X4027521Y9116897D01*
G03X4016527Y9115168I0J-35814D01*
G03X4005534Y9116897I-10993J-34085D01*
G01X4005534Y9116897D01*
G01X3977533Y9116897D01*
G01X3977533Y9116897D01*
G03X3966528Y9115164I0J-35814D01*
G03X3955522Y9116897I-11006J-34081D01*
G01X3955522Y9116897D01*
G01X3927521Y9116897D01*
G01X3927521Y9116897D01*
G03X3916528Y9115168I0J-35814D01*
G03X3905534Y9116897I-10993J-34085D01*
G01X3905534Y9116897D01*
G01X3877534Y9116897D01*
G01X3877534Y9116897D01*
G03X3866528Y9115164I0J-35814D01*
G03X3855522Y9116897I-11006J-34081D01*
G01X3855522Y9116897D01*
G01X3840601Y9116897D01*
G03X3827410Y9139806I-49115J-13029D01*
G01X3827410Y9139806D01*
G01X3814958Y9152252D01*
G01X3814958Y9152252D01*
G03X3779035Y9167128I-35924J-35938D01*
G01X3779035Y9167128D01*
G01X3741443Y9167128D01*
G01X3741443Y9167128D01*
G01X3718585Y9167128D01*
G01X3718585Y9167128D01*
G01X3692442Y9167128D01*
G01X3692442Y9176515D01*
G01X3692442Y9208767D01*
G01X3692442Y9208767D01*
G01X3692442Y9333189D01*
G03X3696487Y9333042I4045J55667D01*
G03X3751006Y9376903I0J55814D01*
G01X3753068Y9381256D01*
G03X3762365Y9408922I-36517J27666D01*
G01X3762365Y9408922D01*
G01X3762365Y9592981D01*
G01X4040854Y9592981D01*
G03X4040698Y9588805I55658J-4176D01*
G03X4096512Y9532991I55814J0D01*
G03X4134002Y9547456I0J55814D01*
G03X4138692Y9537573I52528J18869D01*
G03X4130716Y9508820I47838J-28753D01*
G03X4138774Y9479931I55814J0D01*
G03X4120708Y9438818I37748J-41113D01*
G03X4143513Y9393811I55814J0D01*
G03X4140698Y9376308I52999J-17503D01*
G03X4149986Y9345478I55814J0D01*
G03X4143212Y9318828I49041J-26650D01*
G03X4188461Y9264023I55814J0D01*
G01X4188461Y9259563D01*
G03X4159142Y9246250I3075J-45711D01*
G01X4159142Y9246250D01*
G01X4109099Y9196212D01*
G01X4109099Y9196212D01*
G03X4095679Y9163815I32394J-32397D01*
G01X4095679Y9163815D01*
G01X4095679Y9116897D01*
G01X4077533Y9116897D01*
G01X4077533Y9116897D01*
G01X4306789Y8551349D02*
G01X3759136Y8550781D01*
G03X3768918Y8568240I-25109J25538D01*
G01X3795592Y8637253D01*
G01X3802925Y8634925D01*
G03X3814521Y8632995I11596J33885D01*
G01X3814521Y8632995D01*
G01X3868522Y8632995D01*
G01X3868522Y8632995D01*
G03X3876199Y8633828I0J35814D01*
G01X3899022Y8638261D01*
G01X3921812Y8633834D01*
G03X3929530Y8632993I7718J34972D01*
G01X3929530Y8632993D01*
G01X3983530Y8632993D01*
G01X3983530Y8632993D01*
G03X4019344Y8668807I0J35814D01*
G01X4019344Y8668807D01*
G01X4019344Y8747816D01*
G01X4019344Y8747816D01*
G03X4018057Y8757332I-35814J0D01*
G01X4007400Y8797502D01*
G01X4007400Y8812947D01*
G01X4016527Y8812947D01*
G01X4016527Y8812947D01*
G03X4048923Y8826365I0J45814D01*
G01X4048923Y8826365D01*
G01X4050721Y8828163D01*
G01X4050721Y8798814D01*
G01X4050721Y8798814D01*
G03X4064141Y8766417I45814J0D01*
G01X4064141Y8766417D01*
G01X4112448Y8718116D01*
G01X4112448Y8694277D01*
G01X4106935Y8683251D01*
G03X4094137Y8655812I23016J-27439D01*
G01X4094137Y8655812D01*
G01X4094137Y8601812D01*
G01X4094137Y8601812D01*
G03X4129951Y8565998I35814J0D01*
G01X4129951Y8565998D01*
G01X4186517Y8565998D01*
G01X4186517Y8565998D01*
G03X4201516Y8569290I0J35814D01*
G03X4216514Y8565998I14999J32522D01*
G01X4216514Y8565998D01*
G01X4273080Y8565998D01*
G01X4273080Y8565998D01*
G03X4277622Y8566287I0J35814D01*
G03X4306789Y8551349I38904J40021D01*
G01X4077533Y9802367D02*
G03X4066527Y9800634I0J-35814D01*
G03X4055521Y9802367I-11006J-34081D01*
G01X4055521Y9802367D01*
G01X4027521Y9802367D01*
G01X4027521Y9802367D01*
G03X4016527Y9800638I0J-35814D01*
G03X4005534Y9802367I-10993J-34085D01*
G01X4005534Y9802367D01*
G01X3977533Y9802367D01*
G01X3977533Y9802367D01*
G03X3966528Y9800634I0J-35814D01*
G03X3955522Y9802367I-11006J-34081D01*
G01X3955522Y9802367D01*
G01X3927521Y9802367D01*
G01X3927521Y9802367D01*
G03X3916528Y9800638I0J-35814D01*
G03X3905534Y9802367I-10993J-34085D01*
G01X3905534Y9802367D01*
G01X3877534Y9802367D01*
G01X3877534Y9802367D01*
G03X3866528Y9800634I0J-35814D01*
G01X3864742Y9801160D01*
G03X3872827Y9823826I-27729J22666D01*
G01X3872827Y9823826D01*
G01X3872827Y9940481D01*
G03X3892027Y9938009I19200J73342D01*
G03X3938158Y9953659I0J75814D01*
G03X3943997Y9946503I38235J25239D01*
G01X3943997Y9946503D01*
G01X3999112Y9891385D01*
G01X3999112Y9891385D01*
G03X4031508Y9877966I32396J32395D01*
G01X4031508Y9877966D01*
G01X4078569Y9877966D01*
G01X4081203Y9876649D01*
G01X4081203Y9823826D01*
G01X4081203Y9823826D01*
G03X4088344Y9802367I35814J0D01*
G01X4077533Y9802367D01*
G01X4077533Y9802367D01*
G01X4283199Y9943826D02*
G01X4283199Y9843229D01*
G01X4212831Y9843229D01*
G01X4212831Y9943826D01*
G01X4212831Y9943826D01*
G03X4177017Y9979640I-35814J0D01*
G01X4177017Y9979640D01*
G01X4129699Y9979640D01*
G03X4137843Y10013823I-67670J34183D01*
G03X4062029Y10089637I-75814J0D01*
G03X4029897Y10082491I0J-75814D01*
G01X4029897Y10082491D01*
G03X4032336Y10098811I-53375J16320D01*
G03X4029781Y10115507I-55814J0D01*
G01X4851700Y10116390D01*
G01X4851700Y10113978D01*
G03X4845700Y10088804I49814J-25174D01*
G03X4853336Y10060625I55814J0D01*
G03X4884531Y10035636I34178J10701D01*
G03X4901514Y10032990I16983J53167D01*
G03X4918498Y10035636I0J55814D01*
G03X4926521Y10037245I-2983J35690D01*
G03X4937526Y10035512I11006J34081D01*
G01X4937526Y10035512D01*
G01X4965527Y10035512D01*
G01X4965527Y10035512D01*
G03X4976520Y10037241I0J35814D01*
G03X4984531Y10035636I10993J34085D01*
G03X5001514Y10032990I16983J53167D01*
G03X5018497Y10035636I0J55814D01*
G03X5026520Y10037245I-2983J35690D01*
G03X5033211Y10035773I11006J34081D01*
G01X5033211Y10014809D01*
G01X5033211Y10014809D01*
G03X5034940Y10003815I35814J0D01*
G03X5033211Y9992822I34085J-10993D01*
G01X5033211Y9992822D01*
G01X5033211Y9964821D01*
G01X5033211Y9964821D01*
G03X5034944Y9953816I35814J0D01*
G03X5033211Y9942810I34081J-11006D01*
G01X5033211Y9942810D01*
G01X5033211Y9921871D01*
G03X5026520Y9920399I4315J-35553D01*
G03X5015514Y9922132I-11006J-34081D01*
G01X5015514Y9922132D01*
G01X4987514Y9922132D01*
G01X4987514Y9922132D01*
G03X4976520Y9920403I0J-35814D01*
G03X4965527Y9922132I-10993J-34085D01*
G01X4965527Y9922132D01*
G01X4937526Y9922132D01*
G01X4937526Y9922132D01*
G03X4926521Y9920399I0J-35814D01*
G03X4919830Y9921871I-11006J-34081D01*
G01X4919830Y9942810D01*
G01X4919830Y9942810D01*
G03X4884016Y9978624I-35814J0D01*
G01X4884016Y9978624D01*
G01X4833516Y9978624D01*
G01X4833516Y9978624D01*
G03X4797702Y9942810I0J-35814D01*
G01X4797702Y9942810D01*
G01X4797702Y9940489D01*
G01X4783007Y9955185D01*
G01X4783007Y9955185D01*
G03X4757383Y9967816I-31406J-31405D01*
G01X4732172Y9977137D01*
G03X4719018Y9979640I-13154J-33311D01*
G01X4719018Y9979640D01*
G01X4671700Y9979640D01*
G03X4679843Y10013823I-67670J34183D01*
G03X4604029Y10089637I-75814J0D01*
G03X4528215Y10013823I0J-75814D01*
G03X4604029Y9938009I75814J0D01*
G03X4623204Y9940474I0J75814D01*
G01X4623204Y9856246D01*
G01X4563722Y9915898D01*
G01X4563721Y9915898D01*
G03X4531634Y9929216I-32087J-31996D01*
G01X4531634Y9929216D01*
G01X4415977Y9929216D01*
G01X4414827Y9929790D01*
G01X4414827Y9940481D01*
G03X4434027Y9938009I19200J73342D01*
G03X4509841Y10013823I0J75814D01*
G03X4434027Y10089637I-75814J0D01*
G03X4358213Y10013823I0J-75814D01*
G03X4366357Y9979640I75814J0D01*
G01X4319013Y9979640D01*
G01X4319013Y9979640D01*
G03X4283199Y9943826I0J-35814D01*
G01X4283199Y9943826D01*
G01X4173196Y8786949D02*
G01X4142349Y8817792D01*
G01X4142349Y8835411D01*
G01X4143542Y8838760D01*
G03X4152326Y8868816I-47030J30057D01*
G03X4145532Y8895504I-55814J0D01*
G01X4211101Y8895504D01*
G03X4210700Y8888832I55414J-6673D01*
G03X4235735Y8842272I55814J0D01*
G03X4260824Y8809636I35781J1545D01*
G01X4206517Y8809636D01*
G01X4206517Y8809636D01*
G03X4173196Y8786949I0J-35814D01*
G01X4448214Y9696802D02*
G01X4448214Y9691095D01*
G01X4444093Y9695216D01*
G01X4444093Y9695216D01*
G03X4412687Y9708225I-31405J-31405D01*
G01X4412687Y9708225D01*
G01X4334612Y9708225D01*
G03X4328858Y9709456I-10346J-34287D01*
G01X4328858Y9709456D01*
G01X4298858Y9713335D01*
G01X4298858Y9713335D01*
G03X4294266Y9713631I-4592J-35518D01*
G01X4293663Y9713625D01*
G01X4241348Y9713625D01*
G01X4241348Y9754400D01*
G01X4476710Y9754400D01*
G03X4475698Y9743821I54802J-10579D01*
G03X4476983Y9731916I55814J0D01*
G03X4448214Y9696802I7045J-35114D01*
G01X4448214Y9696802D01*
G01X5347764Y8552430D02*
G01X4326378Y8551370D01*
G03X4367246Y8583010I-9851J54938D01*
G03X4422328Y8638819I-732J55809D01*
G03X4366514Y8694633I-55814J0D01*
G03X4315795Y8662117I0J-55814D01*
G01X4314992Y8662100D01*
G03X4322331Y8683822I-28475J21722D01*
G01X4322331Y8683822D01*
G01X4322331Y8773822D01*
G01X4322331Y8773822D01*
G03X4297209Y8808002I-35814J0D01*
G01X4351515Y8808002D01*
G01X4351515Y8808002D01*
G03X4377498Y8819168I0J35814D01*
G03X4410686Y8796815I33188J13461D01*
G01X4410686Y8796815D01*
G01X4447529Y8796815D01*
G01X4447529Y8796815D01*
G03X4483343Y8832629I0J35814D01*
G01X4483343Y8832629D01*
G01X4483343Y8853834D01*
G03X4486331Y8870828I-46826J16994D01*
G01X4486331Y8870828D01*
G01X4486331Y8895504D01*
G01X4486702Y8895504D01*
G01X4486702Y8870828D01*
G01X4486702Y8870828D01*
G03X4526456Y8822040I49814J0D01*
G01X4526456Y8822040D01*
G03X4560675Y8796795I34219J10569D01*
G01X4560675Y8796795D01*
G01X4597518Y8796795D01*
G01X4597518Y8796795D01*
G03X4606516Y8797943I0J35814D01*
G03X4615514Y8796795I8998J34665D01*
G01X4615514Y8796795D01*
G01X4652357Y8796795D01*
G01X4652357Y8796795D01*
G03X4688171Y8832609I0J35814D01*
G01X4688171Y8832609D01*
G01X4688171Y8864016D01*
G01X4688185Y8865017D01*
G03X4687528Y8871842I-35814J0D01*
G01X4687528Y8871842D01*
G01X4686330Y8878012D01*
G01X4686330Y8943642D01*
G03X4692330Y8968816I-49814J25174D01*
G03X4686330Y8993990I-55814J0D01*
G01X4686330Y9004215D01*
G01X4686336Y9004818D01*
G01X4686318Y9005930D01*
G03X4685333Y9014747I-49802J-1102D01*
G01X4682360Y9037183D01*
G01X4682360Y9078722D01*
G01X4682360Y9078722D01*
G03X4669337Y9110717I-45814J0D01*
G01X4669337Y9110717D01*
G01X4659426Y9120875D01*
G01X4659426Y9120875D01*
G03X4632003Y9134378I-32791J-31995D01*
G03X4627746Y9148813I-45474J-5567D01*
G03X4632014Y9163339I-41217J20003D01*
G03X4672322Y9208821I-5506J45482D01*
G03X4626508Y9254635I-45814J0D01*
G01X4624392Y9254586D01*
G03X4618898Y9261227I-37891J-25752D01*
G01X4618898Y9261227D01*
G01X4598832Y9281295D01*
G01X4598832Y9281295D01*
G03X4586262Y9290204I-32397J-32393D01*
G03X4586331Y9292824I-49746J2620D01*
G01X4586331Y9292824D01*
G01X4586331Y9426824D01*
G01X4586331Y9426824D01*
G03X4536516Y9476638I-49814J0D01*
G03X4523986Y9475037I0J-49814D01*
G03X4518819Y9481202I-37559J-26234D01*
G01X4518819Y9481202D01*
G01X4502264Y9497752D01*
G01X4502264Y9507918D01*
G03X4515222Y9505986I12958J42482D01*
G01X4515222Y9505986D01*
G01X4597400Y9505986D01*
G01X4597400Y9505986D01*
G03X4628805Y9518995I0J44414D01*
G01X4628805Y9518995D01*
G01X4677853Y9568042D01*
G01X4677853Y9568042D01*
G03X4690861Y9599447I-31405J31405D01*
G01X4690861Y9599447D01*
G01X4690861Y9679920D01*
G03X4694584Y9685472I-44414J33802D01*
G01X4694584Y9650147D01*
G01X4694584Y9650147D01*
G03X4730398Y9614333I35814J0D01*
G01X4730398Y9614333D01*
G01X4775399Y9614333D01*
G01X4775399Y9614333D01*
G03X4787893Y9616583I0J35814D01*
G03X4800401Y9614328I12507J33559D01*
G01X4800401Y9614328D01*
G01X4845402Y9614328D01*
G01X4845402Y9614328D01*
G03X4860938Y9617873I0J35814D01*
G02X4871202Y9618228I10264J-148206D01*
G01X4871202Y9618228D01*
G01X4871297Y9618229D01*
G01X4890338Y9618229D01*
G01X4890338Y9618229D01*
G03X4910687Y9623164I0J44414D01*
G03X4956925Y9654857I-4169J55658D01*
G01X4957083Y9654475D01*
G03X4959609Y9649394I33232J13352D01*
G03X4990323Y9632000I30714J18420D01*
G01X4991276Y9632013D01*
G01X5022715Y9632013D01*
G01X5022715Y9632013D01*
G03X5058529Y9667827I0J35814D01*
G01X5058529Y9667827D01*
G01X5058529Y9697700D01*
G01X5058532Y9698126D01*
G03X5057835Y9705156I-35814J0D01*
G03X5036887Y9731030I-35120J-7017D01*
G03X5055841Y9762627I-16860J31597D01*
G01X5055841Y9762627D01*
G01X5055841Y9765705D01*
G03X5057404Y9778822I-54251J13118D01*
G03X5057247Y9783008I-55814J0D01*
G03X5112198Y9834773I-717J55809D01*
G01X5126648Y9849221D01*
G01X5126648Y9849221D01*
G03X5139665Y9875553I-32393J32397D01*
G01X5149468Y9895160D01*
G03X5155339Y9914809I-29943J19649D01*
G01X5155339Y9914809D01*
G01X5155339Y9942810D01*
G01X5155339Y9942810D01*
G03X5153606Y9953816I-35814J0D01*
G03X5155339Y9964821I-34081J11006D01*
G01X5155339Y9964821D01*
G01X5155339Y9992822D01*
G01X5155339Y9992822D01*
G03X5153610Y10003815I-35814J0D01*
G03X5155339Y10014809I-34085J10993D01*
G01X5155339Y10014809D01*
G01X5155339Y10042809D01*
G01X5155339Y10042809D01*
G03X5148546Y10063796I-35814J0D01*
G01X5146091Y10068706D01*
G03X5149835Y10088804I-52070J20098D01*
G03X5142362Y10116702I-55814J0D01*
G01X5342310Y10116916D01*
G03X5345661Y10116759I3352J35657D01*
G01X5345664Y10116759D01*
G02X5509827Y9955292I-0J-164186D01*
G01X5509827Y9955292D01*
G03X5509725Y9952591I35712J-2700D01*
G01X5509725Y9952591D01*
G01X5509725Y9804527D01*
G01X5509725Y9804527D01*
G01X5509811Y9802041D01*
G01X5509811Y9794545D01*
G01X5378740Y9794545D01*
G01X5378740Y9794545D01*
G03X5342926Y9758731I0J-35814D01*
G01X5342926Y9758731D01*
G01X5342926Y9614397D01*
G01X5182786Y9614397D01*
G01X5182786Y9614397D01*
G03X5146972Y9578583I0J-35814D01*
G01X5146972Y9578583D01*
G01X5146972Y9559014D01*
G01X5126846Y9579141D01*
G01X5126846Y9579141D01*
G03X5101521Y9589630I-25324J-25324D01*
G01X5101521Y9589630D01*
G01X5091338Y9589630D01*
G01X5089017Y9589679D01*
G01X5086696Y9589630D01*
G01X5048843Y9589630D01*
G01X5046523Y9589679D01*
G01X5044202Y9589630D01*
G01X5006349Y9589630D01*
G01X5004029Y9589679D01*
G01X5001708Y9589630D01*
G01X4963855Y9589630D01*
G01X4961534Y9589679D01*
G01X4959214Y9589630D01*
G01X4921335Y9589630D01*
G01X4919015Y9589679D01*
G01X4916694Y9589630D01*
G01X4764019Y9589630D01*
G01X4764019Y9589630D01*
G03X4738695Y9579141I0J-35814D01*
G01X4738695Y9579141D01*
G01X4718000Y9558446D01*
G03X4706905Y9547351I33527J-44622D01*
G01X4701197Y9541643D01*
G01X4701197Y9541643D01*
G03X4690707Y9516318I25324J-25324D01*
G01X4690707Y9516318D01*
G01X4690707Y9488818D01*
G01X4690707Y9488818D01*
G01X4690707Y9478818D01*
G01X4690707Y9478818D01*
G01X4690707Y9086319D01*
G01X4690707Y9086319D01*
G03X4701197Y9060995I35814J0D01*
G01X4701197Y9060995D01*
G01X4708697Y9053494D01*
G01X4708697Y9053494D01*
G03X4734022Y9043005I25324J25324D01*
G01X4734022Y9043005D01*
G01X5074021Y9043005D01*
G01X5074021Y9043005D01*
G03X5099345Y9053494I0J35814D01*
G01X5099345Y9053494D01*
G01X5106846Y9060995D01*
G01X5106846Y9060995D01*
G03X5117335Y9086319I-25324J25324D01*
G01X5117335Y9086319D01*
G01X5117335Y9146483D01*
G01X5126356Y9155504D01*
G01X5146972Y9155504D01*
G01X5146972Y9148736D01*
G01X5146972Y9148736D01*
G03X5148402Y9138717I35814J0D01*
G03X5146972Y9128698I34384J-10019D01*
G01X5146972Y9128698D01*
G01X5146972Y9098698D01*
G01X5146972Y9098698D01*
G03X5182786Y9062884I35814J0D01*
G01X5182786Y9062884D01*
G01X5342926Y9062884D01*
G01X5342926Y8918613D01*
G01X5342926Y8918613D01*
G01X5342926Y8918496D01*
G01X5342926Y8918496D01*
G03X5378740Y8882682I35814J0D01*
G03X5381630Y8882799I0J35814D01*
G01X5509847Y8882799D01*
G01X5509847Y8716604D01*
G01X5509847Y8716604D01*
G01X5509849Y8716217D01*
G01X5509849Y8716217D01*
G02X5347764Y8552430I-164185J384D01*
G01X4810658Y8724628D02*
G03X4866472Y8668814I55814J0D01*
G03X4920619Y8711086I0J55814D01*
G03X4966472Y8687095I45854J31822D01*
G03X5022286Y8742909I0J55814D01*
G03X5015104Y8770298I-55814J0D01*
G01X5015104Y8770298D01*
G03X5027286Y8797209I-23632J26911D01*
G01X5027286Y8797209D01*
G01X5027286Y8897209D01*
G01X5027286Y8897209D01*
G03X4991472Y8933023I-35814J0D01*
G01X4991472Y8933023D01*
G01X4941472Y8933023D01*
G01X4941472Y8933023D01*
G03X4916472Y8922853I0J-35814D01*
G03X4891472Y8933023I-25000J-25645D01*
G01X4891472Y8933023D01*
G01X4841472Y8933023D01*
G01X4841472Y8933023D01*
G03X4816472Y8922853I0J-35814D01*
G03X4791473Y8933023I-25000J-25645D01*
G01X4791473Y8933023D01*
G01X4741473Y8933023D01*
G01X4741473Y8933023D01*
G03X4705659Y8897209I0J-35814D01*
G01X4705659Y8897209D01*
G01X4705659Y8797209D01*
G01X4705659Y8797209D01*
G03X4741473Y8761395I35814J0D01*
G01X4741473Y8761395D01*
G01X4791473Y8761395D01*
G01X4791473Y8761395D01*
G03X4816472Y8771564I0J35814D01*
G03X4822058Y8767113I25000J25645D01*
G01X4822058Y8758430D01*
G03X4810658Y8724628I44414J-33802D01*
G01X4738230Y9088979D02*
G01X4736681Y9090528D01*
G01X4736681Y9484609D01*
G01X4760729Y9508658D01*
G01X5102312Y9508658D01*
G01X5134337Y9476632D01*
G01X5134337Y9476632D01*
G03X5141521Y9473656I7184J7184D01*
G01X5141521Y9473656D01*
G01X5157082Y9473656D01*
G03X5174929Y9463654I25704J24939D01*
G01X5149715Y9459305D01*
G01X5077734Y9459305D01*
G01X5077734Y9459305D01*
G03X5048758Y9448978I0J-45814D01*
G01X5016520Y9448978D01*
G01X5016520Y9448978D01*
G03X5009336Y9446002I0J-10160D01*
G01X5009336Y9446002D01*
G01X4983787Y9420453D01*
G03X4950983Y9369603I23010J-50850D01*
G03X4959730Y9339605I55814J0D01*
G03X4950983Y9309608I47068J-29997D01*
G03X4969340Y9268229I55814J0D01*
G01X4969340Y9268229D01*
G03X4971836Y9264133I9679J3088D01*
G01X4971836Y9264133D01*
G01X5009336Y9226633D01*
G01X5009336Y9226633D01*
G03X5016520Y9223657I7184J7184D01*
G01X5016520Y9223657D01*
G01X5060442Y9223657D01*
G03X5082819Y9217820I22378J39977D01*
G01X5082819Y9217820D01*
G01X5149791Y9217820D01*
G01X5174717Y9213629D01*
G03X5155119Y9201478I8070J-34893D01*
G01X5111521Y9201478D01*
G01X5111521Y9201478D01*
G03X5104337Y9198502I0J-10160D01*
G01X5104337Y9198502D01*
G01X5074337Y9168502D01*
G01X5074337Y9168502D01*
G03X5071361Y9161318I7184J-7184D01*
G01X5071361Y9161318D01*
G01X5071361Y9090528D01*
G01X5069812Y9088979D01*
G01X4738230Y9088979D01*
G01X4736681Y9489084D02*
G01X4736681Y9512110D01*
G01X4767457Y9542886D01*
G03X4796516Y9528006I29059J20934D01*
G01X4796516Y9528006D01*
G01X4876516Y9528006D01*
G01X4876516Y9528006D01*
G03X4906114Y9543656I0J35814D01*
G01X5097313Y9543656D01*
G01X5147315Y9493655D01*
G01X5147360Y9493338D01*
G01X4736681Y9489084D01*
G04 Copper End*

G04 Rect Start*
G36*
G01X5337759Y9769602D02*
G01X5337759Y9849612D01*
G01X5537759Y9849612D01*
G01X5537759Y9769602D01*
G01X5337759Y9769602D01*
G37*
G36*
G01X5337759Y8844610D02*
G01X5337759Y8924620D01*
G01X5537759Y8924620D01*
G01X5537759Y8844610D01*
G01X5337759Y8844610D01*
G37*
G36*
G01X1486510Y8783828D02*
G01X1486510Y8873820D01*
G01X2266518Y8873820D01*
G01X2266518Y8783828D01*
G01X1486510Y8783828D01*
G37*
G36*
G01X1496517Y9778822D02*
G01X1496517Y9868814D01*
G01X2276526Y9868814D01*
G01X2276526Y9778822D01*
G01X1496517Y9778822D01*
G37*
G04 Rect End*

G04 TearDrop Start*
G36*
G01X4625853Y9078852D02*
G01X4636493Y9089423D01*
G01X4643201Y9086220D01*
G01X4629013Y9072123D01*
G01X4625853Y9078852D01*
G37*
G36*
G01X4579033Y9082209D02*
G01X4594032Y9082222D01*
G01X4596539Y9075224D01*
G01X4576539Y9075207D01*
G01X4579033Y9082209D01*
G37*
G36*
G01X4539028Y9082217D02*
G01X4554030Y9082217D01*
G01X4556529Y9075217D01*
G01X4536529Y9075217D01*
G01X4539028Y9082217D01*
G37*
G36*
G01X4539943Y9121285D02*
G01X4539887Y9136286D01*
G01X4532879Y9138760D01*
G01X4532950Y9118760D01*
G01X4539943Y9121285D01*
G37*
G36*
G01X4539960Y9176352D02*
G01X4539872Y9161353D01*
G01X4532856Y9158895D01*
G01X4532975Y9178895D01*
G01X4539960Y9176352D01*
G37*
G36*
G01X4539945Y9201295D02*
G01X4539884Y9216296D01*
G01X4532874Y9218767D01*
G01X4532955Y9198767D01*
G01X4539945Y9201295D01*
G37*
G36*
G01X4594014Y9215450D02*
G01X4579015Y9215425D01*
G01X4576501Y9222420D01*
G01X4596501Y9222456D01*
G01X4594014Y9215450D01*
G37*
G36*
G01X2442530Y9373240D02*
G01X2412530Y9373121D01*
G01X2418502Y9379933D01*
G01X2436503Y9380004D01*
G01X2442530Y9373240D01*
G37*
G36*
G01X2437994Y9276857D02*
G01X2409340Y9285737D01*
G01X2409779Y9270944D01*
G01X2429266Y9264907D01*
G01X2437994Y9276857D01*
G37*
G36*
G01X2397824Y9315366D02*
G01X2369325Y9315394D01*
G01X2374560Y9302090D01*
G01X2392561Y9302072D01*
G01X2397824Y9315366D01*
G37*
G36*
G01X2330790Y9346908D02*
G01X2310623Y9326773D01*
G01X2304941Y9339892D01*
G01X2317679Y9352613D01*
G01X2330790Y9346908D01*
G37*
G36*
G01X4738345Y9778771D02*
G01X4738253Y9808771D01*
G01X4724270Y9803229D01*
G01X4724326Y9784230D01*
G01X4738345Y9778771D01*
G37*
G36*
G01X4873782Y9899782D02*
G01X4843783Y9899810D01*
G01X4849297Y9913805D01*
G01X4868296Y9913788D01*
G01X4873782Y9899782D01*
G37*
G36*
G01X4878733Y9887801D02*
G01X4857499Y9866607D01*
G01X4871283Y9860585D01*
G01X4884730Y9874006D01*
G01X4878733Y9887801D01*
G37*
G36*
G01X4712272Y9938794D02*
G01X4712244Y9908794D01*
G01X4726249Y9914280D01*
G01X4726267Y9933280D01*
G01X4712272Y9938794D01*
G37*
G36*
G01X4123304Y9908794D02*
G01X4123279Y9938794D01*
G01X4109283Y9933780D01*
G01X4109301Y9913780D01*
G01X4123304Y9908794D01*
G37*
G36*
G01X4151473Y9910521D02*
G01X4121473Y9910630D01*
G01X4126921Y9896612D01*
G01X4145920Y9896541D01*
G01X4151473Y9910521D01*
G37*
G36*
G01X5134117Y9380411D02*
G01X5129553Y9350759D01*
G01X5144132Y9353456D01*
G01X5147211Y9373456D01*
G01X5134117Y9380411D01*
G37*
G36*
G01X5132004Y9296626D02*
G01X5131976Y9326626D01*
G01X5145982Y9321637D01*
G01X5145999Y9301637D01*
G01X5132004Y9296626D01*
G37*
G36*
G01X5077752Y9298384D02*
G01X5047752Y9298384D01*
G01X5052751Y9284386D01*
G01X5072751Y9284386D01*
G01X5077752Y9298384D01*
G37*
G36*
G01X5077752Y9380827D02*
G01X5047752Y9380827D01*
G01X5052751Y9394825D01*
G01X5072751Y9394825D01*
G01X5077752Y9380827D01*
G37*
G36*
G01X4199796Y9551363D02*
G01X4199715Y9581363D01*
G01X4213728Y9576402D01*
G01X4213781Y9556402D01*
G01X4199796Y9551363D01*
G37*
G36*
G01X4202283Y9496506D02*
G01X4196776Y9525996D01*
G01X4211518Y9523321D01*
G01X4215067Y9504322D01*
G01X4202283Y9496506D01*
G37*
G36*
G01X4215178Y9383486D02*
G01X4201295Y9356890D01*
G01X4215689Y9354210D01*
G01X4225608Y9373210D01*
G01X4215178Y9383486D01*
G37*
G36*
G01X4214739Y9331201D02*
G01X4209341Y9301691D01*
G01X4224076Y9304426D01*
G01X4227551Y9323426D01*
G01X4214739Y9331201D01*
G37*
G36*
G01X4567712Y9018854D02*
G01X4546552Y9040119D01*
G01X4540153Y9026700D01*
G01X4554261Y9012522D01*
G01X4567712Y9018854D01*
G37*
G36*
G01X4586473Y9040045D02*
G01X4565231Y9018859D01*
G01X4578657Y9012476D01*
G01X4592818Y9026601D01*
G01X4586473Y9040045D01*
G37*
G36*
G01X4586470Y9037561D02*
G01X4565259Y9058778D01*
G01X4578695Y9065141D01*
G01X4592836Y9050995D01*
G01X4586470Y9037561D01*
G37*
G36*
G01X4567766Y9058778D02*
G01X4546549Y9037569D01*
G01X4540187Y9051003D01*
G01X4554332Y9065143D01*
G01X4567766Y9058778D01*
G37*
G36*
G01X4651532Y8955603D02*
G01X4621533Y8955578D01*
G01X4626547Y8941580D01*
G01X4646546Y8941600D01*
G01X4651532Y8955603D01*
G37*
G36*
G01X4651532Y8982034D02*
G01X4621533Y8982062D01*
G01X4626547Y8996058D01*
G01X4646546Y8996037D01*
G01X4651532Y8982034D01*
G37*
G36*
G01X5016566Y9792086D02*
G01X4986566Y9792018D01*
G01X4991534Y9806028D01*
G01X5011534Y9806074D01*
G01X5016566Y9792086D01*
G37*
G36*
G01X5085568Y10106934D02*
G01X5077089Y10078156D01*
G01X5064953Y10086503D01*
G01X5070846Y10106503D01*
G01X5085568Y10106934D01*
G37*
G36*
G01X5109007Y10075563D02*
G01X5079007Y10075591D01*
G01X5083993Y10061588D01*
G01X5103993Y10061567D01*
G01X5109007Y10075563D01*
G37*
G36*
G01X4111523Y8855603D02*
G01X4081523Y8855575D01*
G01X4086535Y8841580D01*
G01X4106535Y8841600D01*
G01X4111523Y8855603D01*
G37*
G36*
G01X4196479Y9437591D02*
G01X4175239Y9458777D01*
G01X4188666Y9465158D01*
G01X4202826Y9451035D01*
G01X4196479Y9437591D01*
G37*
G36*
G01X4184360Y9154805D02*
G01X4213791Y9148983D01*
G01X4213040Y9161518D01*
G01X4189827Y9166111D01*
G01X4184360Y9154805D01*
G37*
G36*
G01X4181577Y9125613D02*
G01X4211577Y9125763D01*
G01X4206608Y9118905D01*
G01X4186608Y9118806D01*
G01X4181577Y9125613D01*
G37*
G36*
G01X3991458Y10085512D02*
G01X3961458Y10085649D01*
G01X3966393Y10071626D01*
G01X3986393Y10071534D01*
G01X3991458Y10085512D01*
G37*
G36*
G01X4306298Y9226009D02*
G01X4300756Y9196525D01*
G01X4287888Y9203853D01*
G01X4291648Y9223853D01*
G01X4306298Y9226009D01*
G37*
G36*
G01X4425838Y9464954D02*
G01X4396529Y9458546D01*
G01X4398193Y9473240D01*
G01X4418193Y9477614D01*
G01X4425838Y9464954D01*
G37*
G36*
G01X4433844Y9451393D02*
G01X4414078Y9428828D01*
G01X4427891Y9423347D01*
G01X4441096Y9438424D01*
G01X4433844Y9451393D01*
G37*
G36*
G01X4465317Y9545671D02*
G01X4437380Y9556603D01*
G01X4446450Y9568089D01*
G01X4466450Y9560263D01*
G01X4465317Y9545671D01*
G37*
G36*
G01X4465317Y9531965D02*
G01X4437380Y9521033D01*
G01X4446450Y9509549D01*
G01X4466450Y9517375D01*
G01X4465317Y9531965D01*
G37*
G36*
G01X3636091Y9601619D02*
G01X3630778Y9631144D01*
G01X3617857Y9623903D01*
G01X3621456Y9603903D01*
G01X3636091Y9601619D01*
G37*
G36*
G01X3643307Y9546323D02*
G01X3643307Y9576323D01*
G01X3629309Y9571322D01*
G01X3629309Y9551322D01*
G01X3643307Y9546323D01*
G37*
G36*
G01X3681522Y9485587D02*
G01X3651522Y9485587D01*
G01X3656521Y9471586D01*
G01X3676520Y9471586D01*
G01X3681522Y9485587D01*
G37*
G36*
G01X4279793Y8903782D02*
G01X4279684Y8873782D01*
G01X4293702Y8878730D01*
G01X4293773Y8898730D01*
G01X4279793Y8903782D01*
G37*
G36*
G01X3858839Y9004569D02*
G01X3829350Y8999047D01*
G01X3831519Y9013698D01*
G01X3851519Y9017442D01*
G01X3858839Y9004569D01*
G37*
G36*
G01X4414947Y9211803D02*
G01X4393735Y9190586D01*
G01X4407172Y9184223D01*
G01X4421312Y9198369D01*
G01X4414947Y9211803D01*
G37*
G36*
G01X4396240Y9230507D02*
G01X4375023Y9209298D01*
G01X4368663Y9222732D01*
G01X4382806Y9236873D01*
G01X4396240Y9230507D01*
G37*
G36*
G01X3706597Y8984465D02*
G01X3676597Y8984602D01*
G01X3681661Y8998580D01*
G01X3701661Y8998488D01*
G01X3706597Y8984465D01*
G37*
G36*
G01X3471487Y8995537D02*
G01X3441487Y8995649D01*
G01X3441464Y8988862D01*
G01X3471461Y8988750D01*
G01X3471487Y8995537D01*
G37*
G36*
G01X3716447Y9387604D02*
G01X3695233Y9408815D01*
G01X3708667Y9415181D01*
G01X3722809Y9401038D01*
G01X3716447Y9387604D01*
G37*
G36*
G01X3128655Y9448696D02*
G01X3106539Y9428427D01*
G01X3100758Y9442120D01*
G01X3115516Y9455645D01*
G01X3128655Y9448696D01*
G37*
G36*
G01X4376499Y9364584D02*
G01X4346499Y9364500D01*
G01X4351462Y9378516D01*
G01X4371462Y9378569D01*
G01X4376499Y9364584D01*
G37*
G36*
G01X4376537Y9338084D02*
G01X4346537Y9338084D01*
G01X4351536Y9324083D01*
G01X4371536Y9324083D01*
G01X4376537Y9338084D01*
G37*
G36*
G01X2382609Y9477560D02*
G01X2361954Y9441851D01*
G01X2377377Y9430068D01*
G01X2400513Y9470067D01*
G01X2382609Y9477560D01*
G37*
G36*
G01X2351118Y9441851D02*
G01X2330463Y9477560D01*
G01X2312558Y9470067D01*
G01X2335695Y9430068D01*
G01X2351118Y9441851D01*
G37*
G36*
G01X2382609Y9477560D02*
G01X2361954Y9441851D01*
G01X2380270Y9435066D01*
G01X2397620Y9465066D01*
G01X2382609Y9477560D01*
G37*
G36*
G01X2351118Y9441851D02*
G01X2330463Y9477560D01*
G01X2315451Y9465066D01*
G01X2332802Y9435066D01*
G01X2351118Y9441851D01*
G37*
G36*
G01X2442604Y9477560D02*
G01X2421951Y9441851D01*
G01X2437374Y9430068D01*
G01X2460511Y9470067D01*
G01X2442604Y9477560D01*
G37*
G36*
G01X2411113Y9441851D02*
G01X2390460Y9477560D01*
G01X2372553Y9470067D01*
G01X2395692Y9430068D01*
G01X2411113Y9441851D01*
G37*
G36*
G01X2411113Y9441851D02*
G01X2390460Y9477560D01*
G01X2375446Y9465066D01*
G01X2392799Y9435066D01*
G01X2411113Y9441851D01*
G37*
G36*
G01X2502601Y9477560D02*
G01X2481946Y9441851D01*
G01X2497369Y9430068D01*
G01X2520506Y9470067D01*
G01X2502601Y9477560D01*
G37*
G36*
G01X2471110Y9441851D02*
G01X2450455Y9477560D01*
G01X2432550Y9470067D01*
G01X2455687Y9430068D01*
G01X2471110Y9441851D01*
G37*
G36*
G01X2563033Y9476115D02*
G01X2540450Y9441594D01*
G01X2552090Y9430068D01*
G01X2578257Y9470067D01*
G01X2563033Y9476115D01*
G37*
G36*
G01X2531100Y9441851D02*
G01X2510447Y9477560D01*
G01X2492540Y9470067D01*
G01X2515677Y9430068D01*
G01X2531100Y9441851D01*
G37*
G36*
G01X2588189Y9456260D02*
G01X2559088Y9427025D01*
G01X2551064Y9435892D01*
G01X2579284Y9464243D01*
G01X2588189Y9456260D01*
G37*
G36*
G01X2630792Y9351653D02*
G01X2599047Y9377995D01*
G01X2594894Y9356425D01*
G01X2610358Y9343593D01*
G01X2630792Y9351653D01*
G37*
G36*
G01X2613950Y9332130D02*
G01X2584818Y9361338D01*
G01X2605951Y9367408D01*
G01X2620076Y9353248D01*
G01X2613950Y9332130D01*
G37*
G36*
G01X2565880Y9315699D02*
G01X2607132Y9315699D01*
G01X2596507Y9296448D01*
G01X2576507Y9296448D01*
G01X2565880Y9315699D01*
G37*
G36*
G01X2607145Y9277015D02*
G01X2565893Y9276987D01*
G01X2576507Y9296245D01*
G01X2596507Y9296258D01*
G01X2607145Y9277015D01*
G37*
G36*
G01X2588240Y9231363D02*
G01X2559086Y9260545D01*
G01X2552977Y9239423D01*
G01X2567112Y9225275D01*
G01X2588240Y9231363D01*
G37*
G36*
G01X2413226Y9172219D02*
G01X2389744Y9206133D01*
G01X2403465Y9220134D01*
G01X2431161Y9180134D01*
G01X2413226Y9172219D01*
G37*
G36*
G01X2383318Y9206133D02*
G01X2359835Y9172219D01*
G01X2341900Y9180134D01*
G01X2369596Y9220134D01*
G01X2383318Y9206133D01*
G37*
G36*
G01X2448253Y9206268D02*
G01X2419081Y9177104D01*
G01X2411075Y9185994D01*
G01X2439365Y9214274D01*
G01X2448253Y9206268D01*
G37*
G36*
G01X2544564Y9233581D02*
G01X2582596Y9217604D01*
G01X2580996Y9239159D01*
G01X2561079Y9247525D01*
G01X2544564Y9233581D01*
G37*
G36*
G01X5088984Y9500116D02*
G01X5067826Y9478851D01*
G01X5077750Y9468975D01*
G01X5098910Y9490243D01*
G01X5088984Y9500116D01*
G37*
G36*
G01X5072085Y9196438D02*
G01X5066990Y9226001D01*
G01X5080749Y9228597D01*
G01X5085921Y9198597D01*
G01X5072085Y9196438D01*
G37*
G36*
G01X4296534Y9250716D02*
G01X4295112Y9280682D01*
G01X4281366Y9275023D01*
G01X4282313Y9255046D01*
G01X4296534Y9250716D01*
G37*
G36*
G01X4918799Y9694609D02*
G01X4889322Y9689033D01*
G01X4891458Y9703684D01*
G01X4911458Y9707469D01*
G01X4918799Y9694609D01*
G37*
G36*
G01X3424362Y9447853D02*
G01X3413252Y9419986D01*
G01X3427824Y9418734D01*
G01X3435797Y9438734D01*
G01X3424362Y9447853D01*
G37*
G36*
G01X3486480Y9477563D02*
G01X3465274Y9498782D01*
G01X3478713Y9505142D01*
G01X3492851Y9490997D01*
G01X3486480Y9477563D01*
G37*
G36*
G01X3511299Y9632368D02*
G01X3490092Y9653590D01*
G01X3483724Y9640156D01*
G01X3497862Y9626011D01*
G01X3511299Y9632368D01*
G37*
G36*
G01X3528413Y9644403D02*
G01X3515624Y9671540D01*
G01X3529970Y9673938D01*
G01X3539396Y9653941D01*
G01X3528413Y9644403D01*
G37*
G36*
G01X2304186Y9470146D02*
G01X2304186Y9430149D01*
G01X2349185Y9435066D01*
G01X2349185Y9465066D01*
G01X2304186Y9470146D01*
G37*
G36*
G01X2274192Y9387647D02*
G01X2274192Y9412643D01*
G01X2301192Y9409031D01*
G01X2301192Y9391030D01*
G01X2274192Y9387647D01*
G37*
G36*
G01X2274197Y9337639D02*
G01X2274197Y9362643D01*
G01X2301199Y9359247D01*
G01X2301199Y9341246D01*
G01X2274197Y9337639D01*
G37*
G36*
G01X2274202Y9287640D02*
G01X2274202Y9312636D01*
G01X2287293Y9308955D01*
G01X2287293Y9290954D01*
G01X2274202Y9287640D01*
G37*
G36*
G01X2274209Y9237640D02*
G01X2274209Y9262636D01*
G01X2301210Y9259174D01*
G01X2301210Y9241173D01*
G01X2274209Y9237640D01*
G37*
G36*
G01X2304209Y9220134D02*
G01X2304209Y9180129D01*
G01X2364209Y9180134D01*
G01X2364209Y9220134D01*
G01X2304209Y9220134D01*
G37*
G36*
G01X2539025Y9229324D02*
G01X2582019Y9229324D01*
G01X2593576Y9251739D01*
G01X2572365Y9258811D01*
G01X2539025Y9229324D01*
G37*
G36*
G01X3279023Y9226819D02*
G01X3200014Y9226819D01*
G01X3214540Y9151818D01*
G01X3264540Y9151818D01*
G01X3279023Y9226819D01*
G37*
G36*
G01X3200014Y9226819D02*
G01X3200014Y9280817D01*
G01X3125013Y9278724D01*
G01X3125013Y9228724D01*
G01X3200014Y9226819D01*
G37*
G36*
G01X3200014Y9226819D02*
G01X3200014Y9280817D01*
G01X3161914Y9266425D01*
G01X3161914Y9241025D01*
G01X3200014Y9226819D01*
G37*
G36*
G01X3309023Y9226819D02*
G01X3388032Y9226819D01*
G01X3362333Y9151818D01*
G01X3312333Y9151818D01*
G01X3309023Y9226819D01*
G37*
G36*
G01X3316755Y9226819D02*
G01X3380255Y9226819D01*
G01X3361205Y9188719D01*
G01X3335805Y9188719D01*
G01X3316755Y9226819D01*
G37*
G36*
G01X3814519Y8668819D02*
G01X3814519Y8747829D01*
G01X3768628Y8733389D01*
G01X3768628Y8683389D01*
G01X3814519Y8668819D01*
G37*
G36*
G01X3868519Y8747829D02*
G01X3868519Y8668819D01*
G01X3943518Y8683389D01*
G01X3943518Y8733389D01*
G01X3868519Y8747829D01*
G37*
G36*
G01X3868519Y8747829D02*
G01X3868519Y8668819D01*
G01X3943518Y8683389D01*
G01X3943518Y8733389D01*
G01X3868519Y8747829D01*
G37*
G36*
G01X3814519Y8621804D02*
G01X3814519Y8571804D01*
G01X3784519Y8552658D01*
G01X3784519Y8580943D01*
G01X3814519Y8621804D01*
G37*
G36*
G01X3929525Y8747829D02*
G01X3983525Y8747829D01*
G01X3971587Y8792827D01*
G01X3941587Y8792827D01*
G01X3929525Y8747829D01*
G37*
G36*
G01X3929525Y8668819D02*
G01X3929525Y8747829D01*
G01X3854526Y8733389D01*
G01X3854526Y8683389D01*
G01X3929525Y8668819D01*
G37*
G36*
G01X3929525Y8668819D02*
G01X3929525Y8747829D01*
G01X3854526Y8733389D01*
G01X3854526Y8683389D01*
G01X3929525Y8668819D01*
G37*
G36*
G01X3191523Y8738817D02*
G01X3191523Y8818819D01*
G01X3116524Y8818735D01*
G01X3116524Y8768735D01*
G01X3191523Y8738817D01*
G37*
G36*
G01X3281528Y8818819D02*
G01X3281528Y8738817D01*
G01X3356526Y8768735D01*
G01X3356526Y8818735D01*
G01X3281528Y8818819D01*
G37*
G36*
G01X4615523Y8865017D02*
G01X4652371Y8865017D01*
G01X4646546Y8895017D01*
G01X4626547Y8895017D01*
G01X4615523Y8865017D01*
G37*
G36*
G01X4597527Y8865017D02*
G01X4561502Y8865017D01*
G01X4576501Y8895017D01*
G01X4596501Y8895017D01*
G01X4597527Y8865017D01*
G37*
G36*
G01X4465518Y8832616D02*
G01X4502363Y8832616D01*
G01X4493885Y8802616D01*
G01X4473885Y8802616D01*
G01X4465518Y8832616D01*
G37*
G36*
G01X4502363Y8865017D02*
G01X4465518Y8865017D01*
G01X4476427Y8895017D01*
G01X4496427Y8895017D01*
G01X4502363Y8865017D01*
G37*
G36*
G01X4983178Y9795020D02*
G01X5020026Y9795020D01*
G01X5011534Y9825020D01*
G01X4991534Y9825020D01*
G01X4983178Y9795020D01*
G37*
G36*
G01X2731521Y8707582D02*
G01X2731521Y8670079D01*
G01X2754023Y8681329D01*
G01X2754023Y8696330D01*
G01X2731521Y8707582D01*
G37*
G36*
G01X2726522Y8670079D02*
G01X2726522Y8707582D01*
G01X2704021Y8696330D01*
G01X2704021Y8681329D01*
G01X2726522Y8670079D01*
G37*
G36*
G01X3138790Y8836317D02*
G01X3138790Y8731235D01*
G01X3213788Y8768735D01*
G01X3213788Y8818735D01*
G01X3138790Y8836317D01*
G37*
G36*
G01X4282379Y8683818D02*
G01X4207380Y8683818D01*
G01X4229880Y8638819D01*
G01X4259880Y8638819D01*
G01X4282379Y8683818D01*
G37*
G36*
G01X4206629Y8843823D02*
G01X4156629Y8843823D01*
G01X4171627Y8843772D01*
G01X4191627Y8843772D01*
G01X4206629Y8843823D01*
G37*
G36*
G01X4271521Y8863731D02*
G01X4271521Y8913731D01*
G01X4266458Y8898730D01*
G01X4266458Y8878730D01*
G01X4271521Y8863731D01*
G37*
G36*
G01X4926460Y9723819D02*
G01X4876460Y9723819D01*
G01X4891458Y9693819D01*
G01X4911458Y9693819D01*
G01X4926460Y9723819D01*
G37*
G36*
G01X4941519Y9773089D02*
G01X4941519Y9723819D01*
G01X4971519Y9703948D01*
G01X4971519Y9732231D01*
G01X4941519Y9773089D01*
G37*
G36*
G01X2758087Y9342684D02*
G01X2728747Y9319321D01*
G01X2754518Y9311079D01*
G01X2766329Y9320482D01*
G01X2758087Y9342684D01*
G37*
G36*
G01X3309023Y9109319D02*
G01X3365591Y9109319D01*
G01X3361568Y9034318D01*
G01X3311568Y9034318D01*
G01X3309023Y9109319D01*
G37*
G36*
G01X3365591Y9163319D02*
G01X3309023Y9163319D01*
G01X3312333Y9238318D01*
G01X3362333Y9238318D01*
G01X3365591Y9163319D01*
G37*
G36*
G01X3365591Y9163319D02*
G01X3316755Y9163319D01*
G01X3335805Y9201419D01*
G01X3361205Y9201419D01*
G01X3365591Y9163319D01*
G37*
G36*
G01X3138528Y9226316D02*
G01X3138528Y9282882D01*
G01X3213529Y9278724D01*
G01X3213529Y9228724D01*
G01X3138528Y9226316D01*
G37*
G36*
G01X3084523Y9282882D02*
G01X3084523Y9226316D01*
G01X3009522Y9228724D01*
G01X3009522Y9278724D01*
G01X3084523Y9282882D01*
G37*
G36*
G01X3138528Y9226316D02*
G01X3138528Y9282882D01*
G01X3176628Y9266425D01*
G01X3176628Y9241025D01*
G01X3138528Y9226316D01*
G37*
G36*
G01X3084523Y9282882D02*
G01X3084523Y9226316D01*
G01X3046423Y9241025D01*
G01X3046423Y9266425D01*
G01X3084523Y9282882D01*
G37*
G36*
G01X4133261Y8655820D02*
G01X4183261Y8655820D01*
G01X4168262Y8685822D01*
G01X4148262Y8685822D01*
G01X4133261Y8655820D01*
G37*
G36*
G01X4273083Y8655820D02*
G01X4216527Y8655820D01*
G01X4229880Y8700821D01*
G01X4259880Y8700821D01*
G01X4273083Y8655820D01*
G37*
G36*
G01X3115323Y9410316D02*
G01X3147725Y9440629D01*
G01X3117619Y9453545D01*
G01X3103004Y9439874D01*
G01X3115323Y9410316D01*
G37*
G36*
G01X3242727Y9440629D02*
G01X3210326Y9440629D01*
G01X3216585Y9470629D01*
G01X3236585Y9470629D01*
G01X3242727Y9440629D01*
G37*
G36*
G01X4027206Y8975021D02*
G01X4057518Y8975021D01*
G01X4052435Y9005019D01*
G01X4032435Y9005019D01*
G01X4027206Y8975021D01*
G37*
G36*
G01X4105836Y8975021D02*
G01X4075527Y8975021D01*
G01X4080693Y8978903D01*
G01X4100693Y8978903D01*
G01X4105836Y8975021D01*
G37*
G36*
G01X4075527Y8942619D02*
G01X4105836Y8942619D01*
G01X4100693Y8932926D01*
G01X4080693Y8932926D01*
G01X4075527Y8942619D01*
G37*
G36*
G01X4375018Y9475119D02*
G01X4344706Y9475119D01*
G01X4351462Y9445120D01*
G01X4371462Y9445120D01*
G01X4375018Y9475119D01*
G37*
G36*
G01X4344706Y9507515D02*
G01X4375018Y9507515D01*
G01X4369935Y9537515D01*
G01X4349935Y9537515D01*
G01X4344706Y9507515D01*
G37*
G36*
G01X4393027Y9475119D02*
G01X4423336Y9475119D01*
G01X4418193Y9454645D01*
G01X4398193Y9454645D01*
G01X4393027Y9475119D01*
G37*
G36*
G01X4375018Y9565117D02*
G01X4344706Y9565117D01*
G01X4349935Y9535117D01*
G01X4369935Y9535117D01*
G01X4375018Y9565117D01*
G37*
G36*
G01X4423336Y9565117D02*
G01X4423336Y9597520D01*
G01X4444012Y9591388D01*
G01X4444012Y9571391D01*
G01X4423336Y9565117D01*
G37*
G36*
G01X4990323Y9667814D02*
G01X5022718Y9698126D01*
G01X4992662Y9711088D01*
G01X4978049Y9697415D01*
G01X4990323Y9667814D01*
G37*
G36*
G01X3020322Y9440629D02*
G01X3020322Y9410316D01*
G01X2990322Y9415429D01*
G01X2990322Y9435429D01*
G01X3020322Y9440629D01*
G37*
G36*
G01X3051437Y9530799D02*
G01X3001437Y9530799D01*
G01X3016435Y9530588D01*
G01X3036435Y9530588D01*
G01X3051437Y9530799D01*
G37*
G36*
G01X2601641Y9660801D02*
G01X2651641Y9660801D01*
G01X2636639Y9690801D01*
G01X2616639Y9690801D01*
G01X2601641Y9660801D01*
G37*
G36*
G01X2651641Y9530799D02*
G01X2601641Y9530799D01*
G01X2616639Y9500799D01*
G01X2636639Y9500799D01*
G01X2651641Y9530799D01*
G37*
G36*
G01X3276524Y9660801D02*
G01X3276524Y9620804D01*
G01X3306524Y9661660D01*
G01X3306524Y9689943D01*
G01X3276524Y9660801D01*
G37*
G36*
G01X3251584Y9530799D02*
G01X3201586Y9530799D01*
G01X3216585Y9500799D01*
G01X3236585Y9500799D01*
G01X3251584Y9530799D01*
G37*
G36*
G01X4117023Y9898781D02*
G01X4117023Y9943816D01*
G01X4087023Y9933780D01*
G01X4087023Y9913780D01*
G01X4117023Y9898781D01*
G37*
G36*
G01X4175293Y9823818D02*
G01X4127795Y9823818D01*
G01X4163108Y9798815D01*
G01X4183261Y9805530D01*
G01X4175293Y9823818D01*
G37*
G36*
G01X4379024Y9907651D02*
G01X4379024Y9860153D01*
G01X4407522Y9874402D01*
G01X4407522Y9893402D01*
G01X4379024Y9907651D01*
G37*
G36*
G01X4719020Y9943816D02*
G01X4719020Y9900031D01*
G01X4747519Y9914280D01*
G01X4747519Y9933280D01*
G01X4719020Y9943816D01*
G37*
G36*
G01X3046522Y9037223D02*
G01X2966527Y9037223D01*
G01X2981622Y8968737D01*
G01X3031622Y8968737D01*
G01X3046522Y9037223D01*
G37*
G36*
G01X3046522Y9280416D02*
G01X3046522Y9227215D01*
G01X3121520Y9228724D01*
G01X3121520Y9278724D01*
G01X3046522Y9280416D01*
G37*
G36*
G01X3046522Y9280416D02*
G01X3046522Y9227215D01*
G01X3084622Y9241025D01*
G01X3084622Y9266425D01*
G01X3046522Y9280416D01*
G37*
G36*
G01X2747843Y9280416D02*
G01X2785346Y9280416D01*
G01X2774094Y9302918D01*
G01X2759093Y9302918D01*
G01X2747843Y9280416D01*
G37*
G36*
G01X3544024Y8676292D02*
G01X3544024Y8601293D01*
G01X3556536Y8623793D01*
G01X3556536Y8653793D01*
G01X3544024Y8676292D01*
G37*
G36*
G01X3541644Y8576323D02*
G01X3491644Y8576323D01*
G01X3529945Y8548875D01*
G01X3551156Y8555947D01*
G01X3541644Y8576323D01*
G37*
G36*
G01X3543999Y8576323D02*
G01X3493999Y8576323D01*
G01X3532439Y8548875D01*
G01X3553676Y8555970D01*
G01X3543999Y8576323D01*
G37*
G36*
G01X3718608Y8701319D02*
G01X3734013Y8577273D01*
G01X3772535Y8676940D01*
G01X3750953Y8726066D01*
G01X3718608Y8701319D01*
G37*
G36*
G01X3584306Y8776322D02*
G01X3569025Y8900384D01*
G01X3554951Y8825146D01*
G01X3576447Y8776010D01*
G01X3584306Y8776322D01*
G37*
G36*
G01X3705527Y9011074D02*
G01X3677534Y9011074D01*
G01X3681661Y8981074D01*
G01X3701661Y8981074D01*
G01X3705527Y9011074D01*
G37*
G36*
G01X3855519Y9011074D02*
G01X3827516Y9011074D01*
G01X3831519Y8993883D01*
G01X3851519Y8993883D01*
G01X3855519Y9011074D01*
G37*
G36*
G01X4055521Y9011074D02*
G01X4027515Y9011074D01*
G01X4032435Y8981074D01*
G01X4052435Y8981074D01*
G01X4055521Y9011074D01*
G37*
G36*
G01X4127515Y9081072D02*
G01X4155521Y9081072D01*
G01X4151493Y9111071D01*
G01X4131493Y9111071D01*
G01X4127515Y9081072D01*
G37*
G36*
G01X4224266Y9099807D02*
G01X4224266Y9127805D01*
G01X4201434Y9123771D01*
G01X4201434Y9103771D01*
G01X4224266Y9099807D01*
G37*
G36*
G01X4224266Y9149819D02*
G01X4224266Y9177823D01*
G01X4201434Y9173815D01*
G01X4201434Y9153815D01*
G01X4224266Y9149819D01*
G37*
G36*
G01X4294266Y9227805D02*
G01X4294266Y9199806D01*
G01X4311419Y9203853D01*
G01X4311419Y9223853D01*
G01X4294266Y9227805D01*
G37*
G36*
G01X4224266Y9199806D02*
G01X4224266Y9227805D01*
G01X4194266Y9223853D01*
G01X4194266Y9203853D01*
G01X4224266Y9199806D01*
G37*
G36*
G01X4294266Y9277817D02*
G01X4294266Y9249819D01*
G01X4309135Y9256413D01*
G01X4308627Y9276413D01*
G01X4294266Y9277817D01*
G37*
G36*
G01X4224266Y9299806D02*
G01X4224266Y9327805D01*
G01X4203977Y9323426D01*
G01X4203977Y9304426D01*
G01X4224266Y9299806D01*
G37*
G36*
G01X4224266Y9349819D02*
G01X4224266Y9377817D01*
G01X4209062Y9373210D01*
G01X4209062Y9354210D01*
G01X4224266Y9349819D01*
G37*
G36*
G01X4294266Y9427804D02*
G01X4294266Y9399806D01*
G01X4324266Y9403745D01*
G01X4324266Y9423745D01*
G01X4294266Y9427804D01*
G37*
G36*
G01X4224266Y9449819D02*
G01X4224266Y9477817D01*
G01X4201434Y9473783D01*
G01X4201434Y9453783D01*
G01X4224266Y9449819D01*
G37*
G36*
G01X4224266Y9499806D02*
G01X4224266Y9527804D01*
G01X4195768Y9523321D01*
G01X4195768Y9504322D01*
G01X4224266Y9499806D01*
G37*
G36*
G01X4224266Y9549818D02*
G01X4224266Y9577817D01*
G01X4194266Y9576402D01*
G01X4194266Y9556402D01*
G01X4224266Y9549818D01*
G37*
G36*
G01X4224266Y9599806D02*
G01X4224266Y9627804D01*
G01X4194266Y9623903D01*
G01X4194266Y9603903D01*
G01X4224266Y9599806D01*
G37*
G36*
G01X4294266Y9677817D02*
G01X4294266Y9649818D01*
G01X4324266Y9653941D01*
G01X4324266Y9673938D01*
G01X4294266Y9677817D01*
G37*
G36*
G01X3727516Y9766557D02*
G01X3755520Y9766557D01*
G01X3751443Y9796556D01*
G01X3731443Y9796556D01*
G01X3727516Y9766557D01*
G37*
G36*
G01X3627516Y9706501D02*
G01X3627516Y9756501D01*
G01X3597516Y9741502D01*
G01X3597516Y9721502D01*
G01X3627516Y9706501D01*
G37*
G36*
G01X3538789Y9649818D02*
G01X3538789Y9677817D01*
G01X3521476Y9673938D01*
G01X3521476Y9653941D01*
G01X3538789Y9649818D01*
G37*
G36*
G01X3608789Y9627804D02*
G01X3608789Y9599806D01*
G01X3638789Y9603903D01*
G01X3638789Y9623903D01*
G01X3608789Y9627804D01*
G37*
G36*
G01X3608789Y9577817D02*
G01X3608789Y9549818D01*
G01X3638789Y9551322D01*
G01X3638789Y9571322D01*
G01X3608789Y9577817D01*
G37*
G36*
G01X3538789Y9499806D02*
G01X3538789Y9527804D01*
G01X3508789Y9523821D01*
G01X3508789Y9503821D01*
G01X3538789Y9499806D01*
G37*
G36*
G01X3538789Y9449819D02*
G01X3538789Y9477817D01*
G01X3531646Y9473783D01*
G01X3531646Y9453783D01*
G01X3538789Y9449819D01*
G37*
G36*
G01X3608789Y9427804D02*
G01X3608789Y9399806D01*
G01X3638789Y9403745D01*
G01X3638789Y9423745D01*
G01X3608789Y9427804D01*
G37*
G36*
G01X3538789Y9349819D02*
G01X3538789Y9377817D01*
G01X3508789Y9373710D01*
G01X3508789Y9353710D01*
G01X3538789Y9349819D01*
G37*
G36*
G01X5119253Y9914814D02*
G01X5069253Y9914814D01*
G01X5084255Y9884814D01*
G01X5104254Y9884814D01*
G01X5119253Y9914814D01*
G37*
G36*
G01X5069015Y10042817D02*
G01X5118994Y10042817D01*
G01X5103993Y10072817D01*
G01X5083993Y10072817D01*
G01X5069015Y10042817D01*
G37*
G36*
G01X5065517Y10071501D02*
G01X5065517Y10121501D01*
G01X5086378Y10106503D01*
G01X5086378Y10086503D01*
G01X5065517Y10071501D01*
G37*
G36*
G01X4835047Y9914814D02*
G01X4882545Y9914814D01*
G01X4868296Y9886699D01*
G01X4849297Y9886699D01*
G01X4835047Y9914814D01*
G37*
G36*
G01X4887519Y9884794D02*
G01X4887519Y9837296D01*
G01X4884196Y9851545D01*
G01X4884196Y9870544D01*
G01X4887519Y9884794D01*
G37*
G36*
G01X4965517Y9836043D02*
G01X4965517Y9886043D01*
G01X4995517Y9871045D01*
G01X4995517Y9851045D01*
G01X4965517Y9836043D01*
G37*
G36*
G01X4987519Y9886043D02*
G01X4987519Y9836043D01*
G01X4957519Y9851045D01*
G01X4957519Y9871045D01*
G01X4987519Y9886043D01*
G37*
G36*
G01X4987519Y9835817D02*
G01X5015525Y9835817D01*
G01X5011534Y9805817D01*
G01X4991534Y9805817D01*
G01X4987519Y9835817D01*
G37*
G36*
G01X5065517Y9836043D02*
G01X5065517Y9886043D01*
G01X5073678Y9871045D01*
G01X5073678Y9851045D01*
G01X5065517Y9836043D01*
G37*
G36*
G01X5182781Y9398665D02*
G01X5182781Y9428665D01*
G01X5152781Y9423491D01*
G01X5152781Y9403491D01*
G01X5182781Y9398665D01*
G37*
G36*
G01X5182781Y9348592D02*
G01X5182781Y9378592D01*
G01X5152781Y9373456D01*
G01X5152781Y9353456D01*
G01X5182781Y9348592D01*
G37*
G36*
G01X5182781Y9298592D02*
G01X5182781Y9328592D01*
G01X5152781Y9321637D01*
G01X5152781Y9301637D01*
G01X5182781Y9298592D01*
G37*
G36*
G01X5182781Y9248590D02*
G01X5182781Y9278592D01*
G01X5152781Y9273634D01*
G01X5152781Y9253634D01*
G01X5182781Y9248590D01*
G37*
G36*
G01X5182781Y9198590D02*
G01X5182781Y9228592D01*
G01X5137782Y9228597D01*
G01X5137782Y9198597D01*
G01X5182781Y9198590D01*
G37*
G36*
G01X3730528Y8875019D02*
G01X3767364Y8875019D01*
G01X3764072Y8920020D01*
G01X3734072Y8920020D01*
G01X3730528Y8875019D01*
G37*
G36*
G01X3767364Y8875019D02*
G01X3767364Y8842619D01*
G01X3812365Y8843762D01*
G01X3812365Y8873759D01*
G01X3767364Y8875019D01*
G37*
G36*
G01X3712520Y8875019D02*
G01X3675675Y8875019D01*
G01X3679203Y8891267D01*
G01X3709203Y8891267D01*
G01X3712520Y8875019D01*
G37*
G36*
G01X3675675Y8842619D02*
G01X3712520Y8842619D01*
G01X3709203Y8797618D01*
G01X3679203Y8797618D01*
G01X3675675Y8842619D01*
G37*
G36*
G01X4500502Y9292788D02*
G01X4472501Y9292859D01*
G01X4476427Y9262849D01*
G01X4496427Y9262798D01*
G01X4500502Y9292788D01*
G37*
G36*
G01X4500502Y9426872D02*
G01X4472501Y9426778D01*
G01X4476427Y9448770D01*
G01X4496427Y9448836D01*
G01X4500502Y9426872D01*
G37*
G36*
G01X4450519Y9292882D02*
G01X4422521Y9292765D01*
G01X4426643Y9262783D01*
G01X4446643Y9262867D01*
G01X4450519Y9292882D01*
G37*
G36*
G01X4422521Y9410863D02*
G01X4445752Y9437350D01*
G01X4423583Y9455937D01*
G01X4409920Y9441317D01*
G01X4422521Y9410863D01*
G37*
G36*
G01X4650522Y9004818D02*
G01X4622521Y9004841D01*
G01X4626547Y9034838D01*
G01X4646546Y9034821D01*
G01X4650522Y9004818D01*
G37*
G36*
G01X4650522Y8870846D02*
G01X4622521Y8870810D01*
G01X4626547Y8851382D01*
G01X4646546Y8851407D01*
G01X4650522Y8870846D01*
G37*
G36*
G01X4600501Y8870828D02*
G01X4572500Y8870828D01*
G01X4576501Y8856218D01*
G01X4596501Y8856218D01*
G01X4600501Y8870828D01*
G37*
G36*
G01X4525178Y9013035D02*
G01X4550522Y8994699D01*
G01X4564228Y9022491D01*
G01X4549036Y9035583D01*
G01X4525178Y9013035D01*
G37*
G36*
G01X4500502Y9004864D02*
G01X4472501Y9004795D01*
G01X4476427Y9034803D01*
G01X4496427Y9034854D01*
G01X4500502Y9004864D01*
G37*
G36*
G01X4500502Y8870775D02*
G01X4472501Y8870881D01*
G01X4476427Y8851433D01*
G01X4496427Y8851356D01*
G01X4500502Y8870775D01*
G37*
G36*
G01X4450519Y9004772D02*
G01X4422521Y9004887D01*
G01X4426643Y9034869D01*
G01X4446643Y9034788D01*
G01X4450519Y9004772D01*
G37*
G36*
G01X4422521Y8953901D02*
G01X4422521Y9003901D01*
G01X4392521Y8988903D01*
G01X4392521Y8968903D01*
G01X4422521Y8953901D01*
G37*
G36*
G01X4871202Y9654042D02*
G01X4871202Y9671243D01*
G02X4845402Y9673057I-0J184375D01*
G01X4845402Y9652228D01*
G02X4871202Y9654042I25800J-182561D01*
G37*
G36*
G01X4761499Y9745947D02*
G01X4744299Y9745947D01*
G02X4731399Y9720147I-32250J0D01*
G01X4774399Y9720147D01*
G02X4761499Y9745947I19350J25800D01*
G37*
G36*
G01X4487924Y9569098D02*
G01X4505124Y9569098D01*
G02X4506938Y9581798I45362J-1D01*
G01X4486110Y9581798D01*
G02X4487924Y9569098I-43548J-12700D01*
G37*
G36*
G01X4544212Y9734902D02*
G01X4518812Y9734902D01*
G02X4499762Y9696802I-47625J0D01*
G01X4554028Y9696802D01*
G02X4544212Y9734902I69034J38100D01*
G37*
G36*
G01X3537280Y9653938D02*
G01X3537280Y9673938D01*
G01X3535301Y9673508D01*
G01X3533392Y9672406D01*
G01X3531552Y9670910D01*
G01X3528064Y9667859D01*
G01X3526412Y9666863D01*
G01X3524818Y9666594D01*
G01X3523280Y9667330D01*
G01X3523280Y9637330D01*
G01X3524144Y9638201D01*
G01X3524976Y9639236D01*
G01X3526571Y9641677D01*
G01X3529692Y9647191D01*
G01X3531333Y9649778D01*
G01X3532200Y9650922D01*
G01X3533106Y9651927D01*
G01X3534060Y9652761D01*
G01X3535069Y9653395D01*
G01X3536140Y9653797D01*
G01X3537280Y9653938D01*
G37*
G36*
G01X3483722Y9640153D02*
G01X3497864Y9626011D01*
G01X3499116Y9627118D01*
G01X3500621Y9628209D01*
G01X3502314Y9629247D01*
G01X3504130Y9630196D01*
G01X3506002Y9631019D01*
G01X3507865Y9631680D01*
G01X3509655Y9632142D01*
G01X3511304Y9632370D01*
G01X3490091Y9653583D01*
G01X3489863Y9651932D01*
G01X3489400Y9650143D01*
G01X3488738Y9648282D01*
G01X3487914Y9646413D01*
G01X3486964Y9644600D01*
G01X3485924Y9642910D01*
G01X3484831Y9641406D01*
G01X3483722Y9640153D01*
G37*
G36*
G01X3492875Y9491022D02*
G01X3478682Y9505113D01*
G01X3477441Y9504016D01*
G01X3475931Y9502933D01*
G01X3474223Y9501901D01*
G01X3472389Y9500956D01*
G01X3470498Y9500135D01*
G01X3468621Y9499474D01*
G01X3466829Y9499010D01*
G01X3465192Y9498779D01*
G01X3486481Y9477641D01*
G01X3486705Y9479305D01*
G01X3487166Y9481091D01*
G01X3487828Y9482939D01*
G01X3488654Y9484789D01*
G01X3489608Y9486583D01*
G01X3490654Y9488259D01*
G01X3491755Y9489759D01*
G01X3492875Y9491022D01*
G37*
G36*
G01X3433750Y9418734D02*
G01X3433750Y9438734D01*
G01X3431687Y9439228D01*
G01X3429758Y9440560D01*
G01X3427942Y9442512D01*
G01X3426215Y9444862D01*
G01X3422939Y9449870D01*
G01X3421345Y9452087D01*
G01X3419750Y9453818D01*
G01X3419750Y9423818D01*
G01X3421213Y9424538D01*
G01X3422806Y9424402D01*
G01X3424505Y9423646D01*
G01X3428126Y9421204D01*
G01X3429999Y9419988D01*
G01X3431881Y9419087D01*
G01X3433750Y9418734D01*
G37*
G36*
G01X4911458Y9706051D02*
G01X4891458Y9706051D01*
G01X4891556Y9704548D01*
G01X4892361Y9698722D01*
G01X4892521Y9696713D01*
G01X4892490Y9694857D01*
G01X4892183Y9693266D01*
G01X4891518Y9692051D01*
G01X4921518Y9692051D01*
G01X4919642Y9693978D01*
G01X4916125Y9696982D01*
G01X4914602Y9698338D01*
G01X4913925Y9699041D01*
G01X4913315Y9699783D01*
G01X4912778Y9700583D01*
G01X4912323Y9701458D01*
G01X4911956Y9702424D01*
G01X4911684Y9703500D01*
G01X4911516Y9704703D01*
G01X4911458Y9706051D01*
G37*
G36*
G01X4884257Y9668724D02*
G01X4896419Y9656561D01*
G01X4897691Y9657630D01*
G01X4898957Y9658322D01*
G01X4900241Y9658713D01*
G01X4901567Y9658881D01*
G01X4904441Y9658855D01*
G01X4906037Y9658816D01*
G01X4907770Y9658862D01*
G01X4886557Y9680075D01*
G01X4886512Y9678341D01*
G01X4886598Y9675263D01*
G01X4886576Y9673871D01*
G01X4886408Y9672546D01*
G01X4886017Y9671262D01*
G01X4885326Y9669996D01*
G01X4884257Y9668724D01*
G37*
G36*
G01X4281326Y9275021D02*
G01X4282345Y9255047D01*
G01X4284004Y9255024D01*
G01X4285850Y9254812D01*
G01X4287807Y9254430D01*
G01X4289798Y9253898D01*
G01X4291748Y9253237D01*
G01X4293580Y9252465D01*
G01X4295218Y9251604D01*
G01X4296586Y9250672D01*
G01X4295059Y9280633D01*
G01X4293775Y9279555D01*
G01X4292232Y9278543D01*
G01X4290498Y9277619D01*
G01X4288641Y9276802D01*
G01X4286727Y9276114D01*
G01X4284825Y9275574D01*
G01X4283002Y9275203D01*
G01X4281326Y9275021D01*
G37*
G36*
G01X5077722Y9469001D02*
G01X5098936Y9490213D01*
G01X5097803Y9491207D01*
G01X5093111Y9494754D01*
G01X5091576Y9496059D01*
G01X5090285Y9497392D01*
G01X5089377Y9498734D01*
G01X5088988Y9500064D01*
G01X5067773Y9478852D01*
G01X5069993Y9478505D01*
G01X5071566Y9477821D01*
G01X5072676Y9476841D01*
G01X5073507Y9475609D01*
G01X5075068Y9472556D01*
G01X5076166Y9470820D01*
G01X5077722Y9469001D01*
G37*
G36*
G01X2580072Y9238233D02*
G01X2565930Y9252375D01*
G01X2564510Y9250518D01*
G01X2563275Y9248175D01*
G01X2561006Y9242916D01*
G01X2559796Y9240440D01*
G01X2558420Y9238360D01*
G01X2556788Y9236895D01*
G01X2554813Y9236267D01*
G01X2583982Y9207099D01*
G01X2583962Y9208916D01*
G01X2583711Y9210848D01*
G01X2583271Y9212875D01*
G01X2582001Y9217128D01*
G01X2579102Y9225838D01*
G01X2578553Y9227936D01*
G01X2578162Y9229960D01*
G01X2577971Y9231889D01*
G01X2578024Y9233701D01*
G01X2578362Y9235377D01*
G01X2579031Y9236895D01*
G01X2580072Y9238233D01*
G37*
G36*
G01X2439364Y9214274D02*
G01X2411076Y9185994D01*
G01X2412546Y9184701D01*
G01X2413954Y9183717D01*
G01X2416437Y9182162D01*
G01X2417442Y9181334D01*
G01X2418241Y9180301D01*
G01X2418799Y9178934D01*
G01X2419081Y9177105D01*
G01X2448253Y9206270D01*
G01X2446425Y9206552D01*
G01X2445058Y9207111D01*
G01X2444024Y9207910D01*
G01X2443196Y9208915D01*
G01X2441640Y9211397D01*
G01X2440656Y9212804D01*
G01X2439364Y9214274D01*
G37*
G36*
G01X2423974Y9180134D02*
G01X2423974Y9220134D01*
G01X2422086Y9219824D01*
G01X2420409Y9218955D01*
G01X2418919Y9217620D01*
G01X2417587Y9215909D01*
G01X2416391Y9213914D01*
G01X2414296Y9209440D01*
G01X2411518Y9202890D01*
G01X2410586Y9201117D01*
G01X2409608Y9199702D01*
G01X2408558Y9198735D01*
G01X2407411Y9198310D01*
G01X2406141Y9198517D01*
G01X2404723Y9199449D01*
G01X2404723Y9158198D01*
G01X2405873Y9159348D01*
G01X2406995Y9160715D01*
G01X2409188Y9163939D01*
G01X2413571Y9171222D01*
G01X2415879Y9174639D01*
G01X2417087Y9176151D01*
G01X2418342Y9177478D01*
G01X2419651Y9178580D01*
G01X2421021Y9179416D01*
G01X2422459Y9179948D01*
G01X2423974Y9180134D01*
G37*
G36*
G01X2349093Y9220134D02*
G01X2349093Y9180134D01*
G01X2350607Y9179948D01*
G01X2352045Y9179416D01*
G01X2353415Y9178580D01*
G01X2354724Y9177478D01*
G01X2355979Y9176151D01*
G01X2357188Y9174639D01*
G01X2359495Y9171222D01*
G01X2363878Y9163939D01*
G01X2366071Y9160715D01*
G01X2367193Y9159348D01*
G01X2368343Y9158198D01*
G01X2368343Y9199449D01*
G01X2366925Y9198517D01*
G01X2365655Y9198310D01*
G01X2364508Y9198735D01*
G01X2363459Y9199702D01*
G01X2362481Y9201117D01*
G01X2361548Y9202890D01*
G01X2358770Y9209440D01*
G01X2356676Y9213914D01*
G01X2355479Y9215909D01*
G01X2354148Y9217620D01*
G01X2352657Y9218955D01*
G01X2350981Y9219824D01*
G01X2349093Y9220134D01*
G37*
G36*
G01X2596507Y9296248D02*
G01X2576507Y9296248D01*
G01X2576447Y9294778D01*
G01X2576269Y9293367D01*
G01X2575983Y9292011D01*
G01X2575597Y9290705D01*
G01X2575117Y9289443D01*
G01X2574551Y9288221D01*
G01X2573908Y9287032D01*
G01X2572420Y9284735D01*
G01X2570714Y9282512D01*
G01X2565907Y9276998D01*
G01X2607158Y9276998D01*
G01X2602328Y9282517D01*
G01X2600615Y9284735D01*
G01X2599119Y9287025D01*
G01X2598473Y9288211D01*
G01X2597905Y9289432D01*
G01X2597423Y9290693D01*
G01X2597034Y9291999D01*
G01X2596747Y9293357D01*
G01X2596569Y9294772D01*
G01X2596507Y9296248D01*
G37*
G36*
G01X2552974Y9239419D02*
G01X2567116Y9225277D01*
G01X2568202Y9226277D01*
G01X2569328Y9227151D01*
G01X2570491Y9227908D01*
G01X2571690Y9228557D01*
G01X2572922Y9229108D01*
G01X2574187Y9229570D01*
G01X2575483Y9229952D01*
G01X2578159Y9230515D01*
G01X2580939Y9230873D01*
G01X2588255Y9231362D01*
G01X2559086Y9260530D01*
G01X2558588Y9253230D01*
G01X2558222Y9250452D01*
G01X2557652Y9247775D01*
G01X2557266Y9246480D01*
G01X2556802Y9245215D01*
G01X2556250Y9243984D01*
G01X2555600Y9242786D01*
G01X2554843Y9241625D01*
G01X2553971Y9240502D01*
G01X2552974Y9239419D01*
G37*
G36*
G01X2576507Y9296450D02*
G01X2596507Y9296450D01*
G01X2596568Y9297924D01*
G01X2596746Y9299336D01*
G01X2597033Y9300693D01*
G01X2597421Y9301999D01*
G01X2597902Y9303261D01*
G01X2598469Y9304482D01*
G01X2599113Y9305670D01*
G01X2600605Y9307963D01*
G01X2602314Y9310184D01*
G01X2607133Y9315700D01*
G01X2565882Y9315700D01*
G01X2570700Y9310184D01*
G01X2572410Y9307963D01*
G01X2573902Y9305670D01*
G01X2574546Y9304482D01*
G01X2575113Y9303261D01*
G01X2575594Y9301999D01*
G01X2575982Y9300693D01*
G01X2576269Y9299336D01*
G01X2576446Y9297924D01*
G01X2576507Y9296450D01*
G37*
G36*
G01X2620063Y9353237D02*
G01X2605967Y9367425D01*
G01X2604885Y9366436D01*
G01X2603763Y9365569D01*
G01X2602602Y9364817D01*
G01X2601404Y9364170D01*
G01X2600171Y9363619D01*
G01X2598906Y9363155D01*
G01X2597610Y9362769D01*
G01X2594932Y9362197D01*
G01X2592155Y9361831D01*
G01X2584874Y9361342D01*
G01X2613948Y9332079D01*
G01X2614447Y9339415D01*
G01X2614804Y9342195D01*
G01X2615365Y9344871D01*
G01X2615748Y9346166D01*
G01X2616210Y9347430D01*
G01X2616762Y9348662D01*
G01X2617414Y9349860D01*
G01X2618175Y9351022D01*
G01X2619055Y9352149D01*
G01X2620063Y9353237D01*
G37*
G36*
G01X2595458Y9356984D02*
G01X2609554Y9342796D01*
G01X2611271Y9344291D01*
G01X2613359Y9345764D01*
G01X2615718Y9347166D01*
G01X2618252Y9348447D01*
G01X2620863Y9349558D01*
G01X2623451Y9350448D01*
G01X2625920Y9351069D01*
G01X2628171Y9351371D01*
G01X2599097Y9380634D01*
G01X2599023Y9378685D01*
G01X2599152Y9375119D01*
G01X2599785Y9369008D01*
G01X2599870Y9367628D01*
G01X2599875Y9366285D01*
G01X2599772Y9364968D01*
G01X2599537Y9363665D01*
G01X2599142Y9362366D01*
G01X2598563Y9361060D01*
G01X2597774Y9359734D01*
G01X2596747Y9358380D01*
G01X2595458Y9356984D01*
G37*
G36*
G01X2579316Y9464210D02*
G01X2551032Y9435925D01*
G01X2552512Y9434629D01*
G01X2553928Y9433651D01*
G01X2556426Y9432124D01*
G01X2557437Y9431311D01*
G01X2558241Y9430289D01*
G01X2558803Y9428925D01*
G01X2559086Y9427088D01*
G01X2588255Y9456257D01*
G01X2586435Y9456537D01*
G01X2585065Y9457092D01*
G01X2584020Y9457887D01*
G01X2583177Y9458885D01*
G01X2581594Y9461352D01*
G01X2580604Y9462750D01*
G01X2579316Y9464210D01*
G37*
G36*
G01X2565174Y9430068D02*
G01X2565174Y9470067D01*
G01X2562847Y9470701D01*
G01X2561222Y9472413D01*
G01X2560093Y9474920D01*
G01X2558504Y9481182D01*
G01X2557632Y9484370D01*
G01X2556436Y9487218D01*
G01X2554710Y9489441D01*
G01X2554710Y9448190D01*
G01X2556511Y9448883D01*
G01X2557708Y9447522D01*
G01X2558532Y9444709D01*
G01X2559989Y9437154D01*
G01X2561086Y9433620D01*
G01X2562737Y9431057D01*
G01X2565174Y9430068D01*
G37*
G36*
G01X2499080Y9470067D02*
G01X2499080Y9430068D01*
G01X2500854Y9430343D01*
G01X2502458Y9431116D01*
G01X2503912Y9432304D01*
G01X2505236Y9433825D01*
G01X2506451Y9435596D01*
G01X2508632Y9439564D01*
G01X2511583Y9445348D01*
G01X2512563Y9446903D01*
G01X2513573Y9448135D01*
G01X2514635Y9448961D01*
G01X2515769Y9449301D01*
G01X2516994Y9449071D01*
G01X2518330Y9448190D01*
G01X2518330Y9489441D01*
G01X2517290Y9488425D01*
G01X2515142Y9485854D01*
G01X2509391Y9477938D01*
G01X2506941Y9474920D01*
G01X2505683Y9473585D01*
G01X2504405Y9472413D01*
G01X2503105Y9471440D01*
G01X2501784Y9470701D01*
G01X2500442Y9470232D01*
G01X2499080Y9470067D01*
G37*
G36*
G01X2513966Y9430068D02*
G01X2513966Y9470067D01*
G01X2512603Y9470232D01*
G01X2511261Y9470701D01*
G01X2509941Y9471440D01*
G01X2508641Y9472413D01*
G01X2507362Y9473585D01*
G01X2506105Y9474920D01*
G01X2503654Y9477938D01*
G01X2497904Y9485854D01*
G01X2495756Y9488425D01*
G01X2494715Y9489441D01*
G01X2494715Y9448190D01*
G01X2496052Y9449071D01*
G01X2497277Y9449301D01*
G01X2498410Y9448961D01*
G01X2499472Y9448135D01*
G01X2500483Y9446903D01*
G01X2501462Y9445348D01*
G01X2504414Y9439564D01*
G01X2506595Y9435596D01*
G01X2507810Y9433825D01*
G01X2509134Y9432304D01*
G01X2510588Y9431116D01*
G01X2512192Y9430343D01*
G01X2513966Y9430068D01*
G37*
G36*
G01X2439085Y9470067D02*
G01X2439085Y9430068D01*
G01X2440859Y9430343D01*
G01X2442463Y9431116D01*
G01X2443917Y9432304D01*
G01X2445241Y9433825D01*
G01X2446456Y9435596D01*
G01X2448637Y9439564D01*
G01X2451589Y9445348D01*
G01X2452568Y9446903D01*
G01X2453579Y9448135D01*
G01X2454641Y9448961D01*
G01X2455774Y9449301D01*
G01X2456999Y9449071D01*
G01X2458335Y9448190D01*
G01X2458335Y9489441D01*
G01X2457295Y9488425D01*
G01X2455147Y9485854D01*
G01X2449397Y9477938D01*
G01X2446946Y9474920D01*
G01X2445689Y9473585D01*
G01X2444410Y9472413D01*
G01X2443110Y9471440D01*
G01X2441789Y9470701D01*
G01X2440447Y9470232D01*
G01X2439085Y9470067D01*
G37*
G36*
G01X2379090Y9465067D02*
G01X2379090Y9435067D01*
G01X2380642Y9435277D01*
G01X2382105Y9435863D01*
G01X2383487Y9436762D01*
G01X2384798Y9437912D01*
G01X2386047Y9439248D01*
G01X2388397Y9442228D01*
G01X2391687Y9446518D01*
G01X2392759Y9447647D01*
G01X2393833Y9448520D01*
G01X2394919Y9449075D01*
G01X2396026Y9449246D01*
G01X2397164Y9448972D01*
G01X2398341Y9448190D01*
G01X2398341Y9489441D01*
G01X2397087Y9488163D01*
G01X2395908Y9486644D01*
G01X2394788Y9484929D01*
G01X2392670Y9481088D01*
G01X2388514Y9473013D01*
G01X2387408Y9471173D01*
G01X2386245Y9469493D01*
G01X2385013Y9468019D01*
G01X2383696Y9466795D01*
G01X2382279Y9465865D01*
G01X2380749Y9465274D01*
G01X2379090Y9465067D01*
G37*
G36*
G01X2453971Y9430068D02*
G01X2453971Y9470067D01*
G01X2452609Y9470232D01*
G01X2451267Y9470701D01*
G01X2449946Y9471440D01*
G01X2448646Y9472413D01*
G01X2447367Y9473585D01*
G01X2446110Y9474920D01*
G01X2443659Y9477938D01*
G01X2437909Y9485854D01*
G01X2435761Y9488425D01*
G01X2434721Y9489441D01*
G01X2434721Y9448190D01*
G01X2436057Y9449071D01*
G01X2437282Y9449301D01*
G01X2438415Y9448961D01*
G01X2439477Y9448135D01*
G01X2440488Y9446903D01*
G01X2441467Y9445348D01*
G01X2444419Y9439564D01*
G01X2446600Y9435596D01*
G01X2447815Y9433825D01*
G01X2449139Y9432304D01*
G01X2450593Y9431116D01*
G01X2452197Y9430343D01*
G01X2453971Y9430068D01*
G37*
G36*
G01X2379090Y9470067D02*
G01X2379090Y9430068D01*
G01X2380864Y9430343D01*
G01X2382468Y9431116D01*
G01X2383922Y9432304D01*
G01X2385246Y9433825D01*
G01X2386461Y9435596D01*
G01X2388642Y9439564D01*
G01X2391594Y9445348D01*
G01X2392573Y9446903D01*
G01X2393584Y9448135D01*
G01X2394646Y9448961D01*
G01X2395779Y9449301D01*
G01X2397004Y9449071D01*
G01X2398341Y9448190D01*
G01X2398341Y9489441D01*
G01X2397300Y9488425D01*
G01X2395152Y9485854D01*
G01X2389402Y9477938D01*
G01X2386951Y9474920D01*
G01X2385694Y9473585D01*
G01X2384415Y9472413D01*
G01X2383115Y9471440D01*
G01X2381795Y9470701D01*
G01X2380453Y9470232D01*
G01X2379090Y9470067D01*
G37*
G36*
G01X2393976Y9435067D02*
G01X2393976Y9465067D01*
G01X2392318Y9465274D01*
G01X2390787Y9465865D01*
G01X2389371Y9466795D01*
G01X2388053Y9468019D01*
G01X2386821Y9469493D01*
G01X2385659Y9471173D01*
G01X2383487Y9474969D01*
G01X2379353Y9483062D01*
G01X2378278Y9484929D01*
G01X2377159Y9486644D01*
G01X2375979Y9488163D01*
G01X2374726Y9489441D01*
G01X2374726Y9448190D01*
G01X2375903Y9448972D01*
G01X2377040Y9449246D01*
G01X2378147Y9449075D01*
G01X2379233Y9448520D01*
G01X2380308Y9447647D01*
G01X2381379Y9446518D01*
G01X2384670Y9442228D01*
G01X2387019Y9439248D01*
G01X2388269Y9437912D01*
G01X2389580Y9436762D01*
G01X2390962Y9435863D01*
G01X2392424Y9435277D01*
G01X2393976Y9435067D01*
G37*
G36*
G01X2319095Y9465067D02*
G01X2319095Y9435067D01*
G01X2320647Y9435277D01*
G01X2322110Y9435863D01*
G01X2323492Y9436762D01*
G01X2324803Y9437912D01*
G01X2326052Y9439248D01*
G01X2328402Y9442228D01*
G01X2331693Y9446518D01*
G01X2332764Y9447647D01*
G01X2333838Y9448520D01*
G01X2334924Y9449075D01*
G01X2336031Y9449246D01*
G01X2337169Y9448972D01*
G01X2338346Y9448190D01*
G01X2338346Y9489441D01*
G01X2337092Y9488163D01*
G01X2335913Y9486644D01*
G01X2334793Y9484929D01*
G01X2332675Y9481088D01*
G01X2328519Y9473013D01*
G01X2327413Y9471173D01*
G01X2326251Y9469493D01*
G01X2325018Y9468019D01*
G01X2323701Y9466795D01*
G01X2322284Y9465865D01*
G01X2320754Y9465274D01*
G01X2319095Y9465067D01*
G37*
G36*
G01X2393976Y9430068D02*
G01X2393976Y9470067D01*
G01X2392614Y9470232D01*
G01X2391272Y9470701D01*
G01X2389951Y9471440D01*
G01X2388651Y9472413D01*
G01X2387373Y9473585D01*
G01X2386115Y9474920D01*
G01X2383665Y9477938D01*
G01X2377914Y9485854D01*
G01X2375766Y9488425D01*
G01X2374726Y9489441D01*
G01X2374726Y9448190D01*
G01X2376062Y9449071D01*
G01X2377287Y9449301D01*
G01X2378421Y9448961D01*
G01X2379483Y9448135D01*
G01X2380493Y9446903D01*
G01X2381473Y9445348D01*
G01X2384424Y9439564D01*
G01X2386605Y9435596D01*
G01X2387820Y9433825D01*
G01X2389144Y9432304D01*
G01X2390598Y9431116D01*
G01X2392202Y9430343D01*
G01X2393976Y9430068D01*
G37*
G36*
G01X2319095Y9470067D02*
G01X2319095Y9430068D01*
G01X2320869Y9430343D01*
G01X2322473Y9431116D01*
G01X2323927Y9432304D01*
G01X2325252Y9433825D01*
G01X2326466Y9435596D01*
G01X2328647Y9439564D01*
G01X2331599Y9445348D01*
G01X2332579Y9446903D01*
G01X2333589Y9448135D01*
G01X2334651Y9448961D01*
G01X2335784Y9449301D01*
G01X2337009Y9449071D01*
G01X2338346Y9448190D01*
G01X2338346Y9489441D01*
G01X2337305Y9488425D01*
G01X2335158Y9485854D01*
G01X2329407Y9477938D01*
G01X2326956Y9474920D01*
G01X2325699Y9473585D01*
G01X2324420Y9472413D01*
G01X2323121Y9471440D01*
G01X2321800Y9470701D01*
G01X2320458Y9470232D01*
G01X2319095Y9470067D01*
G37*
G36*
G01X4371462Y9378544D02*
G01X4351462Y9378544D01*
G01X4351364Y9376863D01*
G01X4351084Y9375025D01*
G01X4350637Y9373097D01*
G01X4350042Y9371149D01*
G01X4349317Y9369251D01*
G01X4348479Y9367470D01*
G01X4347546Y9365878D01*
G01X4346536Y9364544D01*
G01X4376536Y9364544D01*
G01X4375535Y9365864D01*
G01X4374592Y9367456D01*
G01X4373732Y9369245D01*
G01X4372976Y9371157D01*
G01X4372348Y9373117D01*
G01X4371871Y9375051D01*
G01X4371568Y9376885D01*
G01X4371462Y9378544D01*
G37*
G36*
G01X4351536Y9324086D02*
G01X4371536Y9324086D01*
G01X4371637Y9325755D01*
G01X4371929Y9327591D01*
G01X4372391Y9329523D01*
G01X4373002Y9331477D01*
G01X4373743Y9333382D01*
G01X4374592Y9335166D01*
G01X4375530Y9336758D01*
G01X4376536Y9338086D01*
G01X4346536Y9338086D01*
G01X4347541Y9336758D01*
G01X4348479Y9335166D01*
G01X4349328Y9333382D01*
G01X4350069Y9331477D01*
G01X4350680Y9329523D01*
G01X4351142Y9327591D01*
G01X4351434Y9325755D01*
G01X4351536Y9324086D01*
G37*
G36*
G01X3115191Y9455971D02*
G01X3101048Y9441829D01*
G01X3102222Y9440458D01*
G01X3103265Y9438861D01*
G01X3104172Y9437091D01*
G01X3104941Y9435203D01*
G01X3105570Y9433252D01*
G01X3106053Y9431291D01*
G01X3106390Y9429375D01*
G01X3106576Y9427558D01*
G01X3127790Y9448771D01*
G01X3126003Y9449027D01*
G01X3124266Y9449543D01*
G01X3122584Y9450281D01*
G01X3120963Y9451202D01*
G01X3119407Y9452270D01*
G01X3117923Y9453446D01*
G01X3115191Y9455971D01*
G37*
G36*
G01X3722811Y9401040D02*
G01X3708669Y9415182D01*
G01X3707416Y9414073D01*
G01X3705912Y9412981D01*
G01X3704220Y9411942D01*
G01X3702406Y9410992D01*
G01X3700536Y9410169D01*
G01X3698674Y9409507D01*
G01X3696885Y9409044D01*
G01X3695235Y9408817D01*
G01X3716448Y9387604D01*
G01X3716676Y9389253D01*
G01X3717138Y9391042D01*
G01X3717800Y9392905D01*
G01X3718623Y9394776D01*
G01X3719572Y9396590D01*
G01X3720611Y9398283D01*
G01X3721703Y9399788D01*
G01X3722811Y9401040D01*
G37*
G36*
G01X3701661Y8998534D02*
G01X3681661Y8998534D01*
G01X3681552Y8996883D01*
G01X3681241Y8995051D01*
G01X3680753Y8993115D01*
G01X3680113Y8991150D01*
G01X3679346Y8989234D01*
G01X3678478Y8987441D01*
G01X3677532Y8985849D01*
G01X3676534Y8984534D01*
G01X3706534Y8984534D01*
G01X3705520Y8985874D01*
G01X3704591Y8987466D01*
G01X3703761Y8989243D01*
G01X3703047Y8991137D01*
G01X3702464Y8993080D01*
G01X3702029Y8995006D01*
G01X3701756Y8996846D01*
G01X3701661Y8998534D01*
G37*
G36*
G01X4407171Y9184225D02*
G01X4421313Y9198367D01*
G01X4420205Y9199619D01*
G01X4419113Y9201124D01*
G01X4418073Y9202815D01*
G01X4417124Y9204629D01*
G01X4416300Y9206499D01*
G01X4415638Y9208362D01*
G01X4415176Y9210150D01*
G01X4414948Y9211800D01*
G01X4393735Y9190587D01*
G01X4395385Y9190360D01*
G01X4397174Y9189897D01*
G01X4399036Y9189236D01*
G01X4400907Y9188412D01*
G01X4402722Y9187463D01*
G01X4404414Y9186424D01*
G01X4405919Y9185333D01*
G01X4407171Y9184225D01*
G37*
G36*
G01X4382806Y9236874D02*
G01X4368664Y9222732D01*
G01X4369772Y9221480D01*
G01X4370864Y9219975D01*
G01X4371902Y9218282D01*
G01X4372852Y9216468D01*
G01X4373675Y9214597D01*
G01X4374337Y9212734D01*
G01X4374799Y9210945D01*
G01X4375027Y9209296D01*
G01X4396240Y9230509D01*
G01X4394590Y9230736D01*
G01X4392801Y9231199D01*
G01X4390939Y9231861D01*
G01X4389068Y9232684D01*
G01X4387255Y9233634D01*
G01X4385563Y9234673D01*
G01X4384059Y9235765D01*
G01X4382806Y9236874D01*
G37*
G36*
G01X3851519Y9016035D02*
G01X3831519Y9016035D01*
G01X3831614Y9014535D01*
G01X3832391Y9008706D01*
G01X3832541Y9006695D01*
G01X3832501Y9004838D01*
G01X3832190Y9003247D01*
G01X3831525Y9002035D01*
G01X3861525Y9002035D01*
G01X3859659Y9003955D01*
G01X3856160Y9006963D01*
G01X3854646Y9008326D01*
G01X3853973Y9009032D01*
G01X3853366Y9009777D01*
G01X3852832Y9010579D01*
G01X3852379Y9011454D01*
G01X3852014Y9012420D01*
G01X3851744Y9013494D01*
G01X3851576Y9014693D01*
G01X3851519Y9016035D01*
G37*
G36*
G01X4293743Y8878730D02*
G01X4293743Y8898730D01*
G01X4292088Y8898838D01*
G01X4290256Y8899145D01*
G01X4288320Y8899628D01*
G01X4286358Y8900262D01*
G01X4284443Y8901023D01*
G01X4282653Y8901888D01*
G01X4281061Y8902832D01*
G01X4279743Y8903832D01*
G01X4279743Y8873832D01*
G01X4281081Y8874844D01*
G01X4282673Y8875775D01*
G01X4284451Y8876609D01*
G01X4286347Y8877328D01*
G01X4288293Y8877917D01*
G01X4290219Y8878357D01*
G01X4292059Y8878634D01*
G01X4293743Y8878730D01*
G37*
G36*
G01X3656521Y9471584D02*
G01X3676520Y9471584D01*
G01X3676622Y9473254D01*
G01X3676913Y9475090D01*
G01X3677374Y9477021D01*
G01X3677984Y9478975D01*
G01X3678723Y9480879D01*
G01X3679572Y9482664D01*
G01X3680509Y9484256D01*
G01X3681515Y9485584D01*
G01X3651515Y9485584D01*
G01X3652521Y9484257D01*
G01X3653459Y9482665D01*
G01X3654309Y9480880D01*
G01X3655050Y9478974D01*
G01X3655663Y9477020D01*
G01X3656126Y9475088D01*
G01X3656418Y9473253D01*
G01X3656521Y9471584D01*
G37*
G36*
G01X3629304Y9571322D02*
G01X3629304Y9551322D01*
G01X3630974Y9551220D01*
G01X3632810Y9550928D01*
G01X3634741Y9550467D01*
G01X3636695Y9549855D01*
G01X3638600Y9549115D01*
G01X3640385Y9548266D01*
G01X3641977Y9547328D01*
G01X3643304Y9546322D01*
G01X3643304Y9576322D01*
G01X3641977Y9575316D01*
G01X3640385Y9574378D01*
G01X3638600Y9573529D01*
G01X3636695Y9572789D01*
G01X3634741Y9572177D01*
G01X3632810Y9571716D01*
G01X3630974Y9571424D01*
G01X3629304Y9571322D01*
G37*
G36*
G01X3619221Y9623903D02*
G01X3619221Y9603903D01*
G01X3621591Y9604082D01*
G01X3623591Y9604517D01*
G01X3626868Y9605526D01*
G01X3628336Y9605787D01*
G01X3629820Y9605679D01*
G01X3631416Y9605044D01*
G01X3633221Y9603726D01*
G01X3633221Y9633726D01*
G01X3631325Y9631894D01*
G01X3628302Y9628459D01*
G01X3626917Y9626972D01*
G01X3626200Y9626312D01*
G01X3625445Y9625716D01*
G01X3624636Y9625192D01*
G01X3623758Y9624747D01*
G01X3622793Y9624388D01*
G01X3621726Y9624123D01*
G01X3620540Y9623959D01*
G01X3619221Y9623903D01*
G37*
G36*
G01X4466450Y9566046D02*
G01X4446450Y9566046D01*
G01X4445962Y9563999D01*
G01X4444643Y9562074D01*
G01X4442711Y9560253D01*
G01X4440387Y9558517D01*
G01X4433237Y9553631D01*
G01X4431524Y9552046D01*
G01X4461524Y9552046D01*
G01X4460806Y9553501D01*
G01X4460927Y9555094D01*
G01X4461659Y9556799D01*
G01X4464038Y9560433D01*
G01X4465225Y9562310D01*
G01X4466106Y9564190D01*
G01X4466450Y9566046D01*
G37*
G36*
G01X4446450Y9511589D02*
G01X4466450Y9511589D01*
G01X4466106Y9513446D01*
G01X4465225Y9515326D01*
G01X4462773Y9519048D01*
G01X4461659Y9520836D01*
G01X4460927Y9522541D01*
G01X4460806Y9524134D01*
G01X4461524Y9525589D01*
G01X4431524Y9525589D01*
G01X4433237Y9524004D01*
G01X4440387Y9519118D01*
G01X4442711Y9517382D01*
G01X4444643Y9515561D01*
G01X4445962Y9513637D01*
G01X4446450Y9511589D01*
G37*
G36*
G01X4427464Y9423771D02*
G01X4441607Y9437913D01*
G01X4438913Y9440632D01*
G01X4437666Y9442008D01*
G01X4436537Y9443429D01*
G01X4435564Y9444921D01*
G01X4434787Y9446509D01*
G01X4434244Y9448219D01*
G01X4433973Y9450077D01*
G01X4412758Y9428865D01*
G01X4416709Y9428444D01*
G01X4418707Y9428070D01*
G01X4420672Y9427560D01*
G01X4422567Y9426895D01*
G01X4424355Y9426055D01*
G01X4426000Y9425020D01*
G01X4427464Y9423771D01*
G37*
G36*
G01X4418193Y9476054D02*
G01X4398193Y9476054D01*
G01X4398329Y9474496D01*
G01X4399528Y9468704D01*
G01X4399838Y9466730D01*
G01X4399925Y9464898D01*
G01X4399686Y9463306D01*
G01X4399012Y9462054D01*
G01X4429012Y9462054D01*
G01X4427999Y9463132D01*
G01X4426994Y9464081D01*
G01X4425039Y9465679D01*
G01X4422365Y9467654D01*
G01X4421574Y9468287D01*
G01X4420846Y9468945D01*
G01X4420190Y9469648D01*
G01X4419613Y9470418D01*
G01X4419123Y9471279D01*
G01X4418728Y9472251D01*
G01X4418436Y9473356D01*
G01X4418255Y9474617D01*
G01X4418193Y9476054D01*
G37*
G36*
G01X4289298Y9223853D02*
G01X4289298Y9203853D01*
G01X4290642Y9203795D01*
G01X4291844Y9203627D01*
G01X4292919Y9203356D01*
G01X4293885Y9202990D01*
G01X4294760Y9202536D01*
G01X4295561Y9202001D01*
G01X4296305Y9201392D01*
G01X4297009Y9200718D01*
G01X4298369Y9199199D01*
G01X4301375Y9195692D01*
G01X4303298Y9193821D01*
G01X4303298Y9223821D01*
G01X4302085Y9223156D01*
G01X4300494Y9222847D01*
G01X4298637Y9222811D01*
G01X4296627Y9222966D01*
G01X4290799Y9223756D01*
G01X4289298Y9223853D01*
G37*
G36*
G01X3966393Y10071583D02*
G01X3986393Y10071583D01*
G01X3986502Y10073233D01*
G01X3986814Y10075065D01*
G01X3987302Y10077001D01*
G01X3987943Y10078966D01*
G01X3988710Y10080883D01*
G01X3989579Y10082676D01*
G01X3990525Y10084268D01*
G01X3991522Y10085583D01*
G01X3961522Y10085583D01*
G01X3962537Y10084242D01*
G01X3963466Y10082650D01*
G01X3964296Y10080874D01*
G01X3965009Y10078980D01*
G01X3965591Y10077037D01*
G01X3966026Y10075111D01*
G01X3966299Y10073271D01*
G01X3966393Y10071583D01*
G37*
G36*
G01X4186608Y9118857D02*
G01X4206608Y9118857D01*
G01X4207030Y9121097D01*
G01X4208141Y9122621D01*
G01X4209711Y9123972D01*
G01X4211512Y9125691D01*
G01X4181512Y9125691D01*
G01X4182463Y9124726D01*
G01X4184244Y9123275D01*
G01X4185016Y9122635D01*
G01X4185668Y9121950D01*
G01X4186170Y9121144D01*
G01X4186494Y9120138D01*
G01X4186608Y9118857D01*
G37*
G36*
G01X4208688Y9156931D02*
G01X4194181Y9170698D01*
G01X4193502Y9169272D01*
G01X4193594Y9167530D01*
G01X4194179Y9165623D01*
G01X4195710Y9161910D01*
G01X4196101Y9160404D01*
G01X4195870Y9159331D01*
G01X4194738Y9158841D01*
G01X4216498Y9138189D01*
G01X4216400Y9139500D01*
G01X4216038Y9140800D01*
G01X4215459Y9142087D01*
G01X4214707Y9143361D01*
G01X4212866Y9145859D01*
G01X4209941Y9149459D01*
G01X4209104Y9150613D01*
G01X4208410Y9151741D01*
G01X4207906Y9152841D01*
G01X4207637Y9153912D01*
G01X4207647Y9154952D01*
G01X4207982Y9155958D01*
G01X4208688Y9156931D01*
G37*
G36*
G01X4637847Y9686493D02*
G01X4655048Y9686493D01*
G01X4655191Y9688335D01*
G01X4655597Y9690212D01*
G01X4656229Y9692092D01*
G01X4657047Y9693947D01*
G01X4658016Y9695745D01*
G01X4659097Y9697455D01*
G01X4660254Y9699048D01*
G01X4661447Y9700493D01*
G01X4631447Y9700493D01*
G01X4632641Y9699048D01*
G01X4633797Y9697455D01*
G01X4634879Y9695745D01*
G01X4635847Y9693947D01*
G01X4636666Y9692092D01*
G01X4637297Y9690212D01*
G01X4637704Y9688335D01*
G01X4637847Y9686493D01*
G37*
G36*
G01X4202820Y9451027D02*
G01X4188678Y9465169D01*
G01X4187423Y9464055D01*
G01X4185922Y9462958D01*
G01X4184236Y9461915D01*
G01X4182431Y9460962D01*
G01X4180568Y9460135D01*
G01X4178711Y9459471D01*
G01X4176924Y9459007D01*
G01X4175270Y9458778D01*
G01X4196483Y9437565D01*
G01X4196709Y9439211D01*
G01X4197170Y9441001D01*
G01X4197829Y9442870D01*
G01X4198650Y9444748D01*
G01X4199596Y9446570D01*
G01X4200630Y9448269D01*
G01X4201717Y9449777D01*
G01X4202820Y9451027D01*
G37*
G36*
G01X4086535Y8841588D02*
G01X4106535Y8841588D01*
G01X4106635Y8843260D01*
G01X4106924Y8845097D01*
G01X4107381Y8847027D01*
G01X4107987Y8848980D01*
G01X4108723Y8850882D01*
G01X4109568Y8852666D01*
G01X4110505Y8854258D01*
G01X4111512Y8855588D01*
G01X4081512Y8855588D01*
G01X4082516Y8854262D01*
G01X4083456Y8852670D01*
G01X4084308Y8850884D01*
G01X4085053Y8848977D01*
G01X4085670Y8847021D01*
G01X4086136Y8845089D01*
G01X4086432Y8843254D01*
G01X4086535Y8841588D01*
G37*
G36*
G01X5066792Y10106503D02*
G01X5066792Y10086503D01*
G01X5068624Y10086087D01*
G01X5070498Y10084965D01*
G01X5072382Y10083322D01*
G01X5074242Y10081344D01*
G01X5079354Y10075261D01*
G01X5080792Y10073804D01*
G01X5080792Y10103804D01*
G01X5079447Y10103110D01*
G01X5077855Y10103035D01*
G01X5076081Y10103418D01*
G01X5074192Y10104095D01*
G01X5070329Y10105684D01*
G01X5068487Y10106271D01*
G01X5066792Y10106503D01*
G37*
G36*
G01X5083993Y10061575D02*
G01X5103993Y10061575D01*
G01X5104096Y10063240D01*
G01X5104392Y10065075D01*
G01X5104860Y10067008D01*
G01X5105477Y10068964D01*
G01X5106224Y10070872D01*
G01X5107077Y10072658D01*
G01X5108017Y10074250D01*
G01X5109021Y10075575D01*
G01X5079021Y10075575D01*
G01X5080028Y10074245D01*
G01X5080964Y10072653D01*
G01X5081809Y10070870D01*
G01X5082544Y10068967D01*
G01X5083149Y10067015D01*
G01X5083605Y10065086D01*
G01X5083893Y10063248D01*
G01X5083993Y10061575D01*
G37*
G36*
G01X5011534Y9806051D02*
G01X4991534Y9806051D01*
G01X4991436Y9804374D01*
G01X4991152Y9802535D01*
G01X4990702Y9800607D01*
G01X4990103Y9798658D01*
G01X4989375Y9796757D01*
G01X4988534Y9794976D01*
G01X4987600Y9793384D01*
G01X4986590Y9792051D01*
G01X5016590Y9792051D01*
G01X5015588Y9793373D01*
G01X5014647Y9794965D01*
G01X5013789Y9796753D01*
G01X5013037Y9798663D01*
G01X5012413Y9800622D01*
G01X5011940Y9802555D01*
G01X5011639Y9804390D01*
G01X5011534Y9806051D01*
G37*
G36*
G01X4626547Y8941587D02*
G01X4646546Y8941587D01*
G01X4646647Y8943261D01*
G01X4646934Y8945098D01*
G01X4647389Y8947028D01*
G01X4647994Y8948980D01*
G01X4648728Y8950882D01*
G01X4649572Y8952665D01*
G01X4650508Y8954257D01*
G01X4651516Y8955587D01*
G01X4621516Y8955587D01*
G01X4622520Y8954263D01*
G01X4623459Y8952671D01*
G01X4624313Y8950884D01*
G01X4625060Y8948976D01*
G01X4625678Y8947020D01*
G01X4626146Y8945088D01*
G01X4626443Y8943252D01*
G01X4626547Y8941587D01*
G37*
G36*
G01X4646546Y8996045D02*
G01X4626547Y8996045D01*
G01X4626443Y8994380D01*
G01X4626146Y8992545D01*
G01X4625678Y8990613D01*
G01X4625060Y8988656D01*
G01X4624313Y8986748D01*
G01X4623459Y8984961D01*
G01X4622520Y8983370D01*
G01X4621516Y8982045D01*
G01X4651516Y8982045D01*
G01X4650508Y8983375D01*
G01X4649572Y8984968D01*
G01X4648728Y8986750D01*
G01X4647994Y8988653D01*
G01X4647389Y8990604D01*
G01X4646934Y8992534D01*
G01X4646647Y8994371D01*
G01X4646546Y8996045D01*
G37*
G36*
G01X4540139Y9026685D02*
G01X4554282Y9012544D01*
G01X4555530Y9013642D01*
G01X4557041Y9014724D01*
G01X4558746Y9015755D01*
G01X4560575Y9016698D01*
G01X4562461Y9017516D01*
G01X4564334Y9018172D01*
G01X4566126Y9018632D01*
G01X4567768Y9018858D01*
G01X4546553Y9040069D01*
G01X4546324Y9038411D01*
G01X4545858Y9036625D01*
G01X4545192Y9034774D01*
G01X4544363Y9032918D01*
G01X4543406Y9031120D01*
G01X4542359Y9029440D01*
G01X4541258Y9027942D01*
G01X4540139Y9026685D01*
G37*
G36*
G01X4578668Y9012466D02*
G01X4592810Y9026608D01*
G01X4591708Y9027858D01*
G01X4590621Y9029366D01*
G01X4589587Y9031065D01*
G01X4588641Y9032888D01*
G01X4587821Y9034767D01*
G01X4587162Y9036635D01*
G01X4586701Y9038426D01*
G01X4586474Y9040071D01*
G01X4565261Y9018858D01*
G01X4566916Y9018629D01*
G01X4568703Y9018165D01*
G01X4570559Y9017501D01*
G01X4572422Y9016674D01*
G01X4574227Y9015721D01*
G01X4575912Y9014677D01*
G01X4577414Y9013580D01*
G01X4578668Y9012466D01*
G37*
G36*
G01X4554332Y9065142D02*
G01X4540188Y9051002D01*
G01X4541297Y9049749D01*
G01X4542389Y9048245D01*
G01X4543428Y9046553D01*
G01X4544378Y9044740D01*
G01X4545201Y9042870D01*
G01X4545863Y9041008D01*
G01X4546325Y9039219D01*
G01X4546553Y9037569D01*
G01X4567769Y9058779D01*
G01X4566119Y9059007D01*
G01X4564330Y9059470D01*
G01X4562467Y9060131D01*
G01X4560596Y9060955D01*
G01X4558781Y9061904D01*
G01X4557089Y9062943D01*
G01X4555584Y9064034D01*
G01X4554332Y9065142D01*
G37*
G36*
G01X4592838Y9050999D02*
G01X4578699Y9065143D01*
G01X4577446Y9064035D01*
G01X4575941Y9062943D01*
G01X4574250Y9061904D01*
G01X4572436Y9060954D01*
G01X4570566Y9060131D01*
G01X4568704Y9059469D01*
G01X4566915Y9059007D01*
G01X4565265Y9058779D01*
G01X4586474Y9037562D01*
G01X4586702Y9039212D01*
G01X4587165Y9041001D01*
G01X4587826Y9042864D01*
G01X4588650Y9044735D01*
G01X4589599Y9046549D01*
G01X4590638Y9048242D01*
G01X4591730Y9049747D01*
G01X4592838Y9050999D01*
G37*
G36*
G01X4226255Y9304426D02*
G01X4226255Y9323426D01*
G01X4224867Y9323485D01*
G01X4223638Y9323659D01*
G01X4222549Y9323940D01*
G01X4221580Y9324320D01*
G01X4220711Y9324791D01*
G01X4219925Y9325346D01*
G01X4219200Y9325977D01*
G01X4218518Y9326676D01*
G01X4217203Y9328251D01*
G01X4215063Y9330937D01*
G01X4213298Y9332854D01*
G01X4212255Y9333828D01*
G01X4212255Y9303828D01*
G01X4214018Y9305119D01*
G01X4215613Y9305780D01*
G01X4217124Y9305954D01*
G01X4218631Y9305779D01*
G01X4221960Y9304952D01*
G01X4223946Y9304581D01*
G01X4226255Y9304426D01*
G37*
G36*
G01X4223741Y9354210D02*
G01X4223741Y9373210D01*
G01X4221385Y9373802D01*
G01X4219389Y9375401D01*
G01X4217658Y9377743D01*
G01X4216099Y9380562D01*
G01X4213131Y9386572D01*
G01X4211535Y9389232D01*
G01X4209741Y9391308D01*
G01X4209741Y9361308D01*
G01X4211303Y9362050D01*
G01X4212897Y9361737D01*
G01X4214534Y9360665D01*
G01X4217979Y9357418D01*
G01X4219809Y9355832D01*
G01X4221726Y9354665D01*
G01X4223741Y9354210D01*
G37*
G36*
G01X4213758Y9504322D02*
G01X4213758Y9523321D01*
G01X4211435Y9523160D01*
G01X4209445Y9522774D01*
G01X4206128Y9521905D01*
G01X4204631Y9521710D01*
G01X4203126Y9521868D01*
G01X4201531Y9522523D01*
G01X4199758Y9523820D01*
G01X4199758Y9493820D01*
G01X4200809Y9494803D01*
G01X4202581Y9496739D01*
G01X4205361Y9500272D01*
G01X4206014Y9501040D01*
G01X4206690Y9501747D01*
G01X4207410Y9502384D01*
G01X4208193Y9502944D01*
G01X4209059Y9503419D01*
G01X4210029Y9503803D01*
G01X4211122Y9504086D01*
G01X4212358Y9504262D01*
G01X4213758Y9504322D01*
G37*
G36*
G01X4213758Y9556402D02*
G01X4213758Y9576402D01*
G01X4212078Y9576499D01*
G01X4210239Y9576780D01*
G01X4208311Y9577226D01*
G01X4206364Y9577820D01*
G01X4204465Y9578544D01*
G01X4202686Y9579382D01*
G01X4201093Y9580315D01*
G01X4199758Y9581326D01*
G01X4199758Y9551326D01*
G01X4201078Y9552327D01*
G01X4202670Y9553269D01*
G01X4204460Y9554130D01*
G01X4206372Y9554886D01*
G01X4208332Y9555515D01*
G01X4210267Y9555992D01*
G01X4212100Y9556296D01*
G01X4213758Y9556402D01*
G37*
G36*
G01X5072751Y9394825D02*
G01X5052751Y9394825D01*
G01X5052649Y9393155D01*
G01X5052358Y9391319D01*
G01X5051896Y9389388D01*
G01X5051286Y9387434D01*
G01X5050546Y9385529D01*
G01X5049697Y9383745D01*
G01X5048760Y9382153D01*
G01X5047753Y9380825D01*
G01X5077753Y9380825D01*
G01X5076748Y9382152D01*
G01X5075810Y9383744D01*
G01X5074960Y9385529D01*
G01X5074219Y9387435D01*
G01X5073608Y9389389D01*
G01X5073145Y9391320D01*
G01X5072853Y9393156D01*
G01X5072751Y9394825D01*
G37*
G36*
G01X5052751Y9284386D02*
G01X5072751Y9284386D01*
G01X5072853Y9286055D01*
G01X5073145Y9287891D01*
G01X5073608Y9289822D01*
G01X5074219Y9291776D01*
G01X5074960Y9293682D01*
G01X5075810Y9295467D01*
G01X5076748Y9297058D01*
G01X5077753Y9298386D01*
G01X5047753Y9298386D01*
G01X5048760Y9297058D01*
G01X5049697Y9295466D01*
G01X5050546Y9293681D01*
G01X5051286Y9291776D01*
G01X5051896Y9289823D01*
G01X5052358Y9287892D01*
G01X5052649Y9286056D01*
G01X5052751Y9284386D01*
G37*
G36*
G01X5145989Y9301637D02*
G01X5145989Y9321637D01*
G01X5144316Y9321738D01*
G01X5142480Y9322027D01*
G01X5140550Y9322484D01*
G01X5138597Y9323090D01*
G01X5136694Y9323825D01*
G01X5134911Y9324671D01*
G01X5133319Y9325607D01*
G01X5131989Y9326615D01*
G01X5131989Y9296615D01*
G01X5133315Y9297619D01*
G01X5134906Y9298558D01*
G01X5136693Y9299411D01*
G01X5138600Y9300156D01*
G01X5140556Y9300772D01*
G01X5142488Y9301239D01*
G01X5144323Y9301534D01*
G01X5145989Y9301637D01*
G37*
G36*
G01X5145989Y9353456D02*
G01X5145989Y9373456D01*
G01X5143616Y9373661D01*
G01X5141616Y9374241D01*
G01X5139889Y9375143D01*
G01X5138341Y9376312D01*
G01X5135391Y9379240D01*
G01X5131989Y9382596D01*
G01X5131989Y9352596D01*
G01X5133726Y9353870D01*
G01X5135321Y9354548D01*
G01X5136848Y9354761D01*
G01X5138379Y9354641D01*
G01X5141741Y9353927D01*
G01X5143718Y9353596D01*
G01X5145989Y9353456D01*
G37*
G36*
G01X4109288Y9933780D02*
G01X4109288Y9913780D01*
G01X4110961Y9913680D01*
G01X4112798Y9913391D01*
G01X4114728Y9912935D01*
G01X4116680Y9912329D01*
G01X4118583Y9911594D01*
G01X4120366Y9910749D01*
G01X4121958Y9909813D01*
G01X4123288Y9908805D01*
G01X4123288Y9938805D01*
G01X4121963Y9937801D01*
G01X4120371Y9936862D01*
G01X4118585Y9936009D01*
G01X4116677Y9935263D01*
G01X4114721Y9934646D01*
G01X4112789Y9934179D01*
G01X4110954Y9933883D01*
G01X4109288Y9933780D01*
G37*
G36*
G01X4726254Y9915180D02*
G01X4726254Y9932380D01*
G01X4724407Y9932524D01*
G01X4722530Y9932932D01*
G01X4720650Y9933566D01*
G01X4718799Y9934388D01*
G01X4717004Y9935361D01*
G01X4715295Y9936446D01*
G01X4713702Y9937607D01*
G01X4712254Y9938805D01*
G01X4712254Y9908805D01*
G01X4713696Y9909994D01*
G01X4715289Y9911146D01*
G01X4717001Y9912223D01*
G01X4718802Y9913188D01*
G01X4720660Y9914003D01*
G01X4722542Y9914632D01*
G01X4724417Y9915037D01*
G01X4726254Y9915180D01*
G37*
G36*
G01X4518812Y9716592D02*
G01X4544212Y9716592D01*
G01X4543947Y9722399D01*
G01X4543950Y9724126D01*
G01X4544129Y9725787D01*
G01X4544564Y9727403D01*
G01X4545332Y9728998D01*
G01X4546512Y9730592D01*
G01X4516512Y9730592D01*
G01X4517693Y9728998D01*
G01X4518461Y9727403D01*
G01X4518896Y9725787D01*
G01X4519075Y9724126D01*
G01X4519078Y9722399D01*
G01X4518812Y9716592D01*
G37*
G36*
G01X4871253Y9860616D02*
G01X4884754Y9873983D01*
G01X4883682Y9875238D01*
G01X4882638Y9876779D01*
G01X4881652Y9878530D01*
G01X4880757Y9880413D01*
G01X4879986Y9882351D01*
G01X4879370Y9884267D01*
G01X4878941Y9886083D01*
G01X4878733Y9887722D01*
G01X4857414Y9866615D01*
G01X4859102Y9866398D01*
G01X4860943Y9865981D01*
G01X4862866Y9865386D01*
G01X4864802Y9864638D01*
G01X4866679Y9863763D01*
G01X4868427Y9862785D01*
G01X4869975Y9861727D01*
G01X4871253Y9860616D01*
G37*
G36*
G01X4868296Y9913798D02*
G01X4849297Y9913798D01*
G01X4849173Y9912124D01*
G01X4848822Y9910287D01*
G01X4848276Y9908357D01*
G01X4847568Y9906406D01*
G01X4846731Y9904503D01*
G01X4845797Y9902720D01*
G01X4844798Y9901128D01*
G01X4843766Y9899798D01*
G01X4873766Y9899798D01*
G01X4872746Y9901120D01*
G01X4871758Y9902712D01*
G01X4870833Y9904500D01*
G01X4870006Y9906410D01*
G01X4869306Y9908369D01*
G01X4868766Y9910302D01*
G01X4868419Y9912136D01*
G01X4868296Y9913798D01*
G37*
G36*
G01X4744299Y9766579D02*
G01X4761499Y9766579D01*
G01X4761602Y9768245D01*
G01X4761899Y9770080D01*
G01X4762366Y9772012D01*
G01X4762984Y9773969D01*
G01X4763730Y9775876D01*
G01X4764584Y9777663D01*
G01X4765523Y9779255D01*
G01X4766527Y9780579D01*
G01X4736527Y9780579D01*
G01X4740694Y9775763D01*
G01X4741870Y9774130D01*
G01X4742864Y9772429D01*
G01X4743631Y9770626D01*
G01X4744124Y9768687D01*
G01X4744299Y9766579D01*
G37*
G36*
G01X4724298Y9803229D02*
G01X4724298Y9784230D01*
G01X4725951Y9784108D01*
G01X4727783Y9783764D01*
G01X4729719Y9783229D01*
G01X4731683Y9782536D01*
G01X4733599Y9781715D01*
G01X4735391Y9780799D01*
G01X4736982Y9779819D01*
G01X4738298Y9778808D01*
G01X4738298Y9808808D01*
G01X4736962Y9807768D01*
G01X4735370Y9806760D01*
G01X4733591Y9805817D01*
G01X4731694Y9804973D01*
G01X4729747Y9804259D01*
G01X4727820Y9803709D01*
G01X4725981Y9803354D01*
G01X4724298Y9803229D01*
G37*
G36*
G01X2317712Y9352581D02*
G01X2304912Y9339924D01*
G01X2305930Y9338731D01*
G01X2306922Y9337265D01*
G01X2307857Y9335601D01*
G01X2308704Y9333811D01*
G01X2309434Y9331970D01*
G01X2310016Y9330149D01*
G01X2310421Y9328422D01*
G01X2310618Y9326863D01*
G01X2330882Y9346902D01*
G01X2329270Y9347107D01*
G01X2327517Y9347500D01*
G01X2325688Y9348059D01*
G01X2323849Y9348763D01*
G01X2322065Y9349589D01*
G01X2320404Y9350515D01*
G01X2318931Y9351520D01*
G01X2317712Y9352581D01*
G37*
G36*
G01X2374561Y9302080D02*
G01X2392562Y9302080D01*
G01X2392680Y9303674D01*
G01X2393015Y9305420D01*
G01X2393535Y9307252D01*
G01X2394210Y9309104D01*
G01X2395008Y9310909D01*
G01X2395899Y9312601D01*
G01X2396852Y9314113D01*
G01X2397836Y9315380D01*
G01X2369337Y9315380D01*
G01X2370312Y9314120D01*
G01X2371255Y9312608D01*
G01X2372138Y9310912D01*
G01X2372928Y9309101D01*
G01X2373597Y9307243D01*
G01X2374112Y9305408D01*
G01X2374444Y9303664D01*
G01X2374561Y9302080D01*
G37*
G36*
G01X2410914Y9272068D02*
G01X2423580Y9259277D01*
G01X2424687Y9260993D01*
G01X2425251Y9263141D01*
G01X2425477Y9265523D01*
G01X2425738Y9270191D01*
G01X2426184Y9272079D01*
G01X2427114Y9273405D01*
G01X2428734Y9273970D01*
G01X2407625Y9295287D01*
G01X2407639Y9293912D01*
G01X2407836Y9292458D01*
G01X2408183Y9290938D01*
G01X2409193Y9287766D01*
G01X2411520Y9281298D01*
G01X2411967Y9279743D01*
G01X2412294Y9278242D01*
G01X2412464Y9276809D01*
G01X2412446Y9275461D01*
G01X2412204Y9274212D01*
G01X2411705Y9273076D01*
G01X2410914Y9272068D01*
G37*
G36*
G01X2436501Y9379969D02*
G01X2418500Y9379969D01*
G01X2417992Y9377492D01*
G01X2416650Y9376154D01*
G01X2414754Y9375027D01*
G01X2412580Y9373180D01*
G01X2442580Y9373180D01*
G01X2440921Y9374687D01*
G01X2438911Y9376336D01*
G01X2437215Y9378104D01*
G01X2436501Y9379969D01*
G37*
G36*
G01X4875073Y8751857D02*
G01X4857872Y8751857D01*
G01X4857729Y8750015D01*
G01X4857322Y8748139D01*
G01X4856691Y8746258D01*
G01X4855872Y8744403D01*
G01X4854904Y8742606D01*
G01X4853822Y8740895D01*
G01X4852666Y8739302D01*
G01X4851472Y8737857D01*
G01X4881472Y8737857D01*
G01X4880279Y8739302D01*
G01X4879122Y8740895D01*
G01X4878041Y8742606D01*
G01X4877072Y8744403D01*
G01X4876254Y8746258D01*
G01X4875622Y8748139D01*
G01X4875216Y8750015D01*
G01X4875073Y8751857D01*
G37*
G36*
G01X4975072Y8770137D02*
G01X4957872Y8770137D01*
G01X4957728Y8768296D01*
G01X4957322Y8766419D01*
G01X4956691Y8764538D01*
G01X4955872Y8762684D01*
G01X4954903Y8760886D01*
G01X4953822Y8759175D01*
G01X4952666Y8757582D01*
G01X4951472Y8756137D01*
G01X4981472Y8756137D01*
G01X4980278Y8757582D01*
G01X4979122Y8759175D01*
G01X4978041Y8760886D01*
G01X4977072Y8762684D01*
G01X4976253Y8764538D01*
G01X4975622Y8766419D01*
G01X4975216Y8768296D01*
G01X4975072Y8770137D01*
G37*
G36*
G01X3519035Y8616218D02*
G01X3499035Y8616218D01*
G01X3509035Y8596219D01*
G01X3523271Y8557981D01*
G01X3519035Y8616218D01*
G37*
G36*
G01X3519035Y8616218D02*
G01X3499035Y8616218D01*
G01X3509035Y8596219D01*
G01X3524321Y8556938D01*
G01X3519035Y8616218D01*
G37*
G36*
G01X3566627Y8538875D02*
G01X3570750Y8558875D01*
G03X3553769Y8555875I0J-49560D01*
G01X3553769Y8541875D01*
G03X3566627Y8538875I12859J26057D01*
G37*
G36*
G01X3981520Y8848761D02*
G01X3951520Y8858761D01*
G01X3891520Y8843761D01*
G01X3891520Y8873761D01*
G01X3921520Y8858761D01*
G01X3981520Y8868761D01*
G01X3981520Y8848761D01*
G37*
G36*
G01X3776445Y9015966D02*
G01X3806444Y9015935D01*
G03X3801971Y9035229I-43586J61D01*
G01X3780971Y9035259D01*
G03X3776445Y9015966I39104J-19352D01*
G37*
G36*
G01X4291462Y9403748D02*
G01X4291462Y9423748D01*
G03X4351462Y9443748I0J100000D01*
G01X4351462Y9383748D01*
G03X4291462Y9403748I-60000J-80000D01*
G37*
G36*
G01X4466450Y9566046D02*
G01X4446450Y9566046D01*
G01X4445962Y9563999D01*
G01X4444643Y9562074D01*
G01X4442711Y9560253D01*
G01X4440387Y9558517D01*
G01X4433237Y9553631D01*
G01X4431524Y9552046D01*
G01X4461524Y9552046D01*
G01X4460806Y9553501D01*
G01X4460927Y9555094D01*
G01X4461659Y9556799D01*
G01X4464038Y9560433D01*
G01X4465225Y9562310D01*
G01X4466106Y9564190D01*
G01X4466450Y9566046D01*
G37*
G36*
G01X4446450Y9511589D02*
G01X4466450Y9511589D01*
G01X4466106Y9513446D01*
G01X4465225Y9515326D01*
G01X4462773Y9519048D01*
G01X4461659Y9520836D01*
G01X4460927Y9522541D01*
G01X4460806Y9524134D01*
G01X4461524Y9525589D01*
G01X4431524Y9525589D01*
G01X4433237Y9524004D01*
G01X4440387Y9519118D01*
G01X4442711Y9517382D01*
G01X4444643Y9515561D01*
G01X4445962Y9513637D01*
G01X4446450Y9511589D01*
G37*
G36*
G01X4626547Y8941587D02*
G01X4646546Y8941587D01*
G01X4646647Y8943261D01*
G01X4646934Y8945098D01*
G01X4647389Y8947028D01*
G01X4647994Y8948980D01*
G01X4648728Y8950882D01*
G01X4649572Y8952665D01*
G01X4650508Y8954257D01*
G01X4651516Y8955587D01*
G01X4621516Y8955587D01*
G01X4622520Y8954263D01*
G01X4623459Y8952671D01*
G01X4624313Y8950884D01*
G01X4625060Y8948976D01*
G01X4625678Y8947020D01*
G01X4626146Y8945088D01*
G01X4626443Y8943252D01*
G01X4626547Y8941587D01*
G37*
G36*
G01X4646546Y8996045D02*
G01X4626547Y8996045D01*
G01X4626443Y8994380D01*
G01X4626146Y8992545D01*
G01X4625678Y8990613D01*
G01X4625060Y8988656D01*
G01X4624313Y8986748D01*
G01X4623459Y8984961D01*
G01X4622520Y8983370D01*
G01X4621516Y8982045D01*
G01X4651516Y8982045D01*
G01X4650508Y8983375D01*
G01X4649572Y8984968D01*
G01X4648728Y8986750D01*
G01X4647994Y8988653D01*
G01X4647389Y8990604D01*
G01X4646934Y8992534D01*
G01X4646647Y8994371D01*
G01X4646546Y8996045D01*
G37*
G36*
G01X4408359Y9183037D02*
G01X4410071Y9181176D01*
G01X4411770Y9179045D01*
G01X4415073Y9174101D01*
G01X4418162Y9168461D01*
G01X4420930Y9162386D01*
G01X4423269Y9156133D01*
G01X4425072Y9149961D01*
G01X4426233Y9144128D01*
G01X4426539Y9141421D01*
G01X4426643Y9138895D01*
G01X4446643Y9138895D01*
G01X4446758Y9140767D01*
G01X4447093Y9142625D01*
G01X4447632Y9144454D01*
G01X4448362Y9146238D01*
G01X4449268Y9147964D01*
G01X4450335Y9149617D01*
G01X4451548Y9151182D01*
G01X4452893Y9152645D01*
G01X4454356Y9153990D01*
G01X4455921Y9155203D01*
G01X4457574Y9156270D01*
G01X4459300Y9157176D01*
G01X4461084Y9157906D01*
G01X4462913Y9158445D01*
G01X4464771Y9158780D01*
G01X4466643Y9158895D01*
G01X4466643Y9178895D01*
G01X4464117Y9178999D01*
G01X4461410Y9179305D01*
G01X4455577Y9180466D01*
G01X4449405Y9182269D01*
G01X4443152Y9184608D01*
G01X4437077Y9187376D01*
G01X4431437Y9190465D01*
G01X4426493Y9193768D01*
G01X4424361Y9195467D01*
G01X4422501Y9197179D01*
G01X4408359Y9183037D01*
G37*
G36*
G01X4407171Y9184225D02*
G01X4421313Y9198367D01*
G01X4420205Y9199619D01*
G01X4419113Y9201124D01*
G01X4418073Y9202815D01*
G01X4417124Y9204629D01*
G01X4416300Y9206499D01*
G01X4415638Y9208362D01*
G01X4415176Y9210150D01*
G01X4414948Y9211800D01*
G01X4393735Y9190587D01*
G01X4395385Y9190360D01*
G01X4397174Y9189897D01*
G01X4399036Y9189236D01*
G01X4400907Y9188412D01*
G01X4402722Y9187463D01*
G01X4404414Y9186424D01*
G01X4405919Y9185333D01*
G01X4407171Y9184225D01*
G37*
G36*
G01X4382806Y9236874D02*
G01X4368664Y9222732D01*
G01X4369772Y9221480D01*
G01X4370864Y9219975D01*
G01X4371902Y9218282D01*
G01X4372852Y9216468D01*
G01X4373675Y9214597D01*
G01X4374337Y9212734D01*
G01X4374799Y9210945D01*
G01X4375027Y9209296D01*
G01X4396240Y9230509D01*
G01X4394590Y9230736D01*
G01X4392801Y9231199D01*
G01X4390939Y9231861D01*
G01X4389068Y9232684D01*
G01X4387255Y9233634D01*
G01X4385563Y9234673D01*
G01X4384059Y9235765D01*
G01X4382806Y9236874D01*
G37*
G36*
G01X4473885Y8826238D02*
G01X4473640Y8821160D01*
G01X4472917Y8815749D01*
G01X4471733Y8810174D01*
G01X4470105Y8804606D01*
G01X4468051Y8799212D01*
G01X4465588Y8794162D01*
G01X4464208Y8791820D01*
G01X4462733Y8789626D01*
G01X4461164Y8787604D01*
G01X4459504Y8785773D01*
G01X4473737Y8771723D01*
G01X4476860Y8789121D01*
G01X4493885Y8826238D01*
G01X4473885Y8826238D01*
G37*
G36*
G01X2393976Y9435067D02*
G01X2393976Y9465067D01*
G01X2392318Y9465274D01*
G01X2390787Y9465865D01*
G01X2389371Y9466795D01*
G01X2388053Y9468019D01*
G01X2386821Y9469493D01*
G01X2385659Y9471173D01*
G01X2383487Y9474969D01*
G01X2379353Y9483062D01*
G01X2378278Y9484929D01*
G01X2377159Y9486644D01*
G01X2375979Y9488163D01*
G01X2374726Y9489441D01*
G01X2374726Y9448190D01*
G01X2375903Y9448972D01*
G01X2377040Y9449246D01*
G01X2378147Y9449075D01*
G01X2379233Y9448520D01*
G01X2380308Y9447647D01*
G01X2381379Y9446518D01*
G01X2384670Y9442228D01*
G01X2387019Y9439248D01*
G01X2388269Y9437912D01*
G01X2389580Y9436762D01*
G01X2390962Y9435863D01*
G01X2392424Y9435277D01*
G01X2393976Y9435067D01*
G37*
G36*
G01X2319095Y9465067D02*
G01X2319095Y9435067D01*
G01X2320647Y9435277D01*
G01X2322110Y9435863D01*
G01X2323492Y9436762D01*
G01X2324803Y9437912D01*
G01X2326052Y9439248D01*
G01X2328402Y9442228D01*
G01X2331693Y9446518D01*
G01X2332764Y9447647D01*
G01X2333838Y9448520D01*
G01X2334924Y9449075D01*
G01X2336031Y9449246D01*
G01X2337169Y9448972D01*
G01X2338346Y9448190D01*
G01X2338346Y9489441D01*
G01X2337092Y9488163D01*
G01X2335913Y9486644D01*
G01X2334793Y9484929D01*
G01X2332675Y9481088D01*
G01X2328519Y9473013D01*
G01X2327413Y9471173D01*
G01X2326251Y9469493D01*
G01X2325018Y9468019D01*
G01X2323701Y9466795D01*
G01X2322284Y9465865D01*
G01X2320754Y9465274D01*
G01X2319095Y9465067D01*
G37*
G36*
G01X2423974Y9180134D02*
G01X2423974Y9220134D01*
G01X2422086Y9219824D01*
G01X2420409Y9218955D01*
G01X2418919Y9217620D01*
G01X2417587Y9215909D01*
G01X2416391Y9213914D01*
G01X2414296Y9209440D01*
G01X2411518Y9202890D01*
G01X2410586Y9201117D01*
G01X2409608Y9199702D01*
G01X2408558Y9198735D01*
G01X2407411Y9198310D01*
G01X2406141Y9198517D01*
G01X2404723Y9199449D01*
G01X2404723Y9158198D01*
G01X2405873Y9159348D01*
G01X2406995Y9160715D01*
G01X2409188Y9163939D01*
G01X2413571Y9171222D01*
G01X2415879Y9174639D01*
G01X2417087Y9176151D01*
G01X2418342Y9177478D01*
G01X2419651Y9178580D01*
G01X2421021Y9179416D01*
G01X2422459Y9179948D01*
G01X2423974Y9180134D01*
G37*
G36*
G01X2349093Y9220134D02*
G01X2349093Y9180134D01*
G01X2350607Y9179948D01*
G01X2352045Y9179416D01*
G01X2353415Y9178580D01*
G01X2354724Y9177478D01*
G01X2355979Y9176151D01*
G01X2357188Y9174639D01*
G01X2359495Y9171222D01*
G01X2363878Y9163939D01*
G01X2366071Y9160715D01*
G01X2367193Y9159348D01*
G01X2368343Y9158198D01*
G01X2368343Y9199449D01*
G01X2366925Y9198517D01*
G01X2365655Y9198310D01*
G01X2364508Y9198735D01*
G01X2363459Y9199702D01*
G01X2362481Y9201117D01*
G01X2361548Y9202890D01*
G01X2358770Y9209440D01*
G01X2356676Y9213914D01*
G01X2355479Y9215909D01*
G01X2354148Y9217620D01*
G01X2352657Y9218955D01*
G01X2350981Y9219824D01*
G01X2349093Y9220134D01*
G37*
G36*
G01X2453971Y9430068D02*
G01X2453971Y9470067D01*
G01X2452609Y9470232D01*
G01X2451267Y9470701D01*
G01X2449946Y9471440D01*
G01X2448646Y9472413D01*
G01X2447367Y9473585D01*
G01X2446110Y9474920D01*
G01X2443659Y9477938D01*
G01X2437909Y9485854D01*
G01X2435761Y9488425D01*
G01X2434721Y9489441D01*
G01X2434721Y9448190D01*
G01X2436057Y9449071D01*
G01X2437282Y9449301D01*
G01X2438415Y9448961D01*
G01X2439477Y9448135D01*
G01X2440488Y9446903D01*
G01X2441467Y9445348D01*
G01X2444419Y9439564D01*
G01X2446600Y9435596D01*
G01X2447815Y9433825D01*
G01X2449139Y9432304D01*
G01X2450593Y9431116D01*
G01X2452197Y9430343D01*
G01X2453971Y9430068D01*
G37*
G36*
G01X2379090Y9470067D02*
G01X2379090Y9430068D01*
G01X2380864Y9430343D01*
G01X2382468Y9431116D01*
G01X2383922Y9432304D01*
G01X2385246Y9433825D01*
G01X2386461Y9435596D01*
G01X2388642Y9439564D01*
G01X2391594Y9445348D01*
G01X2392573Y9446903D01*
G01X2393584Y9448135D01*
G01X2394646Y9448961D01*
G01X2395779Y9449301D01*
G01X2397004Y9449071D01*
G01X2398341Y9448190D01*
G01X2398341Y9489441D01*
G01X2397300Y9488425D01*
G01X2395152Y9485854D01*
G01X2389402Y9477938D01*
G01X2386951Y9474920D01*
G01X2385694Y9473585D01*
G01X2384415Y9472413D01*
G01X2383115Y9471440D01*
G01X2381795Y9470701D01*
G01X2380453Y9470232D01*
G01X2379090Y9470067D01*
G37*
G36*
G01X2513966Y9430068D02*
G01X2513966Y9470067D01*
G01X2512603Y9470232D01*
G01X2511261Y9470701D01*
G01X2509941Y9471440D01*
G01X2508641Y9472413D01*
G01X2507362Y9473585D01*
G01X2506105Y9474920D01*
G01X2503654Y9477938D01*
G01X2497904Y9485854D01*
G01X2495756Y9488425D01*
G01X2494715Y9489441D01*
G01X2494715Y9448190D01*
G01X2496052Y9449071D01*
G01X2497277Y9449301D01*
G01X2498410Y9448961D01*
G01X2499472Y9448135D01*
G01X2500483Y9446903D01*
G01X2501462Y9445348D01*
G01X2504414Y9439564D01*
G01X2506595Y9435596D01*
G01X2507810Y9433825D01*
G01X2509134Y9432304D01*
G01X2510588Y9431116D01*
G01X2512192Y9430343D01*
G01X2513966Y9430068D01*
G37*
G36*
G01X2439085Y9470067D02*
G01X2439085Y9430068D01*
G01X2440859Y9430343D01*
G01X2442463Y9431116D01*
G01X2443917Y9432304D01*
G01X2445241Y9433825D01*
G01X2446456Y9435596D01*
G01X2448637Y9439564D01*
G01X2451589Y9445348D01*
G01X2452568Y9446903D01*
G01X2453579Y9448135D01*
G01X2454641Y9448961D01*
G01X2455774Y9449301D01*
G01X2456999Y9449071D01*
G01X2458335Y9448190D01*
G01X2458335Y9489441D01*
G01X2457295Y9488425D01*
G01X2455147Y9485854D01*
G01X2449397Y9477938D01*
G01X2446946Y9474920D01*
G01X2445689Y9473585D01*
G01X2444410Y9472413D01*
G01X2443110Y9471440D01*
G01X2441789Y9470701D01*
G01X2440447Y9470232D01*
G01X2439085Y9470067D01*
G37*
G36*
G01X2393976Y9430068D02*
G01X2393976Y9470067D01*
G01X2392614Y9470232D01*
G01X2391272Y9470701D01*
G01X2389951Y9471440D01*
G01X2388651Y9472413D01*
G01X2387373Y9473585D01*
G01X2386115Y9474920D01*
G01X2383665Y9477938D01*
G01X2377914Y9485854D01*
G01X2375766Y9488425D01*
G01X2374726Y9489441D01*
G01X2374726Y9448190D01*
G01X2376062Y9449071D01*
G01X2377287Y9449301D01*
G01X2378421Y9448961D01*
G01X2379483Y9448135D01*
G01X2380493Y9446903D01*
G01X2381473Y9445348D01*
G01X2384424Y9439564D01*
G01X2386605Y9435596D01*
G01X2387820Y9433825D01*
G01X2389144Y9432304D01*
G01X2390598Y9431116D01*
G01X2392202Y9430343D01*
G01X2393976Y9430068D01*
G37*
G36*
G01X2319095Y9470067D02*
G01X2319095Y9430068D01*
G01X2320869Y9430343D01*
G01X2322473Y9431116D01*
G01X2323927Y9432304D01*
G01X2325252Y9433825D01*
G01X2326466Y9435596D01*
G01X2328647Y9439564D01*
G01X2331599Y9445348D01*
G01X2332579Y9446903D01*
G01X2333589Y9448135D01*
G01X2334651Y9448961D01*
G01X2335784Y9449301D01*
G01X2337009Y9449071D01*
G01X2338346Y9448190D01*
G01X2338346Y9489441D01*
G01X2337305Y9488425D01*
G01X2335158Y9485854D01*
G01X2329407Y9477938D01*
G01X2326956Y9474920D01*
G01X2325699Y9473585D01*
G01X2324420Y9472413D01*
G01X2323121Y9471440D01*
G01X2321800Y9470701D01*
G01X2320458Y9470232D01*
G01X2319095Y9470067D01*
G37*
G36*
G01X2565174Y9430068D02*
G01X2565174Y9470067D01*
G01X2562847Y9470701D01*
G01X2561222Y9472413D01*
G01X2560093Y9474920D01*
G01X2558504Y9481182D01*
G01X2557632Y9484370D01*
G01X2556436Y9487218D01*
G01X2554710Y9489441D01*
G01X2554710Y9448190D01*
G01X2556511Y9448883D01*
G01X2557708Y9447522D01*
G01X2558532Y9444709D01*
G01X2559989Y9437154D01*
G01X2561086Y9433620D01*
G01X2562737Y9431057D01*
G01X2565174Y9430068D01*
G37*
G36*
G01X2499080Y9470067D02*
G01X2499080Y9430068D01*
G01X2500854Y9430343D01*
G01X2502458Y9431116D01*
G01X2503912Y9432304D01*
G01X2505236Y9433825D01*
G01X2506451Y9435596D01*
G01X2508632Y9439564D01*
G01X2511583Y9445348D01*
G01X2512563Y9446903D01*
G01X2513573Y9448135D01*
G01X2514635Y9448961D01*
G01X2515769Y9449301D01*
G01X2516994Y9449071D01*
G01X2518330Y9448190D01*
G01X2518330Y9489441D01*
G01X2517290Y9488425D01*
G01X2515142Y9485854D01*
G01X2509391Y9477938D01*
G01X2506941Y9474920D01*
G01X2505683Y9473585D01*
G01X2504405Y9472413D01*
G01X2503105Y9471440D01*
G01X2501784Y9470701D01*
G01X2500442Y9470232D01*
G01X2499080Y9470067D01*
G37*
G36*
G01X3528800Y9373710D02*
G01X3558800Y9363710D01*
G01X3618800Y9378710D01*
G01X3618800Y9348710D01*
G01X3588800Y9363710D01*
G01X3528800Y9353710D01*
G01X3528800Y9373710D01*
G37*
G36*
G01X3346524Y9433710D02*
G01X3366524Y9433710D01*
G03X3386524Y9373710I100000J0D01*
G01X3326524Y9373710D01*
G03X3346524Y9433710I-80000J60000D01*
G37*
G04 TearDrop End*

G04 Pad Start*
G54D10*
G01X5307762Y9978593D03*
G01X5307762Y8698611D03*
G01X1714525Y9966808D03*
G01X1714500Y8686800D03*
G54D11*
G01X4626508Y9088831D03*
G01X4586529Y9088831D03*
G01X4546524Y9088831D03*
G01X4546524Y9128811D03*
G01X4586529Y9128811D03*
G01X4626508Y9128811D03*
G01X4546524Y9168816D03*
G01X4546524Y9208821D03*
G01X4586529Y9168816D03*
G01X4626508Y9168816D03*
G01X4626508Y9208821D03*
G01X4586529Y9208821D03*
G54D12*
G01X4822901Y9662643D03*
G01X4822901Y9707651D03*
G54D13*
G01X4752899Y9685147D03*
G54D14*
G01X4496524Y9604299D03*
G01X4541533Y9604299D03*
G54D16*
G01X4519028Y9674301D03*
G54D17*
G01X3396513Y9740798D03*
G01X2456536Y9740798D03*
G54D18*
G01X2826487Y9595790D03*
G01X3026486Y9595790D03*
G01X2626512Y9595790D03*
G01X3226511Y9595790D03*
G54D19*
G01X2558517Y10001809D03*
G54D20*
G01X3294532Y10001860D03*
G54D21*
G01X4349013Y9883826D03*
G01X4689018Y9883826D03*
G54D22*
G01X4309034Y10078822D03*
G01X4729023Y10078822D03*
G54D21*
G01X3807013Y9883826D03*
G01X4147017Y9883826D03*
G54D22*
G01X3767033Y10078822D03*
G01X4187022Y10078822D03*
G54D23*
G01X3036519Y9377172D03*
G01X3036519Y9425483D03*
G01X5006515Y9634672D03*
G01X5006515Y9682983D03*
G54D24*
G01X4359877Y9581322D03*
G01X4408188Y9581322D03*
G01X4359877Y9491322D03*
G01X4408188Y9491322D03*
G01X4042377Y8958824D03*
G01X4090688Y8958824D03*
G54D23*
G01X3226519Y9377172D03*
G01X3226519Y9425483D03*
G01X3129879Y9373855D03*
G01X3129879Y9422166D03*
G54D25*
G01X4158234Y8628812D03*
G01X4244797Y8628812D03*
G54D26*
G01X3111508Y9164211D03*
G01X3111508Y9250774D03*
G54D25*
G01X3263435Y9136311D03*
G01X3349998Y9136311D03*
G01X2643236Y9346311D03*
G01X2729799Y9346311D03*
G54D27*
G01X3006522Y9063812D03*
G01X3006522Y9158808D03*
G01X3006522Y9253804D03*
G01X2766517Y9253804D03*
G01X2766517Y9158808D03*
G01X2766517Y9063812D03*
G54D28*
G01X2606523Y9158808D03*
G01X2606523Y8958809D03*
G54D29*
G01X2305710Y8648827D03*
G01X1967332Y8648827D03*
G54D30*
G01X3841521Y8708314D03*
G01X3841521Y8599322D03*
G54D31*
G01X3239529Y9253817D03*
G01X3348520Y9253817D03*
G01X2832029Y8938819D03*
G01X2941020Y8938819D03*
G54D32*
G01X3236519Y8778824D03*
G01X3236519Y8638819D03*
G54D30*
G01X3386531Y8773312D03*
G01X3386531Y8664321D03*
G01X3956530Y8708311D03*
G01X3956530Y8599320D03*
G54D33*
G01X3509035Y8638819D03*
G01X3699027Y8638819D03*
G01X3604031Y8838819D03*
G54D34*
G01X3748938Y8858809D03*
G01X3694100Y8858809D03*
G54D35*
G01X5001605Y9778827D03*
G01X5056444Y9778827D03*
G01X4429107Y8848829D03*
G01X4483946Y8848829D03*
G54D34*
G01X4633935Y8848809D03*
G01X4579097Y8848809D03*
G54D36*
G01X3641522Y9046083D03*
G01X3691534Y9046083D03*
G01X3741522Y9046083D03*
G01X3791534Y9046083D03*
G01X3841521Y9046083D03*
G01X3891534Y9046083D03*
G01X3941521Y9046083D03*
G01X3991534Y9046083D03*
G01X4041521Y9046083D03*
G01X4091534Y9046083D03*
G01X4141521Y9046083D03*
G01X4191533Y9046083D03*
G54D37*
G01X4259275Y9113799D03*
G01X4259275Y9163812D03*
G01X4259275Y9213799D03*
G01X4259275Y9263812D03*
G01X4259275Y9313799D03*
G01X4259275Y9363812D03*
G01X4259275Y9413799D03*
G01X4259275Y9463811D03*
G01X4259275Y9513799D03*
G01X4259275Y9563811D03*
G01X4259275Y9613798D03*
G01X4259275Y9663811D03*
G54D36*
G01X4191533Y9731553D03*
G01X4141521Y9731553D03*
G01X4091534Y9731553D03*
G01X4041521Y9731553D03*
G01X3991534Y9731553D03*
G01X3941521Y9731553D03*
G01X3891534Y9731553D03*
G01X3841521Y9731553D03*
G01X3791534Y9731553D03*
G01X3741522Y9731553D03*
G01X3691534Y9731553D03*
G01X3641522Y9731553D03*
G54D37*
G01X3573780Y9663811D03*
G01X3573780Y9613798D03*
G01X3573780Y9563811D03*
G01X3573780Y9513799D03*
G01X3573780Y9463811D03*
G01X3573780Y9413799D03*
G01X3573780Y9363812D03*
G01X3573780Y9313799D03*
G01X3573780Y9263812D03*
G01X3573780Y9213799D03*
G01X3573780Y9163812D03*
G01X3573780Y9113799D03*
G54D38*
G01X3916528Y9388805D03*
G54D39*
G01X5094275Y9928809D03*
G01X5094275Y9978822D03*
G01X5094275Y10028809D03*
G54D40*
G01X5051527Y10096576D03*
G01X5001514Y10096576D03*
G01X4951527Y10096576D03*
G01X4901514Y10096576D03*
G54D39*
G01X4858766Y10028809D03*
G01X4858766Y9978822D03*
G01X4858766Y9928809D03*
G54D40*
G01X4901514Y9861067D03*
G01X4951527Y9861067D03*
G01X5001514Y9861067D03*
G01X5051527Y9861067D03*
G54D41*
G01X4976520Y9978822D03*
G54D42*
G01X4826533Y8975420D03*
G01X4826533Y9312427D03*
G54D43*
G01X4636516Y9359824D03*
G01X4586503Y9359824D03*
G01X4536516Y9359824D03*
G01X4486504Y9359824D03*
G01X4436516Y9359824D03*
G01X4636516Y8937828D03*
G01X4586503Y8937828D03*
G01X4536516Y8937828D03*
G01X4486504Y8937828D03*
G01X4436516Y8937828D03*
G54D44*
G01X4246517Y8728822D03*
G01X4181518Y8888816D03*
G01X4311515Y8888816D03*
G54D45*
G01X4766473Y8847209D03*
G01X4866472Y8847209D03*
G01X4966472Y8847209D03*
G54D46*
G01X4606467Y8755206D03*
G01X5108478Y8755206D03*
G01X4606467Y8567191D03*
G01X5108478Y8567191D03*
G54D47*
G01X5262728Y9683572D03*
G54D48*
G01X5272786Y9613570D03*
G01X5272786Y9563583D03*
G01X5272786Y9513595D03*
G01X5272786Y9463710D03*
G01X5272786Y9413672D03*
G01X5272786Y9363583D03*
G01X5272786Y9313596D03*
G01X5272786Y9263583D03*
G01X5272786Y9213596D03*
G01X5272786Y9163736D03*
G01X5272786Y9113698D03*
G01X5272786Y9063660D03*
G54D49*
G01X3316529Y8968816D03*
G01X3056534Y8968816D03*
G54D50*
G01X2426520Y8688822D03*
G01X2686515Y8688822D03*
G54D51*
G01X3024024Y8699500D03*
G01X2830125Y8699500D03*
G54D52*
G01X2204161Y9600159D03*
G54D53*
G01X2189175Y9550146D03*
G01X2189175Y9500159D03*
G54D52*
G01X2204187Y9450146D03*
G54D53*
G01X2189201Y9400134D03*
G01X2189201Y9350146D03*
G54D54*
G01X2189201Y9300134D03*
G01X2189201Y9250147D03*
G54D55*
G01X2204212Y9200134D03*
G54D54*
G01X2189226Y9150121D03*
G01X2189226Y9100134D03*
G54D55*
G01X2204237Y9050122D03*
G54D56*
G01X2189988Y9710268D03*
G54D57*
G01X2189988Y8903284D03*
G04 Pad End*

G04 Via Start*
G54D58*
G01X3701517Y9316314D03*
G01X5466512Y9828809D03*
G01X3466516Y9148826D03*
G01X2936519Y9648825D03*
G01X2906522Y9478823D03*
G01X2816530Y9478823D03*
G01X2556535Y9748825D03*
G01X2566518Y9848825D03*
G01X3556533Y9828809D03*
G01X3406521Y10018827D03*
G01X3294532Y10001834D03*
G01X2558542Y10001809D03*
G01X2856535Y10008819D03*
G01X3026537Y10008819D03*
G01X3136519Y10008819D03*
G01X3510051Y9652330D03*
G01X3466516Y9478823D03*
G01X3406521Y9438818D03*
G01X4386529Y9738817D03*
G01X3966515Y9828809D03*
G01X3476523Y9248826D03*
G01X3256534Y9738843D03*
G01X3256534Y9783851D03*
G01X3211525Y9783851D03*
G01X3211525Y9738843D03*
G01X3291510Y9493834D03*
G01X3291510Y9448851D03*
G01X3676523Y9818853D03*
G01X3676523Y9863836D03*
G01X3631514Y9863836D03*
G01X3631514Y9818853D03*
G01X3571519Y9983851D03*
G01X3571519Y10028834D03*
G01X3526511Y10028834D03*
G01X3526511Y9983851D03*
G01X2331517Y9953854D03*
G01X2331517Y9998837D03*
G01X2286533Y9998837D03*
G01X2286533Y9953854D03*
G01X2906522Y9748850D03*
G01X2906522Y9793834D03*
G01X2861513Y9793834D03*
G01X2861513Y9748850D03*
G01X2308962Y9123832D03*
G01X2308962Y9073845D03*
G01X2301443Y8818829D03*
G01X2301469Y9031326D03*
G01X2301469Y8988882D03*
G01X2301469Y8946337D03*
G01X2301469Y8903843D03*
G01X2301469Y8861323D03*
G01X2479015Y9841306D03*
G01X2479015Y9796323D03*
G01X2479015Y9751314D03*
G01X2479015Y9706305D03*
G01X2479015Y9661322D03*
G01X2479015Y9616313D03*
G01X2436520Y9841306D03*
G01X2436520Y9796323D03*
G01X2436520Y9751314D03*
G01X2436520Y9706305D03*
G01X2436520Y9661322D03*
G01X2436520Y9616313D03*
G01X2394026Y9841306D03*
G01X2394026Y9796323D03*
G01X2394026Y9751314D03*
G01X2394026Y9706305D03*
G01X2394026Y9661322D03*
G01X2394026Y9616313D03*
G01X2356536Y9593809D03*
G01X2356536Y9638817D03*
G01X2356536Y9683826D03*
G01X2356536Y9728810D03*
G01X2356536Y9773818D03*
G01X2356536Y9818802D03*
G01X2316531Y9793808D03*
G01X2316531Y9748825D03*
G01X2316531Y9703816D03*
G01X2316531Y9658807D03*
G01X2316531Y9613824D03*
G01X2316531Y9568815D03*
G01X5476519Y8848852D03*
G01X4924146Y8982685D03*
G01X4969154Y8982685D03*
G01X5014138Y8982685D03*
G01X5059147Y8982685D03*
G01X5104130Y8982685D03*
G01X5106518Y9031351D03*
G01X5061509Y9031351D03*
G01X5016525Y9031351D03*
G01X4971517Y9031351D03*
G01X4926533Y9031351D03*
G01X5139030Y9061374D03*
G01X5139030Y9106332D03*
G01X5141519Y9601327D03*
G01X5099025Y9601327D03*
G01X5056530Y9601327D03*
G01X4966513Y9601327D03*
G01X4914011Y9603842D03*
G01X4959020Y9651340D03*
G01X5009007Y9623831D03*
G01X5054016Y9646310D03*
G01X5096510Y9646310D03*
G01X5139030Y9646310D03*
G01X5139030Y9691319D03*
G01X5096510Y9691319D03*
G01X5056530Y9708820D03*
G01X5096510Y9738817D03*
G01X5056530Y9758807D03*
G01X5106518Y9788804D03*
G01X5146523Y9748825D03*
G01X4906518Y9678822D03*
G01X4309034Y9266326D03*
G01X5056505Y9208973D03*
G01X5056505Y9166454D03*
G01X5056505Y9123959D03*
G01X5011522Y9208973D03*
G01X5011496Y9166454D03*
G01X5011522Y9123959D03*
G01X4966513Y9208973D03*
G01X4966513Y9166454D03*
G01X4966513Y9123959D03*
G01X4746523Y9126398D03*
G01X4789018Y9126398D03*
G01X4831512Y9126398D03*
G01X4876521Y9126474D03*
G01X4921529Y9126449D03*
G01X4746523Y9168892D03*
G01X4789018Y9168892D03*
G01X4831512Y9168892D03*
G01X4876521Y9168943D03*
G01X4921504Y9168943D03*
G01X4746523Y9211412D03*
G01X4789018Y9211412D03*
G01X4831512Y9211412D03*
G01X4876521Y9211462D03*
G01X4921529Y9211437D03*
G01X4746523Y9256420D03*
G01X4789018Y9256420D03*
G01X4831512Y9256420D03*
G01X4876521Y9256471D03*
G01X4921529Y9256446D03*
G01X4921529Y9298940D03*
G01X4746523Y9298889D03*
G01X4789018Y9298889D03*
G01X4831512Y9298889D03*
G01X4876521Y9298940D03*
G01X4746523Y9341383D03*
G01X4789018Y9341383D03*
G01X4831512Y9341383D03*
G01X4876521Y9341460D03*
G01X4746523Y9383852D03*
G01X4789018Y9383852D03*
G01X4831512Y9383852D03*
G01X4876521Y9383903D03*
G01X4746523Y9426321D03*
G01X4789018Y9426321D03*
G01X4831512Y9426321D03*
G01X4874006Y9426372D03*
G01X4916526Y9426321D03*
G01X4916526Y9468815D03*
G01X4831512Y9468815D03*
G01X4874031Y9468815D03*
G01X4789018Y9468815D03*
G01X4746523Y9468815D03*
G01X4964024Y9486316D03*
G01X5026533Y9498813D03*
G01X5069027Y9498813D03*
G01X4751527Y9513824D03*
G01X4794021Y9513824D03*
G01X4836516Y9513824D03*
G01X4879010Y9516313D03*
G01X4919015Y9533865D03*
G01X4961534Y9533865D03*
G01X5004029Y9533865D03*
G01X5046523Y9533865D03*
G01X5089017Y9533865D03*
G54D59*
G01X2676525Y9148826D03*
G01X2616530Y9088806D03*
G01X2616530Y9208821D03*
G01X2616530Y9148826D03*
G01X2556535Y9088806D03*
G01X2556535Y9208821D03*
G01X2556535Y9148826D03*
G01X2496515Y9088806D03*
G01X2496515Y9148826D03*
G01X2446528Y8998814D03*
G01X2446528Y9058808D03*
G01X2446528Y9118829D03*
G01X2446528Y9178823D03*
G01X2386533Y8998814D03*
G01X2386533Y9058808D03*
G01X2386533Y9118829D03*
G01X2386533Y9178823D03*
G01X2646528Y9258808D03*
G01X2586533Y9258808D03*
G01X2586507Y9333890D03*
G01X2646528Y9318828D03*
G01X2626538Y9378823D03*
G01X2586533Y9428810D03*
G01X2506523Y9518828D03*
G01X2446528Y9518828D03*
G01X2386533Y9518828D03*
G01X2536520Y9468815D03*
G01X2476525Y9468815D03*
G01X2416531Y9468815D03*
G01X2356536Y9468815D03*
G54D58*
G01X4361536Y9351315D03*
G01X3126537Y9428810D03*
G01X3696487Y9388856D03*
G01X3456534Y9008821D03*
G01X3691534Y8971305D03*
G01X1986534Y8588807D03*
G01X4394987Y9210548D03*
G01X3846525Y8988806D03*
G01X4096512Y9588805D03*
G01X4266514Y8888832D03*
G54D59*
G01X4759020Y9982733D03*
G54D58*
G01X3666515Y9498813D03*
G01X3656533Y9561322D03*
G01X3646449Y9618726D03*
G01X4446524Y9538818D03*
G01X4414012Y9448825D03*
G01X4316527Y9208821D03*
G01X4366514Y8638819D03*
G01X4316527Y8606307D03*
G01X3976522Y10098811D03*
G01X4196512Y9138920D03*
G01X4646447Y9713722D03*
G01X4176522Y9438818D03*
G01X4096512Y8868816D03*
G01X5094021Y10088804D03*
G01X5001590Y9778822D03*
G01X4636516Y8968816D03*
G01X4566514Y9038819D03*
G01X3981526Y9406306D03*
G01X3986530Y9338818D03*
G01X3891534Y9406331D03*
G01X3894023Y9336329D03*
G01X3816528Y9336329D03*
G01X3814013Y9406306D03*
G01X3806520Y9898812D03*
G01X5001514Y10088804D03*
G01X4901514Y10088804D03*
G01X4951527Y10113823D03*
G01X4199026Y9318828D03*
G01X4196512Y9376308D03*
G01X4186530Y9508820D03*
G01X4186530Y9566326D03*
G01X5062753Y9367596D03*
G01X5006797Y9369603D03*
G01X5062753Y9311615D03*
G01X5118760Y9311615D03*
G01X5118760Y9367596D03*
G01X5006797Y9309608D03*
G01X4136517Y9923805D03*
G01X4699025Y9923805D03*
G01X4531512Y9743821D03*
G01X5056530Y9838817D03*
G01X4858766Y9886569D03*
G01X4751527Y9793808D03*
G54D59*
G01X3111525Y9168028D03*
G01X3006522Y9158808D03*
G01X2856535Y9138818D03*
G01X2916530Y9138818D03*
G01X2856535Y9198813D03*
G01X2916530Y9198813D03*
G01X2856535Y9258808D03*
G01X2916530Y9258808D03*
G01X2916530Y9318828D03*
G01X2856535Y9318828D03*
G54D58*
G01X2484577Y9362948D03*
G01X2484577Y9292946D03*
G54D60*
G01X2329586Y9327947D03*
G01X2383587Y9327947D03*
G54D58*
G01X2427580Y9293936D03*
G01X2427580Y9359951D03*
G01X4866472Y8724628D03*
G01X4966472Y8742909D03*
G01X3403600Y9067800D03*
G01X3238500Y9017000D03*
G01X4597400Y9906000D03*
G04 Via End*

G04 Track Start*
G54D61*
G01X2188997Y9250172D02*
G01X2401593Y9250172D01*
G01X2427501Y9275826D01*
G01X2427501Y9293860D01*
G01X2188997Y9350248D02*
G01X2307361Y9350248D01*
G01X2329462Y9327899D01*
G01X2188997Y9400029D02*
G01X2407181Y9400029D01*
G01X2427501Y9379969D01*
G01X2427501Y9359903D01*
G54D62*
G01X2729766Y9346438D02*
G01X2766593Y9309611D01*
G01X2766593Y9253725D01*
G01X2686581Y8688829D02*
G01X2769131Y8688829D01*
G01X2781577Y8701275D01*
G54D63*
G01X3348507Y9253725D02*
G01X3348507Y9147556D01*
G01X3337331Y9136380D01*
G54D64*
G01X2941089Y8938768D02*
G01X2976397Y8938768D01*
G01X3006623Y8968737D01*
G01X3006623Y9063733D01*
G01X3348507Y9253725D02*
G01X3337331Y9242552D01*
G01X3250720Y9136380D02*
G01X3239539Y9147556D01*
G01X3239539Y9253725D01*
G01X3083839Y8701275D02*
G01X3083839Y8775957D01*
G01X3101619Y8793734D01*
G01X3699027Y8638791D02*
G01X3768628Y8708387D01*
G54D11*
G01X3509035Y8638791D02*
G01X3509035Y8586219D01*
G01X3546627Y8548875D01*
G01X3509035Y8583930D02*
G01X3544085Y8548875D01*
G01X3766596Y8548875D02*
G01X3817135Y8599421D01*
G01X3841519Y8599421D01*
G54D64*
G01X3558819Y8793734D02*
G01X3604026Y8838695D01*
G54D65*
G01X4751601Y9793729D02*
G01X4621550Y9793729D01*
G01X4531634Y9883902D01*
G01X4349008Y9883902D01*
G54D66*
G01X4136420Y9838941D02*
G01X4136420Y9923780D01*
G01X4176542Y9798815D02*
G01X4136420Y9838941D01*
G01X4556526Y9798815D02*
G01X4176542Y9798815D01*
G54D65*
G01X4858796Y9886699D02*
G01X4884196Y9861045D01*
G01X4901458Y9861045D01*
G01X4858796Y9928860D02*
G01X4858796Y9886699D01*
G54D66*
G01X4699028Y9923780D02*
G01X4751601Y9923780D01*
G01X4836434Y9838941D01*
G54D11*
G01X5118636Y9311637D02*
G01X5270777Y9311637D01*
G01X5272811Y9313418D01*
G01X5272811Y9363456D02*
G01X5122692Y9363456D01*
G01X5118636Y9367517D01*
G01X5272811Y9263634D02*
G01X5082819Y9263634D01*
G01X5062751Y9283449D01*
G01X5062751Y9311637D01*
G01X5272811Y9413491D02*
G01X5077734Y9413491D01*
G01X5062751Y9398511D01*
G01X5062751Y9367517D01*
G54D63*
G01X4901509Y10096564D02*
G01X4901509Y10088806D01*
G54D65*
G01X4186451Y9508741D02*
G01X4191536Y9513821D01*
G01X4259354Y9513821D01*
G01X4196608Y9376410D02*
G01X4209062Y9363710D01*
G01X4259354Y9363710D01*
G01X4199151Y9318752D02*
G01X4203977Y9313926D01*
G01X4259354Y9313926D01*
G54D67*
G01X3956586Y8708387D02*
G01X3956586Y8838695D01*
G01X3936520Y8858761D01*
G01X3791227Y8858761D02*
G01X3791486Y9045956D01*
G01X3741443Y9045956D02*
G01X3741443Y9116314D01*
G01X3641628Y9116314D01*
G01X3641628Y9045956D01*
G01X3641628Y9116314D02*
G01X3641628Y9208767D01*
G01X3636543Y9213853D01*
G01X3573800Y9213853D01*
G01X3641628Y9176515D02*
G01X3641628Y9358884D01*
G01X3636543Y9363710D01*
G01X3573800Y9363710D01*
G54D11*
G01X4186451Y9566402D02*
G01X4261635Y9566402D01*
G01X4646442Y9713722D02*
G01X4641619Y9718802D01*
G01X5001534Y9778749D02*
G01X5001534Y9861045D01*
G01X4951504Y9861045D01*
G01X4414035Y9448803D02*
G01X4416577Y9448803D01*
G01X4436643Y9428734D01*
G01X4436643Y9359903D01*
G01X5094254Y10028933D02*
G01X5093993Y10029187D01*
G01X5093993Y10088880D01*
G01X5086378Y10096503D01*
G01X5051577Y10096503D01*
G01X4359935Y9581388D02*
G01X4359935Y9491218D01*
G54D67*
G01X4246392Y8728710D02*
G01X4244878Y8727183D01*
G01X4244878Y8628888D01*
G54D11*
G01X4259354Y9413748D02*
G01X4359935Y9413748D01*
G01X4259354Y9463783D02*
G01X4201434Y9463783D01*
G01X4176542Y9438891D01*
G01X4042435Y8958834D02*
G01X4042435Y9045191D01*
G01X4041419Y9045956D01*
G01X4141493Y9045956D02*
G01X4141493Y9163815D01*
G01X4191536Y9213853D01*
G01X4259354Y9213853D01*
G01X4196608Y9138917D02*
G01X4196608Y9118857D01*
G01X4201434Y9113771D01*
G01X4259354Y9113771D01*
G01X4259354Y9163815D02*
G01X4201434Y9163815D01*
G01X4196608Y9158729D01*
G01X4196608Y9138917D01*
G01X5051577Y9861045D02*
G01X5073678Y9861045D01*
G01X5094254Y9881619D01*
G01X5094254Y9928860D01*
G01X3976393Y10098783D02*
G01X3976393Y9978898D01*
G01X4031508Y9923780D01*
G01X4136420Y9923780D01*
G54D61*
G01X2189254Y9299956D02*
G01X2287293Y9299956D01*
G01X2304062Y9283449D01*
G01X2365273Y9283449D01*
G01X2383561Y9301734D01*
G01X2383561Y9327899D01*
G54D11*
G01X4634004Y8848852D02*
G01X4636546Y8851395D01*
G01X4636546Y8937752D01*
G01X4579135Y8848852D02*
G01X4586501Y8856218D01*
G01X4586501Y8937752D01*
G01X4483885Y8848852D02*
G01X4486427Y8851395D01*
G01X4486427Y8937752D01*
G01X4408193Y9491218D02*
G01X4408193Y9454645D01*
G01X4414035Y9448803D01*
G01X4486427Y9359903D02*
G01X4486427Y9448803D01*
G01X4456450Y9478772D01*
G01X4456450Y9568945D01*
G01X4444012Y9581388D01*
G01X4408193Y9581388D01*
G01X3646454Y9618726D02*
G01X3641628Y9613903D01*
G01X3573800Y9613903D01*
G01X3573800Y9563865D02*
G01X3576343Y9561322D01*
G01X3656612Y9561322D01*
G01X3573800Y9413748D02*
G01X3651527Y9413748D01*
G01X3666520Y9428734D01*
G01X3666520Y9498838D01*
G01X4586501Y9208767D02*
G01X4586501Y9228833D01*
G01X4566435Y9248902D01*
G01X4496585Y9248902D01*
G01X4486427Y9258811D01*
G01X4486427Y9359903D01*
G01X4546628Y9208767D02*
G01X4486427Y9208767D01*
G01X4436643Y9258811D01*
G01X4436643Y9359903D01*
G01X4546529Y9088824D02*
G01X4546529Y9058803D01*
G01X4566509Y9038819D01*
G01X4586539Y9088824D02*
G01X4586539Y9058841D01*
G01X4566509Y9038819D01*
G01X4566435Y9038841D02*
G01X4586501Y9018775D01*
G01X4586501Y8937752D01*
G01X4566435Y9038841D02*
G01X4536470Y9008872D01*
G01X4536470Y8937752D01*
G01X4626635Y9088879D02*
G01X4636546Y9078722D01*
G01X4158262Y8628888D02*
G01X4158262Y8737095D01*
G01X4096535Y8798814D01*
G01X4096535Y8868918D01*
G01X3936520Y8858761D02*
G01X4016527Y8858761D01*
G01X4090693Y8932926D01*
G01X4090693Y8958834D01*
G01X4090693Y8978903D01*
G01X4436643Y8978903D01*
G01X4436643Y8937752D01*
G01X4361536Y9351312D02*
G01X4361536Y9244002D01*
G01X4436643Y9168895D02*
G01X4546628Y9168895D01*
G01X4359935Y9491218D02*
G01X4361462Y9489691D01*
G01X4361462Y9351264D01*
G01X4181627Y8888730D02*
G01X4181627Y8843772D01*
G01X4216428Y8808717D01*
G01X4366534Y8808717D01*
G01X4396511Y8778748D01*
G01X4466620Y8778748D01*
G01X4486427Y8798814D01*
G01X4483885Y8801357D01*
G01X4483885Y8848852D01*
G01X4311419Y8888730D02*
G01X4266458Y8888730D01*
G01X3691661Y8971280D02*
G01X3691661Y9045956D01*
G54D67*
G01X3741443Y9045956D02*
G01X3741443Y8993883D01*
G01X3749070Y8986269D01*
G01X3749070Y8858761D01*
G54D11*
G01X3036593Y9425429D02*
G01X2689885Y9425429D01*
G01X2626639Y9488929D01*
G01X2626639Y9595869D01*
G01X2626639Y9378699D02*
G01X2626639Y9373867D01*
G01X2586507Y9333995D01*
G01X2586507Y9258811D01*
G01X2546627Y9218930D01*
G01X3131589Y9425429D02*
G01X3026435Y9530588D01*
G01X3026435Y9595869D01*
G01X3226585Y9425429D02*
G01X3226585Y9595869D01*
G01X4259354Y9613903D02*
G01X4191536Y9613903D01*
G01X4166646Y9638795D01*
G01X3736619Y9638795D01*
G01X3716551Y9618726D01*
G01X3716551Y9408922D01*
G01X3696485Y9388856D01*
G01X5006619Y9682988D02*
G01X4920770Y9768837D01*
G01X4901458Y9768837D01*
G54D67*
G01X2397785Y9450067D02*
G01X2416581Y9468869D01*
G54D58*
G01X2204235Y9200134D02*
G01X2425220Y9200134D01*
G01X2446551Y9178798D01*
G01X2565174Y9450067D02*
G01X2586507Y9428734D01*
G54D67*
G01X5069101Y9498838D02*
G01X5104150Y9463783D01*
G01X5272811Y9463783D01*
G01X5056401Y9209021D02*
G01X5061227Y9213599D01*
G01X5272811Y9213599D01*
G54D11*
G01X4259354Y9213853D02*
G01X4311419Y9213853D01*
G01X4316504Y9208767D01*
G01X4259354Y9263888D02*
G01X4309135Y9266425D01*
G01X4906543Y9678921D02*
G01X4901458Y9683753D01*
G01X4901458Y9768837D01*
G54D67*
G01X3694204Y8858761D02*
G01X3694204Y8776465D01*
G01X3556536Y8638791D01*
G01X3509035Y8638791D01*
G01X3694204Y8858761D02*
G01X3694204Y8891267D01*
G01X3646454Y8938768D01*
G01X3506493Y8938768D01*
G01X3456462Y8988806D01*
G01X3456462Y9008872D01*
G54D11*
G01X3573800Y9363710D02*
G01X3049801Y9363710D01*
G01X3036593Y9377172D01*
G01X3406419Y9438891D02*
G01X3416577Y9428734D01*
G01X3496584Y9428734D01*
G01X3531646Y9463783D01*
G01X3573800Y9463783D01*
G01X3466620Y9478772D02*
G01X3501420Y9513821D01*
G01X3573800Y9513821D01*
G01X2626639Y9595869D02*
G01X2626639Y9818875D01*
G01X2696489Y9888725D01*
G01X3159023Y9888725D01*
G01X3196615Y9926317D01*
G01X3196615Y10048748D01*
G01X3256562Y10108695D01*
G01X3446554Y10108695D01*
G01X3466620Y10088880D01*
G01X3466620Y9968738D01*
G01X3516650Y9918703D01*
G01X3696485Y9918703D01*
G01X3741443Y9873745D01*
G01X3741443Y9731502D01*
G01X3226585Y9595869D02*
G01X3316501Y9685779D01*
G01X3316501Y9898888D01*
G01X3346478Y9928860D01*
G01X3446554Y9928860D01*
G01X3476528Y9898888D01*
G01X3476528Y9788906D01*
G01X3533678Y9731502D01*
G01X3641628Y9731502D01*
G01X3510054Y9652257D02*
G01X3521476Y9663938D01*
G01X3573800Y9663938D01*
G01X3364659Y9363822D02*
G01X3356524Y9371957D01*
G01X3356524Y9478815D01*
G01X3426524Y9548815D01*
G01X3466521Y9548815D01*
G01X3486526Y9568820D01*
G01X3486526Y9628815D01*
G01X3510041Y9652330D01*
G01X4486427Y8937752D02*
G01X4486427Y9088879D01*
G01X4526562Y9128760D01*
G01X4546628Y9128760D01*
G01X3846604Y8988806D02*
G01X3841519Y8993883D01*
G01X3841519Y9045956D01*
G54D67*
G01X3779035Y9116314D02*
G01X3791486Y9103868D01*
G01X3791486Y9045956D01*
G54D63*
G01X4531512Y9743821D02*
G01X4531512Y9686785D01*
G01X4519028Y9674301D01*
G54D66*
G01X4541533Y9604299D02*
G01X4566733Y9604299D01*
G01X4752899Y9685147D02*
G01X4752899Y9792437D01*
G01X4751527Y9793808D01*
G01X4822901Y9707651D02*
G01X4836434Y9721185D01*
G01X4836434Y9838941D01*
G01X4822901Y9662643D02*
G01X4890338Y9662643D01*
G01X4906518Y9678822D01*
G01X4496524Y9604299D02*
G01X4496524Y9569098D01*
G01X4515222Y9550400D01*
G01X4597400Y9550400D01*
G01X4646447Y9599447D01*
G01X4646447Y9713722D01*
G01X4866472Y8724628D02*
G01X4866472Y8831809D01*
G01X4966472Y8742909D02*
G01X4966472Y8831809D01*
G01X4259275Y9663811D02*
G01X4412687Y9663811D01*
G01X4472199Y9604299D01*
G01X4496524Y9604299D01*
G01X4566733Y9604299D02*
G01X4602608Y9640173D01*
G01X4602608Y9752734D01*
G01X4556526Y9798815D01*
G54D11*
G01X4636546Y9078722D02*
G01X4636546Y8968816D01*
G01X4636546Y8937752D01*
G01X4436643Y8978903D02*
G01X4436643Y9168895D01*
G54D64*
G01X3337331Y9136380D02*
G01X3337331Y8796271D01*
G01X3337331Y9242552D02*
G01X3337331Y9136380D01*
G01X3101619Y8793734D02*
G01X3558819Y8793734D01*
G01X3768628Y8708387D02*
G01X3841519Y8708387D01*
G01X3841521Y8708387D02*
G01X3956586Y8708387D01*
G01X3006623Y9253725D02*
G01X3239539Y9253725D01*
G54D11*
G01X3544085Y8548875D02*
G01X3546627Y8548875D01*
G01X3766596Y8548875D01*
G01X3509035Y8586219D02*
G01X3509035Y8583930D01*
G54D67*
G01X3936520Y8858761D02*
G01X3791227Y8858761D01*
G01X3749070Y8858761D01*
G01X3718585Y9116314D02*
G01X3741443Y9116314D01*
G01X3779035Y9116314D01*
G54D11*
G01X4361536Y9244002D02*
G01X4394989Y9210549D01*
G01X4436643Y9168895D01*
G54D58*
G01X2204235Y9450067D02*
G01X2397785Y9450067D01*
G01X2565174Y9450067D01*
G04 Track End*

M02*

