G04 Layer: BottomSilkscreenLayer*
G04 EasyEDA Pro v2.2.20.11, 2024-05-07 19:26:09*
G04 Gerber Generator version 0.3*
G04 Scale: 100 percent, Rotated: No, Reflected: No*
G04 Dimensions in millimeters*
G04 Leading zeros omitted, absolute positions, 3 integers and 5 decimals*
%FSLAX35Y35*%
%MOMM*%
%ADD10C,0.15001*%
%ADD11C,0.203*%
%ADD12C,0.2*%
%ADD13C,0.1524*%
G75*


G04 Text Start*
G54D10*
G01X3220806Y9919819D02*
G01X3220806Y9861907D01*
G01X3249762Y9890863D02*
G01X3191850Y9890863D01*
G01X3089234Y9929471D02*
G01X3089234Y9861907D01*
G01X3089234Y9929471D02*
G01X3060278Y9929471D01*
G01X3050626Y9926423D01*
G01X3047578Y9923121D01*
G01X3044276Y9916771D01*
G01X3044276Y9910167D01*
G01X3047578Y9903817D01*
G01X3050626Y9900515D01*
G01X3060278Y9897467D01*
G01X3089234Y9897467D01*
G01X3066882Y9897467D02*
G01X3044276Y9861907D01*
G01X3013796Y9929471D02*
G01X2968838Y9861907D01*
G01X2968838Y9929471D02*
G01X3013796Y9861907D01*
G01X2843870Y9929471D02*
G01X2843870Y9861907D01*
G01X2866222Y9929471D02*
G01X2821264Y9929471D01*
G01X2790784Y9929471D02*
G01X2745826Y9861907D01*
G01X2745826Y9929471D02*
G01X2790784Y9861907D01*
G01X2643210Y9890863D02*
G01X2585298Y9890863D01*
G01X2563901Y10066091D02*
G01X2507005Y10066091D01*
G01X3290443Y10079528D02*
G01X3290443Y10022632D01*
G01X3318891Y10051080D02*
G01X3261995Y10051080D01*
G54D11*
G01X4117340Y9964420D02*
G01X4099560Y9973310D01*
G01X4072890Y9999980D01*
G01X4072890Y9813290D01*
G01X3992118Y9999980D02*
G01X3894328Y9999980D01*
G01X3947668Y9928860D01*
G01X3920998Y9928860D01*
G01X3903218Y9919970D01*
G01X3894328Y9911080D01*
G01X3885438Y9884410D01*
G01X3885438Y9866630D01*
G01X3894328Y9839960D01*
G01X3912108Y9822180D01*
G01X3938778Y9813290D01*
G01X3965448Y9813290D01*
G01X3992118Y9822180D01*
G01X4001008Y9831070D01*
G01X4009898Y9848850D01*
G04 Text End*

G04 PolygonModel Start*
G54D12*
G01X5096535Y10009401D02*
G01X4946535Y10009401D01*
G01X5096535Y8659393D02*
G01X5096535Y8809393D01*
G01X2301537Y8659393D02*
G01X2451537Y8659393D01*
G01X2301524Y10011316D02*
G01X2301524Y9861316D01*
G01X4946535Y8659393D02*
G01X5096535Y8659393D01*
G01X5096535Y9859401D02*
G01X5096535Y10009401D01*
G01X2451524Y10011316D02*
G01X2301524Y10011316D01*
G01X2301537Y8809393D02*
G01X2301537Y8659393D01*
G54D13*
G01X3384220Y9137343D02*
G01X3384220Y9352582D01*
G01X3168980Y9137343D02*
G01X3168980Y9352582D01*

G04 Circle Start*
G54D10*
G01X3302356Y9174477D02*
G03X3317342Y9174477I7493J0D01*
G03X3302356Y9174477I-7493J0D01*
G04 Circle End*

M02*

