G04 Layer: TopSolderMaskLayer*
G04 EasyEDA Pro v2.2.20.11, 2024-05-07 19:26:09*
G04 Gerber Generator version 0.3*
G04 Scale: 100 percent, Rotated: No, Reflected: No*
G04 Dimensions in millimeters*
G04 Leading zeros omitted, absolute positions, 3 integers and 5 decimals*
%FSLAX35Y35*%
%MOMM*%
%AMRoundRect*1,1,$1,$2,$3*1,1,$1,$4,$5*1,1,$1,0-$2,0-$3*1,1,$1,0-$4,0-$5*20,1,$1,$2,$3,$4,$5,0*20,1,$1,$4,$5,0-$2,0-$3,0*20,1,$1,0-$2,0-$3,0-$4,0-$5,0*20,1,$1,0-$4,0-$5,$2,$3,0*4,1,4,$2,$3,$4,$5,0-$2,0-$3,0-$4,0-$5,$2,$3,0*%
%ADD10C,0.3*%
%ADD11C,3.10159*%
%ADD12C,0.4032*%
%ADD13RoundRect,0.1403X-0.25646X0.15646X0.25646X0.15646*%
%ADD14RoundRect,0.15499X0.24911X-0.37411X-0.24911X-0.37411*%
%ADD15RoundRect,0.1403X0.15646X0.25646X0.15646X-0.25646*%
%ADD16RoundRect,0.15499X-0.37411X-0.24911X-0.37411X0.24911*%
%ADD17RoundRect,0.17159X-0.4658X1.5158X0.4658X1.5158*%
%ADD18RoundRect,0.17384X-0.51468X0.66468X0.51468X0.66468*%
%ADD19RoundRect,0.16897X-0.73131X-0.14142X0.14142X0.73131*%
%ADD20RoundRect,0.16897X-0.14142X0.73131X0.73131X-0.14142*%
%ADD21RoundRect,0.16217X-0.32051X-0.62051X-0.32051X0.62051*%
%ADD22RoundRect,0.1775X0.61285X0.66285X0.61285X-0.66285*%
%ADD23RoundRect,0.08121X0.17219X0.16176X0.17219X-0.16176*%
%ADD24RoundRect,0.08121X0.16176X-0.17219X-0.16176X-0.17219*%
%ADD25RoundRect,0.08771X0.28977X-0.27695X-0.28977X-0.27695*%
%ADD26RoundRect,0.08771X0.27695X0.28977X0.27695X-0.28977*%
%ADD27RoundRect,0.1592X-0.422X0.288X0.422X0.288*%
%ADD28RoundRect,0.09495X-0.67833X-0.70833X-0.67833X0.70833*%
%ADD29RoundRect,0.0929X-0.49622X0.86834X0.49622X0.86834*%
%ADD30RoundRect,0.08771X-0.27695X-0.40199X-0.27695X0.40199*%
%ADD31RoundRect,0.08771X0.40199X-0.27695X-0.40199X-0.27695*%
%ADD32RoundRect,0.16897X-0.46711X-0.41711X-0.46711X0.41711*%
%ADD33RoundRect,0.16588X0.36866X0.64366X0.36866X-0.64366*%
%ADD34RoundRect,0.08202X-0.194X0.17179X0.194X0.17179*%
%ADD35RoundRect,0.08202X0.194X-0.17179X-0.194X-0.17179*%
%ADD36RoundRect,0.14305X-0.17008X0.38008X0.17008X0.38008*%
%ADD37RoundRect,0.14305X-0.38008X0.17008X0.38008X0.17008*%
%ADD38RoundRect,0.19207X-1.65657X1.65657X1.65657X1.65657*%
%ADD39RoundRect,0.08024X-0.26318X-0.15069X-0.26318X0.15069*%
%ADD40RoundRect,0.08024X-0.15069X-0.26318X-0.15069X0.26318*%
%ADD41RoundRect,0.09506X-0.69077X-0.69077X-0.69077X0.69077*%
%ADD42RoundRect,0.1723X-0.54544X-0.48045X-0.54544X0.48045*%
%ADD43O,0.48321X1.82321*%
%ADD44RoundRect,0.16897X0.41711X-0.46711X-0.41711X-0.46711*%
%ADD45RoundRect,0.15765X-0.27278X0.52278X0.27278X0.52278*%
%ADD46O,1.2032X1.0032*%
%ADD47RoundRect,0.08752X-1.00625X-0.30625X-1.00625X0.30625*%
%ADD48RoundRect,0.08002X-0.91X-0.16X-0.91X0.16*%
%ADD49RoundRect,0.08891X-0.45556X0.35556X0.45556X0.35556*%
%ADD50RoundRect,0.08891X0.45556X-0.35556X-0.45556X-0.35556*%
%ADD51RoundRect,0.17384X-0.51468X0.94968X0.51468X0.94968*%
%ADD52RoundRect,0.152X-1.0256X-0.2256X-1.0256X0.2256*%
%ADD53RoundRect,0.1403X-0.88145X-0.15646X-0.88145X0.15646*%
%ADD54RoundRect,0.1403X0.88145X0.15646X0.88145X-0.15646*%
%ADD55RoundRect,0.152X1.0256X0.2256X1.0256X-0.2256*%
%ADD56RoundRect,0.179X0.8621X0.6621X0.8621X-0.6621*%
%ADD57RoundRect,0.16217X-0.87051X-0.32051X-0.87051X0.32051*%
G75*


G04 PolygonModel Start*
G54D10*
G01X2199025Y9448820D02*
G01X2546528Y9448820D01*
G01X2546528Y9448820D02*
G01X2586525Y9408818D01*
G01X2586525Y9408818D02*
G01X2616525Y9378815D01*
G01X2616525Y9378815D02*
G01X2616525Y9128821D01*
G01X2196526Y9198821D02*
G01X2396528Y9198821D01*
G01X2396528Y9198821D02*
G01X2436525Y9158816D01*
G01X2436525Y9158816D02*
G01X2436525Y9038819D01*
G01X5271521Y9213814D02*
G01X4991524Y9213814D01*
G01X4991524Y9213814D02*
G01X4936520Y9158816D01*
G01X5271521Y9463814D02*
G01X4831522Y9463814D01*
G01X4831522Y9463814D02*
G01X4786526Y9418820D01*
G01X4786526Y9418820D02*
G01X4786526Y9188818D01*

G04 Rect Start*
G36*
G01X5332679Y8839530D02*
G01X5332679Y8929700D01*
G01X5542839Y8929700D01*
G01X5542839Y8839530D01*
G01X5332679Y8839530D01*
G37*
G36*
G01X5332679Y9764522D02*
G01X5332679Y9854692D01*
G01X5542839Y9854692D01*
G01X5542839Y9764522D01*
G01X5332679Y9764522D01*
G37*
G36*
G01X1481430Y8778748D02*
G01X1481430Y8878900D01*
G01X2271598Y8878900D01*
G01X2271598Y8778748D01*
G01X1481430Y8778748D01*
G37*
G36*
G01X1491437Y9773742D02*
G01X1491437Y9873894D01*
G01X2281606Y9873894D01*
G01X2281606Y9773742D01*
G01X1491437Y9773742D01*
G37*
G04 Rect End*

G04 Pad Start*
G54D11*
G01X5307762Y9978593D03*
G01X5307762Y8698611D03*
G01X1714525Y9966808D03*
G01X1714500Y8686800D03*
G54D12*
G01X4626508Y9088831D03*
G01X4586529Y9088831D03*
G01X4546524Y9088831D03*
G01X4546524Y9128811D03*
G01X4586529Y9128811D03*
G01X4626508Y9128811D03*
G01X4546524Y9168816D03*
G01X4546524Y9208821D03*
G01X4586529Y9168816D03*
G01X4626508Y9168816D03*
G01X4626508Y9208821D03*
G01X4586529Y9208821D03*
G54D13*
G01X4822901Y9662643D03*
G01X4822901Y9707651D03*
G54D14*
G01X4752899Y9685147D03*
G54D15*
G01X4496524Y9604299D03*
G01X4541533Y9604299D03*
G54D16*
G01X4519028Y9674301D03*
G54D17*
G01X3396513Y9740798D03*
G01X2456536Y9740798D03*
G54D18*
G01X2826487Y9595790D03*
G01X3026486Y9595790D03*
G01X2626512Y9595790D03*
G01X3226511Y9595790D03*
G54D19*
G01X2558517Y10001809D03*
G54D20*
G01X3294532Y10001860D03*
G54D21*
G01X4349013Y9883826D03*
G01X4689018Y9883826D03*
G54D22*
G01X4309034Y10078822D03*
G01X4729023Y10078822D03*
G54D21*
G01X3807013Y9883826D03*
G01X4147017Y9883826D03*
G54D22*
G01X3767033Y10078822D03*
G01X4187022Y10078822D03*
G54D23*
G01X3036519Y9377172D03*
G01X3036519Y9425483D03*
G01X5006515Y9634672D03*
G01X5006515Y9682983D03*
G54D24*
G01X4359877Y9581322D03*
G01X4408188Y9581322D03*
G01X4359877Y9491322D03*
G01X4408188Y9491322D03*
G01X4042377Y8958824D03*
G01X4090688Y8958824D03*
G54D23*
G01X3226519Y9377172D03*
G01X3226519Y9425483D03*
G01X3129879Y9373855D03*
G01X3129879Y9422166D03*
G54D25*
G01X4158234Y8628812D03*
G01X4244797Y8628812D03*
G54D26*
G01X3111508Y9164211D03*
G01X3111508Y9250774D03*
G54D25*
G01X3263435Y9136311D03*
G01X3349998Y9136311D03*
G01X2643236Y9346311D03*
G01X2729799Y9346311D03*
G54D27*
G01X3006522Y9063812D03*
G01X3006522Y9158808D03*
G01X3006522Y9253804D03*
G01X2766517Y9253804D03*
G01X2766517Y9158808D03*
G01X2766517Y9063812D03*
G54D28*
G01X2606523Y9158808D03*
G01X2606523Y8958809D03*
G54D29*
G01X2305710Y8648827D03*
G01X1967332Y8648827D03*
G54D30*
G01X3841521Y8708314D03*
G01X3841521Y8599322D03*
G54D31*
G01X3239529Y9253817D03*
G01X3348520Y9253817D03*
G01X2832029Y8938819D03*
G01X2941020Y8938819D03*
G54D32*
G01X3236519Y8778824D03*
G01X3236519Y8638819D03*
G54D30*
G01X3386531Y8773312D03*
G01X3386531Y8664321D03*
G01X3956530Y8708311D03*
G01X3956530Y8599320D03*
G54D33*
G01X3509035Y8638819D03*
G01X3699027Y8638819D03*
G01X3604031Y8838819D03*
G54D34*
G01X3748938Y8858809D03*
G01X3694100Y8858809D03*
G54D35*
G01X5001605Y9778827D03*
G01X5056444Y9778827D03*
G01X4429107Y8848829D03*
G01X4483946Y8848829D03*
G54D34*
G01X4633935Y8848809D03*
G01X4579097Y8848809D03*
G54D36*
G01X3641522Y9046083D03*
G01X3691534Y9046083D03*
G01X3741522Y9046083D03*
G01X3791534Y9046083D03*
G01X3841521Y9046083D03*
G01X3891534Y9046083D03*
G01X3941521Y9046083D03*
G01X3991534Y9046083D03*
G01X4041521Y9046083D03*
G01X4091534Y9046083D03*
G01X4141521Y9046083D03*
G01X4191533Y9046083D03*
G54D37*
G01X4259275Y9113799D03*
G01X4259275Y9163812D03*
G01X4259275Y9213799D03*
G01X4259275Y9263812D03*
G01X4259275Y9313799D03*
G01X4259275Y9363812D03*
G01X4259275Y9413799D03*
G01X4259275Y9463811D03*
G01X4259275Y9513799D03*
G01X4259275Y9563811D03*
G01X4259275Y9613798D03*
G01X4259275Y9663811D03*
G54D36*
G01X4191533Y9731553D03*
G01X4141521Y9731553D03*
G01X4091534Y9731553D03*
G01X4041521Y9731553D03*
G01X3991534Y9731553D03*
G01X3941521Y9731553D03*
G01X3891534Y9731553D03*
G01X3841521Y9731553D03*
G01X3791534Y9731553D03*
G01X3741522Y9731553D03*
G01X3691534Y9731553D03*
G01X3641522Y9731553D03*
G54D37*
G01X3573780Y9663811D03*
G01X3573780Y9613798D03*
G01X3573780Y9563811D03*
G01X3573780Y9513799D03*
G01X3573780Y9463811D03*
G01X3573780Y9413799D03*
G01X3573780Y9363812D03*
G01X3573780Y9313799D03*
G01X3573780Y9263812D03*
G01X3573780Y9213799D03*
G01X3573780Y9163812D03*
G01X3573780Y9113799D03*
G54D38*
G01X3916528Y9388805D03*
G54D39*
G01X5094275Y9928809D03*
G01X5094275Y9978822D03*
G01X5094275Y10028809D03*
G54D40*
G01X5051527Y10096576D03*
G01X5001514Y10096576D03*
G01X4951527Y10096576D03*
G01X4901514Y10096576D03*
G54D39*
G01X4858766Y10028809D03*
G01X4858766Y9978822D03*
G01X4858766Y9928809D03*
G54D40*
G01X4901514Y9861067D03*
G01X4951527Y9861067D03*
G01X5001514Y9861067D03*
G01X5051527Y9861067D03*
G54D41*
G01X4976520Y9978822D03*
G54D42*
G01X4826533Y8975420D03*
G01X4826533Y9312427D03*
G54D43*
G01X4636516Y9359824D03*
G01X4586503Y9359824D03*
G01X4536516Y9359824D03*
G01X4486504Y9359824D03*
G01X4436516Y9359824D03*
G01X4636516Y8937828D03*
G01X4586503Y8937828D03*
G01X4536516Y8937828D03*
G01X4486504Y8937828D03*
G01X4436516Y8937828D03*
G54D44*
G01X4246517Y8728822D03*
G01X4181518Y8888816D03*
G01X4311515Y8888816D03*
G54D45*
G01X4766473Y8847209D03*
G01X4866472Y8847209D03*
G01X4966472Y8847209D03*
G54D46*
G01X4606467Y8755206D03*
G01X5108478Y8755206D03*
G01X4606467Y8567191D03*
G01X5108478Y8567191D03*
G54D47*
G01X5262728Y9683572D03*
G54D48*
G01X5272786Y9613570D03*
G01X5272786Y9563583D03*
G01X5272786Y9513595D03*
G01X5272786Y9463710D03*
G01X5272786Y9413672D03*
G01X5272786Y9363583D03*
G01X5272786Y9313596D03*
G01X5272786Y9263583D03*
G01X5272786Y9213596D03*
G01X5272786Y9163736D03*
G01X5272786Y9113698D03*
G01X5272786Y9063660D03*
G54D49*
G01X3316529Y8968816D03*
G01X3056534Y8968816D03*
G54D50*
G01X2426520Y8688822D03*
G01X2686515Y8688822D03*
G54D51*
G01X3024024Y8699500D03*
G01X2830125Y8699500D03*
G54D52*
G01X2204161Y9600159D03*
G54D53*
G01X2189175Y9550146D03*
G01X2189175Y9500159D03*
G54D52*
G01X2204187Y9450146D03*
G54D53*
G01X2189201Y9400134D03*
G01X2189201Y9350146D03*
G54D54*
G01X2189201Y9300134D03*
G01X2189201Y9250147D03*
G54D55*
G01X2204212Y9200134D03*
G54D54*
G01X2189226Y9150121D03*
G01X2189226Y9100134D03*
G54D55*
G01X2204237Y9050122D03*
G54D56*
G01X2189988Y9710268D03*
G54D57*
G01X2189988Y8903284D03*
G04 Pad End*

M02*

