G04 Layer: TopPasteMaskLayer*
G04 EasyEDA Pro v2.2.20.11, 2024-05-07 19:26:09*
G04 Gerber Generator version 0.3*
G04 Scale: 100 percent, Rotated: No, Reflected: No*
G04 Dimensions in millimeters*
G04 Leading zeros omitted, absolute positions, 3 integers and 5 decimals*
%FSLAX35Y35*%
%MOMM*%
%AMRect*21,1,$1,$2,0,0,$3*%
%ADD10C,0.4032*%
%ADD11R,0.65321X0.45321*%
%ADD12R,0.65321X0.9032*%
%ADD13R,0.45321X0.65321*%
%ADD14R,0.9032X0.65321*%
%ADD15R,1.1032X3.20319*%
%ADD16R,1.2032X1.5032*%
%ADD17Rect,1.4012X1.0032X45.0*%
%ADD18Rect,1.4032X1.0032X45.0*%
%ADD19Rect,1.4032X1.0032X-45.0*%
%ADD20R,0.8032X1.4032*%
%ADD21R,1.4032X1.5032*%
%ADD22R,1.0032X0.7352*%
%ADD23R,1.1032X1.0032*%
%ADD24R,0.9032X1.45321*%
%ADD25R,0.48321X0.9032*%
%ADD26R,0.9032X0.48321*%
%ADD27R,3.5052X3.5052*%
%ADD28R,1.26319X1.1332*%
%ADD29O,0.48321X1.82321*%
%ADD30R,1.0032X1.1032*%
%ADD31R,0.7032X1.2032*%
%ADD32O,1.2032X1.0032*%
%ADD33R,2.0X0.6*%
%ADD34R,1.8X0.3*%
%ADD35R,0.9X0.7*%
%ADD36R,0.9X0.7*%
%ADD37R,1.2032X2.0732*%
%ADD38R,2.2032X0.6032*%
%ADD39R,1.9032X0.45321*%
%ADD40R,1.9032X0.45321*%
%ADD41R,2.2032X0.6032*%
%ADD42R,1.9032X1.5032*%
%ADD43R,1.9032X0.8032*%
G75*


G04 PolygonModel Start*
G36*
G01X3022724Y9393217D02*
G01X3050324Y9393217D01*
G01X3052724Y9390817D01*
G01X3052724Y9364403D01*
G01X3050324Y9362006D01*
G01X3022724Y9362006D01*
G01X3020324Y9364403D01*
G01X3020324Y9390817D01*
G01X3022724Y9393217D01*
G37*
G36*
G01X3022724Y9409417D02*
G01X3050324Y9409417D01*
G01X3052724Y9411818D01*
G01X3052724Y9438231D01*
G01X3050324Y9440629D01*
G01X3022724Y9440629D01*
G01X3020324Y9438231D01*
G01X3020324Y9411818D01*
G01X3022724Y9409417D01*
G37*
G36*
G01X4992721Y9650717D02*
G01X5020320Y9650717D01*
G01X5022720Y9648317D01*
G01X5022720Y9621904D01*
G01X5020320Y9619506D01*
G01X4992721Y9619506D01*
G01X4990320Y9621904D01*
G01X4990320Y9648317D01*
G01X4992721Y9650717D01*
G37*
G36*
G01X4992721Y9666917D02*
G01X5020320Y9666917D01*
G01X5022720Y9669318D01*
G01X5022720Y9695731D01*
G01X5020320Y9698129D01*
G01X4992721Y9698129D01*
G01X4990320Y9695731D01*
G01X4990320Y9669318D01*
G01X4992721Y9666917D01*
G37*
G36*
G01X4375922Y9595117D02*
G01X4375922Y9567517D01*
G01X4373522Y9565117D01*
G01X4347108Y9565117D01*
G01X4344711Y9567517D01*
G01X4344711Y9595117D01*
G01X4347108Y9597517D01*
G01X4373522Y9597517D01*
G01X4375922Y9595117D01*
G37*
G36*
G01X4392122Y9595117D02*
G01X4392122Y9567517D01*
G01X4394523Y9565117D01*
G01X4420936Y9565117D01*
G01X4423334Y9567517D01*
G01X4423334Y9595117D01*
G01X4420936Y9597517D01*
G01X4394523Y9597517D01*
G01X4392122Y9595117D01*
G37*
G36*
G01X4375922Y9505117D02*
G01X4375922Y9477517D01*
G01X4373522Y9475117D01*
G01X4347108Y9475117D01*
G01X4344711Y9477517D01*
G01X4344711Y9505117D01*
G01X4347108Y9507517D01*
G01X4373522Y9507517D01*
G01X4375922Y9505117D01*
G37*
G36*
G01X4392122Y9505117D02*
G01X4392122Y9477517D01*
G01X4394523Y9475117D01*
G01X4420936Y9475117D01*
G01X4423334Y9477517D01*
G01X4423334Y9505117D01*
G01X4420936Y9507517D01*
G01X4394523Y9507517D01*
G01X4392122Y9505117D01*
G37*
G36*
G01X4058422Y8972619D02*
G01X4058422Y8945019D01*
G01X4056022Y8942619D01*
G01X4029608Y8942619D01*
G01X4027211Y8945019D01*
G01X4027211Y8972619D01*
G01X4029608Y8975019D01*
G01X4056022Y8975019D01*
G01X4058422Y8972619D01*
G37*
G36*
G01X4074622Y8972619D02*
G01X4074622Y8945019D01*
G01X4077023Y8942619D01*
G01X4103436Y8942619D01*
G01X4105834Y8945019D01*
G01X4105834Y8972619D01*
G01X4103436Y8975019D01*
G01X4077023Y8975019D01*
G01X4074622Y8972619D01*
G37*
G36*
G01X3212724Y9393217D02*
G01X3240324Y9393217D01*
G01X3242724Y9390817D01*
G01X3242724Y9364403D01*
G01X3240324Y9362006D01*
G01X3212724Y9362006D01*
G01X3210324Y9364403D01*
G01X3210324Y9390817D01*
G01X3212724Y9393217D01*
G37*
G36*
G01X3212724Y9409417D02*
G01X3240324Y9409417D01*
G01X3242724Y9411818D01*
G01X3242724Y9438231D01*
G01X3240324Y9440629D01*
G01X3212724Y9440629D01*
G01X3210324Y9438231D01*
G01X3210324Y9411818D01*
G01X3212724Y9409417D01*
G37*
G36*
G01X3116085Y9389900D02*
G01X3143684Y9389900D01*
G01X3146085Y9387500D01*
G01X3146085Y9361086D01*
G01X3143684Y9358688D01*
G01X3116085Y9358688D01*
G01X3113684Y9361086D01*
G01X3113684Y9387500D01*
G01X3116085Y9389900D01*
G37*
G36*
G01X3116085Y9406100D02*
G01X3143684Y9406100D01*
G01X3146085Y9408500D01*
G01X3146085Y9434914D01*
G01X3143684Y9437312D01*
G01X3116085Y9437312D01*
G01X3113684Y9434914D01*
G01X3113684Y9408500D01*
G01X3116085Y9406100D01*
G37*
G36*
G01X4188023Y8651819D02*
G01X4188023Y8605820D01*
G01X4184023Y8601819D01*
G01X4133959Y8601819D01*
G01X4129959Y8605820D01*
G01X4129959Y8651819D01*
G01X4133959Y8655820D01*
G01X4184023Y8655820D01*
G01X4188023Y8651819D01*
G37*
G36*
G01X4215023Y8651819D02*
G01X4215023Y8605820D01*
G01X4219024Y8601819D01*
G01X4269087Y8601819D01*
G01X4273088Y8605820D01*
G01X4273088Y8651819D01*
G01X4269087Y8655820D01*
G01X4219024Y8655820D01*
G01X4215023Y8651819D01*
G37*
G36*
G01X3088500Y9194000D02*
G01X3134500Y9194000D01*
G01X3138500Y9189999D01*
G01X3138500Y9139936D01*
G01X3134500Y9135936D01*
G01X3088500Y9135936D01*
G01X3084500Y9139936D01*
G01X3084500Y9189999D01*
G01X3088500Y9194000D01*
G37*
G36*
G01X3088500Y9221000D02*
G01X3134500Y9221000D01*
G01X3138500Y9225001D01*
G01X3138500Y9275064D01*
G01X3134500Y9279065D01*
G01X3088500Y9279065D01*
G01X3084500Y9275064D01*
G01X3084500Y9225001D01*
G01X3088500Y9221000D01*
G37*
G36*
G01X3293224Y9159319D02*
G01X3293224Y9113319D01*
G01X3289224Y9109319D01*
G01X3239160Y9109319D01*
G01X3235160Y9113319D01*
G01X3235160Y9159319D01*
G01X3239160Y9163319D01*
G01X3289224Y9163319D01*
G01X3293224Y9159319D01*
G37*
G36*
G01X3320225Y9159319D02*
G01X3320225Y9113319D01*
G01X3324225Y9109319D01*
G01X3374288Y9109319D01*
G01X3378289Y9113319D01*
G01X3378289Y9159319D01*
G01X3374288Y9163319D01*
G01X3324225Y9163319D01*
G01X3320225Y9159319D01*
G37*
G36*
G01X2673025Y9369318D02*
G01X2673025Y9323319D01*
G01X2669024Y9319318D01*
G01X2618961Y9319318D01*
G01X2614960Y9323319D01*
G01X2614960Y9369318D01*
G01X2618961Y9373319D01*
G01X2669024Y9373319D01*
G01X2673025Y9369318D01*
G37*
G36*
G01X2700025Y9369318D02*
G01X2700025Y9323319D01*
G01X2704026Y9319318D01*
G01X2754089Y9319318D01*
G01X2758089Y9323319D01*
G01X2758089Y9369318D01*
G01X2754089Y9373319D01*
G01X2704026Y9373319D01*
G01X2700025Y9369318D01*
G37*
G36*
G01X2668521Y8891316D02*
G01X2540523Y8891316D01*
G01X2535522Y8896317D01*
G01X2535522Y9011318D01*
G01X2540523Y9016317D01*
G01X2581526Y9016820D01*
G01X2581526Y8971818D01*
G01X2626525Y8971818D01*
G01X2626525Y9015819D01*
G01X2668521Y9016317D01*
G01X2673523Y9011318D01*
G01X2673523Y8896317D01*
G01X2668521Y8891316D01*
G37*
G36*
G01X2668521Y9106317D02*
G01X2626525Y9106319D01*
G01X2626525Y9150817D01*
G01X2581526Y9150817D01*
G01X2581526Y9106819D01*
G01X2540523Y9106317D01*
G01X2535522Y9111318D01*
G01X2535522Y9226316D01*
G01X2540523Y9231318D01*
G01X2668521Y9231318D01*
G01X2673523Y9226316D01*
G01X2673523Y9111318D01*
G01X2668521Y9106317D01*
G37*
G36*
G01X2256526Y8621171D02*
G01X2256526Y8676467D01*
G01X2289973Y8735220D01*
G01X2344900Y8735220D01*
G01X2354900Y8725220D01*
G01X2354900Y8572419D01*
G01X2344900Y8562419D01*
G01X2289973Y8562419D01*
G01X2256526Y8621171D01*
G37*
G36*
G01X2016526Y8621171D02*
G01X2016526Y8676467D01*
G01X1983080Y8735220D01*
G01X1928152Y8735220D01*
G01X1918152Y8725220D01*
G01X1918152Y8572419D01*
G01X1928152Y8562419D01*
G01X1983080Y8562419D01*
G01X2016526Y8621171D01*
G37*
G36*
G01X3819020Y8635815D02*
G01X3864021Y8635815D01*
G01X3869019Y8628817D01*
G01X3869019Y8580816D01*
G01X3864021Y8575815D01*
G01X3819020Y8575815D01*
G01X3814021Y8580816D01*
G01X3814021Y8628817D01*
G01X3819020Y8635815D01*
G37*
G36*
G01X3819020Y8731816D02*
G01X3864021Y8731816D01*
G01X3869019Y8726815D01*
G01X3869019Y8678817D01*
G01X3864021Y8671817D01*
G01X3819020Y8671817D01*
G01X3814021Y8678817D01*
G01X3814021Y8726815D01*
G01X3819020Y8731816D01*
G37*
G36*
G01X3312028Y9231315D02*
G01X3312028Y9276316D01*
G01X3319026Y9281315D01*
G01X3367027Y9281315D01*
G01X3372028Y9276316D01*
G01X3372028Y9231315D01*
G01X3367027Y9226316D01*
G01X3319026Y9226316D01*
G01X3312028Y9231315D01*
G37*
G36*
G01X3216026Y9231315D02*
G01X3216026Y9276316D01*
G01X3221027Y9281315D01*
G01X3269026Y9281315D01*
G01X3276026Y9276316D01*
G01X3276026Y9231315D01*
G01X3269026Y9226316D01*
G01X3221027Y9226316D01*
G01X3216026Y9231315D01*
G37*
G36*
G01X2904528Y8916317D02*
G01X2904528Y8961318D01*
G01X2911526Y8966317D01*
G01X2959527Y8966317D01*
G01X2964528Y8961318D01*
G01X2964528Y8916317D01*
G01X2959527Y8911318D01*
G01X2911526Y8911318D01*
G01X2904528Y8916317D01*
G37*
G36*
G01X2808526Y8916317D02*
G01X2808526Y8961318D01*
G01X2813528Y8966317D01*
G01X2861526Y8966317D01*
G01X2868526Y8961318D01*
G01X2868526Y8916317D01*
G01X2861526Y8911318D01*
G01X2813528Y8911318D01*
G01X2808526Y8916317D01*
G37*
G36*
G01X3364022Y8700816D02*
G01X3409023Y8700816D01*
G01X3414022Y8693818D01*
G01X3414022Y8645817D01*
G01X3409023Y8640816D01*
G01X3364022Y8640816D01*
G01X3359023Y8645817D01*
G01X3359023Y8693818D01*
G01X3364022Y8700816D01*
G37*
G36*
G01X3364022Y8796818D02*
G01X3409023Y8796818D01*
G01X3414022Y8791816D01*
G01X3414022Y8743818D01*
G01X3409023Y8736818D01*
G01X3364022Y8736818D01*
G01X3359023Y8743818D01*
G01X3359023Y8791816D01*
G01X3364022Y8796818D01*
G37*
G36*
G01X3934021Y8635815D02*
G01X3979022Y8635815D01*
G01X3984020Y8628817D01*
G01X3984020Y8580816D01*
G01X3979022Y8575815D01*
G01X3934021Y8575815D01*
G01X3929022Y8580816D01*
G01X3929022Y8628817D01*
G01X3934021Y8635815D01*
G37*
G36*
G01X3934021Y8731816D02*
G01X3979022Y8731816D01*
G01X3984020Y8726815D01*
G01X3984020Y8678817D01*
G01X3979022Y8671817D01*
G01X3934021Y8671817D01*
G01X3929022Y8678817D01*
G01X3929022Y8726815D01*
G01X3934021Y8731816D01*
G37*
G36*
G01X3729624Y8845019D02*
G01X3729624Y8872619D01*
G01X3732025Y8875019D01*
G01X3764968Y8875019D01*
G01X3767369Y8872619D01*
G01X3767369Y8845019D01*
G01X3764968Y8842619D01*
G01X3732025Y8842619D01*
G01X3729624Y8845019D01*
G37*
G36*
G01X3713424Y8845019D02*
G01X3713424Y8872619D01*
G01X3711024Y8875019D01*
G01X3678080Y8875019D01*
G01X3675680Y8872619D01*
G01X3675680Y8845019D01*
G01X3678080Y8842619D01*
G01X3711024Y8842619D01*
G01X3713424Y8845019D01*
G37*
G36*
G01X5020920Y9792617D02*
G01X5020920Y9765017D01*
G01X5018519Y9762617D01*
G01X4985576Y9762617D01*
G01X4983175Y9765017D01*
G01X4983175Y9792617D01*
G01X4985576Y9795017D01*
G01X5018519Y9795017D01*
G01X5020920Y9792617D01*
G37*
G36*
G01X5037120Y9792617D02*
G01X5037120Y9765017D01*
G01X5039520Y9762617D01*
G01X5072464Y9762617D01*
G01X5074864Y9765017D01*
G01X5074864Y9792617D01*
G01X5072464Y9795017D01*
G01X5039520Y9795017D01*
G01X5037120Y9792617D01*
G37*
G36*
G01X4448421Y8862619D02*
G01X4448421Y8835019D01*
G01X4446021Y8832619D01*
G01X4413077Y8832619D01*
G01X4410677Y8835019D01*
G01X4410677Y8862619D01*
G01X4413077Y8865019D01*
G01X4446021Y8865019D01*
G01X4448421Y8862619D01*
G37*
G36*
G01X4464622Y8862619D02*
G01X4464622Y8835019D01*
G01X4467022Y8832619D01*
G01X4499966Y8832619D01*
G01X4502366Y8835019D01*
G01X4502366Y8862619D01*
G01X4499966Y8865019D01*
G01X4467022Y8865019D01*
G01X4464622Y8862619D01*
G37*
G36*
G01X4614621Y8835019D02*
G01X4614621Y8862619D01*
G01X4617022Y8865019D01*
G01X4649965Y8865019D01*
G01X4652366Y8862619D01*
G01X4652366Y8835019D01*
G01X4649965Y8832619D01*
G01X4617022Y8832619D01*
G01X4614621Y8835019D01*
G37*
G36*
G01X4598421Y8835019D02*
G01X4598421Y8862619D01*
G01X4596021Y8865019D01*
G01X4563077Y8865019D01*
G01X4560677Y8862619D01*
G01X4560677Y8835019D01*
G01X4563077Y8832619D01*
G01X4596021Y8832619D01*
G01X4598421Y8835019D01*
G37*
G36*
G01X5031522Y9923816D02*
G01X4921519Y9923816D01*
G01X4921519Y10033818D01*
G01X5031522Y10033818D01*
G01X5031522Y9923816D01*
G37*
G36*
G01X5119520Y9914816D02*
G01X5069020Y9914816D01*
G01X5069020Y9942817D01*
G01X5119520Y9942817D01*
G01X5119520Y9914816D01*
G37*
G36*
G01X5119520Y9964816D02*
G01X5069020Y9964816D01*
G01X5069020Y9992817D01*
G01X5119520Y9992817D01*
G01X5119520Y9964816D01*
G37*
G36*
G01X5119520Y10014816D02*
G01X5069020Y10014816D01*
G01X5069020Y10042817D01*
G01X5119520Y10042817D01*
G01X5119520Y10014816D01*
G37*
G36*
G01X5065519Y10121816D02*
G01X5037521Y10121816D01*
G01X5037521Y10071316D01*
G01X5065519Y10071316D01*
G01X5065519Y10121816D01*
G37*
G36*
G01X5015520Y10121816D02*
G01X4987521Y10121816D01*
G01X4987521Y10071316D01*
G01X5015520Y10071316D01*
G01X5015520Y10121816D01*
G37*
G36*
G01X4965520Y10121816D02*
G01X4937521Y10121816D01*
G01X4937521Y10071316D01*
G01X4965520Y10071316D01*
G01X4965520Y10121816D01*
G37*
G36*
G01X4915520Y10121816D02*
G01X4887521Y10121816D01*
G01X4887521Y10071316D01*
G01X4915520Y10071316D01*
G01X4915520Y10121816D01*
G37*
G36*
G01X4833521Y10014816D02*
G01X4884021Y10014816D01*
G01X4884021Y10042817D01*
G01X4833521Y10042817D01*
G01X4833521Y10014816D01*
G37*
G36*
G01X4833521Y9964816D02*
G01X4884021Y9964816D01*
G01X4884021Y9992817D01*
G01X4833521Y9992817D01*
G01X4833521Y9964816D01*
G37*
G36*
G01X4833521Y9914816D02*
G01X4884021Y9914816D01*
G01X4884021Y9942817D01*
G01X4833521Y9942817D01*
G01X4833521Y9914816D01*
G37*
G36*
G01X4915520Y9886318D02*
G01X4887521Y9886318D01*
G01X4887521Y9835817D01*
G01X4915520Y9835817D01*
G01X4915520Y9886318D01*
G37*
G36*
G01X4965520Y9886318D02*
G01X4937521Y9886318D01*
G01X4937521Y9835817D01*
G01X4965520Y9835817D01*
G01X4965520Y9886318D01*
G37*
G36*
G01X5015520Y9886318D02*
G01X4987521Y9886318D01*
G01X4987521Y9835817D01*
G01X5015520Y9835817D01*
G01X5015520Y9886318D01*
G37*
G36*
G01X5065519Y9886318D02*
G01X5037521Y9886318D01*
G01X5037521Y9835817D01*
G01X5065519Y9835817D01*
G01X5065519Y9886318D01*
G37*

G04 Pad Start*
G54D10*
G01X4626508Y9088831D03*
G01X4586529Y9088831D03*
G01X4546524Y9088831D03*
G01X4546524Y9128811D03*
G01X4586529Y9128811D03*
G01X4626508Y9128811D03*
G01X4546524Y9168816D03*
G01X4546524Y9208821D03*
G01X4586529Y9168816D03*
G01X4626508Y9168816D03*
G01X4626508Y9208821D03*
G01X4586529Y9208821D03*
G54D11*
G01X4822901Y9662643D03*
G01X4822901Y9707651D03*
G54D12*
G01X4752899Y9685147D03*
G54D13*
G01X4496524Y9604299D03*
G01X4541533Y9604299D03*
G54D14*
G01X4519028Y9674301D03*
G54D15*
G01X3396513Y9740798D03*
G01X2456536Y9740798D03*
G54D16*
G01X2826487Y9595790D03*
G01X3026486Y9595790D03*
G01X2626512Y9595790D03*
G01X3226511Y9595790D03*
G54D18*
G01X2558517Y10001809D03*
G54D19*
G01X3294532Y10001860D03*
G54D20*
G01X4349013Y9883826D03*
G01X4689018Y9883826D03*
G54D21*
G01X4309034Y10078822D03*
G01X4729023Y10078822D03*
G54D20*
G01X3807013Y9883826D03*
G01X4147017Y9883826D03*
G54D21*
G01X3767033Y10078822D03*
G01X4187022Y10078822D03*
G54D22*
G01X3006522Y9063812D03*
G01X3006522Y9158808D03*
G01X3006522Y9253804D03*
G01X2766517Y9253804D03*
G01X2766517Y9158808D03*
G01X2766517Y9063812D03*
G54D23*
G01X3236519Y8778824D03*
G01X3236519Y8638819D03*
G54D24*
G01X3509035Y8638819D03*
G01X3699027Y8638819D03*
G01X3604031Y8838819D03*
G54D25*
G01X3641522Y9046083D03*
G01X3691534Y9046083D03*
G01X3741522Y9046083D03*
G01X3791534Y9046083D03*
G01X3841521Y9046083D03*
G01X3891534Y9046083D03*
G01X3941521Y9046083D03*
G01X3991534Y9046083D03*
G01X4041521Y9046083D03*
G01X4091534Y9046083D03*
G01X4141521Y9046083D03*
G01X4191533Y9046083D03*
G54D26*
G01X4259275Y9113799D03*
G01X4259275Y9163812D03*
G01X4259275Y9213799D03*
G01X4259275Y9263812D03*
G01X4259275Y9313799D03*
G01X4259275Y9363812D03*
G01X4259275Y9413799D03*
G01X4259275Y9463811D03*
G01X4259275Y9513799D03*
G01X4259275Y9563811D03*
G01X4259275Y9613798D03*
G01X4259275Y9663811D03*
G54D25*
G01X4191533Y9731553D03*
G01X4141521Y9731553D03*
G01X4091534Y9731553D03*
G01X4041521Y9731553D03*
G01X3991534Y9731553D03*
G01X3941521Y9731553D03*
G01X3891534Y9731553D03*
G01X3841521Y9731553D03*
G01X3791534Y9731553D03*
G01X3741522Y9731553D03*
G01X3691534Y9731553D03*
G01X3641522Y9731553D03*
G54D26*
G01X3573780Y9663811D03*
G01X3573780Y9613798D03*
G01X3573780Y9563811D03*
G01X3573780Y9513799D03*
G01X3573780Y9463811D03*
G01X3573780Y9413799D03*
G01X3573780Y9363812D03*
G01X3573780Y9313799D03*
G01X3573780Y9263812D03*
G01X3573780Y9213799D03*
G01X3573780Y9163812D03*
G01X3573780Y9113799D03*
G54D27*
G01X3916528Y9388805D03*
G54D28*
G01X4826533Y8975420D03*
G01X4826533Y9312427D03*
G54D29*
G01X4636516Y9359824D03*
G01X4586503Y9359824D03*
G01X4536516Y9359824D03*
G01X4486504Y9359824D03*
G01X4436516Y9359824D03*
G01X4636516Y8937828D03*
G01X4586503Y8937828D03*
G01X4536516Y8937828D03*
G01X4486504Y8937828D03*
G01X4436516Y8937828D03*
G54D30*
G01X4246517Y8728822D03*
G01X4181518Y8888816D03*
G01X4311515Y8888816D03*
G54D31*
G01X4766473Y8847209D03*
G01X4866472Y8847209D03*
G01X4966472Y8847209D03*
G54D32*
G01X4606467Y8755206D03*
G01X5108478Y8755206D03*
G01X4606467Y8567191D03*
G01X5108478Y8567191D03*
G54D33*
G01X5262728Y9683572D03*
G54D34*
G01X5272786Y9613570D03*
G01X5272786Y9563583D03*
G01X5272786Y9513595D03*
G01X5272786Y9463710D03*
G01X5272786Y9413672D03*
G01X5272786Y9363583D03*
G01X5272786Y9313596D03*
G01X5272786Y9263583D03*
G01X5272786Y9213596D03*
G01X5272786Y9163736D03*
G01X5272786Y9113698D03*
G01X5272786Y9063660D03*
G54D35*
G01X3316529Y8968816D03*
G01X3056534Y8968816D03*
G54D36*
G01X2426520Y8688822D03*
G01X2686515Y8688822D03*
G54D37*
G01X3024024Y8699500D03*
G01X2830125Y8699500D03*
G54D38*
G01X2204161Y9600159D03*
G54D39*
G01X2189175Y9550146D03*
G01X2189175Y9500159D03*
G54D38*
G01X2204187Y9450146D03*
G54D39*
G01X2189201Y9400134D03*
G01X2189201Y9350146D03*
G54D40*
G01X2189201Y9300134D03*
G01X2189201Y9250147D03*
G54D41*
G01X2204212Y9200134D03*
G54D40*
G01X2189226Y9150121D03*
G01X2189226Y9100134D03*
G54D41*
G01X2204237Y9050122D03*
G54D42*
G01X2189988Y9710268D03*
G54D43*
G01X2189988Y8903284D03*
G04 Pad End*

M02*

