G04 Layer: InnerLayer1*
G04 EasyEDA Pro v2.2.20.11, 2024-05-07 19:26:09*
G04 Gerber Generator version 0.3*
G04 Scale: 100 percent, Rotated: No, Reflected: No*
G04 Dimensions in millimeters*
G04 Leading zeros omitted, absolute positions, 3 integers and 5 decimals*
%FSLAX35Y35*%
%MOMM*%
%ADD8191C,0.2032*%
%ADD10C,2.99999*%
%ADD11C,0.4*%
%ADD12C,0.55001*%
%ADD13C,0.37998*%
%ADD14C,0.2067*%
%ADD15C,0.2*%
%ADD16C,0.18999*%
%ADD17C,0.172*%
G75*


G04 Copper Start*
G36*
G01X1947512Y8548901D02*
G01X1680669Y8548624D01*
G01X1676987Y8548665D01*
G01X1676987Y8548665D01*
G01X1676766Y8548667D01*
G01X1676749Y8548667D01*
G01X1676588Y8548667D01*
G02X1512402Y8712852I0J164186D01*
G01X1512402Y8712855D01*
G01X1512341Y8714944D01*
G01X1512341Y8839479D01*
G01X1982132Y8839479D01*
G03X1985965Y8839274I3833J35608D01*
G01X1985965Y8839274D01*
G01X2085909Y8839274D01*
G01X2087954Y8839215D01*
G03X2123768Y8875029I0J35814D01*
G01X2123768Y8875029D01*
G01X2123768Y9166367D01*
G01X2123768Y9166367D01*
G03X2123514Y9170625I-35814J0D01*
G01X2123514Y9366944D01*
G01X2144162Y9346300D01*
G01X2144162Y9346300D01*
G03X2176554Y9332885I32392J32398D01*
G01X2176554Y9332885D01*
G01X2274996Y9332885D01*
G03X2274773Y9327947I54590J-4938D01*
G03X2329586Y9273134I54813J0D01*
G03X2356587Y9280245I0J54813D01*
G03X2375553Y9273725I27000J47702D01*
G03X2424558Y9238204I52026J20211D01*
G01X2424558Y9238204D01*
G03X2416531Y9234581I21970J-59381D01*
G03X2386533Y9242138I-29997J-55757D01*
G03X2323219Y9178823I0J-63315D01*
G03X2330776Y9148826I63315J0D01*
G03X2323219Y9118829I55757J-29997D01*
G03X2330783Y9088819I63315J0D01*
G03X2323219Y9058808I55751J-30010D01*
G03X2330776Y9028811I63315J0D01*
G03X2323219Y8998814I55757J-29997D01*
G03X2386533Y8935499I63315J0D01*
G03X2416531Y8943056I0J63315D01*
G03X2446528Y8935499I29997J55757D01*
G03X2509843Y8998814I0J63315D01*
G03X2503753Y9025906I-63315J0D01*
G03X2526525Y9033055I-7238J62900D01*
G03X2556535Y9025491I30010J55751D01*
G03X2586533Y9033048I0J63315D01*
G03X2616530Y9025491I29997J55757D01*
G03X2679763Y9085594I0J63315D01*
G03X2739840Y9148826I-3238J63232D01*
G03X2688119Y9211070I-63315J0D01*
G03X2709842Y9258808I-41591J47738D01*
G03X2702278Y9288818I-63315J0D01*
G03X2709842Y9318828I-55751J30010D01*
G03X2688574Y9366165I-63315J0D01*
G03X2689852Y9378823I-62036J12658D01*
G03X2649184Y9437949I-63315J0D01*
G03X2595645Y9491466I-62652J-9139D01*
G03X2569717Y9522729I-59124J-22651D01*
G03X2506523Y9582142I-63194J-3901D01*
G03X2476525Y9574585I0J-63315D01*
G03X2446528Y9582142I-29997J-55757D01*
G03X2416531Y9574585I0J-63315D01*
G03X2386533Y9582142I-29997J-55757D01*
G03X2323339Y9522729I0J-63315D01*
G03X2293221Y9468815I33197J-53914D01*
G03X2293864Y9459816I63315J0D01*
G01X2217542Y9459816D01*
G01X2217542Y10015042D01*
G01X2245566Y10043066D01*
G01X2568300Y10043066D01*
G02X2573485Y10019002I-53813J-24186D01*
G01X2573485Y9713801D01*
G01X2573485Y9713801D01*
G03X2586494Y9682395I44414J0D01*
G01X2586494Y9682395D01*
G01X2660995Y9607895D01*
G01X2660995Y9607895D01*
G03X2692400Y9594886I31405J31405D01*
G01X2692400Y9594886D01*
G01X2826403Y9594886D01*
G01X3194086Y9227203D01*
G01X3194086Y9050802D01*
G03X3182686Y9017000I44414J-33802D01*
G03X3238500Y8961186I55814J0D01*
G03X3294314Y9017000I0J55814D01*
G03X3282914Y9050802I-55814J0D01*
G01X3282914Y9245600D01*
G01X3282914Y9245600D01*
G03X3269905Y9277005I-44414J0D01*
G01X3269905Y9277005D01*
G01X3203869Y9343042D01*
G01X3663051Y9343042D01*
G01X3666400Y9341846D01*
G03X3696487Y9333042I30087J47010D01*
G03X3752301Y9388856I0J55814D01*
G03X3696487Y9444670I-55814J0D01*
G03X3666395Y9435863I0J-55814D01*
G01X3663054Y9434670D01*
G01X3500659Y9434670D01*
G03X3522330Y9478823I-34143J44153D01*
G03X3478472Y9533341I-55814J0D01*
G01X3475271Y9534857D01*
G01X3318922Y9691212D01*
G01X3318922Y9691212D01*
G03X3286526Y9704631I-32396J-32395D01*
G01X3286526Y9704631D01*
G01X3145224Y9704631D01*
G03X3207319Y9790786I-28720J86154D01*
G03X3116504Y9881601I-90815J0D01*
G03X3072336Y9870137I0J-90815D01*
G01X3072336Y9975371D01*
G01X3073526Y9978699D01*
G03X3081528Y9999270I-46989J30120D01*
G03X3136519Y9953005I54991J9549D01*
G03X3144063Y9953517I0J55814D01*
G01X3454017Y9643563D01*
G01X3455536Y9640359D01*
G03X3510051Y9596516I54515J11971D01*
G03X3550597Y9613974I0J55814D01*
G01X3550597Y9518907D01*
G01X3550597Y9518907D01*
G03X3564014Y9486513I45814J0D01*
G01X3564014Y9486513D01*
G01X3584080Y9466445D01*
G01X3584080Y9466445D01*
G03X3616477Y9453024I32397J32393D01*
G01X3616477Y9453024D01*
G01X3633069Y9453024D01*
G01X3636363Y9451844D01*
G03X3666515Y9442999I30152J46969D01*
G03X3722329Y9498813I0J55814D01*
G03X3706921Y9537317I-55814J0D01*
G03X3711048Y9549351I-50388J24005D01*
G01X3712572Y9552569D01*
G01X3753004Y9593003D01*
G01X4040856Y9593003D01*
G03X4040698Y9588805I55656J-4199D01*
G03X4049502Y9558718I55814J0D01*
G01X4050695Y9555374D01*
G01X4050695Y8902250D01*
G01X4049500Y8898900D01*
G03X4040698Y8868816I47012J-30084D01*
G03X4096512Y8813002I55814J0D01*
G03X4152326Y8868816I0J55814D01*
G03X4143517Y8898912I-55814J0D01*
G01X4142323Y8902252D01*
G01X4142323Y9058223D01*
G01X4220708Y8979844D01*
G01X4220708Y8922275D01*
G01X4219512Y8918932D01*
G03X4210700Y8888832I47002J-30100D01*
G03X4266514Y8833018I55814J0D01*
G03X4270713Y8833176I0J55814D01*
G01X4270713Y8639735D01*
G01X4269524Y8636407D01*
G03X4260713Y8606307I47002J-30099D01*
G03X4306789Y8551349I55814J0D01*
G01X3683202Y8550702D01*
G01X3723932Y8591433D01*
G01X3723932Y8591433D01*
G03X3737351Y8623828I-32395J32395D01*
G01X3737351Y8623828D01*
G01X3737351Y8937875D01*
G01X3738545Y8941218D01*
G03X3747348Y8971305I-47010J30087D01*
G03X3691534Y9027119I-55814J0D01*
G03X3635720Y8971305I0J-55814D01*
G03X3644532Y8941206I55814J0D01*
G01X3645723Y8937872D01*
G01X3645723Y8642805D01*
G01X3597551Y8594634D01*
G01X2045498Y8594634D01*
G01X2042560Y8597571D01*
G01X2041055Y8600749D01*
G03X1986534Y8644621I-54521J-11942D01*
G03X1930720Y8588807I0J-55814D01*
G03X1947512Y8548901I55814J0D01*
G37*
%LPC*%
G36*
G01X3846525Y8932992D02*
G03X3902339Y8988806I0J55814D01*
G03X3846525Y9044620I-55814J0D01*
G03X3790711Y8988806I0J-55814D01*
G03X3846525Y8932992I55814J0D01*
G37*
G36*
G01X3347786Y9067800D02*
G03X3403600Y9011986I55814J0D01*
G03X3459414Y9067800I0J55814D01*
G03X3403600Y9123614I-55814J0D01*
G03X3347786Y9067800I0J-55814D01*
G37*
%LPD*%
G36*
G01X2090605Y9811012D02*
G03X2087819Y9811121I-2786J-35705D01*
G01X2087819Y9811121D01*
G01X1986219Y9811121D01*
G01X1986219Y9811121D01*
G01X1985013Y9811101D01*
G01X1512402Y9811101D01*
G01X1512402Y9948814D01*
G01X1512402Y9948817D01*
G02X1673780Y10112978I164186J-0D01*
G01X2136353Y10113475D01*
G01X2104023Y10081142D01*
G01X2104023Y10081142D01*
G03X2090605Y10048748I32396J-32394D01*
G01X2090605Y10048748D01*
G01X2090605Y9811012D01*
G37*
G36*
G01X3185459Y9434670D02*
G01X3182572Y9437557D01*
G01X3181058Y9440754D01*
G03X3126537Y9484624I-54521J-11943D01*
G03X3083078Y9463833I0J-55814D01*
G01X2876205Y9670705D01*
G01X2876205Y9670705D01*
G03X2844800Y9683714I-31405J-31405D01*
G01X2844800Y9683714D01*
G01X2710797Y9683714D01*
G01X2662313Y9732198D01*
G01X2662313Y9738433D01*
G03X2736520Y9699970I74206J52353D01*
G03X2827335Y9790786I0J90815D01*
G03X2736520Y9881601I-90815J0D01*
G03X2662313Y9843138I0J-90815D01*
G01X2662313Y10018785D01*
G01X2662313Y10018880D01*
G01X2662313Y10018880D01*
G02X2667499Y10043066I58998J0D01*
G01X2812463Y10043066D01*
G03X2800721Y10008819I44072J-34247D01*
G03X2856535Y9953005I55814J0D01*
G03X2886619Y9961807I0J55814D01*
G01X2889968Y9963003D01*
G01X2897550Y9963003D01*
G01X2920713Y9939840D01*
G01X2920713Y9708817D01*
G01X2920713Y9708817D01*
G03X2934132Y9676422I45814J0D01*
G01X2934132Y9676422D01*
G01X3034131Y9576422D01*
G01X3034131Y9576422D01*
G03X3066527Y9563003I32395J32395D01*
G01X3066527Y9563003D01*
G01X3237547Y9563003D01*
G01X3351629Y9448921D01*
G03X3350707Y9438818I54892J-10104D01*
G03X3350861Y9434670I55814J0D01*
G01X3185459Y9434670D01*
G37*
G36*
G01X3092447Y10043066D02*
G03X3081528Y10018368I44072J-34247D01*
G03X3070609Y10043066I-54991J-9549D01*
G01X3092447Y10043066D01*
G37*
G36*
G01X4663710Y9660645D02*
G01X4467576Y9464511D01*
G03X4457303Y9484054I-53564J-15686D01*
G03X4502338Y9538818I-10779J54763D01*
G03X4472820Y9588049I-55814J0D01*
G01X4466618Y9593603D01*
G01X4348899Y9711317D01*
G01X4348899Y9711317D01*
G03X4316504Y9724735I-32395J-32396D01*
G01X4316504Y9724735D01*
G01X3636543Y9724735D01*
G01X3636543Y9724735D01*
G03X3604150Y9711319I0J-45814D01*
G01X3604150Y9711319D01*
G01X3564018Y9671192D01*
G01X3564018Y9671192D01*
G01X3562961Y9670100D01*
G03X3522000Y9706850I-52910J-17769D01*
G01X3518795Y9708367D01*
G01X3185950Y10041212D01*
G01X3185950Y10041212D01*
G03X3183983Y10043066I-32395J-32395D01*
G01X3822080Y10043066D01*
G03X3816213Y10013823I69947J-29243D01*
G03X3862017Y9944202I75814J0D01*
G01X3840455Y9944202D01*
G01X3837076Y9945519D01*
G03X3806520Y9954626I-30556J-46707D01*
G03X3750706Y9898812I0J-55814D01*
G03X3806520Y9842998I55814J0D01*
G03X3837351Y9852286I0J55814D01*
G01X3840605Y9853574D01*
G01X4041419Y9853574D01*
G01X4041419Y9853574D01*
G03X4073461Y9866847I0J45314D01*
G01X4073461Y9866847D01*
G01X4094120Y9887506D01*
G03X4136517Y9867991I42397J36300D01*
G03X4192331Y9923805I0J55814D01*
G03X4191468Y9933584I-55814J0D01*
G01X4357675Y9933584D01*
G01X4381210Y9910051D01*
G01X4381210Y9848814D01*
G01X4381210Y9848814D01*
G03X4394482Y9816773I45314J0D01*
G01X4394482Y9816773D01*
G01X4475418Y9735838D01*
G01X4476847Y9732557D01*
G03X4531512Y9688007I54666J11264D01*
G03X4562214Y9697210I0J55814D01*
G01X4565523Y9698510D01*
G01X4592746Y9698510D01*
G03X4646447Y9657908I53701J15212D01*
G03X4663710Y9660645I0J55814D01*
G37*
G36*
G01X5347764Y8552430D02*
G01X4326378Y8551370D01*
G03X4367246Y8583010I-9851J54938D01*
G03X4422328Y8638819I-732J55809D01*
G03X4413522Y8668910I-55814J0D01*
G01X4412336Y8672236D01*
G01X4412336Y9028821D01*
G01X4412336Y9028821D01*
G03X4398917Y9061217I-45814J0D01*
G01X4398917Y9061217D01*
G01X4362341Y9097793D01*
G01X4362341Y9165278D01*
G03X4394987Y9154734I32647J45270D01*
G03X4450801Y9210548I0J55814D01*
G03X4439086Y9244760I-55814J0D01*
G03X4458919Y9256422I-12562J44058D01*
G01X4458919Y9256423D01*
G01X4696939Y9494439D01*
G03X4690709Y9468815I49585J-25624D01*
G03X4694912Y9447568I55814J0D01*
G03X4690709Y9426321I51612J-21247D01*
G03X4694907Y9405087I55814J0D01*
G03X4690709Y9383852I51617J-21234D01*
G03X4694907Y9362618I55814J0D01*
G03X4690709Y9341383I51617J-21234D01*
G03X4694912Y9320136I55814J0D01*
G03X4690709Y9298889I51612J-21247D01*
G03X4694907Y9277655I55814J0D01*
G03X4690709Y9256420I51617J-21234D01*
G03X4695447Y9233916I55814J0D01*
G03X4690709Y9211412I51076J-22504D01*
G03X4694917Y9190152I55814J0D01*
G03X4690709Y9168892I51606J-21260D01*
G03X4694912Y9147645I55814J0D01*
G03X4690709Y9126398I51612J-21247D01*
G03X4746523Y9070584I55814J0D01*
G03X4767771Y9074786I0J55814D01*
G03X4789018Y9070584I21247J51612D01*
G03X4810265Y9074786I0J55814D01*
G03X4831512Y9070584I21247J51612D01*
G03X4854103Y9075360I0J55814D01*
G03X4876521Y9070660I22418J51114D01*
G03X4898996Y9075385I0J55814D01*
G03X4921529Y9070635I22533J51063D01*
G03X4941200Y9074216I0J55814D01*
G03X4966513Y9068145I25313J49744D01*
G03X4989017Y9072883I0J55814D01*
G03X5011522Y9068145I22504J51076D01*
G03X5034013Y9072878I0J55814D01*
G03X5056505Y9068145I22492J51082D01*
G03X5112319Y9123959I0J55814D01*
G03X5108117Y9145207I-55814J0D01*
G03X5112319Y9166454I-51612J21247D01*
G03X5108111Y9187713I-55814J0D01*
G03X5112319Y9208973I-51606J21260D01*
G03X5081306Y9258974I-55814J0D01*
G01X5081306Y9258974D01*
G03X5090757Y9263334I-18553J52640D01*
G03X5118760Y9255801I28004J48280D01*
G03X5174574Y9311615I0J55814D01*
G03X5167048Y9339605I-55814J0D01*
G03X5173657Y9357517I-48288J27991D01*
G02X5175286Y9343870I-57369J-13769D01*
G01X5175286Y8904043D01*
G01X5021765Y8750521D01*
G03X4966472Y8798723I-55292J-7613D01*
G03X4912326Y8756450I0J-55814D01*
G01X4912326Y8756450D01*
G03X4866472Y8780442I-45854J-31822D01*
G03X4810658Y8724628I0J-55814D01*
G03X4858969Y8669321I55814J0D01*
G01X4872895Y8655395D01*
G01X4872895Y8655395D01*
G03X4904301Y8642386I31405J31405D01*
G01X4904301Y8642386D01*
G01X5020854Y8642386D01*
G01X5020854Y8642386D01*
G03X5052260Y8655395I0J44414D01*
G01X5052260Y8655395D01*
G01X5251105Y8854240D01*
G01X5251105Y8854240D01*
G03X5264114Y8885646I-31405J31405D01*
G01X5264114Y8885646D01*
G01X5264114Y9343653D01*
G01X5264114Y9343748D01*
G01X5264114Y9343748D01*
G02X5269299Y9367934I58998J0D01*
G01X5301508Y9367934D01*
G01X5301508Y9367934D01*
G03X5334066Y9381516I0J45814D01*
G01X5334066Y9381516D01*
G01X5342926Y9390465D01*
G01X5342926Y8918613D01*
G01X5342926Y8918613D01*
G01X5342926Y8918496D01*
G01X5342926Y8918496D01*
G03X5378740Y8882682I35814J0D01*
G03X5381630Y8882799I0J35814D01*
G01X5509847Y8882799D01*
G01X5509847Y8716604D01*
G01X5509847Y8716604D01*
G01X5509849Y8716217D01*
G01X5509849Y8716217D01*
G02X5347764Y8552430I-164185J384D01*
G37*
%LPC*%
G36*
G01X4580702Y8968816D02*
G03X4636516Y8913002I55814J0D01*
G03X4692330Y8968816I0J55814D01*
G03X4636516Y9024630I-55814J0D01*
G03X4619750Y9022052I0J-55814D01*
G01X4619750Y9022052D01*
G03X4622328Y9038819I-53236J16766D01*
G03X4566514Y9094633I-55814J0D01*
G03X4510700Y9038819I0J-55814D01*
G03X4566514Y8983005I55814J0D01*
G03X4583280Y8985582I0J55814D01*
G03X4580702Y8968816I53236J-16766D01*
G37*
%LPD*%
G36*
G01X4565520Y9789137D02*
G01X4562201Y9790441D01*
G03X4542783Y9798485I-30689J-46620D01*
G01X4539508Y9799913D01*
G01X4471838Y9867584D01*
G01X4471838Y9928817D01*
G01X4471838Y9928817D01*
G03X4468359Y9946228I-45314J0D01*
G03X4509841Y10013823I-34332J67595D01*
G03X4503974Y10043066I-75814J0D01*
G01X4534082Y10043066D01*
G03X4528215Y10013823I69947J-29243D01*
G03X4604029Y9938009I75814J0D01*
G03X4652748Y9955734I0J75814D01*
G01X4652165Y9954125D01*
G03X4643211Y9923805I46860J-30320D01*
G03X4676406Y9872780I55814J0D01*
G01X4592761Y9789137D01*
G01X4565520Y9789137D01*
G37*
G36*
G01X4750051Y9946423D02*
G03X4746178Y9953669I-51026J-22618D01*
G01X4744995Y9957029D01*
G01X4745389Y10043066D01*
G01X4747359Y10043066D01*
G01X4806294Y9984132D01*
G03X4774490Y9970861I237J-45313D01*
G01X4774490Y9970861D01*
G01X4750051Y9946423D01*
G37*
G36*
G01X5131057Y9497151D02*
G03X5144831Y9533865I-42040J36713D01*
G03X5089017Y9589679I-55814J0D01*
G03X5067770Y9585476I0J-55814D01*
G03X5046523Y9589679I-21247J-51612D01*
G03X5025276Y9585476I0J-55814D01*
G03X5004029Y9589679I-21247J-51612D01*
G03X4982782Y9585476I0J-55814D01*
G03X4961534Y9589679I-21247J-51612D01*
G03X4940275Y9585471I0J-55814D01*
G03X4919015Y9589679I-21260J-51606D01*
G03X4878377Y9572124I0J-55814D01*
G03X4854745Y9566577I633J-55810D01*
G03X4836516Y9569638I-18230J-52753D01*
G03X4815269Y9565436I0J-55814D01*
G03X4794021Y9569638I-21247J-51612D01*
G03X4772774Y9565436I0J-55814D01*
G03X4769250Y9566749I-21247J-51612D01*
G01X4805502Y9603001D01*
G01X4876505Y9603001D01*
G01X4876505Y9603001D01*
G03X4908897Y9616415I0J45814D01*
G01X4908897Y9616415D01*
G01X4915267Y9622784D01*
G01X4918479Y9624305D01*
G03X4962332Y9678822I-11961J54517D01*
G03X4920195Y9732935I-55814J0D01*
G01X4968239Y9732935D01*
G01X4971620Y9731737D01*
G03X5001590Y9723008I29970J47085D01*
G03X5057404Y9778822I0J55814D01*
G03X5057247Y9783008I-55814J0D01*
G03X5098505Y9802030I-717J55809D01*
G01X5245291Y9655364D01*
G01X5245291Y9502321D01*
G01X5240119Y9497151D01*
G01X5131057Y9497151D01*
G37*
G36*
G01X5378740Y9794545D02*
G03X5350032Y9780143I0J-35814D01*
G01X5339199Y9791118D01*
G01X5339199Y9791118D01*
G03X5306593Y9804748I-32605J-32184D01*
G01X5306593Y9804748D01*
G01X5275527Y9804748D01*
G01X5035638Y10044637D01*
G03X5047767Y10057566I-34124J44167D01*
G03X5094021Y10032990I46253J31238D01*
G03X5149835Y10088804I0J55814D01*
G03X5142362Y10116702I-55814J0D01*
G01X5342310Y10116916D01*
G03X5345661Y10116759I3352J35657D01*
G01X5345664Y10116759D01*
G02X5509827Y9955292I-0J-164186D01*
G01X5509827Y9955292D01*
G03X5509725Y9952591I35712J-2700D01*
G01X5509725Y9952591D01*
G01X5509725Y9804527D01*
G01X5509725Y9804527D01*
G01X5509811Y9802041D01*
G01X5509811Y9794545D01*
G01X5378740Y9794545D01*
G01X5378740Y9794545D01*
G37*
G54D8191*
G01X1947512Y8548901D02*
G01X1680669Y8548624D01*
G01X1676987Y8548665D01*
G01X1676987Y8548665D01*
G01X1676766Y8548667D01*
G01X1676749Y8548667D01*
G01X1676588Y8548667D01*
G02X1512402Y8712852I0J164186D01*
G01X1512402Y8712855D01*
G01X1512341Y8714944D01*
G01X1512341Y8839479D01*
G01X1982132Y8839479D01*
G03X1985965Y8839274I3833J35608D01*
G01X1985965Y8839274D01*
G01X2085909Y8839274D01*
G01X2087954Y8839215D01*
G03X2123768Y8875029I0J35814D01*
G01X2123768Y8875029D01*
G01X2123768Y9166367D01*
G01X2123768Y9166367D01*
G03X2123514Y9170625I-35814J0D01*
G01X2123514Y9366944D01*
G01X2144162Y9346300D01*
G01X2144162Y9346300D01*
G03X2176554Y9332885I32392J32398D01*
G01X2176554Y9332885D01*
G01X2274996Y9332885D01*
G03X2274773Y9327947I54590J-4938D01*
G03X2329586Y9273134I54813J0D01*
G03X2356587Y9280245I0J54813D01*
G03X2375553Y9273725I27000J47702D01*
G03X2424558Y9238204I52026J20211D01*
G01X2424558Y9238204D01*
G03X2416531Y9234581I21970J-59381D01*
G03X2386533Y9242138I-29997J-55757D01*
G03X2323219Y9178823I0J-63315D01*
G03X2330776Y9148826I63315J0D01*
G03X2323219Y9118829I55757J-29997D01*
G03X2330783Y9088819I63315J0D01*
G03X2323219Y9058808I55751J-30010D01*
G03X2330776Y9028811I63315J0D01*
G03X2323219Y8998814I55757J-29997D01*
G03X2386533Y8935499I63315J0D01*
G03X2416531Y8943056I0J63315D01*
G03X2446528Y8935499I29997J55757D01*
G03X2509843Y8998814I0J63315D01*
G03X2503753Y9025906I-63315J0D01*
G03X2526525Y9033055I-7238J62900D01*
G03X2556535Y9025491I30010J55751D01*
G03X2586533Y9033048I0J63315D01*
G03X2616530Y9025491I29997J55757D01*
G03X2679763Y9085594I0J63315D01*
G03X2739840Y9148826I-3238J63232D01*
G03X2688119Y9211070I-63315J0D01*
G03X2709842Y9258808I-41591J47738D01*
G03X2702278Y9288818I-63315J0D01*
G03X2709842Y9318828I-55751J30010D01*
G03X2688574Y9366165I-63315J0D01*
G03X2689852Y9378823I-62036J12658D01*
G03X2649184Y9437949I-63315J0D01*
G03X2595645Y9491466I-62652J-9139D01*
G03X2569717Y9522729I-59124J-22651D01*
G03X2506523Y9582142I-63194J-3901D01*
G03X2476525Y9574585I0J-63315D01*
G03X2446528Y9582142I-29997J-55757D01*
G03X2416531Y9574585I0J-63315D01*
G03X2386533Y9582142I-29997J-55757D01*
G03X2323339Y9522729I0J-63315D01*
G03X2293221Y9468815I33197J-53914D01*
G03X2293864Y9459816I63315J0D01*
G01X2217542Y9459816D01*
G01X2217542Y10015042D01*
G01X2245566Y10043066D01*
G01X2568300Y10043066D01*
G02X2573485Y10019002I-53813J-24186D01*
G01X2573485Y9713801D01*
G01X2573485Y9713801D01*
G03X2586494Y9682395I44414J0D01*
G01X2586494Y9682395D01*
G01X2660995Y9607895D01*
G01X2660995Y9607895D01*
G03X2692400Y9594886I31405J31405D01*
G01X2692400Y9594886D01*
G01X2826403Y9594886D01*
G01X3194086Y9227203D01*
G01X3194086Y9050802D01*
G03X3182686Y9017000I44414J-33802D01*
G03X3238500Y8961186I55814J0D01*
G03X3294314Y9017000I0J55814D01*
G03X3282914Y9050802I-55814J0D01*
G01X3282914Y9245600D01*
G01X3282914Y9245600D01*
G03X3269905Y9277005I-44414J0D01*
G01X3269905Y9277005D01*
G01X3203869Y9343042D01*
G01X3663051Y9343042D01*
G01X3666400Y9341846D01*
G03X3696487Y9333042I30087J47010D01*
G03X3752301Y9388856I0J55814D01*
G03X3696487Y9444670I-55814J0D01*
G03X3666395Y9435863I0J-55814D01*
G01X3663054Y9434670D01*
G01X3500659Y9434670D01*
G03X3522330Y9478823I-34143J44153D01*
G03X3478472Y9533341I-55814J0D01*
G01X3475271Y9534857D01*
G01X3318922Y9691212D01*
G01X3318922Y9691212D01*
G03X3286526Y9704631I-32396J-32395D01*
G01X3286526Y9704631D01*
G01X3145224Y9704631D01*
G03X3207319Y9790786I-28720J86154D01*
G03X3116504Y9881601I-90815J0D01*
G03X3072336Y9870137I0J-90815D01*
G01X3072336Y9975371D01*
G01X3073526Y9978699D01*
G03X3081528Y9999270I-46989J30120D01*
G03X3136519Y9953005I54991J9549D01*
G03X3144063Y9953517I0J55814D01*
G01X3454017Y9643563D01*
G01X3455536Y9640359D01*
G03X3510051Y9596516I54515J11971D01*
G03X3550597Y9613974I0J55814D01*
G01X3550597Y9518907D01*
G01X3550597Y9518907D01*
G03X3564014Y9486513I45814J0D01*
G01X3564014Y9486513D01*
G01X3584080Y9466445D01*
G01X3584080Y9466445D01*
G03X3616477Y9453024I32397J32393D01*
G01X3616477Y9453024D01*
G01X3633069Y9453024D01*
G01X3636363Y9451844D01*
G03X3666515Y9442999I30152J46969D01*
G03X3722329Y9498813I0J55814D01*
G03X3706921Y9537317I-55814J0D01*
G03X3711048Y9549351I-50388J24005D01*
G01X3712572Y9552569D01*
G01X3753004Y9593003D01*
G01X4040856Y9593003D01*
G03X4040698Y9588805I55656J-4199D01*
G03X4049502Y9558718I55814J0D01*
G01X4050695Y9555374D01*
G01X4050695Y8902250D01*
G01X4049500Y8898900D01*
G03X4040698Y8868816I47012J-30084D01*
G03X4096512Y8813002I55814J0D01*
G03X4152326Y8868816I0J55814D01*
G03X4143517Y8898912I-55814J0D01*
G01X4142323Y8902252D01*
G01X4142323Y9058223D01*
G01X4220708Y8979844D01*
G01X4220708Y8922275D01*
G01X4219512Y8918932D01*
G03X4210700Y8888832I47002J-30100D01*
G03X4266514Y8833018I55814J0D01*
G03X4270713Y8833176I0J55814D01*
G01X4270713Y8639735D01*
G01X4269524Y8636407D01*
G03X4260713Y8606307I47002J-30099D01*
G03X4306789Y8551349I55814J0D01*
G01X3683202Y8550702D01*
G01X3723932Y8591433D01*
G01X3723932Y8591433D01*
G03X3737351Y8623828I-32395J32395D01*
G01X3737351Y8623828D01*
G01X3737351Y8937875D01*
G01X3738545Y8941218D01*
G03X3747348Y8971305I-47010J30087D01*
G03X3691534Y9027119I-55814J0D01*
G03X3635720Y8971305I0J-55814D01*
G03X3644532Y8941206I55814J0D01*
G01X3645723Y8937872D01*
G01X3645723Y8642805D01*
G01X3597551Y8594634D01*
G01X2045498Y8594634D01*
G01X2042560Y8597571D01*
G01X2041055Y8600749D01*
G03X1986534Y8644621I-54521J-11942D01*
G03X1930720Y8588807I0J-55814D01*
G03X1947512Y8548901I55814J0D01*
G01X3846525Y8932992D02*
G03X3902339Y8988806I0J55814D01*
G03X3846525Y9044620I-55814J0D01*
G03X3790711Y8988806I0J-55814D01*
G03X3846525Y8932992I55814J0D01*
G01X3347786Y9067800D02*
G03X3403600Y9011986I55814J0D01*
G03X3459414Y9067800I0J55814D01*
G03X3403600Y9123614I-55814J0D01*
G03X3347786Y9067800I0J-55814D01*
G01X2090605Y9811012D02*
G03X2087819Y9811121I-2786J-35705D01*
G01X2087819Y9811121D01*
G01X1986219Y9811121D01*
G01X1986219Y9811121D01*
G01X1985013Y9811101D01*
G01X1512402Y9811101D01*
G01X1512402Y9948814D01*
G01X1512402Y9948817D01*
G02X1673780Y10112978I164186J-0D01*
G01X2136353Y10113475D01*
G01X2104023Y10081142D01*
G01X2104023Y10081142D01*
G03X2090605Y10048748I32396J-32394D01*
G01X2090605Y10048748D01*
G01X2090605Y9811012D01*
G01X3185459Y9434670D02*
G01X3182572Y9437557D01*
G01X3181058Y9440754D01*
G03X3126537Y9484624I-54521J-11943D01*
G03X3083078Y9463833I0J-55814D01*
G01X2876205Y9670705D01*
G01X2876205Y9670705D01*
G03X2844800Y9683714I-31405J-31405D01*
G01X2844800Y9683714D01*
G01X2710797Y9683714D01*
G01X2662313Y9732198D01*
G01X2662313Y9738433D01*
G03X2736520Y9699970I74206J52353D01*
G03X2827335Y9790786I0J90815D01*
G03X2736520Y9881601I-90815J0D01*
G03X2662313Y9843138I0J-90815D01*
G01X2662313Y10018785D01*
G01X2662313Y10018880D01*
G01X2662313Y10018880D01*
G02X2667499Y10043066I58998J0D01*
G01X2812463Y10043066D01*
G03X2800721Y10008819I44072J-34247D01*
G03X2856535Y9953005I55814J0D01*
G03X2886619Y9961807I0J55814D01*
G01X2889968Y9963003D01*
G01X2897550Y9963003D01*
G01X2920713Y9939840D01*
G01X2920713Y9708817D01*
G01X2920713Y9708817D01*
G03X2934132Y9676422I45814J0D01*
G01X2934132Y9676422D01*
G01X3034131Y9576422D01*
G01X3034131Y9576422D01*
G03X3066527Y9563003I32395J32395D01*
G01X3066527Y9563003D01*
G01X3237547Y9563003D01*
G01X3351629Y9448921D01*
G03X3350707Y9438818I54892J-10104D01*
G03X3350861Y9434670I55814J0D01*
G01X3185459Y9434670D01*
G01X3092447Y10043066D02*
G03X3081528Y10018368I44072J-34247D01*
G03X3070609Y10043066I-54991J-9549D01*
G01X3092447Y10043066D01*
G01X4663710Y9660645D02*
G01X4467576Y9464511D01*
G03X4457303Y9484054I-53564J-15686D01*
G03X4502338Y9538818I-10779J54763D01*
G03X4472820Y9588049I-55814J0D01*
G01X4466618Y9593603D01*
G01X4348899Y9711317D01*
G01X4348899Y9711317D01*
G03X4316504Y9724735I-32395J-32396D01*
G01X4316504Y9724735D01*
G01X3636543Y9724735D01*
G01X3636543Y9724735D01*
G03X3604150Y9711319I0J-45814D01*
G01X3604150Y9711319D01*
G01X3564018Y9671192D01*
G01X3564018Y9671192D01*
G01X3562961Y9670100D01*
G03X3522000Y9706850I-52910J-17769D01*
G01X3518795Y9708367D01*
G01X3185950Y10041212D01*
G01X3185950Y10041212D01*
G03X3183983Y10043066I-32395J-32395D01*
G01X3822080Y10043066D01*
G03X3816213Y10013823I69947J-29243D01*
G03X3862017Y9944202I75814J0D01*
G01X3840455Y9944202D01*
G01X3837076Y9945519D01*
G03X3806520Y9954626I-30556J-46707D01*
G03X3750706Y9898812I0J-55814D01*
G03X3806520Y9842998I55814J0D01*
G03X3837351Y9852286I0J55814D01*
G01X3840605Y9853574D01*
G01X4041419Y9853574D01*
G01X4041419Y9853574D01*
G03X4073461Y9866847I0J45314D01*
G01X4073461Y9866847D01*
G01X4094120Y9887506D01*
G03X4136517Y9867991I42397J36300D01*
G03X4192331Y9923805I0J55814D01*
G03X4191468Y9933584I-55814J0D01*
G01X4357675Y9933584D01*
G01X4381210Y9910051D01*
G01X4381210Y9848814D01*
G01X4381210Y9848814D01*
G03X4394482Y9816773I45314J0D01*
G01X4394482Y9816773D01*
G01X4475418Y9735838D01*
G01X4476847Y9732557D01*
G03X4531512Y9688007I54666J11264D01*
G03X4562214Y9697210I0J55814D01*
G01X4565523Y9698510D01*
G01X4592746Y9698510D01*
G03X4646447Y9657908I53701J15212D01*
G03X4663710Y9660645I0J55814D01*
G01X5347764Y8552430D02*
G01X4326378Y8551370D01*
G03X4367246Y8583010I-9851J54938D01*
G03X4422328Y8638819I-732J55809D01*
G03X4413522Y8668910I-55814J0D01*
G01X4412336Y8672236D01*
G01X4412336Y9028821D01*
G01X4412336Y9028821D01*
G03X4398917Y9061217I-45814J0D01*
G01X4398917Y9061217D01*
G01X4362341Y9097793D01*
G01X4362341Y9165278D01*
G03X4394987Y9154734I32647J45270D01*
G03X4450801Y9210548I0J55814D01*
G03X4439086Y9244760I-55814J0D01*
G03X4458919Y9256422I-12562J44058D01*
G01X4458919Y9256423D01*
G01X4696939Y9494439D01*
G03X4690709Y9468815I49585J-25624D01*
G03X4694912Y9447568I55814J0D01*
G03X4690709Y9426321I51612J-21247D01*
G03X4694907Y9405087I55814J0D01*
G03X4690709Y9383852I51617J-21234D01*
G03X4694907Y9362618I55814J0D01*
G03X4690709Y9341383I51617J-21234D01*
G03X4694912Y9320136I55814J0D01*
G03X4690709Y9298889I51612J-21247D01*
G03X4694907Y9277655I55814J0D01*
G03X4690709Y9256420I51617J-21234D01*
G03X4695447Y9233916I55814J0D01*
G03X4690709Y9211412I51076J-22504D01*
G03X4694917Y9190152I55814J0D01*
G03X4690709Y9168892I51606J-21260D01*
G03X4694912Y9147645I55814J0D01*
G03X4690709Y9126398I51612J-21247D01*
G03X4746523Y9070584I55814J0D01*
G03X4767771Y9074786I0J55814D01*
G03X4789018Y9070584I21247J51612D01*
G03X4810265Y9074786I0J55814D01*
G03X4831512Y9070584I21247J51612D01*
G03X4854103Y9075360I0J55814D01*
G03X4876521Y9070660I22418J51114D01*
G03X4898996Y9075385I0J55814D01*
G03X4921529Y9070635I22533J51063D01*
G03X4941200Y9074216I0J55814D01*
G03X4966513Y9068145I25313J49744D01*
G03X4989017Y9072883I0J55814D01*
G03X5011522Y9068145I22504J51076D01*
G03X5034013Y9072878I0J55814D01*
G03X5056505Y9068145I22492J51082D01*
G03X5112319Y9123959I0J55814D01*
G03X5108117Y9145207I-55814J0D01*
G03X5112319Y9166454I-51612J21247D01*
G03X5108111Y9187713I-55814J0D01*
G03X5112319Y9208973I-51606J21260D01*
G03X5081306Y9258974I-55814J0D01*
G01X5081306Y9258974D01*
G03X5090757Y9263334I-18553J52640D01*
G03X5118760Y9255801I28004J48280D01*
G03X5174574Y9311615I0J55814D01*
G03X5167048Y9339605I-55814J0D01*
G03X5173657Y9357517I-48288J27991D01*
G02X5175286Y9343870I-57369J-13769D01*
G01X5175286Y8904043D01*
G01X5021765Y8750521D01*
G03X4966472Y8798723I-55292J-7613D01*
G03X4912326Y8756450I0J-55814D01*
G01X4912326Y8756450D01*
G03X4866472Y8780442I-45854J-31822D01*
G03X4810658Y8724628I0J-55814D01*
G03X4858969Y8669321I55814J0D01*
G01X4872895Y8655395D01*
G01X4872895Y8655395D01*
G03X4904301Y8642386I31405J31405D01*
G01X4904301Y8642386D01*
G01X5020854Y8642386D01*
G01X5020854Y8642386D01*
G03X5052260Y8655395I0J44414D01*
G01X5052260Y8655395D01*
G01X5251105Y8854240D01*
G01X5251105Y8854240D01*
G03X5264114Y8885646I-31405J31405D01*
G01X5264114Y8885646D01*
G01X5264114Y9343653D01*
G01X5264114Y9343748D01*
G01X5264114Y9343748D01*
G02X5269299Y9367934I58998J0D01*
G01X5301508Y9367934D01*
G01X5301508Y9367934D01*
G03X5334066Y9381516I0J45814D01*
G01X5334066Y9381516D01*
G01X5342926Y9390465D01*
G01X5342926Y8918613D01*
G01X5342926Y8918613D01*
G01X5342926Y8918496D01*
G01X5342926Y8918496D01*
G03X5378740Y8882682I35814J0D01*
G03X5381630Y8882799I0J35814D01*
G01X5509847Y8882799D01*
G01X5509847Y8716604D01*
G01X5509847Y8716604D01*
G01X5509849Y8716217D01*
G01X5509849Y8716217D01*
G02X5347764Y8552430I-164185J384D01*
G01X4580702Y8968816D02*
G03X4636516Y8913002I55814J0D01*
G03X4692330Y8968816I0J55814D01*
G03X4636516Y9024630I-55814J0D01*
G03X4619750Y9022052I0J-55814D01*
G01X4619750Y9022052D01*
G03X4622328Y9038819I-53236J16766D01*
G03X4566514Y9094633I-55814J0D01*
G03X4510700Y9038819I0J-55814D01*
G03X4566514Y8983005I55814J0D01*
G03X4583280Y8985582I0J55814D01*
G03X4580702Y8968816I53236J-16766D01*
G01X4565520Y9789137D02*
G01X4562201Y9790441D01*
G03X4542783Y9798485I-30689J-46620D01*
G01X4539508Y9799913D01*
G01X4471838Y9867584D01*
G01X4471838Y9928817D01*
G01X4471838Y9928817D01*
G03X4468359Y9946228I-45314J0D01*
G03X4509841Y10013823I-34332J67595D01*
G03X4503974Y10043066I-75814J0D01*
G01X4534082Y10043066D01*
G03X4528215Y10013823I69947J-29243D01*
G03X4604029Y9938009I75814J0D01*
G03X4652748Y9955734I0J75814D01*
G01X4652165Y9954125D01*
G03X4643211Y9923805I46860J-30320D01*
G03X4676406Y9872780I55814J0D01*
G01X4592761Y9789137D01*
G01X4565520Y9789137D01*
G01X4750051Y9946423D02*
G03X4746178Y9953669I-51026J-22618D01*
G01X4744995Y9957029D01*
G01X4745389Y10043066D01*
G01X4747359Y10043066D01*
G01X4806294Y9984132D01*
G03X4774490Y9970861I237J-45313D01*
G01X4774490Y9970861D01*
G01X4750051Y9946423D01*
G01X5131057Y9497151D02*
G03X5144831Y9533865I-42040J36713D01*
G03X5089017Y9589679I-55814J0D01*
G03X5067770Y9585476I0J-55814D01*
G03X5046523Y9589679I-21247J-51612D01*
G03X5025276Y9585476I0J-55814D01*
G03X5004029Y9589679I-21247J-51612D01*
G03X4982782Y9585476I0J-55814D01*
G03X4961534Y9589679I-21247J-51612D01*
G03X4940275Y9585471I0J-55814D01*
G03X4919015Y9589679I-21260J-51606D01*
G03X4878377Y9572124I0J-55814D01*
G03X4854745Y9566577I633J-55810D01*
G03X4836516Y9569638I-18230J-52753D01*
G03X4815269Y9565436I0J-55814D01*
G03X4794021Y9569638I-21247J-51612D01*
G03X4772774Y9565436I0J-55814D01*
G03X4769250Y9566749I-21247J-51612D01*
G01X4805502Y9603001D01*
G01X4876505Y9603001D01*
G01X4876505Y9603001D01*
G03X4908897Y9616415I0J45814D01*
G01X4908897Y9616415D01*
G01X4915267Y9622784D01*
G01X4918479Y9624305D01*
G03X4962332Y9678822I-11961J54517D01*
G03X4920195Y9732935I-55814J0D01*
G01X4968239Y9732935D01*
G01X4971620Y9731737D01*
G03X5001590Y9723008I29970J47085D01*
G03X5057404Y9778822I0J55814D01*
G03X5057247Y9783008I-55814J0D01*
G03X5098505Y9802030I-717J55809D01*
G01X5245291Y9655364D01*
G01X5245291Y9502321D01*
G01X5240119Y9497151D01*
G01X5131057Y9497151D01*
G01X5378740Y9794545D02*
G03X5350032Y9780143I0J-35814D01*
G01X5339199Y9791118D01*
G01X5339199Y9791118D01*
G03X5306593Y9804748I-32605J-32184D01*
G01X5306593Y9804748D01*
G01X5275527Y9804748D01*
G01X5035638Y10044637D01*
G03X5047767Y10057566I-34124J44167D01*
G03X5094021Y10032990I46253J31238D01*
G03X5149835Y10088804I0J55814D01*
G03X5142362Y10116702I-55814J0D01*
G01X5342310Y10116916D01*
G03X5345661Y10116759I3352J35657D01*
G01X5345664Y10116759D01*
G02X5509827Y9955292I-0J-164186D01*
G01X5509827Y9955292D01*
G03X5509725Y9952591I35712J-2700D01*
G01X5509725Y9952591D01*
G01X5509725Y9804527D01*
G01X5509725Y9804527D01*
G01X5509811Y9802041D01*
G01X5509811Y9794545D01*
G01X5378740Y9794545D01*
G01X5378740Y9794545D01*
G04 Copper End*

G04 TearDrop Start*
G36*
G01X2869766Y9993818D02*
G01X2869766Y10023818D01*
G01X2883766Y10018817D01*
G01X2883766Y9998817D01*
G01X2869766Y9993818D01*
G37*
G36*
G01X3041528Y9995581D02*
G01X3011528Y9995596D01*
G01X3016522Y9981593D01*
G01X3036522Y9981583D01*
G01X3041528Y9995581D01*
G37*
G36*
G01X3153867Y10018771D02*
G01X3144225Y9990361D01*
G01X3158721Y9989508D01*
G01X3165886Y10010625D01*
G01X3153867Y10018771D01*
G37*
G36*
G01X3511299Y9672292D02*
G01X3490092Y9651073D01*
G01X3483724Y9664504D01*
G01X3497862Y9678652D01*
G01X3511299Y9672292D01*
G37*
G36*
G01X3467771Y9498782D02*
G01X3446559Y9477566D01*
G01X3440194Y9491000D01*
G01X3454334Y9505145D01*
G01X3467771Y9498782D01*
G37*
G36*
G01X3417959Y9455224D02*
G01X3388812Y9448117D01*
G01X3388698Y9462501D01*
G01X3411438Y9468043D01*
G01X3417959Y9455224D01*
G37*
G36*
G01X4907770Y9658861D02*
G01X4886559Y9680077D01*
G01X4880193Y9666643D01*
G01X4894334Y9652498D01*
G01X4907770Y9658861D01*
G37*
G36*
G01X4328998Y9265084D02*
G01X4307774Y9286286D01*
G01X4321205Y9292656D01*
G01X4335356Y9278521D01*
G01X4328998Y9265084D01*
G37*
G36*
G01X4374792Y9366288D02*
G01X4374736Y9336288D01*
G01X4388747Y9341264D01*
G01X4388782Y9361264D01*
G01X4374792Y9366288D01*
G37*
G36*
G01X3146496Y9430057D02*
G01X3125280Y9408848D01*
G01X3138714Y9402483D01*
G01X3152859Y9416623D01*
G01X3146496Y9430057D01*
G37*
G36*
G01X3683257Y9373855D02*
G01X3683257Y9403855D01*
G01X3669256Y9398856D01*
G01X3669256Y9378856D01*
G01X3683257Y9373855D01*
G37*
G36*
G01X3706536Y8958077D02*
G01X3676536Y8958077D01*
G01X3681537Y8944077D01*
G01X3701537Y8944077D01*
G01X3706536Y8958077D01*
G37*
G36*
G01X2006486Y8590069D02*
G01X1985272Y8568858D01*
G01X1998706Y8562492D01*
G01X2012848Y8576635D01*
G01X2006486Y8590069D01*
G37*
G36*
G01X4111511Y9575576D02*
G01X4081511Y9575576D01*
G01X4086509Y9561576D01*
G01X4106509Y9561576D01*
G01X4111511Y9575576D01*
G37*
G36*
G01X4281515Y8902052D02*
G01X4251516Y8902065D01*
G01X4256522Y8916063D01*
G01X4276522Y8916055D01*
G01X4281515Y8902052D01*
G37*
G36*
G01X3653305Y9513827D02*
G01X3653279Y9483827D01*
G01X3639284Y9488841D01*
G01X3639302Y9508838D01*
G01X3653305Y9513827D01*
G37*
G36*
G01X3676498Y9560070D02*
G01X3655284Y9581284D01*
G01X3668718Y9587647D01*
G01X3682860Y9573506D01*
G01X3676498Y9560070D01*
G37*
G36*
G01X4452965Y9557753D02*
G01X4426936Y9542836D01*
G01X4423999Y9557288D01*
G01X4441977Y9567593D01*
G01X4452965Y9557753D01*
G37*
G36*
G01X4421205Y9467489D02*
G01X4394596Y9453631D01*
G01X4391434Y9467769D01*
G01X4411434Y9478185D01*
G01X4421205Y9467489D01*
G37*
G36*
G01X4331528Y9195595D02*
G01X4301528Y9195595D01*
G01X4306527Y9181595D01*
G01X4326527Y9181595D01*
G01X4331528Y9195595D01*
G37*
G36*
G01X4381515Y8652040D02*
G01X4351515Y8652053D01*
G01X4356522Y8666051D01*
G01X4376522Y8666041D01*
G01X4381515Y8652040D01*
G37*
G36*
G01X4331528Y8619533D02*
G01X4301528Y8619533D01*
G01X4306527Y8633534D01*
G01X4326527Y8633534D01*
G01X4331528Y8619533D01*
G37*
G36*
G01X3991516Y10112037D02*
G01X3961516Y10112037D01*
G01X3966517Y10125989D01*
G01X3986517Y10125989D01*
G01X3991516Y10112037D01*
G37*
G36*
G01X4216471Y9140180D02*
G01X4195267Y9118956D01*
G01X4208706Y9112598D01*
G01X4222841Y9126748D01*
G01X4216471Y9140180D01*
G37*
G36*
G01X4177769Y9418858D02*
G01X4156558Y9440070D01*
G01X4150192Y9426636D01*
G01X4164335Y9412493D01*
G01X4177769Y9418858D01*
G37*
G36*
G01X4111511Y8882047D02*
G01X4081511Y8882047D01*
G01X4086509Y8896048D01*
G01X4106509Y8896048D01*
G01X4111511Y8882047D01*
G37*
G36*
G01X4988408Y9763785D02*
G01X4988326Y9793785D01*
G01X4974341Y9788749D01*
G01X4974394Y9768749D01*
G01X4988408Y9763785D01*
G37*
G36*
G01X3819789Y9883851D02*
G01X3819705Y9913851D01*
G01X3833721Y9908388D01*
G01X3833772Y9889388D01*
G01X3819789Y9883851D01*
G37*
G36*
G01X5078280Y9380200D02*
G01X5048306Y9381429D01*
G01X5053876Y9395214D01*
G01X5073858Y9394393D01*
G01X5078280Y9380200D01*
G37*
G36*
G01X4993564Y9294612D02*
G01X4993564Y9324609D01*
G01X4979563Y9319611D01*
G01X4979563Y9299611D01*
G01X4993564Y9294612D01*
G37*
G36*
G01X4714090Y9936965D02*
G01X4684090Y9937102D01*
G01X4689152Y9951080D01*
G01X4709152Y9950988D01*
G01X4714090Y9936965D01*
G37*
G36*
G01X4532765Y9763783D02*
G01X4511548Y9742574D01*
G01X4505541Y9756364D01*
G01X4518978Y9769795D01*
G01X4532765Y9763783D01*
G37*
G36*
G01X4544738Y9728822D02*
G01X4544738Y9758822D01*
G01X4558739Y9753323D01*
G01X4558739Y9734324D01*
G01X4544738Y9728822D01*
G37*
G36*
G01X5043297Y9823818D02*
G01X5043297Y9853818D01*
G01X5029297Y9848319D01*
G01X5029297Y9829320D01*
G01X5043297Y9823818D01*
G37*
G36*
G01X4845545Y9871565D02*
G01X4845538Y9901565D01*
G01X4831545Y9896074D01*
G01X4831540Y9877074D01*
G01X4845545Y9871565D01*
G37*
G36*
G01X4766528Y9807039D02*
G01X4736529Y9807039D01*
G01X4742028Y9821040D01*
G01X4761027Y9821040D01*
G01X4766528Y9807039D01*
G37*
G36*
G01X2497889Y9278023D02*
G01X2497722Y9308023D01*
G01X2511014Y9303095D01*
G01X2511125Y9283095D01*
G01X2497889Y9278023D01*
G37*
G36*
G01X2428766Y9379915D02*
G01X2407625Y9358630D01*
G01X2401659Y9371602D01*
G01X2415753Y9385793D01*
G01X2428766Y9379915D01*
G37*
G36*
G01X2883764Y9998817D02*
G01X2883764Y10018817D01*
G01X2882095Y10018919D01*
G01X2880259Y10019211D01*
G01X2878327Y10019673D01*
G01X2876373Y10020285D01*
G01X2874468Y10021026D01*
G01X2872683Y10021876D01*
G01X2871091Y10022814D01*
G01X2869764Y10023819D01*
G01X2869764Y9993819D01*
G01X2871092Y9994825D01*
G01X2872683Y9995763D01*
G01X2874468Y9996612D01*
G01X2876373Y9997351D01*
G01X2878327Y9997962D01*
G01X2880258Y9998423D01*
G01X2882094Y9998715D01*
G01X2883764Y9998817D01*
G37*
G36*
G01X3016522Y9981590D02*
G01X3036522Y9981590D01*
G01X3036624Y9983258D01*
G01X3036919Y9985093D01*
G01X3037384Y9987025D01*
G01X3037998Y9988980D01*
G01X3038742Y9990887D01*
G01X3039593Y9992672D01*
G01X3040532Y9994264D01*
G01X3041537Y9995590D01*
G01X3011537Y9995590D01*
G01X3012544Y9994261D01*
G01X3013481Y9992669D01*
G01X3014327Y9990886D01*
G01X3015065Y9988982D01*
G01X3015672Y9987029D01*
G01X3016131Y9985099D01*
G01X3016421Y9983262D01*
G01X3016522Y9981590D01*
G37*
G36*
G01X3157218Y9991011D02*
G01X3171360Y10005153D01*
G01X3169619Y10006256D01*
G01X3167444Y10006790D01*
G01X3165035Y10006971D01*
G01X3160314Y10007129D01*
G01X3158403Y10007535D01*
G01X3157058Y10008445D01*
G01X3156480Y10010072D01*
G01X3135267Y9988859D01*
G01X3136523Y9988866D01*
G01X3137869Y9989022D01*
G01X3139290Y9989298D01*
G01X3143836Y9990563D01*
G01X3148475Y9991897D01*
G01X3149966Y9992226D01*
G01X3151403Y9992449D01*
G01X3152771Y9992540D01*
G01X3154052Y9992469D01*
G01X3155231Y9992210D01*
G01X3156292Y9991733D01*
G01X3157218Y9991011D01*
G37*
G36*
G01X3497864Y9678650D02*
G01X3483722Y9664508D01*
G01X3484831Y9663255D01*
G01X3485924Y9661751D01*
G01X3486964Y9660060D01*
G01X3487914Y9658248D01*
G01X3488738Y9656378D01*
G01X3489400Y9654517D01*
G01X3489863Y9652728D01*
G01X3490091Y9651078D01*
G01X3511304Y9672291D01*
G01X3509655Y9672518D01*
G01X3507865Y9672981D01*
G01X3506002Y9673642D01*
G01X3504130Y9674465D01*
G01X3502314Y9675413D01*
G01X3500621Y9676452D01*
G01X3499116Y9677542D01*
G01X3497864Y9678650D01*
G37*
G36*
G01X3454332Y9505146D02*
G01X3440190Y9491005D01*
G01X3441299Y9489752D01*
G01X3442391Y9488247D01*
G01X3443430Y9486556D01*
G01X3444379Y9484742D01*
G01X3445203Y9482872D01*
G01X3445865Y9481010D01*
G01X3446328Y9479221D01*
G01X3446555Y9477571D01*
G01X3467769Y9498783D01*
G01X3466119Y9499011D01*
G01X3464330Y9499474D01*
G01X3462467Y9500135D01*
G01X3460596Y9500959D01*
G01X3458782Y9501908D01*
G01X3457090Y9502947D01*
G01X3455585Y9504038D01*
G01X3454332Y9505146D01*
G37*
G36*
G01X3404340Y9475144D02*
G01X3390198Y9461002D01*
G01X3391492Y9458822D01*
G01X3391724Y9456197D01*
G01X3391176Y9453242D01*
G01X3390128Y9450073D01*
G01X3387657Y9443554D01*
G01X3386796Y9440436D01*
G01X3386560Y9437565D01*
G01X3407773Y9458778D01*
G01X3406057Y9459415D01*
G01X3405278Y9460891D01*
G01X3405151Y9462988D01*
G01X3405716Y9468173D01*
G01X3405839Y9470823D01*
G01X3405475Y9473219D01*
G01X3404340Y9475144D01*
G37*
G36*
G01X4880193Y9666642D02*
G01X4894333Y9652498D01*
G01X4895586Y9653607D01*
G01X4897091Y9654698D01*
G01X4898783Y9655737D01*
G01X4900596Y9656687D01*
G01X4902467Y9657510D01*
G01X4904329Y9658172D01*
G01X4906118Y9658634D01*
G01X4907768Y9658862D01*
G01X4886557Y9680077D01*
G01X4886330Y9678428D01*
G01X4885867Y9676639D01*
G01X4885205Y9674776D01*
G01X4884382Y9672905D01*
G01X4883432Y9671091D01*
G01X4882393Y9669399D01*
G01X4881301Y9667894D01*
G01X4880193Y9666642D01*
G37*
G36*
G01X4335351Y9278517D02*
G01X4321209Y9292659D01*
G01X4319956Y9291549D01*
G01X4318452Y9290455D01*
G01X4316762Y9289415D01*
G01X4314950Y9288465D01*
G01X4313082Y9287640D01*
G01X4311221Y9286978D01*
G01X4309433Y9286515D01*
G01X4307781Y9286287D01*
G01X4328994Y9265074D01*
G01X4329222Y9266723D01*
G01X4329684Y9268512D01*
G01X4330345Y9270376D01*
G01X4331167Y9272249D01*
G01X4332116Y9274065D01*
G01X4333154Y9275759D01*
G01X4334244Y9277265D01*
G01X4335351Y9278517D01*
G37*
G36*
G01X4388764Y9341264D02*
G01X4388764Y9361264D01*
G01X4387102Y9361369D01*
G01X4385268Y9361668D01*
G01X4383335Y9362141D01*
G01X4381377Y9362763D01*
G01X4379467Y9363514D01*
G01X4377679Y9364371D01*
G01X4376087Y9365312D01*
G01X4374764Y9366315D01*
G01X4374764Y9336315D01*
G01X4376097Y9337324D01*
G01X4377689Y9338258D01*
G01X4379471Y9339100D01*
G01X4381371Y9339830D01*
G01X4383321Y9340430D01*
G01X4385250Y9340881D01*
G01X4387087Y9341165D01*
G01X4388764Y9341264D01*
G37*
G36*
G01X3138715Y9402481D02*
G01X3152857Y9416624D01*
G01X3151749Y9417875D01*
G01X3150658Y9419381D01*
G01X3149620Y9421074D01*
G01X3148671Y9422889D01*
G01X3147848Y9424762D01*
G01X3147187Y9426625D01*
G01X3146725Y9428414D01*
G01X3146497Y9430063D01*
G01X3125285Y9408849D01*
G01X3126936Y9408622D01*
G01X3128724Y9408159D01*
G01X3130586Y9407497D01*
G01X3132455Y9406673D01*
G01X3134267Y9405723D01*
G01X3135958Y9404683D01*
G01X3137462Y9403590D01*
G01X3138715Y9402481D01*
G37*
G36*
G01X3669259Y9398856D02*
G01X3669259Y9378856D01*
G01X3670928Y9378754D01*
G01X3672764Y9378462D01*
G01X3674695Y9378001D01*
G01X3676649Y9377389D01*
G01X3678554Y9376649D01*
G01X3680339Y9375800D01*
G01X3681931Y9374862D01*
G01X3683259Y9373856D01*
G01X3683259Y9403856D01*
G01X3681931Y9402850D01*
G01X3680339Y9401912D01*
G01X3678554Y9401063D01*
G01X3676649Y9400323D01*
G01X3674695Y9399711D01*
G01X3672764Y9399250D01*
G01X3670928Y9398958D01*
G01X3669259Y9398856D01*
G37*
G36*
G01X3681537Y8944077D02*
G01X3701537Y8944077D01*
G01X3701639Y8945746D01*
G01X3701930Y8947583D01*
G01X3702391Y8949513D01*
G01X3703002Y8951467D01*
G01X3703742Y8953372D01*
G01X3704591Y8955157D01*
G01X3705528Y8956749D01*
G01X3706534Y8958077D01*
G01X3676534Y8958077D01*
G01X3677540Y8956749D01*
G01X3678478Y8955157D01*
G01X3679328Y8953372D01*
G01X3680069Y8951467D01*
G01X3680680Y8949513D01*
G01X3681142Y8947582D01*
G01X3681435Y8945746D01*
G01X3681537Y8944077D01*
G37*
G36*
G01X1998717Y8562482D02*
G01X2012859Y8576624D01*
G01X2011750Y8577877D01*
G01X2010658Y8579381D01*
G01X2009620Y8581073D01*
G01X2008670Y8582887D01*
G01X2007846Y8584758D01*
G01X2007185Y8586620D01*
G01X2006722Y8588409D01*
G01X2006495Y8590059D01*
G01X1985282Y8568846D01*
G01X1986932Y8568619D01*
G01X1988720Y8568156D01*
G01X1990583Y8567494D01*
G01X1992453Y8566671D01*
G01X1994268Y8565721D01*
G01X1995959Y8564682D01*
G01X1997464Y8563590D01*
G01X1998717Y8562482D01*
G37*
G36*
G01X4086509Y9561576D02*
G01X4106509Y9561576D01*
G01X4106612Y9563245D01*
G01X4106904Y9565081D01*
G01X4107366Y9567012D01*
G01X4107978Y9568966D01*
G01X4108719Y9570872D01*
G01X4109568Y9572657D01*
G01X4110506Y9574249D01*
G01X4111512Y9575576D01*
G01X4081512Y9575576D01*
G01X4082518Y9574248D01*
G01X4083456Y9572656D01*
G01X4084305Y9570872D01*
G01X4085044Y9568967D01*
G01X4085655Y9567013D01*
G01X4086116Y9565082D01*
G01X4086408Y9563246D01*
G01X4086509Y9561576D01*
G37*
G36*
G01X4276522Y8916060D02*
G01X4256522Y8916060D01*
G01X4256419Y8914392D01*
G01X4256126Y8912556D01*
G01X4255663Y8910625D01*
G01X4255050Y8908670D01*
G01X4254308Y8906764D01*
G01X4253458Y8904979D01*
G01X4252520Y8903387D01*
G01X4251514Y8902060D01*
G01X4281514Y8902060D01*
G01X4280508Y8903389D01*
G01X4279571Y8904981D01*
G01X4278722Y8906765D01*
G01X4277984Y8908670D01*
G01X4277374Y8910623D01*
G01X4276914Y8912553D01*
G01X4276623Y8914390D01*
G01X4276522Y8916060D01*
G37*
G36*
G01X3639287Y9508838D02*
G01X3639287Y9488838D01*
G01X3640952Y9488735D01*
G01X3642787Y9488439D01*
G01X3644720Y9487972D01*
G01X3646676Y9487355D01*
G01X3648583Y9486609D01*
G01X3650370Y9485756D01*
G01X3651961Y9484817D01*
G01X3653287Y9483813D01*
G01X3653287Y9513813D01*
G01X3651957Y9512805D01*
G01X3650365Y9511869D01*
G01X3648581Y9511024D01*
G01X3646679Y9510289D01*
G01X3644727Y9509683D01*
G01X3642797Y9509227D01*
G01X3640960Y9508938D01*
G01X3639287Y9508838D01*
G37*
G36*
G01X3682859Y9573504D02*
G01X3668716Y9587646D01*
G01X3667464Y9586538D01*
G01X3665959Y9585446D01*
G01X3664267Y9584407D01*
G01X3662452Y9583458D01*
G01X3660581Y9582634D01*
G01X3658719Y9581973D01*
G01X3656930Y9581510D01*
G01X3655280Y9581283D01*
G01X3676494Y9560070D01*
G01X3676721Y9561721D01*
G01X3677184Y9563509D01*
G01X3677846Y9565371D01*
G01X3678669Y9567242D01*
G01X3679619Y9569055D01*
G01X3680658Y9570747D01*
G01X3681750Y9572252D01*
G01X3682859Y9573504D01*
G37*
G36*
G01X4439385Y9570187D02*
G01X4425244Y9556044D01*
G01X4426321Y9554868D01*
G01X4427139Y9553763D01*
G01X4427725Y9552715D01*
G01X4428105Y9551708D01*
G01X4428308Y9550728D01*
G01X4428360Y9549761D01*
G01X4428288Y9548791D01*
G01X4428120Y9547805D01*
G01X4427309Y9544601D01*
G01X4426784Y9542114D01*
G01X4426608Y9540721D01*
G01X4426525Y9539210D01*
G01X4426563Y9537565D01*
G01X4447776Y9558778D01*
G01X4446358Y9559223D01*
G01X4445145Y9560261D01*
G01X4444086Y9561736D01*
G01X4443133Y9563490D01*
G01X4441345Y9567216D01*
G01X4440411Y9568874D01*
G01X4439385Y9570187D01*
G37*
G36*
G01X4411434Y9476054D02*
G01X4391434Y9476054D01*
G01X4391913Y9474005D01*
G01X4393143Y9472080D01*
G01X4394817Y9470259D01*
G01X4398256Y9466856D01*
G01X4399404Y9465235D01*
G01X4399759Y9463640D01*
G01X4399012Y9462054D01*
G01X4429012Y9462054D01*
G01X4428090Y9462959D01*
G01X4426995Y9463814D01*
G01X4425758Y9464627D01*
G01X4422988Y9466171D01*
G01X4417164Y9469210D01*
G01X4415837Y9470019D01*
G01X4414626Y9470867D01*
G01X4413562Y9471764D01*
G01X4412680Y9472722D01*
G01X4412009Y9473749D01*
G01X4411583Y9474857D01*
G01X4411434Y9476054D01*
G37*
G36*
G01X4306527Y9181592D02*
G01X4326527Y9181592D01*
G01X4326629Y9183261D01*
G01X4326920Y9185097D01*
G01X4327382Y9187029D01*
G01X4327994Y9188983D01*
G01X4328734Y9190888D01*
G01X4329583Y9192672D01*
G01X4330521Y9194264D01*
G01X4331527Y9195592D01*
G01X4301527Y9195592D01*
G01X4302533Y9194264D01*
G01X4303470Y9192672D01*
G01X4304320Y9190888D01*
G01X4305060Y9188983D01*
G01X4305671Y9187029D01*
G01X4306133Y9185097D01*
G01X4306425Y9183261D01*
G01X4306527Y9181592D01*
G37*
G36*
G01X4376522Y8666048D02*
G01X4356522Y8666048D01*
G01X4356419Y8664380D01*
G01X4356126Y8662544D01*
G01X4355663Y8660613D01*
G01X4355050Y8658658D01*
G01X4354308Y8656752D01*
G01X4353458Y8654967D01*
G01X4352519Y8653375D01*
G01X4351514Y8652048D01*
G01X4381514Y8652048D01*
G01X4380508Y8653376D01*
G01X4379570Y8654968D01*
G01X4378722Y8656753D01*
G01X4377984Y8658657D01*
G01X4377374Y8660611D01*
G01X4376914Y8662541D01*
G01X4376623Y8664378D01*
G01X4376522Y8666048D01*
G37*
G36*
G01X4326527Y8633536D02*
G01X4306527Y8633536D01*
G01X4306425Y8631867D01*
G01X4306133Y8630031D01*
G01X4305671Y8628100D01*
G01X4305060Y8626146D01*
G01X4304320Y8624240D01*
G01X4303470Y8622456D01*
G01X4302533Y8620864D01*
G01X4301527Y8619536D01*
G01X4331527Y8619536D01*
G01X4330521Y8620864D01*
G01X4329583Y8622456D01*
G01X4328734Y8624240D01*
G01X4327994Y8626146D01*
G01X4327382Y8628100D01*
G01X4326920Y8630031D01*
G01X4326629Y8631867D01*
G01X4326527Y8633536D01*
G37*
G36*
G01X3986517Y10125989D02*
G01X3966517Y10125989D01*
G01X3966415Y10124328D01*
G01X3966122Y10122499D01*
G01X3965659Y10120574D01*
G01X3965047Y10118626D01*
G01X3964307Y10116727D01*
G01X3963459Y10114948D01*
G01X3962524Y10113362D01*
G01X3961522Y10112040D01*
G01X3991522Y10112040D01*
G01X3990522Y10113361D01*
G01X3989586Y10114947D01*
G01X3988736Y10116727D01*
G01X3987994Y10118627D01*
G01X3987379Y10120576D01*
G01X3986915Y10122501D01*
G01X3986620Y10124330D01*
G01X3986517Y10125989D01*
G37*
G36*
G01X4208702Y9112602D02*
G01X4222843Y9126745D01*
G01X4221733Y9127997D01*
G01X4220641Y9129501D01*
G01X4219600Y9131192D01*
G01X4218650Y9133004D01*
G01X4217825Y9134873D01*
G01X4217164Y9136734D01*
G01X4216700Y9138522D01*
G01X4216472Y9140173D01*
G01X4195260Y9118959D01*
G01X4196909Y9118732D01*
G01X4198698Y9118270D01*
G01X4200562Y9117609D01*
G01X4202435Y9116786D01*
G01X4204250Y9115837D01*
G01X4205944Y9114800D01*
G01X4207450Y9113709D01*
G01X4208702Y9112602D01*
G37*
G36*
G01X4150195Y9426638D02*
G01X4164337Y9412496D01*
G01X4165589Y9413603D01*
G01X4167094Y9414695D01*
G01X4168787Y9415734D01*
G01X4170602Y9416682D01*
G01X4172473Y9417506D01*
G01X4174336Y9418167D01*
G01X4176125Y9418630D01*
G01X4177774Y9418857D01*
G01X4156561Y9440070D01*
G01X4156334Y9438420D01*
G01X4155871Y9436631D01*
G01X4155209Y9434769D01*
G01X4154385Y9432899D01*
G01X4153435Y9431086D01*
G01X4152396Y9429395D01*
G01X4151304Y9427890D01*
G01X4150195Y9426638D01*
G37*
G36*
G01X4106509Y8896045D02*
G01X4086509Y8896045D01*
G01X4086408Y8894375D01*
G01X4086116Y8892539D01*
G01X4085655Y8890608D01*
G01X4085044Y8888655D01*
G01X4084305Y8886750D01*
G01X4083456Y8884965D01*
G01X4082518Y8883373D01*
G01X4081512Y8882045D01*
G01X4111512Y8882045D01*
G01X4110506Y8883373D01*
G01X4109568Y8884964D01*
G01X4108719Y8886749D01*
G01X4107978Y8888655D01*
G01X4107366Y8890609D01*
G01X4106904Y8892540D01*
G01X4106612Y8894376D01*
G01X4106509Y8896045D01*
G37*
G36*
G01X4974361Y9788749D02*
G01X4974361Y9768749D01*
G01X4976042Y9768651D01*
G01X4977880Y9768370D01*
G01X4979808Y9767924D01*
G01X4981756Y9767329D01*
G01X4983654Y9766604D01*
G01X4985435Y9765766D01*
G01X4987027Y9764833D01*
G01X4988361Y9763822D01*
G01X4988361Y9793822D01*
G01X4987041Y9792821D01*
G01X4985449Y9791879D01*
G01X4983660Y9791018D01*
G01X4981748Y9790263D01*
G01X4979788Y9789635D01*
G01X4977854Y9789158D01*
G01X4976020Y9788855D01*
G01X4974361Y9788749D01*
G37*
G36*
G01X3833749Y9889388D02*
G01X3833749Y9908388D01*
G01X3832096Y9908510D01*
G01X3830264Y9908854D01*
G01X3828328Y9909389D01*
G01X3826364Y9910083D01*
G01X3824449Y9910904D01*
G01X3822657Y9911820D01*
G01X3821065Y9912800D01*
G01X3819749Y9913812D01*
G01X3819749Y9883812D01*
G01X3821085Y9884852D01*
G01X3822677Y9885860D01*
G01X3824456Y9886802D01*
G01X3826354Y9887646D01*
G01X3828300Y9888359D01*
G01X3830228Y9888909D01*
G01X3832067Y9889263D01*
G01X3833749Y9889388D01*
G37*
G36*
G01X5073858Y9394394D02*
G01X5053875Y9395211D01*
G01X5053705Y9393547D01*
G01X5053338Y9391724D01*
G01X5052798Y9389814D01*
G01X5052107Y9387886D01*
G01X5051289Y9386013D01*
G01X5050368Y9384264D01*
G01X5049366Y9382712D01*
G01X5048306Y9381427D01*
G01X5078281Y9380201D01*
G01X5077330Y9381569D01*
G01X5076459Y9383198D01*
G01X5075683Y9385016D01*
G01X5075021Y9386949D01*
G01X5074490Y9388927D01*
G01X5074108Y9390875D01*
G01X5073892Y9392721D01*
G01X5073858Y9394394D01*
G37*
G36*
G01X4979568Y9319611D02*
G01X4979568Y9299611D01*
G01X4981237Y9299508D01*
G01X4983073Y9299216D01*
G01X4985005Y9298754D01*
G01X4986959Y9298142D01*
G01X4988864Y9297401D01*
G01X4990649Y9296552D01*
G01X4992241Y9295614D01*
G01X4993568Y9294608D01*
G01X4993568Y9324608D01*
G01X4992240Y9323602D01*
G01X4990649Y9322664D01*
G01X4988864Y9321815D01*
G01X4986959Y9321076D01*
G01X4985005Y9320465D01*
G01X4983074Y9320004D01*
G01X4981238Y9319712D01*
G01X4979568Y9319611D01*
G37*
G36*
G01X4709153Y9950988D02*
G01X4689153Y9951080D01*
G01X4689043Y9949411D01*
G01X4688742Y9947576D01*
G01X4688271Y9945648D01*
G01X4687651Y9943696D01*
G01X4686901Y9941794D01*
G01X4686043Y9940013D01*
G01X4685098Y9938425D01*
G01X4684086Y9937103D01*
G01X4714086Y9936965D01*
G01X4713086Y9938298D01*
G01X4712156Y9939894D01*
G01X4711315Y9941682D01*
G01X4710584Y9943591D01*
G01X4709982Y9945547D01*
G01X4709530Y9947480D01*
G01X4709247Y9949318D01*
G01X4709153Y9950988D01*
G37*
G36*
G01X4518979Y9769794D02*
G01X4505544Y9756360D01*
G01X4506636Y9755093D01*
G01X4507687Y9753548D01*
G01X4508669Y9751798D01*
G01X4509553Y9749918D01*
G01X4510312Y9747981D01*
G01X4510917Y9746062D01*
G01X4511339Y9744233D01*
G01X4511552Y9742569D01*
G01X4532765Y9763782D01*
G01X4531102Y9763994D01*
G01X4529274Y9764418D01*
G01X4527355Y9765024D01*
G01X4525418Y9765784D01*
G01X4523538Y9766669D01*
G01X4521789Y9767652D01*
G01X4520244Y9768703D01*
G01X4518979Y9769794D01*
G37*
G36*
G01X4558741Y9734324D02*
G01X4558741Y9753323D01*
G01X4557074Y9753447D01*
G01X4555239Y9753796D01*
G01X4553307Y9754338D01*
G01X4551352Y9755041D01*
G01X4549445Y9755873D01*
G01X4547659Y9756802D01*
G01X4546067Y9757796D01*
G01X4544741Y9758821D01*
G01X4544741Y9728821D01*
G01X4546068Y9729847D01*
G01X4547660Y9730842D01*
G01X4549445Y9731771D01*
G01X4551351Y9732604D01*
G01X4553306Y9733308D01*
G01X4555238Y9733851D01*
G01X4557073Y9734200D01*
G01X4558741Y9734324D01*
G37*
G36*
G01X5029302Y9848319D02*
G01X5029302Y9829320D01*
G01X5030970Y9829196D01*
G01X5032805Y9828847D01*
G01X5034737Y9828304D01*
G01X5036692Y9827600D01*
G01X5038598Y9826767D01*
G01X5040383Y9825838D01*
G01X5041975Y9824843D01*
G01X5043302Y9823817D01*
G01X5043302Y9853817D01*
G01X5041976Y9852792D01*
G01X5040384Y9851798D01*
G01X5038598Y9850869D01*
G01X5036691Y9850037D01*
G01X5034736Y9849334D01*
G01X5032804Y9848792D01*
G01X5030969Y9848443D01*
G01X5029302Y9848319D01*
G37*
G36*
G01X4831537Y9896074D02*
G01X4831537Y9877074D01*
G01X4833206Y9876951D01*
G01X4835042Y9876601D01*
G01X4836973Y9876058D01*
G01X4838927Y9875354D01*
G01X4840833Y9874521D01*
G01X4842618Y9873591D01*
G01X4844210Y9872596D01*
G01X4845537Y9871569D01*
G01X4845537Y9901569D01*
G01X4844212Y9900544D01*
G01X4842619Y9899551D01*
G01X4840834Y9898623D01*
G01X4838927Y9897791D01*
G01X4836971Y9897088D01*
G01X4835039Y9896546D01*
G01X4833204Y9896197D01*
G01X4831537Y9896074D01*
G37*
G36*
G01X4761027Y9821037D02*
G01X4742028Y9821037D01*
G01X4741904Y9819369D01*
G01X4741555Y9817534D01*
G01X4741012Y9815602D01*
G01X4740309Y9813647D01*
G01X4739476Y9811741D01*
G01X4738547Y9809955D01*
G01X4737553Y9808363D01*
G01X4736527Y9807037D01*
G01X4766527Y9807037D01*
G01X4765501Y9808363D01*
G01X4764508Y9809955D01*
G01X4763578Y9811741D01*
G01X4762746Y9813647D01*
G01X4762042Y9815602D01*
G01X4761499Y9817534D01*
G01X4761150Y9819369D01*
G01X4761027Y9821037D01*
G37*
G36*
G01X2511166Y9283099D02*
G01X2510972Y9303097D01*
G01X2509412Y9303197D01*
G01X2507675Y9303504D01*
G01X2505834Y9303990D01*
G01X2503963Y9304625D01*
G01X2502137Y9305380D01*
G01X2500429Y9306226D01*
G01X2498911Y9307133D01*
G01X2497660Y9308073D01*
G01X2497951Y9278075D01*
G01X2499184Y9279029D01*
G01X2500683Y9279942D01*
G01X2502376Y9280788D01*
G01X2504188Y9281540D01*
G01X2506046Y9282172D01*
G01X2507878Y9282660D01*
G01X2509609Y9282978D01*
G01X2511166Y9283099D01*
G37*
G36*
G01X2415779Y9385769D02*
G01X2401636Y9371628D01*
G01X2402675Y9370440D01*
G01X2403701Y9368991D01*
G01X2404677Y9367352D01*
G01X2405571Y9365590D01*
G01X2406346Y9363774D01*
G01X2406969Y9361975D01*
G01X2407405Y9360260D01*
G01X2407619Y9358700D01*
G01X2428833Y9379911D01*
G01X2427282Y9380121D01*
G01X2425556Y9380546D01*
G01X2423733Y9381153D01*
G01X2421886Y9381910D01*
G01X2420092Y9382784D01*
G01X2418426Y9383740D01*
G01X2416963Y9384746D01*
G01X2415779Y9385769D01*
G37*
G36*
G01X4879645Y8699293D02*
G01X4891807Y8711456D01*
G01X4890606Y8712860D01*
G01X4889567Y8714474D01*
G01X4888683Y8716250D01*
G01X4887951Y8718140D01*
G01X4887365Y8720097D01*
G01X4886920Y8722071D01*
G01X4886611Y8724015D01*
G01X4886433Y8725881D01*
G01X4865220Y8704668D01*
G01X4867086Y8704490D01*
G01X4869030Y8704181D01*
G01X4871004Y8703736D01*
G01X4872960Y8703150D01*
G01X4874851Y8702417D01*
G01X4876627Y8701534D01*
G01X4878241Y8700494D01*
G01X4879645Y8699293D01*
G37*
G36*
G01X3247100Y9044229D02*
G01X3229900Y9044229D01*
G01X3229756Y9042387D01*
G01X3229350Y9040510D01*
G01X3228719Y9038630D01*
G01X3227900Y9036775D01*
G01X3226931Y9034977D01*
G01X3225850Y9033267D01*
G01X3224694Y9031674D01*
G01X3223500Y9030229D01*
G01X3253500Y9030229D01*
G01X3252306Y9031674D01*
G01X3251150Y9033267D01*
G01X3250069Y9034977D01*
G01X3249100Y9036775D01*
G01X3248281Y9038630D01*
G01X3247650Y9040510D01*
G01X3247244Y9042387D01*
G01X3247100Y9044229D01*
G37*
G36*
G01X5228300Y9343748D02*
G01X5211100Y9343748D01*
G03X5189700Y9403748I-94812J-0D01*
G01X5249700Y9403748D01*
G03X5228300Y9343748I73412J-60000D01*
G37*
G36*
G01X2626499Y10018880D02*
G01X2609299Y10018880D01*
G03X2587899Y10078880I-94812J-0D01*
G01X2647899Y10078880D01*
G03X2626499Y10018880I73412J-60000D01*
G37*
G04 TearDrop End*

G04 Pad Start*
G54D10*
G01X5307762Y9978593D03*
G01X5307762Y8698611D03*
G01X1714525Y9966808D03*
G01X1714500Y8686800D03*
G04 Pad End*

G04 Via Start*
G54D11*
G01X3701517Y9316314D03*
G01X5466512Y9828809D03*
G01X3466516Y9148826D03*
G01X2936519Y9648825D03*
G01X2906522Y9478823D03*
G01X2816530Y9478823D03*
G01X2556535Y9748825D03*
G01X2566518Y9848825D03*
G01X3556533Y9828809D03*
G01X3406521Y10018827D03*
G01X3294532Y10001834D03*
G01X2558542Y10001809D03*
G01X2856535Y10008819D03*
G01X3026537Y10008819D03*
G01X3136519Y10008819D03*
G01X3510051Y9652330D03*
G01X3466516Y9478823D03*
G01X3406521Y9438818D03*
G01X4386529Y9738817D03*
G01X3966515Y9828809D03*
G01X3476523Y9248826D03*
G01X3256534Y9738843D03*
G01X3256534Y9783851D03*
G01X3211525Y9783851D03*
G01X3211525Y9738843D03*
G01X3291510Y9493834D03*
G01X3291510Y9448851D03*
G01X3676523Y9818853D03*
G01X3676523Y9863836D03*
G01X3631514Y9863836D03*
G01X3631514Y9818853D03*
G01X3571519Y9983851D03*
G01X3571519Y10028834D03*
G01X3526511Y10028834D03*
G01X3526511Y9983851D03*
G01X2331517Y9953854D03*
G01X2331517Y9998837D03*
G01X2286533Y9998837D03*
G01X2286533Y9953854D03*
G01X2906522Y9748850D03*
G01X2906522Y9793834D03*
G01X2861513Y9793834D03*
G01X2861513Y9748850D03*
G01X2308962Y9123832D03*
G01X2308962Y9073845D03*
G01X2301443Y8818829D03*
G01X2301469Y9031326D03*
G01X2301469Y8988882D03*
G01X2301469Y8946337D03*
G01X2301469Y8903843D03*
G01X2301469Y8861323D03*
G01X2479015Y9841306D03*
G01X2479015Y9796323D03*
G01X2479015Y9751314D03*
G01X2479015Y9706305D03*
G01X2479015Y9661322D03*
G01X2479015Y9616313D03*
G01X2436520Y9841306D03*
G01X2436520Y9796323D03*
G01X2436520Y9751314D03*
G01X2436520Y9706305D03*
G01X2436520Y9661322D03*
G01X2436520Y9616313D03*
G01X2394026Y9841306D03*
G01X2394026Y9796323D03*
G01X2394026Y9751314D03*
G01X2394026Y9706305D03*
G01X2394026Y9661322D03*
G01X2394026Y9616313D03*
G01X2356536Y9593809D03*
G01X2356536Y9638817D03*
G01X2356536Y9683826D03*
G01X2356536Y9728810D03*
G01X2356536Y9773818D03*
G01X2356536Y9818802D03*
G01X2316531Y9793808D03*
G01X2316531Y9748825D03*
G01X2316531Y9703816D03*
G01X2316531Y9658807D03*
G01X2316531Y9613824D03*
G01X2316531Y9568815D03*
G01X5476519Y8848852D03*
G01X4924146Y8982685D03*
G01X4969154Y8982685D03*
G01X5014138Y8982685D03*
G01X5059147Y8982685D03*
G01X5104130Y8982685D03*
G01X5106518Y9031351D03*
G01X5061509Y9031351D03*
G01X5016525Y9031351D03*
G01X4971517Y9031351D03*
G01X4926533Y9031351D03*
G01X5139030Y9061374D03*
G01X5139030Y9106332D03*
G01X5141519Y9601327D03*
G01X5099025Y9601327D03*
G01X5056530Y9601327D03*
G01X4966513Y9601327D03*
G01X4914011Y9603842D03*
G01X4959020Y9651340D03*
G01X5009007Y9623831D03*
G01X5054016Y9646310D03*
G01X5096510Y9646310D03*
G01X5139030Y9646310D03*
G01X5139030Y9691319D03*
G01X5096510Y9691319D03*
G01X5056530Y9708820D03*
G01X5096510Y9738817D03*
G01X5056530Y9758807D03*
G01X5106518Y9788804D03*
G01X5146523Y9748825D03*
G01X4906518Y9678822D03*
G01X4309034Y9266326D03*
G01X5056505Y9208973D03*
G01X5056505Y9166454D03*
G01X5056505Y9123959D03*
G01X5011522Y9208973D03*
G01X5011496Y9166454D03*
G01X5011522Y9123959D03*
G01X4966513Y9208973D03*
G01X4966513Y9166454D03*
G01X4966513Y9123959D03*
G01X4746523Y9126398D03*
G01X4789018Y9126398D03*
G01X4831512Y9126398D03*
G01X4876521Y9126474D03*
G01X4921529Y9126449D03*
G01X4746523Y9168892D03*
G01X4789018Y9168892D03*
G01X4831512Y9168892D03*
G01X4876521Y9168943D03*
G01X4921504Y9168943D03*
G01X4746523Y9211412D03*
G01X4789018Y9211412D03*
G01X4831512Y9211412D03*
G01X4876521Y9211462D03*
G01X4921529Y9211437D03*
G01X4746523Y9256420D03*
G01X4789018Y9256420D03*
G01X4831512Y9256420D03*
G01X4876521Y9256471D03*
G01X4921529Y9256446D03*
G01X4921529Y9298940D03*
G01X4746523Y9298889D03*
G01X4789018Y9298889D03*
G01X4831512Y9298889D03*
G01X4876521Y9298940D03*
G01X4746523Y9341383D03*
G01X4789018Y9341383D03*
G01X4831512Y9341383D03*
G01X4876521Y9341460D03*
G01X4746523Y9383852D03*
G01X4789018Y9383852D03*
G01X4831512Y9383852D03*
G01X4876521Y9383903D03*
G01X4746523Y9426321D03*
G01X4789018Y9426321D03*
G01X4831512Y9426321D03*
G01X4874006Y9426372D03*
G01X4916526Y9426321D03*
G01X4916526Y9468815D03*
G01X4831512Y9468815D03*
G01X4874031Y9468815D03*
G01X4789018Y9468815D03*
G01X4746523Y9468815D03*
G01X4964024Y9486316D03*
G01X5026533Y9498813D03*
G01X5069027Y9498813D03*
G01X4751527Y9513824D03*
G01X4794021Y9513824D03*
G01X4836516Y9513824D03*
G01X4879010Y9516313D03*
G01X4919015Y9533865D03*
G01X4961534Y9533865D03*
G01X5004029Y9533865D03*
G01X5046523Y9533865D03*
G01X5089017Y9533865D03*
G54D12*
G01X2676525Y9148826D03*
G01X2616530Y9088806D03*
G01X2616530Y9208821D03*
G01X2616530Y9148826D03*
G01X2556535Y9088806D03*
G01X2556535Y9208821D03*
G01X2556535Y9148826D03*
G01X2496515Y9088806D03*
G01X2496515Y9148826D03*
G01X2446528Y8998814D03*
G01X2446528Y9058808D03*
G01X2446528Y9118829D03*
G01X2446528Y9178823D03*
G01X2386533Y8998814D03*
G01X2386533Y9058808D03*
G01X2386533Y9118829D03*
G01X2386533Y9178823D03*
G01X2646528Y9258808D03*
G01X2586533Y9258808D03*
G01X2586507Y9333890D03*
G01X2646528Y9318828D03*
G01X2626538Y9378823D03*
G01X2586533Y9428810D03*
G01X2506523Y9518828D03*
G01X2446528Y9518828D03*
G01X2386533Y9518828D03*
G01X2536520Y9468815D03*
G01X2476525Y9468815D03*
G01X2416531Y9468815D03*
G01X2356536Y9468815D03*
G54D11*
G01X4361536Y9351315D03*
G01X3126537Y9428810D03*
G01X3696487Y9388856D03*
G01X3456534Y9008821D03*
G01X3691534Y8971305D03*
G01X1986534Y8588807D03*
G01X4394987Y9210548D03*
G01X3846525Y8988806D03*
G01X4096512Y9588805D03*
G01X4266514Y8888832D03*
G54D12*
G01X4759020Y9982733D03*
G54D11*
G01X3666515Y9498813D03*
G01X3656533Y9561322D03*
G01X3646449Y9618726D03*
G01X4446524Y9538818D03*
G01X4414012Y9448825D03*
G01X4316527Y9208821D03*
G01X4366514Y8638819D03*
G01X4316527Y8606307D03*
G01X3976522Y10098811D03*
G01X4196512Y9138920D03*
G01X4646447Y9713722D03*
G01X4176522Y9438818D03*
G01X4096512Y8868816D03*
G01X5094021Y10088804D03*
G01X5001590Y9778822D03*
G01X4636516Y8968816D03*
G01X4566514Y9038819D03*
G01X3981526Y9406306D03*
G01X3986530Y9338818D03*
G01X3891534Y9406331D03*
G01X3894023Y9336329D03*
G01X3816528Y9336329D03*
G01X3814013Y9406306D03*
G01X3806520Y9898812D03*
G01X5001514Y10088804D03*
G01X4901514Y10088804D03*
G01X4951527Y10113823D03*
G01X4199026Y9318828D03*
G01X4196512Y9376308D03*
G01X4186530Y9508820D03*
G01X4186530Y9566326D03*
G01X5062753Y9367596D03*
G01X5006797Y9369603D03*
G01X5062753Y9311615D03*
G01X5118760Y9311615D03*
G01X5118760Y9367596D03*
G01X5006797Y9309608D03*
G01X4136517Y9923805D03*
G01X4699025Y9923805D03*
G01X4531512Y9743821D03*
G01X5056530Y9838817D03*
G01X4858766Y9886569D03*
G01X4751527Y9793808D03*
G54D12*
G01X3111525Y9168028D03*
G01X3006522Y9158808D03*
G01X2856535Y9138818D03*
G01X2916530Y9138818D03*
G01X2856535Y9198813D03*
G01X2916530Y9198813D03*
G01X2856535Y9258808D03*
G01X2916530Y9258808D03*
G01X2916530Y9318828D03*
G01X2856535Y9318828D03*
G54D11*
G01X2484577Y9362948D03*
G01X2484577Y9292946D03*
G54D13*
G01X2329586Y9327947D03*
G01X2383587Y9327947D03*
G54D11*
G01X2427580Y9293936D03*
G01X2427580Y9359951D03*
G01X4866472Y8724628D03*
G01X4966472Y8742909D03*
G01X3403600Y9067800D03*
G01X3238500Y9017000D03*
G01X4597400Y9906000D03*
G04 Via End*

G04 Track Start*
G54D15*
G01X3406524Y9438818D02*
G01X3406524Y9458818D01*
G01X3256524Y9608817D01*
G01X3066527Y9608817D01*
G01X2966527Y9708817D01*
G01X2966527Y9958817D01*
G01X2916527Y10008817D01*
G01X2856525Y10008817D01*
G01X3026522Y10008817D02*
G01X3026522Y9728815D01*
G01X3096522Y9658817D01*
G01X3286526Y9658817D01*
G01X3466521Y9478815D01*
G01X3136524Y10008817D02*
G01X3153555Y10008817D01*
G01X3510041Y9652330D01*
G01X3696485Y9388856D02*
G01X3166483Y9388856D01*
G01X3126522Y9428815D01*
G01X4906521Y9678822D02*
G01X4876505Y9648815D01*
G01X4786526Y9648815D01*
G01X4426524Y9288818D01*
G01X4331510Y9288818D01*
G01X4309024Y9266331D01*
G01X4361462Y9351264D02*
G01X4419120Y9351264D01*
G01X4846604Y9778749D01*
G01X5001534Y9778749D01*
G01X2484651Y9292841D02*
G01X2511069Y9293098D01*
G01X2531643Y9313672D01*
G01X2531643Y9383522D01*
G01X2501166Y9414002D01*
G01X2191281Y9414002D01*
G01X2171728Y9433560D01*
G01X2171728Y10034019D01*
G01X2226589Y10088880D01*
G01X3917208Y10088880D02*
G01X3954800Y10051288D01*
G01X4001546Y10051288D01*
G01X4039136Y10088880D01*
G01X4766335Y10088880D01*
G01X4866411Y9988807D01*
G01X4976393Y9988807D01*
G01X5291104Y9674352D01*
G01X5291104Y9483341D01*
G01X5259093Y9451337D01*
G01X5009162Y9451337D01*
G01X4956576Y9398765D01*
G01X4956576Y9328915D01*
G01X4975626Y9309611D01*
G01X5006878Y9309611D01*
G01X1986537Y8588804D02*
G01X2026521Y8548820D01*
G01X3616528Y8548820D01*
G01X3691537Y8623828D01*
G01X3691537Y8971305D01*
G01X3656536Y9561322D02*
G01X3734026Y9638817D01*
G01X4296534Y9638817D01*
G01X4401434Y9533913D01*
G01X4401434Y9461403D01*
G01X4414022Y9448820D01*
G01X4446554Y9538719D02*
G01X4446554Y9548876D01*
G01X4316504Y9678921D01*
G01X3636543Y9678921D01*
G01X3596411Y9638795D01*
G01X3596411Y9518907D01*
G01X3616477Y9498838D01*
G01X3666520Y9498838D01*
G01X4096509Y8868832D02*
G01X4096509Y9588805D01*
G01X4266522Y8888829D02*
G01X4266522Y8998821D01*
G01X4146517Y9118818D01*
G01X4146517Y9408818D01*
G01X4176517Y9438818D01*
G01X4316527Y9208823D02*
G01X4316527Y9078816D01*
G01X4366522Y9028821D01*
G01X4366522Y8638817D01*
G01X4316527Y8606323D02*
G01X4316527Y9018925D01*
G01X4196522Y9138923D01*
G54D16*
G01X4426486Y9928860D02*
G01X4376443Y9978898D01*
G01X4121427Y9978898D01*
G01X4041419Y9898888D01*
G01X3806469Y9898888D01*
G54D15*
G01X2427501Y9359903D02*
G01X2408707Y9378699D01*
G01X2176554Y9378699D01*
G01X2136419Y9418825D01*
G01X2136419Y10048748D01*
G01X2216427Y10128761D01*
G01X4786404Y10128761D01*
G01X4886477Y10028933D01*
G01X4986551Y10028933D01*
G01X5256550Y9758934D01*
G01X5306593Y9758934D01*
G01X5326400Y9738868D01*
G01X5326400Y9438891D01*
G01X5301508Y9413748D01*
G01X5079012Y9413748D01*
G01X5064028Y9398765D01*
G01X5062751Y9367517D01*
G01X3979296Y10128761D02*
G01X3976517Y10125989D01*
G01X3976517Y10098814D01*
G01X4699028Y9923780D02*
G01X4699785Y10088880D01*
G54D16*
G01X5056525Y9838820D02*
G01X4986515Y9838820D01*
G01X4886516Y9938819D01*
G01X4806531Y9938819D01*
G01X4611530Y9743824D01*
G01X4531510Y9743824D01*
G01X4531523Y9743816D02*
G01X4426524Y9848814D01*
G01X4426524Y9928817D01*
G01X4751527Y9793811D02*
G01X4751527Y9823818D01*
G01X4814283Y9886574D01*
G01X4858771Y9886574D01*
G54D17*
G01X5219700Y8885646D02*
G01X5219700Y9413672D01*
G01X3238500Y9017000D02*
G01X3238500Y9245600D01*
G01X2844800Y9639300D02*
G01X2692400Y9639300D01*
G01X2617899Y9713801D01*
G01X2617899Y10088880D01*
G54D15*
G01X2226589Y10088880D02*
G01X2617899Y10088880D01*
G01X3917208Y10088880D01*
G54D17*
G01X3238500Y9245600D02*
G01X2844800Y9639300D01*
G01X4866472Y8724628D02*
G01X4904301Y8686800D01*
G01X5020854Y8686800D01*
G01X5219700Y8885646D01*
G04 Track End*

M02*

